<svg width="21" height="15" viewBox="0 0 21 15" fill="none" xmlns="http://www.w3.org/2000/svg">
<path d="M1.48517 6.54883C0.932884 6.54883 0.485168 6.99654 0.485168 7.54883C0.485168 8.10111 0.932884 8.54883 1.48517 8.54883V6.54883ZM20.419 8.25593C20.8095 7.86541 20.8095 7.23225 20.419 6.84172L14.055 0.47776C13.6645 0.0872359 13.0313 0.0872359 12.6408 0.47776C12.2503 0.868285 12.2503 1.50145 12.6408 1.89197L18.2976 7.54883L12.6408 13.2057C12.2503 13.5962 12.2503 14.2294 12.6408 14.6199C13.0313 15.0104 13.6645 15.0104 14.055 14.6199L20.419 8.25593ZM1.48517 8.54883H19.7119V6.54883H1.48517V8.54883Z" fill="black"/>
</svg>
