<svg width="27" height="26" viewBox="0 0 27 26" fill="none" xmlns="http://www.w3.org/2000/svg">
<g id="Group 1000005122">
<circle id="Ellipse 1892" cx="13.5063" cy="12.6021" r="10.1851" fill="white"/>
<g id="vuesax/bold/tick-circle">
<g id="tick-circle">
<path id="Vector" d="M13.5195 2.13623C7.63392 2.13623 2.83789 6.93226 2.83789 12.8178C2.83789 18.7034 7.63392 23.4994 13.5195 23.4994C19.405 23.4994 24.2011 18.7034 24.2011 12.8178C24.2011 6.93226 19.405 2.13623 13.5195 2.13623ZM18.6253 10.361L12.5688 16.4175C12.4193 16.567 12.2163 16.6525 12.0027 16.6525C11.7891 16.6525 11.5861 16.567 11.4366 16.4175L8.41368 13.3946C8.10391 13.0849 8.10391 12.5721 8.41368 12.2624C8.72344 11.9526 9.23616 11.9526 9.54593 12.2624L12.0027 14.7191L17.493 9.2288C17.8028 8.91904 18.3155 8.91904 18.6253 9.2288C18.935 9.53857 18.935 10.0406 18.6253 10.361Z" fill="#13BC42"/>
</g>
</g>
</g>
</svg>
