<svg width="397" height="506" viewBox="0 0 397 506" fill="none" xmlns="http://www.w3.org/2000/svg">
<circle opacity="0.5" cx="195.263" cy="242.429" r="187.324" fill="url(#paint0_radial_7602_48339)"/>
<g opacity="0.3">
<path fill-rule="evenodd" clip-rule="evenodd" d="M196.653 253L392.519 207.895L392.519 155.812L196.653 253Z" fill="url(#paint1_linear_7602_48339)"/>
<path fill-rule="evenodd" clip-rule="evenodd" d="M392.519 253L196.653 253L392.519 298.104L392.519 253Z" fill="url(#paint2_linear_7602_48339)"/>
<path fill-rule="evenodd" clip-rule="evenodd" d="M392.519 350.187L196.653 253L392.519 421.335L392.519 350.187Z" fill="url(#paint3_linear_7602_48339)"/>
<path fill-rule="evenodd" clip-rule="evenodd" d="M366.278 505.5L196.653 253L275.375 505.5L366.278 505.5Z" fill="url(#paint4_linear_7602_48339)"/>
<path fill-rule="evenodd" clip-rule="evenodd" d="M196.653 505.5L196.653 253L117.929 505.5L196.653 505.5Z" fill="url(#paint5_linear_7602_48339)"/>
<path fill-rule="evenodd" clip-rule="evenodd" d="M27.0268 505.5L196.653 253L0.786948 421.332L0.786944 505.5L27.0268 505.5Z" fill="url(#paint6_linear_7602_48339)"/>
<path fill-rule="evenodd" clip-rule="evenodd" d="M0.786952 350.186L196.653 253L0.786954 298.104L0.786952 350.186Z" fill="url(#paint7_linear_7602_48339)"/>
<path fill-rule="evenodd" clip-rule="evenodd" d="M0.786954 253.001L196.653 253.001L0.786957 207.895L0.786954 253.001Z" fill="url(#paint8_linear_7602_48339)"/>
<path fill-rule="evenodd" clip-rule="evenodd" d="M0.786953 155.813L196.653 253.001L0.786957 84.6667L0.786953 155.813Z" fill="url(#paint9_linear_7602_48339)"/>
<path fill-rule="evenodd" clip-rule="evenodd" d="M27.0276 0.5L196.653 253L117.929 0.500004L27.0276 0.5Z" fill="url(#paint10_linear_7602_48339)"/>
<path fill-rule="evenodd" clip-rule="evenodd" d="M196.652 0.500004L196.652 253L275.375 0.500008L196.652 0.500004Z" fill="url(#paint11_linear_7602_48339)"/>
<path fill-rule="evenodd" clip-rule="evenodd" d="M366.278 0.500006L196.653 253L392.519 84.6668L392.519 0.500008L366.278 0.500006Z" fill="url(#paint12_linear_7602_48339)"/>
</g>
<g filter="url(#filter0_d_7602_48339)">
<circle cx="195.264" cy="242.429" r="144.194" fill="url(#paint13_radial_7602_48339)" shape-rendering="crispEdges"/>
</g>
<path d="M38.2217 128.916L33.2157 130.184C28.6392 131.343 25.0629 135.721 24.1158 141.323L23.0806 147.45L22.0444 141.323C21.0973 135.721 17.521 131.343 12.9445 130.184L7.93848 128.916L12.9445 127.648C17.521 126.489 21.0973 122.112 22.0444 116.51L23.0806 110.382L24.1158 116.51C25.0629 122.112 28.6392 126.489 33.2157 127.648L38.2217 128.916Z" fill="#FF4D4D"/>
<path d="M396.293 274.202L391.762 275.35C387.619 276.399 384.382 280.362 383.525 285.433L382.588 290.979L381.65 285.433C380.793 280.362 377.555 276.399 373.413 275.35L368.881 274.202L373.413 273.054C377.555 272.005 380.793 268.043 381.65 262.972L382.588 257.426L383.525 262.972C384.382 268.043 387.619 272.005 391.762 273.054L396.293 274.202Z" fill="#FF4D4D"/>
<path d="M282.079 362.732L279.502 363.384C277.147 363.981 275.306 366.234 274.818 369.118L274.286 372.271L273.752 369.118C273.265 366.234 271.424 363.981 269.069 363.384L266.492 362.732L269.069 362.079C271.424 361.483 273.265 359.23 273.752 356.346L274.286 353.193L274.818 356.346C275.306 359.23 277.147 361.483 279.502 362.079L282.079 362.732Z" fill="#FF4D4D"/>
<path d="M316.79 89.8277L311.988 91.0436C307.597 92.1557 304.167 96.3557 303.258 101.73L302.265 107.608L301.271 101.73C300.362 96.3557 296.931 92.1557 292.541 91.0436L287.739 89.8277L292.541 88.6109C296.931 87.4988 300.362 83.2998 301.271 77.9256L302.265 72.0478L303.258 77.9256C304.167 83.2998 307.597 87.4988 311.988 88.6109L316.79 89.8277Z" fill="#FF4D4D"/>
<path d="M107.303 256.035L103.628 256.966C100.268 257.817 97.6429 261.031 96.9477 265.143L96.1878 269.641L95.4271 265.143C94.7318 261.031 92.1064 257.817 88.7467 256.966L85.0718 256.035L88.7467 255.104C92.1064 254.253 94.7318 251.04 95.4271 246.927L96.1878 242.429L96.9477 246.927C97.6429 251.04 100.268 254.253 103.628 255.104L107.303 256.035Z" fill="#FF4D4D"/>
<path d="M74.7074 336.066L68.6762 337.593C63.1624 338.99 58.8537 344.265 57.7126 351.014L56.4654 358.396L55.217 351.014C54.0759 344.265 49.7672 338.99 44.2534 337.593L38.2222 336.066L44.2534 334.538C49.7672 333.141 54.0759 327.868 55.217 321.118L56.4654 313.736L57.7126 321.118C58.8537 327.868 63.1624 333.141 68.6762 334.538L74.7074 336.066Z" fill="#FF4D4D"/>
<path d="M318.794 273.188C329.954 207.018 285.358 144.33 219.188 133.171C153.017 122.011 90.3292 166.607 79.17 232.777C68.0107 298.948 112.606 361.636 178.777 372.795C244.947 383.954 307.635 339.359 318.794 273.188Z" fill="#FF4D4D"/>
<g opacity="0.1">
<path d="M229.459 135.38C164.5 118.539 98.1941 157.543 81.3545 222.503C81.3545 222.503 163.041 247.627 191.551 219.498C220.062 191.368 229.459 135.38 229.459 135.38Z" fill="white"/>
</g>
<path d="M287.006 273.828C274.204 323.21 223.8 352.862 174.417 340.06C125.034 327.258 95.3836 276.852 108.185 227.469C120.987 178.088 171.391 148.436 220.776 161.238C270.158 174.039 299.808 224.445 287.006 273.828Z" fill="#FF4D4D"/>
<g opacity="0.2">
<path d="M287.006 273.828C274.204 323.21 223.8 352.862 174.417 340.06C125.034 327.258 95.3836 276.852 108.185 227.469C120.987 178.088 171.391 148.436 220.776 161.238C270.158 174.039 299.808 224.445 287.006 273.828Z" fill="black"/>
</g>
<path d="M288.558 278.207C275.928 326.926 226.199 356.18 177.482 343.55C128.761 330.919 99.5092 281.189 112.141 232.472C124.77 183.753 174.5 154.499 223.219 167.131C271.938 179.759 301.19 229.49 288.558 278.207Z" fill="#FF4D4D"/>
<g opacity="0.2">
<path d="M288.558 278.207C275.928 326.926 226.199 356.18 177.482 343.55C128.761 330.919 99.5092 281.189 112.141 232.472C124.77 183.753 174.5 154.499 223.219 167.131C271.938 179.759 301.19 229.49 288.558 278.207Z" fill="black"/>
</g>
<path d="M205.846 248.603L211.696 226.036C211.732 226.043 211.769 226.055 211.805 226.064C215.608 227.533 219.396 229.632 222.99 232.299C225.892 234.906 227.69 237.3 227.69 237.3L228.17 236.68L233.759 229.456L235.044 227.796L232.117 222.528L229.956 222.897C225.664 219.15 220.543 215.755 214.833 213.94L218.05 201.528L214.993 197.412L214.186 200.526L208.882 199.151L205.606 211.785C187.728 208.941 176.874 216.747 173.918 228.152C169.889 243.694 182.152 251.168 193.78 257.406L187.982 279.768C179.686 276.782 172.141 271.366 167.821 265.473L159.862 275.461C164.371 281.999 174.066 288.332 184.85 291.845L182.421 301.216L178.037 300.16L181.633 304.255L190.803 306.632L194.049 294.109C212.068 296.872 223.004 289.205 225.962 277.801C229.989 262.259 217.474 254.839 205.846 248.603ZM197.287 243.877C191.293 240.295 187.123 236.589 188.516 231.221C189.791 226.302 194.19 223.147 202.448 223.975L197.287 243.877ZM197.209 281.923L202.34 262.132C208.557 265.772 212.809 269.618 211.388 275.097C210.141 279.905 205.689 282.808 197.209 281.923Z" fill="#FF4D4D"/>
<g opacity="0.3">
<path d="M205.846 248.603L211.696 226.036C211.732 226.043 211.769 226.055 211.805 226.064C215.608 227.533 219.396 229.632 222.99 232.299C225.892 234.906 227.69 237.3 227.69 237.3L228.17 236.68L233.759 229.456L235.044 227.796L232.117 222.528L229.956 222.897C225.664 219.15 220.543 215.755 214.833 213.94L218.05 201.528L214.993 197.412L214.186 200.526L208.882 199.151L205.606 211.785C187.728 208.941 176.874 216.747 173.918 228.152C169.889 243.694 182.152 251.168 193.78 257.406L187.982 279.768C179.686 276.782 172.141 271.366 167.821 265.473L159.862 275.461C164.371 281.999 174.066 288.332 184.85 291.845L182.421 301.216L178.037 300.16L181.633 304.255L190.803 306.632L194.049 294.109C212.068 296.872 223.004 289.205 225.962 277.801C229.989 262.259 217.474 254.839 205.846 248.603ZM197.287 243.877C191.293 240.295 187.123 236.589 188.516 231.221C189.791 226.302 194.19 223.147 202.448 223.975L197.287 243.877ZM197.209 281.923L202.34 262.132C208.557 265.772 212.809 269.618 211.388 275.097C210.141 279.905 205.689 282.808 197.209 281.923Z" fill="black"/>
</g>
<path d="M191.057 290.062L187.811 302.589L178.642 300.212L181.86 287.798C171.076 284.284 161.379 277.952 156.869 271.411L164.829 261.422C169.149 267.317 176.696 272.732 184.992 275.72L190.79 253.354C179.16 247.118 166.895 239.641 170.926 224.097C173.884 212.689 184.738 204.882 202.619 207.728L205.895 195.092L215.065 197.469L211.846 209.881C220.007 212.474 227.754 217.108 232.781 222.589L225.267 232.694C220.24 227.691 214.468 224.166 208.716 221.958L202.859 244.548C214.491 250.785 227.008 258.209 222.977 273.751C220.019 285.158 209.078 292.825 191.057 290.062ZM194.295 239.822L199.456 219.916C191.198 219.087 186.8 222.245 185.524 227.164C184.131 232.532 188.303 236.239 194.295 239.822ZM208.399 271.047C209.82 265.568 205.567 261.721 199.35 258.08L194.219 277.874C202.701 278.761 207.153 275.857 208.399 271.047Z" fill="#FF4D4D"/>
<path d="M175.634 343.998C175.637 343.982 175.891 344.019 176.38 344.104C176.908 344.201 177.627 344.335 178.547 344.506C179.512 344.692 180.684 344.92 182.061 345.186C183.45 345.45 185.038 345.836 186.878 345.94C188.709 346.118 190.74 346.314 192.959 346.528C194.066 346.685 195.235 346.648 196.445 346.646C197.657 346.645 198.914 346.641 200.217 346.639C201.517 346.599 202.872 346.723 204.255 346.547C205.639 346.408 207.068 346.265 208.537 346.119C210.003 345.942 211.528 345.89 213.06 345.601C214.591 345.297 216.159 344.984 217.766 344.664C224.215 343.457 231.016 341.033 238.075 337.969C239.779 337.074 241.514 336.162 243.276 335.236C244.152 334.764 245.055 334.324 245.929 333.82C246.776 333.267 247.628 332.711 248.485 332.149C250.186 331.003 251.982 329.941 253.673 328.683C255.321 327.367 256.99 326.032 258.681 324.68L259.953 323.665C260.362 323.307 260.741 322.91 261.138 322.535C261.924 321.771 262.715 321.004 263.51 320.232C264.304 319.46 265.104 318.685 265.909 317.904C266.739 317.147 267.393 316.217 268.147 315.376C269.592 313.631 271.138 311.938 272.545 310.105C273.86 308.204 275.188 306.284 276.527 304.349C281.549 296.385 285.569 287.412 288.204 277.766C290.588 268.051 291.436 258.254 290.917 248.85C290.685 246.506 290.457 244.183 290.231 241.882C289.894 239.597 289.365 237.365 288.95 235.139C288.698 234.035 288.579 232.904 288.221 231.84C287.898 230.767 287.574 229.7 287.254 228.639C286.934 227.578 286.616 226.523 286.3 225.474C286.136 224.952 285.997 224.422 285.813 223.911L285.194 222.405C284.373 220.402 283.561 218.424 282.761 216.472C281.893 214.552 280.84 212.749 279.909 210.921C279.431 210.013 278.958 209.113 278.487 208.219C277.969 207.353 277.393 206.529 276.856 205.692C275.765 204.026 274.692 202.388 273.637 200.776C268.956 194.667 264.189 189.246 259.138 185.057C257.889 183.996 256.669 182.959 255.481 181.951C254.281 180.954 252.975 180.167 251.781 179.301C250.569 178.459 249.39 177.64 248.245 176.845C247.122 176.019 245.879 175.472 244.761 174.804C243.623 174.169 242.526 173.555 241.467 172.966C240.41 172.375 239.407 171.776 238.363 171.375C236.32 170.484 234.449 169.669 232.762 168.935C231.105 168.133 229.528 167.699 228.185 167.255C226.853 166.819 225.718 166.448 224.784 166.144C223.897 165.847 223.205 165.614 222.696 165.442C222.226 165.278 221.988 165.188 221.991 165.172C221.995 165.156 222.242 165.217 222.72 165.351C223.236 165.503 223.937 165.706 224.836 165.967C225.779 166.25 226.926 166.595 228.272 166.998C229.627 167.415 231.218 167.826 232.893 168.606C234.595 169.323 236.483 170.116 238.548 170.984C239.603 171.377 240.615 171.964 241.685 172.547C242.754 173.129 243.863 173.736 245.013 174.362C246.143 175.023 247.399 175.566 248.536 176.386C249.692 177.176 250.883 177.99 252.111 178.828C253.32 179.69 254.641 180.474 255.855 181.469C257.058 182.478 258.293 183.512 259.557 184.571C264.669 188.759 269.502 194.194 274.246 200.335C275.315 201.955 276.404 203.602 277.511 205.277C278.056 206.118 278.64 206.948 279.165 207.819C279.643 208.72 280.125 209.626 280.61 210.54C281.554 212.38 282.622 214.195 283.504 216.129C284.317 218.096 285.142 220.09 285.976 222.107L286.604 223.625C286.79 224.142 286.933 224.676 287.1 225.203C287.421 226.26 287.745 227.324 288.072 228.395C288.397 229.467 288.725 230.543 289.054 231.624C289.418 232.699 289.539 233.84 289.797 234.953C290.221 237.199 290.758 239.453 291.103 241.759C291.334 244.082 291.569 246.426 291.805 248.793C292.344 258.287 291.492 268.185 289.084 277.992C286.423 287.732 282.358 296.792 277.277 304.827C275.92 306.78 274.578 308.715 273.246 310.634C271.823 312.48 270.26 314.19 268.798 315.948C268.032 316.796 267.372 317.733 266.532 318.495C265.718 319.281 264.909 320.062 264.104 320.839C263.299 321.616 262.499 322.389 261.705 323.155C261.303 323.534 260.92 323.933 260.506 324.293L259.22 325.315C257.51 326.673 255.822 328.016 254.154 329.339C252.445 330.601 250.629 331.669 248.91 332.818C248.042 333.382 247.179 333.94 246.326 334.495C245.442 335.001 244.531 335.443 243.644 335.914C241.864 336.841 240.113 337.752 238.389 338.647C231.262 341.71 224.396 344.113 217.895 345.29C216.274 345.601 214.693 345.906 213.151 346.203C211.607 346.483 210.071 346.526 208.595 346.693C207.115 346.829 205.679 346.961 204.284 347.09C202.893 347.255 201.53 347.118 200.222 347.147C198.913 347.137 197.648 347.126 196.429 347.118C195.212 347.107 194.04 347.13 192.927 346.961C190.701 346.716 188.665 346.493 186.827 346.292C184.986 346.159 183.395 345.746 182.007 345.453C180.633 345.153 179.465 344.897 178.503 344.687C177.592 344.48 176.879 344.316 176.354 344.198C175.876 344.08 175.63 344.014 175.634 343.998Z" fill="#263238"/>
<path d="M84.506 282.206C84.4747 282.213 84.3686 281.851 84.1947 281.156C84.0069 280.363 83.767 279.349 83.4714 278.097C83.1479 276.77 82.7949 275.136 82.5236 273.214C82.235 271.296 81.8055 269.123 81.6246 266.685C81.5064 265.466 81.3829 264.191 81.2525 262.866C81.1325 261.538 81.1256 260.148 81.056 258.714C80.8734 255.841 80.9882 252.77 81.0473 249.537C81.3586 243.081 82.155 235.998 83.7061 228.695C85.3302 221.404 87.5474 214.629 89.9436 208.624C91.2339 205.659 92.4041 202.818 93.7622 200.281C94.423 199.005 95.0038 197.742 95.6663 196.584C96.3341 195.433 96.9757 194.325 97.5895 193.265C98.7668 191.122 100.059 189.322 101.118 187.698C102.163 186.062 103.163 184.725 104.008 183.65C104.797 182.635 105.435 181.812 105.936 181.169C106.385 180.609 106.632 180.324 106.656 180.343C106.681 180.362 106.482 180.684 106.081 181.28C105.618 181.948 105.025 182.802 104.293 183.857C103.495 184.958 102.54 186.321 101.54 187.977C100.527 189.62 99.278 191.433 98.1425 193.586C97.5478 194.649 96.927 195.76 96.2802 196.915C95.6385 198.074 95.0751 199.337 94.4352 200.613C93.1136 203.148 91.9764 205.983 90.7157 208.937C88.3768 214.917 86.2014 221.649 84.5895 228.888C83.0505 236.139 82.235 243.166 81.8802 249.576C81.8003 252.784 81.6577 255.836 81.8072 258.691C81.8611 260.117 81.849 261.499 81.9498 262.821C82.0576 264.141 82.162 265.408 82.2611 266.622C82.4002 269.051 82.7827 271.22 83.0227 273.136C83.2453 275.058 83.5461 276.694 83.8157 278.028C84.0435 279.292 84.2278 280.314 84.3721 281.114C84.4903 281.822 84.5373 282.199 84.506 282.206Z" fill="white"/>
<path d="M176.138 235.43C176.069 235.489 175.053 234.395 174.21 232.178C173.363 229.998 172.843 226.584 173.886 223.065C174.939 219.547 177.241 216.971 179.141 215.61C181.061 214.214 182.51 213.854 182.536 213.942C182.602 214.083 181.272 214.652 179.54 216.112C177.815 217.545 175.738 220.032 174.756 223.322C173.78 226.614 174.158 229.831 174.819 231.973C175.467 234.147 176.271 235.35 176.138 235.43Z" fill="white"/>
<path d="M204.979 206.368C204.738 206.306 204.967 204.608 205.494 202.577C206.021 200.546 206.644 198.952 206.885 199.014C207.127 199.077 206.897 200.774 206.371 202.805C205.844 204.836 205.221 206.431 204.979 206.368Z" fill="white"/>
<path d="M229.456 161.032C229.433 161.09 228.42 160.782 226.611 160.173C225.71 159.859 224.606 159.488 223.298 159.135C221.994 158.772 220.532 158.287 218.866 157.928C217.212 157.521 215.402 157.085 213.427 156.753C211.469 156.337 209.345 156.085 207.12 155.774C202.652 155.278 197.709 155.002 192.522 155.157C187.334 155.36 182.422 155.979 177.998 156.782C175.798 157.247 173.698 157.645 171.773 158.194C169.827 158.662 168.05 159.224 166.427 159.744C164.791 160.217 163.364 160.801 162.089 161.253C160.809 161.695 159.731 162.142 158.856 162.517C157.095 163.248 156.105 163.627 156.079 163.569C156.051 163.514 156.99 163.027 158.715 162.194C159.573 161.766 160.635 161.271 161.905 160.78C163.169 160.279 164.589 159.65 166.226 159.133C167.845 158.57 169.625 157.97 171.58 157.466C173.512 156.88 175.625 156.45 177.84 155.96C182.295 155.103 187.254 154.454 192.492 154.249C197.73 154.092 202.72 154.397 207.224 154.943C209.467 155.278 211.604 155.562 213.573 156.012C215.557 156.379 217.374 156.856 219.029 157.304C220.697 157.706 222.158 158.234 223.453 158.647C224.754 159.048 225.848 159.469 226.733 159.836C228.51 160.554 229.479 160.973 229.456 161.032Z" fill="white"/>
<path d="M184.385 368.238C184.381 368.301 183.585 368.306 182.14 368.263C180.697 368.235 178.61 368.07 176.045 367.757C170.917 367.141 163.874 365.687 156.463 362.938C149.055 360.172 142.776 356.664 138.495 353.778C136.349 352.338 134.664 351.098 133.555 350.175C132.435 349.263 131.835 348.738 131.873 348.69C131.912 348.641 132.585 349.072 133.765 349.893C134.936 350.726 136.669 351.879 138.843 353.24C143.185 355.97 149.447 359.349 156.781 362.09C164.12 364.811 171.067 366.348 176.137 367.122C178.673 367.513 180.737 367.774 182.168 367.91C183.597 368.063 184.388 368.176 184.385 368.238Z" fill="white"/>
<path d="M316.589 283.484C316.589 283.484 316.711 282.825 316.991 281.553C317.238 280.274 317.77 278.404 318.182 275.897C319.152 270.915 320.206 263.46 320.312 253.813C320.277 248.994 320.112 243.623 319.305 237.81C318.543 231.998 317.378 225.71 315.405 219.151C311.544 206.043 304.87 191.645 294.211 178.08C288.912 171.291 282.574 164.789 275.264 158.882C267.959 152.98 259.694 147.619 250.495 143.383C241.326 139.111 231.311 135.77 220.69 133.885C215.398 132.844 209.938 132.334 204.408 132.013C198.868 131.774 193.245 131.924 187.578 132.421C164.954 134.55 141.679 143.442 122.494 159.171C117.665 163.045 113.182 167.42 108.953 172.075C104.717 176.73 100.841 181.784 97.3943 187.164C90.3952 197.869 85.1733 209.912 81.8085 222.598C78.5811 235.323 77.2908 248.391 78.2037 261.151C78.3706 264.345 78.8002 267.503 79.1897 270.652C79.7253 273.779 80.2278 276.902 80.9755 279.961C82.4101 286.087 84.2012 292.09 86.54 297.824C95.6676 320.9 111.693 339.984 130.435 352.838C135.148 356.027 139.992 358.89 144.95 361.375C149.941 363.781 154.961 365.988 160.092 367.649C170.293 371.161 180.669 373.105 190.76 373.827C200.859 374.594 210.688 373.921 219.94 372.311C229.2 370.697 237.898 368.094 245.828 364.732C261.735 358.055 274.563 348.712 284.304 339.131C289.215 334.357 293.288 329.426 296.778 324.718C300.308 320.03 303.062 315.415 305.432 311.221C310.026 302.739 312.725 295.71 314.297 290.886C315.156 288.493 315.598 286.603 316.005 285.365C316.375 284.118 316.589 283.484 316.589 283.484C316.589 283.484 315.986 286.089 314.467 290.944C312.948 295.793 310.298 302.857 305.738 311.391C303.385 315.612 300.645 320.255 297.122 324.974C293.642 329.714 289.572 334.681 284.657 339.49C274.909 349.147 262.048 358.571 246.073 365.324C238.11 368.72 229.369 371.358 220.059 372.999C210.755 374.637 200.866 375.329 190.704 374.576C180.549 373.867 170.105 371.925 159.833 368.403C154.665 366.737 149.609 364.524 144.581 362.107C139.587 359.611 134.706 356.733 129.957 353.527C111.073 340.603 94.9164 321.392 85.7106 298.153C83.3509 292.378 81.5442 286.33 80.0974 280.161C79.3427 277.078 78.8367 273.934 78.2959 270.783C77.9012 267.611 77.4699 264.43 77.2995 261.212C76.3761 248.356 77.6751 235.189 80.9251 222.37C84.3142 209.592 89.5779 197.456 96.6309 186.673C100.105 181.253 104.013 176.163 108.282 171.475C112.544 166.787 117.061 162.383 121.929 158.481C141.262 142.648 164.713 133.71 187.494 131.588C193.201 131.093 198.865 130.948 204.442 131.195C210.01 131.526 215.504 132.046 220.829 133.101C231.516 135.012 241.588 138.387 250.808 142.702C260.057 146.979 268.362 152.387 275.699 158.34C283.038 164.295 289.398 170.848 294.708 177.685C305.392 191.348 312.056 205.834 315.885 219.01C317.843 225.604 318.989 231.922 319.728 237.756C320.514 243.593 320.653 248.984 320.66 253.816C320.5 263.491 319.385 270.955 318.356 275.932C317.328 280.914 316.589 283.484 316.589 283.484Z" fill="#263238"/>
<defs>
<filter id="filter0_d_7602_48339" x="-0.00707626" y="50.2079" width="390.541" height="390.541" filterUnits="userSpaceOnUse" color-interpolation-filters="sRGB">
<feFlood flood-opacity="0" result="BackgroundImageFix"/>
<feColorMatrix in="SourceAlpha" type="matrix" values="0 0 0 0 0 0 0 0 0 0 0 0 0 0 0 0 0 0 127 0" result="hardAlpha"/>
<feOffset dy="3.04937"/>
<feGaussianBlur stdDeviation="25.5385"/>
<feComposite in2="hardAlpha" operator="out"/>
<feColorMatrix type="matrix" values="0 0 0 0 0.597282 0 0 0 0 0.329018 0 0 0 0 0.134758 0 0 0 0.61 0"/>
<feBlend mode="normal" in2="BackgroundImageFix" result="effect1_dropShadow_7602_48339"/>
<feBlend mode="normal" in="SourceGraphic" in2="effect1_dropShadow_7602_48339" result="shape"/>
</filter>
<radialGradient id="paint0_radial_7602_48339" cx="0" cy="0" r="1" gradientUnits="userSpaceOnUse" gradientTransform="translate(195.263 242.429) rotate(90) scale(250.857)">
<stop offset="0.436551" stop-color="#FF7235" stop-opacity="0"/>
<stop offset="0.66223" stop-color="#FF7235" stop-opacity="0"/>
<stop offset="1" stop-color="#FF6635"/>
</radialGradient>
<linearGradient id="paint1_linear_7602_48339" x1="219.688" y1="244.967" x2="366.115" y2="176.816" gradientUnits="userSpaceOnUse">
<stop stop-color="#EDB93C"/>
<stop offset="1" stop-color="#EDB93C" stop-opacity="0"/>
</linearGradient>
<linearGradient id="paint2_linear_7602_48339" x1="212.862" y1="238.367" x2="370.368" y2="281.259" gradientUnits="userSpaceOnUse">
<stop stop-color="#EDB93C"/>
<stop offset="1" stop-color="#EDB93C" stop-opacity="0"/>
</linearGradient>
<linearGradient id="paint3_linear_7602_48339" x1="150.806" y1="222.936" x2="367.749" y2="397.149" gradientUnits="userSpaceOnUse">
<stop stop-color="#EDB93C"/>
<stop offset="1" stop-color="#EDB93C" stop-opacity="0"/>
</linearGradient>
<linearGradient id="paint4_linear_7602_48339" x1="196.653" y1="225.923" x2="269.846" y2="489.308" gradientUnits="userSpaceOnUse">
<stop stop-color="#EDB93C"/>
<stop offset="1" stop-color="#EDB93C" stop-opacity="0"/>
</linearGradient>
<linearGradient id="paint5_linear_7602_48339" x1="196.653" y1="195.677" x2="179.199" y2="496.191" gradientUnits="userSpaceOnUse">
<stop stop-color="#EDB93C"/>
<stop offset="1" stop-color="#EDB93C" stop-opacity="0"/>
</linearGradient>
<linearGradient id="paint6_linear_7602_48339" x1="260.501" y1="147.84" x2="66.9489" y2="479.774" gradientUnits="userSpaceOnUse">
<stop stop-color="#EDB93C"/>
<stop offset="1" stop-color="#EDB93C" stop-opacity="0"/>
</linearGradient>
<linearGradient id="paint7_linear_7602_48339" x1="196.653" y1="301.593" x2="0.786954" y2="301.593" gradientUnits="userSpaceOnUse">
<stop stop-color="#EDB93C"/>
<stop offset="1" stop-color="#EDB93C" stop-opacity="0"/>
</linearGradient>
<linearGradient id="paint8_linear_7602_48339" x1="207.52" y1="250.063" x2="1.30018" y2="229.869" gradientUnits="userSpaceOnUse">
<stop stop-color="#EDB93C"/>
<stop offset="1" stop-color="#EDB93C" stop-opacity="0"/>
</linearGradient>
<linearGradient id="paint9_linear_7602_48339" x1="258.2" y1="291.878" x2="41.1607" y2="97.2987" gradientUnits="userSpaceOnUse">
<stop stop-color="#EDB93C"/>
<stop offset="1" stop-color="#EDB93C" stop-opacity="0"/>
</linearGradient>
<linearGradient id="paint10_linear_7602_48339" x1="261.22" y1="337.735" x2="115.347" y2="-3.55408" gradientUnits="userSpaceOnUse">
<stop stop-color="#EDB93C"/>
<stop offset="1" stop-color="#EDB93C" stop-opacity="0"/>
</linearGradient>
<linearGradient id="paint11_linear_7602_48339" x1="189.826" y1="330.758" x2="224.068" y2="-0.733927" gradientUnits="userSpaceOnUse">
<stop stop-color="#EDB93C"/>
<stop offset="1" stop-color="#EDB93C" stop-opacity="0"/>
</linearGradient>
<linearGradient id="paint12_linear_7602_48339" x1="184.707" y1="217.103" x2="325.825" y2="32.9998" gradientUnits="userSpaceOnUse">
<stop stop-color="#EDB93C"/>
<stop offset="1" stop-color="#EDB93C" stop-opacity="0"/>
</linearGradient>
<radialGradient id="paint13_radial_7602_48339" cx="0" cy="0" r="1" gradientUnits="userSpaceOnUse" gradientTransform="translate(195.264 242.429) rotate(90) scale(169.156)">
<stop offset="0.151042" stop-color="#FF8A35" stop-opacity="0"/>
<stop offset="0.75078" stop-color="#FF7235" stop-opacity="0.317927"/>
<stop offset="0.906621" stop-color="#FF7E35" stop-opacity="0.503067"/>
</radialGradient>
</defs>
</svg>
