<svg width="23" height="23" viewBox="0 0 23 23" fill="none" xmlns="http://www.w3.org/2000/svg">
<g id="document-duplicate">
<path id="Vector" d="M10.367 2.55664C9.78352 2.55664 9.22394 2.78843 8.81136 3.20101C8.39878 3.61359 8.16699 4.17316 8.16699 4.75664V13.5566C8.16699 14.1401 8.39878 14.6997 8.81136 15.1123C9.22394 15.5249 9.78352 15.7566 10.367 15.7566H16.967C17.5505 15.7566 18.11 15.5249 18.5226 15.1123C18.9352 14.6997 19.167 14.1401 19.167 13.5566V7.41204C19.1669 6.82861 18.935 6.26912 18.5224 5.85664L15.867 3.20124C15.4545 2.78863 14.895 2.55677 14.3116 2.55664H10.367Z" fill="#C34D37"/>
<path id="Vector_2" d="M3.7666 9.15654C3.7666 8.57307 3.99839 8.01349 4.41097 7.60091C4.82355 7.18833 5.38313 6.95654 5.9666 6.95654V17.9565H14.7666C14.7666 18.54 14.5348 19.0996 14.1222 19.5122C13.7097 19.9248 13.1501 20.1565 12.5666 20.1565H5.9666C5.38313 20.1565 4.82355 19.9248 4.41097 19.5122C3.99839 19.0996 3.7666 18.54 3.7666 17.9565V9.15654Z" fill="#C34D37"/>
</g>
</svg>
