<svg width="25" height="25" viewBox="0 0 25 25" fill="none" xmlns="http://www.w3.org/2000/svg">
<path d="M17.9688 22.9424H7.96875C7.55875 22.9424 7.21875 22.6024 7.21875 22.1924C7.21875 21.7824 7.55875 21.4424 7.96875 21.4424H17.9688C18.3787 21.4424 18.7188 21.7824 18.7188 22.1924C18.7188 22.6024 18.3787 22.9424 17.9688 22.9424Z" fill="#FBB03F"/>
<path d="M21.3187 6.46242L17.3187 9.32242C16.7887 9.70242 16.0287 9.47242 15.7987 8.86242L13.9087 3.82242C13.5887 2.95242 12.3587 2.95242 12.0387 3.82242L10.1387 8.85242C9.90873 9.47242 9.15872 9.70242 8.62873 9.31242L4.62873 6.45242C3.82873 5.89242 2.76873 6.68242 3.09873 7.61242L7.25873 19.2624C7.39873 19.6624 7.77873 19.9224 8.19873 19.9224H17.7287C18.1487 19.9224 18.5287 19.6524 18.6687 19.2624L22.8287 7.61242C23.1687 6.68242 22.1087 5.89242 21.3187 6.46242ZM15.4687 15.6924H10.4687C10.0587 15.6924 9.71873 15.3524 9.71873 14.9424C9.71873 14.5324 10.0587 14.1924 10.4687 14.1924H15.4687C15.8787 14.1924 16.2187 14.5324 16.2187 14.9424C16.2187 15.3524 15.8787 15.6924 15.4687 15.6924Z" fill="#FBB03F"/>
</svg>
