<svg width="25" height="25" viewBox="0 0 25 25" fill="none" xmlns="http://www.w3.org/2000/svg">
<g id="vuesax/bold/cup">
<g id="cup">
<path id="Vector" d="M11.5518 19.1191H9.30176C8.20176 19.1191 7.30176 20.0191 7.30176 21.1191V21.3691H6.30176C5.89176 21.3691 5.55176 21.7091 5.55176 22.1191C5.55176 22.5291 5.89176 22.8691 6.30176 22.8691H18.3018C18.7118 22.8691 19.0518 22.5291 19.0518 22.1191C19.0518 21.7091 18.7118 21.3691 18.3018 21.3691H17.3018V21.1191C17.3018 20.0191 16.4018 19.1191 15.3018 19.1191H13.0518V16.8291C12.8018 16.8591 12.5518 16.8691 12.3018 16.8691C12.0518 16.8691 11.8018 16.8591 11.5518 16.8291V19.1191Z" fill="white"/>
<path id="Vector_2" d="M18.782 12.5091C19.442 12.2591 20.022 11.8491 20.482 11.3891C21.412 10.3591 22.022 9.12914 22.022 7.68914C22.022 6.24914 20.892 5.11914 19.452 5.11914H18.892C18.242 3.78914 16.882 2.86914 15.302 2.86914H9.30203C7.72203 2.86914 6.36203 3.78914 5.71203 5.11914H5.15203C3.71203 5.11914 2.58203 6.24914 2.58203 7.68914C2.58203 9.12914 3.19203 10.3591 4.12203 11.3891C4.58203 11.8491 5.16203 12.2591 5.82203 12.5091C6.86203 15.0691 9.36203 16.8691 12.302 16.8691C15.242 16.8691 17.742 15.0691 18.782 12.5091ZM15.142 9.31914L14.522 10.0791C14.422 10.1891 14.352 10.4091 14.362 10.5591L14.422 11.5391C14.462 12.1391 14.032 12.4491 13.472 12.2291L12.562 11.8691C12.422 11.8191 12.182 11.8191 12.042 11.8691L11.132 12.2291C10.572 12.4491 10.142 12.1391 10.182 11.5391L10.242 10.5591C10.252 10.4091 10.182 10.1891 10.082 10.0791L9.46203 9.31914C9.07203 8.85914 9.24203 8.34914 9.82203 8.19914L10.772 7.95914C10.922 7.91914 11.102 7.77914 11.182 7.64914L11.712 6.82914C12.042 6.31914 12.562 6.31914 12.892 6.82914L13.422 7.64914C13.502 7.77914 13.682 7.91914 13.832 7.95914L14.782 8.19914C15.362 8.34914 15.532 8.85914 15.142 9.31914Z" fill="white"/>
</g>
</g>
</svg>
