<svg width="101" height="101" viewBox="0 0 101 101" fill="none" xmlns="http://www.w3.org/2000/svg">
<circle cx="50.6958" cy="50.8789" r="50.1016" fill="#FADC00"/>
<circle cx="50.6958" cy="44.0469" r="34.1602" fill="#3E342F"/>
<path fill-rule="evenodd" clip-rule="evenodd" d="M54.0291 42.2041C54.0291 40.3624 52.5368 38.8701 50.6964 38.8701C48.8547 38.8701 47.3624 40.3624 47.3624 42.2041C47.3624 44.0445 48.8547 45.5368 50.6964 45.5368C52.5368 45.5368 54.0291 44.0445 54.0291 42.2041Z" stroke="#FADC00" stroke-width="1.70801" stroke-linecap="round" stroke-linejoin="round"/>
<path fill-rule="evenodd" clip-rule="evenodd" d="M50.6952 56.2041C49.0972 56.2041 40.6958 49.4019 40.6958 42.2885C40.6958 36.7196 45.1719 32.2041 50.6952 32.2041C56.2184 32.2041 60.6958 36.7196 60.6958 42.2885C60.6958 49.4019 52.2931 56.2041 50.6952 56.2041Z" stroke="#FADC00" stroke-width="1.70801" stroke-linecap="round" stroke-linejoin="round"/>
</svg>
