<svg width="39" height="39" viewBox="0 0 39 39" fill="none" xmlns="http://www.w3.org/2000/svg">
<g clip-path="url(#clip0_4115_16118)">
<path d="M38.6973 19.627C38.6973 9.13354 30.1907 0.626953 19.6973 0.626953C9.20391 0.626953 0.697327 9.13354 0.697327 19.627C0.697327 29.1103 7.64532 36.9708 16.7286 38.3961V25.1191H11.9044V19.627H16.7286V15.441C16.7286 10.6791 19.5652 8.04883 23.9052 8.04883C25.9833 8.04883 28.1583 8.41992 28.1583 8.41992V13.0957H25.7625C23.4023 13.0957 22.6661 14.5604 22.6661 16.0645V19.627H27.9356L27.0932 25.1191H22.6661V38.3961C31.7493 36.9708 38.6973 29.1103 38.6973 19.627Z" fill="#1877F2"/>
<path d="M27.0932 25.1191L27.9356 19.627H22.6661V16.0645C22.6661 14.5619 23.4023 13.0957 25.7625 13.0957H28.1583V8.41992C28.1583 8.41992 25.984 8.04883 23.9052 8.04883C19.5652 8.04883 16.7286 10.6791 16.7286 15.441V19.627H11.9044V25.1191H16.7286V38.3961C18.6958 38.7039 20.6989 38.7039 22.6661 38.3961V25.1191H27.0932Z" fill="white"/>
</g>
<defs>
<clipPath id="clip0_4115_16118">
<rect width="38" height="38" fill="white" transform="translate(0.697327 0.626953)"/>
</clipPath>
</defs>
</svg>
