<svg width="220" height="190" viewBox="0 0 220 190" fill="none" xmlns="http://www.w3.org/2000/svg">
<rect x="22.4248" y="0.557129" width="177.536" height="177.536" rx="88.7682" fill="#222222"/>
<path d="M0.76709 89.7847C6.56742 89.5086 55.0934 56.9559 30.5972 46.9732C7.78953 37.6786 9.0807 73.1857 41.0929 54.7069C66.7884 39.8743 62.3414 28.4253 60.151 21.2861" stroke="#FF4D4D"/>
<path d="M40.9883 155.987C41.1103 155.931 41.2374 155.869 41.3686 155.803M41.3686 155.803C44.1151 154.411 48.7047 150.769 47.7052 145.843C48.0169 149.426 50.3796 156.472 57.3365 155.987C54.1261 156.315 47.7052 158.074 47.7052 162.487C47.2835 159.901 45.4257 154.944 41.3686 155.803Z" stroke="#FF4D4D"/>
<rect x="69.3208" y="38.061" width="83.744" height="102.529" rx="6" fill="#2C2C2C"/>
<rect x="79.6953" y="52.063" width="35.7811" height="5.9635" rx="2.98175" fill="#404040"/>
<rect x="79.6953" y="73.3276" width="62.9952" height="5.9635" rx="2.98175" fill="#404040"/>
<rect x="79.6953" y="89.0933" width="62.9952" height="5.9635" rx="2.98175" fill="#404040"/>
<rect x="79.6953" y="104.858" width="62.9952" height="5.9635" rx="2.98175" fill="#404040"/>
<rect x="79.6953" y="120.624" width="62.9952" height="5.9635" rx="2.98175" fill="#404040"/>
<circle cx="181.068" cy="13.5633" r="3.70392" fill="#FF4D4D"/>
<circle cx="169.111" cy="139.783" r="36.3248" fill="#FF3F43"/>
<path d="M156.612 127.283L181.611 152.282" stroke="white" stroke-width="4.41927" stroke-linecap="round" stroke-linejoin="round"/>
<path d="M156.612 152.282L181.611 127.283" stroke="white" stroke-width="4.41927" stroke-linecap="round" stroke-linejoin="round"/>
</svg>
