<svg width="25" height="25" viewBox="0 0 25 25" fill="none" xmlns="http://www.w3.org/2000/svg">
<path fill-rule="evenodd" clip-rule="evenodd" d="M8.89706 2.44141C8.69521 2.44141 8.51315 2.56278 8.43552 2.7491L7.91469 3.9991C7.77746 4.32844 8.01943 4.69141 8.37622 4.69141H16.72C17.0768 4.69141 17.3187 4.32844 17.1815 3.9991L16.6607 2.7491C16.583 2.56278 16.401 2.44141 16.1991 2.44141H8.89706ZM9.03882 13.9924C8.76268 13.9924 8.53882 14.2162 8.53882 14.4924L8.53882 19.7539C8.53882 20.03 8.76268 20.2539 9.03882 20.2539H16.0283C16.3045 20.2539 16.5283 20.03 16.5283 19.7539V14.4924C16.5283 14.2162 16.3045 13.9924 16.0283 13.9924H9.03882ZM7.62988 20.2539C7.63123 20.2539 7.63233 20.2528 7.63233 20.2515L7.63232 13.2701C7.63232 13.2647 7.63673 13.2603 7.64216 13.2603C7.6476 13.2603 7.65201 13.2558 7.65201 13.2504V6.01406C7.65201 5.73792 7.87586 5.51406 8.15201 5.51406H16.9442C17.2203 5.51406 17.4442 5.73792 17.4442 6.01406V13.9909C17.4442 13.9917 17.4435 13.9924 17.4427 13.9924C17.4418 13.9924 17.4412 13.9931 17.4412 13.9939L17.4412 20.2424C17.4412 20.2487 17.4463 20.2539 17.4527 20.2539C17.4609 20.2539 17.4665 20.2623 17.4633 20.2699L16.6607 22.1962C16.583 22.3825 16.401 22.5039 16.1991 22.5039H8.89706C8.69521 22.5039 8.51315 22.3825 8.43552 22.1962L7.62763 20.2573C7.62696 20.2557 7.62814 20.2539 7.62988 20.2539Z" fill="white"/>
</svg>
