<svg xmlns="http://www.w3.org/2000/svg" width="29" height="28" viewBox="0 0 29 28" fill="none">
<path fill-rule="evenodd" clip-rule="evenodd" d="M10.1075 2.29688C9.90564 2.29688 9.72358 2.41824 9.64595 2.60457L8.96886 4.22957C8.83164 4.55891 9.07361 4.92188 9.4304 4.92188H19.4148C19.7716 4.92188 20.0135 4.55891 19.8763 4.22957L19.1992 2.60457C19.1216 2.41824 18.9395 2.29688 18.7377 2.29688H10.1075ZM10.2451 15.773C9.96895 15.773 9.7451 15.9969 9.7451 16.273L9.7451 22.5781C9.7451 22.8543 9.96895 23.0781 10.2451 23.0781H18.5662C18.8423 23.0781 19.0662 22.8543 19.0662 22.5781L19.0662 16.273C19.0662 15.9969 18.8423 15.773 18.5662 15.773H10.2451ZM8.68467 23.0781C8.68625 23.0781 8.68752 23.0769 8.68752 23.0753L8.68752 14.9303C8.68752 14.924 8.69266 14.9189 8.699 14.9189C8.70534 14.9189 8.71048 14.9137 8.71048 14.9074V6.38164C8.71048 6.1055 8.93434 5.88164 9.21048 5.88164H19.6347C19.9108 5.88164 20.1347 6.1055 20.1347 6.38164V15.7712C20.1347 15.7722 20.1339 15.773 20.1329 15.773C20.132 15.773 20.1312 15.7738 20.1312 15.7748L20.1312 23.0647C20.1312 23.0721 20.1372 23.0781 20.1446 23.0781C20.1542 23.0781 20.1607 23.0879 20.157 23.0967L19.1992 25.3954C19.1216 25.5818 18.9395 25.7031 18.7377 25.7031H10.1075C9.90564 25.7031 9.72358 25.5818 9.64595 25.3954L8.68205 23.0821C8.68126 23.0802 8.68264 23.0781 8.68467 23.0781Z" fill="#EF6A00"/>
</svg>