<svg width="39" height="39" viewBox="0 0 39 39" fill="none" xmlns="http://www.w3.org/2000/svg">
<path d="M19.5098 4.04844C24.5863 4.04844 25.1875 4.0707 27.184 4.15977C29.0395 4.24141 30.0414 4.55313 30.7094 4.81289C31.5926 5.1543 32.2309 5.56992 32.8914 6.23047C33.5594 6.89844 33.9676 7.5293 34.309 8.4125C34.5688 9.08047 34.8805 10.0898 34.9621 11.9379C35.0512 13.9418 35.0734 14.543 35.0734 19.6121C35.0734 24.6887 35.0512 25.2898 34.9621 27.2863C34.8805 29.1418 34.5688 30.1438 34.309 30.8117C33.9676 31.6949 33.552 32.3332 32.8914 32.9938C32.2234 33.6617 31.5926 34.0699 30.7094 34.4113C30.0414 34.6711 29.032 34.9828 27.184 35.0645C25.1801 35.1535 24.5789 35.1758 19.5098 35.1758C14.4332 35.1758 13.832 35.1535 11.8355 35.0645C9.98008 34.9828 8.97813 34.6711 8.31016 34.4113C7.42695 34.0699 6.78867 33.6543 6.12813 32.9938C5.46016 32.3258 5.05195 31.6949 4.71055 30.8117C4.45078 30.1438 4.13906 29.1344 4.05742 27.2863C3.96836 25.2824 3.94609 24.6813 3.94609 19.6121C3.94609 14.5355 3.96836 13.9344 4.05742 11.9379C4.13906 10.0824 4.45078 9.08047 4.71055 8.4125C5.05195 7.5293 5.46758 6.89102 6.12813 6.23047C6.79609 5.5625 7.42695 5.1543 8.31016 4.81289C8.97813 4.55313 9.9875 4.24141 11.8355 4.15977C13.832 4.0707 14.4332 4.04844 19.5098 4.04844ZM19.5098 0.626953C14.3516 0.626953 13.7059 0.649219 11.6797 0.738281C9.66094 0.827344 8.27305 1.15391 7.0707 1.62148C5.81641 2.11133 4.75508 2.75703 3.70117 3.81836C2.63984 4.87227 1.99414 5.93359 1.5043 7.18047C1.03672 8.39024 0.710156 9.7707 0.621094 11.7895C0.532031 13.823 0.509766 14.4688 0.509766 19.627C0.509766 24.7852 0.532031 25.4309 0.621094 27.457C0.710156 29.4758 1.03672 30.8637 1.5043 32.066C1.99414 33.3203 2.63984 34.3816 3.70117 35.4355C4.75508 36.4895 5.81641 37.1426 7.06328 37.625C8.27305 38.0926 9.65352 38.4191 11.6723 38.5082C13.6984 38.5973 14.3441 38.6195 19.5023 38.6195C24.6605 38.6195 25.3063 38.5973 27.3324 38.5082C29.3512 38.4191 30.7391 38.0926 31.9414 37.625C33.1883 37.1426 34.2496 36.4895 35.3035 35.4355C36.3574 34.3816 37.0105 33.3203 37.493 32.0734C37.9605 30.8637 38.2871 29.4832 38.3762 27.4645C38.4652 25.4383 38.4875 24.7926 38.4875 19.6344C38.4875 14.4762 38.4652 13.8305 38.3762 11.8043C38.2871 9.78555 37.9605 8.39766 37.493 7.19531C37.0254 5.93359 36.3797 4.87227 35.3184 3.81836C34.2645 2.76445 33.2031 2.11133 31.9563 1.62891C30.7465 1.16133 29.366 0.834766 27.3473 0.745703C25.3137 0.649219 24.668 0.626953 19.5098 0.626953Z" fill="#000100"/>
<path d="M19.5098 9.86719C14.1215 9.86719 9.75 14.2387 9.75 19.627C9.75 25.0152 14.1215 29.3867 19.5098 29.3867C24.898 29.3867 29.2695 25.0152 29.2695 19.627C29.2695 14.2387 24.898 9.86719 19.5098 9.86719ZM19.5098 25.9578C16.0141 25.9578 13.1789 23.1227 13.1789 19.627C13.1789 16.1313 16.0141 13.2961 19.5098 13.2961C23.0055 13.2961 25.8406 16.1313 25.8406 19.627C25.8406 23.1227 23.0055 25.9578 19.5098 25.9578Z" fill="#000100"/>
<path d="M31.934 9.48164C31.934 10.7434 30.9098 11.7602 29.6555 11.7602C28.3938 11.7602 27.377 10.7359 27.377 9.48164C27.377 8.21992 28.4012 7.20312 29.6555 7.20312C30.9098 7.20312 31.934 8.22735 31.934 9.48164Z" fill="#000100"/>
</svg>
