<svg width="49" height="49" viewBox="0 0 49 49" fill="none" xmlns="http://www.w3.org/2000/svg">
<g id="lock-03">
<path id="Icon" d="M34.5 22.9199V16.9199C34.5 11.3971 30.0228 6.91992 24.5 6.91992C18.9772 6.91992 14.5 11.3971 14.5 16.9199V22.9199M18.1 42.9199H30.9C34.2603 42.9199 35.9405 42.9199 37.2239 42.266C38.3529 41.6907 39.2708 40.7728 39.846 39.6439C40.5 38.3604 40.5 36.6802 40.5 33.3199V32.5199C40.5 29.1596 40.5 27.4794 39.846 26.196C39.2708 25.067 38.3529 24.1491 37.2239 23.5739C35.9405 22.9199 34.2603 22.9199 30.9 22.9199H18.1C14.7397 22.9199 13.0595 22.9199 11.7761 23.5739C10.6471 24.1491 9.7292 25.067 9.15396 26.196C8.5 27.4794 8.5 29.1596 8.5 32.5199V33.3199C8.5 36.6802 8.5 38.3604 9.15396 39.6439C9.7292 40.7728 10.6471 41.6907 11.7761 42.266C13.0595 42.9199 14.7397 42.9199 18.1 42.9199Z" stroke="#FF4D4D" stroke-width="2" stroke-linecap="round" stroke-linejoin="round"/>
</g>
</svg>
