<svg width="835" height="531" viewBox="0 0 835 531" fill="none" xmlns="http://www.w3.org/2000/svg">
<g opacity="0.5" clip-path="url(#clip0_603_486)">
<path d="M833.237 421.868V147.767H833.068L832.776 146.688C830.516 138.317 819.949 124.012 801.432 110.921C787.417 101.013 763.926 88.4302 731.605 84.763L730.309 84.6154V71.8036C730.309 67.907 725.614 66.126 722.815 65.41L721.716 65.1295V62.58C721.716 52.8597 713.814 44.9525 704.101 44.9525H589.747C580.036 44.9525 572.134 52.8597 572.134 62.58V298.351H562.794V100.602C562.794 90.8818 554.892 82.9747 545.179 82.9747H475.529C466.185 82.9747 458.468 90.2974 457.964 99.6452L457.878 101.219L456.317 101.016C453.155 100.604 449.955 100.278 446.801 100.047L445.448 99.9476V88.8861C445.448 86.6989 443.59 84.7791 440.346 83.6205L439.378 83.2742V71.4646C439.378 61.7443 431.476 53.8371 421.765 53.8371H308.728C299.016 53.8371 291.115 61.7458 291.115 71.4646V298.353H275.163V199.038C275.163 196.891 274.191 194.803 272.274 192.83C263.446 182.302 215.52 157.691 177.137 139.79L176.295 139.397V12.4955C176.292 4.00832 151.676 1.76562 138.659 1.76562C125.642 1.76562 101.025 4.00832 101.025 12.4955V139.396L100.182 139.789C97.2588 141.152 91.197 143.998 83.4359 147.753L82.1453 148.377L77.7027 139.584L78.7801 138.865C85.7923 134.19 85.4959 132.047 84.6666 130.406C83.4271 127.953 78.7319 127.52 71.4467 129.187L69.3955 129.656L70.5825 120.753L71.5927 120.385C71.6526 120.364 71.7125 120.348 71.7694 120.32C72.5797 119.91 73.1783 119.2 73.4556 118.319C73.736 117.426 73.6557 116.465 73.225 115.616C72.3446 113.874 70.2569 113.15 68.5765 114.003C67.7677 114.412 67.1691 115.123 66.8917 116.003C66.6099 116.896 66.6917 117.856 67.1209 118.706C67.3589 119.178 67.7122 119.594 68.1706 119.942L68.8451 120.456L67.5472 130.201L66.6464 130.473C65.9281 130.691 65.2098 130.92 64.4901 131.157L63.2973 131.548L60.5248 126.062C59.8576 124.744 58.7203 123.765 57.3188 123.305C55.9172 122.846 54.4193 122.959 53.1039 123.624L30.2336 135.198C28.9168 135.864 27.9386 137.003 27.4787 138.407C27.0188 139.811 27.1327 141.307 27.7984 142.625L30.5578 148.087L29.5475 148.818C28.9241 149.268 28.324 149.718 27.7284 150.169L26.9736 150.744L18.354 146.01L18.3394 145.161C18.3306 144.585 18.2051 144.054 17.9671 143.583C17.5379 142.733 16.8137 142.099 15.9275 141.796C15.053 141.497 14.1274 141.558 13.3186 141.969C12.5098 142.378 11.9112 143.089 11.6338 143.969C11.3535 144.861 11.4338 145.821 11.8645 146.672C12.7434 148.412 14.8267 149.138 16.513 148.285C16.5699 148.255 16.621 148.216 16.6736 148.178L17.5656 147.585L25.4464 151.912L23.8551 153.287C17.9481 158.392 15.7012 162.112 16.9875 164.657C17.6693 166.007 18.6518 166.558 20.3746 166.558C21.9995 166.558 24.2595 166.023 27.2816 164.923L28.4992 164.48L33.1463 173.673L31.936 174.36C17.4868 182.567 8.46424 188.753 5.11656 192.746C3.1281 194.8 2.15723 196.889 2.15723 199.037V415.062C2.15723 423.256 7.69776 431.318 18.1788 438.374L19.9337 439.556L7.11816 448.619C6.57359 448.895 6.2013 449.277 6.01005 449.753C5.95165 449.898 5.91077 450.016 5.88887 450.123C5.84946 450.326 5.83924 450.462 5.83924 450.549V521.848C5.83924 522.918 6.70937 523.788 7.77952 523.788H25.1107C26.1793 523.788 27.0495 522.918 27.0495 521.848V469.5H132.139V473.179C132.139 484.412 141.269 493.548 152.492 493.548H249.039V521.847C249.039 522.916 249.909 523.787 250.978 523.787H268.309C269.377 523.787 270.248 522.916 270.248 521.847V493.548H282.567C293.791 493.548 302.92 484.41 302.92 473.179V310.17H327.936V338.518C327.936 340.016 328.161 341.582 328.608 343.173C328.695 343.601 328.771 343.884 328.856 344.129C332.299 354.084 343.099 369.133 360.089 387.647L361.171 388.826L335.903 408.131C335.753 408.274 335.678 408.363 335.613 408.458C335.537 408.587 335.493 408.667 335.455 408.749C335.382 408.942 335.36 409.016 335.341 409.091C335.297 409.304 335.287 409.403 335.286 409.506L335.277 409.647V521.848C335.277 522.918 336.148 523.788 337.217 523.788H350.814C351.882 523.788 352.754 522.918 352.754 521.848V425.096H380.319V461.983C380.319 463.053 381.19 463.924 382.258 463.924H391.041C392.11 463.924 392.98 463.053 392.98 461.983V425.096H398.224L398.638 425.46C401.166 427.691 403.458 429.653 405.448 431.291L405.98 431.73V470.912C405.98 478.388 418.341 484.242 434.122 484.242C449.904 484.242 462.265 478.387 462.265 470.912V431.73L462.797 431.291C464.809 429.634 467.098 427.672 469.605 425.462L470.018 425.096H474.653V461.983C474.653 463.053 475.523 463.924 476.592 463.924H485.375C486.444 463.924 487.314 463.053 487.314 461.983V425.096H515.491V521.848C515.491 522.918 516.361 523.788 517.43 523.788H531.028C532.096 523.788 532.967 522.918 532.967 521.848L532.959 409.471C532.958 409.402 532.945 409.298 532.929 409.196C532.883 409.006 532.86 408.937 532.834 408.869C532.755 408.674 532.708 408.591 532.659 408.511L532.578 408.372C532.564 408.359 532.491 408.273 532.412 408.191L532.269 408.064L507.071 388.825L508.153 387.646C525.144 369.133 535.943 354.085 539.388 344.13C539.472 343.887 539.548 343.604 539.608 343.296C540.088 341.557 540.309 340.032 540.309 338.517V310.168H550.971V347.636C550.971 352.535 553.152 357.114 556.955 360.2C560.709 363.245 565.738 364.465 570.473 363.461L591.955 358.923V421.866C591.955 423.631 592.285 425.472 592.933 427.339L593.099 427.82L592.933 428.301C592.285 430.168 591.955 432.009 591.955 433.774V487.638C591.955 492.694 596.064 496.809 601.117 496.809C606.17 496.809 610.28 492.694 610.28 487.638V463.035L612.417 464.156C632.718 474.805 665.373 481.545 702.012 482.65L703.428 482.692V519.673C703.428 524.729 707.538 528.842 712.591 528.842C717.644 528.842 721.754 524.729 721.754 519.673V482.692L723.17 482.65C759.807 481.547 792.464 474.805 812.764 464.156L814.902 463.035V487.638C814.902 492.694 819.011 496.809 824.064 496.809C829.117 496.809 833.227 492.694 833.227 487.638V433.774C833.227 432.009 832.899 430.168 832.249 428.301L832.082 427.82L832.249 427.339C832.907 425.473 833.237 423.633 833.237 421.868ZM195.359 481.728H152.493C147.782 481.728 143.95 477.893 143.95 473.179V469.5H195.359V481.728ZM249.039 481.728H207.17V469.499H249.039V481.728ZM291.112 473.179C291.112 477.894 287.279 481.728 282.568 481.728H270.249V450.549C270.249 450.465 270.24 450.332 270.21 450.172C270.177 450.016 270.135 449.898 270.088 449.775C269.887 449.278 269.515 448.897 268.97 448.621L268.788 448.51L256.725 439.96L258.514 438.784C269.404 431.62 275.16 423.418 275.16 415.064V310.171H291.112V473.179ZM353.683 405.716L367.285 395.307L368.189 396.244C370.475 398.615 372.77 400.948 375.043 403.222L377.541 405.716H353.683ZM427.565 82.982L426.504 83.283C422.652 84.3729 420.353 86.4666 420.353 88.8831V100.136L419.02 100.253C364.24 105.061 327.939 135.617 327.939 146.711V298.35H302.923V71.4631C302.923 68.2605 305.526 65.6555 308.726 65.6555H421.763C424.962 65.6555 427.567 68.2605 427.567 71.4631V82.982H427.565ZM514.571 405.716H490.711L493.209 403.222C495.484 400.948 497.776 398.615 500.065 396.244L500.967 395.307L514.571 405.716ZM550.98 298.351H540.318V146.713C540.318 137.217 513.27 113.031 470.864 103.581L469.723 103.327V100.602C469.723 97.3995 472.326 94.793 475.528 94.793H545.178C548.376 94.793 550.981 97.3981 550.981 100.602V298.351H550.98ZM591.962 346.843L568.042 351.898C567.715 351.966 567.407 351.996 567.115 351.996C565.83 351.996 564.894 351.419 564.404 351.023C563.799 350.531 562.792 349.441 562.792 347.638V310.17H591.962V346.843ZM709.905 65.1295L708.805 65.41C706.006 66.126 701.311 67.9055 701.311 71.8036V84.0705L699.959 84.1698C664.534 86.8026 638.973 100.17 623.766 110.92C605.249 124.012 594.682 138.317 592.422 146.686L592.13 147.766H591.961V298.35H583.942V62.58C583.942 59.3774 586.546 56.7724 589.746 56.7724H704.1C707.3 56.7724 709.905 59.3774 709.905 62.58V65.1295Z" fill="#F2E1D1"/>
<path d="M696.074 211.512L691.698 454.103C694.591 454.283 697.511 454.43 700.46 454.535L696.074 211.512Z" fill="#BB9E81" fill-opacity="0.45"/>
<path d="M834.697 146.307C832.279 137.35 820.757 122.795 802.274 109.728C787.364 99.1865 763.82 86.9488 731.767 83.3108V71.8037C731.767 67.7697 727.99 65.2246 723.174 63.9944V62.5801C723.174 52.0548 714.617 43.4916 704.1 43.4916H589.746C579.228 43.4916 570.671 52.0548 570.671 62.5801V296.89H564.25V100.602C564.25 90.0769 555.694 81.5137 545.176 81.5137H475.526C465.357 81.5137 457.046 89.5232 456.503 99.5664C453.373 99.1587 450.174 98.8285 446.906 98.5889V88.8847C446.906 85.9582 444.606 83.5913 440.836 82.2428V71.4632C440.836 60.9379 432.279 52.3747 421.762 52.3747H308.726C298.208 52.3747 289.652 60.9379 289.652 71.4632V296.89H276.62V199.038C276.62 196.496 275.511 194.067 273.319 191.812C261.781 178.045 190.854 144.577 177.752 138.467V12.4956C177.752 0.646571 142.66 0.304688 138.659 0.304688C134.657 0.304688 99.5654 0.646571 99.5654 12.4956V138.465C96.555 139.869 90.4961 142.715 82.8007 146.438L79.5888 140.083C85.8462 135.91 87.6054 132.991 85.9673 129.749C84.1366 126.125 78.1274 126.162 71.1196 127.764L71.9124 121.821C72.0846 121.758 72.2598 121.708 72.4277 121.624C74.8323 120.407 75.7725 117.422 74.5271 114.957C73.2818 112.492 70.3225 111.481 67.9179 112.698C65.5134 113.915 64.5732 116.9 65.8185 119.365C66.1791 120.079 66.693 120.654 67.2872 121.105L66.2258 129.076C65.4973 129.297 64.7659 129.531 64.0359 129.77L61.8299 125.405C60.9875 123.739 59.548 122.5 57.7756 121.919C56.0003 121.336 54.1096 121.481 52.4468 122.322L29.5751 133.895C27.9093 134.737 26.6727 136.179 26.0916 137.952C25.5091 139.726 25.6536 141.621 26.496 143.285L28.6918 147.633C28.0582 148.09 27.4494 148.548 26.845 149.007L19.7992 145.138C19.7875 144.393 19.6299 143.637 19.2693 142.923C18.0239 140.458 15.0646 139.447 12.66 140.664C10.2555 141.881 9.31527 144.866 10.5606 147.331C11.806 149.796 14.7653 150.807 17.1698 149.589C17.3377 149.505 17.4808 149.392 17.6341 149.291L22.9002 152.183C16.3333 157.859 14.0295 162.046 15.6851 165.319C16.5961 167.122 18.0473 168.021 20.3744 168.021C22.2271 168.021 24.6507 167.436 27.7823 166.298L31.2161 173.092C18.4137 180.363 7.867 187.194 3.99957 191.809C1.80964 194.062 0.700073 196.493 0.700073 199.037V415.062C0.700073 423.887 6.47712 432.256 17.3669 439.586L6.46106 447.316C5.44639 447.832 4.92227 448.552 4.65947 449.207C4.65509 449.218 4.64925 449.229 4.64487 449.24C4.56458 449.448 4.50034 449.648 4.46238 449.829C4.458 449.85 4.45362 449.87 4.44924 449.89C4.39668 450.168 4.38354 450.402 4.38354 450.548V521.847C4.38354 523.726 5.90482 525.248 7.78378 525.248H25.1135C26.991 525.248 28.5137 523.726 28.5137 521.847V470.96H130.683V473.179C130.683 485.216 140.469 495.009 152.496 495.009H247.583V521.847C247.583 523.726 249.104 525.248 250.982 525.248H268.311C270.189 525.248 271.712 523.726 271.712 521.847V495.009H282.572C294.599 495.009 304.386 485.216 304.386 473.179V311.631H326.482V338.518C326.482 340.231 326.745 341.914 327.208 343.568C327.281 343.953 327.377 344.307 327.482 344.609C331.512 356.26 344.461 372.769 359.02 388.636L335.161 406.841C335.075 406.907 335.001 406.983 334.922 407.056C334.881 407.094 334.836 407.127 334.796 407.168C334.655 407.313 334.528 407.466 334.415 407.63C334.395 407.66 334.379 407.694 334.36 407.726C334.272 407.864 334.195 408.005 334.129 408.153C334.1 408.217 334.077 408.283 334.052 408.35C334.004 408.477 333.963 408.607 333.931 408.74C333.915 408.809 333.897 408.876 333.885 408.946C333.855 409.119 333.837 409.294 333.833 409.471C333.831 409.497 333.826 409.522 333.826 409.547V521.848C333.826 523.727 335.347 525.25 337.224 525.25H350.822C352.7 525.25 354.221 523.727 354.221 521.848V426.558H378.867V461.982C378.867 463.861 380.388 465.385 382.267 465.385H391.049C392.926 465.385 394.447 463.862 394.447 461.982V426.558H397.68C400.261 428.835 402.565 430.803 404.527 432.421V470.913C404.527 479.347 417.253 485.705 434.13 485.705C451.007 485.705 463.734 479.347 463.734 470.913V432.421C465.696 430.805 467.998 428.835 470.58 426.559H473.202V461.983C473.202 463.862 474.723 465.386 476.6 465.386H485.382C487.26 465.386 488.781 463.864 488.781 461.983V426.559H514.038V521.85C514.038 523.729 515.559 525.251 517.437 525.251H531.035C532.912 525.251 534.434 523.729 534.434 521.85V409.548C534.434 409.522 534.426 409.499 534.426 409.472C534.422 409.295 534.404 409.122 534.374 408.948C534.361 408.878 534.345 408.81 534.329 408.742C534.296 408.609 534.256 408.479 534.207 408.352C534.183 408.286 534.159 408.219 534.13 408.154C534.064 408.007 533.985 407.865 533.899 407.728C533.879 407.697 533.864 407.662 533.844 407.631C533.733 407.468 533.604 407.313 533.463 407.17C533.423 407.129 533.378 407.095 533.337 407.057C533.258 406.984 533.184 406.908 533.098 406.842L509.239 388.636C523.799 372.771 536.749 356.261 540.777 344.611C540.881 344.31 540.977 343.959 541.05 343.578C541.514 341.919 541.779 340.235 541.779 338.52V311.632H549.521V347.638C549.521 352.98 551.899 357.972 556.044 361.337C559.221 363.914 563.119 365.279 567.115 365.279C568.334 365.279 569.563 365.152 570.784 364.893L579.56 363.037L590.502 360.726V421.868C590.502 423.884 590.883 425.869 591.56 427.821C590.881 429.773 590.502 431.757 590.502 433.775V487.639C590.502 493.501 595.269 498.27 601.126 498.27C606.983 498.27 611.749 493.501 611.749 487.639V465.452C632.147 476.153 665.066 483.001 701.975 484.112V519.674C701.975 525.536 706.742 530.305 712.598 530.305C718.455 530.305 723.221 525.536 723.221 519.674V484.112C760.128 483.001 793.049 476.153 813.447 465.452V487.639C813.447 493.501 818.214 498.27 824.071 498.27C829.929 498.27 834.694 493.501 834.694 487.639V433.775C834.694 431.757 834.313 429.773 833.636 427.821C834.315 425.869 834.694 423.885 834.694 421.868V146.307H834.697ZM824.073 491.466C821.963 491.466 820.248 489.749 820.248 487.638V453.42L815.039 456.703C796.084 468.643 759.574 476.572 719.753 477.395L716.423 477.463V519.674C716.423 521.785 714.708 523.502 712.598 523.502C710.488 523.502 708.773 521.785 708.773 519.674V477.463L705.443 477.395C665.622 476.572 629.11 468.644 610.159 456.703L604.948 453.42V487.638C604.948 489.749 603.233 491.466 601.125 491.466C599.015 491.466 597.299 489.749 597.299 487.638V436.833C603.462 443.333 613.687 449.179 627.56 453.951C650.326 461.78 680.526 466.092 712.597 466.092C744.667 466.092 774.868 461.78 797.633 453.951C811.507 449.179 821.733 443.333 827.895 436.832V487.638C827.898 489.749 826.183 491.466 824.073 491.466ZM827.898 149.708C827.898 152.52 821.144 158.699 795.833 164.02C773.637 168.685 744.076 171.254 712.599 171.254C681.121 171.254 651.562 168.685 629.366 164.02C604.055 158.701 597.301 152.52 597.301 149.708C597.301 144.989 605.967 130.047 626.847 115.284C641.932 104.619 666.3 92.1384 699.851 89.5378V92.8193C699.851 93.2634 699.911 93.6828 699.999 94.0919C690.271 94.8618 681.339 96.4733 673.221 98.6459C672.392 98.8884 671.564 99.1339 670.741 99.4013C666.617 100.735 662.54 102.268 658.774 104.348C662.815 102.871 667.002 102.005 671.197 101.333C675.392 100.656 679.639 100.309 683.876 100.044C688.115 99.7841 692.364 99.7037 696.607 99.7154C699.844 99.7315 703.102 99.8221 706.313 99.9711C709.123 101.01 712.518 101.514 715.81 101.514C721.013 101.514 726.476 100.262 729.468 97.6042C730.558 99.055 730.757 100.804 729.596 102.933C722.797 115.407 690.786 123.912 674.733 123.912C658.679 123.912 653.108 119.375 641.211 119.942C632.387 120.363 624.189 124.216 617.19 128.952C607.448 138.055 602.66 146 601.929 149.157C603.748 151.198 612.191 156.24 635.099 160.533C656.382 164.521 683.907 166.717 712.601 166.717C741.295 166.717 768.818 164.521 790.101 160.533C813.036 156.234 821.473 151.185 823.279 149.15C822.312 144.895 813.735 131.54 795.08 118.528C781.558 109.095 760.295 98.1871 731.452 94.7172C731.65 94.124 731.77 93.4957 731.77 92.8193V90.1646C762.026 93.7514 784.248 105.311 798.353 115.284C819.23 130.047 827.898 144.989 827.898 149.708ZM712.599 459.288C643.631 459.288 597.301 439.938 597.301 421.866V359.288L601.833 358.33V421.866C601.833 427.053 609.535 435.759 631.245 443.227C638.656 445.775 646.938 447.921 655.847 449.654V174.972C659.213 175.351 662.621 175.691 666.044 175.996V451.41C671.652 452.257 677.454 452.953 683.419 453.482V177.241C693.557 177.798 703.489 178.058 712.598 178.058C720.359 178.058 728.72 177.868 737.296 177.468V453.843C742.645 453.447 747.881 452.924 752.972 452.273V176.508C760.674 175.92 768.361 175.156 775.772 174.199V448.312C782.257 446.849 788.354 445.152 793.953 443.227C815.662 435.761 823.365 427.054 823.365 421.866V162.495C825.042 161.656 826.559 160.78 827.898 159.864V421.866C827.898 439.939 781.568 459.288 712.599 459.288ZM715.81 80.4969C718.276 80.4969 720.8 80.2134 723.094 79.6348C717.658 82.1332 711.91 87.6121 711.198 94.2803C708.628 93.7748 707.106 92.9479 706.65 92.4905V79.0694C709.395 80.0279 712.648 80.4969 715.81 80.4969ZM788.803 389.973L785.562 172.794C787.768 172.442 789.939 172.073 792.062 171.682L788.803 389.973ZM597.301 159.864C598.64 160.78 600.157 161.656 601.833 162.493V343.264L597.301 344.222V159.864ZM607.649 325.123L607.5 296.278L607.656 267.433C607.81 257.818 607.868 248.202 608.129 238.587C608.545 219.357 609.16 200.125 610.331 180.895C611.503 200.125 612.117 219.357 612.533 238.587C612.794 248.202 612.852 257.818 613.006 267.433L613.162 296.278L613.013 325.123C612.927 330.399 612.864 335.674 612.79 340.949L607.891 341.985C607.81 336.363 607.742 330.743 607.649 325.123ZM620.059 333.031C619.901 326.747 619.87 320.463 619.775 314.18L619.686 295.33L619.78 276.479C619.872 270.196 619.907 263.913 620.063 257.629C620.313 245.061 620.681 232.495 621.384 219.927C622.088 232.495 622.456 245.061 622.706 257.629C622.862 263.913 622.897 270.197 622.989 276.479L623.082 295.33L622.993 314.18C622.898 320.464 622.869 326.748 622.71 333.031C622.671 334.981 622.622 336.93 622.577 338.881L620.2 339.383C620.152 337.265 620.101 335.148 620.059 333.031ZM628.378 336.642C630.15 331.631 635.48 327.695 640.716 329.368C650.275 332.423 647.961 344.187 645.145 344.89C645.929 340.219 642.78 335.798 638.114 335.013C635.794 334.625 628.694 336.633 628.378 336.642ZM621.386 370.731C621.078 365.273 620.844 359.813 620.646 354.354L622.136 354.039C621.938 359.604 621.698 365.168 621.386 370.731ZM610.332 411.661C609.214 393.436 608.61 375.211 608.197 356.987L612.492 356.08C612.077 374.606 611.468 393.133 610.332 411.661ZM780.61 126.004C776.077 124.587 761.971 118.414 747.727 116.823C740.918 116.062 735.582 113.721 737.813 108.885C739.512 105.199 745.178 105.767 751.694 106.901C758.21 108.035 775.47 115.071 782.855 121.076C786.332 123.901 785.142 127.421 780.61 126.004ZM740.928 152.544C740.362 159.631 726.764 162.182 719.115 161.899C711.466 161.615 706.084 156.499 708.351 150.694C710.617 144.889 712.033 141.487 719.115 139.502C728.406 136.899 741.495 145.456 740.928 152.544ZM680.458 157.521C677.844 155.616 678.969 149.614 682.97 144.115C686.971 138.616 692.334 135.702 694.949 137.607C697.563 139.513 696.438 145.515 692.437 151.014C688.436 156.513 683.072 159.427 680.458 157.521ZM619.114 146.307C611.63 141.887 632.541 127.028 644.843 127.028C633.718 132.405 632.679 138.044 627.726 142.896C624.815 145.75 621.247 147.566 619.114 146.307ZM592.344 349.79C597.137 348.592 601.957 347.524 606.782 346.482C611.616 345.482 616.456 344.507 621.323 343.664C626.188 342.806 631.068 342.026 635.994 341.468C631.262 342.951 626.482 344.213 621.688 345.395C616.895 346.592 612.076 347.66 607.25 348.7C602.417 349.698 597.577 350.673 592.709 351.516C587.845 352.373 582.966 353.153 578.038 353.716C582.77 352.236 587.55 350.975 592.344 349.79ZM713.732 71.8037H711.466L712.599 59.6931L713.732 71.8037ZM708.444 62.5801V63.9944C703.628 65.2261 699.851 67.7697 699.851 71.8037V82.7133C664.507 85.3402 638.812 98.4954 622.925 109.726C604.442 122.795 592.92 137.349 590.502 146.305V296.889H585.402V62.5801C585.402 60.1825 587.351 58.2335 589.746 58.2335H704.1C706.495 58.232 708.444 60.1825 708.444 62.5801ZM574.872 62.5071C575.044 57.4109 577.99 52.5048 582.395 49.9246C584.576 48.5965 587.11 47.8864 589.649 47.7871C592.108 47.7301 594.403 47.7856 596.788 47.7798L610.972 47.8309C620.428 47.885 629.883 47.8528 639.339 47.9902L667.706 48.3072C677.162 48.4957 686.618 48.6053 696.073 48.8624C686.617 49.1195 677.162 49.2306 667.706 49.4191L639.339 49.7346C629.883 49.872 620.427 49.8413 610.972 49.8939L596.788 49.945C594.447 49.9669 592.011 49.9319 589.746 50.002C587.566 50.1014 585.412 50.7267 583.554 51.8692C579.771 54.0462 577.209 58.2306 577.032 62.6123C576.945 67.235 576.978 72.0447 576.946 76.7522C576.895 86.2154 576.92 95.6785 576.784 105.14L576.469 133.53C576.282 142.993 576.172 152.456 575.917 161.918C575.661 152.455 575.552 142.991 575.365 133.53L575.05 105.14C574.914 95.6771 574.939 86.2139 574.888 76.7522C574.885 71.9994 574.813 67.3431 574.872 62.5071ZM574.185 301.097L575.305 205.841L576.438 302.23C576.438 302.232 576.438 302.232 576.438 302.233C576.444 302.859 575.943 303.37 575.318 303.377C575.294 303.377 575.273 303.366 575.248 303.364H564.249V301.097H574.185ZM464.859 90.955C466.947 88.5501 469.695 86.7983 472.711 85.8443L473.866 85.5491C474.254 85.4673 474.654 85.422 475.047 85.3577C475.837 85.2701 476.671 85.2555 477.393 85.2745L481.88 85.3461L490.853 85.4878L526.746 86.0547L490.853 86.6215L481.88 86.7633L477.393 86.8349C476.621 86.8392 475.955 86.8787 475.263 86.9736C474.92 87.0423 474.576 87.0905 474.235 87.1724L473.225 87.4646C470.574 88.3967 468.136 90.0623 466.371 92.2407C464.559 94.3826 463.505 97.0841 463.516 99.7738H461.25C461.332 96.4558 462.737 93.3116 464.859 90.955ZM471.181 100.602C471.181 98.2047 473.13 96.2556 475.526 96.2556H545.176C547.57 96.2556 549.519 98.2061 549.519 100.602V296.889H541.777V146.713C541.777 136.776 515.01 111.922 471.183 102.155V100.602H471.181ZM527.635 518.445H520.836V423.155C520.836 421.276 519.314 419.754 517.437 419.754H350.819C348.942 419.754 347.419 421.276 347.419 423.155V518.445H340.62V412.948H345.483H353.415H515.551H522.772H527.635V518.445ZM415.155 426.556C415.291 426.696 415.45 426.812 415.576 426.962C416.79 428.422 423.147 431.62 434.127 431.62C445.108 431.62 451.464 428.422 452.679 426.962C452.805 426.812 452.964 426.696 453.1 426.556H460.166C458.887 427.617 457.722 428.556 456.694 429.353C456.5 429.503 456.322 429.675 456.163 429.864C453.641 432.894 445.671 436.155 434.127 436.155C422.584 436.155 414.614 432.894 412.094 429.865C411.936 429.676 411.758 429.503 411.562 429.351C410.536 428.555 409.371 427.617 408.092 426.556H415.155ZM411.323 470.912V437.838C416.766 441.032 425.038 442.959 434.127 442.959C438.999 442.959 443.63 442.4 447.725 441.395C445.811 442.384 443.823 443.266 441.745 443.97C438.69 444.965 435.492 445.652 432.224 445.976C431.902 446.008 431.577 446.02 431.254 446.046C433.015 447.114 435.544 449.253 435.544 452.769C435.544 456.81 435.544 468.666 435.544 474.34C445.241 474.09 450.898 471.344 452.399 470.003V439.969C454.065 439.343 455.584 438.63 456.932 437.838V470.913C456.932 474.094 447.836 478.901 434.127 478.901C420.418 478.899 411.323 474.093 411.323 470.912ZM468.404 387.292C468.404 384.794 470.912 382.769 474.008 382.769C477.101 382.769 479.609 384.794 479.609 387.292C479.609 389.791 477.101 391.816 474.008 391.816C470.914 391.816 468.404 389.791 468.404 387.292ZM459.176 391.124C458.901 398.4 445.023 403.783 428.177 403.147C411.33 402.512 397.896 396.098 398.17 388.823C398.3 385.391 401.48 382.392 406.547 380.235C415.322 381.132 424.559 381.61 434.127 381.61C439.494 381.61 444.752 381.454 449.888 381.165C455.725 383.79 459.319 387.336 459.176 391.124ZM534.978 338.518C534.978 356.043 494.454 374.806 434.127 374.806C373.801 374.806 333.277 356.043 333.277 338.518V154.832C334.547 155.464 336.043 156.096 337.808 156.722V338.517C337.808 342.451 341.124 346.773 346.968 350.877V159.333C348.466 159.684 350.065 160.03 351.784 160.372V353.884C355.109 355.747 358.938 357.529 363.23 359.164C364.975 359.829 366.793 360.456 368.644 361.065L370.803 272.446L372.995 362.416C375.776 363.232 378.652 363.989 381.623 364.681V164.476C384.601 164.751 387.657 165.002 390.783 165.228V286.751C392.38 277.096 397.309 268.515 404.381 262.163C404.381 226.524 404.381 188.336 404.381 166.036C413.922 166.484 423.912 166.719 434.126 166.719C443.033 166.719 451.771 166.542 460.188 166.2V259.195C468.144 264.928 474.051 273.211 476.618 282.797V165.291C480.434 165.021 484.16 164.719 487.76 164.377V364.412C489.979 363.879 492.155 363.315 494.266 362.713L497.072 197.443L499.849 360.988C501.615 360.403 503.351 359.803 505.02 359.167C520.701 353.197 530.442 345.286 530.442 338.521V156.724C532.209 156.096 533.705 155.464 534.975 154.832V338.518H534.978ZM509.105 123.567C526.871 133.65 534.673 143.931 534.969 146.586C534.584 147.177 530.874 151.584 504.935 155.46C485.708 158.332 460.563 159.915 434.127 159.915C407.693 159.915 382.546 158.332 363.32 155.46C337.381 151.584 333.672 147.177 333.285 146.586C333.582 143.932 341.384 133.65 359.15 123.567C371.856 116.357 391.901 107.998 418.891 105.606V106.635C418.891 111.269 424.651 114.507 432.898 114.507C433.278 114.507 433.647 114.492 434.016 114.479C433.463 119.733 422.944 125.487 409.375 127.716C394.875 130.099 382.385 127.556 381.48 122.036C381.255 120.668 381.768 119.248 382.877 117.847C375.335 120.478 368.968 123.406 363.855 126.15C350.035 133.566 342.333 141.02 339.245 145.076C342.727 146.609 350.656 149.189 367.618 151.49C378.684 152.992 391.602 154.085 405.423 154.725C415.205 154.215 424.809 152.832 423.219 149.991C421.236 146.448 417.836 140.211 421.944 136.241C426.052 132.273 435.323 128.257 453.672 129.012C474.352 129.863 480.583 136 480.608 142.807C480.626 147.936 473.755 152.149 463.662 154.684C477.17 154.04 489.791 152.96 500.634 151.489C517.596 149.188 525.525 146.606 529.007 145.075C525.919 141.019 518.216 133.565 504.398 126.149C494.808 121.001 480.856 115.198 462.845 111.966C467.466 114.023 470.448 117.195 470.301 118.798C470.086 121.112 463.547 117.588 455.198 116.814C446.848 116.04 439.852 118.307 440.066 115.993C440.234 114.18 444.716 111.135 450.663 110.271C449.08 110.114 447.483 109.968 445.848 109.854C446.533 108.889 446.905 107.807 446.905 106.633V105.383C475.154 107.466 496.013 116.137 509.105 123.567ZM432.9 96.7568C434.465 96.7568 435.938 96.6384 437.3 96.4193C433.438 98.7146 429.805 102.659 429.077 107.345C427.372 107.007 426.19 106.5 425.69 106.118V95.7662C427.749 96.4003 430.186 96.7568 432.9 96.7568ZM492.207 137.437C495.149 134.796 498.9 134.183 500.586 136.065C502.272 137.946 501.255 141.611 498.313 144.251C495.371 146.889 491.621 147.505 489.934 145.623C488.248 143.741 489.266 140.077 492.207 137.437ZM356.516 368.642C366.575 380.666 379.058 393.531 390.222 404.253H383.661C370.979 391.877 357.159 377.236 347.126 364.19C349.999 365.764 353.142 367.248 356.516 368.642ZM374.014 404.255H357.997L367.14 397.259C369.432 399.635 371.732 401.976 374.014 404.255ZM494.241 404.255C496.522 401.976 498.821 399.636 501.116 397.258L510.26 404.255H494.241ZM484.592 404.255H478.031C489.195 393.531 501.678 380.668 511.737 368.643C515.113 367.25 518.254 365.765 521.126 364.193C511.093 377.237 497.273 391.878 484.592 404.255ZM432.905 91.3276H430.64L431.772 69.4353L432.905 91.3276ZM293.288 89.1974L293.315 79.2491L293.328 74.2757C293.318 72.5868 293.439 70.8394 293.763 69.1343C294.388 65.7374 295.973 62.3084 298.734 59.9678C301.477 57.6082 305.028 56.5372 308.44 56.2582C310.182 56.1048 311.84 56.1734 313.488 56.1384L318.458 56.1018L328.397 56.0682L368.158 55.9879C381.413 56.0434 394.666 56.0244 407.923 56.1559C394.672 56.5562 381.42 56.8075 368.168 57.1333L328.409 57.8624L318.47 58.0304L313.5 58.0947C311.837 58.1371 310.174 58.083 308.615 58.232C305.463 58.5053 302.366 59.4944 300.054 61.5048C297.727 63.4962 296.353 66.4314 295.794 69.5215C295.506 71.0761 295.4 72.654 295.417 74.2787L295.43 79.2521L295.456 89.2003L295.505 109.095C295.41 135.622 295.427 162.15 295.24 188.677L294.925 228.468C294.738 241.732 294.627 254.995 294.373 268.26C294.118 254.996 294.008 241.733 293.821 228.468L293.506 188.677C293.319 162.15 293.337 135.622 293.242 109.095L293.288 89.1974ZM304.381 71.4632C304.381 69.0657 306.33 67.1166 308.725 67.1166H421.76C424.154 67.1166 426.103 69.0671 426.103 71.4632V81.8775C421.661 83.1355 418.891 85.6733 418.891 88.8847V98.7993C362.28 103.768 326.478 135.22 326.478 146.714V296.89H304.381V71.4632ZM254.378 518.445V467.559C254.378 465.68 252.856 464.158 250.979 464.158H171.16C191.865 462.385 211.087 458.912 227.494 453.952H264.911V518.447H254.378V518.445ZM34.555 164.625L37.0428 163.366L39.6035 168.434C38.7816 168.881 37.9669 169.327 37.1552 169.774L34.555 164.625ZM48.7589 143.446C61.1218 137.188 71.6437 134.228 77.0952 133.578C71.5503 137.491 59.1012 143.791 51.0043 147.889C42.9074 151.987 30.4584 158.287 24.0243 160.438C27.7779 156.429 36.3975 149.702 48.7589 143.446ZM32.5622 140.215C32.5227 140.138 32.5651 140.007 32.6425 139.969L55.5127 128.394C55.5331 128.384 55.5565 128.38 55.5798 128.38C55.6514 128.38 55.7287 128.418 55.7594 128.476L57.5887 132.096C52.8526 133.951 48.5589 135.923 45.6915 137.374C41.7351 139.377 37.9202 141.552 34.3725 143.799L32.5622 140.215ZM46.7953 162.448C45.947 160.769 46.3909 159.324 47.2814 158.185L66.5558 148.429C67.5573 148.548 68.5632 149.004 69.1151 150.096C69.5195 150.897 69.9399 151.758 70.321 152.551C63.1132 156.128 55.3083 160.086 47.642 164.13C47.261 163.373 46.9354 162.727 46.7953 162.448ZM101.53 145.053C101.598 145.12 101.676 145.183 101.747 145.249C101.847 145.345 101.952 145.44 102.059 145.534C102.239 145.691 102.428 145.845 102.625 145.995C102.739 146.083 102.852 146.171 102.971 146.255C103.192 146.413 103.426 146.565 103.663 146.714C103.773 146.783 103.878 146.854 103.992 146.923C104.332 147.126 104.688 147.322 105.058 147.512C105.077 147.522 105.094 147.532 105.115 147.543C105.507 147.741 105.919 147.931 106.342 148.115C106.477 148.174 106.617 148.228 106.754 148.285C107.051 148.408 107.35 148.53 107.658 148.646C107.827 148.71 108.002 148.771 108.175 148.834C108.464 148.938 108.756 149.04 109.055 149.138C109.239 149.199 109.426 149.259 109.613 149.318C109.916 149.413 110.223 149.505 110.534 149.595C110.722 149.649 110.908 149.705 111.099 149.758C111.433 149.85 111.772 149.937 112.112 150.025C112.283 150.069 112.451 150.114 112.623 150.156C113.104 150.273 113.588 150.386 114.079 150.494C114.114 150.501 114.147 150.51 114.181 150.517C114.707 150.631 115.238 150.739 115.772 150.842C115.953 150.877 116.136 150.909 116.317 150.942C116.678 151.01 117.038 151.075 117.4 151.137C117.608 151.172 117.815 151.207 118.024 151.24C118.364 151.296 118.704 151.35 119.046 151.403C119.262 151.435 119.478 151.468 119.694 151.499C120.031 151.549 120.367 151.596 120.703 151.641C120.913 151.669 121.122 151.698 121.33 151.726C121.695 151.772 122.059 151.818 122.422 151.86C122.596 151.88 122.771 151.902 122.945 151.923C123.447 151.98 123.945 152.034 124.44 152.085C124.472 152.088 124.506 152.092 124.538 152.095C125.061 152.148 125.576 152.196 126.087 152.243C126.274 152.259 126.455 152.273 126.639 152.29C126.967 152.317 127.294 152.345 127.616 152.37C127.813 152.384 128.007 152.399 128.201 152.414C128.505 152.436 128.804 152.458 129.1 152.478C129.29 152.491 129.478 152.503 129.665 152.516C129.963 152.535 130.255 152.552 130.544 152.57C130.714 152.58 130.883 152.59 131.049 152.599C131.346 152.615 131.633 152.63 131.918 152.645C132.067 152.652 132.22 152.659 132.366 152.666C132.744 152.684 133.111 152.7 133.466 152.715C133.518 152.716 133.572 152.719 133.623 152.721C133.996 152.735 134.35 152.747 134.692 152.758C134.809 152.763 134.915 152.764 135.029 152.769C135.257 152.775 135.482 152.782 135.692 152.788C135.829 152.791 135.956 152.794 136.086 152.796C136.264 152.801 136.435 152.804 136.599 152.807C136.714 152.808 136.825 152.811 136.933 152.813C137.105 152.815 137.264 152.817 137.418 152.82C137.492 152.821 137.568 152.821 137.638 152.823C137.793 152.824 137.929 152.826 138.059 152.826C138.118 152.826 138.183 152.827 138.237 152.827C138.399 152.827 138.542 152.829 138.656 152.829C138.77 152.829 138.911 152.829 139.075 152.827C139.13 152.827 139.193 152.826 139.253 152.826C139.383 152.824 139.52 152.824 139.673 152.823C139.743 152.821 139.818 152.821 139.892 152.82C140.046 152.818 140.205 152.815 140.378 152.813C140.486 152.811 140.596 152.808 140.711 152.807C140.875 152.804 141.046 152.799 141.224 152.796C141.354 152.794 141.481 152.791 141.618 152.788C141.83 152.782 142.053 152.776 142.281 152.769C142.395 152.766 142.501 152.763 142.618 152.758C142.961 152.748 143.317 152.735 143.693 152.721C143.741 152.719 143.79 152.716 143.84 152.715C144.196 152.7 144.564 152.684 144.945 152.666C145.091 152.659 145.243 152.652 145.393 152.645C145.678 152.63 145.966 152.615 146.264 152.599C146.429 152.59 146.598 152.58 146.767 152.57C147.056 152.552 147.348 152.535 147.646 152.516C147.833 152.504 148.021 152.491 148.211 152.478C148.506 152.458 148.805 152.437 149.108 152.414C149.303 152.399 149.497 152.384 149.696 152.37C150.017 152.345 150.344 152.317 150.673 152.29C150.857 152.273 151.038 152.259 151.223 152.243C151.734 152.197 152.249 152.149 152.772 152.095C152.804 152.092 152.838 152.088 152.87 152.085C153.365 152.034 153.864 151.98 154.366 151.923C154.539 151.902 154.712 151.88 154.886 151.86C155.25 151.816 155.615 151.772 155.98 151.726C156.188 151.699 156.397 151.67 156.606 151.642C156.943 151.597 157.279 151.55 157.616 151.501C157.832 151.47 158.047 151.438 158.263 151.404C158.605 151.352 158.945 151.297 159.286 151.242C159.494 151.208 159.701 151.175 159.908 151.14C160.272 151.077 160.634 151.011 160.996 150.944C161.177 150.91 161.357 150.878 161.538 150.845C162.072 150.741 162.603 150.634 163.129 150.52C163.164 150.513 163.198 150.504 163.231 150.497C163.722 150.39 164.206 150.278 164.687 150.159C164.859 150.117 165.027 150.072 165.198 150.028C165.539 149.942 165.878 149.852 166.211 149.76C166.401 149.708 166.588 149.652 166.776 149.598C167.087 149.508 167.395 149.416 167.697 149.321C167.884 149.262 168.069 149.202 168.253 149.141C168.553 149.043 168.845 148.941 169.135 148.836C169.307 148.774 169.481 148.711 169.651 148.649C169.96 148.532 170.259 148.41 170.556 148.286C170.692 148.229 170.832 148.175 170.966 148.117C171.389 147.933 171.801 147.743 172.194 147.543C172.214 147.532 172.23 147.522 172.251 147.512C172.622 147.322 172.976 147.126 173.317 146.923C173.43 146.856 173.536 146.784 173.645 146.714C173.883 146.564 174.117 146.412 174.337 146.255C174.457 146.171 174.569 146.083 174.683 145.995C174.88 145.845 175.07 145.691 175.249 145.534C175.356 145.44 175.461 145.345 175.562 145.249C175.632 145.183 175.711 145.12 175.778 145.053C201.013 156.827 259.287 185.42 268.155 196.248L268.37 196.486C269.027 197.149 269.812 198.131 269.812 199.037C269.812 202.007 262.092 208.531 233.153 214.14C207.944 219.025 174.381 221.717 138.65 221.717C102.917 221.717 69.3545 219.025 44.1469 214.14C15.2091 208.531 7.48741 202.007 7.48741 199.037C7.48741 198.131 8.27141 197.151 8.92839 196.486L9.143 196.248C18.0195 185.42 76.2951 156.827 101.53 145.053ZM106.363 12.8127C108.089 10.6942 119.922 7.10876 138.657 7.10876C157.394 7.10876 169.227 10.6927 170.951 12.8127V135.32V140.321C169.226 142.439 157.393 146.023 138.657 146.023C119.92 146.023 108.087 142.439 106.363 140.321V135.32V12.8127ZM7.49617 415.064V209.028C8.83057 209.93 10.3533 210.797 12.0279 211.63V415.062C12.0279 420.692 17.7509 427.087 28.4582 433.05V217.531C31.4935 218.35 34.7127 219.119 38.0895 219.838V437.714C42.7891 439.707 48.0946 441.603 53.9534 443.358V222.707C79.4589 226.614 109.9 228.369 135.312 228.511L138.656 430.372L141.999 228.511C144.339 228.497 146.719 228.471 149.138 228.43V454.031C153.391 453.919 157.55 453.742 161.603 453.499V228.101C169.773 227.811 178.171 227.365 186.532 226.747V451.089C190.451 450.554 194.244 449.961 197.901 449.312L201.263 235.892L204.606 448.023C243.194 440.122 265.286 426.119 265.286 415.062V211.631C266.962 210.798 268.485 209.932 269.82 209.029V415.064C269.82 436.148 217.115 458.722 138.657 458.722C60.1991 458.722 7.49617 436.146 7.49617 415.064ZM248.293 321.542C248.358 314.171 248.368 306.8 248.481 299.43C248.665 292.059 248.735 284.688 249.047 277.317C249.547 262.575 250.284 247.833 251.69 233.091C253.097 247.833 253.833 262.575 254.332 277.317C254.646 284.688 254.715 292.059 254.899 299.43C255.01 306.8 255.021 314.171 255.087 321.542C255.108 336.284 254.835 351.026 254.343 365.768C253.845 380.51 253.105 395.252 251.69 409.994C250.275 395.252 249.535 380.51 249.037 365.768C248.545 351.026 248.272 336.284 248.293 321.542ZM21.7103 467.559V518.445H11.1782V453.951H49.8232C66.2302 458.912 85.452 462.384 106.157 464.156H25.1091C23.2316 464.158 21.7103 465.68 21.7103 467.559ZM145.409 473.179V470.96H193.899V480.267H152.492C148.586 480.267 145.409 477.088 145.409 473.179ZM208.63 480.267V470.96H247.579V480.267H208.63ZM289.65 473.179C289.65 477.088 286.473 480.267 282.568 480.267H271.707V450.548C271.707 450.402 271.694 450.168 271.642 449.89C271.637 449.87 271.633 449.85 271.629 449.829C271.591 449.648 271.526 449.448 271.446 449.24C271.442 449.229 271.436 449.217 271.431 449.207C271.169 448.552 270.644 447.832 269.63 447.316L259.312 440.004C270.609 432.573 276.619 424.056 276.619 415.062V311.631H289.65V473.179ZM276.62 303.364V301.097H326.479V303.364H276.62ZM541.777 303.364V301.097H549.519V303.364H541.777ZM554.27 311.238L553.953 283.13C553.772 264.392 553.783 245.654 553.693 226.917C553.788 208.179 553.771 189.441 553.958 170.703L554.273 142.595C554.46 133.227 554.569 123.858 554.825 114.488C555.08 123.856 555.19 133.226 555.377 142.595L555.692 170.703C555.879 189.441 555.861 208.179 555.956 226.917C555.867 245.654 555.876 264.392 555.697 283.13L555.381 311.238C555.193 320.606 555.083 329.975 554.826 339.345C554.568 329.977 554.458 320.607 554.27 311.238ZM567.74 350.47C566.563 350.715 565.722 350.209 565.32 349.887C564.92 349.562 564.25 348.839 564.25 347.638V311.632H590.502V345.66L567.74 350.47Z" fill="#BB9E81" fill-opacity="0.45"/>
<path d="M762.73 466.285C753.667 467.587 744.554 468.551 735.412 469.083C726.274 469.672 717.108 469.859 707.954 469.699C703.374 469.705 698.8 469.471 694.225 469.312C689.657 469.02 685.085 468.754 680.529 468.311C671.41 467.508 662.326 466.308 653.323 464.659C644.334 462.958 635.41 460.84 626.735 457.923C618.044 455.087 609.61 451.271 602.25 445.709C605.683 448.782 609.52 451.419 613.583 453.635C614.57 454.247 615.634 454.702 616.66 455.235C617.698 455.746 618.727 456.28 619.776 456.772C621.906 457.669 624.008 458.654 626.17 459.479C634.815 462.809 643.76 465.304 652.804 467.251C661.849 469.229 671.025 470.51 680.218 471.507C684.814 472.04 689.433 472.293 694.045 472.627C698.664 472.816 703.282 473.079 707.907 473.099C726.393 473.349 744.926 472.092 763.152 468.906C772.262 467.316 781.289 465.204 790.107 462.407C792.318 461.731 794.477 460.885 796.66 460.134C798.81 459.281 800.971 458.464 803.083 457.527C807.332 455.708 811.429 453.546 815.331 451.102C807.157 455.352 798.508 458.512 789.636 460.809C780.791 463.196 771.785 464.935 762.73 466.285Z" fill="#BB9E81" fill-opacity="0.45"/>
<path d="M68.5867 447.151L64.1528 246.376L59.7671 445C62.5936 445.753 65.5354 446.47 68.5867 447.151Z" fill="#BB9E81" fill-opacity="0.45"/>
<path d="M40.7351 208.811C43.6492 209.434 46.8202 210.052 50.2905 210.654C52.2936 211.002 54.3638 211.332 56.4603 211.653C73.7739 191.345 99.9174 165.138 110.801 154.379C109.651 154.09 108.111 153.669 106.427 153.062C90.0889 165.606 57.7232 192.793 40.7351 208.811Z" fill="#BB9E81" fill-opacity="0.45"/>
<path d="M12.7682 198.992C14.7523 200.597 19.6986 203.237 29.5168 206.046C43.8915 194.446 76.4383 168.639 102.478 151.324C101.934 151.03 101.396 150.719 100.877 150.377C93.1607 154.015 78.2093 161.158 62.7133 169.08C23.9281 188.903 14.8734 196.537 12.7682 198.992Z" fill="#BB9E81" fill-opacity="0.45"/>
<path d="M140.612 217.173C145.213 217.16 149.782 217.101 154.31 216.997C151.772 204.355 145.36 172.304 142.555 157.312C141.268 157.345 139.967 157.364 138.657 157.364C137.809 157.364 136.971 157.346 136.132 157.333L140.612 217.173Z" fill="#BB9E81" fill-opacity="0.45"/>
<path d="M165.823 216.634C169.442 216.488 173.02 216.314 176.552 216.111C173.883 208.129 171.204 200.147 168.481 192.182L163.468 177.704C161.764 172.89 160.066 168.075 158.205 163.316C160.583 167.841 162.808 172.449 165.037 177.051L171.63 190.903C175.515 199.151 179.358 207.413 183.186 215.691C199.229 214.587 214.139 212.891 227.026 210.654C251.344 206.434 261.481 201.475 264.548 198.992C262.441 196.536 253.382 188.897 214.563 169.058C199.073 161.14 184.148 154.011 176.441 150.377C172.642 152.872 167.998 154.015 165.792 154.558C161.009 155.736 155.245 156.562 149.008 157L165.823 216.634ZM195.987 167.734C198.662 169.28 201.269 170.928 203.909 172.528L211.727 177.481L219.445 182.589C221.983 184.345 224.555 186.048 227.059 187.858C232.102 191.422 237.079 195.088 241.872 199.037C236.309 196.277 230.931 193.232 225.617 190.087C222.942 188.542 220.338 186.89 217.696 185.291L209.881 180.334L202.165 175.223C199.627 173.469 197.057 171.762 194.553 169.953C189.511 166.388 184.534 162.726 179.738 158.779C185.296 161.544 190.673 164.59 195.987 167.734Z" fill="#BB9E81" fill-opacity="0.45"/>
<path d="M84.528 193.176L102.964 168.703L82.3424 191.373C75.9872 198.422 69.6423 205.456 63.382 212.645C65.404 212.916 67.4509 213.179 69.543 213.426C74.4616 206.648 79.5028 199.907 84.528 193.176Z" fill="#BB9E81" fill-opacity="0.45"/>
<path d="M166.42 137.777V15.3551C165.023 14.7692 162.802 14.1117 159.852 13.5142L157.637 128.922L155.409 12.7574C150.876 12.1072 145.246 11.6455 138.657 11.6455V141.488C152.834 141.487 162.63 139.365 166.42 137.777Z" fill="#BB9E81" fill-opacity="0.45"/>
<path d="M117.041 13.6035C114.307 14.1777 112.225 14.7986 110.896 15.3553V137.777C112.225 138.334 114.307 138.955 117.041 139.529V13.6035Z" fill="#BB9E81" fill-opacity="0.45"/>
<path d="M130.185 107.466C130.517 115.309 131.01 123.153 131.953 130.996C132.896 123.153 133.39 115.309 133.721 107.466C134.05 99.6233 134.231 91.779 134.218 83.9361C134.222 76.0932 134.045 68.2489 133.714 60.406C133.381 52.5632 132.89 44.7188 131.952 36.876C131.014 44.7188 130.522 52.5632 130.19 60.406C129.858 68.2489 129.681 76.0932 129.686 83.9361C129.676 91.7804 129.857 99.6233 130.185 107.466Z" fill="#BB9E81" fill-opacity="0.45"/>
<path d="M423.079 445.948C422.819 445.922 422.559 445.909 422.299 445.878C420.14 445.605 418.011 445.218 415.855 444.632V470.003C416.76 470.812 419.181 472.132 423.079 473.108V445.948Z" fill="#BB9E81" fill-opacity="0.45"/>
<path d="M403.582 354.724C393.719 344.564 391.776 329.446 390.784 321.365V366.577C401.156 368.456 412.379 369.648 424.057 370.082C417.721 366.601 410.243 361.585 403.582 354.724Z" fill="#BB9E81" fill-opacity="0.45"/>
<path d="M476.621 315.38C471.723 334.388 454.579 348.204 434.128 348.204C419.075 348.204 405.764 340.573 397.848 328.975C399.4 347.428 414.847 361.923 433.687 361.923C444.175 361.923 453.614 357.429 460.189 350.262V368.983C465.847 368.413 471.343 367.663 476.62 366.731L476.621 315.38Z" fill="#BB9E81" fill-opacity="0.45"/>
<path d="M411.465 181.526L408.948 258.583C410.522 257.506 412.17 256.527 413.885 255.657L411.465 181.526Z" fill="#BB9E81" fill-opacity="0.45"/>
<path d="M394.751 293.576V304.306C394.751 304.312 394.753 304.316 394.753 304.322C394.786 326.023 412.436 343.668 434.128 343.668C455.224 343.668 472.494 326.979 473.457 306.1C473.479 305.945 473.504 305.792 473.504 305.633V293.576C473.504 272.504 455.84 255.358 434.128 255.358C412.415 255.358 394.751 272.502 394.751 293.576ZM460.208 274.773C453.257 268.607 444.124 264.854 434.128 264.854C424.131 264.854 414.998 268.607 408.045 274.773C413.993 267.121 423.47 262.162 434.128 262.162C444.785 262.162 454.262 267.121 460.208 274.773ZM401.55 304.259C401.55 286.283 416.164 271.658 434.129 271.658C452.092 271.658 466.707 286.283 466.707 304.259C466.707 322.236 452.092 336.861 434.129 336.861C416.164 336.863 401.55 322.236 401.55 304.259Z" fill="#BB9E81" fill-opacity="0.45"/>
<path d="M407.736 304.26C407.736 318.845 419.551 330.671 434.128 330.671C448.702 330.671 460.519 318.847 460.519 304.26C460.519 289.674 448.704 277.849 434.128 277.849C419.551 277.85 407.736 289.674 407.736 304.26ZM434.154 324.861C430.089 324.875 426.032 323.648 422.661 321.373C424.74 321.915 426.638 322.391 428.532 322.707C429.485 322.831 430.409 323.005 431.351 323.047C432.284 323.135 433.217 323.189 434.151 323.161C435.085 323.194 436.018 323.129 436.951 323.046C437.893 322.998 438.818 322.825 439.77 322.698C441.664 322.378 443.56 321.895 445.635 321.344C442.273 323.627 438.218 324.866 434.154 324.861ZM440.715 291.422C440.715 292.899 439.519 294.095 438.043 294.095C436.567 294.095 435.372 292.899 435.372 291.422C435.372 289.945 436.567 288.748 438.043 288.748C439.518 288.748 440.715 289.945 440.715 291.422ZM423.695 286.523C425.527 285.469 427.498 284.61 429.578 284.181C431.649 283.751 433.783 283.545 435.897 283.735C438.01 283.915 440.094 284.423 442.051 285.24C439.823 285.09 437.757 285.04 435.763 285.315C434.771 285.399 433.802 285.601 432.863 285.841C432.392 285.941 431.932 286.061 431.476 286.206C431.024 286.356 430.562 286.434 430.132 286.638C428.378 287.302 426.724 288.104 425.245 289.156C424.807 289.446 424.409 289.787 423.997 290.11C424.358 290.053 424.721 289.999 425.098 289.999C429.032 289.999 432.224 293.191 432.224 297.13C432.224 301.069 429.034 304.261 425.098 304.261C421.249 304.261 418.135 301.203 417.998 297.386C417.223 298.907 416.599 300.528 416.169 302.245C415.287 305.915 415.24 309.902 416.122 314.255C414.05 310.548 413.189 306.186 413.677 301.969C414.167 297.757 415.94 293.685 418.8 290.544C420.201 288.953 421.855 287.579 423.695 286.523Z" fill="#BB9E81" fill-opacity="0.45"/>
</g>
<defs>
<clipPath id="clip0_603_486">
<rect width="834" height="530" fill="white" transform="translate(0.697266 0.304688)"/>
</clipPath>
</defs>
</svg>
