<svg width="371" height="347" viewBox="0 0 371 347" fill="none" xmlns="http://www.w3.org/2000/svg">
<mask id="mask0_7602_49855" style="mask-type:alpha" maskUnits="userSpaceOnUse" x="16" y="14" width="333" height="333">
<circle cx="182.727" cy="180.612" r="166.125" fill="#D9D9D9"/>
</mask>
<g mask="url(#mask0_7602_49855)">
<circle cx="184.955" cy="163.32" r="130.133" fill="#1D1D1D"/>
</g>
<path d="M357.186 70.3738C336.667 72.3305 335.105 74.5048 333.899 107.232C333.894 107.375 333.683 107.375 333.677 107.232C332.471 74.5055 330.909 72.3305 310.39 70.3738C310.255 70.3611 310.255 70.1656 310.39 70.1529C330.909 68.1962 332.471 66.0219 333.677 33.2944C333.682 33.1519 333.893 33.1519 333.899 33.2944C335.105 66.0212 336.667 68.1962 357.186 70.1529C357.321 70.1656 357.321 70.3611 357.186 70.3738Z" fill="#313131"/>
<path d="M370.599 41.7954C358.924 42.9086 358.035 44.146 357.349 62.7669C357.346 62.8484 357.226 62.8484 357.223 62.7669C356.537 44.146 355.648 42.9086 343.973 41.7954C343.897 41.7877 343.897 41.677 343.973 41.6693C355.648 40.5561 356.537 39.3187 357.223 20.6978C357.226 20.6164 357.347 20.6164 357.349 20.6978C358.035 39.3187 358.924 40.5561 370.599 41.6693C370.675 41.677 370.675 41.7877 370.599 41.7954Z" fill="#313131"/>
<path d="M48.4301 273.777C36.755 274.891 35.8664 276.128 35.1802 294.749C35.1771 294.83 35.0568 294.83 35.0542 294.749C34.368 276.128 33.4795 274.891 21.8044 273.777C21.728 273.77 21.728 273.659 21.8044 273.651C33.4795 272.538 34.368 271.301 35.0542 252.68C35.0574 252.598 35.1777 252.598 35.1802 252.68C35.8664 271.301 36.755 272.538 48.4301 273.651C48.5065 273.659 48.5065 273.77 48.4301 273.777Z" fill="#313131"/>
<path d="M319.366 42.4108C312.243 43.09 311.701 43.8449 311.283 55.2049C311.281 55.2546 311.208 55.2546 311.206 55.2049C310.788 43.8449 310.245 43.09 303.123 42.4108C303.076 42.4064 303.076 42.3382 303.123 42.3338C310.245 41.6546 310.788 40.8997 311.206 29.5397C311.208 29.49 311.281 29.49 311.283 29.5397C311.702 40.8997 312.243 41.6546 319.366 42.3338C319.413 42.3389 319.413 42.4064 319.366 42.4108Z" fill="#313131"/>
<path d="M329.587 151.018L295.336 62.0025C283.871 66.4137 270.999 60.6962 266.588 49.2297L48.5862 133.111C48.6556 133.28 48.7295 133.445 48.7958 133.616C53.1858 145.026 47.5437 157.823 36.192 162.296L70.4466 251.321C81.6974 247.095 94.2447 252.58 98.8139 263.649L316.814 179.768C312.402 168.301 318.121 155.43 329.587 151.018Z" fill="#292929"/>
<path d="M328.301 145.809L294.05 56.7935C282.585 61.2048 269.713 55.4872 265.301 44.0208L47.3001 127.902C47.3695 128.071 47.4434 128.236 47.5097 128.407C51.8996 139.817 46.2576 152.614 34.9059 157.087L69.1605 246.112C80.4113 241.886 92.9586 247.371 97.5278 258.44L315.528 174.559C311.116 163.093 316.834 150.221 328.301 145.809Z" fill="#FF4D4D"/>
<path opacity="0.9" d="M101.431 246.97C95.0238 239.06 85.1675 234.755 75.0157 235.422L46.4038 161.063C54.6011 154.507 59.061 144.163 58.176 133.686L261.265 55.5424C267.695 63.7038 277.839 68.2112 288.205 67.5109L316.78 141.773C308.618 148.203 304.111 158.348 304.811 168.714L101.431 246.97Z" stroke="black" stroke-width="1.64097" stroke-miterlimit="10"/>
<path opacity="0.9" d="M257.216 68.2104L292.252 159.269" stroke="black" stroke-width="1.64097" stroke-miterlimit="10"/>
<path opacity="0.9" d="M69.3154 140.554L104.352 231.612" stroke="black" stroke-width="1.64097" stroke-miterlimit="10"/>
<path d="M117.482 200.317L109.807 203.316C109.631 203.385 109.499 203.309 109.413 203.088L91.36 156.489C91.2911 156.313 91.3448 156.19 91.5213 156.121L105.218 150.77C107.666 149.814 110.148 149.53 112.664 149.92C115.181 150.309 117.438 151.271 119.435 152.804C121.454 154.328 122.959 156.359 123.95 158.895C124.596 160.549 124.929 162.148 124.947 163.692C124.965 165.235 124.813 166.604 124.492 167.797C124.192 168.982 123.853 169.903 123.473 170.559C126.981 172.316 129.451 175.024 130.881 178.685L136.376 192.554C136.462 192.775 136.395 192.928 136.174 193.014L128.499 196.013C128.322 196.082 128.208 196.05 128.157 195.918L122.676 181.891C122.039 180.259 120.914 179.071 119.302 178.328C117.69 177.585 116.045 177.541 114.369 178.196L109.903 179.941L117.618 199.883C117.704 200.103 117.659 200.248 117.482 200.317ZM108.384 158.875L102.562 161.15L106.723 171.803L112.546 169.528C113.936 168.985 114.968 167.984 115.644 166.525C116.342 165.058 116.398 163.574 115.812 162.075C115.252 160.641 114.24 159.613 112.776 158.99C111.304 158.345 109.84 158.307 108.384 158.875ZM138.469 191.736L128.687 141.906C128.662 141.712 128.738 141.581 128.914 141.512L138.74 137.673C138.916 137.604 139.061 137.65 139.174 137.809L165.432 181.202C165.54 181.414 165.495 181.559 165.296 181.637L157.786 184.571C157.566 184.657 157.402 184.594 157.293 184.382L154.627 179.704L145.397 183.31L146.608 188.557C146.672 188.786 146.605 188.939 146.406 189.017L138.863 191.964C138.687 192.033 138.555 191.957 138.469 191.736ZM139.534 155.323L143.922 175.535L150.44 172.989L140.229 155.052L138.85 152.693L139.534 155.323ZM176.388 177.303L168.779 180.276C168.559 180.362 168.405 180.295 168.319 180.074L150.266 133.475C150.197 133.299 150.251 133.176 150.427 133.107L172.13 124.628C172.35 124.542 172.495 124.587 172.564 124.764L175.549 132.406C175.618 132.582 175.565 132.705 175.388 132.774L161.493 138.202L165.604 148.723L179.498 143.294C179.675 143.225 179.806 143.301 179.892 143.522L182.957 151.171C183.026 151.347 182.95 151.479 182.73 151.565L168.835 156.993L176.59 176.843C176.676 177.064 176.609 177.217 176.388 177.303ZM203.559 166.688L195.95 169.661C195.729 169.747 195.576 169.68 195.489 169.459L177.436 122.86C177.367 122.684 177.421 122.561 177.597 122.492L199.3 114.013C199.52 113.927 199.665 113.972 199.734 114.149L202.72 121.791C202.789 121.967 202.735 122.09 202.558 122.159L188.664 127.587L192.774 138.108L206.669 132.679C206.845 132.61 206.976 132.686 207.063 132.907L210.127 140.556C210.196 140.732 210.12 140.864 209.9 140.95L196.005 146.378L203.76 166.228C203.846 166.449 203.779 166.602 203.559 166.688ZM244.954 150.515L223.054 159.072C222.877 159.141 222.746 159.065 222.66 158.844L204.566 112.337C204.48 112.116 204.547 111.963 204.768 111.877L212.311 108.93C212.531 108.844 212.685 108.911 212.771 109.132L227.736 147.633L241.697 142.178C241.918 142.092 242.071 142.159 242.157 142.38L245.156 150.055C245.242 150.276 245.175 150.429 244.954 150.515ZM270.537 140.52L248.636 149.077C248.459 149.146 248.328 149.07 248.242 148.849L230.123 102.276C230.054 102.1 230.107 101.977 230.284 101.908L252.052 93.4034C252.229 93.3344 252.36 93.4102 252.446 93.6308L255.406 101.207C255.475 101.383 255.421 101.506 255.245 101.575L241.35 107.003L245.486 117.59L259.381 112.161C259.557 112.092 259.68 112.146 259.749 112.323L262.814 119.972C262.883 120.148 262.829 120.271 262.652 120.34L248.691 125.794L253.319 137.638L267.28 132.184C267.456 132.115 267.587 132.19 267.674 132.411L270.698 140.152C270.767 140.329 270.713 140.452 270.537 140.52Z" fill="#1A1505"/>
<path d="M221.701 277.213C246.612 277.213 266.806 256.86 266.806 231.754C266.806 206.647 246.612 186.294 221.701 186.294C196.79 186.294 176.596 206.647 176.596 231.754C176.596 256.86 196.79 277.213 221.701 277.213Z" fill="#1D1D1D"/>
<path d="M221.701 271.58C243.525 271.58 261.217 253.749 261.217 231.753C261.217 209.758 243.525 191.927 221.701 191.927C199.877 191.927 182.186 209.758 182.186 231.753C182.186 253.749 199.877 271.58 221.701 271.58Z" fill="#36D34F"/>
<path d="M206.305 231.753L216.557 242.005L237.097 221.501" stroke="#161616" stroke-width="8.54806" stroke-linecap="round" stroke-linejoin="round"/>
</svg>
