<svg width="176" height="140" viewBox="0 0 176 140" fill="none" xmlns="http://www.w3.org/2000/svg">
<path d="M171.027 118.947C171.098 119.607 171.132 119.961 171.132 119.961C171.015 120.032 170.885 120.102 170.755 120.173C168.633 121.399 166.406 122.578 164.132 123.674C163.732 123.874 163.33 124.062 162.93 124.251C161.669 124.852 160.385 125.442 159.1 125.995C157.58 126.667 156.035 127.315 154.504 127.928C154.068 128.105 153.632 128.282 153.207 128.447C151.238 129.225 149.283 129.943 147.35 130.627C146.431 130.969 145.524 131.287 144.627 131.593C144.156 131.746 143.697 131.9 143.249 132.053C140.244 133.055 137.356 133.95 134.669 134.728C134.186 134.881 133.703 135.01 133.231 135.152C130.085 136.047 127.245 136.802 124.864 137.391C124.333 137.52 123.838 137.65 123.367 137.769C119.643 138.664 117.38 139.125 117.38 139.125L115.412 132.172L114.917 130.392L112.053 120.257L111.546 118.477L109.907 112.691L110.709 109.179L110.991 107.953L112.795 100.034L113.066 98.8085L114.515 92.4681L114.951 90.5351L115.234 89.3097L116.837 82.2854L117.119 81.0601V81.0482L117.378 79.893L124.697 77.9837L125.934 77.6655L134.384 75.4499L135.87 75.0605L144.332 72.8568L145.44 72.5623L145.817 72.4685L159.099 69.0039L171.131 65.8574C170.483 70.0642 170.071 74.6022 169.846 79.1746C169.67 82.5099 169.6 85.8926 169.588 89.1803V90.6182C169.6 93.4583 169.647 96.2284 169.741 98.8678C169.753 99.3629 169.776 99.8581 169.788 100.341C169.906 103.406 170.059 106.258 170.212 108.78V108.792C170.248 109.299 170.283 109.794 170.306 110.277C170.589 114.354 170.872 117.431 171.024 118.939V118.947H171.027Z" fill="#AA170C"/>
<path d="M154.501 127.927C154.066 128.104 153.63 128.281 153.205 128.446C139.735 118.983 126.264 109.507 112.794 100.032L113.065 98.8066C116.153 100.975 119.24 103.144 122.34 105.312C133.064 112.854 143.777 120.385 154.501 127.927Z" fill="#FFEBCC"/>
<path d="M164.13 123.672C163.73 123.872 163.329 124.06 162.928 124.249C159.794 122.045 156.647 119.841 153.512 117.638C140.666 108.599 127.808 99.5712 114.95 90.532L115.233 89.3066C117.214 90.697 119.205 92.0993 121.185 93.4908C135.493 103.555 149.812 113.607 164.13 123.672Z" fill="#FFEBCC"/>
<path d="M171.132 119.959C171.014 120.03 170.885 120.1 170.754 120.171C167.854 118.133 164.956 116.094 162.057 114.055C146.972 103.473 131.91 92.865 116.837 82.2823C116.696 82.1766 116.542 82.0816 116.401 81.976C115.788 81.5402 116.377 80.5262 116.99 80.962C117.038 80.9976 117.072 81.0213 117.119 81.0439V81.0558C121.315 84.0016 125.534 86.9604 129.73 89.9062C143.495 99.5818 157.26 109.257 171.026 118.933V118.945C171.096 119.606 171.132 119.959 171.132 119.959Z" fill="#FFEBCC"/>
<path d="M170.306 110.272C155.186 99.6538 140.066 89.0117 124.945 78.3933C124.792 78.2876 124.71 78.1345 124.698 77.9813C124.627 77.5337 125.064 77.0504 125.535 77.3805C125.665 77.4743 125.806 77.5693 125.935 77.6631C130.048 80.5507 134.149 83.4371 138.262 86.3247C148.916 93.8085 159.57 101.292 170.212 108.776V108.788C170.248 109.295 170.284 109.789 170.306 110.272Z" fill="#FFEBCC"/>
<path d="M169.787 100.338C157.99 92.0411 146.182 83.7452 134.384 75.448L135.87 75.0586C139.511 77.6161 143.165 80.1855 146.806 82.7549C154.443 88.1288 162.092 93.4908 169.74 98.8647C169.752 99.3598 169.775 99.855 169.787 100.338Z" fill="#FFEBCC"/>
<path d="M169.587 89.1774V90.6034C161.173 84.6869 152.746 78.7716 144.331 72.8551L145.817 72.4668C148.999 74.7061 152.181 76.9454 155.351 79.1729C160.1 82.5069 164.838 85.8422 169.587 89.1774Z" fill="#FFEBCC"/>
<path d="M144.626 131.592C144.154 131.745 143.695 131.899 143.247 132.052C132.404 124.427 121.551 116.802 110.708 109.177L110.991 107.951C113.819 109.942 116.659 111.923 119.487 113.914C127.868 119.807 136.247 125.7 144.626 131.592Z" fill="#FFEBCC"/>
<path d="M134.668 134.727C134.185 134.88 133.701 135.01 133.23 135.151C126.171 130.189 119.111 125.228 112.053 120.254L111.546 118.475C113.325 119.724 115.093 120.973 116.872 122.222C122.8 126.395 128.739 130.556 134.668 134.727Z" fill="#FFEBCC"/>
<path d="M124.863 137.389C124.333 137.519 123.837 137.648 123.366 137.767C120.715 135.893 118.062 134.031 115.411 132.168L114.916 130.389C118.228 132.723 121.552 135.056 124.863 137.389Z" fill="#FFEBCC"/>
<path d="M116.803 132.947C116.956 135.057 117.157 137.119 117.38 139.122C114.14 138.969 110.899 138.792 107.669 138.592C106.985 138.568 106.314 138.52 105.63 138.474C101.376 138.227 97.1337 137.931 92.902 137.613C92.23 137.566 91.5698 137.508 90.899 137.448C86.7386 137.13 82.6019 136.776 78.4771 136.364C77.8169 136.317 77.1567 136.259 76.5084 136.187C73.1613 135.869 69.8261 135.527 66.5146 135.139C65.7963 135.068 65.0886 134.986 64.381 134.904C63.7327 134.844 63.0844 134.762 62.4361 134.679C58.8183 134.267 55.2111 133.819 51.6289 133.335C51.287 133.3 50.9569 133.252 50.6149 133.206C49.9904 133.123 49.3659 133.041 48.7413 132.947C44.8872 132.428 41.0569 131.863 37.2384 131.262C36.6257 131.18 36.013 131.073 35.4123 130.968C31.6531 130.391 27.9166 129.754 24.205 129.094C23.6042 128.988 23.0034 128.882 22.4133 128.764C18.7717 128.116 15.1539 127.42 11.5479 126.69C10.959 126.572 10.3808 126.455 9.80373 126.324C8.49529 126.077 7.18803 125.793 5.89145 125.523C6.10399 123.59 6.29159 121.657 6.45663 119.713C6.49225 119.242 6.53974 118.758 6.57417 118.287C6.81045 115.282 6.99805 112.265 7.12747 109.248C7.15122 108.776 7.17497 108.317 7.18685 107.845C7.30439 104.864 7.37563 101.883 7.37563 98.8882C7.3875 98.4287 7.3875 97.9692 7.3875 97.5097C7.3875 94.5402 7.32813 91.5694 7.23433 88.588C7.22246 88.1404 7.19871 87.6928 7.17496 87.244C7.10372 85.0759 6.98619 82.8947 6.85677 80.7148C6.62048 76.7906 6.29158 72.8427 5.89026 68.8711C13.9986 70.1795 22.1426 71.3811 30.3328 72.4652C30.9336 72.5483 31.5344 72.6302 32.1245 72.7014C36.1555 73.2322 40.1854 73.738 44.2401 74.2094C44.8409 74.2806 45.4417 74.3506 46.0437 74.4219C48.2118 74.6689 50.3929 74.917 52.5729 75.1402C54.5177 75.3528 56.4614 75.5641 58.4063 75.7529C59.0189 75.823 59.6316 75.8942 60.2443 75.9536C62.9312 76.2243 65.6182 76.4843 68.317 76.7194C69.8261 76.8607 71.334 76.9901 72.8419 77.1195C73.4665 77.1789 74.091 77.2371 74.7156 77.2846C78.9935 77.6503 83.2834 77.9804 87.5851 78.2748C88.2215 78.3223 88.858 78.3686 89.5062 78.4161C93.6667 78.6987 97.839 78.9587 102.022 79.1819C102.658 79.2176 103.307 79.2532 103.955 79.2757C108.185 79.5001 112.429 79.6996 116.695 79.8647C116.92 79.8765 117.155 79.8765 117.379 79.8884C117.355 80.2066 117.332 80.5248 117.32 80.843C117.107 84.0607 116.93 87.219 116.777 90.3417C116.753 90.8369 116.73 91.3201 116.706 91.8034C116.682 92.1097 116.67 92.4041 116.658 92.7105C116.529 95.5387 116.411 98.3314 116.328 101.078C116.316 101.549 116.304 102.02 116.293 102.492C116.199 105.568 116.151 108.585 116.139 111.543C116.128 112.014 116.128 112.486 116.128 112.945C116.116 115.95 116.151 118.885 116.233 121.748C116.245 122.208 116.257 122.655 116.281 123.103C116.364 126.026 116.505 128.866 116.705 131.623C116.732 132.076 116.768 132.511 116.803 132.947Z" fill="#EA493D"/>
<path d="M89.5064 78.4179C83.9675 82.0951 78.3929 85.7366 72.7946 89.3426C64.3681 94.7758 55.8834 100.114 47.3393 105.37C38.7596 110.651 30.1205 115.836 21.4351 120.939C18.1473 122.872 14.8465 124.793 11.5469 126.69C10.958 126.573 10.3798 126.455 9.80273 126.325C14.5877 123.578 19.3608 120.809 24.1102 118.004C32.7492 112.901 41.3278 107.715 49.8612 102.435C58.3815 97.1671 66.8556 91.7932 75.2821 86.3481C79.395 83.6849 83.4961 80.998 87.5865 78.2754C88.2217 78.3241 88.8581 78.3704 89.5064 78.4179Z" fill="#FFEBCC"/>
<path d="M74.7158 77.2861C70.084 80.3506 65.4296 83.3902 60.7622 86.3966C52.3356 91.8298 43.8391 97.1681 35.2938 102.424C26.7141 107.705 18.0762 112.89 9.3896 117.993C8.41123 118.57 7.43287 119.136 6.45569 119.713C6.49131 119.242 6.5388 118.759 6.57323 118.287C8.41123 117.215 10.2385 116.142 12.0647 115.058C20.7026 109.955 29.2941 104.769 37.8157 99.4894C46.3479 94.2093 54.8219 88.8472 63.2366 83.4021C66.4424 81.3278 69.6482 79.2298 72.841 77.1211C73.4667 77.1805 74.0913 77.2398 74.7158 77.2861Z" fill="#FFEBCC"/>
<path d="M60.2427 75.9565C56.4124 78.4665 52.582 80.9647 48.7291 83.4522C40.2907 88.8854 31.806 94.2237 23.2619 99.4801C17.9117 102.78 12.5259 106.033 7.1283 109.25C7.15204 108.778 7.17579 108.319 7.18767 107.847C13.4105 104.134 19.6096 100.363 25.785 96.545C34.3172 91.2649 42.7912 85.9028 51.2059 80.4577C53.6102 78.9023 56.0146 77.335 58.4071 75.7559C59.0174 75.8259 59.6301 75.8971 60.2427 75.9565Z" fill="#FFEBCC"/>
<path d="M46.0437 74.4223C42.9329 76.4609 39.809 78.4877 36.6863 80.5038C28.2597 85.9252 19.775 91.2754 11.2297 96.5317C9.94501 97.3213 8.66031 98.1109 7.37561 98.8886C7.38748 98.4291 7.3875 97.9696 7.3875 97.5101C9.50927 96.2135 11.6298 94.9051 13.7397 93.5978C22.272 88.3177 30.746 82.9557 39.1726 77.5105C40.8693 76.4146 42.5553 75.3187 44.2401 74.2109C44.8409 74.281 45.4417 74.3522 46.0437 74.4223Z" fill="#FFEBCC"/>
<path d="M32.1241 72.7023C29.6378 74.329 27.1504 75.9556 24.6522 77.5573C18.8651 81.2702 13.0673 84.958 7.23393 88.5877C7.22206 88.1401 7.19831 87.6925 7.17456 87.2437C13.8688 83.0714 20.5155 78.8409 27.1266 74.551C28.1988 73.8552 29.2603 73.1725 30.3324 72.4648C30.9344 72.5491 31.5352 72.6323 32.1241 72.7023Z" fill="#FFEBCC"/>
<path d="M103.955 79.2798C96.5547 84.2654 89.0828 89.1679 81.5752 93.9992C73.1487 99.4206 64.6639 104.771 56.1187 110.015C47.5389 115.295 38.9011 120.492 30.2145 125.584C28.2114 126.763 26.2072 127.929 24.2042 129.096C23.6034 128.99 23.0026 128.883 22.4125 128.766C25.9128 126.751 29.4012 124.711 32.8896 122.649C41.5286 117.545 50.1072 112.36 58.6406 107.092C67.1609 101.812 75.635 96.4499 84.0615 90.9929C90.0718 87.1043 96.0584 83.1671 102.022 79.1836C102.659 79.2204 103.307 79.256 103.955 79.2798Z" fill="#FFEBCC"/>
<path d="M117.378 79.8929C117.354 80.2111 117.331 80.5293 117.319 80.8475C116.706 81.2714 116.093 81.6846 115.481 82.0966C107.172 87.6949 98.7927 93.2101 90.3543 98.6434C81.9278 104.077 73.443 109.415 64.8978 114.671C56.318 119.951 47.679 125.136 38.9936 130.24C38.4047 130.582 37.8264 130.924 37.2375 131.264C36.6248 131.182 36.0122 131.076 35.4114 130.97C37.5094 129.756 39.5837 128.53 41.6698 127.305C50.3089 122.201 58.8874 117.016 67.4208 111.736C75.9412 106.456 84.4271 101.094 92.8418 95.6489C100.844 90.4638 108.798 85.2074 116.695 79.8691C116.919 79.881 117.154 79.881 117.378 79.8929Z" fill="#FFEBCC"/>
<path d="M116.777 90.3457C116.753 90.8408 116.73 91.3241 116.706 91.8073C110.873 95.6733 105.027 99.5025 99.1464 103.287C90.708 108.72 82.2232 114.058 73.6791 119.314C66.0303 124.016 58.347 128.66 50.6151 133.21C49.9905 133.127 49.366 133.045 48.7415 132.951C49.3066 132.621 49.8849 132.291 50.45 131.949C59.0879 126.846 67.6676 121.661 76.201 116.38C84.7333 111.112 93.2073 105.75 101.622 100.293C106.7 97.0162 111.744 93.6928 116.777 90.3457Z" fill="#FFEBCC"/>
<path d="M116.331 101.08C116.319 101.551 116.307 102.023 116.295 102.494C113.514 104.32 110.721 106.136 107.928 107.939C99.4896 113.361 91.0049 118.711 82.4608 123.967C76.4623 127.656 70.4402 131.298 64.3824 134.904C63.7341 134.844 63.0858 134.763 62.4375 134.679C69.9914 130.213 77.5108 125.664 84.9827 121.032C93.5149 115.752 101.989 110.39 110.404 104.945C112.382 103.661 114.362 102.377 116.331 101.08Z" fill="#FFEBCC"/>
<path d="M116.141 111.547C116.129 112.018 116.129 112.49 116.129 112.949C107.88 118.265 99.5827 123.474 91.2392 128.611C86.9969 131.216 82.7414 133.808 78.4753 136.366C77.8152 136.318 77.155 136.26 76.5067 136.189C82.2819 132.724 88.0322 129.224 93.7599 125.676C101.269 121.046 108.728 116.332 116.141 111.547Z" fill="#FFEBCC"/>
<path d="M116.283 123.109C110.885 126.526 105.464 129.909 100.02 133.256C97.6508 134.717 95.2821 136.167 92.9015 137.617C92.2295 137.569 91.5693 137.511 90.8984 137.452C94.787 135.095 98.6767 132.726 102.543 130.334C107.127 127.493 111.688 124.642 116.237 121.754C116.247 122.213 116.259 122.661 116.283 123.109Z" fill="#FFEBCC"/>
<path d="M116.802 132.948C114.138 134.61 111.475 136.26 108.799 137.91C108.421 138.146 108.045 138.369 107.667 138.594C106.983 138.57 106.313 138.523 105.629 138.476C107.526 137.309 109.423 136.143 111.321 134.976C113.124 133.868 114.915 132.749 116.707 131.629C116.73 132.077 116.766 132.512 116.802 132.948Z" fill="#FFEBCC"/>
<path d="M171.139 65.8594C170.488 70.059 170.075 74.5958 169.847 79.1766L116.666 92.7099L114.517 92.4712C75.7788 91.7647 39.4997 88.2906 6.86446 80.7177C6.62581 76.7888 6.30049 72.8386 5.89917 68.8764C42.1926 74.7157 79.3313 78.438 117.383 79.8925L171.139 65.8594Z" fill="#511A14"/>
<path d="M175.861 45.9021L159.103 54.6706L147.47 60.7521L145.066 61.271L109.51 68.8723L68.6737 65.4552L52.7514 64.1111L12.6111 60.7521L0.920532 48.7434C0.920532 48.7434 14.7447 47.9419 30.2181 46.1265H30.2537C38.2671 45.1837 46.7174 43.9809 53.9186 42.473H53.9305C57.6195 41.6953 60.9667 40.8464 63.7711 39.9155C63.7711 39.9155 83.8764 39.3384 111.548 40.4344C117.465 40.6706 123.734 40.9889 130.228 41.4009H130.251C144.794 42.3199 160.456 43.734 175.861 45.9021Z" fill="#EA493D"/>
<path d="M175.859 45.9043L118.645 59.0529L117.385 59.3426L113.735 68.8805L116.94 87.308L174.125 73.9932C173.794 59.3628 175.859 45.9043 175.859 45.9043Z" fill="#AA170C"/>
<path d="M2.57644 77.0088C2.57644 77.0088 2.9077 62.9412 0.917725 48.7383C0.917725 48.7383 66.6168 62.5791 117.385 59.3412L116.941 87.3066C116.941 87.3066 35.4254 85.9685 2.57644 77.0088Z" fill="#EA493D"/>
<path d="M130.23 41.3989L111.903 46.4902L98.3498 50.2375L68.8872 58.4052L68.6746 65.4532L68.3208 76.7199L66.5172 135.139C65.7989 135.068 65.0913 134.986 64.3836 134.904C63.7353 134.845 63.087 134.763 62.4387 134.68C58.8209 134.268 55.2138 133.819 51.6316 133.336C51.7729 123.907 52.2561 94.6214 52.5743 75.1407C52.6444 70.8983 52.7038 67.1155 52.7512 64.1103C52.8225 59.5961 52.8688 56.8272 52.8688 56.8272L80.3403 49.1546L94.2583 45.2661L111.547 40.4336C117.467 40.6687 123.736 40.9869 130.23 41.3989Z" fill="#F8B229"/>
<path d="M159.104 49.7546L159.104 125.994C157.584 126.666 156.04 127.314 154.508 127.927C154.072 128.104 153.637 128.28 153.211 128.446C151.243 129.223 149.287 129.942 147.354 130.625L145.445 72.5598L145.068 61.2694L144.797 53.0435L98.3517 50.239L80.3552 49.155H80.3433L30.2566 46.1261C38.2699 45.1833 46.7202 43.9806 53.9214 42.4727H53.9333L94.2625 45.2653L111.905 46.4906H111.917L159.104 49.7546Z" fill="#F8B229"/>
<path d="M94.8413 46.3228C84.7062 34.0208 79.0604 18.101 79.1803 2.16214C77.4812 5.87733 75.3618 9.17695 73.6627 12.8921C70.0449 9.06296 67.3781 4.93577 65.5389 0C65.8287 17.6189 72.6143 34.6786 84.8166 47.3915C87.868 47.6064 92.0605 47.5992 94.8413 46.3228Z" fill="#F8B229"/>
<path d="M96.9766 45.7478C112.894 38.3673 125.656 24.4434 131.624 7.94531C131.531 11.1879 131.699 14.1432 131.605 17.3859C136.6 16.3374 141.293 15.3994 145.031 11.9229C136.91 28.2073 123.339 41.6028 106.855 49.3122C103.703 48.3184 100.129 46.7404 96.9766 45.7478Z" fill="#F8B229"/>
</svg>
