<svg width="342" height="274" viewBox="0 0 342 274" fill="none" xmlns="http://www.w3.org/2000/svg">
<path d="M166.061 273.457C208.691 273.457 243.249 238.627 243.249 195.662C243.249 152.697 208.691 117.867 166.061 117.867C123.431 117.867 88.873 152.697 88.873 195.662C88.873 238.627 123.431 273.457 166.061 273.457Z" fill="#FF4D4D"/>
<path d="M133.615 195.662L155.22 217.267L198.507 174.056" stroke="#161616" stroke-width="9" stroke-linecap="round" stroke-linejoin="round"/>
<path d="M279.228 164.725C276.312 154.308 262.876 155.32 262.876 155.32L263.244 162.566C271.009 161.217 275.835 170.388 275.835 170.388L279.228 164.725Z" fill="#FF4D4D"/>
<path d="M54.1526 181.92C51.1452 171.179 37.29 172.221 37.29 172.221L37.6698 179.694C45.6768 178.303 50.653 187.76 50.653 187.76L54.1526 181.92Z" fill="#424242"/>
<path d="M172.063 69.5608C186.268 73.8979 195.108 57.385 195.108 57.385L186.467 52.4229C182.243 62.5371 168.055 61.3665 168.055 61.3665L172.063 69.5608Z" fill="#424242"/>
<path d="M109.052 80.1377C98.4404 81.2737 97.1758 94.6952 97.1758 94.6952L104.274 95.543C104.263 87.652 113.984 84.4268 113.984 84.4268L109.052 80.1377Z" fill="#FF4D4D"/>
<path d="M341.912 135.815C342.956 128.605 334.427 125.511 334.427 125.511L332.68 130.066C337.821 131.384 338.287 138.358 338.287 138.358L341.912 135.815Z" fill="#424242"/>
<path d="M140.63 8.60721C141.455 2.90207 134.707 0.453613 134.707 0.453613L133.324 4.05796C137.393 5.10093 137.761 10.6189 137.761 10.6189L140.63 8.60721Z" fill="#424242"/>
<path d="M0.0630895 100.638C-0.959953 109.582 10.7977 111.748 10.7977 111.748L12.9204 105.895C5.86525 105.253 4.8481 96.8765 4.8481 96.8765L0.0630895 100.638Z" fill="#FF4D4D"/>
<path d="M262.642 68.2185C270.623 68.6794 273.177 58.9043 273.177 58.9043L268.031 57.4053C267.088 63.2396 259.515 64.4355 259.515 64.4355L262.642 68.2185Z" fill="#FF4D4D"/>
<path d="M281.532 111.029C281.532 111.233 279.849 111.399 277.773 111.399C275.695 111.399 274.012 111.233 274.012 111.029C274.012 110.826 275.695 110.66 277.773 110.66C279.849 110.66 281.532 110.826 281.532 111.029Z" fill="#424242"/>
<path d="M285.526 100.721C285.728 100.721 285.893 102.443 285.893 104.566C285.893 106.689 285.728 108.411 285.526 108.411C285.324 108.411 285.159 106.691 285.159 104.566C285.159 102.441 285.324 100.721 285.526 100.721Z" fill="#424242"/>
<path d="M289.778 110.783C289.778 110.579 291.461 110.413 293.537 110.413C295.615 110.413 297.298 110.579 297.298 110.783C297.298 110.986 295.615 111.152 293.537 111.152C291.464 111.152 289.778 110.986 289.778 110.783Z" fill="#424242"/>
<path d="M285.787 121.091C285.584 121.091 285.42 119.369 285.42 117.246C285.42 115.123 285.584 113.4 285.787 113.4C285.989 113.4 286.153 115.12 286.153 117.246C286.153 119.369 285.989 121.091 285.787 121.091Z" fill="#424242"/>
<path d="M291.863 116.668C291.708 116.798 290.982 116.182 290.246 115.292C289.508 114.401 289.035 113.572 289.191 113.441C289.346 113.311 290.07 113.927 290.81 114.818C291.546 115.709 292.019 116.538 291.863 116.668Z" fill="#424242"/>
<path d="M291.513 104.978C291.657 105.123 291.153 105.872 290.387 106.649C289.621 107.428 288.883 107.942 288.739 107.8C288.596 107.656 289.099 106.907 289.865 106.127C290.629 105.35 291.367 104.834 291.513 104.978Z" fill="#424242"/>
<path d="M282.893 107.956C282.764 108.113 282.066 107.745 281.337 107.132C280.606 106.52 280.122 105.895 280.251 105.739C280.38 105.582 281.078 105.95 281.807 106.563C282.536 107.177 283.022 107.8 282.893 107.956Z" fill="#424242"/>
<path d="M282.554 113.11C282.705 113.247 282.263 113.984 281.567 114.752C280.871 115.522 280.185 116.033 280.034 115.896C279.884 115.759 280.328 115.024 281.024 114.254C281.72 113.484 282.404 112.972 282.554 113.11Z" fill="#424242"/>
<path d="M45.6371 70.1306C45.6371 70.304 44.2043 70.4452 42.4372 70.4452C40.6682 70.4452 39.2354 70.304 39.2354 70.1306C39.2354 69.9571 40.6682 69.8159 42.4372 69.8159C44.2043 69.8159 45.6371 69.9571 45.6371 70.1306Z" fill="#424242"/>
<path d="M49.0373 61.355C49.2094 61.355 49.3495 62.8213 49.3495 64.6284C49.3495 66.4356 49.2094 67.9018 49.0373 67.9018C48.8652 67.9018 48.7251 66.4356 48.7251 64.6284C48.7251 62.8192 48.8652 61.355 49.0373 61.355Z" fill="#424242"/>
<path d="M52.6567 69.9206C52.6567 69.7471 54.0896 69.606 55.8566 69.606C57.6256 69.606 59.0585 69.7471 59.0585 69.9206C59.0585 70.094 57.6256 70.2352 55.8566 70.2352C54.0896 70.2352 52.6567 70.094 52.6567 69.9206Z" fill="#424242"/>
<path d="M49.257 78.6963C49.0849 78.6963 48.9448 77.23 48.9448 75.4228C48.9448 73.6157 49.0849 72.1494 49.257 72.1494C49.4291 72.1494 49.5692 73.6157 49.5692 75.4228C49.5692 77.23 49.4291 78.6963 49.257 78.6963Z" fill="#424242"/>
<path d="M54.4323 74.9327C54.3002 75.0437 53.6819 74.5193 53.0535 73.7609C52.4251 73.0025 52.0229 72.2966 52.155 72.1857C52.2871 72.0748 52.9034 72.5992 53.5338 73.3575C54.1622 74.1159 54.5644 74.8198 54.4323 74.9327Z" fill="#424242"/>
<path d="M54.1322 64.9791C54.2542 65.1022 53.826 65.7395 53.1736 66.4031C52.5212 67.0666 51.8928 67.5043 51.7708 67.3833C51.6487 67.2603 52.077 66.6229 52.7313 65.9594C53.3817 65.2958 54.0101 64.8561 54.1322 64.9791Z" fill="#424242"/>
<path d="M46.7959 67.5147C46.6858 67.6478 46.0915 67.3352 45.4711 66.8128C44.8488 66.2924 44.4365 65.76 44.5466 65.6268C44.6567 65.4937 45.251 65.8063 45.8714 66.3287C46.4917 66.8511 46.906 67.3815 46.7959 67.5147Z" fill="#424242"/>
<path d="M46.5076 71.9013C46.6357 72.0183 46.2575 72.6455 45.6671 73.299C45.0748 73.9545 44.4904 74.3902 44.3644 74.2732C44.2363 74.1562 44.6125 73.531 45.2069 72.8755C45.7952 72.22 46.3795 71.7843 46.5076 71.9013Z" fill="#424242"/>
</svg>
