<svg width="171" height="176" viewBox="0 0 171 176" fill="none" xmlns="http://www.w3.org/2000/svg">
<circle cx="85.9512" cy="90.0935" r="85" fill="#FFB7B9" fill-opacity="0.64"/>
<path d="M73.1758 90.7336H95.5335" stroke="#EE1D23" stroke-width="5.43876" stroke-miterlimit="10" stroke-linecap="round" stroke-linejoin="round"/>
<path d="M73.1758 103.51H87.1653" stroke="#EE1D23" stroke-width="5.43876" stroke-miterlimit="10" stroke-linecap="round" stroke-linejoin="round"/>
<path d="M79.5637 70.9311H92.3395C98.7275 70.9311 98.7275 67.7372 98.7275 64.5432C98.7275 58.1553 95.5335 58.1553 92.3395 58.1553H79.5637C76.3697 58.1553 73.1758 58.1553 73.1758 64.5432C73.1758 70.9311 76.3697 70.9311 79.5637 70.9311Z" stroke="#EE1D23" stroke-width="5.43876" stroke-miterlimit="10" stroke-linecap="round" stroke-linejoin="round"/>
<path d="M98.7275 64.6069C109.363 65.1818 114.697 69.1104 114.697 83.7068V102.871C114.697 115.646 111.503 122.034 95.5336 122.034H76.3698C60.4 122.034 57.2061 115.646 57.2061 102.871V83.7068C57.2061 69.1424 62.54 65.1818 73.1759 64.6069" stroke="#EE1D23" stroke-width="5.43876" stroke-miterlimit="10" stroke-linecap="round" stroke-linejoin="round"/>
<circle cx="140.809" cy="24.0536" r="18.9591" fill="white"/>
<path d="M140.833 4.57227C129.877 4.57227 120.95 13.4999 120.95 24.4556C120.95 35.4114 129.877 44.339 140.833 44.339C151.789 44.339 160.716 35.4114 160.716 24.4556C160.716 13.4999 151.789 4.57227 140.833 4.57227ZM150.337 19.8825L139.063 31.1563C138.785 31.4347 138.407 31.5938 138.01 31.5938C137.612 31.5938 137.234 31.4347 136.956 31.1563L131.329 25.5293C130.752 24.9527 130.752 23.9983 131.329 23.4217C131.905 22.8451 132.86 22.8451 133.436 23.4217L138.01 27.9949L148.23 17.7748C148.806 17.1982 149.761 17.1982 150.337 17.7748C150.914 18.3514 150.914 19.286 150.337 19.8825Z" fill="#13BC42"/>
</svg>
