<svg width="38" height="39" viewBox="0 0 38 39" fill="none" xmlns="http://www.w3.org/2000/svg">
<g clip-path="url(#clip0_4115_16123)">
<path d="M12.4164 35.0664C26.2935 35.0664 33.8837 23.1861 33.8837 12.8835C33.8837 12.5461 33.8837 12.2102 33.8617 11.8758C35.3383 10.7721 36.6129 9.40561 37.6259 7.84019C36.249 8.47099 34.7882 8.88449 33.2924 9.06683C34.8675 8.09259 36.0464 6.56007 36.6094 4.75459C35.1284 5.6628 33.5081 6.30281 31.8185 6.64699C30.6809 5.39707 29.1764 4.56941 27.5378 4.29207C25.8991 4.01474 24.2177 4.3032 22.7537 5.11282C21.2897 5.92244 20.1248 7.20808 19.4391 8.77079C18.7535 10.3335 18.5853 12.0862 18.9608 13.7576C15.9611 13.6021 13.0266 12.7965 10.3478 11.3932C7.66894 9.98988 5.3056 8.02015 3.41117 5.61187C2.44635 7.3282 2.15084 9.35998 2.58482 11.2935C3.0188 13.2271 4.14963 14.917 5.74707 16.0193C4.54631 15.983 3.37171 15.6482 2.32265 15.0435V15.1423C2.32313 16.9423 2.92613 18.6867 4.02939 20.0797C5.13265 21.4727 6.66823 22.4284 8.37569 22.7848C7.26492 23.0979 6.09948 23.1437 4.96892 22.9186C5.45124 24.4676 6.38992 25.8222 7.65374 26.7929C8.91757 27.7637 10.4434 28.302 12.0178 28.3328C10.4535 29.6034 8.66209 30.5428 6.74609 31.0973C4.83009 31.6518 2.82709 31.8105 0.851685 31.5644C4.30207 33.8523 8.31673 35.0659 12.4164 35.0604" fill="#1DA1F2"/>
</g>
<defs>
<clipPath id="clip0_4115_16123">
<rect width="36.7742" height="38" fill="white" transform="translate(0.851685 0.626953)"/>
</clipPath>
</defs>
</svg>
