<svg width="21" height="21" viewBox="0 0 21 21" fill="none" xmlns="http://www.w3.org/2000/svg">
<path d="M10.1994 2.53464C5.60776 2.53464 1.86609 6.2763 1.86609 10.868C1.86609 15.4596 5.60776 19.2013 10.1994 19.2013C14.7911 19.2013 18.5328 15.4596 18.5328 10.868C18.5328 6.2763 14.7911 2.53464 10.1994 2.53464ZM13.8244 13.843C13.7078 14.043 13.4994 14.1513 13.2828 14.1513C13.1744 14.1513 13.0661 14.1263 12.9661 14.0596L10.3828 12.518C9.74109 12.1346 9.26609 11.293 9.26609 10.5513V7.13464C9.26609 6.79297 9.54942 6.50964 9.89109 6.50964C10.2328 6.50964 10.5161 6.79297 10.5161 7.13464V10.5513C10.5161 10.8513 10.7661 11.293 11.0244 11.443L13.6078 12.9846C13.9078 13.1596 14.0078 13.543 13.8244 13.843Z" fill="#797979"/>
</svg>
