<svg width="1367" height="900" viewBox="0 0 1367 900" fill="none" xmlns="http://www.w3.org/2000/svg">
<g opacity="0.5">
<mask id="mask0_2831_28335" style="mask-type:alpha" maskUnits="userSpaceOnUse" x="55" y="0" width="1235" height="481">
<rect x="55.4714" y="0.482422" width="1234.43" height="480.147" fill="#D9D9D9"/>
</mask>
<g mask="url(#mask0_2831_28335)">
<path d="M106.956 210.01L96.4597 222.372L103.022 227.382L113.519 215.021L106.956 210.01Z" fill="#00ACEA"/>
<path d="M294.625 230.284L307.811 232.081L308.767 225.776L295.581 223.979L294.625 230.284Z" fill="#8AC13E"/>
<path d="M652.872 147.957L652.499 160.692L659.214 160.868L659.587 148.134L652.872 147.957Z" fill="#8AC13E"/>
<path d="M339.568 377.373L347.43 361.314L338.961 357.586L331.1 373.646L339.568 377.373Z" fill="#8E268D"/>
<path d="M235.687 196.73L248.453 199.489L249.896 193.489L237.13 190.73L235.687 196.73Z" fill="#00ACEA"/>
<path d="M922.896 255.503L918.709 263.776L923.02 265.738L927.207 257.465L922.896 255.503Z" fill="#00ACEA"/>
<path d="M715.323 93.8691L730.054 103.847L735.282 96.907L720.552 86.929L715.323 93.8691Z" fill="#00ACEA"/>
<path d="M165.037 198.755L155.079 191.552L151.281 196.273L161.238 203.476L165.037 198.755Z" fill="#E81B26"/>
<path d="M64.2434 74.6964L76.2369 71.6725L74.6571 66.0384L62.6636 69.0622L64.2434 74.6964Z" fill="#E8008B"/>
<path d="M139.446 86.1458L151.066 82.6779L149.255 77.2199L137.634 80.6878L139.446 86.1458Z" fill="#8AC13E"/>
<path d="M808.229 94.6396L813.142 109.698L821.082 107.369L816.169 92.3104L808.229 94.6396Z" fill="#FFEE00"/>
<path d="M1285.36 0.482422L1287.75 4.15309L1293.1 1.13019L1292.65 0.482422H1285.36Z" fill="#A182BA"/>
<path d="M769.114 47.9696L785.741 45.3792L784.375 37.4958L767.748 40.0862L769.114 47.9696Z" fill="#8E268D"/>
<path d="M184.354 143.882L178.705 155.679L184.926 158.357L190.574 146.56L184.354 143.882Z" fill="#8AC13E"/>
<path d="M824.11 53.0087L817.364 65.0139L823.694 68.2123L830.44 56.207L824.11 53.0087Z" fill="#8AC13E"/>
<path d="M684.41 118.208L675.95 108.173L670.614 112.218L679.074 122.253L684.41 118.208Z" fill="#E81B26"/>
<path d="M179.433 82.4892L181.044 64.3079L171.513 63.549L169.903 81.7304L179.433 82.4892Z" fill="#FFEE00"/>
<path d="M104.899 30.1872L107.4 39.4984L112.365 38.2993L109.864 28.988L104.899 30.1872Z" fill="#A182BA"/>
<path d="M121.759 16.9736L114.478 2.56396L106.88 6.01594L114.161 20.4256L121.759 16.9736Z" fill="#E8008B"/>
<path d="M130.609 207.541L123.085 215.929L127.508 219.496L135.032 211.108L130.609 207.541Z" fill="#FFEE00"/>
<path d="M798.648 335.499L809.26 349.936L816.826 344.935L806.213 330.498L798.648 335.499Z" fill="#A182BA"/>
<path d="M816.582 371.972L827.103 369.591L825.861 364.656L815.34 367.036L816.582 371.972Z" fill="#8E268D"/>
<path d="M786.104 0.482422L795.782 2.85756L796.465 0.482422H786.104Z" fill="#8AC13E"/>
<path d="M251.662 120.983L253.742 133.678L260.38 132.7L258.3 120.005L251.662 120.983Z" fill="#8E268D"/>
<path d="M1232.09 152.538L1226.41 137.494L1218.48 140.186L1224.16 155.23L1232.09 152.538Z" fill="#E8008B"/>
<path d="M92.5546 84.0564L88.9271 90.6641L92.4618 92.4088L96.0893 85.8012L92.5546 84.0564Z" fill="#8E268D"/>
<path d="M1286.63 70.6184L1294.29 62.9172L1290.22 59.2899L1282.57 66.9911L1286.63 70.6184Z" fill="#E8008B"/>
<path d="M625.368 488.938L642.707 484.815L640.546 476.647L623.208 480.77L625.368 488.938Z" fill="#FFEE00"/>
<path d="M138.846 51.1278L136.926 36.0146L129.013 36.9186L130.934 52.0318L138.846 51.1278Z" fill="#00ACEA"/>
<path d="M301.48 172.588L309.647 164.608L305.399 160.699L297.232 168.679L301.48 172.588Z" fill="#8E268D"/>
<path d="M228.113 72.5593L224.467 87.9378L232.576 89.6664L236.222 74.288L228.113 72.5593Z" fill="#E81B26"/>
<path d="M95.4936 377.364L89.7382 384.471L93.5309 387.233L99.2863 380.126L95.4936 377.364Z" fill="#E8008B"/>
<path d="M136.496 156.225L153.87 155.021L153.239 146.838L135.865 148.042L136.496 156.225Z" fill="#A182BA"/>
<path d="M637.737 100.838L628.02 93.0071L623.891 97.614L633.608 105.444L637.737 100.838Z" fill="#E8008B"/>
<path d="M686.543 74.0579L684.664 91.7822L693.953 92.6676L695.832 74.9433L686.543 74.0579Z" fill="#00ACEA"/>
<path d="M980.71 123.155L989.866 124.198L990.423 119.804L981.266 118.761L980.71 123.155Z" fill="#E8008B"/>
<path d="M524.53 203.363L538.497 201.41L537.467 194.788L523.5 196.741L524.53 203.363Z" fill="#8AC13E"/>
<path d="M271.293 136.138L275.314 149.645L282.436 147.739L278.416 134.232L271.293 136.138Z" fill="#8AC13E"/>
<path d="M1091.32 283.242L1107.91 282.178L1107.34 274.315L1090.76 275.379L1091.32 283.242Z" fill="#8AC13E"/>
<path d="M1032.46 74.1642L1041.25 85.1846L1047.06 81.0157L1038.27 69.9954L1032.46 74.1642Z" fill="#00ACEA"/>
<path d="M761.398 141.449L764.929 154.968L772.002 153.307L768.471 139.788L761.398 141.449Z" fill="#FFEE00"/>
<path d="M65.2946 89.5947L76.4562 83.313L73.1439 78.0211L61.9822 84.3028L65.2946 89.5947Z" fill="#FFEE00"/>
<path d="M1072.3 307.623L1060.31 306.356L1059.64 312.042L1071.63 313.31L1072.3 307.623Z" fill="#8AC13E"/>
<path d="M450.898 134.195L448.865 152.447L458.489 153.411L460.522 135.159L450.898 134.195Z" fill="#E81B26"/>
<path d="M1000.71 47.0193L990.898 55.8774L995.608 60.5692L1005.42 51.711L1000.71 47.0193Z" fill="#00ACEA"/>
<path d="M240.524 160.711L229.869 155.337L227.035 160.388L237.69 165.763L240.524 160.711Z" fill="#FFEE00"/>
<path d="M1215.1 90.7666L1215.57 105.442L1223.31 105.216L1222.83 90.5399L1215.1 90.7666Z" fill="#8E268D"/>
<path d="M1138.12 165.538L1137.24 176.409L1143.03 176.834L1143.91 165.962L1138.12 165.538Z" fill="#E81B26"/>
<path d="M748.492 101.746L735.114 99.1167L733.727 105.46L747.105 108.089L748.492 101.746Z" fill="#FFEE00"/>
<path d="M1077.96 104.201L1093.37 113.206L1098.09 105.944L1082.67 96.9396L1077.96 104.201Z" fill="#A182BA"/>
<path d="M893.296 241.582L899.829 227.206L892.196 224.087L885.663 238.464L893.296 241.582Z" fill="#00ACEA"/>
<path d="M878.257 82.7114L870.327 75.4224L866.444 79.2207L874.374 86.5097L878.257 82.7114Z" fill="#8AC13E"/>
<path d="M776.426 0.482422L779.614 12.79L788.495 10.7387L785.876 0.482422H776.426Z" fill="#8AC13E"/>
<path d="M714.241 94.5811L720.21 107.306L726.972 104.454L721.003 91.729L714.241 94.5811Z" fill="#8AC13E"/>
<path d="M264.413 81.8206L243.781 77.2966L241.395 87.0789L262.028 91.6029L264.413 81.8206Z" fill="#A182BA"/>
<path d="M803.57 146.24L798.742 161.998L807.051 164.287L811.879 148.529L803.57 146.24Z" fill="#8E268D"/>
<path d="M515.742 324.77L516.152 306.529L506.476 306.334L506.067 324.575L515.742 324.77Z" fill="#A182BA"/>
<path d="M161.942 19.9595L154.048 28.758L158.731 32.5357L166.625 23.7372L161.942 19.9595Z" fill="#E8008B"/>
<path d="M67.8015 49.5297L69.116 37.8282L62.8891 37.1993L61.5747 48.9008L67.8015 49.5297Z" fill="#E8008B"/>
<path d="M498.32 188.097L506.762 183.835L504.515 179.833L496.073 184.095L498.32 188.097Z" fill="#E81B26"/>
<path d="M853.911 76.0783L843.303 81.7579L846.269 86.7405L856.878 81.0609L853.911 76.0783Z" fill="#FFEE00"/>
<path d="M989.185 51.0279L1001.97 44.3938L998.471 38.3326L985.686 44.9667L989.185 51.0279Z" fill="#8E268D"/>
<path d="M261.544 394.137L254.951 409.193L262.942 412.339L269.535 397.284L261.544 394.137Z" fill="#E81B26"/>
<path d="M508.14 75.4721L524.304 75.8039L524.479 68.1405L508.315 67.8087L508.14 75.4721Z" fill="#A182BA"/>
<path d="M149.385 365.373L148.531 353.092L142.056 353.496L142.909 365.777L149.385 365.373Z" fill="#8AC13E"/>
<path d="M1245.67 92.2313L1253.11 78.9862L1246.18 75.4844L1238.74 88.7295L1245.67 92.2313Z" fill="#E8008B"/>
<path d="M227.96 67.6773L228.453 81.7044L235.85 81.4705L235.356 67.4434L227.96 67.6773Z" fill="#A182BA"/>
<path d="M510.652 38.3189L517.308 53.4667L525.295 50.3109L518.639 35.1631L510.652 38.3189Z" fill="#E81B26"/>
<path d="M759.914 279.077L744.41 271.547L740.465 278.85L755.97 286.38L759.914 279.077Z" fill="#E8008B"/>
<path d="M1088.66 61.2874L1101.92 56.3831L1099.35 50.1472L1086.1 55.0515L1088.66 61.2874Z" fill="#FFEE00"/>
<path d="M1114.26 107.376L1111.64 98.542L1106.93 99.799L1109.55 108.633L1114.26 107.376Z" fill="#E81B26"/>
<path d="M296.23 392.782L285.378 403.104L290.862 408.287L301.713 397.965L296.23 392.782Z" fill="#A182BA"/>
<path d="M747.91 329.506L761.117 329.368L761.044 323.107L747.837 323.245L747.91 329.506Z" fill="#E81B26"/>
<path d="M725.266 141.591L730.969 131.751L725.78 129.047L720.077 138.888L725.266 141.591Z" fill="#E8008B"/>
<path d="M548.021 240.92L560.527 240.278L560.188 234.349L547.682 234.991L548.021 240.92Z" fill="#A182BA"/>
<path d="M1201.49 17.2183L1186.51 11.7481L1183.64 18.8006L1198.62 24.2707L1201.49 17.2183Z" fill="#8E268D"/>
<path d="M509.513 389.939L494.046 385.117L491.486 392.502L506.953 397.324L509.513 389.939Z" fill="#E8008B"/>
<path d="M995.904 64.4244L992.964 72.713L997.388 74.1241L1000.33 65.8355L995.904 64.4244Z" fill="#00ACEA"/>
<path d="M1207.38 61.6911L1191.66 58.6328L1190.03 66.1417L1205.76 69.2L1207.38 61.6911Z" fill="#A182BA"/>
<path d="M1296.42 302.744L1284.16 291.168L1278.05 296.984L1290.32 308.56L1296.42 302.744Z" fill="#FFEE00"/>
<path d="M877.634 85.2546L892.458 90.51L895.249 83.4313L880.425 78.1759L877.634 85.2546Z" fill="#00ACEA"/>
<path d="M284.736 360.581L282.439 348.139L275.822 349.238L278.119 361.68L284.736 360.581Z" fill="#A182BA"/>
<path d="M544.505 126.412L561.33 124.354L560.237 116.323L543.412 118.381L544.505 126.412Z" fill="#A182BA"/>
<path d="M74.9559 254.607L84.7706 250.839L82.8053 246.236L72.9905 250.004L74.9559 254.607Z" fill="#FFEE00"/>
<path d="M848.114 341.04L843.871 354.035L850.724 356.046L854.966 343.052L848.114 341.04Z" fill="#00ACEA"/>
<path d="M217.05 54.951L228.468 46.7152L224.125 41.3019L212.708 49.5376L217.05 54.951Z" fill="#FFEE00"/>
<path d="M447.78 120.252L444.429 110.955L439.581 112.526L442.932 121.823L447.78 120.252Z" fill="#A182BA"/>
<path d="M608.129 194.693L609.477 176.6L599.937 175.961L598.589 194.054L608.129 194.693Z" fill="#00ACEA"/>
<path d="M487.393 93.7656L497.447 101.203L501.369 96.4365L491.315 88.9988L487.393 93.7656Z" fill="#E8008B"/>
<path d="M294.913 92.097L284.262 86.2689L281.189 91.3182L291.839 97.1463L294.913 92.097Z" fill="#8E268D"/>
<path d="M359.763 24.9194L355.702 11.3109L348.581 13.2216L352.642 26.8301L359.763 24.9194Z" fill="#E8008B"/>
<path d="M600.17 69.953L591.246 77.4969L595.262 81.7678L604.185 74.2239L600.17 69.953Z" fill="#FFEE00"/>
<path d="M1071.61 163.129L1076.7 173.86L1082.31 171.467L1077.21 160.736L1071.61 163.129Z" fill="#FFEE00"/>
<path d="M924.322 138.103L938.781 138.033L938.745 131.232L924.286 131.301L924.322 138.103Z" fill="#A182BA"/>
<path d="M910.063 356.753L911.938 345.121L905.748 344.223L903.873 355.856L910.063 356.753Z" fill="#E8008B"/>
<path d="M320.966 172.766L315.108 186.123L322.152 188.901L328.01 175.543L320.966 172.766Z" fill="#FFEE00"/>
<path d="M126.248 100.595L113.178 114.423L120.469 120.62L133.54 106.792L126.248 100.595Z" fill="#FFEE00"/>
<path d="M954.482 254.728L957.335 241.066L950.187 239.724L947.334 253.386L954.482 254.728Z" fill="#E81B26"/>
<path d="M70.6429 101.748L88.436 113.975L94.8498 105.583L77.0566 93.3558L70.6429 101.748Z" fill="#A182BA"/>
<path d="M1136.02 119.746L1149.65 118.768L1149.13 112.309L1135.51 113.287L1136.02 119.746Z" fill="#A182BA"/>
<path d="M889.948 432.762L871.93 426.675L868.72 435.217L886.739 441.305L889.948 432.762Z" fill="#FFEE00"/>
<path d="M307.072 131.655L304.131 142.085L309.63 143.479L312.571 133.049L307.072 131.655Z" fill="#A182BA"/>
<path d="M827.277 81.8751L833.208 70.5649L827.193 67.7288L821.262 79.0389L827.277 81.8751Z" fill="#8AC13E"/>
<path d="M1005.11 20.5289L1014.91 24.8505L1017.22 20.1508L1007.41 15.8293L1005.11 20.5289Z" fill="#8AC13E"/>
<path d="M372.866 45.807L359.734 58.8461L366.569 65.0346L379.7 51.9956L372.866 45.807Z" fill="#8AC13E"/>
<path d="M296.766 95.0185L295.602 106.734L301.837 107.291L303 95.5752L296.766 95.0185Z" fill="#A182BA"/>
<path d="M717.704 181.281L723.976 188.411L727.735 185.437L721.464 178.307L717.704 181.281Z" fill="#8AC13E"/>
<path d="M474.926 83.2374L464.86 86.685L466.678 91.4574L476.744 88.0098L474.926 83.2374Z" fill="#E81B26"/>
<path d="M1261.89 246.894L1250.85 246.625L1250.7 251.913L1261.74 252.182L1261.89 246.894Z" fill="#8AC13E"/>
<path d="M646.24 25.0671L660.894 28.2341L662.563 21.2868L647.91 18.1199L646.24 25.0671Z" fill="#8E268D"/>
<path d="M108.123 193.105L100.438 181.236L94.2285 184.852L101.913 196.72L108.123 193.105Z" fill="#8AC13E"/>
<path d="M88.7402 155.187L78.3123 140.5L70.5677 145.444L80.9956 160.131L88.7402 155.187Z" fill="#E8008B"/>
<path d="M1200.12 270.322L1190.37 266.688L1188.45 271.31L1198.2 274.944L1200.12 270.322Z" fill="#FFEE00"/>
<path d="M154.773 247.287L142.428 244.721L141.064 250.627L153.409 253.192L154.773 247.287Z" fill="#FFEE00"/>
<path d="M418.572 266.992L406.739 263.445L404.886 269.004L416.719 272.55L418.572 266.992Z" fill="#E8008B"/>
<path d="M812.005 129.192L796.185 124.717L793.809 132.269L809.63 136.744L812.005 129.192Z" fill="#00ACEA"/>
<path d="M388.126 238.709L409.337 235.983L407.899 225.927L386.688 228.653L388.126 238.709Z" fill="#E81B26"/>
<path d="M844.509 229.923L832.848 218.389L826.766 223.917L838.427 235.452L844.509 229.923Z" fill="#A182BA"/>
<path d="M1140.44 395.663L1149.67 406.083L1155.16 401.711L1145.94 391.291L1140.44 395.663Z" fill="#E81B26"/>
<path d="M905.394 43.5285L905.726 51.2953L909.821 51.138L909.49 43.3712L905.394 43.5285Z" fill="#E81B26"/>
<path d="M1240.17 24.9751L1251.79 17.763L1247.99 12.2524L1236.37 19.4645L1240.17 24.9751Z" fill="#8E268D"/>
<path d="M627.656 19.1165L619.108 14.814L616.812 18.9145L625.36 23.217L627.656 19.1165Z" fill="#E8008B"/>
<path d="M741.074 477.263L745.028 464.524L738.365 462.665L734.412 475.404L741.074 477.263Z" fill="#E81B26"/>
<path d="M190.729 43.7606L178.979 46.3757L180.358 51.9463L192.108 49.3311L190.729 43.7606Z" fill="#E81B26"/>
<path d="M166.372 125.093L158.688 132.311L162.454 135.916L170.138 128.698L166.372 125.093Z" fill="#A182BA"/>
<path d="M139.192 58.1025L137.59 43.9329L130.118 44.6925L131.721 58.8621L139.192 58.1025Z" fill="#FFEE00"/>
<path d="M209.377 25.239L219.441 28.36L221.069 23.6398L211.005 20.5188L209.377 25.239Z" fill="#E81B26"/>
<path d="M442.324 356.327L426.379 369.869L433.52 377.428L449.464 363.887L442.324 356.327Z" fill="#8AC13E"/>
<path d="M812.685 239.129L814.133 249.184L819.435 248.497L817.986 238.442L812.685 239.129Z" fill="#A182BA"/>
<path d="M1075.22 239.654L1058.31 236.155L1056.47 244.172L1073.37 247.67L1075.22 239.654Z" fill="#E8008B"/>
<path d="M1110.38 464.583L1103.1 450.293L1095.51 453.769L1102.79 468.059L1110.38 464.583Z" fill="#E81B26"/>
<path d="M1028.26 116.544L1029.24 104.812L1022.99 104.346L1022.02 116.077L1028.26 116.544Z" fill="#8AC13E"/>
<path d="M1271.3 33.011L1254.57 34.9305L1255.58 42.8618L1272.31 40.9422L1271.3 33.011Z" fill="#FFEE00"/>
<path d="M1119.63 376.129L1134.31 390.606L1141.94 383.648L1127.27 369.171L1119.63 376.129Z" fill="#00ACEA"/>
<path d="M366.141 67.0011L352.834 67.5917L353.143 73.8466L366.449 73.256L366.141 67.0011Z" fill="#8AC13E"/>
<path d="M438.276 0.482422L444.766 5.55658L447.612 2.10184L445.449 0.482422H438.276Z" fill="#E81B26"/>
<path d="M763.902 0.482422L752.972 1.66999L753.997 9.98298L771.531 8.14764L770.62 0.482422H763.902Z" fill="#E81B26"/>
<path d="M202.18 111.739L223.914 115.476L225.885 105.172L204.151 101.435L202.18 111.739Z" fill="#8E268D"/>
<path d="M394.138 140.052L382.539 139.503L382.249 145.002L393.848 145.552L394.138 140.052Z" fill="#8E268D"/>
<path d="M1172.42 142.609L1184.63 148.657L1187.85 142.82L1175.64 136.772L1172.42 142.609Z" fill="#8E268D"/>
<path d="M270.516 52.4485L253.016 51.4074L252.467 59.7041L269.967 60.7451L270.516 52.4485Z" fill="#E81B26"/>
<path d="M828.875 62.155L821.752 51.3537L816.056 54.731L823.18 65.5323L828.875 62.155Z" fill="#8AC13E"/>
<path d="M542.017 75.3863L538.075 62.7568L531.415 64.6261L535.358 77.2556L542.017 75.3863Z" fill="#A182BA"/>
<path d="M1019.91 8.21929L1018.48 24.7896L1027.22 25.4693L1028.65 8.899L1019.91 8.21929Z" fill="#E81B26"/>
<path d="M1175.33 30.9458L1183.58 41.1369L1188.91 37.2584L1180.66 27.0673L1175.33 30.9458Z" fill="#FFEE00"/>
<path d="M321.573 24.3346L324.729 5.02417L314.491 3.51948L311.334 22.8299L321.573 24.3346Z" fill="#00ACEA"/>
<path d="M542.019 271.597L545.258 257.57L537.806 256.023L534.567 270.05L542.019 271.597Z" fill="#FFEE00"/>
<path d="M1109.13 32.9456L1112.4 22.7169L1107.06 21.1826L1103.79 31.4113L1109.13 32.9456Z" fill="#00ACEA"/>
<path d="M1054.58 138.62L1063.63 152.858L1071.14 148.565L1062.09 134.328L1054.58 138.62Z" fill="#00ACEA"/>
<path d="M549.531 83.5429L541.921 70.8802L535.293 74.4619L542.904 87.1245L549.531 83.5429Z" fill="#A182BA"/>
<path d="M449.192 29.7148L462.854 32.0947L464.109 25.6175L450.447 23.2376L449.192 29.7148Z" fill="#E81B26"/>
<path d="M441.571 32.3215L458.962 39.0579L462.493 30.8626L445.102 24.1261L441.571 32.3215Z" fill="#00ACEA"/>
<path d="M224.683 0.482422L227.871 5.44862L232.198 3.07348L230.604 0.482422H224.683Z" fill="#8E268D"/>
<path d="M85.2158 432.01L86.9894 441.47L92.0338 440.619L90.2603 431.159L85.2158 432.01Z" fill="#E81B26"/>
<path d="M403.306 478.058L414.146 464.716L407.11 459.577L396.271 472.919L403.306 478.058Z" fill="#E8008B"/>
<path d="M464.365 129.056L479.497 132.641L481.374 125.519L466.242 121.933L464.365 129.056Z" fill="#E81B26"/>
<path d="M945.636 286.952L942.622 304.753L952.065 306.191L955.079 288.389L945.636 286.952Z" fill="#8AC13E"/>
<path d="M394.829 52.4237L387.398 42.4647L382.193 45.9566L389.624 55.9156L394.829 52.4237Z" fill="#E8008B"/>
<path d="M745.634 78.9085L745.32 87.8644L749.986 88.0111L750.299 79.0553L745.634 78.9085Z" fill="#E8008B"/>
<path d="M980.368 83.6501L988.964 84.5889L989.459 80.5134L980.863 79.5746L980.368 83.6501Z" fill="#FFEE00"/>
<path d="M1119.41 149.2L1114.77 138.753L1109.21 140.974L1113.85 151.421L1119.41 149.2Z" fill="#8AC13E"/>
<path d="M873.831 177.525L886.266 190.732L893.231 184.836L880.795 171.629L873.831 177.525Z" fill="#00ACEA"/>
<path d="M1251.22 152.276L1254.2 138.638L1246.95 137.216L1243.98 150.854L1251.22 152.276Z" fill="#8AC13E"/>
<path d="M639.458 318.198L639.764 308.27L634.529 308.125L634.223 318.054L639.458 318.198Z" fill="#E8008B"/>
<path d="M411.744 122.34L417.326 111.469L411.593 108.822L406.011 119.694L411.744 122.34Z" fill="#FFEE00"/>
<path d="M1186.99 379.585L1170.52 387.21L1174.51 394.972L1190.99 387.347L1186.99 379.585Z" fill="#8E268D"/>
<path d="M591.401 254.56L601.966 257.963L603.761 252.954L593.195 249.551L591.401 254.56Z" fill="#00ACEA"/>
<path d="M1148.16 0.482422L1146.57 2.64164L1152.6 6.74415L1157.27 0.482422H1148.16Z" fill="#00ACEA"/>
<path d="M558.139 21.2806L570.837 34.5548L577.836 28.5345L565.138 15.2603L558.139 21.2806Z" fill="#8AC13E"/>
<path d="M459.988 63.6197L456.287 79.2076L464.506 80.9626L468.208 65.3747L459.988 63.6197Z" fill="#FFEE00"/>
<path d="M679.389 23.3549L688.095 28.4794L690.797 24.3517L682.091 19.2272L679.389 23.3549Z" fill="#8E268D"/>
<path d="M145.92 87.0663L143.008 71.7671L134.941 73.1476L137.853 88.4468L145.92 87.0663Z" fill="#8E268D"/>
<path d="M1073.13 109.408L1079.32 95.012L1071.73 92.0775L1065.54 106.474L1073.13 109.408Z" fill="#00ACEA"/>
<path d="M1182.65 41.892L1175.85 24.0198L1166.42 27.2458L1173.23 45.118L1182.65 41.892Z" fill="#FFEE00"/>
<path d="M914.421 229.954L919.896 239.788L925.132 237.167L919.657 227.333L914.421 229.954Z" fill="#E81B26"/>
<path d="M651.739 90.2287L647.784 100.467L653.129 102.324L657.085 92.0855L651.739 90.2287Z" fill="#A182BA"/>
<path d="M630.656 48.2939L620.201 47.6858L619.88 52.6427L630.335 53.2508L630.656 48.2939Z" fill="#E81B26"/>
<path d="M749.557 442.56L767.237 451.273L771.857 442.842L754.177 434.13L749.557 442.56Z" fill="#A182BA"/>
<path d="M772.897 83.3964L783.486 84.2601L783.03 89.3342L772.442 88.3626L772.897 83.3964Z" fill="#FFEE00"/>
<path d="M113.114 113.595L131.444 117.499L133.49 108.861L115.16 104.957L113.114 113.595Z" fill="#E8008B"/>
<path d="M1056.77 136.649L1073.14 128.586L1068.89 120.826L1052.52 128.888L1056.77 136.649Z" fill="#E8008B"/>
<path d="M642.532 0.482422L634.562 5.88047L638.434 10.9546L649.136 3.72125L646.745 0.482422H642.532Z" fill="#8AC13E"/>
<path d="M73.4114 13.1327L84.9666 8.27954L82.4305 2.85042L70.8754 7.70359L73.4114 13.1327Z" fill="#FFEE00"/>
<path d="M185.769 228.668L183.405 213.83L175.525 214.959L177.889 229.797L185.769 228.668Z" fill="#FFEE00"/>
<path d="M123.053 259.183L115.829 264.96L118.913 268.426L126.136 262.649L123.053 259.183Z" fill="#8E268D"/>
<path d="M262.939 0.482422L262.483 4.80086L275.463 5.88047L276.032 0.482422H262.939Z" fill="#8AC13E"/>
<path d="M921.02 84.3225L918.547 104.809L929.293 105.976L931.766 85.4889L921.02 84.3225Z" fill="#E81B26"/>
<path d="M351.831 185.085L360.557 192.674L364.559 188.537L355.833 180.948L351.831 185.085Z" fill="#8AC13E"/>
<path d="M1023.83 0.482422L1021.67 6.31231L1039.32 12.0342L1042.28 3.72125L1032.37 0.482422H1023.83Z" fill="#00ACEA"/>
<path d="M195.092 349.432L204.588 364.927L212.759 360.425L203.263 344.93L195.092 349.432Z" fill="#E81B26"/>
<path d="M1234.01 0.482422L1231.28 2.85756L1235.95 7.7158L1244.14 0.482422H1234.01Z" fill="#A182BA"/>
<path d="M662.278 88.0179L673.017 89.9493L674.035 84.8579L663.296 82.9265L662.278 88.0179Z" fill="#8E268D"/>
<path d="M867.365 159.433L874.766 152.713L871.222 149.204L863.821 155.924L867.365 159.433Z" fill="#8E268D"/>
<path d="M981.668 10.0261L981.136 18.8644L985.796 19.1169L986.329 10.2786L981.668 10.0261Z" fill="#E81B26"/>
<path d="M898.536 134.916L915.233 132.761L914.096 124.845L897.4 127L898.536 134.916Z" fill="#E8008B"/>
<path d="M1231.45 133.797L1208.09 139.555L1211.13 150.631L1234.49 144.873L1231.45 133.797Z" fill="#00ACEA"/>
<path d="M193.942 0.482422L195.65 5.2327L202.254 3.18144L201.343 0.482422H193.942Z" fill="#E8008B"/>
<path d="M949.165 8.44707L929.862 13.1296L932.346 22.3338L951.649 17.6512L949.165 8.44707Z" fill="#E81B26"/>
<path d="M59.925 132.992L50.882 123.426L45.8797 127.677L54.9228 137.244L59.925 132.992Z" fill="#FFEE00"/>
<path d="M217.532 81.1288L221.32 71.8686L216.437 70.0727L212.649 79.3329L217.532 81.1288Z" fill="#E81B26"/>
<path d="M662.108 318.664L673.89 326.234L677.849 320.693L666.067 313.123L662.108 318.664Z" fill="#00ACEA"/>
<path d="M255.871 142.012L260.329 156.86L268.104 154.762L263.646 139.913L255.871 142.012Z" fill="#A182BA"/>
<path d="M522.436 269.629L522.253 283.015L529.312 283.101L529.494 269.715L522.436 269.629Z" fill="#E8008B"/>
<path d="M635.509 234.253L651.422 235.123L651.881 227.579L635.967 226.709L635.509 234.253Z" fill="#8E268D"/>
<path d="M948.158 195.649L939.55 187.939L935.484 192.02L944.092 199.73L948.158 195.649Z" fill="#FFEE00"/>
<path d="M394.1 0.482422L392.051 2.53368L400.818 10.6307L405.144 6.52823L398.654 0.482422H394.1Z" fill="#A182BA"/>
<path d="M567.79 128.645L582.068 129.963L582.763 123.194L568.485 121.876L567.79 128.645Z" fill="#E8008B"/>
<path d="M1217.76 67.6312L1214.97 59.979L1210.88 61.3201L1213.67 68.9723L1217.76 67.6312Z" fill="#00ACEA"/>
<path d="M1240.93 30.3162L1229.93 39.2117L1234.66 44.4697L1245.66 35.5741L1240.93 30.3162Z" fill="#E81B26"/>
<path d="M279.845 16.7282L289.442 33.0383L298.092 28.4618L288.495 12.1516L279.845 16.7282Z" fill="#8AC13E"/>
<path d="M789.27 397.709L799.838 397.075L799.5 392.011L788.933 392.644L789.27 397.709Z" fill="#E81B26"/>
<path d="M706.433 22.6829L690.275 25.8922L691.979 33.6059L708.137 30.3966L706.433 22.6829Z" fill="#E8008B"/>
<path d="M1162.69 63.0751L1149.05 58.5231L1146.66 64.9388L1160.3 69.4908L1162.69 63.0751Z" fill="#FFEE00"/>
<path d="M287.683 431.689L307.107 437.887L310.375 428.678L290.952 422.48L287.683 431.689Z" fill="#00ACEA"/>
<path d="M732.979 60.4455L720.71 66.1471L723.717 71.9637L735.985 66.2621L732.979 60.4455Z" fill="#FFEE00"/>
<path d="M699.793 37.5326L688.445 50.0649L695.01 55.4099L706.358 42.8777L699.793 37.5326Z" fill="#8E268D"/>
<path d="M1058.82 87.7612L1051.48 93.7465L1054.67 97.2654L1062.01 91.2801L1058.82 87.7612Z" fill="#E8008B"/>
<path d="M843.106 51.8423L849.868 64.5692L856.579 61.3631L849.817 48.6363L843.106 51.8423Z" fill="#E8008B"/>
<path d="M370.938 476.033L356.037 472.926L354.399 479.991L369.3 483.097L370.938 476.033Z" fill="#E81B26"/>
<path d="M977.692 40.7093L972.073 25.5309L964.124 28.1767L969.742 43.3551L977.692 40.7093Z" fill="#00ACEA"/>
<path d="M533.184 25.5354L532.863 36.4352L538.667 36.589L538.988 25.6892L533.184 25.5354Z" fill="#E8008B"/>
<path d="M433.586 160.494L447.956 170.393L453.176 163.58L438.806 153.681L433.586 160.494Z" fill="#8AC13E"/>
<path d="M628.078 63.417L611.295 54.4936L606.562 62.4979L623.345 71.4213L628.078 63.417Z" fill="#A182BA"/>
<path d="M1244.92 84.6199L1231.51 75.3083L1226.6 81.6673L1240.01 90.9788L1244.92 84.6199Z" fill="#00ACEA"/>
<path d="M1272.14 373.512L1270.95 362.557L1265.17 363.12L1266.36 374.075L1272.14 373.512Z" fill="#FFEE00"/>
<path d="M1125.59 192.379L1111.07 200.28L1115.27 207.209L1129.78 199.307L1125.59 192.379Z" fill="#E8008B"/>
<path d="M1144.3 94.2572L1131.38 103.835L1136.43 109.958L1149.35 100.38L1144.3 94.2572Z" fill="#8AC13E"/>
<path d="M1280.91 90.6623L1263.52 85.4968L1260.8 93.7384L1278.18 98.904L1280.91 90.6623Z" fill="#00ACEA"/>
<path d="M425.791 4.96765L417.05 9.82843L419.642 14.0192L428.383 9.15837L425.791 4.96765Z" fill="#00ACEA"/>
<path d="M86.3829 469.356L73.3225 477.04L77.3446 483.187L90.405 475.502L86.3829 469.356Z" fill="#00ACEA"/>
<path d="M949.98 63.2304L941.248 53.1259L935.964 57.2313L944.695 67.3358L949.98 63.2304Z" fill="#E8008B"/>
<path d="M756.286 121.194L768.315 122.116L768.801 116.413L756.772 115.491L756.286 121.194Z" fill="#00ACEA"/>
<path d="M164.483 65.8538L172.091 57.8219L167.856 54.2148L160.248 62.2467L164.483 65.8538Z" fill="#8AC13E"/>
<path d="M263.292 49.1683L262.709 39.9001L257.822 40.1762L258.404 49.4444L263.292 49.1683Z" fill="#FFEE00"/>
<path d="M77.9117 307.885L65.901 298.79L61.0698 304.527L73.0804 313.622L77.9117 307.885Z" fill="#E81B26"/>
<path d="M1034.26 33.4393L1053.36 39.509L1056.55 30.5004L1037.44 24.4307L1034.26 33.4393Z" fill="#00ACEA"/>
<path d="M1018.86 35.8298L1030.58 38.5789L1032.03 33.0246L1020.31 30.2754L1018.86 35.8298Z" fill="#E81B26"/>
<path d="M906.384 82.6999L898.227 95.18L904.807 99.0475L912.965 86.5674L906.384 82.6999Z" fill="#8E268D"/>
<path d="M809.958 9.64517L822.414 14.4195L824.932 8.51403L812.476 3.73971L809.958 9.64517Z" fill="#8E268D"/>
<path d="M481.623 79.1422L488.269 72.3232L484.673 69.1726L478.028 75.9916L481.623 79.1422Z" fill="#E8008B"/>
<path d="M1226.58 322.508L1217.52 317.306L1214.81 321.553L1223.87 326.756L1226.58 322.508Z" fill="#A182BA"/>
<path d="M748.921 217.315L739.511 219.459L740.655 223.973L750.065 221.829L748.921 217.315Z" fill="#E8008B"/>
<path d="M214.466 37.8619L211.998 25.0099L205.165 26.1897L207.633 39.0417L214.466 37.8619Z" fill="#E81B26"/>
<path d="M494.042 117.832L485.708 108.537L480.851 112.453L489.184 121.748L494.042 117.832Z" fill="#E8008B"/>
<path d="M177.38 18.6764L185.086 7.20245L179.036 3.54899L171.33 15.023L177.38 18.6764Z" fill="#E81B26"/>
<path d="M463.486 50.027L466.762 70.5213L477.569 68.9679L474.292 48.4736L463.486 50.027Z" fill="#E81B26"/>
<path d="M740.119 198.955L749.641 211.211L756.058 206.728L746.536 194.473L740.119 198.955Z" fill="#00ACEA"/>
<path d="M1203.05 402.769L1205.37 413.118L1210.83 412.019L1208.51 401.67L1203.05 402.769Z" fill="#E8008B"/>
<path d="M712.278 152.032L705.402 168.261L713.959 171.521L720.836 155.293L712.278 152.032Z" fill="#E8008B"/>
<path d="M414.972 102.663L413.026 89.8398L406.264 90.7626L408.211 103.586L414.972 102.663Z" fill="#E81B26"/>
<path d="M246.635 12.1818L254.394 21.3657L259.192 17.7206L251.433 8.53674L246.635 12.1818Z" fill="#A182BA"/>
<path d="M1256.64 182.503L1245.06 174.299L1240.7 179.835L1252.28 188.039L1256.64 182.503Z" fill="#00ACEA"/>
<path d="M1062.17 424.499L1052.6 418.069L1049.18 422.649L1058.74 429.079L1062.17 424.499Z" fill="#FFEE00"/>
<path d="M171.46 323.525L174.94 309.883L167.747 308.233L164.267 321.874L171.46 323.525Z" fill="#E81B26"/>
<path d="M1066.63 80.6916L1081.26 72.3317L1076.85 65.397L1062.22 73.7569L1066.63 80.6916Z" fill="#A182BA"/>
<path d="M245.606 61.7537L233.69 50.0032L227.453 55.6905L239.369 67.441L245.606 61.7537Z" fill="#00ACEA"/>
<path d="M1021.39 338.127L1033.79 331.966L1030.52 326.036L1018.11 332.197L1021.39 338.127Z" fill="#FFEE00"/>
<path d="M328.002 293.187L312.605 286.434L309.02 293.783L324.418 300.536L328.002 293.187Z" fill="#E81B26"/>
<path d="M102.799 241.564L100.114 231.963L95.0517 233.236L97.7363 242.837L102.799 241.564Z" fill="#8AC13E"/>
<path d="M65.0256 92.6201L53.6373 102.408L58.8369 107.848L70.2252 98.0595L65.0256 92.6201Z" fill="#00ACEA"/>
<path d="M1013.26 34.4811L1014.13 47.8427L1021.18 47.4294L1020.31 34.0678L1013.26 34.4811Z" fill="#E81B26"/>
<path d="M946.721 90.8021L958.872 89.9722L958.438 84.265L946.287 85.095L946.721 90.8021Z" fill="#E81B26"/>
<path d="M1231.63 161.56L1224.78 169.641L1229.04 172.886L1235.89 164.805L1231.63 161.56Z" fill="#8AC13E"/>
<path d="M1122.94 219.835L1103.85 215.247L1101.44 224.247L1120.54 228.835L1122.94 219.835Z" fill="#E81B26"/>
<path d="M447.03 93.2267L446.716 82.8668L441.253 83.016L441.568 93.3759L447.03 93.2267Z" fill="#FFEE00"/>
<path d="M785.551 326.876L781.921 313.604L774.868 315.339L778.498 328.611L785.551 326.876Z" fill="#FFEE00"/>
<path d="M463.365 229.035L470.76 217.379L464.614 213.873L457.219 225.529L463.365 229.035Z" fill="#E8008B"/>
<path d="M513.534 0.482422L513.307 0.698344L519.569 4.90882L522.984 0.482422H513.534Z" fill="#A182BA"/>
<path d="M897.547 123.383L891.634 111.825L885.59 114.605L891.504 126.164L897.547 123.383Z" fill="#E81B26"/>
<path d="M470.619 128.407L483.535 147.742L493.73 141.619L480.815 122.283L470.619 128.407Z" fill="#A182BA"/>
<path d="M230.039 136.656L231.265 148.367L237.496 147.78L236.27 136.07L230.039 136.656Z" fill="#A182BA"/>
<path d="M145.423 108.528L162.995 101.64L159.384 93.3587L141.813 100.247L145.423 108.528Z" fill="#A182BA"/>
<path d="M137.84 96.0133L125.177 93.853L124.048 99.8032L136.711 101.964L137.84 96.0133Z" fill="#00ACEA"/>
<path d="M1216.67 290.842L1207.18 298.596L1211.27 303.093L1220.76 295.34L1216.67 290.842Z" fill="#8AC13E"/>
<path d="M1096.38 49.1039L1082.5 52.9498L1084.51 59.4783L1098.39 55.6324L1096.38 49.1039Z" fill="#E8008B"/>
<path d="M953.167 109.071L969.87 105.21L967.821 97.2385L951.118 101.099L953.167 109.071Z" fill="#00ACEA"/>
<path d="M118.655 51.4468L129.032 42.6918L124.416 37.7716L114.038 46.5267L118.655 51.4468Z" fill="#00ACEA"/>
<path d="M1222.58 103.791L1210.36 97.5248L1207.06 103.317L1219.28 109.584L1222.58 103.791Z" fill="#00ACEA"/>
<path d="M188.231 138.542L194.816 130.001L190.312 126.878L183.727 135.42L188.231 138.542Z" fill="#E8008B"/>
<path d="M762.744 240.041L764.162 253.035L771.071 252.357L769.652 239.363L762.744 240.041Z" fill="#FFEE00"/>
<path d="M365.136 255.563L368.392 267.477L374.675 265.933L371.418 254.019L365.136 255.563Z" fill="#FFEE00"/>
<path d="M1129.85 24.7289L1138.82 30.4553L1141.81 26.2456L1132.84 20.5193L1129.85 24.7289Z" fill="#8E268D"/>
<path d="M660.698 23.8486L678.074 20.9226L676.541 12.7377L659.165 15.6636L660.698 23.8486Z" fill="#A182BA"/>
<path d="M939.251 118.114L930.167 113.389L927.703 117.648L936.787 122.374L939.251 118.114Z" fill="#E81B26"/>
<path d="M142.374 288.482L149.713 278.725L144.522 275.215L137.183 284.971L142.374 288.482Z" fill="#8AC13E"/>
<path d="M371.412 81.2873L381.865 91.5264L387.264 86.5704L376.811 76.3313L371.412 81.2873Z" fill="#8E268D"/>
<path d="M489.268 45.9444L493.537 62.2924L502.158 60.268L497.888 43.92L489.268 45.9444Z" fill="#8AC13E"/>
<path d="M755.417 173.761L762.708 161.796L756.398 158.339L749.107 170.304L755.417 173.761Z" fill="#8AC13E"/>
<path d="M1248.36 0.482422L1253.94 14.8412L1263.27 11.6024L1258.95 0.482422H1248.36Z" fill="#A182BA"/>
<path d="M275.96 32.2813L279.668 49.0831L288.472 47.336L284.763 30.5342L275.96 32.2813Z" fill="#00ACEA"/>
<path d="M317.148 41.7637L304.395 43.3771L305.239 49.3698L317.991 47.7564L317.148 41.7637Z" fill="#FFEE00"/>
<path d="M250.304 109.951L238.764 96.3077L231.57 101.779L243.11 115.423L250.304 109.951Z" fill="#E81B26"/>
<path d="M330.814 431.592L322.717 441.892L328.103 445.699L336.2 435.398L330.814 431.592Z" fill="#E8008B"/>
<path d="M699.762 431.875L709.704 442.561L715.339 437.847L705.397 427.161L699.762 431.875Z" fill="#8AC13E"/>
<path d="M756.616 0.482422L762.878 1.88591L763.219 0.482422H756.616Z" fill="#E81B26"/>
<path d="M694.54 263.07L683.829 261.645L683.069 266.776L693.78 268.202L694.54 263.07Z" fill="#E81B26"/>
<path d="M395.535 297.919L406.045 303.544L409.011 298.561L398.501 292.936L395.535 297.919Z" fill="#E81B26"/>
<path d="M1270.81 185.483L1257.65 187.442L1258.67 193.628L1271.83 191.669L1270.81 185.483Z" fill="#00ACEA"/>
<path d="M554.522 0.482422L557.141 1.88591L558.052 0.482422H554.522Z" fill="#8AC13E"/>
<path d="M1155.34 476.646L1156.24 489.249L1162.94 488.82L1162.05 476.217L1155.34 476.646Z" fill="#E8008B"/>
<path d="M468.154 65.3391L469.631 55.2878L464.331 54.5877L462.854 64.639L468.154 65.3391Z" fill="#FFEE00"/>
<path d="M580.244 439.26L574.192 430.759L569.662 433.658L575.714 442.159L580.244 439.26Z" fill="#00ACEA"/>
<path d="M589.173 67.5756L589.807 56.3638L583.895 56.0631L583.261 67.2749L589.173 67.5756Z" fill="#FFEE00"/>
<path d="M826.987 393.928L822.806 410.962L831.788 412.944L835.969 395.91L826.987 393.928Z" fill="#00ACEA"/>
<path d="M1241.93 122.641L1249.33 111.366L1243.34 107.83L1235.94 119.105L1241.93 122.641Z" fill="#E81B26"/>
<path d="M244.04 438.467L254.179 429.623L249.554 424.856L239.415 433.7L244.04 438.467Z" fill="#A182BA"/>
<path d="M732.576 25.3997L732.029 15.2646L726.685 15.524L727.232 25.6591L732.576 25.3997Z" fill="#8AC13E"/>
<path d="M662.721 38.9458L656.822 46.2203L660.703 49.0503L666.602 41.7757L662.721 38.9458Z" fill="#00ACEA"/>
<path d="M1115.72 31.424L1096.51 32.3535L1096.99 41.4104L1116.21 40.4809L1115.72 31.424Z" fill="#E81B26"/>
<path d="M377.731 318.29L389.147 331.89L396.273 326.511L384.857 312.911L377.731 318.29Z" fill="#E81B26"/>
<path d="M729.212 122.5L735.714 128.235L738.739 125.152L732.236 119.417L729.212 122.5Z" fill="#E8008B"/>
<path d="M1051.5 46.5971L1047.49 58.1877L1053.65 60.1077L1057.67 48.5171L1051.5 46.5971Z" fill="#8AC13E"/>
<path d="M268.442 111.61L278.126 100.995L272.528 96.4038L262.845 107.019L268.442 111.61Z" fill="#8E268D"/>
<path d="M192.288 183.458L176.122 191.421L180.321 199.086L196.486 191.123L192.288 183.458Z" fill="#A182BA"/>
<path d="M219.65 209.528L203.585 204.36L200.878 211.925L216.943 217.093L219.65 209.528Z" fill="#E8008B"/>
<path d="M451.073 103.74L462.056 110.298L465.515 105.091L454.531 98.5324L451.073 103.74Z" fill="#A182BA"/>
<path d="M867.939 178.198L857.38 177.447L856.988 182.399L867.547 183.15L867.939 178.198Z" fill="#FFEE00"/>
<path d="M589.341 24.9635L590.174 36.9211L596.422 36.5297L595.589 24.5721L589.341 24.9635Z" fill="#8AC13E"/>
<path d="M728.808 251.66L735.482 262.468L741.18 259.304L734.507 248.496L728.808 251.66Z" fill="#A182BA"/>
<path d="M474.251 33.0586L469.719 43.4318L475.189 45.5802L479.721 35.2069L474.251 33.0586Z" fill="#8E268D"/>
<path d="M484.035 230.114L482.008 239.638L487.03 240.599L489.057 231.075L484.035 230.114Z" fill="#8AC13E"/>
<path d="M269.345 39.3307L282.127 32.4706L278.482 26.3636L265.7 33.2236L269.345 39.3307Z" fill="#8AC13E"/>
<path d="M408.126 361.909L403.756 350.665L397.773 352.755L402.143 364L408.126 361.909Z" fill="#8AC13E"/>
<path d="M439.093 324.742L446.246 307.92L437.376 304.529L430.223 321.35L439.093 324.742Z" fill="#FFEE00"/>
<path d="M934.99 53.9378L923.61 69.8394L931.995 75.2347L943.375 59.3331L934.99 53.9378Z" fill="#8E268D"/>
<path d="M915.558 0.482422L917.949 3.39737L922.047 0.482422H915.558Z" fill="#00ACEA"/>
<path d="M847.573 100.016L857.59 111.07L863.462 106.286L853.445 95.2311L847.573 100.016Z" fill="#E81B26"/>
<path d="M1027.56 108.519L1019.8 104.202L1017.55 107.833L1025.31 112.15L1027.56 108.519Z" fill="#8E268D"/>
<path d="M95.669 42.7179L81.8271 41.618L81.2472 48.1807L95.089 49.2805L95.669 42.7179Z" fill="#FFEE00"/>
<path d="M1050.73 52.1536L1067.67 53.0992L1068.17 45.0161L1051.23 44.0705L1050.73 52.1536Z" fill="#E81B26"/>
<path d="M554.022 131.503L567.025 130.048L566.252 123.829L553.248 125.284L554.022 131.503Z" fill="#FFEE00"/>
<path d="M402.839 139.077L388.516 130.257L383.865 137.047L398.189 145.867L402.839 139.077Z" fill="#FFEE00"/>
<path d="M212.476 126.34L195.537 125.462L195.07 133.547L212.01 134.425L212.476 126.34Z" fill="#FFEE00"/>
<path d="M936.151 151.412L917.26 149.362L916.173 158.372L935.063 160.422L936.151 151.412Z" fill="#00ACEA"/>
<path d="M269.773 66.3423L275.443 78.955L282.146 76.2452L276.476 63.6326L269.773 66.3423Z" fill="#8AC13E"/>
<path d="M643.217 292.493L651.523 277.363L643.545 273.425L635.239 288.555L643.217 292.493Z" fill="#8E268D"/>
<path d="M503.994 49.4732L506.281 38.8973L500.704 37.8128L498.417 48.3887L503.994 49.4732Z" fill="#FFEE00"/>
<path d="M576.806 37.4075L583.961 46.6233L588.82 43.231L581.665 34.0152L576.806 37.4075Z" fill="#8E268D"/>
<path d="M1245.48 44.4153L1233.21 52.0798L1237.22 57.8488L1249.49 50.1843L1245.48 44.4153Z" fill="#E81B26"/>
<path d="M270.976 18.4803L289.42 14.5677L287.357 5.82314L268.913 9.73566L270.976 18.4803Z" fill="#FFEE00"/>
<path d="M625.056 129.963L607.123 134.494L609.497 142.944L627.43 138.413L625.056 129.963Z" fill="#8E268D"/>
<path d="M373.196 438.174L386.751 444.813L390.252 438.387L376.697 431.747L373.196 438.174Z" fill="#8E268D"/>
<path d="M448.327 327.06L435.278 342.739L443.5 348.892L456.549 333.213L448.327 327.06Z" fill="#8AC13E"/>
<path d="M331.215 56.1075L346.148 52.6531L344.34 45.6259L329.407 49.0802L331.215 56.1075Z" fill="#00ACEA"/>
<path d="M778.521 272.766L783.941 279.841L787.718 277.239L782.297 270.165L778.521 272.766Z" fill="#8AC13E"/>
<path d="M554.95 65.9914L567.472 66.2235L567.595 60.2868L555.073 60.0547L554.95 65.9914Z" fill="#FFEE00"/>
<path d="M679.549 238.095L668.013 246.362L672.338 251.788L683.874 243.521L679.549 238.095Z" fill="#8E268D"/>
<path d="M761.206 87.341L765.818 97.5648L771.262 95.3568L766.649 85.133L761.206 87.341Z" fill="#8E268D"/>
<path d="M812.183 180.722L823.252 189.032L827.634 183.784L816.565 175.474L812.183 180.722Z" fill="#A182BA"/>
<path d="M1064.61 366.993L1049.07 371.96L1051.69 379.326L1067.23 374.359L1064.61 366.993Z" fill="#E81B26"/>
<path d="M1156.49 212.607L1140.29 216.565L1142.36 224.197L1158.57 220.239L1156.49 212.607Z" fill="#E8008B"/>
<path d="M537.989 337.836L539.317 324.834L532.404 324.199L531.076 337.201L537.989 337.836Z" fill="#A182BA"/>
<path d="M997.743 114.747L993.03 102.932L986.853 105.148L991.566 116.962L997.743 114.747Z" fill="#E81B26"/>
<path d="M151.172 116.884L134.717 118.15L135.38 125.898L151.835 124.632L151.172 116.884Z" fill="#E81B26"/>
<path d="M1027.12 56.1947L1008.83 53.8998L1007.62 62.569L1025.91 64.864L1027.12 56.1947Z" fill="#8E268D"/>
<path d="M95.2278 28.09L105.433 21.3942L101.935 16.6001L91.7295 23.2958L95.2278 28.09Z" fill="#A182BA"/>
<path d="M849.408 0.482422L852.482 2.64164L854.19 0.482422H849.408Z" fill="#8E268D"/>
<path d="M919.493 95.7144L940.518 90.8876L937.973 80.9193L916.948 85.7461L919.493 95.7144Z" fill="#E8008B"/>
<path d="M909.738 328.561L921.569 333.073L923.948 327.463L912.117 322.951L909.738 328.561Z" fill="#E8008B"/>
<path d="M687.46 25.667L692.476 36.0755L697.964 33.6972L692.948 23.2887L687.46 25.667Z" fill="#00ACEA"/>
<path d="M1102.13 13.6553L1093.74 22.1785L1098.24 26.1567L1106.63 17.6335L1102.13 13.6553Z" fill="#8E268D"/>
<path d="M356.441 84.8207L345.219 96.7395L351.504 102.06L362.726 90.1415L356.441 84.8207Z" fill="#8AC13E"/>
<path d="M664.424 215.375L660.256 228.165L667.001 230.141L671.168 217.351L664.424 215.375Z" fill="#E81B26"/>
<path d="M630.851 24.3543L646.474 34.4406L651.793 27.0337L636.17 16.9474L630.851 24.3543Z" fill="#8E268D"/>
<path d="M1289.97 46.0777L1284.85 63.9999L1294.3 66.4296L1299.42 48.5074L1289.97 46.0777Z" fill="#00ACEA"/>
<path d="M332.389 72.5541L321.151 82.3389L326.311 87.6668L337.548 77.882L332.389 72.5541Z" fill="#00ACEA"/>
<path d="M1009.91 81.1216L1021.22 82.3662L1021.88 77.0042L1010.57 75.7595L1009.91 81.1216Z" fill="#A182BA"/>
<path d="M1289.71 34.4056L1304.12 31.6767L1302.69 24.9011L1288.28 27.6301L1289.71 34.4056Z" fill="#8AC13E"/>
<path d="M369.223 41.9271L360.226 50.343L364.704 54.647L373.701 46.2311L369.223 41.9271Z" fill="#8E268D"/>
<path d="M794.132 98.47L800.942 81.2902L791.883 78.0615L785.073 95.2413L794.132 98.47Z" fill="#8E268D"/>
<path d="M341.541 395.749L331.195 390.988L328.66 395.941L339.005 400.702L341.541 395.749Z" fill="#A182BA"/>
<path d="M648.675 428.619L636.77 437.316L641.356 442.961L653.261 434.264L648.675 428.619Z" fill="#A182BA"/>
<path d="M379.966 79.7792L389.081 88.6921L393.821 84.3329L384.706 75.42L379.966 79.7792Z" fill="#E8008B"/>
<path d="M961.294 346.415L974.576 352.36L977.735 346.015L964.453 340.069L961.294 346.415Z" fill="#8AC13E"/>
<path d="M1123.7 19.4836L1126.07 8.81348L1120.5 7.7013L1118.13 18.3714L1123.7 19.4836Z" fill="#8AC13E"/>
<path d="M1235.95 0.482422V0.698344L1248.7 1.88591L1248.81 0.482422H1235.95Z" fill="#E8008B"/>
<path d="M1067.51 85.4493L1076.8 86.3301L1077.27 81.9257L1067.98 81.0449L1067.51 85.4493Z" fill="#00ACEA"/>
<path d="M986.267 269.263L992.398 257.085L986.028 254.201L979.897 266.38L986.267 269.263Z" fill="#E81B26"/>
<path d="M1052.88 155.276L1062.81 150.955L1060.53 146.245L1050.6 150.566L1052.88 155.276Z" fill="#FFEE00"/>
<path d="M1000.56 102.599L1018.67 109.083L1022.08 100.498L1003.98 94.0137L1000.56 102.599Z" fill="#00ACEA"/>
<path d="M696.712 97.614L702.675 106.041L707.119 103.214L701.156 94.7868L696.712 97.614Z" fill="#00ACEA"/>
<path d="M1107.4 0.482422L1112.41 1.56203L1112.64 0.482422H1107.4Z" fill="#E8008B"/>
<path d="M526.326 106.665L524.277 119.146L530.802 120.109L532.851 107.628L526.326 106.665Z" fill="#FFEE00"/>
<path d="M449.795 264.196L436.621 251.801L430.125 258.008L443.298 270.403L449.795 264.196Z" fill="#8E268D"/>
<path d="M974.666 79.6427L973.535 89.6256L978.856 90.1675L979.986 80.1845L974.666 79.6427Z" fill="#E81B26"/>
<path d="M837.183 23.5115L821.767 27.3546L823.793 34.6635L839.209 30.8204L837.183 23.5115Z" fill="#FFEE00"/>
<path d="M1190.91 237.766L1175.91 232.661L1173.22 239.774L1188.22 244.879L1190.91 237.766Z" fill="#E81B26"/>
<path d="M385.247 166.993L372.647 160.718L369.365 166.644L381.965 172.919L385.247 166.993Z" fill="#E81B26"/>
<path d="M713.287 227.435L704.672 217.659L699.517 221.744L708.132 231.52L713.287 227.435Z" fill="#FFEE00"/>
<path d="M353.515 229.652L344.102 225.055L341.652 229.566L351.065 234.163L353.515 229.652Z" fill="#A182BA"/>
<path d="M468.215 391.262L469.174 401.695L474.619 401.245L473.66 390.813L468.215 391.262Z" fill="#8E268D"/>
<path d="M67.054 146.524L53.9855 148.334L54.9399 154.53L68.0084 152.72L67.054 146.524Z" fill="#8E268D"/>
<path d="M325.073 125.637L327.58 135.614L332.896 134.413L330.389 124.436L325.073 125.637Z" fill="#8E268D"/>
<path d="M904.89 253.354L894.498 245.451L890.366 250.336L900.758 258.239L904.89 253.354Z" fill="#FFEE00"/>
<path d="M1281.75 88.0285L1294.21 91.4725L1296.03 85.5646L1283.57 82.1206L1281.75 88.0285Z" fill="#A182BA"/>
<path d="M900.87 0.482422L898.252 9.76706L904.172 11.2785L907.132 0.482422H900.87Z" fill="#FFEE00"/>
<path d="M1070.97 13.0031L1062.28 6.53845L1058.91 10.6153L1067.6 17.0799L1070.97 13.0031Z" fill="#E8008B"/>
<path d="M1163.53 67.6763L1153.21 66.0011L1152.33 70.8962L1162.65 72.5714L1163.53 67.6763Z" fill="#00ACEA"/>
<path d="M1297.45 128.513L1282.68 114.122L1275.09 121.124L1289.86 135.516L1297.45 128.513Z" fill="#8E268D"/>
<path d="M778.184 70.8974L773.959 62.7618L769.669 64.7652L773.894 72.9008L778.184 70.8974Z" fill="#E81B26"/>
<path d="M298.161 342.823L305.296 352.714L310.558 349.301L303.424 339.41L298.161 342.823Z" fill="#8AC13E"/>
<path d="M557.681 60.18L566.035 68.1373L570.231 64.1767L561.877 56.2193L557.681 60.18Z" fill="#E8008B"/>
<path d="M622.516 261.532L638.134 265.497L640.224 258.093L624.607 254.128L622.516 261.532Z" fill="#E81B26"/>
<path d="M675.434 141.346L660.341 136.831L657.943 144.038L673.036 148.553L675.434 141.346Z" fill="#00ACEA"/>
<path d="M257.605 313.151L244.889 319.679L248.304 325.66L261.019 319.133L257.605 313.151Z" fill="#E81B26"/>
<path d="M54.6288 63.5826L59.0145 75.2809L65.2367 73.1835L60.8509 61.4852L54.6288 63.5826Z" fill="#8E268D"/>
<path d="M85.8174 131.158L81.8203 112.429L71.8885 114.334L75.8856 133.064L85.8174 131.158Z" fill="#8E268D"/>
<path d="M169.462 54.7313L150.391 57.157L151.662 66.1452L170.733 63.7195L169.462 54.7313Z" fill="#A182BA"/>
<path d="M1274.71 24.0035L1287.76 25.0079L1288.29 18.8743L1275.24 17.8699L1274.71 24.0035Z" fill="#FFEE00"/>
<path d="M690.238 0.482422L700.599 12.4661L707.088 7.49988L701.054 0.482422H690.238Z" fill="#A182BA"/>
<path d="M854.309 139.72L869.376 133.591L866.144 126.447L851.077 132.577L854.309 139.72Z" fill="#8E268D"/>
<path d="M405.726 49.9444L415.764 56.6788L419.315 51.9196L409.277 45.1852L405.726 49.9444Z" fill="#00ACEA"/>
<path d="M1253.8 145.525L1239.76 128.393L1230.68 135.085L1244.72 152.217L1253.8 145.525Z" fill="#8AC13E"/>
<path d="M832.54 291.932L845.924 305.339L853.035 298.956L839.65 285.549L832.54 291.932Z" fill="#FFEE00"/>
<path d="M1230.4 221.382L1238.77 202.352L1228.79 198.402L1220.41 217.432L1230.4 221.382Z" fill="#E81B26"/>
<path d="M1205.61 135.645L1213.85 130.056L1210.87 126.104L1202.63 131.693L1205.61 135.645Z" fill="#8AC13E"/>
<path d="M966.848 138.727L966.305 128.592L960.961 128.85L961.504 138.985L966.848 138.727Z" fill="#FFEE00"/>
<path d="M340.581 70.5695L357.273 68.3789L356.117 60.4652L339.426 62.6558L340.581 70.5695Z" fill="#8AC13E"/>
<path d="M102.403 0.482422L95.2297 2.42572L96.7098 7.176L106.729 4.47698L105.591 0.482422H102.403Z" fill="#8E268D"/>
<path d="M112.767 46.1748L108.953 28.5117L99.5838 30.3305L103.397 47.9936L112.767 46.1748Z" fill="#8E268D"/>
<path d="M663.621 122.693L651.766 110.738L645.462 116.359L657.318 128.314L663.621 122.693Z" fill="#A182BA"/>
<path d="M407.309 150.127L403.337 163.535L410.353 165.403L414.325 151.995L407.309 150.127Z" fill="#E8008B"/>
<path d="M829.155 316.683L841.525 322.675L844.684 316.81L832.314 310.818L829.155 316.683Z" fill="#8AC13E"/>
<path d="M1198.29 48.1601L1194.66 37.7001L1189.14 39.4217L1192.77 49.8816L1198.29 48.1601Z" fill="#8E268D"/>
<path d="M202.376 90.8554L218.409 82.884L214.232 75.3305L198.199 83.3019L202.376 90.8554Z" fill="#8AC13E"/>
<path d="M990.816 0.482422L975.787 5.2327L978.861 13.9775L997.306 8.14765L994.573 0.482422H990.816Z" fill="#E8008B"/>
<path d="M1137.24 86.6832L1150.74 80.9188L1147.7 74.5206L1134.2 80.285L1137.24 86.6832Z" fill="#A182BA"/>
<path d="M260.814 20.2728L242.385 24.2494L244.482 32.9868L262.911 29.0102L260.814 20.2728Z" fill="#E8008B"/>
<path d="M958.354 208.937L963.823 226.092L972.869 223.499L967.4 206.344L958.354 208.937Z" fill="#E81B26"/>
<path d="M537.315 97.2869L554.336 98.6082L555.033 90.5381L538.012 89.2169L537.315 97.2869Z" fill="#FFEE00"/>
<path d="M914.642 391.071L913.476 381.417L908.386 381.97L909.551 391.623L914.642 391.071Z" fill="#E8008B"/>
<path d="M230.896 267.874L219.245 264.147L217.28 269.671L228.931 273.398L230.896 267.874Z" fill="#00ACEA"/>
<path d="M1021.62 162.16L1008.2 164.592L1009.48 170.954L1022.9 168.522L1021.62 162.16Z" fill="#A182BA"/>
<path d="M839.739 147.417L853.723 148.14L854.101 141.564L840.117 140.841L839.739 147.417Z" fill="#00ACEA"/>
<path d="M913.357 14.3761L907.828 29.6981L915.907 32.3195L921.436 16.9976L913.357 14.3761Z" fill="#E81B26"/>
<path d="M428.836 296.272L441.609 291.986L439.368 285.981L426.595 290.267L428.836 296.272Z" fill="#00ACEA"/>
<path d="M462.429 461.906L480.101 449.343L473.477 440.964L455.804 453.527L462.429 461.906Z" fill="#8AC13E"/>
<path d="M1102.54 141.462L1086.29 142.434L1086.81 150.192L1103.06 149.22L1102.54 141.462Z" fill="#8AC13E"/>
<path d="M574.852 98.2037L569.708 108.556L575.166 110.995L580.311 100.643L574.852 98.2037Z" fill="#FFEE00"/>
<path d="M180.338 25.2904L177.097 36.6497L183.031 38.1724L186.273 26.8131L180.338 25.2904Z" fill="#E81B26"/>
<path d="M1024.89 476.178L1041.99 484.538L1046.42 476.381L1029.32 468.022L1024.89 476.178Z" fill="#00ACEA"/>
<path d="M513.632 134.432L498.914 132.953L498.134 139.931L512.852 141.411L513.632 134.432Z" fill="#E81B26"/>
<path d="M400.924 28.484L397.011 14.8365L389.76 16.7059L393.673 30.3534L400.924 28.484Z" fill="#8E268D"/>
<path d="M673.935 406.488L684.407 398.857L680.383 393.892L669.911 401.523L673.935 406.488Z" fill="#FFEE00"/>
<path d="M462.02 340.872L476.875 353.138L483.38 346.054L468.525 333.789L462.02 340.872Z" fill="#E81B26"/>
<path d="M810.723 124.061L796.92 115.474L792.36 122.063L806.164 130.651L810.723 124.061Z" fill="#E8008B"/>
<path d="M977.68 178.707L985.836 170.273L981.389 166.406L973.232 174.84L977.68 178.707Z" fill="#00ACEA"/>
<path d="M697.191 69.8054L704.922 62.3271L701.02 58.6995L693.289 66.1777L697.191 69.8054Z" fill="#E81B26"/>
<path d="M119.886 425.003L125.902 432.869L130.05 430.017L124.034 422.151L119.886 425.003Z" fill="#FFEE00"/>
<path d="M837.393 159.825L846.603 155.819L844.467 151.404L835.257 155.409L837.393 159.825Z" fill="#E8008B"/>
<path d="M1289.86 393.111L1295.78 400.364L1299.65 397.52L1293.72 390.267L1289.86 393.111Z" fill="#8E268D"/>
<path d="M1262.33 118.842L1259.53 110.51L1255.08 111.853L1257.88 120.186L1262.33 118.842Z" fill="#8AC13E"/>
<path d="M483.033 162.053L495.536 164.932L497.067 158.952L484.565 156.073L483.033 162.053Z" fill="#E81B26"/>
<path d="M602.372 115.603L617.188 119.485L619.22 112.513L604.405 108.631L602.372 115.603Z" fill="#FFEE00"/>
<path d="M1266.42 37.0075L1256.7 22.522L1249.11 27.0983L1258.83 41.5838L1266.42 37.0075Z" fill="#A182BA"/>
<path d="M807.94 28.0073L826.315 21.9056L823.079 13.1427L804.704 19.2445L807.94 28.0073Z" fill="#8E268D"/>
<path d="M941.182 114.43L933.518 122.703L937.88 126.337L945.545 118.064L941.182 114.43Z" fill="#FFEE00"/>
<path d="M383.405 24.131L367.601 24.919L368.02 32.4658L383.824 31.6778L383.405 24.131Z" fill="#00ACEA"/>
<path d="M1287.1 121.027L1275.06 107.924L1268.19 113.6L1280.23 126.702L1287.1 121.027Z" fill="#8E268D"/>
<path d="M1139.24 1.32923L1127.75 0.769958L1127.45 6.26872L1138.94 6.82798L1139.24 1.32923Z" fill="#E81B26"/>
<path d="M1163.09 356.775L1168.49 343.59L1161.59 341.051L1156.19 354.236L1163.09 356.775Z" fill="#8AC13E"/>
<path d="M413.455 115.006L398.92 104.593L393.429 111.485L407.965 121.897L413.455 115.006Z" fill="#A182BA"/>
<path d="M1090.32 137.192L1087.54 125.612L1081.43 126.929L1084.21 138.509L1090.32 137.192Z" fill="#00ACEA"/>
<path d="M1071.68 286.765L1066.28 278.38L1061.81 280.967L1067.21 289.353L1071.68 286.765Z" fill="#8AC13E"/>
<path d="M960.875 11.5916L962.877 21.0109L967.899 20.0515L965.898 10.6322L960.875 11.5916Z" fill="#A182BA"/>
<path d="M1121.86 88.9497L1119.96 79.4016L1114.93 80.302L1116.82 89.8501L1121.86 88.9497Z" fill="#FFEE00"/>
<path d="M761.731 109.033L751.232 127.338L760.834 132.29L771.332 113.985L761.731 109.033Z" fill="#00ACEA"/>
<path d="M790.724 29.9583L780.39 17.4746L773.852 22.3408L784.186 34.8245L790.724 29.9583Z" fill="#A182BA"/>
<path d="M1033.52 55.071L1026.47 62.9918L1030.65 66.3339L1037.7 58.4131L1033.52 55.071Z" fill="#00ACEA"/>
<path d="M1096.84 5.40127L1080.13 3.32953L1079.04 11.2512L1095.75 13.3229L1096.84 5.40127Z" fill="#00ACEA"/>
<path d="M108.051 356.471L122.018 353.882L120.642 347.207L106.675 349.796L108.051 356.471Z" fill="#8AC13E"/>
<path d="M587.999 66.8437L590.468 75.045L594.847 73.8598L592.379 65.6584L587.999 66.8437Z" fill="#8AC13E"/>
<path d="M1226.75 467.413L1225.22 452.91L1217.52 453.638L1219.04 468.141L1226.75 467.413Z" fill="#A182BA"/>
<path d="M1123.88 127.931L1125.47 139.058L1131.34 138.307L1129.75 127.18L1123.88 127.931Z" fill="#8E268D"/>
<path d="M109.338 130.348L118.013 135.915L120.948 131.802L112.273 126.235L109.338 130.348Z" fill="#FFEE00"/>
<path d="M893.236 131.917L880.299 130.919L879.773 137.053L892.71 138.051L893.236 131.917Z" fill="#A182BA"/>
<path d="M710.559 301.733L697.909 290.065L691.717 296.101L704.366 307.769L710.559 301.733Z" fill="#A182BA"/>
<path d="M1176.9 1.38729L1166.29 12.6671L1172.24 17.6973L1182.85 6.41756L1176.9 1.38729Z" fill="#E8008B"/>
<path d="M582.696 222.399L571.957 216.719L568.962 221.811L579.701 227.49L582.696 222.399Z" fill="#FFEE00"/>
<path d="M727.151 301.524L726.419 313.596L732.784 313.943L733.516 301.871L727.151 301.524Z" fill="#E8008B"/>
<path d="M349.104 25.4122L351.16 11.9495L344.061 10.9747L342.005 24.4374L349.104 25.4122Z" fill="#8AC13E"/>
<path d="M936.587 37.5975L945.629 42.1696L948.039 37.8828L938.998 33.3107L936.587 37.5975Z" fill="#00ACEA"/>
<path d="M613.254 83.7855L602.613 80.604L600.935 85.6492L611.577 88.8308L613.254 83.7855Z" fill="#00ACEA"/>
<path d="M207.414 232.212L199.714 225.32L196.041 229.01L203.741 235.902L207.414 232.212Z" fill="#8E268D"/>
<path d="M164.275 33.5653L154.114 27.3912L150.858 32.209L161.02 38.383L164.275 33.5653Z" fill="#FFEE00"/>
<path d="M748.276 38.8851L729.61 33.2672L726.648 42.1168L745.313 47.7346L748.276 38.8851Z" fill="#FFEE00"/>
<path d="M207.313 467.023L195.306 471.697L197.771 477.39L209.778 472.716L207.313 467.023Z" fill="#8AC13E"/>
<path d="M1019.04 352.708L1009.1 355.831L1010.74 360.545L1020.69 357.422L1019.04 352.708Z" fill="#FFEE00"/>
<path d="M901.945 113.774L891.176 108.372L888.301 113.525L899.07 118.927L901.945 113.774Z" fill="#A182BA"/>
<path d="M396.491 0.482422L394.1 0.698344L394.669 5.55658L404.802 4.47698L404.347 0.482422H396.491Z" fill="#A182BA"/>
<path d="M524.66 75.353L520.082 88.0168L526.76 90.1872L531.337 77.5234L524.66 75.353Z" fill="#8AC13E"/>
<path d="M956.831 35.5335L942.814 29.8205L939.801 36.466L953.818 42.179L956.831 35.5335Z" fill="#00ACEA"/>
<path d="M826.26 101.956L836.969 117.503L845.167 112.426L834.458 96.8787L826.26 101.956Z" fill="#A182BA"/>
<path d="M142.462 318.697L128.27 327.51L132.948 334.284L147.14 325.471L142.462 318.697Z" fill="#E8008B"/>
<path d="M429.964 60.4039L413.143 65.812L415.995 73.787L432.816 68.3789L429.964 60.4039Z" fill="#E8008B"/>
<path d="M1132.07 30.5839L1119.21 43.8702L1126.18 49.9274L1139.03 36.6411L1132.07 30.5839Z" fill="#A182BA"/>
<path d="M846.173 444.738L835.568 447.245L836.89 452.273L847.495 449.766L846.173 444.738Z" fill="#E81B26"/>
<path d="M1103.65 320.371H1089.07V327.28H1103.65V320.371Z" fill="#8AC13E"/>
<path d="M423.103 123.889L417.859 136.203L424.299 138.669L429.543 126.355L423.103 123.889Z" fill="#E8008B"/>
<path d="M595.896 325.169L604.882 335.213L610.178 330.953L601.192 320.909L595.896 325.169Z" fill="#8E268D"/>
<path d="M840.768 23.6562L847.812 13.3191L842.362 9.97923L835.317 20.3164L840.768 23.6562Z" fill="#8AC13E"/>
<path d="M1075.13 68.8477L1075.93 56.8881L1069.57 56.5053L1068.77 68.465L1075.13 68.8477Z" fill="#FFEE00"/>
<path d="M185.69 399.146L205.322 395.338L203.314 386.03L183.682 389.838L185.69 399.146Z" fill="#8AC13E"/>
<path d="M666.552 456.827L677.14 456.88L677.168 451.806L666.58 451.753L666.552 456.827Z" fill="#8AC13E"/>
<path d="M277.605 284.708L283.876 295.236L289.428 292.262L283.156 281.734L277.605 284.708Z" fill="#FFEE00"/>
<path d="M898.959 74.4807L913.21 85.241L918.883 78.4845L904.633 67.7243L898.959 74.4807Z" fill="#A182BA"/>
<path d="M541.879 49.1119L529.158 40.5524L524.678 46.5395L537.398 55.099L541.879 49.1119Z" fill="#A182BA"/>
<path d="M605.188 0.482422L605.302 6.96008L625.91 6.52823L625.796 0.482422H605.188Z" fill="#8AC13E"/>
<path d="M982.705 316.601L982.461 334.521L991.91 334.637L992.154 316.717L982.705 316.601Z" fill="#8E268D"/>
<path d="M352.543 0.482422L348.9 9.22725L368.824 16.7845L372.809 7.39192L354.706 0.482422H352.543Z" fill="#E8008B"/>
<path d="M863.364 80.7216L876.471 88.1249L880.375 81.9104L867.267 74.5071L863.364 80.7216Z" fill="#A182BA"/>
<path d="M816.277 289.98L818.651 276.893L811.694 275.758L809.32 288.845L816.277 289.98Z" fill="#E81B26"/>
<path d="M411.081 44.6812L411.23 33.7781L405.424 33.707L405.275 44.6101L411.081 44.6812Z" fill="#00ACEA"/>
<path d="M916.387 167.036L904.408 162.584L902.04 168.314L914.019 172.765L916.387 167.036Z" fill="#E81B26"/>
<path d="M1148.42 14.5337L1151.81 26.974L1158.42 25.3565L1155.04 12.9162L1148.42 14.5337Z" fill="#FFEE00"/>
<path d="M95.0111 279.673L90.7986 267.803L84.5399 269.801L88.7525 281.67L95.0111 279.673Z" fill="#A182BA"/>
<path d="M333.187 0.482422L338.311 10.8467L345.711 7.60784L342.068 0.482422H333.187Z" fill="#00ACEA"/>
<path d="M850.379 129.618L860.871 133.809L863.081 128.834L852.588 124.644L850.379 129.618Z" fill="#A182BA"/>
<path d="M612.609 409.751L620.819 398.596L614.936 394.703L606.727 405.858L612.609 409.751Z" fill="#E81B26"/>
<path d="M1059.9 181.732L1048.72 178.038L1046.77 183.339L1057.95 187.034L1059.9 181.732Z" fill="#A182BA"/>
<path d="M1076.66 0.482422L1075.87 7.7158L1082.47 8.36357L1083.27 0.482422H1076.66Z" fill="#E81B26"/>
<path d="M1159.67 320.165L1159.55 310.45L1154.42 310.508L1154.55 320.224L1159.67 320.165Z" fill="#E8008B"/>
<path d="M699.631 372.95L699.391 358.809L691.878 358.924L692.117 373.065L699.631 372.95Z" fill="#A182BA"/>
<path d="M123.894 302.264L104.011 296.006L100.711 305.433L120.594 311.69L123.894 302.264Z" fill="#E81B26"/>
<path d="M1161.33 157.508L1172.6 157.318L1172.5 151.921L1161.23 152.111L1161.33 157.508Z" fill="#8E268D"/>
<path d="M1182.47 96.1202L1163.58 86.5728L1158.54 95.5282L1177.43 105.076L1182.47 96.1202Z" fill="#E81B26"/>
<path d="M941.395 479.31L939.622 494.439L947.543 495.273L949.316 480.144L941.395 479.31Z" fill="#E8008B"/>
<path d="M90.1188 347.56L91.6183 331.754L83.3403 331.047L81.8408 346.854L90.1188 347.56Z" fill="#8AC13E"/>
<path d="M1066.54 330.713L1048.34 320.036L1042.71 328.666L1060.91 339.343L1066.54 330.713Z" fill="#A182BA"/>
<path d="M1005.87 11.3994L994.684 22.6147L1000.56 27.8823L1011.75 16.667L1005.87 11.3994Z" fill="#00ACEA"/>
<path d="M634.432 130.635L637.663 143.667L644.535 142.135L641.304 129.103L634.432 130.635Z" fill="#E8008B"/>
<path d="M1218.93 31.5043L1226.68 15.7524L1218.42 12.1009L1210.67 27.8528L1218.93 31.5043Z" fill="#00ACEA"/>
<path d="M496.574 88.5133L509.362 84.2692L507.105 78.1552L494.317 82.3993L496.574 88.5133Z" fill="#E81B26"/>
<path d="M831.18 124.051L822.55 131.579L826.481 135.632L835.112 128.103L831.18 124.051Z" fill="#E8008B"/>
<path d="M1192.18 130.838L1186.57 121.572L1181.63 124.263L1187.25 133.529L1192.18 130.838Z" fill="#A182BA"/>
<path d="M197.406 153.225L182.356 155.6L183.609 162.736L198.658 160.36L197.406 153.225Z" fill="#A182BA"/>
<path d="M784.588 444.866L780.983 463.008L790.605 464.727L794.21 446.585L784.588 444.866Z" fill="#00ACEA"/>
<path d="M361.646 139.527L382.703 137.393L381.578 127.409L360.52 129.543L361.646 139.527Z" fill="#8E268D"/>
<path d="M348.665 314.341L330.326 321.445L334.072 330.14L352.411 323.036L348.665 314.341Z" fill="#A182BA"/>
<path d="M359.087 139.635L362.211 151.024L368.162 149.556L365.038 138.168L359.087 139.635Z" fill="#FFEE00"/>
<path d="M343.603 112.094L331.21 103.656L326.761 109.531L339.153 117.969L343.603 112.094Z" fill="#00ACEA"/>
<path d="M529.381 20.8053L542.016 24.0626L543.748 18.0202L531.114 14.7629L529.381 20.8053Z" fill="#8AC13E"/>
<path d="M664.507 0.482422L663.14 8.25561L669.516 9.22725L670.996 0.482422H664.507Z" fill="#E8008B"/>
<path d="M694.069 204.047L691.146 186.669L681.927 188.063L684.849 205.441L694.069 204.047Z" fill="#FFEE00"/>
<path d="M270.499 221.943L259.798 212.404L254.729 217.517L265.43 227.056L270.499 221.943Z" fill="#00ACEA"/>
<path d="M318.514 126.735L324.146 118.747L319.982 116.107L314.349 124.094L318.514 126.735Z" fill="#FFEE00"/>
<path d="M866.981 398.627L878.764 401.562L880.297 396.028L868.515 393.093L866.981 398.627Z" fill="#8E268D"/>
<path d="M382.498 287.695L375.687 278.117L370.59 281.376L377.4 290.954L382.498 287.695Z" fill="#A182BA"/>
<path d="M1108.2 65.8362L1115.01 80.6872L1122.84 77.4585L1116.03 62.6075L1108.2 65.8362Z" fill="#8E268D"/>
<path d="M1035.18 13.1863L1049.94 15.8493L1051.34 8.8494L1036.58 6.18639L1035.18 13.1863Z" fill="#A182BA"/>
<path d="M795.782 0.482422L798.628 2.96552L801.019 0.482422H795.782Z" fill="#8E268D"/>
<path d="M1197.69 0.482422L1195.3 4.36901L1208.28 11.4944L1212.04 5.2327L1203.27 0.482422H1197.69Z" fill="#A182BA"/>
<path d="M630.931 77.2106L621.76 72.6392L619.376 76.9395L628.547 81.5109L630.931 77.2106Z" fill="#E8008B"/>
<path d="M223.844 135.736L202.133 132.52L200.446 142.76L222.157 145.976L223.844 135.736Z" fill="#FFEE00"/>
<path d="M333.133 123.575L345.874 123.084L345.615 117.043L332.873 117.534L333.133 123.575Z" fill="#FFEE00"/>
<path d="M528.667 382.569L535.103 371.019L529.063 367.993L522.627 379.543L528.667 382.569Z" fill="#8E268D"/>
<path d="M1207.46 115.303L1206.26 132.431L1215.35 133.002L1216.55 115.874L1207.46 115.303Z" fill="#E8008B"/>
<path d="M391.655 51.6612L385.859 64.4581L392.659 67.227L398.455 54.4301L391.655 51.6612Z" fill="#8AC13E"/>
<path d="M846.533 65.7021L857.3 69.2134L859.151 64.1088L848.385 60.5975L846.533 65.7021Z" fill="#8AC13E"/>
<path d="M525.285 242.647L516.863 226.844L508.531 230.837L516.953 246.64L525.285 242.647Z" fill="#00ACEA"/>
<path d="M1123.95 316.224L1114.17 311.59L1111.73 316.225L1121.5 320.86L1123.95 316.224Z" fill="#8E268D"/>
<path d="M865.632 44.0656L853.351 38.6381L850.465 44.5093L862.746 49.9368L865.632 44.0656Z" fill="#E8008B"/>
<path d="M159.42 88.6673L169.205 92.2122L171.074 87.573L161.289 84.0281L159.42 88.6673Z" fill="#A182BA"/>
<path d="M1224.73 44.6873L1214.76 30.3614L1207.16 35.1196L1217.13 49.4455L1224.73 44.6873Z" fill="#8E268D"/>
<path d="M692.3 84.4196L679.295 93.1602L683.904 99.3256L696.908 90.5851L692.3 84.4196Z" fill="#00ACEA"/>
<path d="M795.367 31.2555L792.293 40.5243L797.18 41.982L800.255 32.7131L795.367 31.2555Z" fill="#8E268D"/>
<path d="M894.907 344.253L879.474 335.702L874.993 342.972L890.427 351.524L894.907 344.253Z" fill="#E8008B"/>
<path d="M449.449 226.702L430.675 235.516L435.322 244.418L454.097 235.604L449.449 226.702Z" fill="#A182BA"/>
<path d="M1166.33 69.289L1165.45 79.5117L1170.9 79.9309L1171.78 69.7082L1166.33 69.289Z" fill="#E8008B"/>
<path d="M557.176 186.215L545.299 201.652L553.394 207.252L565.27 191.814L557.176 186.215Z" fill="#E81B26"/>
<path d="M849.694 50.4387L859.629 40.4767L854.417 35.8034L844.482 45.7655L849.694 50.4387Z" fill="#8E268D"/>
<path d="M815.041 149.061L829.976 139.361L824.829 132.235L809.893 141.936L815.041 149.061Z" fill="#00ACEA"/>
<path d="M1050.05 240.052L1029.38 242.535L1030.7 252.389L1051.37 249.906L1050.05 240.052Z" fill="#E8008B"/>
<path d="M1180.27 17.2924L1197.21 21.9554L1199.69 13.868L1182.74 9.20502L1180.27 17.2924Z" fill="#FFEE00"/>
<path d="M731.42 348.044L723.598 342.107L720.468 345.815L728.289 351.752L731.42 348.044Z" fill="#E81B26"/>
</g>
</g>
</svg>
