<svg width="313" height="313" viewBox="0 0 313 313" fill="none" xmlns="http://www.w3.org/2000/svg">
<g filter="url(#filter0_d_2811_28332)">
<path fill-rule="evenodd" clip-rule="evenodd" d="M60.6777 142.711C60.6777 89.7452 103.615 46.8079 156.581 46.8079C209.547 46.8079 252.484 89.7452 252.484 142.711C252.484 195.677 209.547 238.614 156.581 238.614C103.615 238.614 60.6777 195.677 60.6777 142.711Z" fill="#2F2F2F"/>
</g>
<circle cx="224.733" cy="74.65" r="14.8656" fill="white"/>
<path d="M224.751 59.3749C216.161 59.3749 209.161 66.3749 209.161 74.9652C209.161 83.5555 216.161 90.5556 224.751 90.5556C233.342 90.5556 240.342 83.5555 240.342 74.9652C240.342 66.3749 233.342 59.3749 224.751 59.3749ZM232.204 71.3794L223.364 80.2192C223.146 80.4374 222.849 80.5621 222.538 80.5621C222.226 80.5621 221.93 80.4374 221.711 80.2192L217.299 75.8071C216.847 75.355 216.847 74.6066 217.299 74.1545C217.751 73.7024 218.5 73.7024 218.952 74.1545L222.538 77.7403L230.551 69.7269C231.003 69.2747 231.752 69.2747 232.204 69.7269C232.656 70.179 232.656 70.9117 232.204 71.3794Z" fill="#13BC42"/>
<path d="M93.5182 31.3834C93.4545 31.2989 94.0807 30.753 94.9173 30.1658C95.7543 29.578 96.4794 29.1736 96.5372 29.2624C96.595 29.3511 95.9692 29.8964 95.1381 30.4799C94.3077 31.0638 93.5819 31.4679 93.5182 31.3834Z" fill="white"/>
<path d="M87.9369 36.2048C87.861 36.1312 88.4057 35.505 89.1541 34.8064C89.9025 34.1079 90.5652 33.6078 90.6338 33.6883C90.702 33.7694 90.1573 34.3956 89.4166 35.0867C88.6759 35.7778 88.0128 36.2785 87.9369 36.2048Z" fill="white"/>
<path d="M83.2927 41.9257C83.2033 41.8681 83.6232 41.1511 84.2295 40.3253C84.8361 39.4989 85.3937 38.8844 85.4756 38.9521C85.5575 39.0198 85.1379 39.7362 84.5388 40.5525C83.9397 41.3688 83.3818 41.9839 83.2927 41.9257Z" fill="white"/>
<path d="M79.8067 48.4207C79.7087 48.3794 79.9897 47.5976 80.4328 46.6751C80.877 45.7523 81.3121 45.0458 81.4056 45.0964C81.4991 45.1469 81.2185 45.9281 80.7791 46.8426C80.3399 47.7555 79.9043 48.4626 79.8067 48.4207Z" fill="white"/>
<path d="M77.3599 55.3757C77.257 55.3504 77.4063 54.5309 77.6935 53.5464C78.0078 52.5725 78.3654 51.8204 78.4624 51.856C78.5657 51.8926 78.3716 52.6981 78.0597 53.6633C77.776 54.6344 77.4629 55.4011 77.3599 55.3757Z" fill="white"/>
<path d="M76.2889 62.6658C76.1827 62.6624 76.173 61.832 76.268 60.8116C76.3627 59.7901 76.5253 58.9757 76.6297 58.9925C76.7345 59.0087 76.7442 59.8391 76.6503 60.8474C76.5571 61.8544 76.3945 62.6688 76.2889 62.6658Z" fill="white"/>
<path d="M76.7928 70.0149C76.6901 70.0349 76.4499 69.2334 76.3249 68.2146C76.1983 67.1957 76.2359 66.3602 76.3403 66.3549C76.4478 66.3488 76.5818 67.1631 76.7063 68.168C76.8295 69.1721 76.8988 69.9952 76.7928 70.0149Z" fill="white"/>
<path d="M78.9493 77.0542C78.8547 77.0984 78.4276 76.3772 78.0691 75.4145C77.7093 74.4527 77.5571 73.6286 77.6574 73.5996C77.7611 73.5691 78.0743 74.3327 78.429 75.2797C78.782 76.2282 79.0469 77.0091 78.9493 77.0542Z" fill="white"/>
<path d="M82.8443 83.2954C82.7654 83.3641 82.1543 82.7889 81.5518 81.9553C80.9475 81.1233 80.5887 80.3649 80.6785 80.3111C80.7705 80.2551 81.2689 80.9118 81.8629 81.7293C82.4551 82.5484 82.9259 83.225 82.8443 83.2954Z" fill="white"/>
<path d="M88.4141 88.0844C88.3621 88.1745 87.5957 87.83 86.7608 87.2261C85.9242 86.6238 85.3568 86.0023 85.4269 85.9252C85.4989 85.8449 86.1666 86.325 86.9858 86.9147C87.8026 87.5055 88.4684 87.9905 88.4141 88.0844Z" fill="white"/>
<path d="M95.2456 90.7995C95.2243 90.9013 94.3893 90.8112 93.4072 90.5066C92.423 90.2042 91.6831 89.8077 91.7237 89.711C91.7644 89.611 92.5551 89.8425 93.5205 90.1392C94.4844 90.4384 95.2681 90.694 95.2456 90.7995Z" fill="white"/>
<path d="M102.578 91.3297C102.588 91.4335 101.765 91.5973 100.736 91.5997C99.7069 91.6043 98.8826 91.4471 98.8921 91.3435C98.9012 91.2363 99.725 91.2203 100.735 91.2154C101.745 91.2139 102.569 91.2227 102.578 91.3297Z" fill="white"/>
<path d="M109.697 89.5279C109.742 89.6218 109.021 90.0563 108.047 90.3909C107.073 90.7285 106.24 90.8362 106.217 90.7343C106.192 90.6287 106.969 90.3583 107.922 90.0274C108.874 89.6997 109.651 89.4296 109.697 89.5279Z" fill="white"/>
<path d="M115.638 85.2311C115.717 85.2987 115.23 85.9882 114.458 86.6757C113.687 87.3657 112.949 87.7726 112.891 87.6872C112.828 87.5981 113.453 87.0613 114.203 86.3893C114.954 85.7197 115.557 85.1595 115.638 85.2311Z" fill="white"/>
<path d="M119.19 78.8334C119.29 78.8589 119.158 79.6939 118.76 80.6486C118.365 81.6048 117.868 82.2887 117.78 82.2358C117.686 82.1815 118.021 81.4311 118.405 80.5007C118.793 79.5735 119.085 78.8053 119.19 78.8334Z" fill="white"/>
<path d="M119.286 71.5455C119.384 71.5123 119.724 72.2947 119.85 73.3278C119.98 74.3598 119.853 75.2002 119.751 75.194C119.641 75.1901 119.594 74.3697 119.468 73.3756C119.348 72.3809 119.181 71.5785 119.286 71.5455Z" fill="white"/>
<path d="M115.013 65.7068C115.067 65.6208 115.824 66.0107 116.575 66.7315C117.33 67.4503 117.746 68.1959 117.661 68.2523C117.571 68.3157 117.034 67.698 116.309 67.0085C115.589 66.3163 114.951 65.7983 115.013 65.7068Z" fill="white"/>
<path d="M108.096 63.3775C108.1 63.2745 108.946 63.2218 109.964 63.4188C110.984 63.6129 111.75 63.9769 111.714 64.074C111.678 64.1766 110.879 63.9839 109.892 63.7963C108.905 63.6048 108.092 63.4863 108.096 63.3775Z" fill="white"/>
<path d="M100.932 64.8097C100.886 64.717 101.603 64.2728 102.584 63.9455C103.565 63.6146 104.407 63.5429 104.425 63.6451C104.445 63.7515 103.659 63.9886 102.706 64.3099C101.752 64.6275 100.979 64.9077 100.932 64.8097Z" fill="white"/>
<path d="M94.984 69.1092C94.9083 69.0382 95.4188 68.3709 96.1946 67.6941C96.9693 67.015 97.7016 66.6011 97.7613 66.6866C97.8237 66.7747 97.2066 67.3182 96.4477 67.9834C95.6869 68.6458 95.0622 69.1833 94.984 69.1092Z" fill="white"/>
<path d="M90.7207 75.1015C90.6273 75.0552 90.9226 74.2706 91.4564 73.3919C91.9876 72.5116 92.5467 71.887 92.6307 71.9482C92.7184 72.0117 92.3063 72.7255 91.7846 73.5907C91.2604 74.4545 90.8169 75.1503 90.7207 75.1015Z" fill="white"/>
<path d="M88.2652 82.0337C88.163 82.0131 88.244 81.1805 88.5222 80.1925C88.799 79.2038 89.1649 78.4506 89.2632 78.4869C89.3645 78.524 89.1648 79.323 88.8925 80.2964C88.6182 81.2688 88.3714 82.055 88.2652 82.0337Z" fill="white"/>
<path d="M87.5729 89.3628C87.4666 89.3653 87.4112 88.5375 87.4499 87.5127C87.4886 86.4879 87.605 85.6664 87.7105 85.677C87.816 85.6876 87.8711 86.5161 87.8335 87.5271C87.796 88.5381 87.6789 89.3592 87.5729 89.3628Z" fill="white"/>
<path d="M88.4229 96.683C88.3194 96.7059 88.0994 95.9049 87.9323 94.8942C87.7652 93.8834 87.7158 93.054 87.8209 93.0431C87.9264 93.0316 88.1458 93.8323 88.3115 94.832C88.4771 95.8307 88.5268 96.6595 88.4229 96.683Z" fill="white"/>
<path d="M90.5813 103.732C90.483 103.772 90.1264 103.022 89.7846 102.057C89.4432 101.091 89.249 100.284 89.3507 100.254C89.4523 100.224 89.8087 100.973 90.1474 101.929C90.485 102.885 90.6792 103.692 90.5813 103.732Z" fill="white"/>
<path d="M93.8843 110.323C93.794 110.379 93.3182 109.698 92.8221 108.802C92.3255 107.906 92.0008 107.142 92.0958 107.096C92.1908 107.049 92.6664 107.729 93.158 108.616C93.6495 109.503 93.9746 110.267 93.8843 110.323Z" fill="white"/>
<path d="M98.2273 116.286C98.1464 116.355 97.5637 115.763 96.9254 114.963C96.2805 114.169 95.8471 113.459 95.9394 113.392C96.0195 113.334 96.5873 113.937 97.2273 114.725C97.8605 115.518 98.3081 116.217 98.2273 116.286Z" fill="white"/>
<path d="M103.327 121.612C103.255 121.69 102.606 121.172 101.877 120.456C101.148 119.739 100.62 119.098 100.697 119.026C100.774 118.952 101.423 119.47 102.147 120.182C102.871 120.894 103.399 121.535 103.327 121.612Z" fill="white"/>
<path d="M108.97 126.362C108.906 126.447 108.208 125.997 107.411 125.358C106.613 124.719 106.023 124.136 106.091 124.055C106.16 123.974 106.858 124.423 107.651 125.058C108.444 125.694 109.034 126.277 108.97 126.362Z" fill="white"/>
<path d="M114.994 130.624C114.935 130.713 114.204 130.319 113.361 129.744C112.517 129.169 111.883 128.634 111.944 128.547C112.006 128.461 112.736 128.855 113.577 129.427C114.417 129.999 115.052 130.535 114.994 130.624Z" fill="white"/>
<path d="M121.262 134.513C121.208 134.604 120.456 134.251 119.583 133.724C118.709 133.197 118.047 132.697 118.103 132.606C118.16 132.516 118.911 132.869 119.782 133.395C120.653 133.921 121.316 134.421 121.262 134.513Z" fill="white"/>
<path d="M127.678 138.156C127.627 138.249 126.864 137.921 125.974 137.424C125.083 136.927 124.405 136.449 124.456 136.357C124.509 136.265 125.271 136.592 126.161 137.089C127.05 137.585 127.729 138.063 127.678 138.156Z" fill="white"/>
<path d="M131.663 140.33C131.613 140.423 131.405 140.408 131.199 140.297C130.993 140.186 130.868 140.019 130.918 139.926C130.969 139.832 131.177 139.848 131.382 139.959C131.588 140.071 131.714 140.236 131.663 140.33Z" fill="white"/>
<path d="M89.3931 124.692L220.737 123.465L224.584 212.756L88.5781 211.778L89.3931 124.692Z" fill="#FFCF35"/>
<path d="M89.3936 124.692L151.451 74.2637C154.079 72.1281 157.845 72.1328 160.469 74.2739L220.737 123.465" fill="#FFCF35"/>
<g opacity="0.3">
<path d="M89.3936 124.692L151.451 74.2637C154.079 72.1281 157.845 72.1328 160.469 74.2739L220.737 123.465" fill="black"/>
</g>
<path d="M88.5781 211.778C88.4141 211.624 98.905 200.122 112.007 186.089C125.114 172.051 135.87 160.8 136.034 160.953C136.198 161.106 125.709 172.606 112.602 186.644C99.4995 200.677 88.742 211.931 88.5781 211.778Z" fill="#263238"/>
<path d="M224.583 212.756C224.415 212.905 214.151 201.678 201.661 187.682C189.166 173.681 179.177 162.213 179.344 162.064C179.511 161.915 189.773 173.14 202.267 187.141C214.758 201.136 224.749 212.606 224.583 212.756Z" fill="#263238"/>
<g opacity="0.5">
<path d="M220.735 123.465L154.89 176.291L89.3916 124.692" fill="black"/>
</g>
<path d="M96.0174 129.558L95.7266 88.5358L210.734 86.9373L212.12 130.096L154.883 175.601L96.0174 129.558Z" fill="#FAFAFA"/>
<path d="M96.0177 129.558C96.0177 129.558 96.3974 129.832 97.1086 130.377C97.8263 130.93 98.8756 131.739 100.243 132.795C102.99 134.927 107.01 138.049 112.148 142.039C122.414 150.041 137.136 161.517 155.004 175.445L154.76 175.446C171.247 162.323 190.806 146.756 211.971 129.91L211.882 130.104C211.617 121.87 211.338 113.233 211.055 104.442C210.865 98.5254 210.678 92.678 210.493 86.9445L210.737 87.177C164.395 87.7873 123.513 88.3254 95.7287 88.6902L95.8815 88.5347C95.9408 101.432 95.9871 111.674 96.0195 118.706C96.0269 122.215 96.0325 124.921 96.0371 126.762C96.0353 127.671 96.0334 128.365 96.0325 128.844C96.0288 129.313 96.0177 129.558 96.0177 129.558C96.0177 129.558 96.0029 129.327 95.9927 128.864C95.9853 128.389 95.9732 127.701 95.9584 126.799C95.9362 124.962 95.9038 122.263 95.8621 118.762C95.7945 111.719 95.6963 101.458 95.5731 88.5374L95.5713 88.3837L95.725 88.3818C123.508 87.9753 164.389 87.3761 210.73 86.6982L210.966 86.6945L210.973 86.9306C211.157 92.6632 211.345 98.5115 211.536 104.428C211.818 113.219 212.094 121.857 212.358 130.09L212.361 130.211L212.268 130.286C191.084 147.108 171.507 162.655 155.005 175.758L154.883 175.855L154.761 175.759C136.915 161.753 122.211 150.212 111.959 142.165C106.858 138.146 102.866 135.002 100.139 132.852C98.7923 131.784 97.7606 130.966 97.054 130.405C96.3603 129.85 96.0177 129.558 96.0177 129.558Z" fill="#263238"/>
<path d="M192.601 107.629C192.602 107.762 175.015 108.013 153.323 108.19C131.624 108.367 114.038 108.402 114.036 108.269C114.035 108.136 131.619 107.885 153.318 107.708C175.01 107.531 192.601 107.496 192.601 107.629Z" fill="#263238"/>
<path d="M192.626 119.216C192.627 119.35 175.039 119.601 153.347 119.778C131.648 119.954 114.062 119.99 114.061 119.856C114.06 119.723 131.643 119.472 153.343 119.295C175.035 119.119 192.625 119.083 192.626 119.216Z" fill="#263238"/>
<path d="M192.653 132.571C192.654 132.705 175.067 132.956 153.375 133.133C131.675 133.31 114.09 133.345 114.088 133.211C114.087 133.078 131.671 132.827 153.37 132.65C175.062 132.474 192.652 132.438 192.653 132.571Z" fill="#263238"/>
<path d="M192.681 145.927C192.682 146.06 175.903 146.305 155.207 146.473C134.506 146.642 117.727 146.67 117.727 146.537C117.726 146.404 134.502 146.159 155.204 145.991C175.898 145.823 192.68 145.794 192.681 145.927Z" fill="#263238"/>
<path d="M177.996 157.681C177.996 157.697 177.837 157.715 177.535 157.734C177.178 157.749 176.742 157.768 176.215 157.79C174.993 157.821 173.351 157.861 171.356 157.911C167.185 157.987 161.553 158.089 155.328 158.202C149.065 158.32 143.395 158.356 139.291 158.352C137.296 158.339 135.654 158.328 134.431 158.32C133.904 158.306 133.468 158.295 133.11 158.286C132.808 158.273 132.648 158.259 132.648 158.242C132.648 158.225 132.807 158.208 133.109 158.189C133.466 158.173 133.902 158.155 134.429 158.133C135.651 158.102 137.293 158.061 139.288 158.011C143.459 157.935 149.092 157.834 155.318 157.721C161.579 157.603 167.248 157.567 171.352 157.571C173.348 157.584 174.99 157.595 176.212 157.603C176.74 157.616 177.176 157.628 177.534 157.636C177.836 157.649 177.996 157.664 177.996 157.681Z" fill="#263238"/>
<path d="M163.213 168.979C163.213 169.113 159.463 169.228 154.838 169.238C150.212 169.247 146.462 169.147 146.462 169.013C146.462 168.88 150.211 168.764 154.838 168.755C159.462 168.746 163.213 168.846 163.213 168.979Z" fill="#263238"/>
<path d="M97.107 26.9267L144.981 11.668L108.256 37.5017L97.107 26.9267Z" fill="white"/>
<path d="M144.981 11.668L93.3712 20.5604L82.2222 9.98536L144.981 11.668Z" fill="white"/>
<path d="M93.3712 20.5604L93.4623 33.3454L97.1069 26.9268L144.981 11.6681L93.3712 20.5604Z" fill="white"/>
<path opacity="0.25" d="M93.3712 20.5604L93.4623 33.3454L97.1069 26.9268L144.981 11.6681L93.3712 20.5604Z" fill="black"/>
<path d="M93.463 33.3454L100.824 30.4515L97.1077 26.9268L93.463 33.3454Z" fill="white"/>
<path opacity="0.25" d="M97.1074 26.9268L100.824 30.4515L99.6497 30.9132L97.1074 26.9268Z" fill="black"/>
<defs>
<filter id="filter0_d_2811_28332" x="0.316105" y="0.113015" width="312.53" height="312.53" filterUnits="userSpaceOnUse" color-interpolation-filters="sRGB">
<feFlood flood-opacity="0" result="BackgroundImageFix"/>
<feColorMatrix in="SourceAlpha" type="matrix" values="0 0 0 0 0 0 0 0 0 0 0 0 0 0 0 0 0 0 127 0" result="hardAlpha"/>
<feOffset dy="13.6668"/>
<feGaussianBlur stdDeviation="30.1808"/>
<feComposite in2="hardAlpha" operator="out"/>
<feColorMatrix type="matrix" values="0 0 0 0 0.175 0 0 0 0 0.157326 0 0 0 0 0.100625 0 0 0 0.1 0"/>
<feBlend mode="normal" in2="BackgroundImageFix" result="effect1_dropShadow_2811_28332"/>
<feBlend mode="normal" in="SourceGraphic" in2="effect1_dropShadow_2811_28332" result="shape"/>
</filter>
</defs>
</svg>
