<svg width="21" height="21" viewBox="0 0 21 21" fill="none" xmlns="http://www.w3.org/2000/svg">
<path d="M9.75822 12.368L7.94572 10.5555C7.79294 10.4027 7.60211 10.3299 7.37322 10.3371C7.14377 10.3438 6.95266 10.4235 6.79989 10.5763C6.64711 10.7291 6.57072 10.9235 6.57072 11.1596C6.57072 11.3957 6.64711 11.5902 6.79989 11.743L9.17489 14.118C9.32766 14.2707 9.52211 14.3471 9.75822 14.3471C9.99433 14.3471 10.1888 14.2707 10.3416 14.118L15.0707 9.3888C15.2235 9.23603 15.2966 9.04492 15.2899 8.81547C15.2827 8.58658 15.2027 8.39575 15.0499 8.24297C14.8971 8.09019 14.7027 8.0138 14.4666 8.0138C14.2304 8.0138 14.036 8.09019 13.8832 8.24297L9.75822 12.368ZM10.9249 19.2013C9.77211 19.2013 8.68878 18.9824 7.67489 18.5446C6.661 18.1074 5.77905 17.5138 5.02905 16.7638C4.27905 16.0138 3.68544 15.1319 3.24822 14.118C2.81044 13.1041 2.59155 12.0207 2.59155 10.868C2.59155 9.71519 2.81044 8.63186 3.24822 7.61797C3.68544 6.60408 4.27905 5.72214 5.02905 4.97214C5.77905 4.22214 6.661 3.62825 7.67489 3.19047C8.68878 2.75325 9.77211 2.53464 10.9249 2.53464C12.0777 2.53464 13.161 2.75325 14.1749 3.19047C15.1888 3.62825 16.0707 4.22214 16.8207 4.97214C17.5707 5.72214 18.1643 6.60408 18.6016 7.61797C19.0393 8.63186 19.2582 9.71519 19.2582 10.868C19.2582 12.0207 19.0393 13.1041 18.6016 14.118C18.1643 15.1319 17.5707 16.0138 16.8207 16.7638C16.0707 17.5138 15.1888 18.1074 14.1749 18.5446C13.161 18.9824 12.0777 19.2013 10.9249 19.2013ZM10.9249 17.5346C12.7721 17.5346 14.3452 16.8855 15.6441 15.5871C16.9424 14.2882 17.5916 12.7152 17.5916 10.868C17.5916 9.02075 16.9424 7.44769 15.6441 6.1488C14.3452 4.85047 12.7721 4.2013 10.9249 4.2013C9.07766 4.2013 7.50489 4.85047 6.20655 6.1488C4.90766 7.44769 4.25822 9.02075 4.25822 10.868C4.25822 12.7152 4.90766 14.2882 6.20655 15.5871C7.50489 16.8855 9.07766 17.5346 10.9249 17.5346Z" fill="#64FFB4"/>
</svg>
