<svg width="18" height="18" viewBox="0 0 18 18" fill="none" xmlns="http://www.w3.org/2000/svg">
<path d="M11.8431 9.65626V12.7188C11.8431 15.2708 10.8223 16.2917 8.27018 16.2917H5.20768C2.6556 16.2917 1.63477 15.2708 1.63477 12.7188V9.65626C1.63477 7.10418 2.6556 6.08334 5.20768 6.08334H8.27018C10.8223 6.08334 11.8431 7.10418 11.8431 9.65626Z" fill="white"/>
<path d="M12.6438 1.70834H9.58125C7.44157 1.70834 6.38329 2.43103 6.09682 4.16356C6.00597 4.71301 6.47062 5.17189 7.02753 5.17189H8.26875C11.3313 5.17189 12.7531 6.59376 12.7531 9.65626V10.8975C12.7531 11.4544 13.212 11.919 13.7614 11.8282C15.494 11.5417 16.2167 10.4834 16.2167 8.34376V5.28126C16.2167 2.72918 15.1958 1.70834 12.6438 1.70834Z" fill="white"/>
</svg>
