<svg xmlns="http://www.w3.org/2000/svg" width="21" height="22" viewBox="0 0 21 22" fill="none">
  <path d="M9.36719 2.97778C8.83675 2.97778 8.32805 3.20032 7.95297 3.59644C7.5779 3.99256 7.36719 4.52981 7.36719 5.09001V13.5389C7.36719 14.0991 7.5779 14.6364 7.95297 15.0325C8.32805 15.4286 8.83675 15.6511 9.36719 15.6511H15.3672C15.8976 15.6511 16.4063 15.4286 16.7814 15.0325C17.1565 14.6364 17.3672 14.0991 17.3672 13.5389V7.63946C17.3671 7.07931 17.1563 6.54215 16.7812 6.14612L14.3672 3.59666C13.9922 3.20052 13.4836 2.9779 12.9532 2.97778H9.36719Z" fill="white"/>
  <path d="M3.36719 9.31437C3.36719 8.75418 3.5779 8.21692 3.95297 7.8208C4.32805 7.42469 4.83675 7.20215 5.36719 7.20215V17.7633H13.3672C13.3672 18.3235 13.1565 18.8607 12.7814 19.2568C12.4063 19.653 11.8976 19.8755 11.3672 19.8755H5.36719C4.83675 19.8755 4.32805 19.653 3.95297 19.2568C3.5779 18.8607 3.36719 18.3235 3.36719 17.7633V9.31437Z" fill="white"/>
</svg>