<?xml version="1.0" encoding="UTF-8"?>
<svg xmlns="http://www.w3.org/2000/svg" xmlns:xlink="http://www.w3.org/1999/xlink" width="25px" height="24px" viewBox="0 0 24 24" version="1.1">
<defs>
<clipPath id="clip1">
  <path d="M 0.0078125 0 L 23.421875 0 L 23.421875 24 L 0.0078125 24 Z M 0.0078125 0 "/>
</clipPath>
</defs>
<g id="surface1">
<g clip-path="url(#clip1)" clip-rule="nonzero">
<path style=" stroke:none;fill-rule:nonzero;fill:rgb(100%,100%,100%);fill-opacity:1;" d="M 9.785156 23.878906 C 4.222656 22.859375 0.0078125 17.941406 0.0078125 12 C 0.0078125 5.398438 5.277344 0 11.714844 0 C 18.15625 0 23.421875 5.398438 23.421875 12 C 23.421875 17.941406 19.207031 22.859375 13.648438 23.878906 L 13.003906 23.339844 L 10.429688 23.339844 Z M 9.785156 23.878906 "/>
</g>
<path style=" stroke:none;fill-rule:nonzero;fill:rgb(8.627451%,8.627451%,8.627451%);fill-opacity:1;" d="M 16.28125 15.359375 L 16.808594 12 L 13.707031 12 L 13.707031 9.660156 C 13.707031 8.699219 14.058594 7.980469 15.460938 7.980469 L 16.984375 7.980469 L 16.984375 4.921875 C 16.164062 4.800781 15.226562 4.679688 14.410156 4.679688 C 11.714844 4.679688 9.84375 6.359375 9.84375 9.359375 L 9.84375 12 L 6.914062 12 L 6.914062 15.359375 L 9.84375 15.359375 L 9.84375 23.820312 C 10.488281 23.941406 11.128906 24 11.773438 24 C 12.417969 24 13.0625 23.941406 13.707031 23.820312 L 13.707031 15.359375 Z M 16.28125 15.359375 "/>
</g>
</svg>
