<svg width="651" height="844" viewBox="0 0 651 844" fill="none" xmlns="http://www.w3.org/2000/svg">
<mask id="mask0_2244_2442" style="mask-type:alpha" maskUnits="userSpaceOnUse" x="0" y="0" width="651" height="844">
<rect x="0.790039" y="0.375977" width="649.34" height="843.622" fill="#030303"/>
</mask>
<g mask="url(#mask0_2244_2442)">
<rect x="504.313" y="121.081" width="101.111" height="134.322" rx="50.5554" transform="rotate(17.6719 504.313 121.081)" fill="#121212" stroke="#030303" stroke-width="6.34467"/>
<rect x="613.359" y="30.5901" width="101.111" height="136.496" rx="50.5554" transform="rotate(114.683 613.359 30.5901)" fill="#121212" stroke="#030303" stroke-width="6.34467"/>
<rect x="678.892" y="101.672" width="111.979" height="111.98" rx="55.9897" transform="rotate(114.683 678.892 101.672)" fill="#121212" stroke="#030303" stroke-width="6.34467"/>
<rect x="738.37" y="167.955" width="100.651" height="100.651" rx="11.7312" transform="rotate(118.746 738.37 167.955)" fill="#121212" stroke="#030303" stroke-width="6.34467"/>
<path d="M536.232 184.976C542.905 186.764 548.513 187.47 548.758 186.552C549.004 185.635 543.794 183.443 537.122 181.655C530.45 179.867 524.842 179.161 524.596 180.078C524.35 180.995 529.56 183.188 536.232 184.976Z" stroke="#464646" stroke-width="1.9034" stroke-miterlimit="10" stroke-linecap="round" stroke-linejoin="round"/>
<path d="M542.778 200.832C532.069 194.039 517.523 192.011 515.074 195.143" stroke="#464646" stroke-width="1.9034" stroke-miterlimit="10" stroke-linecap="round" stroke-linejoin="round"/>
<path d="M548.759 186.552C548.759 186.552 557.639 227.982 527.068 219.179C496.191 211.517 524.597 180.078 524.597 180.078" stroke="#464646" stroke-width="1.9034" stroke-miterlimit="10" stroke-linecap="round" stroke-linejoin="round"/>
<path d="M514.781 195.409C514.423 201.618 549.584 203.644 549.941 197.435" stroke="#464646" stroke-width="1.9034" stroke-miterlimit="10" stroke-linecap="round" stroke-linejoin="round"/>
<path d="M604.638 113.41C613.325 113.41 620.367 112.078 620.367 110.436C620.367 108.793 613.325 107.462 604.638 107.462C595.951 107.462 588.909 108.793 588.909 110.436C588.909 112.078 595.951 113.41 604.638 113.41Z" stroke="#464646" stroke-width="1.9034" stroke-miterlimit="10" stroke-linecap="round" stroke-linejoin="round"/>
<path d="M620.367 110.436C620.528 111.334 620.613 112.259 620.613 113.203C620.613 121.907 613.46 128.963 604.638 128.963C595.815 128.963 588.663 121.907 588.663 113.203C588.663 112.259 588.747 111.334 588.909 110.436" stroke="#464646" stroke-width="1.9034" stroke-miterlimit="10" stroke-linecap="round" stroke-linejoin="round"/>
<path d="M604.638 129.021V148.519" stroke="#464646" stroke-width="1.9034" stroke-miterlimit="10" stroke-linecap="round" stroke-linejoin="round"/>
<path d="M604.638 150.867C610.546 150.867 615.335 149.816 615.335 148.519C615.335 147.222 610.546 146.171 604.638 146.171C598.73 146.171 593.94 147.222 593.94 148.519C593.94 149.816 598.73 150.867 604.638 150.867Z" stroke="#464646" stroke-width="1.9034" stroke-miterlimit="10" stroke-linecap="round" stroke-linejoin="round"/>
<path d="M620.262 116.483C620.262 116.483 617.63 115.998 607.977 119.157C594.229 123.658 588.909 115.998 588.909 115.998C588.909 115.998 596.777 113.222 610.347 118.411" stroke="#464646" stroke-width="1.9034" stroke-miterlimit="10" stroke-linecap="round" stroke-linejoin="round"/>
<path d="M521.371 21.5986C521.371 21.5986 527.974 24.9367 527.885 31.8049C527.865 33.309 528.417 34.7682 529.442 35.8692C531.335 37.9027 533.528 41.9148 530.058 47.9242C526.589 53.9336 522.018 54.0402 519.31 53.418C517.844 53.081 516.305 53.3326 515.012 54.1015C509.108 57.6127 502.916 53.5637 502.916 53.5637" stroke="#464646" stroke-width="1.9034" stroke-miterlimit="10" stroke-linecap="round" stroke-linejoin="round"/>
<path d="M514.632 39.0176C519.729 30.1892 522.758 22.3951 521.396 21.6089C520.034 20.8227 514.798 27.3422 509.701 36.1706C504.604 44.999 501.576 52.7931 502.938 53.5793C504.299 54.3654 509.535 47.8459 514.632 39.0176Z" stroke="#464646" stroke-width="1.9034" stroke-miterlimit="10" stroke-linecap="round" stroke-linejoin="round"/>
<path d="M530.058 47.9241L548.633 58.6481" stroke="#464646" stroke-width="1.9034" stroke-miterlimit="10" stroke-linecap="round" stroke-linejoin="round"/>
<path d="M550.769 59.8816C553.873 54.5062 555.432 49.5964 554.252 48.9152C553.072 48.2339 549.6 52.0393 546.496 57.4147C543.393 62.7901 541.833 67.6999 543.013 68.3812C544.193 69.0624 547.666 65.257 550.769 59.8816Z" stroke="#464646" stroke-width="1.9034" stroke-miterlimit="10" stroke-linecap="round" stroke-linejoin="round"/>
<path d="M526.492 26.5602C517.004 36.293 520.255 48.8496 509.764 55.5331C508.28 53.7243 513.156 43.1958 520.624 35.9823" stroke="#464646" stroke-width="1.9034" stroke-miterlimit="10" stroke-linecap="round" stroke-linejoin="round"/>
<rect x="-0.240182" y="91.0168" width="99.8132" height="132.624" rx="49.9066" transform="rotate(17.6719 -0.240182 91.0168)" fill="#121212" stroke="#030303" stroke-width="6.34467"/>
<rect x="107.415" y="1.58899" width="99.8132" height="134.771" rx="49.9066" transform="rotate(114.683 107.415 1.58899)" fill="#121212" stroke="#030303" stroke-width="6.34467"/>
<rect x="172.157" y="71.8121" width="110.551" height="110.551" rx="55.2753" transform="rotate(114.683 172.157 71.8121)" fill="#121212" stroke="#030303" stroke-width="6.34467"/>
<rect x="230.915" y="137.291" width="99.3587" height="99.3595" rx="11.7312" transform="rotate(118.746 230.915 137.291)" fill="#121212" stroke="#030303" stroke-width="6.34467"/>
<path d="M13.2006 -0.500328C13.2006 -0.500328 46.5483 -2.55674 31.5631 22.5768C16.1431 47.446 2.62492 16.8919 2.62492 16.8919" fill="#121212"/>
<path d="M13.2006 -0.500328C13.2006 -0.500328 46.5483 -2.55674 31.5631 22.5768C16.1431 47.446 2.62492 16.8919 2.62492 16.8919" stroke="#464646" stroke-width="1.9034" stroke-miterlimit="10" stroke-linecap="round" stroke-linejoin="round"/>
<path d="M9.5271 9.17734C12.4475 4.37461 14.0922 0.0417567 13.2007 -0.500356C12.3092 -1.04247 9.21898 2.41144 6.29859 7.21417C3.37819 12.0169 1.73346 16.3497 2.62499 16.8919C3.51652 17.434 6.60671 13.9801 9.5271 9.17734Z" fill="#121212" stroke="#464646" stroke-width="1.9034" stroke-miterlimit="10" stroke-linecap="round" stroke-linejoin="round"/>
<path d="M31.564 22.5769L42.0717 28.9664" stroke="#464646" stroke-width="1.9034" stroke-miterlimit="10" stroke-linecap="round" stroke-linejoin="round"/>
<path d="M44.3925 30.3779C47.9437 24.5379 49.7833 19.1717 48.5014 18.3922C47.2194 17.6127 43.3015 21.7151 39.7503 27.5551C36.1991 33.3952 34.3595 38.7614 35.6414 39.5409C36.9234 40.3204 40.8413 36.218 44.3925 30.3779Z" fill="#121212" stroke="#464646" stroke-width="1.9034" stroke-miterlimit="10" stroke-linecap="round" stroke-linejoin="round"/>
<path d="M24.5717 0.522278C24.5717 0.522278 21.5153 2.76383 19.7722 7.64279C19.1816 9.29546 18.742 11.2509 18.6227 13.5242C18.0337 24.7547 9.21165 27.0166 9.21165 27.0166C7.05542 21.6312 13.8814 11.9389 19.7722 7.64279" fill="#121212"/>
<path d="M24.5717 0.522277C24.5717 0.522277 21.5153 2.76383 19.7722 7.64279M19.7722 7.64279C19.1816 9.29546 18.742 11.2509 18.6227 13.5242C18.0337 24.7547 9.21165 27.0166 9.21165 27.0166C7.05542 21.6312 13.8814 11.9389 19.7722 7.64279Z" stroke="#464646" stroke-width="1.9034" stroke-miterlimit="10" stroke-linecap="round" stroke-linejoin="round"/>
<path d="M172.742 139.099C181.457 143.626 189.026 146.324 189.649 145.126C190.271 143.928 183.711 139.287 174.996 134.76C166.281 130.233 158.711 127.535 158.089 128.733C157.467 129.931 164.027 134.572 172.742 139.099Z" fill="#121212" stroke="#464646" stroke-width="1.9034" stroke-miterlimit="10" stroke-linecap="round" stroke-linejoin="round"/>
<path d="M189.549 145.314L172.733 154.177C171.088 155.044 169.203 155.344 167.37 155.031C165.634 154.735 164.034 153.904 162.794 152.654C161.484 151.334 160.645 149.619 160.409 147.775L157.99 128.921" fill="#121212"/>
<path d="M189.549 145.314L172.733 154.177C171.088 155.044 169.203 155.344 167.37 155.031C165.634 154.735 164.034 153.904 162.794 152.654C161.484 151.334 160.645 149.619 160.409 147.775L157.99 128.921" stroke="#464646" stroke-width="1.9034" stroke-miterlimit="10" stroke-linecap="round" stroke-linejoin="round"/>
<path d="M164.896 154.2L152.682 177.713" stroke="#464646" stroke-width="1.9034" stroke-miterlimit="10" stroke-linecap="round" stroke-linejoin="round"/>
<path d="M163.144 183.148C162.732 183.942 157.714 182.153 151.937 179.152C146.16 176.151 141.811 173.074 142.224 172.28C142.636 171.486 147.654 173.275 153.431 176.276C159.208 179.277 163.557 182.353 163.144 183.148Z" fill="#121212" stroke="#464646" stroke-width="1.9034" stroke-miterlimit="10" stroke-linecap="round" stroke-linejoin="round"/>
<path d="M158.97 136.574C161.163 136.25 165.776 138.089 170.204 143.995C175.001 150.393 181.046 149.781 182.724 148.913L182.723 148.915C181.057 146.191 173.498 140.886 167.484 140.863" fill="#121212"/>
<path d="M158.97 136.574C161.163 136.25 165.776 138.089 170.204 143.995C175.001 150.393 181.046 149.781 182.724 148.913L182.723 148.915C181.057 146.191 173.498 140.886 167.484 140.863" stroke="#464646" stroke-width="1.9034" stroke-miterlimit="10" stroke-linecap="round" stroke-linejoin="round"/>
<path d="M98.8493 83.3896C107.431 83.3896 114.389 82.0742 114.389 80.4516C114.389 78.829 107.431 77.5137 98.8493 77.5137C90.2672 77.5137 83.3101 78.829 83.3101 80.4516C83.3101 82.0742 90.2672 83.3896 98.8493 83.3896Z" fill="#121212" stroke="#464646" stroke-width="1.9034" stroke-miterlimit="10" stroke-linecap="round" stroke-linejoin="round"/>
<path d="M114.388 80.4517C114.548 81.3391 114.631 82.2526 114.631 83.1852C114.631 91.7846 107.565 98.7557 98.8492 98.7557C90.1332 98.7557 83.0674 91.7844 83.0674 83.1852C83.0674 82.2528 83.1506 81.3393 83.3099 80.4517" fill="#121212"/>
<path d="M114.388 80.4517C114.548 81.3391 114.631 82.2526 114.631 83.1852C114.631 91.7846 107.565 98.7557 98.8492 98.7557C90.1332 98.7557 83.0674 91.7844 83.0674 83.1852C83.0674 82.2528 83.1506 81.3393 83.3099 80.4517" stroke="#464646" stroke-width="1.9034" stroke-miterlimit="10" stroke-linecap="round" stroke-linejoin="round"/>
<path d="M98.8491 98.8126V118.075" stroke="#464646" stroke-width="1.9034" stroke-miterlimit="10" stroke-linecap="round" stroke-linejoin="round"/>
<path d="M98.8493 120.395C104.686 120.395 109.417 119.356 109.417 118.075C109.417 116.794 104.686 115.755 98.8493 115.755C93.0127 115.755 88.2812 116.794 88.2812 118.075C88.2812 119.356 93.0127 120.395 98.8493 120.395Z" fill="#121212" stroke="#464646" stroke-width="1.9034" stroke-miterlimit="10" stroke-linecap="round" stroke-linejoin="round"/>
<path d="M114.284 86.4261C114.284 86.4261 111.684 85.9465 102.149 89.0678C88.5658 93.5138 83.3101 85.9465 83.3101 85.9465C83.3101 85.9465 91.0831 83.204 104.49 88.3301" fill="#121212"/>
<path d="M114.284 86.4261C114.284 86.4261 111.684 85.9465 102.149 89.0678C88.5658 93.5138 83.3101 85.9465 83.3101 85.9465C83.3101 85.9465 91.0831 83.204 104.49 88.3301" stroke="#464646" stroke-width="1.9034" stroke-miterlimit="10" stroke-linecap="round" stroke-linejoin="round"/>
<path d="M33.3029 146.504C38.6214 147.929 43.1438 148.297 43.4039 147.326C43.6641 146.355 39.5636 144.413 34.2451 142.987C28.9267 141.562 24.4043 141.194 24.1441 142.165C23.8839 143.136 27.9845 145.079 33.3029 146.504Z" fill="#121212" stroke="#464646" stroke-width="1.9034" stroke-miterlimit="10" stroke-linecap="round" stroke-linejoin="round"/>
<path d="M24.144 142.165L19.1447 160.823C17.7196 166.142 20.8758 171.608 26.1942 173.033C31.5127 174.459 36.9794 171.302 38.4045 165.984L43.4039 147.326" fill="#121212"/>
<path d="M24.144 142.165L19.1447 160.823C17.7196 166.142 20.8758 171.608 26.1942 173.033C31.5127 174.459 36.9794 171.302 38.4045 165.984L43.4039 147.326" stroke="#464646" stroke-width="1.9034" stroke-miterlimit="10" stroke-linecap="round" stroke-linejoin="round"/>
<path d="M36.8282 160.038C26.4413 152.991 20.3829 156.205 20.3829 156.205C20.3829 156.205 20.065 158.873 28.983 160.557C36.559 161.987 40.5984 157.798 40.5984 157.798" fill="#121212"/>
<path d="M36.8282 160.038C26.4413 152.991 20.3829 156.205 20.3829 156.205C20.3829 156.205 20.065 158.873 28.983 160.557C36.559 161.987 40.5984 157.798 40.5984 157.798" stroke="#464646" stroke-width="1.9034" stroke-miterlimit="10" stroke-linecap="round" stroke-linejoin="round"/>
<path d="M26.1943 173.033L20.5891 193.952" stroke="#464646" stroke-width="1.9034" stroke-miterlimit="10" stroke-linecap="round" stroke-linejoin="round"/>
<path d="M20.1184 195.711C25.4368 197.136 29.9592 197.504 30.2194 196.533C30.4796 195.562 26.379 193.62 21.0606 192.195C15.7421 190.77 11.2197 190.401 10.9596 191.372C10.6994 192.343 14.7999 194.286 20.1184 195.711Z" fill="#121212" stroke="#464646" stroke-width="1.9034" stroke-miterlimit="10" stroke-linecap="round" stroke-linejoin="round"/>
</g>
<mask id="mask1_2244_2442" style="mask-type:alpha" maskUnits="userSpaceOnUse" x="0" y="0" width="651" height="541">
<rect x="0.790039" y="0.375977" width="649.34" height="539.849" fill="#FFCC4C"/>
</mask>
<g mask="url(#mask1_2244_2442)">
<mask id="mask2_2244_2442" style="mask-type:alpha" maskUnits="userSpaceOnUse" x="0" y="0" width="650" height="541">
<rect x="0.974609" y="0.375977" width="648.734" height="539.8" fill="#FFCC4C"/>
</mask>
<g mask="url(#mask2_2244_2442)">
<path d="M416.274 754.74L343.692 791.732C335.376 781.492 318.021 755.182 305.038 734.887C300.456 727.724 296.448 721.319 293.528 716.608C290.112 711.085 279.253 615.026 272.69 554.466C269.617 526.198 267.511 505.705 267.511 505.705L267.439 505.211L290.837 495.312C290.837 495.312 296.498 506.697 305.415 524.806C334.185 582.883 396.914 710.364 416.274 754.74Z" fill="#171717"/>
<path d="M305.416 524.808L274.401 552.913L272.691 554.468L270.199 556.727L251.621 507.9L267.512 505.707L267.44 505.212L290.838 495.314C290.838 495.314 296.5 506.698 305.416 524.808Z" fill="#171717"/>
<path d="M221.098 333.069C221.098 333.069 225.974 310.618 215.875 309.397C205.777 308.176 198.398 322.015 198.398 322.015C198.398 322.015 179.176 330.264 175.076 343.89C170.976 357.516 195.447 371.158 195.447 371.158L221.098 333.069Z" fill="#202020"/>
<path d="M305.038 734.886C305.104 735.34 305.177 735.835 305.202 736.294C307.015 753.63 308.165 783.147 308.925 794.994L232.653 806.124C224.778 754.177 199.048 601.802 197.641 576.576C195.892 545.546 197.021 515.486 197.021 515.486L251.62 507.897L267.511 505.705L274.4 552.911L288.333 636.564C288.333 636.564 299.964 685.394 305.038 734.886Z" fill="#1C1C1C"/>
<path d="M208.604 548.668C207.301 548.858 205.927 548.907 204.486 548.78C203.991 548.739 203.624 548.3 203.666 547.805C203.708 547.319 204.148 546.956 204.637 546.99C220.134 548.329 226.865 527.514 226.931 527.303C227.081 526.83 227.591 526.575 228.058 526.713C228.53 526.863 228.793 527.368 228.647 527.84C228.58 528.043 222.585 546.628 208.604 548.668Z" fill="white"/>
<path d="M304.788 735.514C304.305 735.584 303.853 735.254 303.774 734.769L273.44 552.577C273.388 552.277 273.499 551.966 273.73 551.76L292.846 534.709C293.215 534.377 293.783 534.408 294.116 534.781C294.448 535.153 294.412 535.718 294.04 536.051L275.292 552.77L305.542 734.478C305.621 734.963 305.293 735.428 304.804 735.511L304.788 735.514Z" fill="white"/>
<path d="M234.62 385.71C234.62 385.71 255.157 383.589 265.452 397.523C275.746 411.457 299.034 501.825 299.034 501.825C299.034 501.825 273.731 513.214 240.649 517.633C207.567 522.052 193.151 521.659 193.151 521.659L180.787 461.138C180.787 461.138 172.998 400.715 180.631 395.403C188.265 390.096 220.483 384.455 234.62 385.71Z" fill="white"/>
<path d="M199.204 372.745L204.053 392.358C204.053 392.358 206.22 395.608 219.6 395.053C228.377 394.69 231.928 391.124 231.928 391.124L228.282 381.487L224.713 372.092L202.867 372.657L199.204 372.745Z" fill="#FEC29E"/>
<path d="M202.869 372.649C203.051 373.174 203.409 373.754 203.908 374.401C210.72 383.112 223.24 382.258 228.285 381.48L224.716 372.085L202.869 372.649Z" fill="#292929"/>
<path d="M217.798 328.019C217.798 328.019 233.513 350.16 232.972 364.804C232.435 379.447 220.043 380.08 212.32 379.093C204.597 378.107 200.249 374.278 200.249 374.278C200.249 374.278 194.138 378.222 188.21 372.746C182.282 367.27 183.326 359.126 186.734 356.515C190.143 353.904 195.315 355.734 195.315 355.734L190.161 349.438C190.161 349.438 196.846 309.699 217.798 328.019Z" fill="#FEC29E"/>
<path d="M197.128 366.607C196.967 366.63 196.804 366.608 196.647 366.542L186.731 362.301C186.278 362.106 186.062 361.581 186.256 361.124C186.455 360.665 186.98 360.454 187.434 360.653L197.35 364.894C197.807 365.085 198.019 365.614 197.825 366.071C197.696 366.368 197.429 366.563 197.128 366.607Z" fill="#292929"/>
<path d="M189.466 368.43C189.112 368.482 188.742 368.313 188.554 367.978C188.31 367.546 188.466 367.001 188.898 366.757L194.051 363.862C194.482 363.618 195.031 363.774 195.271 364.206C195.515 364.638 195.359 365.183 194.927 365.427L189.775 368.322C189.678 368.378 189.574 368.415 189.466 368.43Z" fill="#292929"/>
<path d="M204.669 342.419C204.513 342.442 204.35 342.423 204.198 342.361C203.736 342.172 203.521 341.647 203.706 341.187C205.426 337.011 209.045 336.795 210.717 337.262C211.196 337.399 211.474 337.893 211.342 338.371C211.213 338.845 210.72 339.131 210.237 338.991C209.896 338.906 206.876 338.21 205.369 341.875C205.244 342.175 204.97 342.375 204.669 342.419Z" fill="#292929"/>
<path d="M222.479 336.933C222.302 336.959 222.113 336.931 221.94 336.843C219.687 335.69 217.991 337.339 217.922 337.413C217.573 337.767 217.01 337.773 216.656 337.42C216.302 337.072 216.291 336.509 216.639 336.155C217.548 335.223 219.996 333.826 222.763 335.241C223.204 335.467 223.38 336.006 223.154 336.451C223.012 336.72 222.76 336.892 222.479 336.933Z" fill="#292929"/>
<path d="M224.578 356.913C223.915 356.904 223.53 356.485 223.55 355.989C223.82 348.72 218.293 347.371 218.057 347.313C217.573 347.202 217.272 346.724 217.382 346.241C217.493 345.757 217.97 345.452 218.45 345.563C218.524 345.577 225.678 347.253 225.345 356.056C225.325 356.497 224.994 356.852 224.578 356.913Z" fill="#292929"/>
<path d="M224.679 346.382C224.316 346.435 223.941 346.258 223.756 345.915L221.5 341.709C221.264 341.272 221.429 340.73 221.866 340.494C222.292 340.263 222.846 340.426 223.082 340.863L225.338 345.069C225.575 345.506 225.409 346.048 224.972 346.285C224.879 346.336 224.778 346.368 224.679 346.382Z" fill="#292929"/>
<path d="M212.968 349.602C212.605 349.655 212.23 349.478 212.045 349.134L209.793 344.928C209.557 344.491 209.726 343.948 210.159 343.713C210.585 343.482 211.139 343.646 211.375 344.083L213.627 348.289C213.863 348.726 213.694 349.269 213.261 349.504C213.168 349.556 213.071 349.587 212.968 349.602Z" fill="#292929"/>
<path d="M221.099 333.069C221.099 333.069 218.126 329.633 213.48 330.775C208.833 331.916 206.96 336.046 206.96 336.046C206.96 336.046 210.989 343.774 205.743 349.748C200.496 355.722 195.319 355.733 195.319 355.733L190.327 355.168L185.265 348.959L194.858 330.557L209.68 316.68L220.435 322.837L221.099 333.069Z" fill="#202020"/>
<path d="M220.11 365.624C218.197 365.903 215.334 365.559 213.304 362.933C213.002 362.539 213.076 361.977 213.466 361.676C213.859 361.366 214.422 361.448 214.727 361.837C217.079 364.879 220.573 363.691 220.717 363.641C221.174 363.481 221.696 363.717 221.862 364.185C222.026 364.65 221.79 365.164 221.325 365.329C220.994 365.453 220.58 365.556 220.11 365.624Z" fill="#292929"/>
<path d="M98.4797 357.85C98.4797 357.85 93.155 343.983 84.5412 338.566C75.9274 333.149 66.2471 330.263 68.6827 335.844C71.1182 341.426 77.8063 350.151 77.8063 350.151L63.368 348.477C63.368 348.477 53.6918 345.59 46.8519 344.798C40.0121 344.007 38.6446 349.15 38.6446 349.15C38.6446 349.15 31.8048 348.358 29.2216 350.71C26.6384 353.062 29.2743 356.9 29.2743 356.9C29.2743 356.9 19.8513 358.461 24.4651 365.177C29.0789 371.893 49.5472 381.332 59.2281 384.223C68.9043 387.11 89.7289 386.871 89.7289 386.871C89.7289 386.871 108.652 388.203 98.4797 357.85Z" fill="#FEC29E"/>
<path d="M48.1302 368.524C47.8128 368.57 47.483 368.446 47.2783 368.168C46.9849 367.773 47.0669 367.209 47.4655 366.911L69.6891 350.464C70.0895 350.178 70.6513 350.248 70.9465 350.655C71.24 351.05 71.158 351.614 70.7594 351.912L48.5357 368.359C48.4134 368.445 48.2745 368.503 48.1302 368.524Z" fill="#1E1C1C"/>
<path d="M89.5262 368.566C89.4149 368.582 89.3005 368.578 89.1867 368.548C75.815 365.325 77.7706 352.15 77.7938 352.021C77.8707 351.538 78.3458 351.216 78.8215 351.273C79.3132 351.353 79.6451 351.81 79.5694 352.301C79.4913 352.775 77.8744 363.971 89.6092 366.798C90.0934 366.913 90.3918 367.4 90.2724 367.88C90.184 368.255 89.8807 368.514 89.5262 368.566Z" fill="#1E1C1C"/>
<path d="M352.418 353.145C352.418 353.145 357.209 339.085 365.613 333.345C374.014 327.606 383.577 324.349 381.356 330.021C379.135 335.692 372.785 344.665 372.785 344.665L387.152 342.443C387.152 342.443 396.71 339.187 403.517 338.134C410.32 337.083 411.883 342.168 411.883 342.168C411.883 342.168 418.685 341.117 421.359 343.367C424.028 345.617 421.542 349.555 421.542 349.555C421.542 349.555 431.018 350.753 426.663 357.642C422.308 364.53 402.215 374.742 392.652 377.999C383.093 381.255 362.277 381.812 362.277 381.812C362.277 381.812 343.414 383.866 352.418 353.145Z" fill="#FEC29E"/>
<path d="M403.364 361.874C403.149 361.905 402.923 361.858 402.727 361.723L379.892 346.136C379.485 345.859 379.378 345.298 379.655 344.887C379.932 344.48 380.493 344.369 380.905 344.654L403.74 360.24C404.147 360.517 404.254 361.079 403.977 361.49C403.832 361.709 403.603 361.839 403.364 361.874Z" fill="#1E1C1C"/>
<path d="M361.999 363.512C361.561 363.576 361.131 363.306 361.007 362.865C360.874 362.388 361.151 361.888 361.628 361.755C373.248 358.481 371.203 347.356 371.109 346.885C371.014 346.402 371.327 345.927 371.819 345.83C372.333 345.751 372.779 346.065 372.872 346.531C372.896 346.663 375.354 359.757 362.116 363.482C362.08 363.492 362.04 363.506 361.999 363.512Z" fill="#1E1C1C"/>
<path d="M66.0853 392.168C66.0853 392.168 95.4419 439.983 126.98 453.234C153.181 464.244 191.535 458.61 191.535 458.61L202.739 388.552C202.739 388.552 155.758 393.98 141.456 386.29C127.15 378.597 103.449 360.707 103.449 360.707L66.0853 392.168Z" fill="white"/>
<path d="M142.94 408.519C141.736 408.695 141.036 408.166 140.663 407.689C138.012 404.32 143.452 390.301 144.567 387.524C144.719 387.152 145.094 386.924 145.496 386.963C145.893 387.002 146.215 387.304 146.285 387.698C146.389 388.294 148.82 402.268 145.471 406.904C144.805 407.826 143.954 408.371 142.94 408.519ZM145.006 391.43C142.788 397.607 140.825 404.992 142.072 406.579C142.139 406.666 142.252 406.805 142.681 406.742C143.204 406.666 143.638 406.375 144.013 405.857C145.89 403.255 145.564 396.229 145.006 391.43Z" fill="#161616"/>
<path d="M243.8 386.008C243.8 386.008 275.785 392.966 302.235 387.797C328.686 382.628 343.908 352.886 343.908 352.886L382.875 385.361C382.875 385.361 369.563 435.41 328.62 451.687C287.672 467.966 249.995 445.859 249.995 445.859L243.8 386.008Z" fill="white"/>
<path d="M316.561 400.158C315.564 400.303 314.607 400.123 313.702 399.611C309.325 397.138 307.991 387.366 307.935 386.949C307.894 386.609 308.042 386.272 308.326 386.083C308.611 385.899 308.985 385.89 309.278 386.054C311.151 387.149 320.488 392.814 320.242 396.989C320.194 397.813 319.764 398.966 317.987 399.739C317.504 399.953 317.027 400.09 316.561 400.158ZM310.05 388.636C310.709 391.82 312.176 396.684 314.586 398.05C315.403 398.512 316.281 398.523 317.266 398.093C318.407 397.598 318.433 397.059 318.446 396.885C318.566 394.909 314.038 391.204 310.05 388.636Z" fill="#161616"/>
<path d="M284.866 457.759C284.433 457.822 284.002 457.557 283.875 457.116L274.929 426.366C274.788 425.894 275.064 425.391 275.541 425.254C276.029 425.136 276.521 425.389 276.654 425.87L285.601 456.62C285.741 457.092 285.465 457.596 284.988 457.733C284.948 457.743 284.907 457.753 284.866 457.759Z" fill="#161616"/>
<path d="M221.812 396.016C212.334 397.399 204.119 393.389 203.655 393.154C203.211 392.937 203.03 392.395 203.252 391.95C203.469 391.505 204.006 391.317 204.456 391.547C204.606 391.621 219.284 398.773 231.422 390.374C231.825 390.1 232.389 390.19 232.673 390.604C232.956 391.013 232.852 391.571 232.443 391.854C228.943 394.272 225.292 395.508 221.812 396.016Z" fill="#161616"/>
<path d="M199.687 400.24C199.464 400.273 199.229 400.219 199.036 400.078C198.632 399.792 198.541 399.228 198.828 398.824L201.757 394.717C202.047 394.313 202.607 394.222 203.011 394.509C203.415 394.795 203.505 395.359 203.219 395.763L200.29 399.87C200.14 400.081 199.918 400.206 199.687 400.24Z" fill="#161616"/>
<path d="M211.838 406.348C211.767 406.358 211.692 406.361 211.619 406.35C211.124 406.305 210.765 405.864 210.811 405.369L211.329 400.119C211.379 399.627 211.825 399.251 212.31 399.315C212.805 399.36 213.165 399.805 213.119 400.296L212.6 405.542C212.561 405.969 212.233 406.29 211.838 406.348Z" fill="#161616"/>
<path d="M228.593 403.903C228.25 403.953 227.896 403.803 227.703 403.49L225.153 399.407C224.89 398.987 225.015 398.434 225.436 398.17C225.852 397.903 226.409 398.028 226.673 398.453L229.222 402.536C229.486 402.956 229.36 403.509 228.94 403.773C228.832 403.843 228.712 403.886 228.593 403.903Z" fill="#161616"/>
<path d="M238.095 397.348C237.938 397.371 237.771 397.349 237.614 397.287L232.849 395.271C232.391 395.077 232.179 394.552 232.37 394.095C232.563 393.633 233.094 393.433 233.546 393.616L238.311 395.628C238.769 395.822 238.98 396.347 238.79 396.804C238.67 397.108 238.396 397.304 238.095 397.348Z" fill="#161616"/>
<path d="M73.2679 403.535C72.9752 403.578 72.6697 403.475 72.4621 403.236C72.1375 402.858 72.1735 402.297 72.5461 401.964L112.493 367.082C112.867 366.762 113.433 366.802 113.76 367.167C114.084 367.544 114.048 368.106 113.676 368.438L73.7292 403.32C73.5911 403.441 73.4328 403.511 73.2679 403.535Z" fill="#161616"/>
<path d="M107.015 374.067C106.764 374.104 106.497 374.034 106.294 373.853L97.3521 366.016C96.9805 365.692 96.9434 365.12 97.2681 364.749C97.5982 364.385 98.1643 364.34 98.5359 364.665L107.477 372.501C107.849 372.826 107.886 373.397 107.561 373.769C107.413 373.938 107.222 374.037 107.015 374.067Z" fill="#161616"/>
<path d="M95.949 383.731C95.6686 383.772 95.3684 383.677 95.1586 383.451L87.0012 374.611C86.6654 374.244 86.6885 373.68 87.0516 373.341C87.4194 373.005 87.9822 373.024 88.3221 373.391L96.4801 382.235C96.8159 382.603 96.7928 383.166 96.4297 383.505C96.2881 383.631 96.1221 383.706 95.949 383.731Z" fill="#161616"/>
<path d="M84.2195 393.979C83.898 394.026 83.5635 393.898 83.3623 393.616L76.1507 383.611C75.8607 383.211 75.951 382.646 76.3549 382.356C76.75 382.062 77.3148 382.153 77.61 382.56L84.8216 392.565C85.1115 392.965 85.0213 393.529 84.6174 393.82C84.4951 393.905 84.3597 393.959 84.2195 393.979Z" fill="#161616"/>
<path d="M377.196 401.728C376.936 401.766 376.664 401.692 376.455 401.5L336.27 364.314C335.905 363.976 335.885 363.406 336.224 363.041C336.554 362.677 337.126 362.648 337.492 362.991L377.677 400.176C378.042 400.514 378.061 401.08 377.724 401.449C377.578 401.605 377.394 401.7 377.196 401.728Z" fill="#161616"/>
<path d="M345.706 372.591C345.512 372.62 345.309 372.582 345.13 372.482C344.698 372.233 344.55 371.682 344.799 371.254L351.568 359.47C351.816 359.03 352.36 358.896 352.795 359.135C353.227 359.384 353.375 359.935 353.126 360.363L346.357 372.147C346.213 372.399 345.97 372.553 345.706 372.591Z" fill="#161616"/>
<path d="M355.413 380.944C355.236 380.97 355.051 380.942 354.879 380.858C354.434 380.636 354.253 380.094 354.479 379.649L360.743 367.176C360.969 366.731 361.508 366.56 361.948 366.777C362.393 366.999 362.569 367.542 362.348 367.987L356.083 380.459C355.95 380.727 355.694 380.903 355.413 380.944Z" fill="#161616"/>
<path d="M366.945 392.246C366.792 392.268 366.634 392.249 366.482 392.191C366.022 392.01 365.798 391.486 365.979 391.022L371.781 376.474C371.967 376.018 372.485 375.79 372.946 375.976C373.406 376.161 373.63 376.68 373.449 377.145L367.647 391.692C367.527 391.996 367.254 392.2 366.945 392.246Z" fill="#161616"/>
<path d="M237.802 506.719C212.657 510.388 191.29 510.803 190.908 510.812C190.412 510.817 190.005 510.426 189.996 509.93C189.99 509.43 190.376 509.041 190.882 509.018C191.558 509.008 259.375 507.68 295.392 488.812C295.816 488.569 296.373 488.749 296.606 489.19C296.834 489.629 296.665 490.171 296.226 490.4C280.118 498.839 257.769 503.805 237.802 506.719Z" fill="#161616"/>
<path d="M202.898 522.284C202.473 522.346 202.053 522.092 201.915 521.67L198.123 509.878C197.97 509.403 198.229 508.898 198.703 508.745C199.148 508.591 199.679 508.855 199.832 509.325L203.624 521.117C203.778 521.592 203.519 522.097 203.044 522.25C202.992 522.266 202.947 522.277 202.898 522.284Z" fill="#161616"/>
<path d="M219.079 521.041C218.65 521.104 218.225 520.846 218.09 520.411L214.711 509.35C214.567 508.878 214.834 508.372 215.31 508.231C215.794 508.085 216.287 508.345 216.433 508.829L219.812 519.89C219.956 520.362 219.689 520.868 219.213 521.009C219.169 521.028 219.124 521.035 219.079 521.041Z" fill="#161616"/>
<path d="M233.958 518.871C233.48 518.941 233.028 518.615 232.945 518.134L230.977 506.868C230.893 506.379 231.217 505.915 231.705 505.827C232.208 505.753 232.66 506.079 232.743 506.559L234.711 517.826C234.795 518.315 234.471 518.779 233.983 518.867C233.975 518.868 233.966 518.87 233.958 518.871Z" fill="#161616"/>
<path d="M250.223 516.501C249.786 516.565 249.355 516.296 249.232 515.855L246.068 504.762C245.931 504.285 246.208 503.786 246.689 503.653C247.133 503.55 247.662 503.793 247.799 504.274L250.963 515.366C251.1 515.843 250.823 516.342 250.342 516.476C250.306 516.489 250.265 516.495 250.223 516.501Z" fill="#161616"/>
<path d="M265.349 513.166C264.859 513.237 264.4 512.896 264.329 512.405L262.838 502.189C262.766 501.698 263.108 501.24 263.599 501.168C264.089 501.097 264.547 501.438 264.619 501.929L266.11 512.145C266.181 512.636 265.84 513.094 265.349 513.166Z" fill="#161616"/>
<path d="M278.935 509.977C278.481 510.043 278.057 509.73 277.991 509.277L276.266 497.457C276.2 497.003 276.513 496.583 276.971 496.516C277.424 496.45 277.849 496.762 277.915 497.216L279.64 509.036C279.702 509.49 279.388 509.911 278.935 509.977Z" fill="#161616"/>
<path d="M292.185 505.529C291.707 505.598 291.255 505.273 291.173 504.792L289.042 492.56C288.954 492.071 289.282 491.607 289.77 491.519C290.201 491.355 290.724 491.763 290.808 492.252L292.938 504.484C293.026 504.972 292.698 505.437 292.21 505.525C292.202 505.526 292.193 505.527 292.185 505.529Z" fill="#161616"/>
<path d="M309.996 284.899L320.58 357.749C320.989 360.552 323.889 362.448 327.064 361.985L443.913 344.99C447.087 344.527 449.329 341.884 448.92 339.081L438.336 266.231C437.927 263.429 435.027 261.532 431.852 261.995L315.004 278.99C311.833 279.453 309.592 282.1 309.996 284.899Z" fill="#FFBE1D"/>
<path d="M353.981 278.384L364.581 351.346C364.991 354.153 367.326 356.135 369.812 355.772L461.193 342.482C463.671 342.121 465.355 339.555 464.946 336.749L454.345 263.787C453.936 260.98 451.592 258.999 449.114 259.361L357.734 272.65C355.247 273.013 353.571 275.577 353.981 278.384Z" fill="#D7A21D"/>
<path d="M415.232 264.499L398.246 266.978L410.343 349.879L427.329 347.401L415.232 264.499Z" fill="#B58610"/>
<path d="M336.66 275.918L324.819 277.646L336.917 360.548L348.757 358.82L336.66 275.918Z" fill="#B58610"/>
<path d="M454.563 326.309C455.157 326.223 455.569 325.67 455.483 325.08L448.782 278.988C448.696 278.394 448.143 277.982 447.553 278.068C446.96 278.155 446.548 278.707 446.634 279.297L453.334 325.39C453.421 325.983 453.974 326.395 454.563 326.309Z" fill="white"/>
<path d="M314.774 181.074C314.432 181.183 306.237 183.803 296.703 185.496C282.962 187.937 273.893 187.206 268.974 183.273C266.918 181.626 264.565 178.568 265.036 173.354C265.666 166.39 269.287 163.073 272.215 161.509C281.472 156.578 297.242 162.083 306.74 166.312C303.71 155.392 300.14 137.633 306.336 130.332C308.024 128.341 311.171 126.163 316.577 127.083C321.117 127.855 324.529 130.266 326.443 134.065C332.547 146.168 321.311 169.377 319.712 172.562L317.008 179.031C316.819 179.48 316.545 179.879 316.207 180.212C315.806 180.601 315.318 180.901 314.774 181.074ZM272.246 174.004C272.054 176.153 272.77 177.039 273.496 177.622C278.578 181.692 296.034 178.942 308.82 175.313C298.713 170.158 282.407 164.281 275.614 167.9C275.191 168.124 274.72 168.424 274.263 168.874C273.346 169.778 272.49 171.289 272.246 174.004ZM311.859 135.015C308.225 139.294 310.872 154.715 314.429 166.835C318.61 157.7 323.099 143.505 319.977 137.322C319.428 136.23 318.351 134.729 315.365 134.221C313.305 133.871 312.461 134.404 312.052 134.802C311.975 134.878 311.909 134.954 311.859 135.015Z" fill="#FFBE1D"/>
<path d="M240.74 248.897L255.516 263.906C256.985 265.395 259.38 265.415 260.866 263.95L357.379 168.915C358.868 167.446 358.888 165.051 357.42 163.562L342.644 148.554C341.178 147.067 338.786 147.05 337.293 148.515L240.781 243.55C239.295 245.016 239.275 247.411 240.74 248.897Z" fill="#E1AE2D"/>
<path d="M271.197 218.906L285.974 233.914C287.442 235.404 289.615 235.644 290.822 234.453L369.413 157.067C370.626 155.87 370.421 153.698 368.953 152.202L354.176 137.194C352.714 135.71 350.541 135.471 349.327 136.667L270.737 214.053C269.53 215.244 269.735 217.423 271.197 218.906Z" fill="#FFCE55"/>
<path d="M318.8 166.041L306.575 178.092L327.011 198.824L339.237 186.773L318.8 166.041Z" fill="#B58610"/>
<path d="M262.564 222.091L254.042 230.491L274.139 250.879L282.661 242.479L262.564 222.091Z" fill="#B58610"/>
<path d="M397.925 262.789C401.406 259.821 404.886 256.853 408.366 253.886C414.469 248.682 420.66 243.378 425.02 236.648C427.01 233.576 428.606 229.641 427.004 226.351C425.757 223.793 422.567 222.364 419.828 223.137C417.091 223.909 415.118 226.796 415.393 229.628" stroke="#94B9DE" stroke-width="1.23333" stroke-miterlimit="10"/>
<path d="M433.09 239.592L428.631 257.761L444.026 242.375L433.09 239.592Z" fill="#CC8911"/>
<path d="M378.253 165.929L404.997 124.542L407.119 128.284L378.253 165.929Z" fill="#DEB843"/>
<path d="M366.15 243.381C365.048 242.895 340.457 201.389 340.457 201.389L336.488 204.396L366.15 243.381Z" fill="#DEB843"/>
<path d="M380.756 143.102L384.552 130.755L379.873 130.146L380.756 143.102Z" fill="#94B9DE"/>
<path d="M459.406 213.749L486.138 182.032L491.229 187.1L459.406 213.749Z" fill="#94B9DE"/>
<path d="M461.065 231.554C462.796 231.436 499.431 217.811 499.431 217.811L499.941 225.303L461.065 231.554Z" fill="#C1664A"/>
<path d="M394.4 185.76C394.873 177.5 399.263 169.549 406.002 164.748C408.13 163.232 410.65 161.981 413.25 162.248C415.849 162.515 418.356 164.822 418.015 167.413C417.665 170.062 414.348 171.635 411.856 170.668C409.364 169.702 407.949 166.845 408.107 164.177C408.264 161.51 409.734 159.066 411.592 157.146C416.918 151.643 425.853 150.031 432.766 153.326" stroke="#DEB843" stroke-width="1.23333" stroke-miterlimit="10"/>
<path d="M464.969 192.152C470.631 185.105 477.288 178.859 484.682 173.657C487.194 171.889 489.848 170.216 492.822 169.443C495.795 168.669 499.166 168.909 501.646 170.722C504.126 172.536 505.375 176.129 503.975 178.864C502.973 180.821 500.662 182.057 498.495 181.683C496.329 181.308 494.535 179.272 494.554 177.073C494.574 174.875 496.505 172.831 498.703 172.798" stroke="#94B9DE" stroke-width="1.23333" stroke-miterlimit="10"/>
<path d="M356.795 251.697C354.023 242.309 346.486 234.465 337.215 231.321C334.949 230.553 332.531 230.048 330.165 230.404C327.8 230.761 325.488 232.098 324.427 234.242C323.451 236.215 323.688 238.725 324.996 240.496C326.305 242.267 328.62 243.229 330.802 242.93C332.781 242.659 334.675 241.251 335.107 239.3C335.538 237.348 334.11 235.07 332.115 234.957C330.119 234.844 328.437 237.43 329.597 239.057" stroke="#94B9DE" stroke-width="0.822222" stroke-miterlimit="10"/>
<path d="M307.003 265.25C300.825 263.358 294.113 265.262 288.268 268.016C286.161 269.009 284.081 270.13 282.363 271.703C280.645 273.276 279.301 275.352 278.982 277.66C278.664 279.967 279.506 282.496 281.396 283.857C283.287 285.218 286.212 285.102 287.748 283.349C289.283 281.597 288.799 278.386 286.675 277.429" stroke="#94B9DE" stroke-width="1.23333" stroke-miterlimit="10"/>
<path d="M458.41 243.326C468.644 242.25 479.293 246.58 485.874 254.493C487.884 256.911 489.573 259.763 489.813 262.898C490.052 266.034 488.516 269.455 485.613 270.662C482.709 271.87 478.727 269.965 478.485 266.83C478.255 263.852 481.317 261.43 484.302 261.301C487.286 261.172 490.078 262.692 492.574 264.333C500.824 269.755 507.845 277.037 512.964 285.478" stroke="#94B9DE" stroke-width="1.23333" stroke-miterlimit="10"/>
<path d="M411.377 137.164L412.419 139.756L415.207 139.566L413.063 141.359L414.105 143.951L411.739 142.466L409.595 144.259L410.276 141.548L407.909 140.063L410.696 139.874L411.377 137.164Z" fill="#94B9DE"/>
<path d="M440.258 199.457L441.299 202.049L444.087 201.859L441.943 203.651L442.986 206.244L440.619 204.759L438.475 206.551L439.156 203.841L436.789 202.356L439.577 202.166L440.258 199.457Z" fill="#94B9DE"/>
<path d="M466.506 253.554L467.548 256.147L470.336 255.957L468.192 257.749L469.234 260.342L466.868 258.857L464.724 260.649L465.405 257.939L463.038 256.455L465.825 256.265L466.506 253.554Z" fill="#EEC430"/>
<path d="M296.077 238.513L297.825 240.693L300.438 239.705L298.904 242.041L300.652 244.222L297.956 243.485L296.423 245.82L296.291 243.029L293.596 242.292L296.209 241.304L296.077 238.513Z" fill="#94B9DE"/>
<path d="M328.928 211.81L329.97 214.402L332.758 214.212L330.614 216.004L331.657 218.597L329.289 217.112L327.146 218.904L327.826 216.194L325.46 214.709L328.248 214.519L328.928 211.81Z" fill="#EEC430"/>
<path d="M496.188 196.111L497.231 198.704L500.018 198.514L497.874 200.305L498.917 202.898L496.55 201.413L494.406 203.206L495.087 200.495L492.72 199.011L495.508 198.821L496.188 196.111Z" fill="#EEC430"/>
<path d="M387.096 257.105L388.138 259.697L390.926 259.507L388.782 261.3L389.824 263.892L387.457 262.407L385.314 264.199L385.995 261.49L383.627 260.005L386.415 259.815L387.096 257.105Z" fill="#EEC430"/>
<path d="M426.282 110.236L428.647 116.121L434.975 115.69L430.109 119.758L432.475 125.643L427.102 122.273L422.236 126.341L423.781 120.189L418.409 116.819L424.737 116.388L426.282 110.236Z" fill="#C1664A"/>
<path d="M384.638 192.94L386.329 197.145L390.85 196.837L387.373 199.744L389.064 203.949L385.224 201.54L381.747 204.447L382.852 200.052L379.013 197.643L383.534 197.335L384.638 192.94Z" fill="#C1664A"/>
<path d="M454.017 161.173L455.479 164.81L459.389 164.544L456.382 167.058L457.844 170.695L454.524 168.612L451.516 171.126L452.472 167.324L449.151 165.241L453.061 164.975L454.017 161.173Z" fill="#9873FF"/>
<path d="M357.171 195.842L358.632 199.479L362.543 199.213L359.536 201.727L360.998 205.364L357.677 203.281L354.67 205.795L355.625 201.994L352.305 199.91L356.215 199.644L357.171 195.842Z" fill="#9873FF"/>
<path d="M308.125 273.75L307.628 274.421L289.083 299.456C289.083 299.456 295.75 300.179 295.984 299.486" fill="#EEC430"/>
<path d="M272.435 267.647L258.096 273.601L261.629 277.202L272.435 267.647Z" fill="#9873FF"/>
<path d="M398.557 231.231L403.822 185.425L410.211 188.406L398.557 231.231Z" fill="#9873FF"/>
<path d="M445.861 220.029L452.625 205.419L455.622 207.37L445.861 220.029Z" fill="#9873FF"/>
<path d="M497.667 237.871L523.5 249.475L521.653 255.505L497.667 237.871Z" fill="#9873FF"/>
<path d="M318.844 245.655C318.309 245.115 306.341 240.444 306.341 240.444L306.741 245.261L318.844 245.655Z" fill="#C1664A"/>
<path d="M276.371 296.083L262.816 308.136L268.465 309.374L276.371 296.083Z" fill="#C1664A"/>
<path d="M375.919 266.847C373.717 264.25 371.523 261.569 370.22 258.425C368.917 255.28 368.609 251.556 370.178 248.534C371.747 245.514 375.502 243.548 378.709 244.688C380.449 245.306 381.91 246.899 381.995 248.744C382.08 250.588 380.479 252.449 378.638 252.314C377.422 252.224 376.37 251.345 375.777 250.281C375.183 249.216 374.976 247.982 374.84 246.771C374.143 240.545 375.106 234.141 377.603 228.396" stroke="#C1664A" stroke-width="1.23333" stroke-miterlimit="10"/>
<path d="M345.397 271.089C344.465 268.606 343.534 266.122 342.603 263.639C341.96 261.922 341.299 260.174 340.157 258.738C339.016 257.302 337.296 256.204 335.464 256.276C333.631 256.347 331.834 257.881 331.893 259.714C331.922 260.601 332.412 261.495 333.217 261.866C334.023 262.238 335.112 261.965 335.536 261.185C336.006 260.322 335.539 259.189 334.758 258.591C333.977 257.994 332.97 257.799 332.002 257.623C326.447 256.607 320.892 255.591 315.337 254.576" stroke="#DEB843" stroke-width="1.23333" stroke-miterlimit="10"/>
<rect x="101.692" y="538.74" width="443.633" height="19.5583" fill="#373737"/>
</g>
<rect x="101.4" y="538.79" width="443.633" height="19.5583" fill="#373737"/>
</g>
</svg>
