<svg width="409" height="867" viewBox="0 0 409 867" fill="none" xmlns="http://www.w3.org/2000/svg">
<mask id="mask0_2272_41042" style="mask-type:alpha" maskUnits="userSpaceOnUse" x="0" y="0" width="409" height="838">
<rect x="0.0351562" width="408.942" height="837.289" rx="11" fill="#030303"/>
</mask>
<g mask="url(#mask0_2272_41042)">
<g opacity="0.5">
<rect x="-13.9615" y="33.3863" width="49.2902" height="65.9322" rx="24.6451" transform="rotate(17.6719 -13.9615 33.3863)" fill="#121212" stroke="#030303" stroke-width="4.55497"/>
<rect x="39.3228" y="-12.4847" width="49.2902" height="67.0216" rx="24.6451" transform="rotate(114.683 39.3228 -12.4847)" fill="#121212" stroke="#030303" stroke-width="4.55497"/>
<rect x="72.1607" y="23.134" width="54.7364" height="54.7368" rx="27.3682" transform="rotate(114.683 72.1607 23.134)" fill="#121212" stroke="#030303" stroke-width="4.55497"/>
<rect x="101.943" y="56.2819" width="49.0597" height="49.06" rx="8.42208" transform="rotate(118.746 101.943 56.2819)" fill="#121212" stroke="#030303" stroke-width="4.55497"/>
<path d="M-7.57851 -13.8728C-7.57851 -13.8728 9.33603 -14.9159 1.73525 -2.16768C-6.08603 10.4464 -12.9427 -5.05117 -12.9427 -5.05117" fill="#121212"/>
<path d="M-7.57851 -13.8728C-7.57851 -13.8728 9.33603 -14.9159 1.73525 -2.16768C-6.08603 10.4464 -12.9427 -5.05117 -12.9427 -5.05117" stroke="#464646" stroke-width="1.36649" stroke-miterlimit="10" stroke-linecap="round" stroke-linejoin="round"/>
<path d="M1.73608 -2.16748L7.06581 1.07337" stroke="#464646" stroke-width="1.36649" stroke-miterlimit="10" stroke-linecap="round" stroke-linejoin="round"/>
<path d="M8.24273 1.78897C10.0439 -1.17322 10.977 -3.89506 10.3268 -4.29043C9.67659 -4.68581 7.68932 -2.60499 5.8881 0.357191C4.08688 3.31938 3.15381 6.04122 3.80402 6.43659C4.45424 6.83197 6.44151 4.75116 8.24273 1.78897Z" fill="#121212" stroke="#464646" stroke-width="1.36649" stroke-miterlimit="10" stroke-linecap="round" stroke-linejoin="round"/>
<path d="M-1.81089 -13.354C-1.81089 -13.354 -3.36115 -12.217 -4.24528 -9.74236C-4.54483 -8.90409 -4.76782 -7.91226 -4.82831 -6.75918C-5.12705 -1.0629 -9.60177 0.0843595 -9.60177 0.0843595C-10.6955 -2.64717 -7.2332 -7.56327 -4.24528 -9.74236" fill="#121212"/>
<path d="M-1.81089 -13.354C-1.81089 -13.354 -3.36115 -12.217 -4.24528 -9.74236M-4.24528 -9.74236C-4.54483 -8.90409 -4.76782 -7.91226 -4.82831 -6.75918C-5.12705 -1.0629 -9.60177 0.0843596 -9.60177 0.0843596C-10.6955 -2.64717 -7.2332 -7.56327 -4.24528 -9.74236Z" stroke="#464646" stroke-width="1.36649" stroke-miterlimit="10" stroke-linecap="round" stroke-linejoin="round"/>
<path d="M73.3439 56.9343C77.7643 59.2305 81.6036 60.5993 81.9192 59.9917C82.2349 59.384 78.9073 57.03 74.487 54.7338C70.0666 52.4376 66.2273 51.0688 65.9116 51.6764C65.596 52.2841 68.9235 54.6381 73.3439 56.9343Z" fill="#121212" stroke="#464646" stroke-width="1.36649" stroke-miterlimit="10" stroke-linecap="round" stroke-linejoin="round"/>
<path d="M81.8692 60.0872L73.3396 64.5824C72.5053 65.0221 71.5492 65.1744 70.6195 65.0157C69.7389 64.8654 68.9274 64.4438 68.2981 63.8098C67.6337 63.1405 67.2086 62.2706 67.0885 61.3352L65.8616 51.772" fill="#121212"/>
<path d="M81.8692 60.0872L73.3396 64.5824C72.5053 65.0221 71.5492 65.1744 70.6195 65.0157C69.7389 64.8654 68.9274 64.4438 68.2981 63.8098C67.6337 63.1405 67.2086 62.2706 67.0885 61.3352L65.8616 51.772" stroke="#464646" stroke-width="1.36649" stroke-miterlimit="10" stroke-linecap="round" stroke-linejoin="round"/>
<path d="M69.3643 64.5942L63.1692 76.5204" stroke="#464646" stroke-width="1.36649" stroke-miterlimit="10" stroke-linecap="round" stroke-linejoin="round"/>
<path d="M68.4764 79.277C68.2671 79.6799 65.7222 78.7724 62.7919 77.2503C59.8616 75.7281 57.6559 74.1677 57.8651 73.7649C58.0743 73.3621 60.6193 74.2696 63.5496 75.7917C66.4797 77.3138 68.6856 78.8742 68.4764 79.277Z" fill="#121212" stroke="#464646" stroke-width="1.36649" stroke-miterlimit="10" stroke-linecap="round" stroke-linejoin="round"/>
<path d="M66.3587 55.654C67.4713 55.4897 69.8111 56.4226 72.0569 59.418C74.4901 62.6634 77.556 62.3526 78.4073 61.9127L78.4069 61.9135C77.5618 60.5318 73.7275 57.8412 70.6772 57.8294" fill="#121212"/>
<path d="M66.3587 55.654C67.4713 55.4897 69.8111 56.4226 72.0569 59.418C74.4901 62.6634 77.556 62.3526 78.4073 61.9127L78.4069 61.9135C77.5618 60.5318 73.7275 57.8412 70.6772 57.8294" stroke="#464646" stroke-width="1.36649" stroke-miterlimit="10" stroke-linecap="round" stroke-linejoin="round"/>
<path d="M35.864 28.6781C40.217 28.6781 43.7458 28.0109 43.7458 27.1879C43.7458 26.3649 40.217 25.6978 35.864 25.6978C31.511 25.6978 27.9822 26.3649 27.9822 27.1879C27.9822 28.0109 31.511 28.6781 35.864 28.6781Z" fill="#121212" stroke="#464646" stroke-width="1.36649" stroke-miterlimit="10" stroke-linecap="round" stroke-linejoin="round"/>
<path d="M43.746 27.188C43.8268 27.6381 43.869 28.1014 43.869 28.5745C43.869 32.9362 40.2851 36.4721 35.8642 36.4721C31.4433 36.4721 27.8594 32.9361 27.8594 28.5745C27.8594 28.1015 27.9016 27.6382 27.9824 27.188" fill="#121212"/>
<path d="M43.746 27.188C43.8268 27.6381 43.869 28.1014 43.869 28.5745C43.869 32.9362 40.2851 36.4721 35.8642 36.4721C31.4433 36.4721 27.8594 32.9361 27.8594 28.5745C27.8594 28.1015 27.9016 27.6382 27.9824 27.188" stroke="#464646" stroke-width="1.36649" stroke-miterlimit="10" stroke-linecap="round" stroke-linejoin="round"/>
<path d="M35.864 36.501V46.2712" stroke="#464646" stroke-width="1.36649" stroke-miterlimit="10" stroke-linecap="round" stroke-linejoin="round"/>
<path d="M35.8647 47.4479C38.8251 47.4479 41.225 46.9212 41.225 46.2713C41.225 45.6215 38.8251 45.0947 35.8647 45.0947C32.9043 45.0947 30.5044 45.6215 30.5044 46.2713C30.5044 46.9212 32.9043 47.4479 35.8647 47.4479Z" fill="#121212" stroke="#464646" stroke-width="1.36649" stroke-miterlimit="10" stroke-linecap="round" stroke-linejoin="round"/>
<path d="M43.6929 30.2184C43.6929 30.2184 42.3741 29.9752 37.5374 31.5584C30.648 33.8134 27.9822 29.9752 27.9822 29.9752C27.9822 29.9752 31.9248 28.5842 38.7249 31.1842" fill="#121212"/>
<path d="M43.6929 30.2184C43.6929 30.2184 42.3741 29.9752 37.5374 31.5584C30.648 33.8134 27.9822 29.9752 27.9822 29.9752C27.9822 29.9752 31.9248 28.5842 38.7249 31.1842" stroke="#464646" stroke-width="1.36649" stroke-miterlimit="10" stroke-linecap="round" stroke-linejoin="round"/>
<path d="M2.61749 60.6905C5.31511 61.4133 7.60893 61.6 7.7409 61.1075C7.87287 60.615 5.79301 59.6298 3.0954 58.9069C0.397784 58.1841 -1.89605 57.9974 -2.02801 58.4899C-2.15998 58.9824 -0.0801185 59.9677 2.61749 60.6905Z" fill="#121212" stroke="#464646" stroke-width="1.36649" stroke-miterlimit="10" stroke-linecap="round" stroke-linejoin="round"/>
<path d="M-2.02832 58.4902L-4.56409 67.9539C-5.28692 70.6515 -3.68605 73.4243 -0.98842 74.1471C1.70921 74.8699 4.482 73.2691 5.20482 70.5714L7.7406 61.1078" fill="#121212"/>
<path d="M-2.02832 58.4902L-4.56409 67.9539C-5.28692 70.6515 -3.68605 73.4243 -0.98842 74.1471C1.70921 74.8699 4.482 73.2691 5.20482 70.5714L7.7406 61.1078" stroke="#464646" stroke-width="1.36649" stroke-miterlimit="10" stroke-linecap="round" stroke-linejoin="round"/>
<path d="M4.40577 67.5554C-0.862643 63.9814 -3.93555 65.6113 -3.93555 65.6113C-3.93555 65.6113 -4.0968 66.9646 0.426562 67.8186C4.26925 68.5442 6.31812 66.4193 6.31812 66.4193" fill="#121212"/>
<path d="M4.40577 67.5554C-0.862643 63.9814 -3.93555 65.6113 -3.93555 65.6113C-3.93555 65.6113 -4.0968 66.9646 0.426562 67.8186C4.26925 68.5442 6.31812 66.4193 6.31812 66.4193" stroke="#464646" stroke-width="1.36649" stroke-miterlimit="10" stroke-linecap="round" stroke-linejoin="round"/>
<path d="M-4.07001 85.6495C-1.37239 86.3723 0.921435 86.559 1.0534 86.0665C1.18537 85.574 -0.894491 84.5887 -3.5921 83.8659C-6.28972 83.1431 -8.58354 82.9564 -8.71551 83.4489C-8.84748 83.9414 -6.76762 84.9266 -4.07001 85.6495Z" fill="#121212" stroke="#464646" stroke-width="1.36649" stroke-miterlimit="10" stroke-linecap="round" stroke-linejoin="round"/>
<rect x="360.154" y="104.161" width="49.8671" height="66.7262" rx="24.9335" transform="rotate(17.6719 360.154 104.161)" fill="#121212" stroke="#030303" stroke-width="4.68058"/>
<rect x="414.067" y="57.6663" width="49.8671" height="67.8298" rx="24.9335" transform="rotate(114.683 414.067 57.6663)" fill="#121212" stroke="#030303" stroke-width="4.68058"/>
<rect x="447.333" y="93.7493" width="55.3843" height="55.3847" rx="27.6922" transform="rotate(114.683 447.333 93.7493)" fill="#121212" stroke="#030303" stroke-width="4.68058"/>
<rect x="477.503" y="127.327" width="49.6336" height="49.6339" rx="8.65432" transform="rotate(118.746 477.503 127.327)" fill="#121212" stroke="#030303" stroke-width="4.68058"/>
<path d="M375.883 135.679C379.27 136.587 382.117 136.945 382.242 136.48C382.367 136.014 379.722 134.901 376.335 133.993C372.948 133.086 370.101 132.728 369.977 133.193C369.852 133.659 372.496 134.772 375.883 135.679Z" stroke="#464646" stroke-width="1.40417" stroke-miterlimit="10" stroke-linecap="round" stroke-linejoin="round"/>
<path d="M379.206 143.728C373.77 140.28 366.386 139.251 365.143 140.841" stroke="#464646" stroke-width="1.40417" stroke-miterlimit="10" stroke-linecap="round" stroke-linejoin="round"/>
<path d="M382.242 136.479C382.242 136.479 386.75 157.51 371.231 153.041C355.557 149.152 369.977 133.193 369.977 133.193" stroke="#464646" stroke-width="1.40417" stroke-miterlimit="10" stroke-linecap="round" stroke-linejoin="round"/>
<path d="M364.994 140.975C364.812 144.127 382.661 145.156 382.843 142.004" stroke="#464646" stroke-width="1.40417" stroke-miterlimit="10" stroke-linecap="round" stroke-linejoin="round"/>
<path d="M410.609 99.3498C415.019 99.3498 418.594 98.6739 418.594 97.8402C418.594 97.0064 415.019 96.3306 410.609 96.3306C406.199 96.3306 402.624 97.0064 402.624 97.8402C402.624 98.6739 406.199 99.3498 410.609 99.3498Z" stroke="#464646" stroke-width="1.40417" stroke-miterlimit="10" stroke-linecap="round" stroke-linejoin="round"/>
<path d="M418.593 97.8398C418.675 98.2959 418.717 98.7652 418.717 99.2444C418.717 103.663 415.087 107.245 410.608 107.245C406.129 107.245 402.499 103.663 402.499 99.2444C402.499 98.7653 402.542 98.296 402.623 97.8398" stroke="#464646" stroke-width="1.40417" stroke-miterlimit="10" stroke-linecap="round" stroke-linejoin="round"/>
<path d="M410.608 118.364C413.607 118.364 416.038 117.831 416.038 117.172C416.038 116.514 413.607 115.98 410.608 115.98C407.609 115.98 405.178 116.514 405.178 117.172C405.178 117.831 407.609 118.364 410.608 118.364Z" stroke="#464646" stroke-width="1.40417" stroke-miterlimit="10" stroke-linecap="round" stroke-linejoin="round"/>
<path d="M418.54 100.91C418.54 100.91 417.204 100.664 412.304 102.267C405.325 104.552 402.624 100.664 402.624 100.664C402.624 100.664 406.618 99.2545 413.507 101.888" stroke="#464646" stroke-width="1.40417" stroke-miterlimit="10" stroke-linecap="round" stroke-linejoin="round"/>
<path d="M368.339 52.7431C368.339 52.7431 371.691 54.4376 371.646 57.9241C371.636 58.6877 371.916 59.4284 372.436 59.9873C373.397 61.0195 374.51 63.0562 372.749 66.1068C370.988 69.1573 368.667 69.2115 367.293 68.8956C366.549 68.7245 365.767 68.8522 365.111 69.2426C362.114 71.0249 358.971 68.9695 358.971 68.9695" stroke="#464646" stroke-width="1.40417" stroke-miterlimit="10" stroke-linecap="round" stroke-linejoin="round"/>
<path d="M364.919 61.5855C367.507 57.104 369.044 53.1475 368.352 52.7484C367.661 52.3493 365.003 55.6588 362.416 60.1403C359.828 64.6219 358.291 68.5784 358.983 68.9775C359.674 69.3766 362.332 66.0671 364.919 61.5855Z" stroke="#464646" stroke-width="1.40417" stroke-miterlimit="10" stroke-linecap="round" stroke-linejoin="round"/>
<path d="M372.75 66.1069L382.179 71.5508" stroke="#464646" stroke-width="1.40417" stroke-miterlimit="10" stroke-linecap="round" stroke-linejoin="round"/>
<path d="M383.263 72.1772C384.838 69.4485 385.63 66.9561 385.031 66.6103C384.432 66.2645 382.669 68.1962 381.094 70.925C379.519 73.6537 378.727 76.1461 379.326 76.4919C379.925 76.8377 381.688 74.9059 383.263 72.1772Z" stroke="#464646" stroke-width="1.40417" stroke-miterlimit="10" stroke-linecap="round" stroke-linejoin="round"/>
<path d="M370.939 55.2625C366.123 60.2031 367.773 66.5772 362.447 69.97C361.694 69.0518 364.169 63.7072 367.96 60.0454" stroke="#464646" stroke-width="1.40417" stroke-miterlimit="10" stroke-linecap="round" stroke-linejoin="round"/>
</g>
</g>
<mask id="mask1_2272_41042" style="mask-type:alpha" maskUnits="userSpaceOnUse" x="9" y="128" width="391" height="263">
<rect x="9.46191" y="128.669" width="390.088" height="261.976" fill="#FFCC4C"/>
</mask>
<g mask="url(#mask1_2272_41042)">
<rect x="146.005" y="179.791" width="115.749" height="49.852" rx="5.14807" transform="rotate(-9.19238 146.005 179.791)" fill="#121212"/>
<rect x="229.138" y="158.434" width="19.5832" height="19.5832" rx="3.08884" transform="rotate(-9.19238 229.138 158.434)" fill="#222222"/>
<mask id="mask2_2272_41042" style="mask-type:luminance" maskUnits="userSpaceOnUse" x="231" y="157" width="19" height="19">
<path fill-rule="evenodd" clip-rule="evenodd" d="M231.243 168.012C230.428 162.973 233.852 158.226 238.892 157.41C243.932 156.595 248.678 160.019 249.494 165.059C250.309 170.099 246.885 174.845 241.845 175.661C236.806 176.477 232.059 173.052 231.243 168.012Z" fill="white"/>
</mask>
<g mask="url(#mask2_2272_41042)">
<path fill-rule="evenodd" clip-rule="evenodd" d="M239.51 161.23C238.069 161.463 237.89 161.499 237.328 161.616C236.767 161.734 236.396 161.885 236.08 162.071C235.753 162.263 235.486 162.492 235.239 162.835C234.991 163.178 234.858 163.503 234.779 163.874C234.702 164.233 234.674 164.633 234.74 165.202C234.807 165.772 234.829 165.954 235.063 167.395C235.296 168.836 235.331 169.015 235.449 169.577C235.566 170.138 235.718 170.509 235.904 170.825C236.096 171.152 236.325 171.419 236.668 171.666C237.01 171.914 237.336 172.047 237.706 172.126C238.065 172.203 238.465 172.23 239.034 172.165C239.604 172.099 239.786 172.076 241.227 171.843C242.668 171.609 242.848 171.574 243.409 171.457C243.97 171.339 244.342 171.187 244.658 171.001C244.985 170.81 245.251 170.58 245.498 170.237C245.746 169.894 245.879 169.569 245.959 169.198C246.034 168.839 246.062 168.439 245.997 167.87C245.931 167.3 245.908 167.119 245.675 165.678C245.442 164.237 245.406 164.057 245.289 163.495C245.171 162.934 245.019 162.563 244.834 162.247C244.641 161.92 244.412 161.653 244.069 161.406C243.726 161.159 243.402 161.025 243.031 160.946C242.671 160.87 242.271 160.843 241.702 160.908C241.132 160.974 240.95 160.997 239.509 161.23L239.51 161.23ZM239.189 162.264C239.33 162.241 239.488 162.216 239.665 162.187C241.082 161.958 241.25 161.936 241.814 161.871C242.335 161.811 242.63 161.852 242.829 161.894C243.092 161.95 243.287 162.037 243.503 162.192C243.719 162.348 243.862 162.506 243.999 162.738C244.101 162.913 244.233 163.18 244.341 163.694C244.457 164.249 244.489 164.416 244.719 165.832C244.948 167.248 244.969 167.417 245.034 167.981C245.095 168.502 245.054 168.797 245.011 168.995C244.955 169.258 244.868 169.453 244.713 169.669C244.557 169.885 244.399 170.028 244.167 170.165C243.992 170.268 243.725 170.4 243.212 170.507C242.656 170.623 242.489 170.656 241.072 170.885C239.656 171.114 239.487 171.136 238.923 171.201C238.402 171.261 238.107 171.22 237.908 171.177C237.645 171.121 237.45 171.035 237.234 170.879C237.018 170.724 236.875 170.566 236.738 170.334C236.635 170.159 236.503 169.892 236.396 169.378C236.28 168.823 236.248 168.656 236.019 167.239C235.789 165.822 235.767 165.654 235.702 165.09C235.642 164.569 235.683 164.274 235.725 164.076C235.782 163.812 235.868 163.617 236.024 163.401C236.179 163.185 236.338 163.042 236.57 162.905C236.745 162.802 237.012 162.67 237.525 162.563C238.011 162.462 238.2 162.424 239.189 162.263L239.189 162.264ZM242.64 162.61C242.289 162.666 242.05 162.997 242.106 163.349C242.163 163.701 242.495 163.94 242.846 163.883C243.198 163.826 243.437 163.495 243.38 163.143C243.323 162.792 242.992 162.552 242.64 162.609L242.64 162.61ZM239.928 163.811C238.423 164.055 237.401 165.472 237.644 166.977C237.888 168.482 239.305 169.504 240.81 169.261C242.315 169.017 243.337 167.6 243.094 166.095C242.85 164.59 241.433 163.568 239.928 163.811L239.928 163.811ZM240.083 164.768C241.06 164.61 241.98 165.274 242.138 166.251C242.296 167.227 241.632 168.147 240.656 168.305C239.679 168.464 238.759 167.8 238.601 166.823C238.443 165.846 239.106 164.926 240.083 164.768Z" fill="white"/>
</g>
<rect x="154.427" y="201.167" width="102.612" height="3.46998" rx="1.73499" transform="rotate(-9.19238 154.427 201.167)" fill="#1E1E1E"/>
<rect x="155.512" y="207.872" width="102.612" height="3.46998" rx="1.73499" transform="rotate(-9.19238 155.512 207.872)" fill="#1E1E1E"/>
<rect x="156.565" y="214.38" width="52.5455" height="3.46998" rx="1.73499" transform="rotate(-9.19238 156.565 214.38)" fill="#1E1E1E"/>
<rect x="152.527" y="189.423" width="58.9897" height="5.45283" rx="2.72642" transform="rotate(-9.19238 152.527 189.423)" fill="#FFCF35"/>
<path d="M142.48 246.145C142.48 246.145 120.688 244.285 117.524 262.943C114.363 281.6 130.651 292.682 135.798 284.509C140.948 276.336 142.48 246.145 142.48 246.145Z" fill="#202020"/>
<path d="M212.892 254.134C212.892 254.134 218.074 235.365 217.227 223.164C216.38 210.963 213.336 207.013 211.51 206.886C209.685 206.759 208.51 214.513 208.51 214.513C208.51 214.513 207.397 203.069 203.389 202.864C199.379 202.656 199.24 212.811 199.24 212.811C199.24 212.811 196.76 204.805 193.74 206.643C190.719 208.48 191.353 231.352 191.353 231.352C191.353 231.352 186.416 224.93 184.061 226.322C181.706 227.711 184.12 236.68 186.542 241.434C188.966 246.191 193.86 249.71 193.86 249.71L212.892 254.134Z" fill="#FEC29E"/>
<path d="M211.145 227.087C211.154 227.034 211.158 226.984 211.156 226.929C211.133 226.577 210.828 226.31 210.474 226.332L192.547 227.498C192.191 227.523 191.935 227.836 191.95 228.18C191.973 228.531 192.277 228.799 192.632 228.776L210.559 227.611C210.856 227.587 211.093 227.368 211.145 227.087Z" fill="#1E1C1C"/>
<path d="M201.119 244.603C201.264 243.816 202.386 236.02 191.632 230.776C191.316 230.621 190.932 230.753 190.777 231.069C190.609 231.392 190.754 231.769 191.07 231.924C201.379 236.949 199.94 244.083 199.861 244.38C199.795 244.74 200.007 245.069 200.343 245.145C200.685 245.223 201.027 245.008 201.108 244.667C201.108 244.667 201.112 244.64 201.119 244.603Z" fill="#1E1C1C"/>
<path d="M221.068 246.231C221.068 246.231 237.86 286.007 224.657 311.524C211.453 337.044 162.544 335.615 162.544 335.615L155.729 296.601C155.729 296.601 177.943 296.436 186.198 283.508C192.386 273.816 188.101 249.196 188.101 249.196L221.068 246.231Z" fill="white"/>
<path d="M191.77 290.09C191.464 290.107 191.161 290.031 190.866 289.866C188.601 288.598 187.1 281.403 186.819 279.972C186.764 279.692 186.895 279.41 187.141 279.274C187.39 279.132 187.69 279.172 187.906 279.36C188.566 279.959 194.334 285.308 193.76 288.31C193.656 288.853 193.308 289.582 192.239 289.984C192.087 290.046 191.928 290.081 191.77 290.09ZM188.587 281.864C189.311 284.765 190.442 288.126 191.51 288.723C191.645 288.799 191.722 288.783 191.778 288.762C192.315 288.557 192.434 288.288 192.473 288.068C192.732 286.711 190.613 283.977 188.587 281.864Z" fill="#161616"/>
<path d="M120.621 303.486C120.621 303.486 111.904 305.13 106.645 308.412C101.383 311.694 95.4069 330.575 95.4069 330.575L122.45 360.731L146.661 346.772L120.621 303.486Z" fill="white"/>
<path d="M157.06 484.178C160.319 484.156 163.679 484.075 167.197 483.934C172.44 483.672 177.402 483.055 182.006 482.171C194.419 479.831 204.57 475.59 212.028 471.629C208.415 430.473 193.398 392.707 184.64 373.601C181.413 366.576 179.033 362.052 178.36 360.827C178.243 360.598 178.184 360.494 178.184 360.494L163.661 364.582L161.073 365.304L160.946 368.729L160.676 377.184L157.06 484.178Z" fill="#171717"/>
<path d="M113.831 428.075C119.608 463.583 123.865 475.767 123.865 475.767C123.865 475.767 123.263 477.826 122.256 481.356C130.566 482.815 142.391 484.218 157.069 484.171C160.31 484.162 163.688 484.086 167.199 483.922C172.438 483.681 177.39 483.05 182.015 482.168C183.527 475.681 184.45 471.219 184.695 470.036C189.021 449.316 167.542 374.485 167.542 374.485L163.652 364.58L123.028 371.263C123.028 371.263 108.052 392.553 113.831 428.075Z" fill="#1C1C1C"/>
<path d="M133.243 284.188L134.554 298.33C134.554 298.33 137.483 302.159 145.817 302.063C152.026 301.992 154.061 300.397 154.061 300.397L152.537 293.314L151.043 286.408L135.799 284.509L133.243 284.188Z" fill="#FEC29E"/>
<path d="M133.206 283.511C133.278 283.895 133.466 284.335 133.744 284.839C137.563 291.61 148.95 293.329 152.54 293.316L151.046 286.41L133.206 283.511Z" fill="#1E1C1C"/>
<path d="M151.207 253.881C151.207 253.881 160.272 270.925 158.26 281.045C156.247 291.169 147.1 290.305 141.55 288.806C136 287.308 133.239 284.189 133.239 284.189C133.239 284.189 128.327 286.288 124.59 281.857C120.852 277.425 122.515 271.875 125.301 270.421C128.086 268.964 131.673 270.779 131.673 270.779L128.592 265.861C128.592 265.861 137.883 238.943 151.207 253.881Z" fill="#FEC29E"/>
<path d="M154.218 260.924C154.131 260.923 150.645 260.602 150.645 260.602C150.318 260.572 150.072 260.282 150.105 259.955C150.135 259.628 150.427 259.358 150.755 259.415L154.242 259.735C154.568 259.765 154.811 260.056 154.782 260.386C154.753 260.682 154.509 260.908 154.218 260.924Z" fill="#1E1C1C"/>
<path d="M141.403 263.127C141.148 263.142 140.895 263.003 140.777 262.756C140.619 262.431 140.756 262.039 141.081 261.881L145.002 259.976C145.319 259.818 145.72 259.951 145.878 260.28C146.036 260.605 145.9 260.997 145.575 261.155L141.653 263.06C141.575 263.103 141.49 263.123 141.403 263.127Z" fill="#1E1C1C"/>
<path d="M152.586 273.679C152.497 273.684 152.4 273.668 152.312 273.631C151.974 273.501 151.806 273.12 151.94 272.784C153.45 268.913 149.731 266.848 149.571 266.762C149.251 266.589 149.134 266.192 149.307 265.873C149.477 265.553 149.876 265.433 150.193 265.603C151.898 266.514 154.712 269.285 153.162 273.256C153.066 273.512 152.836 273.665 152.586 273.679Z" fill="#1E1C1C"/>
<path d="M132.102 278.057C132.013 278.062 131.917 278.046 131.828 278.012L124.525 275.17C124.187 275.04 124.02 274.658 124.153 274.323C124.281 273.985 124.668 273.817 125.001 273.951L132.304 276.793C132.642 276.923 132.809 277.305 132.676 277.64C132.582 277.89 132.352 278.043 132.102 278.057Z" fill="#1E1C1C"/>
<path d="M125.847 280.054C125.678 280.063 125.507 280.004 125.369 279.883C125.102 279.639 125.082 279.222 125.324 278.952L128.293 275.678C128.538 275.414 128.948 275.394 129.224 275.632C129.491 275.877 129.511 276.294 129.269 276.563L126.3 279.838C126.177 279.973 126.014 280.045 125.847 280.054Z" fill="#1E1C1C"/>
<path d="M157.086 268.65C157.086 268.65 155.35 263.353 149.421 257.787C143.492 252.223 143.492 252.223 143.492 252.223C143.492 252.223 144.733 263.307 140.023 268.38C135.313 273.454 131.673 270.786 131.673 270.786L121.679 262.962L142.479 246.15C142.479 246.15 156.677 244.639 157.086 268.65Z" fill="#202020"/>
<path d="M152.577 296.964L165.473 298.03C165.473 298.03 181.843 311.425 180.004 325.169C178.775 334.351 178.231 336.544 178.231 336.544L182.803 365.5C182.803 365.5 172.079 375.463 153.042 378.515C134.006 381.564 117.465 376.768 117.465 376.768C117.465 376.768 116.542 308.318 116.221 302.508C116.011 298.589 152.577 296.964 152.577 296.964Z" fill="white"/>
<path d="M153.133 296.083L158.71 297.472C158.71 297.472 161.124 307.867 148.591 309.206C135.437 310.612 124.33 299.525 124.33 299.525L135.747 297.042L153.133 296.083Z" fill="#FEC29E"/>
<path d="M147.498 309.955C133.62 310.694 124.232 300.403 123.841 299.965C123.6 299.695 123.622 299.282 123.891 299.038C124.159 298.802 124.574 298.812 124.819 299.088C124.911 299.19 134.192 309.347 147.381 308.643C151.678 308.406 154.724 307.125 156.488 304.83C158.895 301.693 158.076 297.649 158.067 297.608C157.994 297.254 158.219 296.905 158.573 296.829C158.944 296.74 159.273 296.981 159.352 297.334C159.393 297.523 160.31 301.988 157.54 305.616C155.534 308.238 152.158 309.698 147.498 309.955Z" fill="#161616"/>
<path d="M178.814 335.006C178.716 335.012 178.617 334.993 178.519 334.954C178.189 334.811 178.031 334.426 178.173 334.093C183.414 321.769 170.949 305.764 170.821 305.604C170.599 305.318 170.645 304.907 170.931 304.682C171.22 304.457 171.631 304.506 171.853 304.789C172.391 305.466 184.929 321.56 179.38 334.608C179.28 334.843 179.055 334.993 178.814 335.006Z" fill="#161616"/>
<path d="M138.118 355.519C138.118 355.519 162.069 349.273 168.287 351.369C174.502 353.466 170.745 373.803 169.121 377.552C167.5 381.301 142.208 377.2 142.208 377.2L134.394 367.27L138.118 355.519Z" fill="#FEC29E"/>
<path d="M168.288 351.372C168.288 351.372 183.547 360.548 184.455 366.735C185.363 372.921 166.56 360.919 166.56 360.919L168.288 351.372Z" fill="#FEC29E"/>
<path d="M160.083 377.152C160.083 377.152 147.804 380.663 151.949 383.838C156.094 387.012 168.113 380.786 169.122 377.557C170.131 374.328 160.87 370.872 160.87 370.872L160.083 377.152Z" fill="#FEC29E"/>
<path d="M122.582 299.842C122.582 299.842 71.9905 311.871 72.7201 350.273C73.27 379.26 142.035 384.323 142.035 384.323L143.599 352.025L100.535 325.301L122.582 299.842Z" fill="white"/>
<path d="M140.914 349.419C140.825 349.424 140.734 349.408 140.643 349.374C140.387 349.278 115.001 339.629 104.897 340.186C104.525 340.207 104.214 339.929 104.194 339.566C104.174 339.2 104.476 338.891 104.824 338.872C115.205 338.299 140.058 347.745 141.112 348.146C141.45 348.277 141.62 348.655 141.49 348.993C141.396 349.246 141.164 349.405 140.914 349.419Z" fill="#161616"/>
<path d="M121.952 343.167C121.824 343.174 121.694 343.142 121.58 343.074C118.394 341.174 111.026 336.516 111.418 334.323C111.489 333.926 111.774 333.415 112.731 333.237C117.168 332.419 121.966 341.2 122.495 342.206C122.632 342.467 122.581 342.786 122.366 342.989C122.252 343.096 122.104 343.158 121.952 343.167ZM113.233 334.497C113.146 334.502 113.057 334.513 112.972 334.53C112.742 334.572 112.673 334.627 112.673 334.627C112.701 335.341 115.866 337.901 119.997 340.551C118.23 337.818 115.466 334.374 113.233 334.497Z" fill="#161616"/>
<path d="M158.983 379.272L155.1 379.486C154.862 379.499 154.635 379.38 154.507 379.176C154.38 378.974 154.375 378.718 154.494 378.505L156.266 375.371C156.442 375.057 156.845 374.946 157.162 375.125C157.479 375.301 157.587 375.704 157.408 376.021L156.226 378.112L158.908 377.964C159.271 377.944 159.582 378.222 159.602 378.584C159.621 378.941 159.346 379.252 158.983 379.272Z" fill="#1E1C1C"/>
<path d="M171.943 363.775C171.765 363.785 171.582 363.721 171.444 363.585C169.799 361.949 166.829 359.244 165.862 358.96C165.516 358.857 165.317 358.492 165.417 358.143C165.52 357.798 165.882 357.596 166.233 357.699C167.804 358.161 171.623 361.911 172.371 362.654C172.626 362.911 172.628 363.323 172.371 363.585C172.255 363.701 172.101 363.767 171.943 363.775Z" fill="#1E1C1C"/>
<path d="M170.924 370.974C170.766 370.983 170.605 370.932 170.474 370.826L162.942 364.695C162.661 364.466 162.617 364.051 162.846 363.77C163.078 363.489 163.493 363.448 163.771 363.674L171.304 369.805C171.585 370.034 171.629 370.449 171.4 370.73C171.274 370.883 171.099 370.965 170.924 370.974Z" fill="#1E1C1C"/>
<path d="M145.956 269.516C145.674 269.531 145.402 269.361 145.303 269.083L144.436 266.679C144.394 266.568 144.385 266.45 144.408 266.335L144.845 264.023C144.909 263.668 145.259 263.422 145.612 263.501C145.968 263.568 146.201 263.91 146.135 264.268L145.733 266.402L146.54 268.639C146.663 268.981 146.487 269.355 146.148 269.481C146.08 269.5 146.016 269.512 145.956 269.516Z" fill="#1E1C1C"/>
<path d="M154.599 267.825C154.316 267.841 154.045 267.674 153.946 267.393L153.079 264.992C153.037 264.881 153.028 264.762 153.051 264.648L153.487 262.333C153.551 261.977 153.902 261.731 154.255 261.81C154.611 261.877 154.844 262.219 154.777 262.578L154.376 264.715L155.18 266.949C155.303 267.291 155.127 267.665 154.788 267.788C154.723 267.809 154.661 267.822 154.599 267.825Z" fill="#1E1C1C"/>
<path d="M148.638 281.809C148.501 281.817 148.361 281.807 148.216 281.773C146.756 281.43 145.676 278.236 145.381 277.265C145.305 277.024 145.377 276.767 145.558 276.593C145.74 276.419 146.006 276.374 146.237 276.457L150.888 278.201C151.055 278.264 151.19 278.391 151.259 278.557C151.331 278.723 151.332 278.905 151.261 279.07C151.069 279.543 150.077 281.73 148.638 281.809ZM147.098 278.178C147.603 279.427 148.188 280.417 148.521 280.494C148.78 280.599 149.326 279.955 149.76 279.176L147.098 278.178Z" fill="#1E1C1C"/>
<path d="M119.175 277.307C118.902 277.322 118.636 277.161 118.529 276.895C114.5 266.738 118.748 256.965 118.931 256.553C119.08 256.222 119.468 256.073 119.798 256.219C120.128 256.367 120.278 256.753 120.132 257.086C120.087 257.181 115.928 266.779 119.752 276.407C119.887 276.746 119.723 277.124 119.385 277.259C119.315 277.287 119.244 277.303 119.175 277.307Z" fill="#272726"/>
<path d="M116.512 265.191C114.213 265.318 104.644 265.56 103.377 260.885C103.089 259.818 103.468 259.221 103.838 258.912C105.446 257.57 110.633 259.303 114.405 260.852C110.295 256.688 103.485 248.79 106.625 244.94C107.413 243.977 108.285 243.882 108.869 243.99C113.086 244.687 118.266 258.276 118.84 259.822C118.966 260.161 118.796 260.538 118.454 260.664C118.112 260.79 117.736 260.62 117.613 260.278C115.537 254.711 111.27 245.712 108.654 245.281C108.407 245.235 108.059 245.254 107.643 245.769C104.805 249.248 114.136 258.999 117.966 262.46C118.207 262.679 118.254 263.04 118.072 263.31C117.89 263.585 117.538 263.676 117.247 263.543C112.05 261.095 105.752 259.006 104.681 259.924C104.567 260.017 104.555 260.229 104.644 260.546C105.58 263.996 113.791 264.154 116.885 263.855C117.301 263.77 117.564 264.098 117.596 264.457C117.625 264.82 117.353 265.136 116.994 265.168C116.94 265.165 116.773 265.177 116.512 265.191Z" fill="#272726"/>
<path d="M201.64 419.403C201.328 419.382 196.06 418.876 192.265 413.183C189.043 408.347 192.162 400.394 193.372 397.726C191.371 397.517 186.951 396.667 185.317 393.16C182.717 387.607 188.045 382.597 188.272 382.385C188.539 382.138 188.951 382.154 189.198 382.42C189.443 382.687 189.43 383.099 189.163 383.347C189.112 383.391 184.315 387.918 186.503 392.602C188.255 396.347 194.326 396.474 194.385 396.477C194.612 396.48 194.825 396.602 194.94 396.796C195.058 396.989 195.065 397.23 194.963 397.432C194.915 397.531 189.95 407.34 193.355 412.449C196.789 417.592 201.612 418.084 201.663 418.09C202.022 418.124 202.29 418.44 202.26 418.8C202.227 419.132 201.964 419.386 201.64 419.403Z" fill="#353535"/>
<path d="M184.978 472.734C184.519 472.697 184.254 472.375 184.288 472.015C186.889 444.846 169.858 386.567 169.685 385.983C169.612 385.731 169.695 385.458 169.898 385.289L178.643 378.05C178.917 377.826 179.33 377.854 179.569 378.139C179.799 378.419 179.759 378.83 179.48 379.066L171.066 386.026C172.603 391.352 188.104 445.942 185.592 472.143C185.563 472.469 185.296 472.717 184.978 472.734Z" fill="#353535"/>
<path d="M131.551 288.929C133.886 288.8 135.675 286.802 135.546 284.467C135.417 282.132 133.419 280.343 131.084 280.472C128.749 280.601 126.96 282.599 127.089 284.934C127.218 287.269 129.216 289.058 131.551 288.929Z" fill="#FFBE1D"/>
<rect x="71.4114" y="389.779" width="267.463" height="11.7916" fill="#373737"/>
</g>
<rect x="257.084" y="280.571" width="87.1709" height="39.7823" rx="5.14807" transform="rotate(-12.0279 257.084 280.571)" fill="#121212" fill-opacity="0.63"/>
<rect x="265.493" y="297.067" width="77.6086" height="2.62444" rx="1.31222" transform="rotate(-12.0279 265.493 297.067)" fill="#1E1E1E" fill-opacity="0.69"/>
<rect x="266.564" y="302.091" width="77.6086" height="2.62444" rx="1.31222" transform="rotate(-12.0279 266.564 302.091)" fill="#1E1E1E" fill-opacity="0.69"/>
<rect x="267.603" y="306.968" width="39.7416" height="2.62444" rx="1.31222" transform="rotate(-12.0279 267.603 306.968)" fill="#1E1E1E" fill-opacity="0.69"/>
<rect x="263.743" y="288.913" width="40.3076" height="3.17065" rx="1.58532" transform="rotate(-12.0279 263.743 288.913)" fill="#FFCF35"/>
<rect x="319.117" y="260.503" width="15.1134" height="15.1134" rx="2.6403" transform="rotate(-12.0279 319.117 260.503)" fill="#222222"/>
<path d="M326.87 266.643L329.013 266.186" stroke="white" stroke-width="0.487667" stroke-miterlimit="10" stroke-linecap="round" stroke-linejoin="round"/>
<path d="M327.131 267.868L328.472 267.582" stroke="white" stroke-width="0.487667" stroke-miterlimit="10" stroke-linecap="round" stroke-linejoin="round"/>
<path d="M327.078 264.614L328.303 264.353C328.915 264.222 328.85 263.916 328.784 263.61C328.654 262.998 328.348 263.063 328.042 263.128L326.817 263.389C326.511 263.454 326.205 263.52 326.335 264.132C326.466 264.744 326.772 264.679 327.078 264.614Z" stroke="white" stroke-width="0.487667" stroke-miterlimit="10" stroke-linecap="round" stroke-linejoin="round"/>
<path d="M328.786 263.616C329.817 263.454 330.409 263.722 330.707 265.121L331.098 266.958C331.359 268.183 331.183 268.86 329.653 269.187L327.815 269.578C326.285 269.904 325.848 269.357 325.587 268.132L325.196 266.295C324.898 264.899 325.328 264.411 326.336 264.138" stroke="white" stroke-width="0.487667" stroke-miterlimit="10" stroke-linecap="round" stroke-linejoin="round"/>
<rect x="227.027" y="220.712" width="87.1709" height="38.818" rx="5.14807" transform="rotate(4.22474 227.027 220.712)" fill="#121212"/>
<rect x="290.913" y="218.153" width="15.4691" height="15.4691" rx="2.70244" transform="rotate(4.22474 290.913 218.153)" fill="#222222"/>
<path fill-rule="evenodd" clip-rule="evenodd" d="M297.98 224.937L297.976 225.213L297.701 225.159C296.699 224.955 295.847 224.453 295.152 223.662L294.812 223.27L294.697 223.533C294.453 224.118 294.534 224.762 294.919 225.219C295.124 225.471 295.072 225.501 294.699 225.332C294.568 225.278 294.454 225.235 294.442 225.251C294.4 225.288 294.496 225.808 294.586 226.018C294.71 226.309 294.984 226.606 295.295 226.792L295.557 226.941L295.235 226.923C294.924 226.9 294.912 226.905 294.937 227.025C295.021 227.398 295.431 227.818 295.908 228.022L296.244 228.165L295.93 228.323C295.467 228.548 294.934 228.655 294.41 228.628C294.16 228.615 293.953 228.622 293.951 228.639C293.947 228.695 294.602 229.059 294.987 229.212C296.144 229.664 297.562 229.611 298.664 229.066C299.447 228.678 300.262 227.853 300.675 227.026C300.897 226.586 301.148 225.769 301.177 225.371C301.196 225.113 301.215 225.08 301.549 224.795C301.746 224.629 301.933 224.445 301.97 224.392C302.034 224.289 302.028 224.289 301.738 224.363C301.253 224.497 301.188 224.469 301.44 224.234C301.625 224.067 301.855 223.757 301.862 223.662C301.863 223.645 301.778 223.667 301.68 223.71C301.576 223.759 301.347 223.827 301.177 223.865L300.869 223.938L300.611 223.733C300.468 223.621 300.265 223.493 300.157 223.451C299.879 223.351 299.445 223.331 299.183 223.402C298.469 223.603 297.982 224.221 297.98 224.937Z" fill="white"/>
<rect x="230.323" y="238.407" width="77.6086" height="2.62444" rx="1.31222" transform="rotate(4.22474 230.323 238.407)" fill="#1E1E1E"/>
<rect x="229.944" y="243.53" width="77.6086" height="2.62444" rx="1.31222" transform="rotate(4.22474 229.944 243.53)" fill="#1E1E1E"/>
<rect x="229.578" y="248.502" width="39.7416" height="2.62444" rx="1.31222" transform="rotate(4.22474 229.578 248.502)" fill="#1E1E1E"/>
<rect x="230.953" y="229.692" width="41.6398" height="3.9657" rx="1.98285" transform="rotate(4.22474 230.953 229.692)" fill="#FFCF35"/>
</svg>
