<svg width="410" height="450" viewBox="0 0 410 450" fill="none" xmlns="http://www.w3.org/2000/svg">
<mask id="mask0_2294_4662" style="mask-type:alpha" maskUnits="userSpaceOnUse" x="0" y="0" width="410" height="450">
<rect x="0.818848" width="408.942" height="449.03" rx="11" fill="#030303"/>
</mask>
<g mask="url(#mask0_2294_4662)">
<g opacity="0.5">
<rect x="-13.1781" y="33.3863" width="49.2902" height="65.9322" rx="24.6451" transform="rotate(17.6719 -13.1781 33.3863)" fill="#121212" stroke="#030303" stroke-width="4.55497"/>
<rect x="40.1065" y="-12.4847" width="49.2902" height="67.0216" rx="24.6451" transform="rotate(114.683 40.1065 -12.4847)" fill="#121212" stroke="#030303" stroke-width="4.55497"/>
<rect x="72.9444" y="23.134" width="54.7364" height="54.7368" rx="27.3682" transform="rotate(114.683 72.9444 23.134)" fill="#121212" stroke="#030303" stroke-width="4.55497"/>
<rect x="102.727" y="56.2819" width="49.0597" height="49.06" rx="8.42208" transform="rotate(118.746 102.727 56.2819)" fill="#121212" stroke="#030303" stroke-width="4.55497"/>
<path d="M-6.79457 -13.8728C-6.79457 -13.8728 10.12 -14.9159 2.51918 -2.16768C-5.30209 10.4464 -12.1587 -5.05117 -12.1587 -5.05117" fill="#121212"/>
<path d="M-6.79457 -13.8728C-6.79457 -13.8728 10.12 -14.9159 2.51918 -2.16768C-5.30209 10.4464 -12.1587 -5.05117 -12.1587 -5.05117" stroke="#464646" stroke-width="1.36649" stroke-miterlimit="10" stroke-linecap="round" stroke-linejoin="round"/>
<path d="M2.51953 -2.16748L7.84926 1.07337" stroke="#464646" stroke-width="1.36649" stroke-miterlimit="10" stroke-linecap="round" stroke-linejoin="round"/>
<path d="M9.02666 1.78897C10.8279 -1.17322 11.761 -3.89506 11.1107 -4.29043C10.4605 -4.68581 8.47325 -2.60499 6.67204 0.357191C4.87082 3.31938 3.93774 6.04122 4.58796 6.43659C5.23817 6.83197 7.22545 4.75116 9.02666 1.78897Z" fill="#121212" stroke="#464646" stroke-width="1.36649" stroke-miterlimit="10" stroke-linecap="round" stroke-linejoin="round"/>
<path d="M-1.02695 -13.354C-1.02695 -13.354 -2.57722 -12.217 -3.46135 -9.74236C-3.76089 -8.90409 -3.98389 -7.91226 -4.04437 -6.75918C-4.34312 -1.0629 -8.81784 0.0843595 -8.81784 0.0843595C-9.91152 -2.64717 -6.44927 -7.56327 -3.46135 -9.74236" fill="#121212"/>
<path d="M-1.02695 -13.354C-1.02695 -13.354 -2.57722 -12.217 -3.46135 -9.74236M-3.46135 -9.74236C-3.76089 -8.90409 -3.98389 -7.91226 -4.04437 -6.75918C-4.34312 -1.0629 -8.81784 0.0843596 -8.81784 0.0843596C-9.91152 -2.64717 -6.44927 -7.56327 -3.46135 -9.74236Z" stroke="#464646" stroke-width="1.36649" stroke-miterlimit="10" stroke-linecap="round" stroke-linejoin="round"/>
<path d="M74.1278 56.9343C78.5482 59.2305 82.3875 60.5993 82.7032 59.9917C83.0188 59.384 79.6913 57.03 75.2709 54.7338C70.8505 52.4376 67.0112 51.0688 66.6956 51.6764C66.3799 52.2841 69.7075 54.6381 74.1278 56.9343Z" fill="#121212" stroke="#464646" stroke-width="1.36649" stroke-miterlimit="10" stroke-linecap="round" stroke-linejoin="round"/>
<path d="M82.6531 60.0872L74.1236 64.5824C73.2892 65.0221 72.3331 65.1744 71.4034 65.0157C70.5229 64.8654 69.7114 64.4438 69.0821 63.8098C68.4176 63.1405 67.9925 62.2706 67.8725 61.3352L66.6455 51.772" fill="#121212"/>
<path d="M82.6531 60.0872L74.1236 64.5824C73.2892 65.0221 72.3331 65.1744 71.4034 65.0157C70.5229 64.8654 69.7114 64.4438 69.0821 63.8098C68.4176 63.1405 67.9925 62.2706 67.8725 61.3352L66.6455 51.772" stroke="#464646" stroke-width="1.36649" stroke-miterlimit="10" stroke-linecap="round" stroke-linejoin="round"/>
<path d="M70.1479 64.5942L63.9528 76.5204" stroke="#464646" stroke-width="1.36649" stroke-miterlimit="10" stroke-linecap="round" stroke-linejoin="round"/>
<path d="M69.2598 79.277C69.0506 79.6799 66.5056 78.7724 63.5753 77.2503C60.6451 75.7281 58.4393 74.1677 58.6485 73.7649C58.8578 73.3621 61.4027 74.2696 64.333 75.7917C67.2632 77.3138 69.4691 78.8742 69.2598 79.277Z" fill="#121212" stroke="#464646" stroke-width="1.36649" stroke-miterlimit="10" stroke-linecap="round" stroke-linejoin="round"/>
<path d="M67.1421 55.654C68.2548 55.4897 70.5945 56.4226 72.8403 59.418C75.2736 62.6634 78.3394 62.3526 79.1908 61.9127L79.1903 61.9135C78.3452 60.5318 74.5109 57.8412 71.4607 57.8294" fill="#121212"/>
<path d="M67.1421 55.654C68.2548 55.4897 70.5945 56.4226 72.8403 59.418C75.2736 62.6634 78.3394 62.3526 79.1908 61.9127L79.1903 61.9135C78.3452 60.5318 74.5109 57.8412 71.4607 57.8294" stroke="#464646" stroke-width="1.36649" stroke-miterlimit="10" stroke-linecap="round" stroke-linejoin="round"/>
<path d="M36.6474 28.6781C41.0004 28.6781 44.5292 28.0109 44.5292 27.1879C44.5292 26.3649 41.0004 25.6978 36.6474 25.6978C32.2944 25.6978 28.7656 26.3649 28.7656 27.1879C28.7656 28.0109 32.2944 28.6781 36.6474 28.6781Z" fill="#121212" stroke="#464646" stroke-width="1.36649" stroke-miterlimit="10" stroke-linecap="round" stroke-linejoin="round"/>
<path d="M44.5297 27.188C44.6105 27.6381 44.6527 28.1014 44.6527 28.5745C44.6527 32.9362 41.0688 36.4721 36.6479 36.4721C32.227 36.4721 28.6431 32.9361 28.6431 28.5745C28.6431 28.1015 28.6853 27.6382 28.7661 27.188" fill="#121212"/>
<path d="M44.5297 27.188C44.6105 27.6381 44.6527 28.1014 44.6527 28.5745C44.6527 32.9362 41.0688 36.4721 36.6479 36.4721C32.227 36.4721 28.6431 32.9361 28.6431 28.5745C28.6431 28.1015 28.6853 27.6382 28.7661 27.188" stroke="#464646" stroke-width="1.36649" stroke-miterlimit="10" stroke-linecap="round" stroke-linejoin="round"/>
<path d="M36.6475 36.501V46.2712" stroke="#464646" stroke-width="1.36649" stroke-miterlimit="10" stroke-linecap="round" stroke-linejoin="round"/>
<path d="M36.6484 47.4479C39.6088 47.4479 42.0087 46.9212 42.0087 46.2713C42.0087 45.6215 39.6088 45.0947 36.6484 45.0947C33.688 45.0947 31.2881 45.6215 31.2881 46.2713C31.2881 46.9212 33.688 47.4479 36.6484 47.4479Z" fill="#121212" stroke="#464646" stroke-width="1.36649" stroke-miterlimit="10" stroke-linecap="round" stroke-linejoin="round"/>
<path d="M44.4763 30.2184C44.4763 30.2184 43.1575 29.9752 38.3208 31.5584C31.4314 33.8134 28.7656 29.9752 28.7656 29.9752C28.7656 29.9752 32.7083 28.5842 39.5083 31.1842" fill="#121212"/>
<path d="M44.4763 30.2184C44.4763 30.2184 43.1575 29.9752 38.3208 31.5584C31.4314 33.8134 28.7656 29.9752 28.7656 29.9752C28.7656 29.9752 32.7083 28.5842 39.5083 31.1842" stroke="#464646" stroke-width="1.36649" stroke-miterlimit="10" stroke-linecap="round" stroke-linejoin="round"/>
<path d="M3.40118 60.6905C6.0988 61.4133 8.39262 61.6 8.52459 61.1075C8.65656 60.615 6.5767 59.6298 3.87909 58.9069C1.18148 58.1841 -1.11235 57.9974 -1.24432 58.4899C-1.37629 58.9824 0.703573 59.9677 3.40118 60.6905Z" fill="#121212" stroke="#464646" stroke-width="1.36649" stroke-miterlimit="10" stroke-linecap="round" stroke-linejoin="round"/>
<path d="M-1.24463 58.4902L-3.7804 67.9539C-4.50323 70.6515 -2.90236 73.4243 -0.204729 74.1471C2.4929 74.8699 5.26569 73.2691 5.98852 70.5714L8.52429 61.1078" fill="#121212"/>
<path d="M-1.24463 58.4902L-3.7804 67.9539C-4.50323 70.6515 -2.90236 73.4243 -0.204729 74.1471C2.4929 74.8699 5.26569 73.2691 5.98852 70.5714L8.52429 61.1078" stroke="#464646" stroke-width="1.36649" stroke-miterlimit="10" stroke-linecap="round" stroke-linejoin="round"/>
<path d="M5.18898 67.5554C-0.0794402 63.9814 -3.15235 65.6113 -3.15235 65.6113C-3.15235 65.6113 -3.31359 66.9646 1.20977 67.8186C5.05245 68.5442 7.10132 66.4193 7.10132 66.4193" fill="#121212"/>
<path d="M5.18898 67.5554C-0.0794401 63.9814 -3.15235 65.6113 -3.15235 65.6113C-3.15235 65.6113 -3.31359 66.9646 1.20976 67.8186C5.05245 68.5442 7.10132 66.4193 7.10132 66.4193" stroke="#464646" stroke-width="1.36649" stroke-miterlimit="10" stroke-linecap="round" stroke-linejoin="round"/>
<path d="M-3.2868 85.6495C-0.58919 86.3723 1.70464 86.559 1.83661 86.0665C1.96858 85.574 -0.111288 84.5887 -2.8089 83.8659C-5.50651 83.1431 -7.80034 82.9564 -7.93231 83.4489C-8.06428 83.9414 -5.98441 84.9266 -3.2868 85.6495Z" fill="#121212" stroke="#464646" stroke-width="1.36649" stroke-miterlimit="10" stroke-linecap="round" stroke-linejoin="round"/>
<rect x="360.937" y="104.161" width="49.8671" height="66.7262" rx="24.9335" transform="rotate(17.6719 360.937 104.161)" fill="#121212" stroke="#030303" stroke-width="4.68058"/>
<rect x="414.85" y="57.6663" width="49.8671" height="67.8298" rx="24.9335" transform="rotate(114.683 414.85 57.6663)" fill="#121212" stroke="#030303" stroke-width="4.68058"/>
<rect x="448.117" y="93.7493" width="55.3843" height="55.3847" rx="27.6922" transform="rotate(114.683 448.117 93.7493)" fill="#121212" stroke="#030303" stroke-width="4.68058"/>
<rect x="478.286" y="127.327" width="49.6336" height="49.6339" rx="8.65432" transform="rotate(118.746 478.286 127.327)" fill="#121212" stroke="#030303" stroke-width="4.68058"/>
<path d="M376.667 135.679C380.054 136.587 382.901 136.945 383.026 136.48C383.15 136.014 380.506 134.901 377.119 133.993C373.732 133.086 370.885 132.728 370.76 133.193C370.635 133.659 373.28 134.772 376.667 135.679Z" stroke="#464646" stroke-width="1.40417" stroke-miterlimit="10" stroke-linecap="round" stroke-linejoin="round"/>
<path d="M379.989 143.728C374.553 140.28 367.169 139.251 365.926 140.841" stroke="#464646" stroke-width="1.40417" stroke-miterlimit="10" stroke-linecap="round" stroke-linejoin="round"/>
<path d="M383.025 136.479C383.025 136.479 387.533 157.51 372.015 153.041C356.341 149.152 370.76 133.193 370.76 133.193" stroke="#464646" stroke-width="1.40417" stroke-miterlimit="10" stroke-linecap="round" stroke-linejoin="round"/>
<path d="M365.777 140.975C365.596 144.127 383.444 145.156 383.626 142.004" stroke="#464646" stroke-width="1.40417" stroke-miterlimit="10" stroke-linecap="round" stroke-linejoin="round"/>
<path d="M411.392 99.3498C415.802 99.3498 419.377 98.6739 419.377 97.8402C419.377 97.0064 415.802 96.3306 411.392 96.3306C406.983 96.3306 403.408 97.0064 403.408 97.8402C403.408 98.6739 406.983 99.3498 411.392 99.3498Z" stroke="#464646" stroke-width="1.40417" stroke-miterlimit="10" stroke-linecap="round" stroke-linejoin="round"/>
<path d="M419.376 97.8398C419.458 98.2959 419.501 98.7652 419.501 99.2444C419.501 103.663 415.87 107.245 411.391 107.245C406.913 107.245 403.282 103.663 403.282 99.2444C403.282 98.7653 403.325 98.296 403.407 97.8398" stroke="#464646" stroke-width="1.40417" stroke-miterlimit="10" stroke-linecap="round" stroke-linejoin="round"/>
<path d="M411.392 118.364C414.391 118.364 416.822 117.831 416.822 117.172C416.822 116.514 414.391 115.98 411.392 115.98C408.393 115.98 405.961 116.514 405.961 117.172C405.961 117.831 408.393 118.364 411.392 118.364Z" stroke="#464646" stroke-width="1.40417" stroke-miterlimit="10" stroke-linecap="round" stroke-linejoin="round"/>
<path d="M419.323 100.91C419.323 100.91 417.987 100.664 413.088 102.267C406.108 104.552 403.408 100.664 403.408 100.664C403.408 100.664 407.402 99.2545 414.291 101.888" stroke="#464646" stroke-width="1.40417" stroke-miterlimit="10" stroke-linecap="round" stroke-linejoin="round"/>
<path d="M369.123 52.7431C369.123 52.7431 372.474 54.4376 372.429 57.9241C372.42 58.6877 372.7 59.4284 373.22 59.9873C374.181 61.0195 375.294 63.0562 373.533 66.1068C371.771 69.1573 369.451 69.2115 368.077 68.8956C367.332 68.7245 366.551 68.8522 365.895 69.2426C362.898 71.0249 359.754 68.9695 359.754 68.9695" stroke="#464646" stroke-width="1.40417" stroke-miterlimit="10" stroke-linecap="round" stroke-linejoin="round"/>
<path d="M365.703 61.5855C368.29 57.104 369.827 53.1475 369.136 52.7484C368.445 52.3493 365.787 55.6588 363.2 60.1403C360.612 64.6219 359.075 68.5784 359.766 68.9775C360.457 69.3766 363.115 66.0671 365.703 61.5855Z" stroke="#464646" stroke-width="1.40417" stroke-miterlimit="10" stroke-linecap="round" stroke-linejoin="round"/>
<path d="M373.533 66.1069L382.962 71.5508" stroke="#464646" stroke-width="1.40417" stroke-miterlimit="10" stroke-linecap="round" stroke-linejoin="round"/>
<path d="M384.046 72.1772C385.622 69.4485 386.413 66.9561 385.815 66.6103C385.216 66.2645 383.453 68.1962 381.877 70.925C380.302 73.6537 379.51 76.1461 380.109 76.4919C380.708 76.8377 382.471 74.9059 384.046 72.1772Z" stroke="#464646" stroke-width="1.40417" stroke-miterlimit="10" stroke-linecap="round" stroke-linejoin="round"/>
<path d="M371.722 55.2625C366.906 60.2031 368.556 66.5772 363.231 69.97C362.477 69.0518 364.952 63.7072 368.744 60.0454" stroke="#464646" stroke-width="1.40417" stroke-miterlimit="10" stroke-linecap="round" stroke-linejoin="round"/>
</g>
</g>
<mask id="mask1_2294_4662" style="mask-type:alpha" maskUnits="userSpaceOnUse" x="21" y="79" width="369" height="312">
<rect x="21.375" y="79.3008" width="367.829" height="311.344" fill="#FFCC4C"/>
</mask>
<g mask="url(#mask1_2294_4662)">
<path d="M258.627 512.623L217.364 533.652C212.637 527.831 202.77 512.874 195.39 501.336C192.785 497.264 190.506 493.623 188.847 490.945C186.904 487.805 180.731 433.196 177 398.769C175.253 382.698 174.056 371.048 174.056 371.048L174.015 370.767L187.317 365.14C187.317 365.14 190.535 371.612 195.604 381.907C211.959 414.923 247.621 487.395 258.627 512.623Z" fill="#171717"/>
<path d="M195.604 381.909L177.972 397.886L177 398.77L175.584 400.054L165.022 372.296L174.056 371.05L174.015 370.769L187.317 365.141C187.317 365.141 190.535 371.614 195.604 381.909Z" fill="#171717"/>
<path d="M147.671 272.906C147.671 272.906 150.442 260.143 144.701 259.449C138.961 258.754 134.766 266.622 134.766 266.622C134.766 266.622 123.838 271.311 121.507 279.058C119.176 286.804 133.088 294.559 133.088 294.559L147.671 272.906Z" fill="#202020"/>
<path d="M195.39 501.336C195.428 501.594 195.469 501.875 195.483 502.136C196.515 511.992 197.168 528.772 197.6 535.507L154.24 541.834C149.763 512.303 135.136 425.679 134.336 411.337C133.342 393.697 133.984 376.608 133.984 376.608L165.023 372.295L174.057 371.048L177.973 397.884L185.894 445.441C185.894 445.441 192.506 473.2 195.39 501.336Z" fill="#1C1C1C"/>
<path d="M140.568 395.472C139.828 395.581 139.047 395.608 138.227 395.536C137.946 395.513 137.737 395.263 137.761 394.982C137.785 394.706 138.035 394.499 138.313 394.519C147.123 395.28 150.95 383.447 150.987 383.326C151.072 383.058 151.362 382.913 151.627 382.991C151.896 383.076 152.046 383.364 151.963 383.632C151.925 383.747 148.516 394.313 140.568 395.472Z" fill="white"/>
<path d="M195.248 501.693C194.974 501.733 194.717 501.546 194.671 501.27L177.427 397.695C177.398 397.524 177.46 397.348 177.592 397.23L188.459 387.537C188.669 387.349 188.992 387.366 189.181 387.578C189.37 387.79 189.35 388.111 189.138 388.3L178.48 397.805L195.677 501.104C195.722 501.38 195.535 501.644 195.257 501.692L195.248 501.693Z" fill="white"/>
<path d="M155.357 302.833C155.357 302.833 167.032 301.627 172.884 309.548C178.737 317.47 191.976 368.843 191.976 368.843C191.976 368.843 177.591 375.318 158.784 377.83C139.977 380.342 131.782 380.119 131.782 380.119L124.753 345.713C124.753 345.713 120.325 311.363 124.665 308.343C129.005 305.326 147.32 302.119 155.357 302.833Z" fill="white"/>
<path d="M135.224 295.462L137.98 306.612C137.98 306.612 139.212 308.459 146.819 308.144C151.808 307.938 153.827 305.91 153.827 305.91L151.754 300.432L149.726 295.091L137.306 295.412L135.224 295.462Z" fill="#FEC29E"/>
<path d="M137.308 295.407C137.411 295.706 137.615 296.035 137.898 296.403C141.771 301.355 148.888 300.87 151.756 300.427L149.727 295.086L137.308 295.407Z" fill="#292929"/>
<path d="M145.795 270.035C145.795 270.035 154.729 282.622 154.421 290.947C154.116 299.271 147.071 299.631 142.681 299.07C138.29 298.509 135.818 296.333 135.818 296.333C135.818 296.333 132.344 298.575 128.974 295.462C125.605 292.349 126.198 287.719 128.135 286.234C130.073 284.75 133.014 285.791 133.014 285.791L130.083 282.211C130.083 282.211 133.884 259.62 145.795 270.035Z" fill="#FEC29E"/>
<path d="M134.044 291.972C133.953 291.985 133.86 291.973 133.771 291.935L128.134 289.524C127.876 289.413 127.753 289.115 127.864 288.855C127.976 288.594 128.275 288.474 128.533 288.587L134.17 290.999C134.43 291.107 134.551 291.407 134.44 291.668C134.367 291.836 134.215 291.947 134.044 291.972Z" fill="#292929"/>
<path d="M129.688 293.009C129.486 293.038 129.276 292.942 129.169 292.752C129.031 292.507 129.12 292.197 129.365 292.058L132.294 290.412C132.54 290.273 132.852 290.362 132.988 290.608C133.127 290.853 133.038 291.163 132.793 291.302L129.863 292.948C129.808 292.98 129.749 293 129.688 293.009Z" fill="#292929"/>
<path d="M138.331 278.222C138.242 278.235 138.149 278.224 138.063 278.189C137.801 278.081 137.678 277.783 137.783 277.521C138.761 275.148 140.818 275.025 141.769 275.291C142.041 275.368 142.199 275.649 142.124 275.921C142.051 276.19 141.771 276.353 141.496 276.274C141.302 276.225 139.586 275.829 138.729 277.912C138.658 278.083 138.502 278.197 138.331 278.222Z" fill="#292929"/>
<path d="M148.456 275.103C148.355 275.117 148.248 275.102 148.149 275.052C146.869 274.396 145.905 275.334 145.865 275.375C145.667 275.577 145.347 275.58 145.145 275.38C144.944 275.182 144.938 274.862 145.136 274.661C145.652 274.131 147.044 273.336 148.617 274.141C148.868 274.269 148.968 274.576 148.84 274.829C148.759 274.982 148.615 275.079 148.456 275.103Z" fill="#292929"/>
<path d="M149.649 286.461C149.273 286.457 149.054 286.218 149.065 285.936C149.219 281.804 146.076 281.037 145.942 281.004C145.667 280.941 145.496 280.669 145.559 280.394C145.622 280.119 145.893 279.946 146.166 280.009C146.207 280.017 150.275 280.97 150.086 285.974C150.074 286.225 149.886 286.427 149.649 286.461Z" fill="#292929"/>
<path d="M149.707 280.475C149.5 280.505 149.287 280.404 149.182 280.209L147.9 277.818C147.765 277.57 147.859 277.261 148.108 277.127C148.349 276.996 148.665 277.089 148.799 277.337L150.081 279.728C150.216 279.977 150.122 280.285 149.873 280.419C149.82 280.448 149.763 280.466 149.707 280.475Z" fill="#292929"/>
<path d="M143.049 282.305C142.843 282.335 142.629 282.234 142.524 282.039L141.244 279.648C141.11 279.399 141.206 279.091 141.452 278.957C141.694 278.826 142.009 278.918 142.143 279.167L143.423 281.558C143.558 281.807 143.462 282.115 143.215 282.249C143.162 282.278 143.107 282.296 143.049 282.305Z" fill="#292929"/>
<path d="M147.671 272.907C147.671 272.907 145.981 270.954 143.339 271.602C140.698 272.251 139.633 274.599 139.633 274.599C139.633 274.599 141.924 278.992 138.941 282.389C135.959 285.785 133.015 285.791 133.015 285.791L130.177 285.47L127.3 281.94L132.753 271.479L141.179 263.59L147.294 267.09L147.671 272.907Z" fill="#202020"/>
<path d="M147.109 291.414C146.021 291.573 144.393 291.377 143.24 289.884C143.068 289.66 143.11 289.34 143.332 289.169C143.555 288.993 143.875 289.04 144.049 289.261C145.385 290.99 147.372 290.315 147.454 290.286C147.714 290.196 148.011 290.33 148.105 290.596C148.198 290.86 148.064 291.152 147.8 291.246C147.611 291.317 147.376 291.375 147.109 291.414Z" fill="#292929"/>
<path d="M77.9625 286.994C77.9625 286.994 74.9355 279.11 70.0386 276.031C65.1417 272.952 59.6385 271.311 61.0231 274.484C62.4077 277.657 66.2099 282.617 66.2099 282.617L58.0018 281.665C58.0018 281.665 52.5009 280.024 48.6125 279.574C44.7242 279.124 43.9467 282.048 43.9467 282.048C43.9467 282.048 40.0584 281.598 38.5898 282.935C37.1213 284.272 38.6198 286.454 38.6198 286.454C38.6198 286.454 33.2629 287.341 35.8858 291.159C38.5087 294.977 50.1448 300.343 55.6483 301.987C61.1492 303.628 72.9878 303.492 72.9878 303.492C72.9878 303.492 83.7454 304.249 77.9625 286.994Z" fill="#FEC29E"/>
<path d="M49.3399 293.062C49.1594 293.088 48.9719 293.018 48.8556 292.86C48.6887 292.635 48.7353 292.315 48.9619 292.145L61.5959 282.795C61.8235 282.633 62.1429 282.672 62.3107 282.904C62.4775 283.129 62.4309 283.449 62.2043 283.618L49.5704 292.969C49.5008 293.017 49.4219 293.05 49.3399 293.062Z" fill="#1E1C1C"/>
<path d="M72.8731 293.086C72.8098 293.095 72.7448 293.093 72.6801 293.076C65.0784 291.243 66.1902 283.754 66.2033 283.68C66.2471 283.406 66.5172 283.223 66.7876 283.255C67.0671 283.301 67.2558 283.56 67.2127 283.839C67.1683 284.109 66.2492 290.474 72.9203 292.081C73.1955 292.146 73.3652 292.423 73.2974 292.696C73.2471 292.909 73.0747 293.057 72.8731 293.086Z" fill="#1E1C1C"/>
<path d="M222.325 284.319C222.325 284.319 225.049 276.326 229.827 273.063C234.602 269.8 240.039 267.949 238.776 271.173C237.514 274.397 233.904 279.498 233.904 279.498L242.071 278.235C242.071 278.235 247.505 276.384 251.375 275.786C255.242 275.188 256.131 278.079 256.131 278.079C256.131 278.079 259.998 277.481 261.518 278.76C263.035 280.04 261.622 282.278 261.622 282.278C261.622 282.278 267.009 282.959 264.533 286.875C262.057 290.791 250.634 296.597 245.198 298.448C239.764 300.299 227.93 300.616 227.93 300.616C227.93 300.616 217.207 301.783 222.325 284.319Z" fill="#FEC29E"/>
<path d="M251.287 289.281C251.165 289.299 251.037 289.272 250.925 289.195L237.944 280.335C237.713 280.177 237.652 279.858 237.809 279.624C237.967 279.393 238.286 279.33 238.52 279.492L251.501 288.352C251.733 288.51 251.793 288.829 251.636 289.063C251.554 289.187 251.423 289.261 251.287 289.281Z" fill="#1E1C1C"/>
<path d="M227.772 290.213C227.523 290.249 227.278 290.095 227.208 289.845C227.133 289.573 227.29 289.289 227.562 289.214C234.167 287.352 233.005 281.028 232.951 280.76C232.897 280.486 233.075 280.216 233.355 280.161C233.647 280.115 233.901 280.294 233.954 280.559C233.967 280.634 235.364 288.078 227.839 290.196C227.818 290.201 227.795 290.209 227.772 290.213Z" fill="#1E1C1C"/>
<path d="M59.5477 306.504C59.5477 306.504 76.2366 333.686 94.166 341.219C109.061 347.478 130.865 344.275 130.865 344.275L137.234 304.448C137.234 304.448 110.526 307.534 102.396 303.162C94.2627 298.788 80.7886 288.619 80.7886 288.619L59.5477 306.504Z" fill="white"/>
<path d="M103.239 315.799C102.554 315.899 102.156 315.598 101.944 315.327C100.437 313.412 103.53 305.442 104.163 303.863C104.25 303.652 104.463 303.523 104.691 303.544C104.917 303.566 105.1 303.738 105.14 303.962C105.199 304.301 106.581 312.245 104.677 314.881C104.299 315.405 103.815 315.715 103.239 315.799ZM104.413 306.084C103.152 309.595 102.036 313.794 102.745 314.696C102.783 314.745 102.847 314.824 103.091 314.789C103.389 314.745 103.635 314.58 103.848 314.286C104.916 312.806 104.73 308.812 104.413 306.084Z" fill="#161616"/>
<path d="M160.576 303.002C160.576 303.002 178.759 306.957 193.796 304.019C208.833 301.08 217.486 284.172 217.486 284.172L239.639 302.634C239.639 302.634 232.071 331.086 208.795 340.34C185.517 349.594 164.097 337.027 164.097 337.027L160.576 303.002Z" fill="white"/>
<path d="M201.94 311.046C201.373 311.128 200.829 311.026 200.315 310.735C197.826 309.329 197.068 303.774 197.036 303.537C197.013 303.344 197.097 303.152 197.259 303.044C197.421 302.939 197.633 302.935 197.8 303.028C198.865 303.65 204.172 306.871 204.033 309.244C204.005 309.713 203.761 310.368 202.751 310.808C202.476 310.929 202.205 311.007 201.94 311.046ZM198.239 304.496C198.613 306.306 199.448 309.071 200.818 309.847C201.282 310.11 201.781 310.116 202.341 309.872C202.989 309.59 203.005 309.284 203.012 309.185C203.08 308.062 200.506 305.955 198.239 304.496Z" fill="#161616"/>
<path d="M183.922 343.791C183.676 343.827 183.431 343.676 183.359 343.426L178.273 325.945C178.193 325.676 178.35 325.39 178.621 325.312C178.898 325.245 179.178 325.389 179.254 325.663L184.34 343.144C184.419 343.412 184.262 343.699 183.991 343.776C183.968 343.782 183.945 343.788 183.922 343.791Z" fill="#161616"/>
<path d="M148.077 308.691C142.688 309.477 138.018 307.198 137.755 307.064C137.502 306.94 137.4 306.632 137.525 306.379C137.649 306.127 137.954 306.02 138.21 306.15C138.295 306.193 146.639 310.258 153.54 305.483C153.769 305.328 154.09 305.379 154.251 305.614C154.412 305.847 154.353 306.164 154.12 306.325C152.131 307.7 150.055 308.403 148.077 308.691Z" fill="#161616"/>
<path d="M135.499 311.093C135.372 311.111 135.238 311.08 135.128 311.001C134.899 310.838 134.847 310.517 135.01 310.288L136.675 307.953C136.84 307.723 137.158 307.671 137.388 307.834C137.618 307.997 137.669 308.317 137.506 308.547L135.841 310.882C135.756 311.002 135.63 311.073 135.499 311.093Z" fill="#161616"/>
<path d="M142.407 314.564C142.368 314.57 142.325 314.572 142.283 314.566C142.002 314.54 141.798 314.29 141.824 314.008L142.118 311.023C142.147 310.744 142.4 310.53 142.676 310.566C142.958 310.592 143.162 310.845 143.136 311.124L142.841 314.106C142.819 314.349 142.632 314.532 142.407 314.564Z" fill="#161616"/>
<path d="M151.931 313.175C151.737 313.203 151.535 313.118 151.425 312.94L149.976 310.619C149.826 310.38 149.898 310.065 150.137 309.916C150.373 309.764 150.69 309.835 150.84 310.076L152.289 312.397C152.439 312.636 152.368 312.951 152.129 313.101C152.067 313.141 151.999 313.165 151.931 313.175Z" fill="#161616"/>
<path d="M157.334 309.448C157.245 309.461 157.149 309.448 157.061 309.414L154.351 308.267C154.091 308.157 153.971 307.858 154.079 307.599C154.189 307.336 154.491 307.222 154.748 307.326L157.457 308.47C157.717 308.581 157.837 308.879 157.729 309.139C157.661 309.312 157.505 309.423 157.334 309.448Z" fill="#161616"/>
<path d="M63.6306 312.966C63.4642 312.99 63.2905 312.931 63.1726 312.795C62.988 312.581 63.0085 312.262 63.2203 312.073L85.9296 292.242C86.1425 292.06 86.4641 292.083 86.65 292.29C86.8345 292.505 86.814 292.824 86.6022 293.013L63.8929 312.843C63.8144 312.912 63.7244 312.952 63.6306 312.966Z" fill="#161616"/>
<path d="M82.8161 296.214C82.6732 296.234 82.5213 296.194 82.4058 296.092L77.3226 291.637C77.1113 291.452 77.0902 291.127 77.2748 290.916C77.4625 290.709 77.7843 290.684 77.9956 290.868L83.0788 295.323C83.29 295.508 83.3111 295.833 83.1265 296.044C83.0424 296.14 82.9333 296.196 82.8161 296.214Z" fill="#161616"/>
<path d="M76.5242 301.707C76.3649 301.73 76.1942 301.676 76.0749 301.548L71.4375 296.523C71.2466 296.313 71.2597 295.993 71.4661 295.8C71.6753 295.609 71.9952 295.62 72.1884 295.829L76.8262 300.856C77.0171 301.066 77.004 301.386 76.7975 301.579C76.717 301.65 76.6227 301.693 76.5242 301.707Z" fill="#161616"/>
<path d="M69.8564 307.533C69.6736 307.56 69.4834 307.487 69.3691 307.326L65.2693 301.639C65.1045 301.411 65.1558 301.09 65.3854 300.925C65.61 300.758 65.9311 300.81 66.0989 301.041L70.1987 306.729C70.3635 306.956 70.3122 307.277 70.0826 307.442C70.0131 307.491 69.9361 307.521 69.8564 307.533Z" fill="#161616"/>
<path d="M236.412 311.938C236.264 311.96 236.109 311.918 235.99 311.808L213.146 290.669C212.938 290.476 212.927 290.153 213.119 289.945C213.307 289.738 213.632 289.722 213.84 289.916L236.685 311.056C236.892 311.248 236.903 311.57 236.711 311.78C236.629 311.868 236.524 311.922 236.412 311.938Z" fill="#161616"/>
<path d="M218.51 295.374C218.4 295.39 218.284 295.369 218.182 295.312C217.937 295.171 217.853 294.857 217.994 294.614L221.842 287.915C221.983 287.665 222.293 287.589 222.54 287.725C222.786 287.866 222.87 288.179 222.728 288.423L218.88 295.122C218.798 295.265 218.66 295.352 218.51 295.374Z" fill="#161616"/>
<path d="M224.028 300.123C223.927 300.137 223.822 300.122 223.724 300.074C223.471 299.948 223.368 299.64 223.497 299.386L227.058 292.296C227.186 292.043 227.493 291.945 227.743 292.069C227.996 292.195 228.096 292.503 227.97 292.756L224.409 299.847C224.333 299.999 224.187 300.099 224.028 300.123Z" fill="#161616"/>
<path d="M230.584 306.548C230.497 306.56 230.407 306.55 230.321 306.517C230.059 306.414 229.932 306.116 230.035 305.852L233.333 297.582C233.438 297.322 233.733 297.193 233.995 297.299C234.257 297.404 234.384 297.699 234.281 297.963L230.983 306.233C230.915 306.406 230.759 306.522 230.584 306.548Z" fill="#161616"/>
<path d="M157.167 371.624C142.872 373.71 130.725 373.946 130.508 373.951C130.226 373.954 129.995 373.732 129.99 373.45C129.986 373.166 130.205 372.945 130.493 372.932C130.878 372.926 169.431 372.171 189.907 361.444C190.147 361.306 190.464 361.409 190.596 361.66C190.726 361.909 190.63 362.217 190.381 362.347C181.223 367.145 168.518 369.968 157.167 371.624Z" fill="#161616"/>
<path d="M137.324 380.473C137.082 380.509 136.843 380.364 136.765 380.124L134.609 373.42C134.522 373.151 134.669 372.863 134.939 372.776C135.192 372.689 135.494 372.839 135.581 373.106L137.737 379.81C137.824 380.08 137.677 380.367 137.407 380.454C137.377 380.463 137.352 380.469 137.324 380.473Z" fill="#161616"/>
<path d="M146.523 379.767C146.279 379.802 146.038 379.656 145.961 379.408L144.04 373.12C143.958 372.852 144.11 372.564 144.381 372.484C144.656 372.401 144.936 372.549 145.019 372.824L146.94 379.112C147.022 379.381 146.87 379.668 146.599 379.749C146.574 379.759 146.549 379.763 146.523 379.767Z" fill="#161616"/>
<path d="M154.982 378.533C154.71 378.573 154.453 378.388 154.406 378.114L153.287 371.709C153.239 371.431 153.423 371.168 153.701 371.117C153.987 371.076 154.244 371.261 154.291 371.534L155.41 377.939C155.457 378.217 155.273 378.481 154.996 378.531C154.991 378.532 154.986 378.532 154.982 378.533Z" fill="#161616"/>
<path d="M164.228 377.186C163.98 377.222 163.735 377.069 163.665 376.818L161.866 370.513C161.788 370.241 161.945 369.958 162.219 369.882C162.472 369.823 162.772 369.961 162.85 370.235L164.649 376.541C164.726 376.812 164.569 377.096 164.295 377.172C164.275 377.179 164.252 377.183 164.228 377.186Z" fill="#161616"/>
<path d="M172.827 375.29C172.548 375.331 172.288 375.137 172.247 374.858L171.4 369.05C171.359 368.771 171.553 368.51 171.832 368.47C172.111 368.429 172.371 368.623 172.412 368.902L173.26 374.71C173.3 374.989 173.106 375.249 172.827 375.29Z" fill="#161616"/>
<path d="M180.551 373.477C180.293 373.515 180.052 373.337 180.014 373.079L179.033 366.359C178.996 366.102 179.174 365.863 179.434 365.825C179.692 365.787 179.933 365.965 179.971 366.223L180.951 372.942C180.987 373.201 180.809 373.44 180.551 373.477Z" fill="#161616"/>
<path d="M188.083 370.948C187.811 370.988 187.555 370.803 187.508 370.53L186.297 363.576C186.246 363.298 186.433 363.034 186.71 362.984C186.955 362.891 187.253 363.123 187.3 363.4L188.511 370.355C188.561 370.632 188.375 370.896 188.097 370.946C188.093 370.947 188.088 370.948 188.083 370.948Z" fill="#161616"/>
<path d="M198.208 245.522L204.225 286.936C204.457 288.529 206.106 289.608 207.91 289.344L274.338 279.683C276.143 279.419 277.417 277.917 277.185 276.324L271.168 234.909C270.935 233.316 269.287 232.238 267.482 232.501L201.054 242.163C199.252 242.426 197.978 243.93 198.208 245.522Z" fill="#FFBE1D"/>
<path d="M223.213 241.818L229.239 283.296C229.472 284.891 230.8 286.018 232.213 285.812L284.162 278.257C285.571 278.051 286.529 276.593 286.296 274.997L280.27 233.519C280.037 231.924 278.704 230.797 277.296 231.003L225.347 238.558C223.933 238.764 222.98 240.222 223.213 241.818Z" fill="#D7A21D"/>
<path d="M258.034 233.924L248.378 235.333L255.255 282.462L264.912 281.053L258.034 233.924Z" fill="#B58610"/>
<path d="M213.367 240.416L206.635 241.398L213.512 288.527L220.244 287.545L213.367 240.416Z" fill="#B58610"/>
<path d="M280.394 269.063C280.731 269.014 280.965 268.699 280.916 268.364L277.107 242.161C277.058 241.823 276.744 241.589 276.409 241.638C276.071 241.687 275.837 242.002 275.886 242.337L279.695 268.54C279.744 268.878 280.058 269.112 280.394 269.063Z" fill="white"/>
<path d="M200.925 186.498C200.731 186.561 196.072 188.05 190.652 189.012C182.84 190.4 177.684 189.984 174.888 187.748C173.719 186.812 172.382 185.074 172.649 182.11C173.008 178.151 175.066 176.265 176.731 175.376C181.994 172.573 190.959 175.702 196.358 178.106C194.636 171.898 192.606 161.802 196.128 157.652C197.088 156.52 198.877 155.282 201.95 155.805C204.531 156.244 206.471 157.614 207.559 159.774C211.029 166.655 204.641 179.849 203.732 181.66L202.195 185.337C202.088 185.592 201.932 185.819 201.74 186.008C201.512 186.23 201.234 186.4 200.925 186.498ZM176.749 182.479C176.639 183.701 177.046 184.205 177.459 184.536C180.348 186.85 190.272 185.286 197.541 183.223C191.795 180.293 182.525 176.951 178.663 179.009C178.422 179.136 178.155 179.307 177.895 179.563C177.374 180.077 176.887 180.936 176.749 182.479ZM199.268 160.314C197.202 162.747 198.707 171.514 200.729 178.404C203.106 173.21 205.658 165.14 203.883 161.625C203.571 161.005 202.959 160.152 201.261 159.863C200.09 159.664 199.61 159.967 199.378 160.193C199.334 160.236 199.297 160.279 199.268 160.314Z" fill="#FFBE1D"/>
<path d="M158.837 225.055L167.237 233.587C168.072 234.434 169.434 234.445 170.279 233.612L225.145 179.585C225.992 178.751 226.003 177.389 225.169 176.542L216.768 168.01C215.935 167.165 214.575 167.155 213.727 167.988L158.86 222.015C158.015 222.848 158.004 224.21 158.837 225.055Z" fill="#E1AE2D"/>
<path d="M176.152 208.005L184.552 216.538C185.387 217.384 186.622 217.521 187.309 216.844L231.986 172.85C232.676 172.17 232.56 170.935 231.725 170.085L223.325 161.553C222.493 160.709 221.258 160.573 220.568 161.253L175.89 205.247C175.204 205.923 175.32 207.162 176.152 208.005Z" fill="#FFCE55"/>
<path d="M203.214 177.952L196.264 184.803L207.882 196.589L214.831 189.738L203.214 177.952Z" fill="#B58610"/>
<path d="M171.243 209.816L166.398 214.591L177.823 226.182L182.668 221.406L171.243 209.816Z" fill="#B58610"/>
<path d="M248.196 232.952C250.175 231.265 252.153 229.578 254.132 227.891C257.601 224.933 261.121 221.917 263.6 218.091C264.731 216.345 265.638 214.108 264.727 212.237C264.019 210.783 262.205 209.971 260.648 210.41C259.092 210.849 257.97 212.491 258.127 214.1" stroke="#94B9DE" stroke-width="0.741601" stroke-miterlimit="10"/>
<path d="M268.188 219.765L265.653 230.094L274.405 221.347L268.188 219.765Z" fill="#CC8911"/>
<path d="M237.013 177.888L252.216 154.36L253.423 156.487L237.013 177.888Z" fill="#DEB843"/>
<path d="M230.132 221.918C229.506 221.642 215.526 198.046 215.526 198.046L213.27 199.756L230.132 221.918Z" fill="#DEB843"/>
<path d="M238.435 164.911L240.594 157.892L237.934 157.545L238.435 164.911Z" fill="#94B9DE"/>
<path d="M283.147 205.073L298.344 187.042L301.238 189.923L283.147 205.073Z" fill="#94B9DE"/>
<path d="M284.09 215.195C285.074 215.128 305.901 207.382 305.901 207.382L306.191 211.641L284.09 215.195Z" fill="#C1664A"/>
<path d="M246.193 189.162C246.462 184.466 248.958 179.946 252.788 177.217C253.998 176.355 255.431 175.644 256.909 175.796C258.387 175.947 259.812 177.259 259.617 178.732C259.419 180.238 257.533 181.132 256.117 180.582C254.7 180.033 253.895 178.409 253.985 176.892C254.074 175.376 254.91 173.986 255.967 172.895C258.994 169.766 264.074 168.85 268.004 170.724" stroke="#DEB843" stroke-width="0.741601" stroke-miterlimit="10"/>
<path d="M286.31 192.796C289.529 188.789 293.314 185.238 297.517 182.281C298.945 181.276 300.454 180.325 302.144 179.885C303.835 179.446 305.751 179.582 307.161 180.613C308.571 181.644 309.281 183.687 308.485 185.241C307.915 186.354 306.601 187.057 305.369 186.844C304.138 186.63 303.118 185.473 303.129 184.223C303.14 182.973 304.238 181.811 305.488 181.793" stroke="#94B9DE" stroke-width="0.741601" stroke-miterlimit="10"/>
<path d="M224.813 226.646C223.237 221.31 218.953 216.85 213.683 215.063C212.395 214.626 211.02 214.339 209.675 214.542C208.33 214.744 207.016 215.504 206.413 216.723C205.857 217.845 205.992 219.272 206.736 220.279C207.48 221.286 208.796 221.832 210.036 221.663C211.162 221.508 212.239 220.708 212.484 219.598C212.729 218.489 211.917 217.194 210.783 217.13C209.649 217.066 208.692 218.536 209.352 219.461" stroke="#94B9DE" stroke-width="0.494401" stroke-miterlimit="10"/>
<path d="M196.508 234.351C192.995 233.276 189.18 234.358 185.857 235.924C184.659 236.488 183.477 237.126 182.5 238.02C181.523 238.914 180.759 240.094 180.578 241.406C180.397 242.718 180.876 244.156 181.95 244.929C183.025 245.703 184.688 245.637 185.561 244.641C186.434 243.644 186.159 241.819 184.951 241.275" stroke="#94B9DE" stroke-width="0.741601" stroke-miterlimit="10"/>
<path d="M282.58 221.888C288.399 221.276 294.453 223.738 298.194 228.236C299.337 229.611 300.297 231.232 300.433 233.015C300.569 234.797 299.696 236.742 298.045 237.428C296.394 238.115 294.131 237.032 293.993 235.249C293.862 233.557 295.603 232.18 297.3 232.106C298.996 232.033 300.584 232.897 302.002 233.83C306.693 236.912 310.684 241.052 313.594 245.851" stroke="#94B9DE" stroke-width="0.741601" stroke-miterlimit="10"/>
<path d="M255.843 161.536L256.436 163.01L258.02 162.902L256.802 163.92L257.394 165.395L256.049 164.55L254.83 165.569L255.217 164.028L253.872 163.184L255.456 163.076L255.843 161.536Z" fill="#94B9DE"/>
<path d="M272.262 196.949L272.854 198.422L274.439 198.314L273.22 199.333L273.812 200.807L272.467 199.963L271.248 200.982L271.635 199.441L270.29 198.597L271.875 198.489L272.262 196.949Z" fill="#94B9DE"/>
<path d="M287.184 227.702L287.776 229.176L289.361 229.068L288.142 230.087L288.735 231.561L287.389 230.717L286.171 231.736L286.558 230.195L285.212 229.351L286.797 229.243L287.184 227.702Z" fill="#EEC430"/>
<path d="M190.296 219.152L191.29 220.391L192.776 219.829L191.904 221.157L192.897 222.397L191.365 221.978L190.493 223.306L190.418 221.719L188.886 221.3L190.372 220.738L190.296 219.152Z" fill="#94B9DE"/>
<path d="M208.972 203.971L209.564 205.444L211.149 205.336L209.93 206.355L210.523 207.829L209.177 206.985L207.959 208.004L208.345 206.463L207 205.619L208.585 205.511L208.972 203.971Z" fill="#EEC430"/>
<path d="M304.057 195.046L304.65 196.52L306.234 196.412L305.016 197.431L305.608 198.905L304.263 198.061L303.044 199.079L303.431 197.539L302.086 196.695L303.67 196.587L304.057 195.046Z" fill="#EEC430"/>
<path d="M242.039 229.721L242.632 231.195L244.217 231.087L242.998 232.105L243.59 233.579L242.245 232.735L241.026 233.754L241.413 232.213L240.068 231.369L241.652 231.261L242.039 229.721Z" fill="#EEC430"/>
<path d="M264.316 146.227L265.661 149.572L269.259 149.327L266.492 151.64L267.837 154.985L264.783 153.069L262.016 155.382L262.895 151.885L259.84 149.969L263.438 149.724L264.316 146.227Z" fill="#C1664A"/>
<path d="M240.642 193.243L241.604 195.634L244.174 195.459L242.197 197.111L243.158 199.502L240.976 198.133L238.999 199.785L239.627 197.286L237.444 195.917L240.015 195.742L240.642 193.243Z" fill="#C1664A"/>
<path d="M280.083 175.184L280.914 177.252L283.137 177.1L281.428 178.53L282.259 180.597L280.371 179.413L278.662 180.842L279.205 178.681L277.317 177.497L279.54 177.345L280.083 175.184Z" fill="#9873FF"/>
<path d="M225.027 194.894L225.858 196.961L228.081 196.81L226.372 198.239L227.203 200.307L225.315 199.123L223.605 200.552L224.148 198.391L222.261 197.206L224.484 197.055L225.027 194.894Z" fill="#9873FF"/>
<path d="M197.145 239.183L196.863 239.565L186.32 253.797C186.32 253.797 190.11 254.208 190.244 253.814" fill="#EEC430"/>
<path d="M176.856 235.714L168.704 239.098L170.713 241.145L176.856 235.714Z" fill="#9873FF"/>
<path d="M248.555 215.011L251.548 188.971L255.18 190.665L248.555 215.011Z" fill="#9873FF"/>
<path d="M275.447 208.644L279.293 200.338L280.996 201.447L275.447 208.644Z" fill="#9873FF"/>
<path d="M304.899 218.786L319.584 225.383L318.534 228.811L304.899 218.786Z" fill="#9873FF"/>
<path d="M203.239 223.212C202.935 222.905 196.131 220.25 196.131 220.25L196.359 222.988L203.239 223.212Z" fill="#C1664A"/>
<path d="M179.094 251.879L171.388 258.731L174.599 259.435L179.094 251.879Z" fill="#C1664A"/>
<path d="M235.686 235.259C234.434 233.783 233.187 232.259 232.446 230.471C231.706 228.683 231.531 226.566 232.422 224.849C233.314 223.131 235.449 222.014 237.272 222.662C238.261 223.014 239.092 223.919 239.14 224.968C239.188 226.016 238.278 227.074 237.232 226.997C236.541 226.946 235.943 226.447 235.605 225.841C235.268 225.236 235.15 224.535 235.073 223.846C234.677 220.307 235.224 216.666 236.643 213.4" stroke="#C1664A" stroke-width="0.741601" stroke-miterlimit="10"/>
<path d="M218.334 237.671C217.805 236.259 217.275 234.847 216.746 233.435C216.38 232.459 216.004 231.465 215.356 230.649C214.707 229.833 213.729 229.209 212.687 229.25C211.646 229.29 210.624 230.162 210.657 231.204C210.674 231.708 210.952 232.217 211.41 232.428C211.868 232.639 212.487 232.484 212.728 232.041C212.996 231.55 212.73 230.906 212.286 230.566C211.842 230.226 211.269 230.116 210.719 230.015C207.561 229.438 204.403 228.86 201.246 228.283" stroke="#DEB843" stroke-width="0.741601" stroke-miterlimit="10"/>
<rect x="79.7896" y="389.828" width="252.202" height="11.1188" fill="#373737"/>
</g>
</svg>
