<svg width="410" height="867" viewBox="0 0 410 867" fill="none" xmlns="http://www.w3.org/2000/svg">
<mask id="mask0_2272_41043" style="mask-type:alpha" maskUnits="userSpaceOnUse" x="0" y="0" width="410" height="838">
<rect x="0.987793" width="408.942" height="837.289" rx="11" fill="#030303"/>
</mask>
<g mask="url(#mask0_2272_41043)">
<g opacity="0.5">
<rect x="-13.0089" y="33.3863" width="49.2902" height="65.9322" rx="24.6451" transform="rotate(17.6719 -13.0089 33.3863)" fill="#121212" stroke="#030303" stroke-width="4.55497"/>
<rect x="40.2754" y="-12.4847" width="49.2902" height="67.0216" rx="24.6451" transform="rotate(114.683 40.2754 -12.4847)" fill="#121212" stroke="#030303" stroke-width="4.55497"/>
<rect x="73.1133" y="23.134" width="54.7364" height="54.7368" rx="27.3682" transform="rotate(114.683 73.1133 23.134)" fill="#121212" stroke="#030303" stroke-width="4.55497"/>
<rect x="102.896" y="56.2819" width="49.0597" height="49.06" rx="8.42208" transform="rotate(118.746 102.896 56.2819)" fill="#121212" stroke="#030303" stroke-width="4.55497"/>
<path d="M-6.62587 -13.8728C-6.62587 -13.8728 10.2887 -14.9159 2.68788 -2.16768C-5.13339 10.4464 -11.99 -5.05117 -11.99 -5.05117" fill="#121212"/>
<path d="M-6.62587 -13.8728C-6.62587 -13.8728 10.2887 -14.9159 2.68788 -2.16768C-5.13339 10.4464 -11.99 -5.05117 -11.99 -5.05117" stroke="#464646" stroke-width="1.36649" stroke-miterlimit="10" stroke-linecap="round" stroke-linejoin="round"/>
<path d="M2.68848 -2.16748L8.0182 1.07337" stroke="#464646" stroke-width="1.36649" stroke-miterlimit="10" stroke-linecap="round" stroke-linejoin="round"/>
<path d="M9.19561 1.78897C10.9968 -1.17322 11.9299 -3.89506 11.2797 -4.29043C10.6295 -4.68581 8.6422 -2.60499 6.84098 0.357191C5.03977 3.31938 4.10669 6.04122 4.7569 6.43659C5.40712 6.83197 7.39439 4.75116 9.19561 1.78897Z" fill="#121212" stroke="#464646" stroke-width="1.36649" stroke-miterlimit="10" stroke-linecap="round" stroke-linejoin="round"/>
<path d="M-0.858005 -13.354C-0.858005 -13.354 -2.40827 -12.217 -3.2924 -9.74236C-3.59195 -8.90409 -3.81494 -7.91226 -3.87543 -6.75918C-4.17417 -1.0629 -8.64889 0.0843595 -8.64889 0.0843595C-9.74257 -2.64717 -6.28032 -7.56327 -3.2924 -9.74236" fill="#121212"/>
<path d="M-0.858006 -13.354C-0.858006 -13.354 -2.40827 -12.217 -3.2924 -9.74236M-3.2924 -9.74236C-3.59195 -8.90409 -3.81494 -7.91226 -3.87543 -6.75918C-4.17417 -1.0629 -8.64889 0.0843596 -8.64889 0.0843596C-9.74257 -2.64717 -6.28032 -7.56327 -3.2924 -9.74236Z" stroke="#464646" stroke-width="1.36649" stroke-miterlimit="10" stroke-linecap="round" stroke-linejoin="round"/>
<path d="M74.2968 56.9343C78.7172 59.2305 82.5565 60.5993 82.8721 59.9917C83.1878 59.384 79.8602 57.03 75.4398 54.7338C71.0195 52.4376 67.1802 51.0688 66.8645 51.6764C66.5489 52.2841 69.8764 54.6381 74.2968 56.9343Z" fill="#121212" stroke="#464646" stroke-width="1.36649" stroke-miterlimit="10" stroke-linecap="round" stroke-linejoin="round"/>
<path d="M82.8221 60.0872L74.2925 64.5824C73.4582 65.0221 72.502 65.1744 71.5724 65.0157C70.6918 64.8654 69.8803 64.4438 69.251 63.8098C68.5866 63.1405 68.1614 62.2706 68.0414 61.3352L66.8145 51.772" fill="#121212"/>
<path d="M82.8221 60.0872L74.2925 64.5824C73.4582 65.0221 72.502 65.1744 71.5724 65.0157C70.6918 64.8654 69.8803 64.4438 69.251 63.8098C68.5866 63.1405 68.1614 62.2706 68.0414 61.3352L66.8145 51.772" stroke="#464646" stroke-width="1.36649" stroke-miterlimit="10" stroke-linecap="round" stroke-linejoin="round"/>
<path d="M70.3169 64.5942L64.1218 76.5204" stroke="#464646" stroke-width="1.36649" stroke-miterlimit="10" stroke-linecap="round" stroke-linejoin="round"/>
<path d="M69.4288 79.277C69.2195 79.6799 66.6745 78.7724 63.7443 77.2503C60.814 75.7281 58.6083 74.1677 58.8175 73.7649C59.0267 73.3621 61.5717 74.2696 64.5019 75.7917C67.4321 77.3138 69.638 78.8742 69.4288 79.277Z" fill="#121212" stroke="#464646" stroke-width="1.36649" stroke-miterlimit="10" stroke-linecap="round" stroke-linejoin="round"/>
<path d="M67.311 55.654C68.4237 55.4897 70.7635 56.4226 73.0093 59.418C75.4425 62.6634 78.5084 62.3526 79.3597 61.9127L79.3593 61.9135C78.5142 60.5318 74.6799 57.8412 71.6296 57.8294" fill="#121212"/>
<path d="M67.311 55.654C68.4237 55.4897 70.7635 56.4226 73.0093 59.418C75.4425 62.6634 78.5084 62.3526 79.3597 61.9127L79.3593 61.9135C78.5142 60.5318 74.6799 57.8412 71.6296 57.8294" stroke="#464646" stroke-width="1.36649" stroke-miterlimit="10" stroke-linecap="round" stroke-linejoin="round"/>
<path d="M36.8164 28.6781C41.1694 28.6781 44.6982 28.0109 44.6982 27.1879C44.6982 26.3649 41.1694 25.6978 36.8164 25.6978C32.4634 25.6978 28.9346 26.3649 28.9346 27.1879C28.9346 28.0109 32.4634 28.6781 36.8164 28.6781Z" fill="#121212" stroke="#464646" stroke-width="1.36649" stroke-miterlimit="10" stroke-linecap="round" stroke-linejoin="round"/>
<path d="M44.6986 27.188C44.7794 27.6381 44.8216 28.1014 44.8216 28.5745C44.8216 32.9362 41.2377 36.4721 36.8168 36.4721C32.3959 36.4721 28.812 32.9361 28.812 28.5745C28.812 28.1015 28.8542 27.6382 28.935 27.188" fill="#121212"/>
<path d="M44.6986 27.188C44.7794 27.6381 44.8216 28.1014 44.8216 28.5745C44.8216 32.9362 41.2377 36.4721 36.8168 36.4721C32.3959 36.4721 28.812 32.9361 28.812 28.5745C28.812 28.1015 28.8542 27.6382 28.935 27.188" stroke="#464646" stroke-width="1.36649" stroke-miterlimit="10" stroke-linecap="round" stroke-linejoin="round"/>
<path d="M36.8164 36.501V46.2712" stroke="#464646" stroke-width="1.36649" stroke-miterlimit="10" stroke-linecap="round" stroke-linejoin="round"/>
<path d="M36.8173 47.4479C39.7778 47.4479 42.1777 46.9212 42.1777 46.2713C42.1777 45.6215 39.7778 45.0947 36.8173 45.0947C33.8569 45.0947 31.457 45.6215 31.457 46.2713C31.457 46.9212 33.8569 47.4479 36.8173 47.4479Z" fill="#121212" stroke="#464646" stroke-width="1.36649" stroke-miterlimit="10" stroke-linecap="round" stroke-linejoin="round"/>
<path d="M44.6453 30.2184C44.6453 30.2184 43.3265 29.9752 38.4898 31.5584C31.6004 33.8134 28.9346 29.9752 28.9346 29.9752C28.9346 29.9752 32.8772 28.5842 39.6773 31.1842" fill="#121212"/>
<path d="M44.6453 30.2184C44.6453 30.2184 43.3265 29.9752 38.4898 31.5584C31.6004 33.8134 28.9346 29.9752 28.9346 29.9752C28.9346 29.9752 32.8772 28.5842 39.6773 31.1842" stroke="#464646" stroke-width="1.36649" stroke-miterlimit="10" stroke-linecap="round" stroke-linejoin="round"/>
<path d="M3.57013 60.6905C6.26774 61.4133 8.56157 61.6 8.69354 61.1075C8.82551 60.615 6.74565 59.6298 4.04803 58.9069C1.35042 58.1841 -0.943409 57.9974 -1.07538 58.4899C-1.20735 58.9824 0.872518 59.9677 3.57013 60.6905Z" fill="#121212" stroke="#464646" stroke-width="1.36649" stroke-miterlimit="10" stroke-linecap="round" stroke-linejoin="round"/>
<path d="M-1.07544 58.4902L-3.61121 67.9539C-4.33404 70.6515 -2.73317 73.4243 -0.0355393 74.1471C2.66209 74.8699 5.43488 73.2691 6.1577 70.5714L8.69348 61.1078" fill="#121212"/>
<path d="M-1.07544 58.4902L-3.61121 67.9539C-4.33404 70.6515 -2.73317 73.4243 -0.0355393 74.1471C2.66209 74.8699 5.43488 73.2691 6.1577 70.5714L8.69348 61.1078" stroke="#464646" stroke-width="1.36649" stroke-miterlimit="10" stroke-linecap="round" stroke-linejoin="round"/>
<path d="M5.35816 67.5554C0.0897493 63.9814 -2.98316 65.6113 -2.98316 65.6113C-2.98316 65.6113 -3.14441 66.9646 1.37895 67.8186C5.22164 68.5442 7.27051 66.4193 7.27051 66.4193" fill="#121212"/>
<path d="M5.35817 67.5554C0.0897494 63.9814 -2.98316 65.6113 -2.98316 65.6113C-2.98316 65.6113 -3.14441 66.9646 1.37895 67.8186C5.22164 68.5442 7.27051 66.4193 7.27051 66.4193" stroke="#464646" stroke-width="1.36649" stroke-miterlimit="10" stroke-linecap="round" stroke-linejoin="round"/>
<path d="M-3.11786 85.649C-0.420245 86.3718 1.87358 86.5585 2.00555 86.066C2.13752 85.5735 0.0576572 84.5883 -2.63996 83.8654C-5.33757 83.1426 -7.63139 82.9559 -7.76336 83.4484C-7.89533 83.9409 -5.81547 84.9262 -3.11786 85.649Z" fill="#121212" stroke="#464646" stroke-width="1.36649" stroke-miterlimit="10" stroke-linecap="round" stroke-linejoin="round"/>
<rect x="361.106" y="104.161" width="49.8671" height="66.7262" rx="24.9335" transform="rotate(17.6719 361.106 104.161)" fill="#121212" stroke="#030303" stroke-width="4.68058"/>
<rect x="415.019" y="57.6663" width="49.8671" height="67.8298" rx="24.9335" transform="rotate(114.683 415.019 57.6663)" fill="#121212" stroke="#030303" stroke-width="4.68058"/>
<rect x="448.286" y="93.7493" width="55.3843" height="55.3847" rx="27.6922" transform="rotate(114.683 448.286 93.7493)" fill="#121212" stroke="#030303" stroke-width="4.68058"/>
<rect x="478.455" y="127.327" width="49.6336" height="49.6339" rx="8.65432" transform="rotate(118.746 478.455 127.327)" fill="#121212" stroke="#030303" stroke-width="4.68058"/>
<path d="M376.836 135.679C380.223 136.587 383.07 136.945 383.194 136.48C383.319 136.014 380.675 134.901 377.288 133.993C373.901 133.086 371.054 132.728 370.929 133.193C370.804 133.659 373.449 134.772 376.836 135.679Z" stroke="#464646" stroke-width="1.40417" stroke-miterlimit="10" stroke-linecap="round" stroke-linejoin="round"/>
<path d="M380.158 143.728C374.722 140.28 367.338 139.251 366.095 140.841" stroke="#464646" stroke-width="1.40417" stroke-miterlimit="10" stroke-linecap="round" stroke-linejoin="round"/>
<path d="M383.194 136.479C383.194 136.479 387.702 157.51 372.184 153.041C356.51 149.152 370.929 133.193 370.929 133.193" stroke="#464646" stroke-width="1.40417" stroke-miterlimit="10" stroke-linecap="round" stroke-linejoin="round"/>
<path d="M365.946 140.975C365.765 144.127 383.613 145.156 383.795 142.004" stroke="#464646" stroke-width="1.40417" stroke-miterlimit="10" stroke-linecap="round" stroke-linejoin="round"/>
<path d="M411.561 99.3498C415.971 99.3498 419.546 98.6739 419.546 97.8402C419.546 97.0064 415.971 96.3306 411.561 96.3306C407.152 96.3306 403.577 97.0064 403.577 97.8402C403.577 98.6739 407.152 99.3498 411.561 99.3498Z" stroke="#464646" stroke-width="1.40417" stroke-miterlimit="10" stroke-linecap="round" stroke-linejoin="round"/>
<path d="M419.545 97.8398C419.627 98.2959 419.67 98.7652 419.67 99.2444C419.67 103.663 416.039 107.245 411.56 107.245C407.082 107.245 403.451 103.663 403.451 99.2444C403.451 98.7653 403.494 98.296 403.576 97.8398" stroke="#464646" stroke-width="1.40417" stroke-miterlimit="10" stroke-linecap="round" stroke-linejoin="round"/>
<path d="M411.561 118.364C414.56 118.364 416.991 117.831 416.991 117.172C416.991 116.514 414.56 115.98 411.561 115.98C408.562 115.98 406.13 116.514 406.13 117.172C406.13 117.831 408.562 118.364 411.561 118.364Z" stroke="#464646" stroke-width="1.40417" stroke-miterlimit="10" stroke-linecap="round" stroke-linejoin="round"/>
<path d="M419.492 100.91C419.492 100.91 418.156 100.664 413.257 102.267C406.277 104.552 403.577 100.664 403.577 100.664C403.577 100.664 407.571 99.2545 414.46 101.888" stroke="#464646" stroke-width="1.40417" stroke-miterlimit="10" stroke-linecap="round" stroke-linejoin="round"/>
<path d="M369.292 52.7431C369.292 52.7431 372.643 54.4376 372.598 57.9241C372.588 58.6877 372.869 59.4284 373.389 59.9873C374.35 61.0195 375.463 63.0562 373.702 66.1068C371.94 69.1573 369.62 69.2115 368.246 68.8956C367.501 68.7245 366.72 68.8522 366.064 69.2426C363.067 71.0249 359.923 68.9695 359.923 68.9695" stroke="#464646" stroke-width="1.40417" stroke-miterlimit="10" stroke-linecap="round" stroke-linejoin="round"/>
<path d="M365.872 61.5855C368.459 57.104 369.996 53.1475 369.305 52.7484C368.614 52.3493 365.956 55.6588 363.369 60.1403C360.781 64.6219 359.244 68.5784 359.935 68.9775C360.626 69.3766 363.284 66.0671 365.872 61.5855Z" stroke="#464646" stroke-width="1.40417" stroke-miterlimit="10" stroke-linecap="round" stroke-linejoin="round"/>
<path d="M373.702 66.1069L383.131 71.5508" stroke="#464646" stroke-width="1.40417" stroke-miterlimit="10" stroke-linecap="round" stroke-linejoin="round"/>
<path d="M384.215 72.1772C385.791 69.4485 386.582 66.9561 385.983 66.6103C385.385 66.2645 383.622 68.1962 382.046 70.925C380.471 73.6537 379.679 76.1461 380.278 76.4919C380.877 76.8377 382.64 74.9059 384.215 72.1772Z" stroke="#464646" stroke-width="1.40417" stroke-miterlimit="10" stroke-linecap="round" stroke-linejoin="round"/>
<path d="M371.891 55.2625C367.075 60.2031 368.725 66.5772 363.4 69.97C362.646 69.0518 365.121 63.7072 368.913 60.0454" stroke="#464646" stroke-width="1.40417" stroke-miterlimit="10" stroke-linecap="round" stroke-linejoin="round"/>
</g>
</g>
<mask id="mask1_2272_41043" style="mask-type:alpha" maskUnits="userSpaceOnUse" x="21" y="79" width="369" height="312">
<rect x="21.5439" y="79.3008" width="367.829" height="311.344" fill="#FFCC4C"/>
</mask>
<g mask="url(#mask1_2272_41043)">
<path d="M258.796 512.622L217.533 533.652C212.806 527.831 202.939 512.874 195.559 501.336C192.954 497.264 190.675 493.623 189.016 490.944C187.073 487.805 180.9 433.196 177.169 398.768C175.422 382.698 174.225 371.048 174.225 371.048L174.184 370.767L187.486 365.139C187.486 365.139 190.704 371.611 195.773 381.907C212.128 414.923 247.79 487.395 258.796 512.622Z" fill="#171717"/>
<path d="M195.773 381.908L178.141 397.886L177.169 398.77L175.753 400.054L165.191 372.296L174.225 371.05L174.184 370.768L187.486 365.141C187.486 365.141 190.704 371.613 195.773 381.908Z" fill="#171717"/>
<path d="M147.839 272.906C147.839 272.906 150.611 260.142 144.87 259.448C139.13 258.754 134.935 266.621 134.935 266.621C134.935 266.621 124.007 271.311 121.676 279.057C119.345 286.803 133.257 294.559 133.257 294.559L147.839 272.906Z" fill="#202020"/>
<path d="M195.559 501.336C195.597 501.594 195.638 501.875 195.652 502.136C196.683 511.992 197.337 528.772 197.769 535.507L154.409 541.834C149.932 512.303 135.305 425.679 134.505 411.337C133.511 393.697 134.153 376.608 134.153 376.608L165.192 372.295L174.226 371.048L178.142 397.884L186.063 445.441C186.063 445.441 192.675 473.2 195.559 501.336Z" fill="#1C1C1C"/>
<path d="M140.737 395.472C139.997 395.581 139.216 395.608 138.396 395.536C138.115 395.513 137.906 395.263 137.93 394.982C137.954 394.706 138.204 394.499 138.482 394.519C147.292 395.28 151.118 383.447 151.156 383.326C151.241 383.058 151.531 382.913 151.796 382.991C152.065 383.076 152.215 383.364 152.132 383.632C152.094 383.747 148.685 394.313 140.737 395.472Z" fill="white"/>
<path d="M195.417 501.693C195.143 501.733 194.885 501.546 194.84 501.27L177.596 397.695C177.566 397.524 177.629 397.348 177.761 397.23L188.628 387.537C188.838 387.349 189.161 387.366 189.35 387.578C189.539 387.79 189.519 388.111 189.307 388.3L178.649 397.805L195.846 501.104C195.891 501.38 195.704 501.644 195.426 501.692L195.417 501.693Z" fill="white"/>
<path d="M155.526 302.832C155.526 302.832 167.201 301.627 173.053 309.548C178.906 317.469 192.145 368.843 192.145 368.843C192.145 368.843 177.76 375.317 158.953 377.83C140.146 380.342 131.951 380.118 131.951 380.118L124.922 345.712C124.922 345.712 120.494 311.363 124.834 308.343C129.173 305.325 147.489 302.119 155.526 302.832Z" fill="white"/>
<path d="M135.393 295.461L138.149 306.611C138.149 306.611 139.381 308.459 146.988 308.144C151.977 307.937 153.996 305.91 153.996 305.91L151.923 300.431L149.895 295.09L137.475 295.411L135.393 295.461Z" fill="#FEC29E"/>
<path d="M137.477 295.407C137.58 295.705 137.784 296.035 138.067 296.403C141.94 301.355 149.057 300.869 151.925 300.427L149.896 295.086L137.477 295.407Z" fill="#292929"/>
<path d="M145.964 270.035C145.964 270.035 154.898 282.621 154.59 290.946C154.285 299.271 147.24 299.631 142.85 299.07C138.459 298.509 135.987 296.332 135.987 296.332C135.987 296.332 132.513 298.575 129.143 295.461C125.774 292.348 126.367 287.718 128.304 286.234C130.242 284.75 133.183 285.79 133.183 285.79L130.252 282.211C130.252 282.211 134.053 259.62 145.964 270.035Z" fill="#FEC29E"/>
<path d="M134.213 291.972C134.122 291.985 134.029 291.972 133.94 291.935L128.303 289.524C128.045 289.413 127.922 289.115 128.033 288.854C128.145 288.594 128.444 288.474 128.702 288.587L134.339 290.998C134.599 291.106 134.72 291.407 134.609 291.667C134.536 291.836 134.384 291.947 134.213 291.972Z" fill="#292929"/>
<path d="M129.857 293.009C129.655 293.038 129.445 292.942 129.338 292.751C129.2 292.506 129.288 292.196 129.534 292.057L132.463 290.412C132.708 290.273 133.021 290.361 133.157 290.607C133.296 290.853 133.207 291.162 132.961 291.301L130.032 292.947C129.977 292.979 129.918 293 129.857 293.009Z" fill="#292929"/>
<path d="M138.5 278.221C138.411 278.234 138.318 278.224 138.232 278.189C137.969 278.081 137.847 277.783 137.952 277.521C138.93 275.147 140.987 275.024 141.938 275.29C142.21 275.368 142.368 275.649 142.293 275.92C142.22 276.19 141.94 276.353 141.665 276.273C141.471 276.225 139.755 275.829 138.898 277.912C138.827 278.083 138.671 278.196 138.5 278.221Z" fill="#292929"/>
<path d="M148.625 275.103C148.524 275.117 148.417 275.102 148.318 275.052C147.038 274.396 146.073 275.334 146.034 275.375C145.836 275.577 145.516 275.58 145.314 275.38C145.113 275.182 145.107 274.862 145.305 274.661C145.821 274.131 147.213 273.336 148.786 274.141C149.037 274.269 149.137 274.576 149.009 274.829C148.928 274.982 148.784 275.079 148.625 275.103Z" fill="#292929"/>
<path d="M149.818 286.461C149.442 286.456 149.223 286.218 149.234 285.936C149.387 281.803 146.245 281.036 146.111 281.003C145.836 280.94 145.665 280.669 145.728 280.394C145.79 280.119 146.062 279.945 146.334 280.008C146.376 280.017 150.443 280.97 150.254 285.974C150.243 286.224 150.055 286.426 149.818 286.461Z" fill="#292929"/>
<path d="M149.876 280.475C149.669 280.505 149.456 280.404 149.351 280.209L148.069 277.818C147.934 277.57 148.028 277.261 148.277 277.127C148.518 276.996 148.833 277.089 148.968 277.337L150.25 279.728C150.385 279.977 150.291 280.285 150.042 280.419C149.989 280.448 149.932 280.466 149.876 280.475Z" fill="#292929"/>
<path d="M143.218 282.305C143.012 282.335 142.798 282.234 142.693 282.039L141.413 279.648C141.279 279.399 141.375 279.091 141.621 278.957C141.863 278.826 142.178 278.918 142.312 279.167L143.592 281.558C143.727 281.807 143.631 282.115 143.384 282.249C143.331 282.278 143.276 282.296 143.218 282.305Z" fill="#292929"/>
<path d="M147.84 272.907C147.84 272.907 146.15 270.954 143.508 271.602C140.867 272.251 139.802 274.599 139.802 274.599C139.802 274.599 142.093 278.992 139.11 282.389C136.128 285.785 133.184 285.791 133.184 285.791L130.346 285.47L127.469 281.94L132.922 271.479L141.348 263.59L147.463 267.09L147.84 272.907Z" fill="#202020"/>
<path d="M147.277 291.413C146.19 291.572 144.562 291.376 143.409 289.883C143.237 289.659 143.279 289.34 143.501 289.169C143.724 288.992 144.044 289.039 144.218 289.26C145.554 290.99 147.541 290.315 147.623 290.286C147.882 290.195 148.18 290.329 148.274 290.595C148.367 290.859 148.233 291.152 147.969 291.245C147.78 291.316 147.545 291.374 147.277 291.413Z" fill="#292929"/>
<path d="M78.1315 286.994C78.1315 286.994 75.1044 279.11 70.2075 276.031C65.3107 272.951 59.8075 271.31 61.1921 274.483C62.5767 277.656 66.3788 282.617 66.3788 282.617L58.1707 281.665C58.1707 281.665 52.6699 280.023 48.7815 279.574C44.8931 279.124 44.1157 282.047 44.1157 282.047C44.1157 282.047 40.2273 281.597 38.7588 282.934C37.2902 284.271 38.7888 286.453 38.7888 286.453C38.7888 286.453 33.4318 287.34 36.0548 291.159C38.6777 294.977 50.3137 300.343 55.8173 301.986C61.3181 303.627 73.1567 303.492 73.1567 303.492C73.1567 303.492 83.9143 304.249 78.1315 286.994Z" fill="#FEC29E"/>
<path d="M49.5088 293.062C49.3283 293.088 49.1409 293.017 49.0245 292.859C48.8577 292.635 48.9043 292.314 49.1309 292.145L61.7648 282.795C61.9925 282.632 62.3118 282.672 62.4797 282.903C62.6465 283.128 62.5999 283.448 62.3733 283.618L49.7393 292.968C49.6698 293.017 49.5908 293.05 49.5088 293.062Z" fill="#1E1C1C"/>
<path d="M73.0421 293.086C72.9788 293.095 72.9138 293.092 72.8491 293.075C65.2474 291.243 66.3591 283.754 66.3723 283.68C66.416 283.405 66.6861 283.222 66.9565 283.255C67.236 283.3 67.4247 283.56 67.3817 283.839C67.3373 284.109 66.4181 290.474 73.0893 292.081C73.3645 292.146 73.5342 292.423 73.4663 292.696C73.416 292.909 73.2436 293.056 73.0421 293.086Z" fill="#1E1C1C"/>
<path d="M222.494 284.318C222.494 284.318 225.218 276.326 229.996 273.063C234.771 269.8 240.208 267.948 238.945 271.173C237.683 274.397 234.073 279.498 234.073 279.498L242.24 278.234C242.24 278.234 247.674 276.383 251.544 275.785C255.411 275.187 256.299 278.079 256.299 278.079C256.299 278.079 260.167 277.481 261.687 278.76C263.204 280.039 261.791 282.278 261.791 282.278C261.791 282.278 267.178 282.959 264.702 286.875C262.226 290.791 250.803 296.596 245.367 298.448C239.933 300.299 228.099 300.616 228.099 300.616C228.099 300.616 217.376 301.783 222.494 284.318Z" fill="#FEC29E"/>
<path d="M251.456 289.281C251.334 289.299 251.206 289.272 251.094 289.195L238.113 280.334C237.882 280.176 237.821 279.857 237.978 279.624C238.136 279.393 238.455 279.329 238.689 279.491L251.67 288.352C251.901 288.51 251.962 288.829 251.805 289.062C251.723 289.187 251.592 289.261 251.456 289.281Z" fill="#1E1C1C"/>
<path d="M227.941 290.212C227.692 290.248 227.447 290.095 227.377 289.844C227.302 289.573 227.459 289.289 227.73 289.213C234.336 287.352 233.174 281.027 233.12 280.76C233.066 280.485 233.244 280.215 233.523 280.16C233.816 280.115 234.07 280.293 234.123 280.559C234.136 280.633 235.533 288.077 228.008 290.195C227.987 290.2 227.964 290.209 227.941 290.212Z" fill="#1E1C1C"/>
<path d="M59.7166 306.504C59.7166 306.504 76.4056 333.686 94.3349 341.219C109.23 347.478 131.034 344.275 131.034 344.275L137.403 304.448C137.403 304.448 110.695 307.534 102.565 303.162C94.4316 298.788 80.9576 288.619 80.9576 288.619L59.7166 306.504Z" fill="white"/>
<path d="M103.408 315.799C102.723 315.898 102.325 315.597 102.113 315.327C100.606 313.412 103.699 305.442 104.332 303.863C104.419 303.651 104.632 303.522 104.86 303.544C105.086 303.566 105.269 303.738 105.309 303.962C105.368 304.3 106.75 312.244 104.846 314.88C104.468 315.404 103.984 315.714 103.408 315.799ZM104.582 306.083C103.321 309.595 102.205 313.793 102.914 314.695C102.952 314.745 103.016 314.824 103.26 314.788C103.558 314.745 103.804 314.58 104.017 314.285C105.085 312.806 104.899 308.812 104.582 306.083Z" fill="#161616"/>
<path d="M160.745 303.001C160.745 303.001 178.928 306.957 193.965 304.018C209.001 301.08 217.655 284.172 217.655 284.172L239.808 302.633C239.808 302.633 232.24 331.086 208.964 340.34C185.686 349.594 164.266 337.026 164.266 337.026L160.745 303.001Z" fill="white"/>
<path d="M202.109 311.046C201.542 311.128 200.998 311.026 200.484 310.735C197.995 309.329 197.237 303.774 197.205 303.537C197.181 303.344 197.266 303.152 197.427 303.044C197.589 302.939 197.801 302.935 197.968 303.028C199.033 303.65 204.341 306.871 204.201 309.244C204.174 309.713 203.93 310.368 202.919 310.808C202.645 310.929 202.374 311.007 202.109 311.046ZM198.407 304.496C198.782 306.306 199.616 309.071 200.986 309.847C201.45 310.11 201.949 310.116 202.51 309.872C203.158 309.59 203.173 309.284 203.18 309.185C203.248 308.062 200.674 305.955 198.407 304.496Z" fill="#161616"/>
<path d="M184.091 343.791C183.845 343.827 183.6 343.676 183.528 343.425L178.442 325.944C178.362 325.676 178.519 325.39 178.79 325.312C179.067 325.245 179.347 325.389 179.423 325.662L184.508 343.143C184.588 343.412 184.431 343.698 184.16 343.776C184.137 343.782 184.114 343.787 184.091 343.791Z" fill="#161616"/>
<path d="M148.246 308.691C142.857 309.477 138.187 307.197 137.924 307.064C137.671 306.94 137.569 306.632 137.694 306.379C137.818 306.126 138.123 306.019 138.379 306.15C138.464 306.192 146.808 310.258 153.709 305.483C153.938 305.328 154.259 305.379 154.42 305.614C154.581 305.846 154.522 306.164 154.289 306.325C152.3 307.699 150.224 308.402 148.246 308.691Z" fill="#161616"/>
<path d="M135.667 311.092C135.541 311.11 135.407 311.08 135.297 311C135.068 310.837 135.016 310.517 135.179 310.287L136.844 307.952C137.009 307.722 137.327 307.671 137.557 307.834C137.787 307.997 137.838 308.317 137.675 308.547L136.01 310.882C135.925 311.002 135.799 311.073 135.667 311.092Z" fill="#161616"/>
<path d="M142.576 314.564C142.536 314.57 142.494 314.571 142.452 314.565C142.171 314.539 141.967 314.289 141.992 314.008L142.287 311.023C142.316 310.743 142.569 310.529 142.845 310.566C143.127 310.591 143.331 310.844 143.305 311.123L143.01 314.106C142.988 314.348 142.801 314.531 142.576 314.564Z" fill="#161616"/>
<path d="M152.1 313.174C151.906 313.203 151.704 313.117 151.594 312.939L150.145 310.618C149.995 310.379 150.066 310.065 150.306 309.915C150.542 309.763 150.859 309.834 151.009 310.076L152.458 312.397C152.608 312.636 152.537 312.95 152.297 313.1C152.236 313.14 152.168 313.165 152.1 313.174Z" fill="#161616"/>
<path d="M157.503 309.447C157.414 309.46 157.318 309.448 157.229 309.413L154.52 308.267C154.26 308.156 154.14 307.858 154.248 307.598C154.358 307.335 154.66 307.222 154.917 307.326L157.626 308.47C157.886 308.58 158.006 308.878 157.898 309.138C157.83 309.311 157.674 309.422 157.503 309.447Z" fill="#161616"/>
<path d="M63.7996 312.965C63.6332 312.989 63.4595 312.931 63.3415 312.795C63.157 312.58 63.1774 312.261 63.3892 312.072L86.0986 292.242C86.3114 292.06 86.6331 292.082 86.8189 292.29C87.0035 292.505 86.983 292.824 86.7712 293.013L64.0618 312.843C63.9833 312.912 63.8933 312.951 63.7996 312.965Z" fill="#161616"/>
<path d="M82.9851 296.214C82.8421 296.234 82.6903 296.194 82.5747 296.092L77.4915 291.637C77.2803 291.452 77.2592 291.127 77.4438 290.916C77.6314 290.709 77.9533 290.684 78.1645 290.868L83.2477 295.323C83.459 295.508 83.48 295.833 83.2954 296.044C83.2113 296.14 83.1023 296.196 82.9851 296.214Z" fill="#161616"/>
<path d="M76.6932 301.707C76.5338 301.73 76.3631 301.676 76.2438 301.547L71.6064 296.522C71.4155 296.313 71.4286 295.993 71.6351 295.8C71.8442 295.609 72.1641 295.62 72.3574 295.828L76.9951 300.856C77.186 301.065 77.1729 301.385 76.9665 301.578C76.8859 301.65 76.7916 301.692 76.6932 301.707Z" fill="#161616"/>
<path d="M70.0254 307.532C69.8425 307.559 69.6524 307.486 69.538 307.326L65.4383 301.638C65.2735 301.411 65.3247 301.09 65.5544 300.925C65.779 300.758 66.1 300.809 66.2679 301.041L70.3676 306.728C70.5325 306.956 70.4812 307.277 70.2515 307.442C70.182 307.49 70.105 307.521 70.0254 307.532Z" fill="#161616"/>
<path d="M236.58 311.938C236.433 311.96 236.278 311.918 236.159 311.808L213.315 290.669C213.107 290.476 213.096 290.153 213.288 289.945C213.476 289.738 213.801 289.722 214.009 289.916L236.854 311.056C237.061 311.248 237.072 311.57 236.88 311.78C236.798 311.868 236.693 311.922 236.58 311.938Z" fill="#161616"/>
<path d="M218.679 295.374C218.568 295.39 218.453 295.368 218.351 295.311C218.106 295.17 218.022 294.857 218.163 294.614L222.011 287.915C222.152 287.664 222.462 287.588 222.709 287.724C222.955 287.866 223.039 288.179 222.897 288.422L219.049 295.121C218.967 295.265 218.829 295.352 218.679 295.374Z" fill="#161616"/>
<path d="M224.197 300.122C224.096 300.137 223.991 300.121 223.893 300.073C223.64 299.947 223.537 299.639 223.666 299.386L227.227 292.295C227.355 292.042 227.662 291.945 227.912 292.069C228.165 292.194 228.265 292.503 228.139 292.756L224.578 299.846C224.502 299.999 224.356 300.099 224.197 300.122Z" fill="#161616"/>
<path d="M230.753 306.547C230.666 306.56 230.576 306.549 230.49 306.516C230.228 306.413 230.101 306.116 230.203 305.852L233.502 297.581C233.607 297.322 233.902 297.193 234.164 297.298C234.426 297.404 234.553 297.699 234.45 297.963L231.152 306.233C231.084 306.406 230.928 306.522 230.753 306.547Z" fill="#161616"/>
<path d="M157.336 371.624C143.041 373.71 130.894 373.946 130.677 373.951C130.395 373.954 130.164 373.732 130.159 373.45C130.155 373.166 130.374 372.945 130.662 372.932C131.047 372.926 169.6 372.171 190.076 361.444C190.316 361.306 190.633 361.409 190.765 361.66C190.895 361.909 190.799 362.217 190.55 362.347C181.392 367.145 168.687 369.968 157.336 371.624Z" fill="#161616"/>
<path d="M137.492 380.473C137.251 380.509 137.012 380.364 136.934 380.124L134.778 373.42C134.691 373.151 134.838 372.863 135.108 372.776C135.361 372.689 135.663 372.839 135.75 373.106L137.906 379.81C137.993 380.08 137.846 380.367 137.576 380.454C137.546 380.463 137.521 380.469 137.492 380.473Z" fill="#161616"/>
<path d="M146.692 379.767C146.448 379.802 146.207 379.656 146.13 379.408L144.209 373.12C144.127 372.852 144.279 372.564 144.55 372.484C144.825 372.401 145.105 372.549 145.188 372.824L147.109 379.112C147.191 379.381 147.039 379.668 146.768 379.749C146.743 379.759 146.718 379.763 146.692 379.767Z" fill="#161616"/>
<path d="M155.151 378.533C154.879 378.573 154.622 378.388 154.575 378.114L153.456 371.709C153.408 371.431 153.592 371.168 153.87 371.117C154.156 371.076 154.413 371.261 154.46 371.534L155.579 377.939C155.626 378.217 155.442 378.481 155.165 378.531C155.16 378.532 155.155 378.532 155.151 378.533Z" fill="#161616"/>
<path d="M164.397 377.186C164.149 377.222 163.904 377.069 163.834 376.818L162.035 370.513C161.957 370.241 162.114 369.958 162.388 369.882C162.64 369.823 162.941 369.961 163.019 370.235L164.818 376.541C164.895 376.812 164.738 377.096 164.464 377.172C164.444 377.179 164.421 377.183 164.397 377.186Z" fill="#161616"/>
<path d="M172.996 375.29C172.717 375.331 172.457 375.137 172.416 374.858L171.569 369.05C171.528 368.771 171.722 368.51 172.001 368.47C172.28 368.429 172.54 368.623 172.581 368.902L173.429 374.71C173.469 374.989 173.275 375.249 172.996 375.29Z" fill="#161616"/>
<path d="M180.72 373.477C180.462 373.514 180.221 373.336 180.183 373.079L179.202 366.359C179.165 366.101 179.343 365.862 179.603 365.824C179.861 365.787 180.102 365.964 180.14 366.222L181.12 372.942C181.156 373.2 180.978 373.439 180.72 373.477Z" fill="#161616"/>
<path d="M188.252 370.948C187.98 370.988 187.724 370.803 187.677 370.53L186.465 363.576C186.415 363.298 186.602 363.034 186.879 362.984C187.124 362.891 187.421 363.123 187.469 363.4L188.68 370.355C188.73 370.632 188.544 370.896 188.266 370.946C188.262 370.947 188.257 370.948 188.252 370.948Z" fill="#161616"/>
<path d="M198.376 245.522L204.393 286.936C204.626 288.529 206.274 289.608 208.079 289.344L274.507 279.683C276.311 279.419 277.586 277.917 277.353 276.324L271.336 234.909C271.104 233.316 269.455 232.238 267.65 232.501L201.223 242.163C199.42 242.426 198.146 243.93 198.376 245.522Z" fill="#FFBE1D"/>
<path d="M223.382 241.818L229.408 283.296C229.641 284.891 230.968 286.018 232.382 285.812L284.331 278.257C285.74 278.051 286.697 276.593 286.464 274.997L280.438 233.519C280.205 231.924 278.873 230.797 277.464 231.003L225.515 238.558C224.102 238.764 223.149 240.222 223.382 241.818Z" fill="#D7A21D"/>
<path d="M258.203 233.924L248.546 235.333L255.424 282.462L265.08 281.053L258.203 233.924Z" fill="#B58610"/>
<path d="M213.535 240.416L206.804 241.398L213.681 288.527L220.412 287.545L213.535 240.416Z" fill="#B58610"/>
<path d="M280.562 269.063C280.9 269.014 281.134 268.699 281.085 268.364L277.276 242.161C277.226 241.823 276.912 241.589 276.577 241.638C276.239 241.687 276.005 242.002 276.054 242.337L279.863 268.54C279.913 268.878 280.227 269.112 280.562 269.063Z" fill="white"/>
<path d="M201.094 186.498C200.899 186.561 196.241 188.05 190.82 189.012C183.009 190.4 177.853 189.984 175.057 187.748C173.888 186.812 172.55 185.074 172.818 182.11C173.176 178.151 175.235 176.265 176.899 175.376C182.162 172.573 191.127 175.702 196.526 178.106C194.804 171.898 192.775 161.802 196.297 157.652C197.256 156.52 199.045 155.282 202.118 155.805C204.7 156.244 206.639 157.614 207.728 159.774C211.197 166.655 204.81 179.849 203.901 181.66L202.363 185.337C202.256 185.592 202.1 185.819 201.908 186.008C201.68 186.23 201.403 186.4 201.094 186.498ZM176.917 182.479C176.808 183.701 177.214 184.205 177.627 184.536C180.517 186.85 190.44 185.286 197.709 183.223C191.963 180.293 182.693 176.951 178.831 179.009C178.591 179.136 178.323 179.307 178.063 179.563C177.542 180.077 177.055 180.936 176.917 182.479ZM199.436 160.314C197.37 162.747 198.875 171.514 200.897 178.404C203.275 173.21 205.827 165.14 204.051 161.625C203.739 161.005 203.127 160.152 201.429 159.863C200.258 159.664 199.779 159.967 199.546 160.193C199.502 160.236 199.465 160.279 199.436 160.314Z" fill="#FFBE1D"/>
<path d="M159.005 225.055L167.406 233.587C168.24 234.434 169.602 234.445 170.447 233.612L225.314 179.585C226.16 178.751 226.172 177.389 225.337 176.542L216.937 168.01C216.104 167.165 214.744 167.155 213.895 167.988L159.029 222.015C158.184 222.848 158.172 224.21 159.005 225.055Z" fill="#E1AE2D"/>
<path d="M176.32 208.005L184.721 216.538C185.555 217.384 186.79 217.521 187.477 216.844L232.155 172.85C232.845 172.17 232.728 170.935 231.893 170.085L223.493 161.553C222.662 160.709 221.427 160.573 220.737 161.253L176.059 205.247C175.372 205.923 175.489 207.162 176.32 208.005Z" fill="#FFCE55"/>
<path d="M203.382 177.952L196.432 184.803L208.05 196.589L215 189.738L203.382 177.952Z" fill="#B58610"/>
<path d="M171.412 209.816L166.567 214.591L177.992 226.182L182.837 221.406L171.412 209.816Z" fill="#B58610"/>
<path d="M248.365 232.952C250.344 231.265 252.322 229.578 254.301 227.891C257.77 224.933 261.29 221.917 263.768 218.091C264.9 216.345 265.807 214.108 264.896 212.237C264.188 210.783 262.374 209.971 260.817 210.41C259.261 210.849 258.139 212.491 258.296 214.1" stroke="#94B9DE" stroke-width="0.741601" stroke-miterlimit="10"/>
<path d="M268.357 219.765L265.822 230.094L274.573 221.347L268.357 219.765Z" fill="#CC8911"/>
<path d="M237.181 177.888L252.385 154.36L253.592 156.487L237.181 177.888Z" fill="#DEB843"/>
<path d="M230.301 221.918C229.675 221.642 215.695 198.046 215.695 198.046L213.439 199.756L230.301 221.918Z" fill="#DEB843"/>
<path d="M238.604 164.911L240.763 157.892L238.103 157.545L238.604 164.911Z" fill="#94B9DE"/>
<path d="M283.316 205.073L298.513 187.042L301.407 189.923L283.316 205.073Z" fill="#94B9DE"/>
<path d="M284.259 215.195C285.243 215.128 306.069 207.382 306.069 207.382L306.36 211.641L284.259 215.195Z" fill="#C1664A"/>
<path d="M246.362 189.162C246.631 184.466 249.126 179.946 252.957 177.217C254.167 176.355 255.6 175.644 257.078 175.796C258.556 175.947 259.981 177.259 259.786 178.732C259.588 180.238 257.702 181.132 256.286 180.582C254.869 180.033 254.064 178.409 254.154 176.892C254.243 175.376 255.079 173.986 256.135 172.895C259.163 169.766 264.243 168.85 268.173 170.724" stroke="#DEB843" stroke-width="0.741601" stroke-miterlimit="10"/>
<path d="M286.479 192.796C289.698 188.789 293.482 185.238 297.686 182.281C299.114 181.276 300.623 180.325 302.313 179.885C304.004 179.446 305.92 179.582 307.33 180.613C308.74 181.644 309.45 183.687 308.654 185.241C308.084 186.354 306.77 187.057 305.538 186.844C304.307 186.63 303.287 185.473 303.298 184.223C303.309 182.973 304.407 181.811 305.657 181.793" stroke="#94B9DE" stroke-width="0.741601" stroke-miterlimit="10"/>
<path d="M224.982 226.646C223.406 221.31 219.122 216.85 213.852 215.063C212.563 214.626 211.189 214.339 209.844 214.542C208.499 214.744 207.185 215.504 206.582 216.723C206.026 217.845 206.161 219.272 206.905 220.279C207.649 221.286 208.965 221.832 210.205 221.663C211.331 221.508 212.407 220.708 212.653 219.598C212.898 218.489 212.086 217.194 210.952 217.13C209.818 217.066 208.861 218.536 209.521 219.461" stroke="#94B9DE" stroke-width="0.494401" stroke-miterlimit="10"/>
<path d="M196.677 234.351C193.164 233.276 189.349 234.358 186.026 235.924C184.828 236.488 183.646 237.126 182.669 238.02C181.692 238.914 180.928 240.094 180.747 241.406C180.566 242.718 181.045 244.156 182.119 244.929C183.194 245.703 184.857 245.637 185.73 244.641C186.603 243.644 186.328 241.819 185.12 241.275" stroke="#94B9DE" stroke-width="0.741601" stroke-miterlimit="10"/>
<path d="M282.749 221.888C288.568 221.276 294.622 223.738 298.363 228.236C299.506 229.611 300.466 231.232 300.602 233.015C300.738 234.797 299.865 236.742 298.214 237.428C296.563 238.115 294.3 237.032 294.162 235.249C294.031 233.557 295.772 232.18 297.469 232.106C299.165 232.033 300.752 232.897 302.171 233.83C306.862 236.912 310.853 241.052 313.763 245.851" stroke="#94B9DE" stroke-width="0.741601" stroke-miterlimit="10"/>
<path d="M256.012 161.536L256.604 163.01L258.189 162.902L256.971 163.92L257.563 165.395L256.218 164.55L254.999 165.569L255.386 164.028L254.041 163.184L255.625 163.076L256.012 161.536Z" fill="#94B9DE"/>
<path d="M272.431 196.949L273.023 198.422L274.608 198.314L273.389 199.333L273.981 200.807L272.636 199.963L271.417 200.982L271.804 199.441L270.459 198.597L272.043 198.489L272.431 196.949Z" fill="#94B9DE"/>
<path d="M287.353 227.702L287.945 229.176L289.53 229.068L288.311 230.087L288.904 231.561L287.558 230.717L286.34 231.736L286.727 230.195L285.381 229.351L286.966 229.243L287.353 227.702Z" fill="#EEC430"/>
<path d="M190.465 219.152L191.459 220.391L192.945 219.829L192.072 221.157L193.066 222.397L191.534 221.978L190.662 223.306L190.587 221.719L189.055 221.3L190.54 220.738L190.465 219.152Z" fill="#94B9DE"/>
<path d="M209.141 203.971L209.733 205.444L211.318 205.336L210.099 206.355L210.692 207.829L209.346 206.985L208.128 208.004L208.514 206.463L207.169 205.619L208.754 205.511L209.141 203.971Z" fill="#EEC430"/>
<path d="M304.226 195.046L304.819 196.52L306.403 196.412L305.185 197.431L305.777 198.905L304.432 198.061L303.213 199.079L303.6 197.539L302.255 196.695L303.839 196.587L304.226 195.046Z" fill="#EEC430"/>
<path d="M242.208 229.721L242.801 231.195L244.386 231.087L243.167 232.105L243.759 233.579L242.413 232.735L241.195 233.754L241.582 232.213L240.236 231.369L241.821 231.261L242.208 229.721Z" fill="#EEC430"/>
<path d="M264.485 146.227L265.83 149.572L269.428 149.327L266.661 151.64L268.006 154.985L264.952 153.069L262.185 155.382L263.064 151.885L260.009 149.969L263.607 149.724L264.485 146.227Z" fill="#C1664A"/>
<path d="M240.811 193.243L241.772 195.634L244.343 195.459L242.366 197.111L243.327 199.502L241.145 198.133L239.168 199.785L239.796 197.286L237.613 195.917L240.184 195.742L240.811 193.243Z" fill="#C1664A"/>
<path d="M280.252 175.184L281.083 177.252L283.306 177.1L281.597 178.53L282.428 180.597L280.54 179.413L278.83 180.842L279.374 178.681L277.486 177.497L279.709 177.345L280.252 175.184Z" fill="#9873FF"/>
<path d="M225.196 194.894L226.027 196.961L228.25 196.81L226.541 198.239L227.372 200.307L225.484 199.123L223.774 200.552L224.317 198.391L222.43 197.206L224.653 197.055L225.196 194.894Z" fill="#9873FF"/>
<path d="M197.314 239.183L197.032 239.565L186.489 253.797C186.489 253.797 190.279 254.208 190.412 253.814" fill="#EEC430"/>
<path d="M177.025 235.714L168.873 239.098L170.882 241.145L177.025 235.714Z" fill="#9873FF"/>
<path d="M248.724 215.011L251.717 188.971L255.349 190.665L248.724 215.011Z" fill="#9873FF"/>
<path d="M275.616 208.644L279.462 200.338L281.165 201.447L275.616 208.644Z" fill="#9873FF"/>
<path d="M305.068 218.786L319.753 225.383L318.703 228.811L305.068 218.786Z" fill="#9873FF"/>
<path d="M203.408 223.212C203.104 222.905 196.3 220.25 196.3 220.25L196.528 222.988L203.408 223.212Z" fill="#C1664A"/>
<path d="M179.263 251.879L171.557 258.731L174.768 259.435L179.263 251.879Z" fill="#C1664A"/>
<path d="M235.855 235.259C234.603 233.783 233.356 232.259 232.615 230.471C231.875 228.683 231.7 226.566 232.591 224.849C233.483 223.131 235.618 222.014 237.441 222.662C238.43 223.014 239.261 223.919 239.309 224.968C239.357 226.016 238.447 227.074 237.401 226.997C236.71 226.946 236.112 226.447 235.774 225.841C235.437 225.236 235.319 224.535 235.242 223.846C234.845 220.307 235.393 216.666 236.812 213.4" stroke="#C1664A" stroke-width="0.741601" stroke-miterlimit="10"/>
<path d="M218.503 237.671C217.974 236.259 217.444 234.847 216.915 233.435C216.549 232.459 216.173 231.465 215.524 230.649C214.876 229.833 213.898 229.209 212.856 229.25C211.815 229.29 210.793 230.162 210.826 231.204C210.842 231.708 211.121 232.217 211.579 232.428C212.037 232.639 212.656 232.484 212.897 232.041C213.165 231.55 212.899 230.906 212.455 230.566C212.011 230.226 211.438 230.116 210.888 230.015C207.73 229.438 204.572 228.86 201.415 228.283" stroke="#DEB843" stroke-width="0.741601" stroke-miterlimit="10"/>
<rect x="79.9585" y="389.828" width="252.202" height="11.1188" fill="#373737"/>
</g>
</svg>
