<svg width="651" height="844" viewBox="0 0 651 844" fill="none" xmlns="http://www.w3.org/2000/svg">
<mask id="mask0_2244_2441" style="mask-type:alpha" maskUnits="userSpaceOnUse" x="0" y="0" width="651" height="844">
<rect x="0.9104" y="0.375977" width="649.34" height="843.622" fill="#030303"/>
</mask>
<g mask="url(#mask0_2244_2441)">
<rect x="504.433" y="121.081" width="101.111" height="134.322" rx="50.5554" transform="rotate(17.6719 504.433 121.081)" fill="#121212" stroke="#030303" stroke-width="6.34467"/>
<rect x="613.479" y="30.5901" width="101.111" height="136.496" rx="50.5554" transform="rotate(114.683 613.479 30.5901)" fill="#121212" stroke="#030303" stroke-width="6.34467"/>
<rect x="679.012" y="101.672" width="111.979" height="111.98" rx="55.9897" transform="rotate(114.683 679.012 101.672)" fill="#121212" stroke="#030303" stroke-width="6.34467"/>
<rect x="738.49" y="167.955" width="100.651" height="100.651" rx="11.7312" transform="rotate(118.746 738.49 167.955)" fill="#121212" stroke="#030303" stroke-width="6.34467"/>
<path d="M536.352 184.976C543.025 186.764 548.633 187.47 548.879 186.552C549.124 185.635 543.915 183.443 537.242 181.655C530.57 179.867 524.962 179.161 524.716 180.078C524.47 180.995 529.68 183.188 536.352 184.976Z" stroke="#464646" stroke-width="1.9034" stroke-miterlimit="10" stroke-linecap="round" stroke-linejoin="round"/>
<path d="M542.898 200.832C532.189 194.039 517.643 192.011 515.194 195.143" stroke="#464646" stroke-width="1.9034" stroke-miterlimit="10" stroke-linecap="round" stroke-linejoin="round"/>
<path d="M548.879 186.552C548.879 186.552 557.759 227.982 527.188 219.179C496.311 211.517 524.717 180.078 524.717 180.078" stroke="#464646" stroke-width="1.9034" stroke-miterlimit="10" stroke-linecap="round" stroke-linejoin="round"/>
<path d="M514.901 195.409C514.543 201.618 549.704 203.644 550.062 197.435" stroke="#464646" stroke-width="1.9034" stroke-miterlimit="10" stroke-linecap="round" stroke-linejoin="round"/>
<path d="M604.758 113.41C613.445 113.41 620.487 112.078 620.487 110.436C620.487 108.793 613.445 107.462 604.758 107.462C596.071 107.462 589.029 108.793 589.029 110.436C589.029 112.078 596.071 113.41 604.758 113.41Z" stroke="#464646" stroke-width="1.9034" stroke-miterlimit="10" stroke-linecap="round" stroke-linejoin="round"/>
<path d="M620.487 110.436C620.648 111.334 620.733 112.259 620.733 113.203C620.733 121.907 613.58 128.963 604.758 128.963C595.935 128.963 588.783 121.907 588.783 113.203C588.783 112.259 588.867 111.334 589.029 110.436" stroke="#464646" stroke-width="1.9034" stroke-miterlimit="10" stroke-linecap="round" stroke-linejoin="round"/>
<path d="M604.758 129.021V148.519" stroke="#464646" stroke-width="1.9034" stroke-miterlimit="10" stroke-linecap="round" stroke-linejoin="round"/>
<path d="M604.758 150.867C610.666 150.867 615.455 149.816 615.455 148.519C615.455 147.222 610.666 146.171 604.758 146.171C598.85 146.171 594.061 147.222 594.061 148.519C594.061 149.816 598.85 150.867 604.758 150.867Z" stroke="#464646" stroke-width="1.9034" stroke-miterlimit="10" stroke-linecap="round" stroke-linejoin="round"/>
<path d="M620.382 116.483C620.382 116.483 617.75 115.998 608.098 119.157C594.349 123.658 589.029 115.998 589.029 115.998C589.029 115.998 596.897 113.222 610.467 118.411" stroke="#464646" stroke-width="1.9034" stroke-miterlimit="10" stroke-linecap="round" stroke-linejoin="round"/>
<path d="M521.491 21.5986C521.491 21.5986 528.094 24.9367 528.005 31.8049C527.986 33.309 528.537 34.7682 529.562 35.8692C531.455 37.9027 533.648 41.9148 530.178 47.9242C526.709 53.9336 522.138 54.0402 519.43 53.418C517.964 53.081 516.425 53.3326 515.132 54.1015C509.228 57.6127 503.036 53.5637 503.036 53.5637" stroke="#464646" stroke-width="1.9034" stroke-miterlimit="10" stroke-linecap="round" stroke-linejoin="round"/>
<path d="M514.752 39.0176C519.85 30.1892 522.878 22.3951 521.516 21.6089C520.154 20.8227 514.918 27.3422 509.821 36.1706C504.724 44.999 501.696 52.7931 503.058 53.5793C504.42 54.3654 509.655 47.8459 514.752 39.0176Z" stroke="#464646" stroke-width="1.9034" stroke-miterlimit="10" stroke-linecap="round" stroke-linejoin="round"/>
<path d="M530.178 47.9241L548.753 58.6481" stroke="#464646" stroke-width="1.9034" stroke-miterlimit="10" stroke-linecap="round" stroke-linejoin="round"/>
<path d="M550.889 59.8816C553.993 54.5062 555.552 49.5964 554.372 48.9152C553.192 48.2339 549.72 52.0393 546.616 57.4147C543.513 62.7901 541.954 67.6999 543.133 68.3812C544.313 69.0624 547.786 65.257 550.889 59.8816Z" stroke="#464646" stroke-width="1.9034" stroke-miterlimit="10" stroke-linecap="round" stroke-linejoin="round"/>
<path d="M526.612 26.5602C517.124 36.293 520.375 48.8496 509.884 55.5331C508.4 53.7243 513.276 43.1958 520.744 35.9823" stroke="#464646" stroke-width="1.9034" stroke-miterlimit="10" stroke-linecap="round" stroke-linejoin="round"/>
<rect x="-0.119577" y="91.0168" width="99.8132" height="132.624" rx="49.9066" transform="rotate(17.6719 -0.119577 91.0168)" fill="#121212" stroke="#030303" stroke-width="6.34467"/>
<rect x="107.535" y="1.58899" width="99.8132" height="134.771" rx="49.9066" transform="rotate(114.683 107.535 1.58899)" fill="#121212" stroke="#030303" stroke-width="6.34467"/>
<rect x="172.277" y="71.8121" width="110.551" height="110.551" rx="55.2753" transform="rotate(114.683 172.277 71.8121)" fill="#121212" stroke="#030303" stroke-width="6.34467"/>
<rect x="231.035" y="137.291" width="99.3587" height="99.3595" rx="11.7312" transform="rotate(118.746 231.035 137.291)" fill="#121212" stroke="#030303" stroke-width="6.34467"/>
<path d="M13.3207 -0.500328C13.3207 -0.500328 46.6684 -2.55674 31.6832 22.5768C16.2632 47.446 2.74504 16.8919 2.74504 16.8919" fill="#121212"/>
<path d="M13.3207 -0.500328C13.3207 -0.500328 46.6684 -2.55674 31.6832 22.5768C16.2632 47.446 2.74504 16.8919 2.74504 16.8919" stroke="#464646" stroke-width="1.9034" stroke-miterlimit="10" stroke-linecap="round" stroke-linejoin="round"/>
<path d="M9.64722 9.17734C12.5676 4.37461 14.2123 0.0417567 13.3208 -0.500356C12.4293 -1.04247 9.3391 2.41144 6.4187 7.21417C3.49831 12.0169 1.85358 16.3497 2.74511 16.8919C3.63664 17.434 6.72682 13.9801 9.64722 9.17734Z" fill="#121212" stroke="#464646" stroke-width="1.9034" stroke-miterlimit="10" stroke-linecap="round" stroke-linejoin="round"/>
<path d="M31.6841 22.5769L42.1918 28.9664" stroke="#464646" stroke-width="1.9034" stroke-miterlimit="10" stroke-linecap="round" stroke-linejoin="round"/>
<path d="M44.5126 30.3779C48.0638 24.5379 49.9034 19.1717 48.6215 18.3922C47.3396 17.6127 43.4216 21.7151 39.8704 27.5551C36.3192 33.3952 34.4796 38.7614 35.7616 39.5409C37.0435 40.3204 40.9615 36.218 44.5126 30.3779Z" fill="#121212" stroke="#464646" stroke-width="1.9034" stroke-miterlimit="10" stroke-linecap="round" stroke-linejoin="round"/>
<path d="M24.6918 0.522278C24.6918 0.522278 21.6354 2.76383 19.8923 7.64279C19.3017 9.29546 18.8621 11.2509 18.7428 13.5242C18.1539 24.7547 9.33177 27.0166 9.33177 27.0166C7.17554 21.6312 14.0015 11.9389 19.8923 7.64279" fill="#121212"/>
<path d="M24.6918 0.522277C24.6918 0.522277 21.6354 2.76383 19.8923 7.64279M19.8923 7.64279C19.3017 9.29546 18.8621 11.2509 18.7428 13.5242C18.1539 24.7547 9.33177 27.0166 9.33177 27.0166C7.17554 21.6312 14.0015 11.9389 19.8923 7.64279Z" stroke="#464646" stroke-width="1.9034" stroke-miterlimit="10" stroke-linecap="round" stroke-linejoin="round"/>
<path d="M172.863 139.099C181.578 143.626 189.147 146.324 189.769 145.126C190.392 143.928 183.831 139.287 175.116 134.76C166.401 130.233 158.832 127.535 158.21 128.733C157.587 129.931 164.148 134.572 172.863 139.099Z" fill="#121212" stroke="#464646" stroke-width="1.9034" stroke-miterlimit="10" stroke-linecap="round" stroke-linejoin="round"/>
<path d="M189.67 145.314L172.854 154.177C171.209 155.044 169.324 155.344 167.491 155.031C165.755 154.735 164.155 153.904 162.914 152.654C161.604 151.334 160.766 149.619 160.529 147.775L158.11 128.921" fill="#121212"/>
<path d="M189.67 145.314L172.854 154.177C171.209 155.044 169.324 155.344 167.491 155.031C165.755 154.735 164.155 153.904 162.914 152.654C161.604 151.334 160.766 149.619 160.529 147.775L158.11 128.921" stroke="#464646" stroke-width="1.9034" stroke-miterlimit="10" stroke-linecap="round" stroke-linejoin="round"/>
<path d="M165.017 154.2L152.803 177.713" stroke="#464646" stroke-width="1.9034" stroke-miterlimit="10" stroke-linecap="round" stroke-linejoin="round"/>
<path d="M163.265 183.148C162.852 183.942 157.835 182.153 152.058 179.152C146.281 176.151 141.932 173.074 142.344 172.28C142.757 171.486 147.774 173.275 153.552 176.276C159.329 179.277 163.678 182.353 163.265 183.148Z" fill="#121212" stroke="#464646" stroke-width="1.9034" stroke-miterlimit="10" stroke-linecap="round" stroke-linejoin="round"/>
<path d="M159.09 136.574C161.284 136.25 165.897 138.089 170.325 143.995C175.122 150.393 181.166 149.781 182.845 148.913L182.844 148.915C181.178 146.191 173.618 140.886 167.604 140.863" fill="#121212"/>
<path d="M159.09 136.574C161.284 136.25 165.897 138.089 170.325 143.995C175.122 150.393 181.166 149.781 182.845 148.913L182.844 148.915C181.178 146.191 173.618 140.886 167.604 140.863" stroke="#464646" stroke-width="1.9034" stroke-miterlimit="10" stroke-linecap="round" stroke-linejoin="round"/>
<path d="M98.9697 83.3896C107.552 83.3896 114.509 82.0742 114.509 80.4516C114.509 78.829 107.552 77.5137 98.9697 77.5137C90.3876 77.5137 83.4304 78.829 83.4304 80.4516C83.4304 82.0742 90.3876 83.3896 98.9697 83.3896Z" fill="#121212" stroke="#464646" stroke-width="1.9034" stroke-miterlimit="10" stroke-linecap="round" stroke-linejoin="round"/>
<path d="M114.509 80.4517C114.668 81.3391 114.751 82.2526 114.751 83.1852C114.751 91.7846 107.686 98.7557 98.9696 98.7557C90.2536 98.7557 83.1877 91.7844 83.1877 83.1852C83.1877 82.2528 83.2709 81.3393 83.4303 80.4517" fill="#121212"/>
<path d="M114.509 80.4517C114.668 81.3391 114.751 82.2526 114.751 83.1852C114.751 91.7846 107.686 98.7557 98.9696 98.7557C90.2536 98.7557 83.1877 91.7844 83.1877 83.1852C83.1877 82.2528 83.2709 81.3393 83.4303 80.4517" stroke="#464646" stroke-width="1.9034" stroke-miterlimit="10" stroke-linecap="round" stroke-linejoin="round"/>
<path d="M98.9697 98.8126V118.075" stroke="#464646" stroke-width="1.9034" stroke-miterlimit="10" stroke-linecap="round" stroke-linejoin="round"/>
<path d="M98.9694 120.395C104.806 120.395 109.538 119.356 109.538 118.075C109.538 116.794 104.806 115.755 98.9694 115.755C93.1329 115.755 88.4014 116.794 88.4014 118.075C88.4014 119.356 93.1329 120.395 98.9694 120.395Z" fill="#121212" stroke="#464646" stroke-width="1.9034" stroke-miterlimit="10" stroke-linecap="round" stroke-linejoin="round"/>
<path d="M114.405 86.4261C114.405 86.4261 111.805 85.9465 102.269 89.0678C88.6861 93.5138 83.4304 85.9465 83.4304 85.9465C83.4304 85.9465 91.2035 83.204 104.61 88.3301" fill="#121212"/>
<path d="M114.405 86.4261C114.405 86.4261 111.805 85.9465 102.269 89.0678C88.6861 93.5138 83.4304 85.9465 83.4304 85.9465C83.4304 85.9465 91.2035 83.204 104.61 88.3301" stroke="#464646" stroke-width="1.9034" stroke-miterlimit="10" stroke-linecap="round" stroke-linejoin="round"/>
<path d="M33.4233 146.504C38.7417 147.929 43.2641 148.297 43.5243 147.326C43.7845 146.355 39.684 144.413 34.3655 142.987C29.0471 141.562 24.5247 141.194 24.2645 142.165C24.0043 143.136 28.1048 145.079 33.4233 146.504Z" fill="#121212" stroke="#464646" stroke-width="1.9034" stroke-miterlimit="10" stroke-linecap="round" stroke-linejoin="round"/>
<path d="M24.2642 142.165L19.2648 160.823C17.8397 166.142 20.9959 171.608 26.3144 173.033C31.6328 174.459 37.0995 171.302 38.5246 165.984L43.524 147.326" fill="#121212"/>
<path d="M24.2642 142.165L19.2648 160.823C17.8397 166.142 20.9959 171.608 26.3144 173.033C31.6328 174.459 37.0995 171.302 38.5246 165.984L43.524 147.326" stroke="#464646" stroke-width="1.9034" stroke-miterlimit="10" stroke-linecap="round" stroke-linejoin="round"/>
<path d="M36.9483 160.038C26.5614 152.991 20.5031 156.205 20.5031 156.205C20.5031 156.205 20.1851 158.873 29.1031 160.557C36.6791 161.987 40.7186 157.798 40.7186 157.798" fill="#121212"/>
<path d="M36.9483 160.038C26.5614 152.991 20.5031 156.205 20.5031 156.205C20.5031 156.205 20.1851 158.873 29.1031 160.557C36.6791 161.987 40.7186 157.798 40.7186 157.798" stroke="#464646" stroke-width="1.9034" stroke-miterlimit="10" stroke-linecap="round" stroke-linejoin="round"/>
<path d="M26.3145 173.033L20.7092 193.952" stroke="#464646" stroke-width="1.9034" stroke-miterlimit="10" stroke-linecap="round" stroke-linejoin="round"/>
<path d="M20.2382 195.711C25.5567 197.136 30.0791 197.504 30.3392 196.533C30.5994 195.562 26.4989 193.62 21.1804 192.195C15.862 190.77 11.3396 190.401 11.0794 191.372C10.8193 192.343 14.9198 194.286 20.2382 195.711Z" fill="#121212" stroke="#464646" stroke-width="1.9034" stroke-miterlimit="10" stroke-linecap="round" stroke-linejoin="round"/>
</g>
<mask id="mask1_2244_2441" style="mask-type:alpha" maskUnits="userSpaceOnUse" x="0" y="0" width="651" height="541">
<rect x="0.9104" y="0.375977" width="649.34" height="539.849" fill="#FFCC4C"/>
</mask>
<g mask="url(#mask1_2244_2441)">
<rect x="225.248" y="190.488" width="191.99" height="82.6879" rx="8.22222" transform="rotate(-9.19238 225.248 190.488)" fill="#121212"/>
<rect x="363.137" y="155.065" width="32.482" height="32.482" rx="4.93333" transform="rotate(-9.19238 363.137 155.065)" fill="#222222"/>
<mask id="mask2_2244_2441" style="mask-type:luminance" maskUnits="userSpaceOnUse" x="366" y="153" width="32" height="31">
<path fill-rule="evenodd" clip-rule="evenodd" d="M366.628 170.953C365.275 162.594 370.955 154.721 379.315 153.368C387.674 152.015 395.547 157.695 396.9 166.054C398.252 174.414 392.573 182.287 384.213 183.64C375.854 184.992 367.981 179.312 366.628 170.953Z" fill="white"/>
</mask>
<g mask="url(#mask2_2244_2441)">
<path fill-rule="evenodd" clip-rule="evenodd" d="M380.341 159.704C377.951 160.091 377.652 160.15 376.721 160.344C375.791 160.539 375.175 160.791 374.651 161.099C374.108 161.417 373.666 161.797 373.256 162.366C372.845 162.934 372.624 163.474 372.492 164.089C372.365 164.684 372.32 165.348 372.429 166.292C372.539 167.237 372.577 167.539 372.963 169.929C373.35 172.32 373.409 172.617 373.604 173.549C373.798 174.479 374.05 175.094 374.358 175.619C374.677 176.161 375.057 176.604 375.626 177.014C376.194 177.424 376.734 177.646 377.349 177.777C377.944 177.904 378.607 177.949 379.551 177.84C380.497 177.731 380.798 177.693 383.188 177.306C385.579 176.92 385.876 176.861 386.808 176.666C387.738 176.471 388.354 176.22 388.879 175.911C389.422 175.593 389.863 175.212 390.273 174.643C390.683 174.075 390.904 173.535 391.036 172.92C391.162 172.325 391.207 171.661 391.1 170.718C390.99 169.772 390.952 169.471 390.566 167.081C390.179 164.691 390.119 164.392 389.925 163.46C389.729 162.531 389.477 161.915 389.171 161.39C388.851 160.848 388.471 160.406 387.902 159.996C387.334 159.585 386.795 159.364 386.18 159.233C385.583 159.106 384.919 159.061 383.976 159.17C383.03 159.279 382.729 159.317 380.338 159.704L380.341 159.704ZM379.808 161.419C380.043 161.381 380.304 161.339 380.598 161.291C382.948 160.911 383.228 160.874 384.163 160.766C385.027 160.667 385.516 160.735 385.846 160.805C386.282 160.898 386.606 161.041 386.964 161.3C387.322 161.558 387.56 161.82 387.786 162.205C387.957 162.496 388.176 162.938 388.354 163.79C388.546 164.711 388.6 164.988 388.98 167.337C389.36 169.686 389.396 169.966 389.504 170.9C389.604 171.765 389.536 172.254 389.466 172.583C389.372 173.02 389.229 173.343 388.971 173.701C388.712 174.059 388.451 174.297 388.066 174.523C387.775 174.694 387.332 174.912 386.481 175.091C385.56 175.283 385.282 175.337 382.933 175.717C380.582 176.098 380.302 176.134 379.368 176.242C378.503 176.341 378.014 176.273 377.684 176.203C377.248 176.11 376.924 175.966 376.566 175.708C376.208 175.45 375.97 175.188 375.743 174.803C375.573 174.513 375.354 174.07 375.176 173.218C374.984 172.297 374.93 172.02 374.55 169.67C374.169 167.32 374.133 167.041 374.025 166.106C373.925 165.242 373.993 164.753 374.064 164.423C374.157 163.987 374.3 163.662 374.558 163.304C374.817 162.947 375.079 162.708 375.464 162.482C375.755 162.311 376.197 162.092 377.049 161.914C377.855 161.746 378.168 161.684 379.808 161.417L379.808 161.419ZM385.532 161.992C384.949 162.086 384.553 162.636 384.647 163.219C384.741 163.802 385.291 164.198 385.874 164.104C386.457 164.01 386.854 163.46 386.759 162.877C386.665 162.294 386.115 161.897 385.532 161.992L385.532 161.992ZM381.034 163.985C378.538 164.389 376.842 166.74 377.246 169.236C377.65 171.732 380.001 173.427 382.497 173.023C384.993 172.619 386.688 170.269 386.285 167.773C385.881 165.277 383.53 163.581 381.034 163.985L381.034 163.985ZM381.291 165.572C382.911 165.31 384.437 166.41 384.699 168.031C384.961 169.651 383.86 171.177 382.24 171.439C380.62 171.701 379.094 170.6 378.832 168.98C378.57 167.36 379.67 165.834 381.291 165.572Z" fill="white"/>
</g>
<rect x="239.215" y="225.945" width="170.2" height="5.75555" rx="2.87778" transform="rotate(-9.19238 239.215 225.945)" fill="#1E1E1E"/>
<rect x="241.015" y="237.066" width="170.2" height="5.75555" rx="2.87778" transform="rotate(-9.19238 241.015 237.066)" fill="#1E1E1E"/>
<rect x="242.762" y="247.86" width="87.1555" height="5.75555" rx="2.87778" transform="rotate(-9.19238 242.762 247.86)" fill="#1E1E1E"/>
<rect x="236.063" y="206.465" width="97.8444" height="9.04444" rx="4.52222" transform="rotate(-9.19238 236.063 206.465)" fill="#FFCF35"/>
<path d="M219.399 300.549C219.399 300.549 183.253 297.463 178.006 328.41C172.763 359.356 199.779 377.737 208.317 364.181C216.859 350.625 219.399 300.549 219.399 300.549Z" fill="#202020"/>
<path d="M336.191 313.799C336.191 313.799 344.787 282.668 343.382 262.43C341.977 242.193 336.927 235.642 333.899 235.431C330.871 235.22 328.922 248.081 328.922 248.081C328.922 248.081 327.076 229.1 320.429 228.759C313.777 228.413 313.546 245.258 313.546 245.258C313.546 245.258 309.434 231.979 304.423 235.027C299.413 238.074 300.465 276.011 300.465 276.011C300.465 276.011 292.276 265.36 288.369 267.668C284.463 269.972 288.467 284.849 292.484 292.734C296.505 300.624 304.622 306.461 304.622 306.461L336.191 313.799Z" fill="#FEC29E"/>
<path d="M333.293 268.936C333.309 268.849 333.315 268.765 333.311 268.674C333.273 268.091 332.769 267.647 332.181 267.684L302.445 269.618C301.856 269.66 301.43 270.178 301.455 270.749C301.493 271.332 301.998 271.776 302.586 271.738L332.322 269.805C332.815 269.765 333.208 269.402 333.293 268.936Z" fill="#1E1C1C"/>
<path d="M316.664 297.989C316.903 296.686 318.765 283.753 300.927 275.056C300.402 274.8 299.766 275.018 299.509 275.543C299.23 276.078 299.471 276.703 299.995 276.96C317.094 285.295 314.707 297.129 314.577 297.621C314.467 298.217 314.818 298.762 315.376 298.89C315.943 299.019 316.51 298.663 316.644 298.096C316.644 298.096 316.652 298.052 316.664 297.989Z" fill="#1E1C1C"/>
<path d="M349.752 300.691C349.752 300.691 377.604 366.666 355.704 408.99C333.805 451.319 252.68 448.95 252.68 448.95L241.376 384.237C241.376 384.237 278.222 383.965 291.914 362.521C302.178 346.445 295.071 305.608 295.071 305.608L349.752 300.691Z" fill="white"/>
<path d="M301.154 373.438C300.646 373.466 300.145 373.341 299.655 373.066C295.898 370.963 293.409 359.03 292.941 356.656C292.851 356.191 293.068 355.724 293.476 355.499C293.888 355.263 294.387 355.33 294.745 355.641C295.839 356.635 305.407 365.506 304.455 370.486C304.282 371.386 303.705 372.595 301.931 373.262C301.68 373.365 301.416 373.424 301.154 373.438ZM295.875 359.794C297.075 364.605 298.951 370.181 300.723 371.172C300.947 371.298 301.075 371.271 301.167 371.236C302.058 370.895 302.256 370.449 302.32 370.084C302.75 367.834 299.235 363.299 295.875 359.794Z" fill="#161616"/>
<path d="M183.142 395.658C183.142 395.658 168.683 398.385 159.96 403.829C151.232 409.272 141.32 440.59 141.32 440.59L186.176 490.608L226.335 467.456L183.142 395.658Z" fill="white"/>
<path d="M243.583 695.365C248.988 695.329 254.561 695.194 260.396 694.961C269.093 694.526 277.323 693.503 284.96 692.037C305.548 688.156 322.386 681.122 334.757 674.552C328.763 606.286 303.855 543.646 289.328 511.955C283.975 500.303 280.029 492.798 278.913 490.767C278.718 490.387 278.62 490.215 278.62 490.215L254.531 496.996L250.239 498.192L250.028 503.873L249.58 517.898L243.583 695.365Z" fill="#171717"/>
<path d="M171.879 602.31C181.462 661.206 188.523 681.416 188.523 681.416C188.523 681.416 187.525 684.83 185.854 690.686C199.637 693.106 219.251 695.432 243.597 695.355C248.973 695.34 254.576 695.214 260.399 694.942C269.089 694.542 277.302 693.495 284.974 692.032C287.482 681.273 289.013 673.871 289.419 671.91C296.595 637.542 260.968 513.422 260.968 513.422L254.515 496.992L187.134 508.077C187.134 508.077 162.295 543.39 171.879 602.31Z" fill="#1C1C1C"/>
<path d="M204.078 363.647L206.253 387.105C206.253 387.105 211.11 393.456 224.934 393.297C235.232 393.179 238.608 390.534 238.608 390.534L236.08 378.785L233.602 367.331L208.317 364.18L204.078 363.647Z" fill="#FEC29E"/>
<path d="M204.016 362.527C204.135 363.163 204.447 363.893 204.909 364.728C211.243 375.96 230.129 378.811 236.085 378.789L233.607 367.335L204.016 362.527Z" fill="#1E1C1C"/>
<path d="M233.874 313.38C233.874 313.38 248.91 341.649 245.572 358.435C242.234 375.227 227.062 373.794 217.856 371.309C208.651 368.824 204.072 363.65 204.072 363.65C204.072 363.65 195.923 367.132 189.724 359.781C183.526 352.431 186.283 343.225 190.904 340.813C195.524 338.397 201.474 341.407 201.474 341.407L196.363 333.25C196.363 333.25 211.773 288.603 233.874 313.38Z" fill="#FEC29E"/>
<path d="M238.868 325.061C238.725 325.059 232.942 324.527 232.942 324.527C232.4 324.478 231.992 323.996 232.047 323.453C232.096 322.911 232.581 322.464 233.125 322.558L238.908 323.09C239.45 323.139 239.852 323.621 239.803 324.168C239.756 324.66 239.352 325.034 238.868 325.061Z" fill="#1E1C1C"/>
<path d="M217.614 328.716C217.19 328.739 216.771 328.51 216.576 328.1C216.313 327.561 216.54 326.91 217.079 326.648L223.584 323.489C224.108 323.227 224.774 323.448 225.036 323.992C225.298 324.532 225.072 325.183 224.532 325.445L218.028 328.604C217.899 328.675 217.757 328.708 217.614 328.716Z" fill="#1E1C1C"/>
<path d="M236.161 346.218C236.013 346.226 235.854 346.2 235.707 346.139C235.146 345.923 234.868 345.29 235.09 344.734C237.595 338.313 231.425 334.888 231.16 334.745C230.629 334.457 230.435 333.8 230.722 333.27C231.004 332.74 231.666 332.54 232.191 332.823C235.02 334.334 239.687 338.929 237.117 345.517C236.957 345.942 236.576 346.195 236.161 346.218Z" fill="#1E1C1C"/>
<path d="M202.185 353.479C202.037 353.487 201.878 353.461 201.731 353.405L189.618 348.691C189.057 348.475 188.779 347.842 189.001 347.286C189.212 346.725 189.855 346.447 190.407 346.669L202.52 351.383C203.081 351.599 203.358 352.232 203.137 352.788C202.982 353.203 202.6 353.456 202.185 353.479Z" fill="#1E1C1C"/>
<path d="M191.811 356.791C191.529 356.807 191.247 356.709 191.018 356.509C190.575 356.103 190.542 355.412 190.943 354.964L195.867 349.533C196.273 349.095 196.954 349.062 197.411 349.457C197.854 349.863 197.888 350.554 197.487 351.002L192.563 356.433C192.357 356.657 192.087 356.776 191.811 356.791Z" fill="#1E1C1C"/>
<path d="M243.626 337.876C243.626 337.876 240.747 329.09 230.912 319.858C221.077 310.63 221.078 310.63 221.078 310.63C221.078 310.63 223.136 329.014 215.324 337.429C207.512 345.845 201.475 341.419 201.475 341.419L184.898 328.443L219.398 300.556C219.398 300.556 242.947 298.05 243.626 337.876Z" fill="#202020"/>
<path d="M236.146 384.839L257.536 386.607C257.536 386.607 284.69 408.825 281.639 431.621C279.601 446.852 278.698 450.489 278.698 450.489L286.281 498.517C286.281 498.517 268.493 515.042 236.918 520.105C205.343 525.162 177.908 517.207 177.908 517.207C177.908 517.207 176.376 403.672 175.844 394.035C175.495 387.534 236.146 384.839 236.146 384.839Z" fill="white"/>
<path d="M237.07 383.379L246.32 385.683C246.32 385.683 250.324 402.925 229.535 405.146C207.718 407.478 189.295 389.088 189.295 389.088L208.232 384.97L237.07 383.379Z" fill="#FEC29E"/>
<path d="M227.723 406.388C204.703 407.614 189.133 390.545 188.484 389.819C188.083 389.371 188.12 388.686 188.567 388.281C189.011 387.89 189.699 387.906 190.106 388.364C190.258 388.534 205.653 405.38 227.529 404.212C234.656 403.819 239.709 401.694 242.635 397.887C246.627 392.685 245.268 385.978 245.254 385.909C245.132 385.322 245.506 384.742 246.093 384.616C246.708 384.468 247.254 384.868 247.386 385.455C247.452 385.768 248.974 393.174 244.379 399.191C241.052 403.54 235.452 405.961 227.723 406.388Z" fill="#161616"/>
<path d="M279.666 447.939C279.503 447.948 279.338 447.918 279.176 447.853C278.629 447.616 278.366 446.977 278.603 446.425C287.294 425.984 266.62 399.436 266.407 399.171C266.04 398.696 266.116 398.014 266.59 397.642C267.069 397.269 267.751 397.35 268.118 397.82C269.012 398.943 289.808 425.637 280.604 447.279C280.438 447.669 280.065 447.917 279.666 447.939Z" fill="#161616"/>
<path d="M212.165 481.962C212.165 481.962 251.892 471.602 262.205 475.08C272.514 478.557 266.282 512.289 263.588 518.508C260.899 524.726 218.948 517.924 218.948 517.924L205.988 501.453L212.165 481.962Z" fill="#FEC29E"/>
<path d="M262.207 475.085C262.207 475.085 287.516 490.305 289.022 500.566C290.528 510.828 259.341 490.92 259.341 490.92L262.207 475.085Z" fill="#FEC29E"/>
<path d="M248.597 517.845C248.597 517.845 228.229 523.669 235.105 528.934C241.98 534.2 261.916 523.873 263.589 518.517C265.262 513.161 249.902 507.429 249.902 507.429L248.597 517.845Z" fill="#FEC29E"/>
<path d="M186.395 389.614C186.395 389.614 102.48 409.566 103.691 473.262C104.603 521.342 218.661 529.74 218.661 529.74L221.255 476.168L149.827 431.842L186.395 389.614Z" fill="white"/>
<path d="M216.801 471.845C216.653 471.854 216.503 471.827 216.351 471.771C215.927 471.612 173.82 455.607 157.061 456.532C156.444 456.566 155.929 456.104 155.896 455.503C155.862 454.896 156.363 454.383 156.94 454.352C174.158 453.401 215.381 469.069 217.13 469.735C217.691 469.951 217.973 470.579 217.756 471.14C217.601 471.559 217.215 471.823 216.801 471.845Z" fill="#161616"/>
<path d="M185.35 461.475C185.138 461.487 184.922 461.434 184.733 461.321C179.448 458.17 167.228 450.444 167.878 446.807C167.995 446.147 168.468 445.3 170.055 445.005C177.415 443.648 185.373 458.214 186.251 459.882C186.478 460.315 186.393 460.844 186.036 461.18C185.848 461.359 185.601 461.461 185.35 461.475ZM170.887 447.096C170.744 447.104 170.597 447.122 170.455 447.149C170.073 447.22 169.959 447.31 169.959 447.31C170.005 448.495 175.255 452.742 182.107 457.137C179.176 452.604 174.591 446.891 170.887 447.096Z" fill="#161616"/>
<path d="M246.773 521.361L240.332 521.716C239.938 521.738 239.561 521.541 239.349 521.202C239.138 520.867 239.129 520.442 239.327 520.09L242.266 514.892C242.558 514.371 243.226 514.185 243.752 514.483C244.278 514.776 244.458 515.443 244.161 515.969L242.2 519.437L246.649 519.191C247.25 519.158 247.766 519.619 247.799 520.221C247.832 520.813 247.375 521.328 246.773 521.361Z" fill="#1E1C1C"/>
<path d="M268.269 495.657C267.973 495.673 267.67 495.566 267.44 495.342C264.713 492.628 259.785 488.141 258.181 487.67C257.608 487.499 257.277 486.894 257.443 486.316C257.615 485.742 258.214 485.408 258.798 485.578C261.403 486.345 267.737 492.565 268.977 493.798C269.402 494.224 269.404 494.907 268.978 495.341C268.786 495.535 268.53 495.643 268.269 495.657Z" fill="#1E1C1C"/>
<path d="M266.579 507.599C266.317 507.613 266.05 507.529 265.833 507.353L253.339 497.184C252.873 496.804 252.8 496.115 253.18 495.649C253.565 495.182 254.254 495.115 254.715 495.49L267.209 505.659C267.675 506.039 267.748 506.728 267.368 507.194C267.159 507.448 266.87 507.583 266.579 507.599Z" fill="#1E1C1C"/>
<path d="M225.164 339.312C224.696 339.338 224.245 339.056 224.081 338.595L222.644 334.608C222.574 334.424 222.558 334.227 222.597 334.037L223.321 330.202C223.427 329.613 224.008 329.205 224.594 329.336C225.184 329.446 225.571 330.014 225.461 330.609L224.795 334.148L226.133 337.859C226.337 338.426 226.045 339.046 225.483 339.255C225.371 339.286 225.263 339.307 225.164 339.312Z" fill="#1E1C1C"/>
<path d="M239.499 336.508C239.031 336.534 238.58 336.257 238.416 335.791L236.979 331.809C236.909 331.625 236.894 331.428 236.933 331.238L237.656 327.398C237.762 326.809 238.343 326.401 238.929 326.532C239.519 326.643 239.906 327.21 239.796 327.805L239.13 331.349L240.463 335.055C240.667 335.623 240.375 336.242 239.812 336.446C239.705 336.482 239.603 336.502 239.499 336.508Z" fill="#1E1C1C"/>
<path d="M229.614 359.703C229.387 359.715 229.154 359.698 228.913 359.642C226.492 359.074 224.701 353.775 224.211 352.165C224.085 351.766 224.205 351.339 224.506 351.05C224.806 350.762 225.248 350.688 225.631 350.825L233.345 353.719C233.623 353.822 233.847 354.032 233.961 354.308C234.08 354.583 234.082 354.885 233.964 355.159C233.646 355.943 232.001 359.571 229.614 359.703ZM227.06 353.68C227.897 355.751 228.868 357.394 229.419 357.522C229.849 357.696 230.755 356.627 231.475 355.336L227.06 353.68Z" fill="#1E1C1C"/>
<path d="M180.744 352.235C180.291 352.26 179.85 351.992 179.673 351.552C172.989 334.705 180.035 318.495 180.338 317.811C180.585 317.263 181.229 317.014 181.777 317.256C182.325 317.503 182.573 318.142 182.331 318.695C182.256 318.852 175.358 334.772 181.701 350.742C181.925 351.304 181.653 351.932 181.091 352.156C180.975 352.202 180.858 352.229 180.744 352.235Z" fill="#272726"/>
<path d="M176.326 332.14C172.514 332.35 156.641 332.751 154.541 324.996C154.062 323.227 154.69 322.238 155.305 321.724C157.972 319.499 166.576 322.373 172.832 324.942C166.015 318.036 154.72 304.936 159.928 298.549C161.235 296.953 162.68 296.794 163.65 296.973C170.645 298.13 179.235 320.67 180.188 323.235C180.397 323.797 180.115 324.421 179.548 324.63C178.981 324.84 178.357 324.558 178.152 323.99C174.709 314.756 167.632 299.83 163.293 299.115C162.883 299.039 162.306 299.07 161.616 299.925C156.909 305.696 172.385 321.869 178.738 327.609C179.139 327.972 179.216 328.572 178.914 329.019C178.613 329.476 178.028 329.627 177.546 329.406C168.926 325.345 158.48 321.88 156.704 323.403C156.514 323.557 156.494 323.909 156.642 324.435C158.195 330.157 171.814 330.42 176.946 329.924C177.636 329.782 178.071 330.327 178.124 330.922C178.172 331.523 177.721 332.048 177.125 332.101C177.036 332.096 176.76 332.116 176.326 332.14Z" fill="#272726"/>
<path d="M317.525 587.926C317.008 587.891 308.27 587.052 301.975 577.609C296.63 569.588 301.804 556.395 303.811 551.971C300.492 551.625 293.162 550.214 290.451 544.397C286.139 535.186 294.976 526.877 295.352 526.525C295.794 526.115 296.478 526.141 296.889 526.584C297.294 527.026 297.272 527.71 296.83 528.12C296.745 528.194 288.789 535.703 292.419 543.472C295.324 549.684 305.393 549.895 305.492 549.899C305.868 549.903 306.221 550.106 306.412 550.427C306.608 550.748 306.62 551.148 306.45 551.484C306.37 551.647 298.136 567.917 303.783 576.391C309.478 584.922 317.478 585.737 317.563 585.748C318.159 585.804 318.604 586.328 318.553 586.925C318.499 587.477 318.062 587.897 317.525 587.926Z" fill="#353535"/>
<path d="M289.889 676.385C289.128 676.323 288.688 675.788 288.744 675.192C293.06 630.128 264.81 533.463 264.524 532.494C264.402 532.075 264.54 531.622 264.876 531.342L279.381 519.336C279.835 518.964 280.521 519.011 280.918 519.484C281.299 519.947 281.233 520.629 280.77 521.02L266.813 532.565C269.364 541.399 295.074 631.946 290.908 675.404C290.859 675.946 290.417 676.356 289.889 676.385Z" fill="#353535"/>
<path d="M201.271 371.511C205.144 371.298 208.111 367.984 207.897 364.111C207.684 360.238 204.37 357.271 200.497 357.485C196.624 357.698 193.657 361.012 193.87 364.885C194.084 368.759 197.398 371.725 201.271 371.511Z" fill="#FFBE1D"/>
<rect x="101.52" y="538.79" width="443.633" height="19.5583" fill="#373737"/>
</g>
<rect x="409.49" y="357.65" width="144.588" height="65.9857" rx="8.22222" transform="rotate(-12.0279 409.49 357.65)" fill="#121212" fill-opacity="0.63"/>
<rect x="423.44" y="385.011" width="128.727" height="4.35308" rx="2.17654" transform="rotate(-12.0279 423.44 385.011)" fill="#1E1E1E" fill-opacity="0.69"/>
<rect x="425.215" y="393.344" width="128.727" height="4.35308" rx="2.17654" transform="rotate(-12.0279 425.215 393.344)" fill="#1E1E1E" fill-opacity="0.69"/>
<rect x="426.939" y="401.433" width="65.9181" height="4.35308" rx="2.17654" transform="rotate(-12.0279 426.939 401.433)" fill="#1E1E1E" fill-opacity="0.69"/>
<rect x="420.535" y="371.485" width="66.857" height="5.25906" rx="2.62953" transform="rotate(-12.0279 420.535 371.485)" fill="#FFCF35"/>
<rect x="512.381" y="324.364" width="25.0681" height="25.0681" rx="4.21694" transform="rotate(-12.0279 512.381 324.364)" fill="#222222"/>
<path d="M525.241 334.547L528.796 333.79" stroke="white" stroke-width="0.778875" stroke-miterlimit="10" stroke-linecap="round" stroke-linejoin="round"/>
<path d="M525.674 336.578L527.899 336.105" stroke="white" stroke-width="0.778875" stroke-miterlimit="10" stroke-linecap="round" stroke-linejoin="round"/>
<path d="M525.586 331.182L527.618 330.749C528.633 330.533 528.525 330.025 528.417 329.517C528.2 328.501 527.693 328.61 527.185 328.718L525.153 329.151C524.646 329.259 524.138 329.367 524.354 330.383C524.571 331.398 525.078 331.29 525.586 331.182Z" stroke="white" stroke-width="0.778875" stroke-miterlimit="10" stroke-linecap="round" stroke-linejoin="round"/>
<path d="M528.419 329.527C530.13 329.258 531.111 329.702 531.605 332.023L532.254 335.07C532.687 337.102 532.396 338.226 529.857 338.767L526.81 339.416C524.27 339.957 523.546 339.049 523.113 337.018L522.464 333.971C521.971 331.655 522.684 330.845 524.356 330.393" stroke="white" stroke-width="0.778875" stroke-miterlimit="10" stroke-linecap="round" stroke-linejoin="round"/>
<rect x="359.637" y="258.364" width="144.588" height="64.3862" rx="8.22222" transform="rotate(4.22474 359.637 258.364)" fill="#121212"/>
<rect x="465.601" y="254.119" width="25.6581" height="25.6581" rx="4.31619" transform="rotate(4.22474 465.601 254.119)" fill="#222222"/>
<path fill-rule="evenodd" clip-rule="evenodd" d="M477.322 265.37L477.316 265.828L476.859 265.738C475.197 265.4 473.785 264.566 472.631 263.255L472.067 262.606L471.878 263.041C471.472 264.012 471.607 265.079 472.246 265.837C472.586 266.255 472.499 266.305 471.88 266.026C471.664 265.935 471.475 265.865 471.454 265.891C471.385 265.952 471.543 266.815 471.694 267.163C471.899 267.646 472.354 268.138 472.869 268.447L473.304 268.694L472.769 268.664C472.253 268.626 472.234 268.634 472.275 268.834C472.414 269.452 473.095 270.148 473.886 270.487L474.443 270.725L473.923 270.986C473.154 271.359 472.27 271.537 471.402 271.492C470.986 271.47 470.643 271.482 470.64 271.51C470.634 271.603 471.72 272.208 472.359 272.461C474.278 273.211 476.629 273.122 478.456 272.219C479.755 271.575 481.107 270.206 481.792 268.835C482.162 268.104 482.577 266.75 482.625 266.09C482.657 265.661 482.689 265.608 483.243 265.134C483.569 264.859 483.879 264.554 483.941 264.465C484.046 264.295 484.037 264.294 483.555 264.418C482.751 264.639 482.643 264.594 483.061 264.204C483.369 263.927 483.75 263.412 483.762 263.254C483.764 263.226 483.622 263.263 483.459 263.335C483.286 263.416 482.907 263.528 482.625 263.591L482.115 263.713L481.686 263.372C481.45 263.186 481.113 262.974 480.933 262.905C480.473 262.74 479.752 262.705 479.317 262.823C478.134 263.157 477.326 264.182 477.322 265.37Z" fill="white"/>
<rect x="365.102" y="287.714" width="128.727" height="4.35308" rx="2.17654" transform="rotate(4.22474 365.102 287.714)" fill="#1E1E1E"/>
<rect x="364.474" y="296.211" width="128.727" height="4.35308" rx="2.17654" transform="rotate(4.22474 364.474 296.211)" fill="#1E1E1E"/>
<rect x="363.865" y="304.458" width="65.9181" height="4.35308" rx="2.17654" transform="rotate(4.22474 363.865 304.458)" fill="#1E1E1E"/>
<rect x="366.146" y="273.258" width="69.0667" height="6.57778" rx="3.28889" transform="rotate(4.22474 366.146 273.258)" fill="#FFCF35"/>
</svg>
