<svg width="650" height="574" viewBox="0 0 650 574" fill="none" xmlns="http://www.w3.org/2000/svg">
<mask id="mask0_2301_6091" style="mask-type:alpha" maskUnits="userSpaceOnUse" x="0" y="0" width="650" height="574">
<rect x="0.18042" y="0.310059" width="649.34" height="573.47" fill="#030303"/>
</mask>
<g mask="url(#mask0_2301_6091)">
<rect x="503.703" y="121.015" width="101.111" height="134.322" rx="50.5554" transform="rotate(17.6719 503.703 121.015)" fill="#121212" stroke="#030303" stroke-width="6.34467"/>
<rect x="612.749" y="30.524" width="101.111" height="136.496" rx="50.5554" transform="rotate(114.683 612.749 30.524)" fill="#121212" stroke="#030303" stroke-width="6.34467"/>
<rect x="678.283" y="101.606" width="111.979" height="111.98" rx="55.9897" transform="rotate(114.683 678.283 101.606)" fill="#121212" stroke="#030303" stroke-width="6.34467"/>
<rect x="737.76" y="167.889" width="100.651" height="100.651" rx="11.7312" transform="rotate(118.746 737.76 167.889)" fill="#121212" stroke="#030303" stroke-width="6.34467"/>
<path d="M535.622 184.91C542.295 186.698 547.903 187.404 548.149 186.486C548.394 185.569 543.185 183.377 536.512 181.589C529.84 179.801 524.232 179.095 523.986 180.012C523.74 180.929 528.95 183.122 535.622 184.91Z" stroke="#464646" stroke-width="1.9034" stroke-miterlimit="10" stroke-linecap="round" stroke-linejoin="round"/>
<path d="M542.168 200.766C531.459 193.974 516.913 191.946 514.464 195.078" stroke="#464646" stroke-width="1.9034" stroke-miterlimit="10" stroke-linecap="round" stroke-linejoin="round"/>
<path d="M548.149 186.486C548.149 186.486 557.029 227.916 526.458 219.113C495.582 211.451 523.987 180.012 523.987 180.012" stroke="#464646" stroke-width="1.9034" stroke-miterlimit="10" stroke-linecap="round" stroke-linejoin="round"/>
<path d="M514.171 195.343C513.813 201.552 548.974 203.578 549.332 197.369" stroke="#464646" stroke-width="1.9034" stroke-miterlimit="10" stroke-linecap="round" stroke-linejoin="round"/>
<path d="M604.028 113.344C612.715 113.344 619.757 112.012 619.757 110.37C619.757 108.727 612.715 107.396 604.028 107.396C595.341 107.396 588.299 108.727 588.299 110.37C588.299 112.012 595.341 113.344 604.028 113.344Z" stroke="#464646" stroke-width="1.9034" stroke-miterlimit="10" stroke-linecap="round" stroke-linejoin="round"/>
<path d="M619.757 110.37C619.918 111.268 620.003 112.193 620.003 113.137C620.003 121.841 612.85 128.898 604.028 128.898C595.205 128.898 588.053 121.841 588.053 113.137C588.053 112.193 588.137 111.268 588.299 110.37" stroke="#464646" stroke-width="1.9034" stroke-miterlimit="10" stroke-linecap="round" stroke-linejoin="round"/>
<path d="M604.028 128.955V148.453" stroke="#464646" stroke-width="1.9034" stroke-miterlimit="10" stroke-linecap="round" stroke-linejoin="round"/>
<path d="M604.028 150.801C609.936 150.801 614.725 149.75 614.725 148.453C614.725 147.156 609.936 146.105 604.028 146.105C598.12 146.105 593.331 147.156 593.331 148.453C593.331 149.75 598.12 150.801 604.028 150.801Z" stroke="#464646" stroke-width="1.9034" stroke-miterlimit="10" stroke-linecap="round" stroke-linejoin="round"/>
<path d="M619.652 116.417C619.652 116.417 617.02 115.932 607.368 119.091C593.619 123.592 588.299 115.932 588.299 115.932C588.299 115.932 596.167 113.156 609.737 118.345" stroke="#464646" stroke-width="1.9034" stroke-miterlimit="10" stroke-linecap="round" stroke-linejoin="round"/>
<path d="M520.761 21.5327C520.761 21.5327 527.364 24.8708 527.275 31.739C527.256 33.2431 527.808 34.7023 528.832 35.8033C530.725 37.8367 532.918 41.8489 529.448 47.8583C525.979 53.8677 521.408 53.9743 518.7 53.3521C517.234 53.0151 515.695 53.2667 514.402 54.0356C508.498 57.5467 502.306 53.4978 502.306 53.4978" stroke="#464646" stroke-width="1.9034" stroke-miterlimit="10" stroke-linecap="round" stroke-linejoin="round"/>
<path d="M514.022 38.9517C519.12 30.1233 522.148 22.3292 520.786 21.543C519.424 20.7568 514.188 27.2763 509.091 36.1047C503.994 44.933 500.966 52.7272 502.328 53.5133C503.69 54.2995 508.925 47.78 514.022 38.9517Z" stroke="#464646" stroke-width="1.9034" stroke-miterlimit="10" stroke-linecap="round" stroke-linejoin="round"/>
<path d="M529.448 47.8582L548.023 58.5822" stroke="#464646" stroke-width="1.9034" stroke-miterlimit="10" stroke-linecap="round" stroke-linejoin="round"/>
<path d="M550.159 59.8157C553.263 54.4403 554.822 49.5305 553.642 48.8492C552.462 48.168 548.99 51.9734 545.886 57.3488C542.783 62.7242 541.224 67.634 542.403 68.3152C543.583 68.9965 547.056 65.1911 550.159 59.8157Z" stroke="#464646" stroke-width="1.9034" stroke-miterlimit="10" stroke-linecap="round" stroke-linejoin="round"/>
<path d="M525.882 26.4942C516.394 36.2269 519.645 48.7835 509.154 55.4671C507.67 53.6583 512.546 43.1298 520.014 35.9163" stroke="#464646" stroke-width="1.9034" stroke-miterlimit="10" stroke-linecap="round" stroke-linejoin="round"/>
<rect x="-0.849557" y="90.9507" width="99.8132" height="132.624" rx="49.9066" transform="rotate(17.6719 -0.849557 90.9507)" fill="#121212" stroke="#030303" stroke-width="6.34467"/>
<rect x="106.805" y="1.52307" width="99.8132" height="134.771" rx="49.9066" transform="rotate(114.683 106.805 1.52307)" fill="#121212" stroke="#030303" stroke-width="6.34467"/>
<rect x="171.547" y="71.7462" width="110.551" height="110.551" rx="55.2753" transform="rotate(114.683 171.547 71.7462)" fill="#121212" stroke="#030303" stroke-width="6.34467"/>
<rect x="230.305" y="137.225" width="99.3587" height="99.3595" rx="11.7312" transform="rotate(118.746 230.305 137.225)" fill="#121212" stroke="#030303" stroke-width="6.34467"/>
<path d="M12.5908 -0.566368C12.5908 -0.566368 45.9384 -2.62278 30.9532 22.5108C15.5332 47.38 2.01506 16.8258 2.01506 16.8258" fill="#121212"/>
<path d="M12.5908 -0.566368C12.5908 -0.566368 45.9384 -2.62278 30.9532 22.5108C15.5332 47.38 2.01506 16.8258 2.01506 16.8258" stroke="#464646" stroke-width="1.9034" stroke-miterlimit="10" stroke-linecap="round" stroke-linejoin="round"/>
<path d="M8.91724 9.1113C11.8376 4.30857 13.4824 -0.0242833 12.5908 -0.566396C11.6993 -1.10851 8.60912 2.3454 5.68872 7.14813C2.76833 11.9509 1.1236 16.2837 2.01513 16.8258C2.90666 17.3679 5.99684 13.914 8.91724 9.1113Z" fill="#121212" stroke="#464646" stroke-width="1.9034" stroke-miterlimit="10" stroke-linecap="round" stroke-linejoin="round"/>
<path d="M30.9541 22.511L41.4619 28.9004" stroke="#464646" stroke-width="1.9034" stroke-miterlimit="10" stroke-linecap="round" stroke-linejoin="round"/>
<path d="M43.7827 30.3119C47.3338 24.4718 49.1734 19.1056 47.8915 18.3261C46.6096 17.5466 42.6916 21.649 39.1404 27.4891C35.5892 33.3292 33.7496 38.6954 35.0316 39.4749C36.3135 40.2544 40.2315 36.152 43.7827 30.3119Z" fill="#121212" stroke="#464646" stroke-width="1.9034" stroke-miterlimit="10" stroke-linecap="round" stroke-linejoin="round"/>
<path d="M23.9618 0.456482C23.9618 0.456482 20.9054 2.69804 19.1623 7.57699C18.5718 9.22967 18.1321 11.1851 18.0129 13.4584C17.4239 24.6889 8.60179 26.9508 8.60179 26.9508C6.44556 21.5654 13.2715 11.8732 19.1623 7.57699" fill="#121212"/>
<path d="M23.9618 0.456481C23.9618 0.456481 20.9054 2.69804 19.1623 7.57699M19.1623 7.57699C18.5718 9.22967 18.1321 11.1851 18.0129 13.4584C17.4239 24.6889 8.60179 26.9508 8.60179 26.9508C6.44556 21.5654 13.2715 11.8732 19.1623 7.57699Z" stroke="#464646" stroke-width="1.9034" stroke-miterlimit="10" stroke-linecap="round" stroke-linejoin="round"/>
<path d="M172.133 139.033C180.848 143.56 188.417 146.258 189.039 145.06C189.662 143.862 183.101 139.221 174.386 134.694C165.671 130.167 158.102 127.468 157.48 128.666C156.857 129.864 163.418 134.506 172.133 139.033Z" fill="#121212" stroke="#464646" stroke-width="1.9034" stroke-miterlimit="10" stroke-linecap="round" stroke-linejoin="round"/>
<path d="M188.94 145.248L172.124 154.111C170.479 154.978 168.594 155.278 166.761 154.965C165.025 154.669 163.425 153.838 162.184 152.588C160.874 151.268 160.036 149.553 159.799 147.709L157.38 128.854" fill="#121212"/>
<path d="M188.94 145.248L172.124 154.111C170.479 154.978 168.594 155.278 166.761 154.965C165.025 154.669 163.425 153.838 162.184 152.588C160.874 151.268 160.036 149.553 159.799 147.709L157.38 128.854" stroke="#464646" stroke-width="1.9034" stroke-miterlimit="10" stroke-linecap="round" stroke-linejoin="round"/>
<path d="M164.287 154.134L152.073 177.647" stroke="#464646" stroke-width="1.9034" stroke-miterlimit="10" stroke-linecap="round" stroke-linejoin="round"/>
<path d="M162.535 183.082C162.123 183.876 157.105 182.087 151.328 179.086C145.551 176.085 141.202 173.008 141.614 172.214C142.027 171.42 147.044 173.209 152.822 176.21C158.599 179.211 162.948 182.287 162.535 183.082Z" fill="#121212" stroke="#464646" stroke-width="1.9034" stroke-miterlimit="10" stroke-linecap="round" stroke-linejoin="round"/>
<path d="M158.36 136.508C160.554 136.184 165.167 138.023 169.595 143.929C174.392 150.327 180.436 149.715 182.115 148.847L182.114 148.849C180.448 146.125 172.888 140.82 166.875 140.797" fill="#121212"/>
<path d="M158.36 136.508C160.554 136.184 165.167 138.023 169.595 143.929C174.392 150.327 180.436 149.715 182.115 148.847L182.114 148.849C180.448 146.125 172.888 140.82 166.875 140.797" stroke="#464646" stroke-width="1.9034" stroke-miterlimit="10" stroke-linecap="round" stroke-linejoin="round"/>
<path d="M98.2397 83.3236C106.822 83.3236 113.779 82.0083 113.779 80.3857C113.779 78.7631 106.822 77.4478 98.2397 77.4478C89.6576 77.4478 82.7004 78.7631 82.7004 80.3857C82.7004 82.0083 89.6576 83.3236 98.2397 83.3236Z" fill="#121212" stroke="#464646" stroke-width="1.9034" stroke-miterlimit="10" stroke-linecap="round" stroke-linejoin="round"/>
<path d="M113.779 80.3857C113.938 81.2732 114.021 82.1867 114.021 83.1192C114.021 91.7187 106.956 98.6898 98.2396 98.6898C89.5236 98.6898 82.4578 91.7185 82.4578 83.1192C82.4578 82.1869 82.5409 81.2734 82.7003 80.3857" fill="#121212"/>
<path d="M113.779 80.3857C113.938 81.2732 114.021 82.1867 114.021 83.1192C114.021 91.7187 106.956 98.6898 98.2396 98.6898C89.5236 98.6898 82.4578 91.7185 82.4578 83.1192C82.4578 82.1869 82.5409 81.2734 82.7003 80.3857" stroke="#464646" stroke-width="1.9034" stroke-miterlimit="10" stroke-linecap="round" stroke-linejoin="round"/>
<path d="M98.2397 98.7466V118.009" stroke="#464646" stroke-width="1.9034" stroke-miterlimit="10" stroke-linecap="round" stroke-linejoin="round"/>
<path d="M98.2395 120.329C104.076 120.329 108.808 119.29 108.808 118.009C108.808 116.728 104.076 115.689 98.2395 115.689C92.4029 115.689 87.6714 116.728 87.6714 118.009C87.6714 119.29 92.4029 120.329 98.2395 120.329Z" fill="#121212" stroke="#464646" stroke-width="1.9034" stroke-miterlimit="10" stroke-linecap="round" stroke-linejoin="round"/>
<path d="M113.675 86.3603C113.675 86.3603 111.075 85.8807 101.539 89.002C87.9562 93.448 82.7004 85.8807 82.7004 85.8807C82.7004 85.8807 90.4735 83.1383 103.88 88.2643" fill="#121212"/>
<path d="M113.675 86.3603C113.675 86.3603 111.075 85.8807 101.539 89.002C87.9562 93.448 82.7004 85.8807 82.7004 85.8807C82.7004 85.8807 90.4735 83.1383 103.88 88.2643" stroke="#464646" stroke-width="1.9034" stroke-miterlimit="10" stroke-linecap="round" stroke-linejoin="round"/>
<path d="M32.6933 146.438C38.0118 147.863 42.5341 148.231 42.7943 147.26C43.0545 146.289 38.954 144.346 33.6355 142.921C28.3171 141.496 23.7947 141.128 23.5345 142.099C23.2743 143.07 27.3749 145.013 32.6933 146.438Z" fill="#121212" stroke="#464646" stroke-width="1.9034" stroke-miterlimit="10" stroke-linecap="round" stroke-linejoin="round"/>
<path d="M23.5342 142.099L18.5348 160.757C17.1097 166.076 20.2659 171.542 25.5844 172.967C30.9029 174.392 36.3695 171.236 37.7946 165.918L42.794 147.26" fill="#121212"/>
<path d="M23.5342 142.099L18.5348 160.757C17.1097 166.076 20.2659 171.542 25.5844 172.967C30.9029 174.392 36.3695 171.236 37.7946 165.918L42.794 147.26" stroke="#464646" stroke-width="1.9034" stroke-miterlimit="10" stroke-linecap="round" stroke-linejoin="round"/>
<path d="M36.2183 159.972C25.8314 152.925 19.7731 156.139 19.7731 156.139C19.7731 156.139 19.4552 158.807 28.3731 160.491C35.9492 161.921 39.9886 157.732 39.9886 157.732" fill="#121212"/>
<path d="M36.2183 159.972C25.8314 152.925 19.7731 156.139 19.7731 156.139C19.7731 156.139 19.4552 158.807 28.3731 160.491C35.9492 161.921 39.9886 157.732 39.9886 157.732" stroke="#464646" stroke-width="1.9034" stroke-miterlimit="10" stroke-linecap="round" stroke-linejoin="round"/>
<path d="M25.5845 172.968L19.9792 193.887" stroke="#464646" stroke-width="1.9034" stroke-miterlimit="10" stroke-linecap="round" stroke-linejoin="round"/>
<path d="M19.5083 195.645C24.8267 197.07 29.3491 197.438 29.6093 196.467C29.8695 195.496 25.7689 193.553 20.4505 192.128C15.132 190.703 10.6096 190.335 10.3495 191.306C10.0893 192.277 14.1898 194.22 19.5083 195.645Z" fill="#121212" stroke="#464646" stroke-width="1.9034" stroke-miterlimit="10" stroke-linecap="round" stroke-linejoin="round"/>
</g>
<mask id="mask1_2301_6091" style="mask-type:alpha" maskUnits="userSpaceOnUse" x="0" y="0" width="650" height="541">
<rect x="0.18042" y="0.310059" width="649.34" height="539.849" fill="#FFCC4C"/>
</mask>
<g mask="url(#mask1_2301_6091)">
<rect x="224.518" y="190.422" width="191.99" height="82.6879" rx="8.22222" transform="rotate(-9.19238 224.518 190.422)" fill="#121212"/>
<rect x="362.407" y="154.999" width="32.482" height="32.482" rx="4.93333" transform="rotate(-9.19238 362.407 154.999)" fill="#222222"/>
<mask id="mask2_2301_6091" style="mask-type:luminance" maskUnits="userSpaceOnUse" x="365" y="153" width="32" height="31">
<path fill-rule="evenodd" clip-rule="evenodd" d="M365.898 170.887C364.545 162.528 370.225 154.655 378.585 153.302C386.944 151.949 394.817 157.629 396.17 165.988C397.522 174.348 391.843 182.221 383.483 183.574C375.124 184.926 367.251 179.247 365.898 170.887Z" fill="white"/>
</mask>
<g mask="url(#mask2_2301_6091)">
<path fill-rule="evenodd" clip-rule="evenodd" d="M379.611 159.638C377.221 160.025 376.922 160.084 375.991 160.278C375.061 160.473 374.445 160.725 373.921 161.033C373.378 161.351 372.936 161.732 372.526 162.3C372.115 162.869 371.894 163.408 371.762 164.023C371.635 164.618 371.59 165.282 371.699 166.226C371.809 167.171 371.847 167.473 372.233 169.863C372.62 172.254 372.679 172.551 372.874 173.483C373.068 174.413 373.32 175.029 373.628 175.553C373.947 176.095 374.327 176.538 374.896 176.948C375.464 177.358 376.004 177.58 376.619 177.711C377.214 177.838 377.877 177.883 378.821 177.774C379.767 177.665 380.068 177.627 382.458 177.24C384.849 176.854 385.146 176.795 386.078 176.6C387.008 176.406 387.624 176.154 388.149 175.845C388.692 175.527 389.133 175.146 389.543 174.577C389.953 174.009 390.174 173.469 390.306 172.854C390.432 172.259 390.477 171.596 390.37 170.652C390.26 169.706 390.222 169.405 389.836 167.015C389.449 164.625 389.389 164.326 389.195 163.395C389 162.465 388.747 161.849 388.441 161.325C388.121 160.782 387.741 160.34 387.172 159.93C386.604 159.519 386.065 159.298 385.45 159.167C384.853 159.04 384.189 158.996 383.246 159.104C382.3 159.213 381.999 159.251 379.608 159.638L379.611 159.638ZM379.078 161.353C379.313 161.315 379.574 161.273 379.868 161.225C382.218 160.845 382.498 160.808 383.433 160.7C384.297 160.601 384.786 160.669 385.116 160.739C385.552 160.832 385.876 160.975 386.234 161.234C386.592 161.492 386.83 161.754 387.056 162.139C387.227 162.43 387.446 162.872 387.624 163.724C387.816 164.645 387.87 164.922 388.25 167.271C388.63 169.62 388.666 169.9 388.774 170.835C388.874 171.699 388.806 172.188 388.736 172.517C388.642 172.954 388.499 173.277 388.241 173.635C387.982 173.993 387.721 174.231 387.336 174.457C387.045 174.628 386.602 174.846 385.751 175.025C384.83 175.217 384.552 175.271 382.203 175.651C379.852 176.032 379.572 176.068 378.638 176.176C377.773 176.275 377.284 176.207 376.954 176.137C376.518 176.044 376.194 175.9 375.836 175.642C375.478 175.384 375.24 175.122 375.013 174.737C374.843 174.447 374.624 174.004 374.446 173.153C374.254 172.232 374.2 171.954 373.82 169.604C373.439 167.254 373.403 166.975 373.295 166.04C373.195 165.176 373.263 164.687 373.334 164.357C373.427 163.921 373.57 163.596 373.828 163.239C374.087 162.881 374.349 162.642 374.734 162.416C375.025 162.245 375.467 162.026 376.319 161.848C377.125 161.68 377.438 161.618 379.078 161.351L379.078 161.353ZM384.802 161.926C384.219 162.021 383.823 162.57 383.917 163.153C384.012 163.736 384.561 164.132 385.144 164.038C385.727 163.944 386.124 163.394 386.029 162.811C385.935 162.228 385.385 161.831 384.802 161.926L384.802 161.926ZM380.304 163.919C377.808 164.323 376.112 166.674 376.516 169.17C376.92 171.666 379.271 173.361 381.767 172.957C384.263 172.553 385.958 170.203 385.555 167.707C385.151 165.211 382.8 163.515 380.304 163.919L380.304 163.919ZM380.561 165.506C382.181 165.244 383.707 166.344 383.969 167.965C384.231 169.585 383.13 171.111 381.51 171.373C379.89 171.636 378.364 170.534 378.102 168.914C377.84 167.294 378.94 165.768 380.561 165.506Z" fill="white"/>
</g>
<rect x="238.485" y="225.879" width="170.2" height="5.75555" rx="2.87778" transform="rotate(-9.19238 238.485 225.879)" fill="#1E1E1E"/>
<rect x="240.285" y="237" width="170.2" height="5.75555" rx="2.87778" transform="rotate(-9.19238 240.285 237)" fill="#1E1E1E"/>
<rect x="242.032" y="247.794" width="87.1555" height="5.75555" rx="2.87778" transform="rotate(-9.19238 242.032 247.794)" fill="#1E1E1E"/>
<rect x="235.333" y="206.399" width="97.8444" height="9.04444" rx="4.52222" transform="rotate(-9.19238 235.333 206.399)" fill="#FFCF35"/>
<path d="M218.669 300.483C218.669 300.483 182.523 297.397 177.276 328.344C172.033 359.29 199.049 377.672 207.587 364.115C216.129 350.559 218.669 300.483 218.669 300.483Z" fill="#202020"/>
<path d="M335.461 313.734C335.461 313.734 344.057 282.602 342.652 262.364C341.247 242.127 336.197 235.576 333.169 235.365C330.141 235.154 328.192 248.015 328.192 248.015C328.192 248.015 326.346 229.034 319.699 228.694C313.047 228.347 312.816 245.192 312.816 245.192C312.816 245.192 308.704 231.913 303.693 234.961C298.683 238.008 299.735 275.945 299.735 275.945C299.735 275.945 291.546 265.294 287.639 267.602C283.733 269.906 287.737 284.783 291.754 292.668C295.775 300.558 303.892 306.395 303.892 306.395L335.461 313.734Z" fill="#FEC29E"/>
<path d="M332.563 268.87C332.579 268.783 332.585 268.699 332.581 268.608C332.543 268.025 332.039 267.581 331.451 267.619L301.715 269.552C301.126 269.594 300.7 270.112 300.725 270.683C300.763 271.266 301.268 271.71 301.856 271.673L331.592 269.739C332.085 269.699 332.478 269.336 332.563 268.87Z" fill="#1E1C1C"/>
<path d="M315.934 297.923C316.173 296.62 318.035 283.688 300.197 274.99C299.672 274.734 299.036 274.953 298.779 275.477C298.5 276.012 298.741 276.637 299.265 276.894C316.364 285.229 313.977 297.063 313.847 297.555C313.737 298.151 314.088 298.696 314.646 298.824C315.213 298.954 315.78 298.597 315.914 298.03C315.914 298.03 315.922 297.987 315.934 297.923Z" fill="#1E1C1C"/>
<path d="M349.022 300.625C349.022 300.625 376.874 366.6 354.974 408.924C333.075 451.253 251.95 448.884 251.95 448.884L240.646 384.171C240.646 384.171 277.492 383.899 291.184 362.455C301.448 346.379 294.341 305.542 294.341 305.542L349.022 300.625Z" fill="white"/>
<path d="M300.424 373.373C299.916 373.401 299.415 373.275 298.925 373C295.168 370.897 292.679 358.964 292.211 356.59C292.121 356.125 292.338 355.658 292.746 355.433C293.158 355.197 293.657 355.264 294.015 355.575C295.109 356.569 304.677 365.44 303.725 370.42C303.552 371.32 302.975 372.529 301.201 373.196C300.95 373.299 300.686 373.358 300.424 373.373ZM295.145 359.728C296.345 364.54 298.221 370.115 299.993 371.106C300.217 371.232 300.345 371.205 300.437 371.17C301.328 370.829 301.526 370.383 301.59 370.018C302.02 367.768 298.505 363.233 295.145 359.728Z" fill="#161616"/>
<path d="M182.412 395.592C182.412 395.592 167.953 398.32 159.23 403.763C150.502 409.207 140.59 440.524 140.59 440.524L185.446 490.542L225.605 467.39L182.412 395.592Z" fill="white"/>
<path d="M242.853 695.299C248.258 695.263 253.831 695.128 259.666 694.896C268.363 694.46 276.593 693.437 284.23 691.972C304.818 688.09 321.656 681.056 334.027 674.486C328.033 606.22 303.125 543.58 288.598 511.889C283.245 500.237 279.299 492.733 278.183 490.702C277.988 490.321 277.89 490.149 277.89 490.149L253.801 496.93L249.509 498.127L249.298 503.808L248.85 517.833L242.853 695.299Z" fill="#171717"/>
<path d="M171.149 602.245C180.732 661.14 187.793 681.35 187.793 681.35C187.793 681.35 186.795 684.764 185.124 690.62C198.907 693.04 218.521 695.366 242.867 695.289C248.243 695.274 253.846 695.148 259.669 694.876C268.359 694.476 276.572 693.429 284.244 691.966C286.752 681.207 288.283 673.805 288.689 671.844C295.865 637.476 260.238 513.356 260.238 513.356L253.785 496.926L186.404 508.011C186.404 508.011 161.565 543.324 171.149 602.245Z" fill="#1C1C1C"/>
<path d="M203.348 363.582L205.523 387.039C205.523 387.039 210.38 393.391 224.204 393.231C234.502 393.113 237.878 390.468 237.878 390.468L235.35 378.719L232.872 367.265L207.587 364.114L203.348 363.582Z" fill="#FEC29E"/>
<path d="M203.286 362.461C203.405 363.097 203.717 363.827 204.179 364.663C210.513 375.894 229.4 378.745 235.355 378.723L232.877 367.269L203.286 362.461Z" fill="#1E1C1C"/>
<path d="M233.144 313.314C233.144 313.314 248.18 341.583 244.842 358.369C241.504 375.161 226.332 373.728 217.126 371.243C207.921 368.758 203.342 363.584 203.342 363.584C203.342 363.584 195.193 367.066 188.994 359.715C182.796 352.365 185.553 343.159 190.174 340.747C194.794 338.33 200.744 341.341 200.744 341.341L195.633 333.184C195.633 333.184 211.043 288.537 233.144 313.314Z" fill="#FEC29E"/>
<path d="M238.138 324.995C237.995 324.993 232.212 324.461 232.212 324.461C231.67 324.412 231.262 323.93 231.317 323.387C231.366 322.845 231.851 322.398 232.395 322.492L238.178 323.024C238.72 323.073 239.122 323.555 239.074 324.102C239.026 324.594 238.622 324.968 238.138 324.995Z" fill="#1E1C1C"/>
<path d="M216.884 328.65C216.46 328.673 216.041 328.444 215.846 328.035C215.583 327.495 215.81 326.844 216.349 326.582L222.854 323.423C223.378 323.161 224.044 323.382 224.306 323.926C224.568 324.466 224.342 325.117 223.802 325.379L217.298 328.538C217.169 328.61 217.027 328.642 216.884 328.65Z" fill="#1E1C1C"/>
<path d="M235.431 346.152C235.283 346.16 235.124 346.134 234.977 346.073C234.416 345.857 234.138 345.224 234.36 344.668C236.865 338.247 230.695 334.823 230.43 334.679C229.899 334.392 229.705 333.734 229.992 333.204C230.275 332.674 230.936 332.474 231.461 332.757C234.29 334.268 238.957 338.863 236.387 345.451C236.227 345.876 235.846 346.129 235.431 346.152Z" fill="#1E1C1C"/>
<path d="M201.455 353.413C201.307 353.421 201.148 353.395 201.001 353.339L188.888 348.625C188.327 348.409 188.049 347.776 188.271 347.22C188.482 346.659 189.125 346.381 189.677 346.603L201.79 351.317C202.351 351.533 202.628 352.166 202.407 352.722C202.252 353.137 201.87 353.39 201.455 353.413Z" fill="#1E1C1C"/>
<path d="M191.081 356.725C190.799 356.741 190.517 356.643 190.288 356.443C189.845 356.037 189.812 355.346 190.213 354.898L195.137 349.467C195.543 349.029 196.224 348.996 196.681 349.392C197.124 349.797 197.158 350.488 196.757 350.936L191.833 356.367C191.627 356.591 191.357 356.71 191.081 356.725Z" fill="#1E1C1C"/>
<path d="M242.896 337.81C242.896 337.81 240.017 329.024 230.182 319.792C220.347 310.564 220.348 310.564 220.348 310.564C220.348 310.564 222.406 328.948 214.594 337.363C206.782 345.779 200.745 341.353 200.745 341.353L184.168 328.377L218.669 300.49C218.669 300.49 242.217 297.984 242.896 337.81Z" fill="#202020"/>
<path d="M235.416 384.774L256.806 386.542C256.806 386.542 283.96 408.759 280.909 431.556C278.871 446.786 277.968 450.423 277.968 450.423L285.551 498.451C285.551 498.451 267.763 514.977 236.188 520.039C204.613 525.096 177.178 517.141 177.178 517.141C177.178 517.141 175.646 403.606 175.114 393.969C174.765 387.468 235.416 384.774 235.416 384.774Z" fill="white"/>
<path d="M236.34 383.313L245.59 385.617C245.59 385.617 249.594 402.86 228.805 405.08C206.988 407.412 188.565 389.022 188.565 389.022L207.502 384.904L236.34 383.313Z" fill="#FEC29E"/>
<path d="M226.994 406.322C203.973 407.548 188.403 390.479 187.754 389.753C187.353 389.305 187.39 388.62 187.837 388.215C188.281 387.824 188.969 387.841 189.376 388.298C189.528 388.468 204.923 405.314 226.799 404.146C233.926 403.753 238.979 401.629 241.905 397.821C245.897 392.619 244.538 385.912 244.524 385.843C244.402 385.256 244.776 384.677 245.363 384.55C245.978 384.402 246.524 384.803 246.656 385.389C246.722 385.702 248.244 393.108 243.649 399.125C240.322 403.474 234.722 405.895 226.994 406.322Z" fill="#161616"/>
<path d="M278.936 447.873C278.773 447.882 278.608 447.852 278.446 447.787C277.899 447.55 277.636 446.911 277.873 446.359C286.564 425.918 265.89 399.37 265.677 399.105C265.31 398.63 265.386 397.948 265.86 397.576C266.339 397.203 267.021 397.284 267.388 397.754C268.282 398.877 289.078 425.571 279.874 447.213C279.708 447.603 279.335 447.851 278.936 447.873Z" fill="#161616"/>
<path d="M211.435 481.896C211.435 481.896 251.162 471.536 261.475 475.014C271.784 478.491 265.552 512.223 262.858 518.442C260.169 524.661 218.218 517.858 218.218 517.858L205.258 501.387L211.435 481.896Z" fill="#FEC29E"/>
<path d="M261.477 475.019C261.477 475.019 286.786 490.239 288.292 500.5C289.798 510.762 258.611 490.854 258.611 490.854L261.477 475.019Z" fill="#FEC29E"/>
<path d="M247.867 517.779C247.867 517.779 227.499 523.603 234.375 528.868C241.25 534.134 261.186 523.807 262.859 518.451C264.532 513.095 249.172 507.363 249.172 507.363L247.867 517.779Z" fill="#FEC29E"/>
<path d="M185.665 389.548C185.665 389.548 101.75 409.5 102.961 473.196C103.873 521.276 217.931 529.674 217.931 529.674L220.525 476.102L149.097 431.776L185.665 389.548Z" fill="white"/>
<path d="M216.071 471.78C215.923 471.788 215.773 471.761 215.621 471.705C215.197 471.546 173.09 455.541 156.331 456.466C155.714 456.5 155.199 456.038 155.166 455.437C155.132 454.83 155.633 454.318 156.21 454.286C173.428 453.335 214.651 469.003 216.4 469.669C216.961 469.885 217.243 470.513 217.026 471.074C216.871 471.493 216.485 471.757 216.071 471.78Z" fill="#161616"/>
<path d="M184.62 461.409C184.408 461.421 184.192 461.368 184.003 461.255C178.718 458.104 166.498 450.378 167.148 446.741C167.265 446.081 167.738 445.234 169.325 444.939C176.685 443.583 184.643 458.148 185.521 459.816C185.748 460.249 185.663 460.778 185.306 461.114C185.118 461.293 184.871 461.395 184.62 461.409ZM170.157 447.03C170.014 447.038 169.867 447.056 169.725 447.083C169.343 447.154 169.229 447.244 169.229 447.244C169.275 448.429 174.526 452.676 181.377 457.071C178.446 452.538 173.861 446.825 170.157 447.03Z" fill="#161616"/>
<path d="M246.043 521.295L239.602 521.65C239.208 521.672 238.831 521.475 238.619 521.136C238.408 520.801 238.399 520.376 238.597 520.024L241.536 514.826C241.828 514.305 242.496 514.12 243.022 514.417C243.548 514.71 243.728 515.377 243.431 515.903L241.47 519.371L245.919 519.125C246.52 519.092 247.036 519.553 247.069 520.155C247.102 520.747 246.645 521.262 246.043 521.295Z" fill="#1E1C1C"/>
<path d="M267.539 495.591C267.243 495.608 266.94 495.501 266.71 495.276C263.983 492.562 259.055 488.075 257.451 487.604C256.878 487.433 256.547 486.828 256.713 486.25C256.885 485.676 257.484 485.342 258.068 485.512C260.673 486.279 267.007 492.499 268.247 493.732C268.672 494.158 268.674 494.841 268.248 495.275C268.056 495.469 267.8 495.577 267.539 495.591Z" fill="#1E1C1C"/>
<path d="M265.849 507.533C265.587 507.547 265.32 507.463 265.103 507.287L252.609 497.118C252.143 496.738 252.07 496.049 252.45 495.583C252.835 495.117 253.524 495.049 253.985 495.424L266.479 505.593C266.945 505.973 267.018 506.662 266.638 507.128C266.429 507.382 266.14 507.517 265.849 507.533Z" fill="#1E1C1C"/>
<path d="M224.434 339.246C223.966 339.272 223.515 338.99 223.351 338.529L221.914 334.542C221.844 334.358 221.828 334.161 221.867 333.971L222.591 330.136C222.697 329.547 223.278 329.139 223.864 329.27C224.454 329.381 224.841 329.948 224.731 330.543L224.065 334.082L225.403 337.793C225.607 338.36 225.315 338.98 224.753 339.189C224.641 339.22 224.533 339.241 224.434 339.246Z" fill="#1E1C1C"/>
<path d="M238.769 336.442C238.301 336.468 237.85 336.191 237.686 335.725L236.249 331.743C236.179 331.559 236.164 331.362 236.203 331.172L236.926 327.332C237.032 326.743 237.613 326.335 238.199 326.466C238.789 326.577 239.176 327.144 239.066 327.739L238.4 331.283L239.733 334.989C239.937 335.556 239.645 336.176 239.082 336.38C238.976 336.416 238.873 336.436 238.769 336.442Z" fill="#1E1C1C"/>
<path d="M228.884 359.637C228.657 359.649 228.424 359.632 228.183 359.576C225.762 359.008 223.971 353.709 223.481 352.099C223.355 351.7 223.475 351.273 223.776 350.984C224.076 350.695 224.518 350.622 224.901 350.759L232.615 353.653C232.893 353.756 233.117 353.966 233.231 354.242C233.35 354.517 233.352 354.819 233.234 355.093C232.916 355.877 231.271 359.505 228.884 359.637ZM226.33 353.614C227.167 355.685 228.138 357.328 228.689 357.456C229.119 357.63 230.025 356.561 230.745 355.27L226.33 353.614Z" fill="#1E1C1C"/>
<path d="M180.014 352.169C179.561 352.194 179.12 351.926 178.943 351.486C172.26 334.639 179.305 318.429 179.608 317.745C179.855 317.197 180.5 316.948 181.047 317.19C181.595 317.437 181.843 318.076 181.602 318.629C181.526 318.787 174.628 334.706 180.971 350.676C181.195 351.238 180.923 351.866 180.361 352.09C180.245 352.136 180.128 352.163 180.014 352.169Z" fill="#272726"/>
<path d="M175.596 332.074C171.784 332.284 155.911 332.685 153.811 324.93C153.332 323.161 153.96 322.172 154.575 321.658C157.242 319.433 165.846 322.307 172.102 324.876C165.285 317.97 153.99 304.87 159.198 298.483C160.505 296.887 161.95 296.728 162.92 296.907C169.915 298.064 178.505 320.604 179.458 323.169C179.667 323.731 179.385 324.355 178.818 324.564C178.251 324.774 177.627 324.492 177.422 323.924C173.979 314.69 166.902 299.764 162.563 299.049C162.153 298.973 161.576 299.005 160.887 299.859C156.179 305.63 171.655 321.803 178.008 327.543C178.409 327.907 178.486 328.506 178.184 328.953C177.883 329.41 177.298 329.561 176.816 329.34C168.196 325.279 157.75 321.814 155.974 323.337C155.784 323.491 155.764 323.843 155.912 324.369C157.465 330.091 171.084 330.354 176.216 329.858C176.906 329.716 177.341 330.261 177.394 330.857C177.442 331.457 176.991 331.982 176.395 332.035C176.306 332.03 176.03 332.05 175.596 332.074Z" fill="#272726"/>
<path d="M316.795 587.86C316.278 587.825 307.54 586.986 301.245 577.543C295.9 569.522 301.074 556.33 303.081 551.905C299.762 551.559 292.432 550.148 289.721 544.331C285.409 535.12 294.246 526.811 294.622 526.459C295.064 526.049 295.748 526.075 296.159 526.518C296.564 526.96 296.543 527.644 296.1 528.054C296.015 528.128 288.059 535.637 291.689 543.406C294.594 549.618 304.663 549.829 304.762 549.833C305.138 549.837 305.491 550.04 305.682 550.361C305.878 550.682 305.89 551.082 305.72 551.418C305.64 551.581 297.406 567.851 303.053 576.325C308.748 584.856 316.748 585.671 316.833 585.682C317.429 585.738 317.874 586.262 317.823 586.859C317.769 587.411 317.332 587.831 316.795 587.86Z" fill="#353535"/>
<path d="M289.159 676.319C288.398 676.257 287.958 675.722 288.014 675.126C292.33 630.062 264.08 533.397 263.794 532.428C263.672 532.009 263.81 531.556 264.146 531.276L278.651 519.27C279.105 518.898 279.791 518.945 280.188 519.417C280.57 519.881 280.503 520.563 280.04 520.954L266.083 532.499C268.634 541.333 294.344 631.88 290.178 675.338C290.129 675.88 289.687 676.29 289.159 676.319Z" fill="#353535"/>
<path d="M200.541 371.446C204.414 371.232 207.381 367.919 207.167 364.045C206.954 360.172 203.64 357.205 199.767 357.419C195.894 357.633 192.927 360.946 193.14 364.819C193.354 368.693 196.668 371.659 200.541 371.446Z" fill="#FFBE1D"/>
<rect x="100.79" y="538.724" width="443.633" height="19.5583" fill="#373737"/>
</g>
<rect x="408.76" y="357.584" width="144.588" height="65.9857" rx="8.22222" transform="rotate(-12.0279 408.76 357.584)" fill="#121212" fill-opacity="0.63"/>
<rect x="422.71" y="384.945" width="128.727" height="4.35308" rx="2.17654" transform="rotate(-12.0279 422.71 384.945)" fill="#1E1E1E" fill-opacity="0.69"/>
<rect x="424.485" y="393.278" width="128.727" height="4.35308" rx="2.17654" transform="rotate(-12.0279 424.485 393.278)" fill="#1E1E1E" fill-opacity="0.69"/>
<rect x="426.209" y="401.367" width="65.9181" height="4.35308" rx="2.17654" transform="rotate(-12.0279 426.209 401.367)" fill="#1E1E1E" fill-opacity="0.69"/>
<rect x="419.805" y="371.419" width="66.857" height="5.25906" rx="2.62953" transform="rotate(-12.0279 419.805 371.419)" fill="#FFCF35"/>
<rect x="511.651" y="324.298" width="25.0681" height="25.0681" rx="4.21694" transform="rotate(-12.0279 511.651 324.298)" fill="#222222"/>
<path d="M524.511 334.481L528.066 333.724" stroke="white" stroke-width="0.778875" stroke-miterlimit="10" stroke-linecap="round" stroke-linejoin="round"/>
<path d="M524.944 336.512L527.169 336.039" stroke="white" stroke-width="0.778875" stroke-miterlimit="10" stroke-linecap="round" stroke-linejoin="round"/>
<path d="M524.856 331.116L526.888 330.683C527.903 330.467 527.795 329.959 527.687 329.451C527.471 328.435 526.963 328.543 526.455 328.652L524.423 329.084C523.916 329.193 523.408 329.301 523.624 330.316C523.841 331.332 524.348 331.224 524.856 331.116Z" stroke="white" stroke-width="0.778875" stroke-miterlimit="10" stroke-linecap="round" stroke-linejoin="round"/>
<path d="M527.689 329.461C529.4 329.192 530.381 329.636 530.875 331.957L531.525 335.004C531.957 337.036 531.666 338.16 529.127 338.701L526.08 339.35C523.54 339.891 522.816 338.983 522.383 336.952L521.734 333.905C521.241 331.589 521.955 330.779 523.626 330.327" stroke="white" stroke-width="0.778875" stroke-miterlimit="10" stroke-linecap="round" stroke-linejoin="round"/>
<rect x="358.907" y="258.298" width="144.588" height="64.3862" rx="8.22222" transform="rotate(4.22474 358.907 258.298)" fill="#121212"/>
<rect x="464.871" y="254.053" width="25.6581" height="25.6581" rx="4.31619" transform="rotate(4.22474 464.871 254.053)" fill="#222222"/>
<path fill-rule="evenodd" clip-rule="evenodd" d="M476.592 265.305L476.586 265.763L476.129 265.673C474.467 265.335 473.055 264.501 471.901 263.19L471.337 262.54L471.148 262.975C470.742 263.946 470.877 265.013 471.516 265.772C471.856 266.19 471.769 266.239 471.15 265.96C470.934 265.869 470.745 265.799 470.724 265.825C470.655 265.886 470.813 266.749 470.964 267.097C471.169 267.58 471.624 268.072 472.139 268.381L472.574 268.629L472.039 268.599C471.523 268.56 471.504 268.568 471.545 268.768C471.684 269.386 472.365 270.082 473.156 270.421L473.713 270.659L473.193 270.92C472.424 271.294 471.54 271.471 470.672 271.426C470.256 271.405 469.913 271.417 469.91 271.445C469.904 271.538 470.99 272.142 471.629 272.395C473.548 273.145 475.899 273.057 477.726 272.153C479.025 271.51 480.377 270.141 481.062 268.769C481.432 268.039 481.847 266.685 481.895 266.024C481.927 265.596 481.959 265.542 482.513 265.068C482.839 264.793 483.149 264.488 483.211 264.399C483.316 264.229 483.307 264.229 482.825 264.352C482.021 264.574 481.913 264.528 482.331 264.138C482.639 263.861 483.02 263.347 483.032 263.189C483.034 263.161 482.892 263.197 482.729 263.269C482.556 263.35 482.177 263.462 481.895 263.526L481.385 263.647L480.956 263.307C480.72 263.121 480.383 262.909 480.203 262.839C479.743 262.674 479.022 262.64 478.587 262.757C477.404 263.091 476.596 264.117 476.592 265.305Z" fill="white"/>
<rect x="364.372" y="287.648" width="128.727" height="4.35308" rx="2.17654" transform="rotate(4.22474 364.372 287.648)" fill="#1E1E1E"/>
<rect x="363.744" y="296.145" width="128.727" height="4.35308" rx="2.17654" transform="rotate(4.22474 363.744 296.145)" fill="#1E1E1E"/>
<rect x="363.135" y="304.393" width="65.9181" height="4.35308" rx="2.17654" transform="rotate(4.22474 363.135 304.393)" fill="#1E1E1E"/>
<rect x="365.417" y="273.192" width="69.0667" height="6.57778" rx="3.28889" transform="rotate(4.22474 365.417 273.192)" fill="#FFCF35"/>
</svg>
