<svg width="410" height="450" viewBox="0 0 410 450" fill="none" xmlns="http://www.w3.org/2000/svg">
<mask id="mask0_2294_3672" style="mask-type:alpha" maskUnits="userSpaceOnUse" x="0" y="0" width="410" height="450">
<rect x="0.908936" width="408.942" height="449.03" rx="11" fill="#030303"/>
</mask>
<g mask="url(#mask0_2294_3672)">
<g opacity="0.5">
<rect x="-13.0878" y="33.3863" width="49.2902" height="65.9322" rx="24.6451" transform="rotate(17.6719 -13.0878 33.3863)" fill="#121212" stroke="#030303" stroke-width="4.55497"/>
<rect x="40.1966" y="-12.4847" width="49.2902" height="67.0216" rx="24.6451" transform="rotate(114.683 40.1966 -12.4847)" fill="#121212" stroke="#030303" stroke-width="4.55497"/>
<rect x="73.0345" y="23.134" width="54.7364" height="54.7368" rx="27.3682" transform="rotate(114.683 73.0345 23.134)" fill="#121212" stroke="#030303" stroke-width="4.55497"/>
<rect x="102.817" y="56.2819" width="49.0597" height="49.06" rx="8.42208" transform="rotate(118.746 102.817 56.2819)" fill="#121212" stroke="#030303" stroke-width="4.55497"/>
<path d="M-6.70473 -13.8728C-6.70473 -13.8728 10.2098 -14.9159 2.60902 -2.16768C-5.21225 10.4464 -12.0689 -5.05117 -12.0689 -5.05117" fill="#121212"/>
<path d="M-6.70473 -13.8728C-6.70473 -13.8728 10.2098 -14.9159 2.60902 -2.16768C-5.21225 10.4464 -12.0689 -5.05117 -12.0689 -5.05117" stroke="#464646" stroke-width="1.36649" stroke-miterlimit="10" stroke-linecap="round" stroke-linejoin="round"/>
<path d="M2.60986 -2.16748L7.93959 1.07337" stroke="#464646" stroke-width="1.36649" stroke-miterlimit="10" stroke-linecap="round" stroke-linejoin="round"/>
<path d="M9.11651 1.78897C10.9177 -1.17322 11.8508 -3.89506 11.2006 -4.29043C10.5504 -4.68581 8.5631 -2.60499 6.76188 0.357191C4.96066 3.31938 4.02759 6.04122 4.6778 6.43659C5.32802 6.83197 7.31529 4.75116 9.11651 1.78897Z" fill="#121212" stroke="#464646" stroke-width="1.36649" stroke-miterlimit="10" stroke-linecap="round" stroke-linejoin="round"/>
<path d="M-0.937107 -13.354C-0.937107 -13.354 -2.48737 -12.217 -3.3715 -9.74236C-3.67105 -8.90409 -3.89404 -7.91226 -3.95453 -6.75918C-4.25327 -1.0629 -8.72799 0.0843595 -8.72799 0.0843595C-9.82167 -2.64717 -6.35942 -7.56327 -3.3715 -9.74236" fill="#121212"/>
<path d="M-0.937107 -13.354C-0.937107 -13.354 -2.48737 -12.217 -3.3715 -9.74236M-3.3715 -9.74236C-3.67105 -8.90409 -3.89404 -7.91226 -3.95453 -6.75918C-4.25327 -1.0629 -8.72799 0.0843596 -8.72799 0.0843596C-9.82167 -2.64717 -6.35942 -7.56327 -3.3715 -9.74236Z" stroke="#464646" stroke-width="1.36649" stroke-miterlimit="10" stroke-linecap="round" stroke-linejoin="round"/>
<path d="M74.2177 56.9343C78.6381 59.2305 82.4774 60.5993 82.793 59.9917C83.1087 59.384 79.7811 57.03 75.3607 54.7338C70.9404 52.4376 67.1011 51.0688 66.7854 51.6764C66.4698 52.2841 69.7973 54.6381 74.2177 56.9343Z" fill="#121212" stroke="#464646" stroke-width="1.36649" stroke-miterlimit="10" stroke-linecap="round" stroke-linejoin="round"/>
<path d="M82.743 60.0872L74.2134 64.5824C73.3791 65.0221 72.4229 65.1744 71.4933 65.0157C70.6127 64.8654 69.8012 64.4438 69.1719 63.8098C68.5075 63.1405 68.0823 62.2706 67.9623 61.3352L66.7354 51.772" fill="#121212"/>
<path d="M82.743 60.0872L74.2134 64.5824C73.3791 65.0221 72.4229 65.1744 71.4933 65.0157C70.6127 64.8654 69.8012 64.4438 69.1719 63.8098C68.5075 63.1405 68.0823 62.2706 67.9623 61.3352L66.7354 51.772" stroke="#464646" stroke-width="1.36649" stroke-miterlimit="10" stroke-linecap="round" stroke-linejoin="round"/>
<path d="M70.238 64.5942L64.0429 76.5204" stroke="#464646" stroke-width="1.36649" stroke-miterlimit="10" stroke-linecap="round" stroke-linejoin="round"/>
<path d="M69.3502 79.277C69.1409 79.6799 66.5959 78.7724 63.6657 77.2503C60.7354 75.7281 58.5296 74.1677 58.7388 73.7649C58.9481 73.3621 61.4931 74.2696 64.4233 75.7917C67.3535 77.3138 69.5594 78.8742 69.3502 79.277Z" fill="#121212" stroke="#464646" stroke-width="1.36649" stroke-miterlimit="10" stroke-linecap="round" stroke-linejoin="round"/>
<path d="M67.2324 55.654C68.3451 55.4897 70.6848 56.4226 72.9307 59.418C75.3639 62.6634 78.4298 62.3526 79.2811 61.9127L79.2807 61.9135C78.4356 60.5318 74.6012 57.8412 71.551 57.8294" fill="#121212"/>
<path d="M67.2324 55.654C68.3451 55.4897 70.6848 56.4226 72.9307 59.418C75.3639 62.6634 78.4298 62.3526 79.2811 61.9127L79.2807 61.9135C78.4356 60.5318 74.6012 57.8412 71.551 57.8294" stroke="#464646" stroke-width="1.36649" stroke-miterlimit="10" stroke-linecap="round" stroke-linejoin="round"/>
<path d="M36.7378 28.6781C41.0908 28.6781 44.6196 28.0109 44.6196 27.1879C44.6196 26.3649 41.0908 25.6978 36.7378 25.6978C32.3848 25.6978 28.856 26.3649 28.856 27.1879C28.856 28.0109 32.3848 28.6781 36.7378 28.6781Z" fill="#121212" stroke="#464646" stroke-width="1.36649" stroke-miterlimit="10" stroke-linecap="round" stroke-linejoin="round"/>
<path d="M44.6198 27.188C44.7006 27.6381 44.7428 28.1014 44.7428 28.5745C44.7428 32.9362 41.1589 36.4721 36.738 36.4721C32.3171 36.4721 28.7332 32.9361 28.7332 28.5745C28.7332 28.1015 28.7753 27.6382 28.8562 27.188" fill="#121212"/>
<path d="M44.6198 27.188C44.7006 27.6381 44.7428 28.1014 44.7428 28.5745C44.7428 32.9362 41.1589 36.4721 36.738 36.4721C32.3171 36.4721 28.7332 32.9361 28.7332 28.5745C28.7332 28.1015 28.7753 27.6382 28.8562 27.188" stroke="#464646" stroke-width="1.36649" stroke-miterlimit="10" stroke-linecap="round" stroke-linejoin="round"/>
<path d="M36.7378 36.501V46.2712" stroke="#464646" stroke-width="1.36649" stroke-miterlimit="10" stroke-linecap="round" stroke-linejoin="round"/>
<path d="M36.7385 47.4479C39.6989 47.4479 42.0988 46.9212 42.0988 46.2713C42.0988 45.6215 39.6989 45.0947 36.7385 45.0947C33.7781 45.0947 31.3782 45.6215 31.3782 46.2713C31.3782 46.9212 33.7781 47.4479 36.7385 47.4479Z" fill="#121212" stroke="#464646" stroke-width="1.36649" stroke-miterlimit="10" stroke-linecap="round" stroke-linejoin="round"/>
<path d="M44.5667 30.2184C44.5667 30.2184 43.2478 29.9752 38.4112 31.5584C31.5218 33.8134 28.856 29.9752 28.856 29.9752C28.856 29.9752 32.7986 28.5842 39.5987 31.1842" fill="#121212"/>
<path d="M44.5667 30.2184C44.5667 30.2184 43.2478 29.9752 38.4112 31.5584C31.5218 33.8134 28.856 29.9752 28.856 29.9752C28.856 29.9752 32.7986 28.5842 39.5987 31.1842" stroke="#464646" stroke-width="1.36649" stroke-miterlimit="10" stroke-linecap="round" stroke-linejoin="round"/>
<path d="M3.49127 60.6905C6.18889 61.4133 8.48271 61.6 8.61468 61.1075C8.74665 60.615 6.66679 59.6298 3.96918 58.9069C1.27156 58.1841 -1.02227 57.9974 -1.15424 58.4899C-1.2862 58.9824 0.793661 59.9677 3.49127 60.6905Z" fill="#121212" stroke="#464646" stroke-width="1.36649" stroke-miterlimit="10" stroke-linecap="round" stroke-linejoin="round"/>
<path d="M-1.15454 58.4902L-3.69031 67.9539C-4.41314 70.6515 -2.81227 73.4243 -0.114641 74.1471C2.58299 74.8699 5.35578 73.2691 6.0786 70.5714L8.61438 61.1078" fill="#121212"/>
<path d="M-1.15454 58.4902L-3.69031 67.9539C-4.41314 70.6515 -2.81227 73.4243 -0.114641 74.1471C2.58299 74.8699 5.35578 73.2691 6.0786 70.5714L8.61438 61.1078" stroke="#464646" stroke-width="1.36649" stroke-miterlimit="10" stroke-linecap="round" stroke-linejoin="round"/>
<path d="M5.27955 67.5554C0.011136 63.9814 -3.06177 65.6113 -3.06177 65.6113C-3.06177 65.6113 -3.22302 66.9646 1.30034 67.8186C5.14303 68.5442 7.19189 66.4193 7.19189 66.4193" fill="#121212"/>
<path d="M5.27955 67.5554C0.0111361 63.9814 -3.06177 65.6113 -3.06177 65.6113C-3.06177 65.6113 -3.22302 66.9646 1.30034 67.8186C5.14303 68.5442 7.19189 66.4193 7.19189 66.4193" stroke="#464646" stroke-width="1.36649" stroke-miterlimit="10" stroke-linecap="round" stroke-linejoin="round"/>
<path d="M-3.19623 85.6495C-0.498614 86.3723 1.79521 86.559 1.92718 86.0665C2.05915 85.574 -0.020712 84.5887 -2.71832 83.8659C-5.41594 83.1431 -7.70976 82.9564 -7.84173 83.4489C-7.9737 83.9414 -5.89384 84.9266 -3.19623 85.6495Z" fill="#121212" stroke="#464646" stroke-width="1.36649" stroke-miterlimit="10" stroke-linecap="round" stroke-linejoin="round"/>
<rect x="361.027" y="104.161" width="49.8671" height="66.7262" rx="24.9335" transform="rotate(17.6719 361.027 104.161)" fill="#121212" stroke="#030303" stroke-width="4.68058"/>
<rect x="414.941" y="57.6663" width="49.8671" height="67.8298" rx="24.9335" transform="rotate(114.683 414.941 57.6663)" fill="#121212" stroke="#030303" stroke-width="4.68058"/>
<rect x="448.207" y="93.7493" width="55.3843" height="55.3847" rx="27.6922" transform="rotate(114.683 448.207 93.7493)" fill="#121212" stroke="#030303" stroke-width="4.68058"/>
<rect x="478.376" y="127.327" width="49.6336" height="49.6339" rx="8.65432" transform="rotate(118.746 478.376 127.327)" fill="#121212" stroke="#030303" stroke-width="4.68058"/>
<path d="M376.757 135.679C380.144 136.587 382.991 136.945 383.116 136.48C383.241 136.014 380.596 134.901 377.209 133.993C373.822 133.086 370.975 132.728 370.85 133.193C370.726 133.659 373.37 134.772 376.757 135.679Z" stroke="#464646" stroke-width="1.40417" stroke-miterlimit="10" stroke-linecap="round" stroke-linejoin="round"/>
<path d="M380.08 143.728C374.644 140.28 367.26 139.251 366.016 140.841" stroke="#464646" stroke-width="1.40417" stroke-miterlimit="10" stroke-linecap="round" stroke-linejoin="round"/>
<path d="M383.116 136.479C383.116 136.479 387.624 157.51 372.105 153.041C356.431 149.152 370.85 133.193 370.85 133.193" stroke="#464646" stroke-width="1.40417" stroke-miterlimit="10" stroke-linecap="round" stroke-linejoin="round"/>
<path d="M365.868 140.975C365.686 144.127 383.535 145.156 383.716 142.004" stroke="#464646" stroke-width="1.40417" stroke-miterlimit="10" stroke-linecap="round" stroke-linejoin="round"/>
<path d="M411.483 99.3498C415.892 99.3498 419.467 98.6739 419.467 97.8402C419.467 97.0064 415.892 96.3306 411.483 96.3306C407.073 96.3306 403.498 97.0064 403.498 97.8402C403.498 98.6739 407.073 99.3498 411.483 99.3498Z" stroke="#464646" stroke-width="1.40417" stroke-miterlimit="10" stroke-linecap="round" stroke-linejoin="round"/>
<path d="M419.466 97.8398C419.548 98.2959 419.591 98.7652 419.591 99.2444C419.591 103.663 415.96 107.245 411.482 107.245C407.003 107.245 403.373 103.663 403.373 99.2444C403.373 98.7653 403.415 98.296 403.497 97.8398" stroke="#464646" stroke-width="1.40417" stroke-miterlimit="10" stroke-linecap="round" stroke-linejoin="round"/>
<path d="M411.482 118.364C414.481 118.364 416.912 117.831 416.912 117.172C416.912 116.514 414.481 115.98 411.482 115.98C408.483 115.98 406.052 116.514 406.052 117.172C406.052 117.831 408.483 118.364 411.482 118.364Z" stroke="#464646" stroke-width="1.40417" stroke-miterlimit="10" stroke-linecap="round" stroke-linejoin="round"/>
<path d="M419.414 100.91C419.414 100.91 418.078 100.664 413.178 102.267C406.199 104.552 403.498 100.664 403.498 100.664C403.498 100.664 407.492 99.2545 414.381 101.888" stroke="#464646" stroke-width="1.40417" stroke-miterlimit="10" stroke-linecap="round" stroke-linejoin="round"/>
<path d="M369.213 52.7431C369.213 52.7431 372.564 54.4376 372.519 57.9241C372.509 58.6877 372.79 59.4284 373.31 59.9873C374.27 61.0195 375.384 63.0562 373.623 66.1068C371.861 69.1573 369.541 69.2115 368.167 68.8956C367.422 68.7245 366.641 68.8522 365.984 69.2426C362.988 71.0249 359.844 68.9695 359.844 68.9695" stroke="#464646" stroke-width="1.40417" stroke-miterlimit="10" stroke-linecap="round" stroke-linejoin="round"/>
<path d="M365.793 61.5855C368.38 57.104 369.917 53.1475 369.226 52.7484C368.535 52.3493 365.877 55.6588 363.289 60.1403C360.702 64.6219 359.165 68.5784 359.856 68.9775C360.547 69.3766 363.205 66.0671 365.793 61.5855Z" stroke="#464646" stroke-width="1.40417" stroke-miterlimit="10" stroke-linecap="round" stroke-linejoin="round"/>
<path d="M373.623 66.1069L383.052 71.5508" stroke="#464646" stroke-width="1.40417" stroke-miterlimit="10" stroke-linecap="round" stroke-linejoin="round"/>
<path d="M384.136 72.1772C385.712 69.4485 386.503 66.9561 385.904 66.6103C385.305 66.2645 383.543 68.1962 381.967 70.925C380.392 73.6537 379.6 76.1461 380.199 76.4919C380.798 76.8377 382.561 74.9059 384.136 72.1772Z" stroke="#464646" stroke-width="1.40417" stroke-miterlimit="10" stroke-linecap="round" stroke-linejoin="round"/>
<path d="M371.812 55.2625C366.996 60.2031 368.646 66.5772 363.321 69.97C362.567 69.0518 365.042 63.7072 368.834 60.0454" stroke="#464646" stroke-width="1.40417" stroke-miterlimit="10" stroke-linecap="round" stroke-linejoin="round"/>
</g>
</g>
<mask id="mask1_2294_3672" style="mask-type:alpha" maskUnits="userSpaceOnUse" x="10" y="128" width="391" height="263">
<rect x="10.3357" y="128.669" width="390.088" height="261.976" fill="#FFCC4C"/>
</mask>
<g mask="url(#mask1_2294_3672)">
<rect x="146.879" y="179.791" width="115.749" height="49.852" rx="5.14807" transform="rotate(-9.19238 146.879 179.791)" fill="#121212"/>
<rect x="230.012" y="158.434" width="19.5832" height="19.5832" rx="3.08884" transform="rotate(-9.19238 230.012 158.434)" fill="#222222"/>
<mask id="mask2_2294_3672" style="mask-type:luminance" maskUnits="userSpaceOnUse" x="231" y="157" width="20" height="19">
<path fill-rule="evenodd" clip-rule="evenodd" d="M232.117 168.012C231.302 162.973 234.726 158.226 239.766 157.41C244.805 156.595 249.552 160.019 250.368 165.059C251.183 170.099 247.759 174.845 242.719 175.661C237.679 176.477 232.933 173.052 232.117 168.012Z" fill="white"/>
</mask>
<g mask="url(#mask2_2294_3672)">
<path fill-rule="evenodd" clip-rule="evenodd" d="M240.384 161.23C238.943 161.463 238.763 161.499 238.202 161.616C237.641 161.734 237.27 161.885 236.954 162.071C236.627 162.263 236.36 162.492 236.113 162.835C235.865 163.178 235.732 163.503 235.652 163.874C235.575 164.233 235.548 164.633 235.614 165.202C235.68 165.772 235.703 165.954 235.936 167.395C236.17 168.836 236.205 169.015 236.322 169.577C236.44 170.138 236.592 170.509 236.777 170.825C236.969 171.152 237.199 171.419 237.541 171.666C237.884 171.914 238.209 172.047 238.58 172.126C238.939 172.203 239.339 172.23 239.908 172.165C240.478 172.099 240.66 172.076 242.101 171.843C243.542 171.609 243.721 171.574 244.283 171.457C244.844 171.339 245.216 171.187 245.532 171.001C245.859 170.81 246.125 170.58 246.372 170.237C246.62 169.894 246.753 169.569 246.832 169.198C246.908 168.839 246.935 168.439 246.871 167.87C246.804 167.3 246.782 167.119 246.549 165.678C246.315 164.237 246.279 164.057 246.162 163.495C246.045 162.934 245.893 162.563 245.708 162.247C245.515 161.92 245.286 161.653 244.943 161.406C244.6 161.159 244.276 161.025 243.904 160.946C243.545 160.87 243.145 160.843 242.575 160.908C242.005 160.974 241.824 160.997 240.383 161.23L240.384 161.23ZM240.063 162.264C240.204 162.241 240.362 162.216 240.539 162.187C241.955 161.958 242.124 161.936 242.688 161.871C243.209 161.811 243.504 161.852 243.703 161.894C243.966 161.95 244.161 162.037 244.377 162.192C244.592 162.348 244.736 162.506 244.872 162.738C244.975 162.913 245.107 163.18 245.214 163.694C245.33 164.249 245.363 164.416 245.592 165.832C245.821 167.248 245.843 167.417 245.908 167.981C245.968 168.502 245.927 168.797 245.885 168.995C245.829 169.258 245.742 169.453 245.586 169.669C245.431 169.885 245.273 170.028 245.041 170.165C244.866 170.268 244.599 170.4 244.085 170.507C243.53 170.623 243.363 170.656 241.946 170.885C240.529 171.114 240.361 171.136 239.797 171.201C239.276 171.261 238.981 171.22 238.782 171.177C238.519 171.121 238.323 171.035 238.108 170.879C237.892 170.724 237.748 170.566 237.612 170.334C237.509 170.159 237.377 169.892 237.27 169.378C237.154 168.823 237.122 168.656 236.892 167.239C236.663 165.822 236.641 165.654 236.576 165.09C236.516 164.569 236.557 164.274 236.599 164.076C236.655 163.812 236.742 163.617 236.898 163.401C237.053 163.185 237.211 163.042 237.444 162.905C237.619 162.802 237.886 162.67 238.399 162.563C238.885 162.462 239.074 162.424 240.062 162.263L240.063 162.264ZM243.514 162.61C243.163 162.667 242.923 162.998 242.98 163.349C243.037 163.701 243.369 163.94 243.72 163.883C244.072 163.826 244.311 163.495 244.254 163.143C244.197 162.792 243.866 162.553 243.514 162.61L243.514 162.61ZM240.802 163.811C239.297 164.055 238.275 165.472 238.518 166.977C238.762 168.482 240.179 169.504 241.684 169.261C243.189 169.017 244.211 167.6 243.968 166.095C243.724 164.59 242.307 163.568 240.802 163.811L240.802 163.811ZM240.957 164.768C241.934 164.61 242.854 165.274 243.012 166.251C243.17 167.227 242.506 168.147 241.529 168.305C240.552 168.464 239.633 167.8 239.474 166.823C239.316 165.846 239.98 164.926 240.957 164.768Z" fill="white"/>
</g>
<rect x="155.301" y="201.167" width="102.612" height="3.46998" rx="1.73499" transform="rotate(-9.19238 155.301 201.167)" fill="#1E1E1E"/>
<rect x="156.386" y="207.872" width="102.612" height="3.46998" rx="1.73499" transform="rotate(-9.19238 156.386 207.872)" fill="#1E1E1E"/>
<rect x="157.439" y="214.38" width="52.5455" height="3.46998" rx="1.73499" transform="rotate(-9.19238 157.439 214.38)" fill="#1E1E1E"/>
<rect x="153.4" y="189.423" width="58.9897" height="5.45283" rx="2.72642" transform="rotate(-9.19238 153.4 189.423)" fill="#FFCF35"/>
<path d="M143.353 246.145C143.353 246.145 121.561 244.285 118.398 262.943C115.237 281.6 131.525 292.682 136.672 284.509C141.822 276.336 143.353 246.145 143.353 246.145Z" fill="#202020"/>
<path d="M213.766 254.134C213.766 254.134 218.948 235.365 218.101 223.164C217.254 210.963 214.21 207.013 212.384 206.886C210.559 206.759 209.384 214.513 209.384 214.513C209.384 214.513 208.27 203.069 204.263 202.864C200.253 202.656 200.114 212.811 200.114 212.811C200.114 212.811 197.634 204.805 194.613 206.643C191.593 208.48 192.227 231.352 192.227 231.352C192.227 231.352 187.29 224.93 184.934 226.322C182.579 227.711 184.993 236.68 187.415 241.434C189.84 246.191 194.733 249.71 194.733 249.71L213.766 254.134Z" fill="#FEC29E"/>
<path d="M212.018 227.087C212.028 227.034 212.031 226.984 212.029 226.929C212.006 226.577 211.702 226.31 211.348 226.332L193.42 227.498C193.065 227.523 192.808 227.836 192.824 228.18C192.847 228.531 193.151 228.799 193.505 228.776L211.433 227.611C211.73 227.587 211.967 227.368 212.018 227.087Z" fill="#1E1C1C"/>
<path d="M201.993 244.603C202.138 243.816 203.26 236.02 192.505 230.776C192.189 230.621 191.806 230.753 191.651 231.069C191.483 231.392 191.628 231.769 191.944 231.924C202.252 236.949 200.814 244.083 200.735 244.38C200.669 244.74 200.88 245.069 201.217 245.145C201.559 245.223 201.9 245.008 201.981 244.667C201.981 244.667 201.986 244.64 201.993 244.603Z" fill="#1E1C1C"/>
<path d="M221.942 246.231C221.942 246.231 238.734 286.007 225.53 311.524C212.327 337.044 163.418 335.615 163.418 335.615L156.603 296.601C156.603 296.601 178.817 296.436 187.072 283.508C193.26 273.816 188.975 249.196 188.975 249.196L221.942 246.231Z" fill="white"/>
<path d="M192.644 290.09C192.338 290.107 192.035 290.031 191.74 289.866C189.475 288.598 187.974 281.403 187.692 279.972C187.638 279.692 187.769 279.41 188.015 279.274C188.263 279.132 188.564 279.172 188.78 279.36C189.439 279.959 195.208 285.308 194.634 288.31C194.529 288.853 194.182 289.582 193.112 289.984C192.961 290.046 192.802 290.081 192.644 290.09ZM189.461 281.864C190.185 284.765 191.316 288.126 192.384 288.723C192.519 288.799 192.596 288.783 192.651 288.762C193.189 288.557 193.308 288.288 193.347 288.068C193.606 286.711 191.486 283.977 189.461 281.864Z" fill="#161616"/>
<path d="M121.494 303.486C121.494 303.486 112.778 305.13 107.519 308.412C102.257 311.694 96.2807 330.575 96.2807 330.575L123.324 360.731L147.535 346.772L121.494 303.486Z" fill="white"/>
<path d="M157.934 484.178C161.193 484.156 164.553 484.075 168.07 483.934C173.314 483.672 178.276 483.055 182.88 482.171C195.292 479.831 205.444 475.59 212.902 471.629C209.289 430.473 194.272 392.707 185.514 373.601C182.286 366.576 179.907 362.052 179.234 360.827C179.117 360.598 179.058 360.494 179.058 360.494L164.535 364.582L161.947 365.304L161.82 368.729L161.55 377.184L157.934 484.178Z" fill="#171717"/>
<path d="M114.704 428.075C120.482 463.583 124.739 475.767 124.739 475.767C124.739 475.767 124.137 477.826 123.13 481.356C131.439 482.815 143.265 484.218 157.943 484.171C161.184 484.162 164.562 484.086 168.073 483.922C173.312 483.681 178.264 483.05 182.889 482.168C184.401 475.681 185.324 471.219 185.569 470.036C189.895 449.316 168.415 374.485 168.415 374.485L164.525 364.58L123.902 371.263C123.902 371.263 108.926 392.553 114.704 428.075Z" fill="#1C1C1C"/>
<path d="M134.117 284.188L135.428 298.33C135.428 298.33 138.357 302.159 146.691 302.063C152.899 301.992 154.935 300.397 154.935 300.397L153.411 293.314L151.917 286.408L136.673 284.509L134.117 284.188Z" fill="#FEC29E"/>
<path d="M134.08 283.511C134.151 283.895 134.34 284.335 134.618 284.839C138.437 291.61 149.823 293.329 153.414 293.316L151.92 286.41L134.08 283.511Z" fill="#1E1C1C"/>
<path d="M152.081 253.881C152.081 253.881 161.146 270.925 159.133 281.045C157.121 291.169 147.974 290.305 142.424 288.806C136.874 287.308 134.113 284.189 134.113 284.189C134.113 284.189 129.2 286.288 125.463 281.857C121.726 277.425 123.388 271.875 126.174 270.421C128.96 268.964 132.547 270.779 132.547 270.779L129.466 265.861C129.466 265.861 138.756 238.943 152.081 253.881Z" fill="#FEC29E"/>
<path d="M155.092 260.924C155.005 260.923 151.519 260.602 151.519 260.602C151.192 260.572 150.946 260.282 150.979 259.955C151.009 259.628 151.301 259.358 151.629 259.415L155.115 259.735C155.442 259.765 155.685 260.056 155.655 260.386C155.627 260.682 155.383 260.908 155.092 260.924Z" fill="#1E1C1C"/>
<path d="M142.277 263.127C142.021 263.142 141.769 263.003 141.651 262.756C141.493 262.431 141.63 262.039 141.955 261.881L145.876 259.976C146.193 259.818 146.594 259.951 146.752 260.28C146.91 260.605 146.774 260.997 146.448 261.155L142.527 263.06C142.449 263.103 142.363 263.123 142.277 263.127Z" fill="#1E1C1C"/>
<path d="M153.46 273.679C153.371 273.684 153.274 273.668 153.186 273.631C152.847 273.501 152.68 273.12 152.814 272.784C154.324 268.913 150.604 266.848 150.444 266.762C150.125 266.589 150.007 266.192 150.181 265.873C150.351 265.553 150.75 265.433 151.066 265.603C152.772 266.514 155.585 269.285 154.036 273.256C153.94 273.512 153.71 273.665 153.46 273.679Z" fill="#1E1C1C"/>
<path d="M132.976 278.057C132.887 278.062 132.791 278.046 132.702 278.012L125.399 275.17C125.061 275.04 124.894 274.658 125.027 274.323C125.155 273.985 125.542 273.817 125.875 273.951L133.178 276.793C133.516 276.923 133.683 277.305 133.55 277.64C133.456 277.89 133.226 278.043 132.976 278.057Z" fill="#1E1C1C"/>
<path d="M126.721 280.054C126.551 280.063 126.381 280.004 126.243 279.883C125.976 279.639 125.956 279.222 126.198 278.952L129.167 275.678C129.412 275.414 129.822 275.394 130.098 275.632C130.365 275.877 130.385 276.294 130.143 276.563L127.174 279.838C127.05 279.973 126.887 280.045 126.721 280.054Z" fill="#1E1C1C"/>
<path d="M157.96 268.65C157.96 268.65 156.224 263.353 150.295 257.787C144.365 252.223 144.366 252.223 144.366 252.223C144.366 252.223 145.607 263.307 140.897 268.38C136.187 273.454 132.547 270.786 132.547 270.786L122.553 262.962L143.353 246.15C143.353 246.15 157.55 244.639 157.96 268.65Z" fill="#202020"/>
<path d="M153.451 296.964L166.346 298.03C166.346 298.03 182.717 311.425 180.878 325.169C179.649 334.351 179.105 336.544 179.105 336.544L183.677 365.5C183.677 365.5 172.952 375.463 153.916 378.515C134.88 381.564 118.339 376.768 118.339 376.768C118.339 376.768 117.416 308.318 117.095 302.508C116.884 298.589 153.451 296.964 153.451 296.964Z" fill="white"/>
<path d="M154.007 296.083L159.584 297.472C159.584 297.472 161.998 307.867 149.464 309.206C136.311 310.612 125.204 299.525 125.204 299.525L136.621 297.042L154.007 296.083Z" fill="#FEC29E"/>
<path d="M148.372 309.955C134.493 310.694 125.106 300.403 124.715 299.965C124.473 299.695 124.495 299.282 124.765 299.038C125.033 298.802 125.448 298.812 125.693 299.088C125.785 299.19 135.066 309.347 148.255 308.643C152.552 308.406 155.598 307.125 157.362 304.83C159.769 301.693 158.949 297.649 158.941 297.608C158.868 297.254 159.093 296.905 159.447 296.829C159.818 296.74 160.147 296.981 160.226 297.334C160.266 297.523 161.184 301.988 158.414 305.616C156.408 308.238 153.032 309.698 148.372 309.955Z" fill="#161616"/>
<path d="M179.688 335.006C179.59 335.012 179.49 334.993 179.393 334.954C179.063 334.811 178.904 334.426 179.047 334.093C184.287 321.769 171.823 305.764 171.695 305.604C171.473 305.318 171.519 304.907 171.805 304.682C172.094 304.457 172.505 304.506 172.726 304.789C173.265 305.466 185.803 321.56 180.254 334.608C180.153 334.843 179.929 334.993 179.688 335.006Z" fill="#161616"/>
<path d="M138.992 355.519C138.992 355.519 162.943 349.273 169.161 351.369C175.376 353.466 171.619 373.803 169.995 377.552C168.373 381.301 143.082 377.2 143.082 377.2L135.268 367.27L138.992 355.519Z" fill="#FEC29E"/>
<path d="M169.162 351.372C169.162 351.372 184.42 360.548 185.328 366.735C186.237 372.921 167.434 360.919 167.434 360.919L169.162 351.372Z" fill="#FEC29E"/>
<path d="M160.957 377.152C160.957 377.152 148.678 380.663 152.823 383.838C156.968 387.012 168.987 380.786 169.996 377.557C171.005 374.328 161.744 370.872 161.744 370.872L160.957 377.152Z" fill="#FEC29E"/>
<path d="M123.456 299.842C123.456 299.842 72.8643 311.871 73.5939 350.273C74.1438 379.26 142.909 384.323 142.909 384.323L144.473 352.025L101.409 325.301L123.456 299.842Z" fill="white"/>
<path d="M141.788 349.419C141.698 349.424 141.608 349.408 141.517 349.374C141.261 349.278 115.875 339.629 105.771 340.186C105.399 340.207 105.088 339.929 105.068 339.566C105.048 339.2 105.35 338.891 105.698 338.872C116.079 338.299 140.932 347.745 141.986 348.146C142.324 348.277 142.494 348.655 142.364 348.993C142.27 349.246 142.037 349.405 141.788 349.419Z" fill="#161616"/>
<path d="M122.826 343.167C122.698 343.174 122.568 343.142 122.454 343.074C119.268 341.174 111.9 336.516 112.292 334.323C112.363 333.926 112.648 333.415 113.604 333.237C118.042 332.419 122.839 341.2 123.369 342.206C123.506 342.467 123.455 342.786 123.239 342.989C123.126 343.096 122.977 343.158 122.826 343.167ZM114.106 334.497C114.02 334.502 113.931 334.513 113.846 334.53C113.615 334.572 113.547 334.627 113.547 334.627C113.574 335.341 116.74 337.901 120.871 340.551C119.104 337.818 116.339 334.374 114.106 334.497Z" fill="#161616"/>
<path d="M159.857 379.272L155.974 379.486C155.736 379.499 155.509 379.38 155.381 379.176C155.254 378.974 155.248 378.718 155.368 378.505L157.139 375.371C157.316 375.057 157.718 374.946 158.036 375.125C158.352 375.301 158.461 375.704 158.282 376.021L157.1 378.112L159.782 377.964C160.145 377.944 160.455 378.222 160.475 378.584C160.495 378.941 160.22 379.252 159.857 379.272Z" fill="#1E1C1C"/>
<path d="M172.817 363.775C172.639 363.785 172.456 363.721 172.317 363.585C170.673 361.949 167.702 359.244 166.735 358.96C166.39 358.857 166.191 358.492 166.291 358.143C166.394 357.798 166.756 357.596 167.107 357.699C168.678 358.161 172.497 361.911 173.244 362.654C173.5 362.911 173.502 363.323 173.245 363.585C173.129 363.701 172.975 363.767 172.817 363.775Z" fill="#1E1C1C"/>
<path d="M171.798 370.974C171.64 370.983 171.479 370.932 171.348 370.826L163.816 364.695C163.535 364.466 163.491 364.051 163.72 363.77C163.952 363.489 164.367 363.448 164.645 363.674L172.177 369.805C172.459 370.034 172.502 370.449 172.273 370.73C172.148 370.883 171.973 370.965 171.798 370.974Z" fill="#1E1C1C"/>
<path d="M146.83 269.516C146.547 269.531 146.276 269.361 146.177 269.083L145.31 266.679C145.268 266.568 145.259 266.45 145.282 266.335L145.718 264.023C145.782 263.668 146.133 263.422 146.486 263.501C146.841 263.568 147.075 263.91 147.008 264.268L146.607 266.402L147.414 268.639C147.537 268.981 147.361 269.355 147.022 269.481C146.954 269.5 146.889 269.512 146.83 269.516Z" fill="#1E1C1C"/>
<path d="M155.473 267.825C155.19 267.841 154.918 267.674 154.819 267.393L153.953 264.992C153.911 264.881 153.902 264.762 153.925 264.648L154.361 262.333C154.425 261.977 154.775 261.731 155.129 261.81C155.484 261.877 155.718 262.219 155.651 262.578L155.25 264.715L156.054 266.949C156.177 267.291 156.001 267.665 155.661 267.788C155.597 267.809 155.535 267.822 155.473 267.825Z" fill="#1E1C1C"/>
<path d="M149.512 281.809C149.375 281.817 149.234 281.807 149.089 281.773C147.63 281.43 146.55 278.236 146.255 277.265C146.179 277.024 146.251 276.767 146.432 276.593C146.613 276.419 146.88 276.374 147.111 276.457L151.761 278.201C151.929 278.264 152.064 278.391 152.133 278.557C152.205 278.723 152.206 278.905 152.134 279.07C151.943 279.543 150.951 281.73 149.512 281.809ZM147.972 278.178C148.477 279.427 149.062 280.417 149.395 280.494C149.654 280.599 150.2 279.955 150.634 279.176L147.972 278.178Z" fill="#1E1C1C"/>
<path d="M120.049 277.307C119.776 277.322 119.51 277.161 119.403 276.895C115.374 266.738 119.621 256.965 119.805 256.553C119.953 256.222 120.342 256.073 120.672 256.219C121.002 256.367 121.152 256.753 121.006 257.086C120.961 257.181 116.802 266.779 120.626 276.407C120.761 276.746 120.597 277.124 120.258 277.259C120.188 277.287 120.118 277.303 120.049 277.307Z" fill="#272726"/>
<path d="M117.385 265.191C115.087 265.318 105.517 265.56 104.251 260.885C103.963 259.818 104.341 259.221 104.712 258.912C106.32 257.57 111.507 259.303 115.279 260.852C111.169 256.688 104.359 248.79 107.499 244.94C108.287 243.977 109.159 243.882 109.743 243.99C113.96 244.687 119.139 258.276 119.714 259.822C119.84 260.161 119.67 260.538 119.328 260.664C118.986 260.79 118.61 260.62 118.486 260.278C116.41 254.711 112.144 245.712 109.528 245.281C109.281 245.235 108.933 245.254 108.517 245.769C105.679 249.248 115.01 258.999 118.839 262.46C119.081 262.679 119.128 263.04 118.946 263.31C118.764 263.585 118.411 263.676 118.121 263.543C112.924 261.095 106.626 259.006 105.555 259.924C105.441 260.017 105.429 260.229 105.518 260.546C106.454 263.996 114.665 264.154 117.759 263.855C118.175 263.77 118.438 264.098 118.469 264.457C118.498 264.82 118.227 265.136 117.867 265.168C117.814 265.165 117.647 265.177 117.385 265.191Z" fill="#272726"/>
<path d="M202.513 419.403C202.202 419.382 196.934 418.876 193.139 413.183C189.916 408.347 193.036 400.394 194.245 397.726C192.244 397.517 187.825 396.667 186.191 393.16C183.591 387.607 188.919 382.597 189.146 382.385C189.412 382.138 189.825 382.154 190.072 382.42C190.317 382.687 190.304 383.099 190.037 383.347C189.986 383.391 185.189 387.918 187.377 392.602C189.129 396.347 195.199 396.474 195.259 396.477C195.486 396.48 195.699 396.602 195.814 396.796C195.932 396.989 195.939 397.23 195.837 397.432C195.788 397.531 190.824 407.34 194.229 412.449C197.662 417.592 202.485 418.084 202.536 418.09C202.896 418.124 203.164 418.44 203.133 418.8C203.101 419.132 202.838 419.386 202.513 419.403Z" fill="#353535"/>
<path d="M185.852 472.734C185.393 472.697 185.128 472.375 185.162 472.015C187.763 444.846 170.732 386.567 170.559 385.983C170.486 385.731 170.569 385.458 170.771 385.289L179.516 378.05C179.79 377.826 180.204 377.854 180.443 378.139C180.673 378.419 180.633 378.83 180.354 379.066L171.94 386.026C173.477 391.352 188.978 445.942 186.466 472.143C186.436 472.469 186.17 472.717 185.852 472.734Z" fill="#353535"/>
<path d="M132.425 288.929C134.76 288.8 136.548 286.802 136.42 284.467C136.291 282.132 134.293 280.343 131.958 280.472C129.623 280.601 127.834 282.599 127.963 284.934C128.092 287.269 130.089 289.058 132.425 288.929Z" fill="#FFBE1D"/>
<rect x="72.2852" y="389.779" width="267.463" height="11.7916" fill="#373737"/>
</g>
<rect x="257.958" y="280.571" width="87.1709" height="39.7823" rx="5.14807" transform="rotate(-12.0279 257.958 280.571)" fill="#121212" fill-opacity="0.63"/>
<rect x="266.367" y="297.067" width="77.6086" height="2.62444" rx="1.31222" transform="rotate(-12.0279 266.367 297.067)" fill="#1E1E1E" fill-opacity="0.69"/>
<rect x="267.438" y="302.091" width="77.6086" height="2.62444" rx="1.31222" transform="rotate(-12.0279 267.438 302.091)" fill="#1E1E1E" fill-opacity="0.69"/>
<rect x="268.477" y="306.968" width="39.7416" height="2.62444" rx="1.31222" transform="rotate(-12.0279 268.477 306.968)" fill="#1E1E1E" fill-opacity="0.69"/>
<rect x="264.617" y="288.913" width="40.3076" height="3.17065" rx="1.58532" transform="rotate(-12.0279 264.617 288.913)" fill="#FFCF35"/>
<rect x="319.99" y="260.503" width="15.1134" height="15.1134" rx="2.6403" transform="rotate(-12.0279 319.99 260.503)" fill="#222222"/>
<path d="M327.744 266.643L329.887 266.186" stroke="white" stroke-width="0.487667" stroke-miterlimit="10" stroke-linecap="round" stroke-linejoin="round"/>
<path d="M328.005 267.868L329.346 267.582" stroke="white" stroke-width="0.487667" stroke-miterlimit="10" stroke-linecap="round" stroke-linejoin="round"/>
<path d="M327.952 264.614L329.176 264.353C329.789 264.222 329.724 263.916 329.658 263.61C329.528 262.998 329.222 263.063 328.915 263.128L327.691 263.389C327.385 263.454 327.078 263.52 327.209 264.132C327.339 264.744 327.645 264.679 327.952 264.614Z" stroke="white" stroke-width="0.487667" stroke-miterlimit="10" stroke-linecap="round" stroke-linejoin="round"/>
<path d="M329.66 263.616C330.691 263.454 331.283 263.722 331.581 265.121L331.972 266.958C332.233 268.183 332.057 268.86 330.527 269.187L328.689 269.578C327.159 269.904 326.722 269.357 326.461 268.132L326.07 266.295C325.772 264.899 326.203 264.411 327.21 264.138" stroke="white" stroke-width="0.487667" stroke-miterlimit="10" stroke-linecap="round" stroke-linejoin="round"/>
<rect x="227.901" y="220.712" width="87.1709" height="38.818" rx="5.14807" transform="rotate(4.22474 227.901 220.712)" fill="#121212"/>
<rect x="291.787" y="218.153" width="15.4691" height="15.4691" rx="2.70244" transform="rotate(4.22474 291.787 218.153)" fill="#222222"/>
<path fill-rule="evenodd" clip-rule="evenodd" d="M298.853 224.937L298.85 225.213L298.574 225.159C297.573 224.955 296.721 224.453 296.025 223.662L295.686 223.27L295.571 223.533C295.327 224.118 295.408 224.762 295.793 225.219C295.998 225.471 295.945 225.501 295.572 225.332C295.442 225.278 295.328 225.235 295.316 225.251C295.274 225.288 295.37 225.808 295.46 226.018C295.584 226.309 295.858 226.606 296.168 226.792L296.431 226.941L296.109 226.923C295.797 226.9 295.786 226.905 295.81 227.025C295.895 227.398 296.305 227.818 296.782 228.022L297.117 228.165L296.804 228.323C296.341 228.548 295.807 228.655 295.284 228.628C295.034 228.615 294.826 228.622 294.825 228.639C294.821 228.695 295.476 229.059 295.861 229.212C297.018 229.664 298.435 229.611 299.537 229.066C300.32 228.678 301.136 227.853 301.549 227.026C301.771 226.586 302.021 225.769 302.051 225.371C302.07 225.113 302.089 225.08 302.423 224.795C302.62 224.629 302.806 224.445 302.844 224.392C302.907 224.289 302.902 224.289 302.611 224.363C302.127 224.497 302.062 224.469 302.314 224.234C302.499 224.067 302.729 223.757 302.736 223.662C302.737 223.645 302.652 223.667 302.553 223.71C302.449 223.759 302.221 223.827 302.05 223.865L301.743 223.938L301.485 223.733C301.342 223.621 301.139 223.493 301.031 223.451C300.753 223.351 300.319 223.331 300.056 223.402C299.343 223.603 298.856 224.221 298.853 224.937Z" fill="white"/>
<rect x="231.197" y="238.407" width="77.6086" height="2.62444" rx="1.31222" transform="rotate(4.22474 231.197 238.407)" fill="#1E1E1E"/>
<rect x="230.818" y="243.53" width="77.6086" height="2.62444" rx="1.31222" transform="rotate(4.22474 230.818 243.53)" fill="#1E1E1E"/>
<rect x="230.452" y="248.502" width="39.7416" height="2.62444" rx="1.31222" transform="rotate(4.22474 230.452 248.502)" fill="#1E1E1E"/>
<rect x="231.827" y="229.692" width="41.6398" height="3.9657" rx="1.98285" transform="rotate(4.22474 231.827 229.692)" fill="#FFCF35"/>
</svg>
