<svg width="651" height="574" viewBox="0 0 651 574" fill="none" xmlns="http://www.w3.org/2000/svg">
<mask id="mask0_2301_6092" style="mask-type:alpha" maskUnits="userSpaceOnUse" x="0" y="0" width="651" height="574">
<rect x="0.790039" y="0.310059" width="649.34" height="573.47" fill="#030303"/>
</mask>
<g mask="url(#mask0_2301_6092)">
<rect x="504.313" y="121.015" width="101.111" height="134.322" rx="50.5554" transform="rotate(17.6719 504.313 121.015)" fill="#121212" stroke="#030303" stroke-width="6.34467"/>
<rect x="613.359" y="30.524" width="101.111" height="136.496" rx="50.5554" transform="rotate(114.683 613.359 30.524)" fill="#121212" stroke="#030303" stroke-width="6.34467"/>
<rect x="678.892" y="101.606" width="111.979" height="111.98" rx="55.9897" transform="rotate(114.683 678.892 101.606)" fill="#121212" stroke="#030303" stroke-width="6.34467"/>
<rect x="738.37" y="167.889" width="100.651" height="100.651" rx="11.7312" transform="rotate(118.746 738.37 167.889)" fill="#121212" stroke="#030303" stroke-width="6.34467"/>
<path d="M536.232 184.91C542.905 186.698 548.513 187.404 548.758 186.486C549.004 185.569 543.794 183.377 537.122 181.589C530.45 179.801 524.842 179.095 524.596 180.012C524.35 180.929 529.56 183.122 536.232 184.91Z" stroke="#464646" stroke-width="1.9034" stroke-miterlimit="10" stroke-linecap="round" stroke-linejoin="round"/>
<path d="M542.778 200.766C532.069 193.974 517.523 191.946 515.074 195.078" stroke="#464646" stroke-width="1.9034" stroke-miterlimit="10" stroke-linecap="round" stroke-linejoin="round"/>
<path d="M548.759 186.486C548.759 186.486 557.639 227.916 527.068 219.113C496.191 211.451 524.597 180.012 524.597 180.012" stroke="#464646" stroke-width="1.9034" stroke-miterlimit="10" stroke-linecap="round" stroke-linejoin="round"/>
<path d="M514.781 195.343C514.423 201.552 549.584 203.578 549.941 197.369" stroke="#464646" stroke-width="1.9034" stroke-miterlimit="10" stroke-linecap="round" stroke-linejoin="round"/>
<path d="M604.638 113.344C613.325 113.344 620.367 112.012 620.367 110.37C620.367 108.727 613.325 107.396 604.638 107.396C595.951 107.396 588.909 108.727 588.909 110.37C588.909 112.012 595.951 113.344 604.638 113.344Z" stroke="#464646" stroke-width="1.9034" stroke-miterlimit="10" stroke-linecap="round" stroke-linejoin="round"/>
<path d="M620.367 110.37C620.528 111.268 620.613 112.193 620.613 113.137C620.613 121.841 613.46 128.898 604.638 128.898C595.815 128.898 588.663 121.841 588.663 113.137C588.663 112.193 588.747 111.268 588.909 110.37" stroke="#464646" stroke-width="1.9034" stroke-miterlimit="10" stroke-linecap="round" stroke-linejoin="round"/>
<path d="M604.638 128.955V148.453" stroke="#464646" stroke-width="1.9034" stroke-miterlimit="10" stroke-linecap="round" stroke-linejoin="round"/>
<path d="M604.638 150.801C610.546 150.801 615.335 149.75 615.335 148.453C615.335 147.156 610.546 146.105 604.638 146.105C598.73 146.105 593.94 147.156 593.94 148.453C593.94 149.75 598.73 150.801 604.638 150.801Z" stroke="#464646" stroke-width="1.9034" stroke-miterlimit="10" stroke-linecap="round" stroke-linejoin="round"/>
<path d="M620.262 116.417C620.262 116.417 617.63 115.932 607.977 119.091C594.229 123.592 588.909 115.932 588.909 115.932C588.909 115.932 596.777 113.156 610.347 118.345" stroke="#464646" stroke-width="1.9034" stroke-miterlimit="10" stroke-linecap="round" stroke-linejoin="round"/>
<path d="M521.371 21.5327C521.371 21.5327 527.974 24.8708 527.885 31.739C527.865 33.2431 528.417 34.7023 529.442 35.8033C531.335 37.8367 533.528 41.8489 530.058 47.8583C526.589 53.8677 522.018 53.9743 519.31 53.3521C517.844 53.0151 516.305 53.2667 515.012 54.0356C509.108 57.5467 502.916 53.4978 502.916 53.4978" stroke="#464646" stroke-width="1.9034" stroke-miterlimit="10" stroke-linecap="round" stroke-linejoin="round"/>
<path d="M514.632 38.9517C519.729 30.1233 522.758 22.3292 521.396 21.543C520.034 20.7568 514.798 27.2763 509.701 36.1047C504.604 44.933 501.576 52.7272 502.938 53.5133C504.299 54.2995 509.535 47.78 514.632 38.9517Z" stroke="#464646" stroke-width="1.9034" stroke-miterlimit="10" stroke-linecap="round" stroke-linejoin="round"/>
<path d="M530.058 47.8582L548.633 58.5822" stroke="#464646" stroke-width="1.9034" stroke-miterlimit="10" stroke-linecap="round" stroke-linejoin="round"/>
<path d="M550.769 59.8157C553.873 54.4403 555.432 49.5305 554.252 48.8492C553.072 48.168 549.6 51.9734 546.496 57.3488C543.393 62.7242 541.833 67.634 543.013 68.3152C544.193 68.9965 547.666 65.1911 550.769 59.8157Z" stroke="#464646" stroke-width="1.9034" stroke-miterlimit="10" stroke-linecap="round" stroke-linejoin="round"/>
<path d="M526.492 26.4942C517.004 36.2269 520.255 48.7835 509.764 55.4671C508.28 53.6583 513.156 43.1298 520.624 35.9163" stroke="#464646" stroke-width="1.9034" stroke-miterlimit="10" stroke-linecap="round" stroke-linejoin="round"/>
<rect x="-0.240182" y="90.9507" width="99.8132" height="132.624" rx="49.9066" transform="rotate(17.6719 -0.240182 90.9507)" fill="#121212" stroke="#030303" stroke-width="6.34467"/>
<rect x="107.415" y="1.52307" width="99.8132" height="134.771" rx="49.9066" transform="rotate(114.683 107.415 1.52307)" fill="#121212" stroke="#030303" stroke-width="6.34467"/>
<rect x="172.157" y="71.7462" width="110.551" height="110.551" rx="55.2753" transform="rotate(114.683 172.157 71.7462)" fill="#121212" stroke="#030303" stroke-width="6.34467"/>
<rect x="230.915" y="137.225" width="99.3587" height="99.3595" rx="11.7312" transform="rotate(118.746 230.915 137.225)" fill="#121212" stroke="#030303" stroke-width="6.34467"/>
<path d="M13.2006 -0.566368C13.2006 -0.566368 46.5483 -2.62278 31.5631 22.5108C16.1431 47.38 2.62492 16.8258 2.62492 16.8258" fill="#121212"/>
<path d="M13.2006 -0.566368C13.2006 -0.566368 46.5483 -2.62278 31.5631 22.5108C16.1431 47.38 2.62492 16.8258 2.62492 16.8258" stroke="#464646" stroke-width="1.9034" stroke-miterlimit="10" stroke-linecap="round" stroke-linejoin="round"/>
<path d="M9.5271 9.1113C12.4475 4.30857 14.0922 -0.0242833 13.2007 -0.566396C12.3092 -1.10851 9.21898 2.3454 6.29859 7.14813C3.37819 11.9509 1.73346 16.2837 2.62499 16.8258C3.51652 17.3679 6.60671 13.914 9.5271 9.1113Z" fill="#121212" stroke="#464646" stroke-width="1.9034" stroke-miterlimit="10" stroke-linecap="round" stroke-linejoin="round"/>
<path d="M31.564 22.511L42.0717 28.9004" stroke="#464646" stroke-width="1.9034" stroke-miterlimit="10" stroke-linecap="round" stroke-linejoin="round"/>
<path d="M44.3925 30.3119C47.9437 24.4718 49.7833 19.1056 48.5014 18.3261C47.2194 17.5466 43.3015 21.649 39.7503 27.4891C36.1991 33.3292 34.3595 38.6954 35.6414 39.4749C36.9234 40.2544 40.8413 36.152 44.3925 30.3119Z" fill="#121212" stroke="#464646" stroke-width="1.9034" stroke-miterlimit="10" stroke-linecap="round" stroke-linejoin="round"/>
<path d="M24.5717 0.456482C24.5717 0.456482 21.5153 2.69804 19.7722 7.57699C19.1816 9.22967 18.742 11.1851 18.6227 13.4584C18.0337 24.6889 9.21165 26.9508 9.21165 26.9508C7.05542 21.5654 13.8814 11.8732 19.7722 7.57699" fill="#121212"/>
<path d="M24.5717 0.456481C24.5717 0.456481 21.5153 2.69804 19.7722 7.57699M19.7722 7.57699C19.1816 9.22967 18.742 11.1851 18.6227 13.4584C18.0337 24.6889 9.21165 26.9508 9.21165 26.9508C7.05542 21.5654 13.8814 11.8732 19.7722 7.57699Z" stroke="#464646" stroke-width="1.9034" stroke-miterlimit="10" stroke-linecap="round" stroke-linejoin="round"/>
<path d="M172.742 139.033C181.457 143.56 189.026 146.258 189.649 145.06C190.271 143.862 183.711 139.221 174.996 134.694C166.281 130.167 158.711 127.468 158.089 128.666C157.467 129.864 164.027 134.506 172.742 139.033Z" fill="#121212" stroke="#464646" stroke-width="1.9034" stroke-miterlimit="10" stroke-linecap="round" stroke-linejoin="round"/>
<path d="M189.549 145.248L172.733 154.111C171.088 154.978 169.203 155.278 167.37 154.965C165.634 154.669 164.034 153.838 162.794 152.588C161.484 151.268 160.645 149.553 160.409 147.709L157.99 128.854" fill="#121212"/>
<path d="M189.549 145.248L172.733 154.111C171.088 154.978 169.203 155.278 167.37 154.965C165.634 154.669 164.034 153.838 162.794 152.588C161.484 151.268 160.645 149.553 160.409 147.709L157.99 128.854" stroke="#464646" stroke-width="1.9034" stroke-miterlimit="10" stroke-linecap="round" stroke-linejoin="round"/>
<path d="M164.896 154.134L152.682 177.647" stroke="#464646" stroke-width="1.9034" stroke-miterlimit="10" stroke-linecap="round" stroke-linejoin="round"/>
<path d="M163.144 183.082C162.732 183.876 157.714 182.087 151.937 179.086C146.16 176.085 141.811 173.008 142.224 172.214C142.636 171.42 147.654 173.209 153.431 176.21C159.208 179.211 163.557 182.287 163.144 183.082Z" fill="#121212" stroke="#464646" stroke-width="1.9034" stroke-miterlimit="10" stroke-linecap="round" stroke-linejoin="round"/>
<path d="M158.97 136.508C161.163 136.184 165.776 138.023 170.204 143.929C175.001 150.327 181.046 149.715 182.724 148.847L182.723 148.849C181.057 146.125 173.498 140.82 167.484 140.797" fill="#121212"/>
<path d="M158.97 136.508C161.163 136.184 165.776 138.023 170.204 143.929C175.001 150.327 181.046 149.715 182.724 148.847L182.723 148.849C181.057 146.125 173.498 140.82 167.484 140.797" stroke="#464646" stroke-width="1.9034" stroke-miterlimit="10" stroke-linecap="round" stroke-linejoin="round"/>
<path d="M98.8493 83.3236C107.431 83.3236 114.389 82.0083 114.389 80.3857C114.389 78.7631 107.431 77.4478 98.8493 77.4478C90.2672 77.4478 83.3101 78.7631 83.3101 80.3857C83.3101 82.0083 90.2672 83.3236 98.8493 83.3236Z" fill="#121212" stroke="#464646" stroke-width="1.9034" stroke-miterlimit="10" stroke-linecap="round" stroke-linejoin="round"/>
<path d="M114.388 80.3857C114.548 81.2732 114.631 82.1867 114.631 83.1192C114.631 91.7187 107.565 98.6898 98.8492 98.6898C90.1332 98.6898 83.0674 91.7185 83.0674 83.1192C83.0674 82.1869 83.1506 81.2734 83.3099 80.3857" fill="#121212"/>
<path d="M114.388 80.3857C114.548 81.2732 114.631 82.1867 114.631 83.1192C114.631 91.7187 107.565 98.6898 98.8492 98.6898C90.1332 98.6898 83.0674 91.7185 83.0674 83.1192C83.0674 82.1869 83.1506 81.2734 83.3099 80.3857" stroke="#464646" stroke-width="1.9034" stroke-miterlimit="10" stroke-linecap="round" stroke-linejoin="round"/>
<path d="M98.8491 98.7466V118.009" stroke="#464646" stroke-width="1.9034" stroke-miterlimit="10" stroke-linecap="round" stroke-linejoin="round"/>
<path d="M98.8493 120.329C104.686 120.329 109.417 119.29 109.417 118.009C109.417 116.728 104.686 115.689 98.8493 115.689C93.0127 115.689 88.2812 116.728 88.2812 118.009C88.2812 119.29 93.0127 120.329 98.8493 120.329Z" fill="#121212" stroke="#464646" stroke-width="1.9034" stroke-miterlimit="10" stroke-linecap="round" stroke-linejoin="round"/>
<path d="M114.284 86.3603C114.284 86.3603 111.684 85.8807 102.149 89.002C88.5658 93.448 83.3101 85.8807 83.3101 85.8807C83.3101 85.8807 91.0831 83.1383 104.49 88.2643" fill="#121212"/>
<path d="M114.284 86.3603C114.284 86.3603 111.684 85.8807 102.149 89.002C88.5658 93.448 83.3101 85.8807 83.3101 85.8807C83.3101 85.8807 91.0831 83.1383 104.49 88.2643" stroke="#464646" stroke-width="1.9034" stroke-miterlimit="10" stroke-linecap="round" stroke-linejoin="round"/>
<path d="M33.3029 146.438C38.6214 147.863 43.1438 148.231 43.4039 147.26C43.6641 146.289 39.5636 144.346 34.2451 142.921C28.9267 141.496 24.4043 141.128 24.1441 142.099C23.8839 143.07 27.9845 145.013 33.3029 146.438Z" fill="#121212" stroke="#464646" stroke-width="1.9034" stroke-miterlimit="10" stroke-linecap="round" stroke-linejoin="round"/>
<path d="M24.144 142.099L19.1447 160.757C17.7196 166.076 20.8758 171.542 26.1942 172.967C31.5127 174.392 36.9794 171.236 38.4045 165.918L43.4039 147.26" fill="#121212"/>
<path d="M24.144 142.099L19.1447 160.757C17.7196 166.076 20.8758 171.542 26.1942 172.967C31.5127 174.392 36.9794 171.236 38.4045 165.918L43.4039 147.26" stroke="#464646" stroke-width="1.9034" stroke-miterlimit="10" stroke-linecap="round" stroke-linejoin="round"/>
<path d="M36.8282 159.972C26.4413 152.925 20.3829 156.139 20.3829 156.139C20.3829 156.139 20.065 158.807 28.983 160.491C36.559 161.921 40.5984 157.732 40.5984 157.732" fill="#121212"/>
<path d="M36.8282 159.972C26.4413 152.925 20.3829 156.139 20.3829 156.139C20.3829 156.139 20.065 158.807 28.983 160.491C36.559 161.921 40.5984 157.732 40.5984 157.732" stroke="#464646" stroke-width="1.9034" stroke-miterlimit="10" stroke-linecap="round" stroke-linejoin="round"/>
<path d="M26.1943 172.968L20.5891 193.887" stroke="#464646" stroke-width="1.9034" stroke-miterlimit="10" stroke-linecap="round" stroke-linejoin="round"/>
<path d="M20.1184 195.645C25.4368 197.07 29.9592 197.438 30.2194 196.467C30.4796 195.496 26.379 193.553 21.0606 192.128C15.7421 190.703 11.2197 190.335 10.9596 191.306C10.6994 192.277 14.7999 194.22 20.1184 195.645Z" fill="#121212" stroke="#464646" stroke-width="1.9034" stroke-miterlimit="10" stroke-linecap="round" stroke-linejoin="round"/>
</g>
<mask id="mask1_2301_6092" style="mask-type:alpha" maskUnits="userSpaceOnUse" x="0" y="0" width="651" height="541">
<rect x="0.790039" y="0.310059" width="649.34" height="539.849" fill="#FFCC4C"/>
</mask>
<g mask="url(#mask1_2301_6092)">
<mask id="mask2_2301_6092" style="mask-type:alpha" maskUnits="userSpaceOnUse" x="0" y="0" width="650" height="541">
<rect x="0.974609" y="0.310059" width="648.734" height="539.8" fill="#FFCC4C"/>
</mask>
<g mask="url(#mask2_2301_6092)">
<path d="M416.274 754.674L343.692 791.666C335.376 781.426 318.021 755.116 305.038 734.821C300.456 727.658 296.448 721.253 293.528 716.542C290.112 711.019 279.253 614.96 272.69 554.4C269.617 526.132 267.511 505.639 267.511 505.639L267.439 505.144L290.837 495.246C290.837 495.246 296.498 506.631 305.415 524.74C334.185 582.817 396.914 710.298 416.274 754.674Z" fill="#171717"/>
<path d="M305.416 524.742L274.401 552.847L272.691 554.402L270.199 556.66L251.621 507.834L267.512 505.641L267.44 505.146L290.838 495.248C290.838 495.248 296.5 506.632 305.416 524.742Z" fill="#171717"/>
<path d="M221.098 333.003C221.098 333.003 225.974 310.552 215.875 309.331C205.777 308.11 198.398 321.949 198.398 321.949C198.398 321.949 179.176 330.198 175.076 343.824C170.976 357.45 195.447 371.092 195.447 371.092L221.098 333.003Z" fill="#202020"/>
<path d="M305.038 734.82C305.104 735.274 305.177 735.769 305.202 736.228C307.015 753.564 308.165 783.081 308.925 794.928L232.653 806.058C224.778 754.111 199.048 601.736 197.641 576.51C195.892 545.48 197.021 515.42 197.021 515.42L251.62 507.831L267.511 505.639L274.4 552.845L288.333 636.498C288.333 636.498 299.964 685.328 305.038 734.82Z" fill="#1C1C1C"/>
<path d="M208.604 548.602C207.301 548.792 205.927 548.841 204.486 548.714C203.991 548.673 203.624 548.234 203.666 547.739C203.708 547.253 204.148 546.89 204.637 546.924C220.134 548.263 226.865 527.448 226.931 527.237C227.081 526.764 227.591 526.509 228.058 526.647C228.53 526.797 228.793 527.302 228.647 527.774C228.58 527.977 222.585 546.562 208.604 548.602Z" fill="white"/>
<path d="M304.788 735.448C304.305 735.518 303.853 735.189 303.774 734.703L273.44 552.511C273.388 552.211 273.499 551.9 273.73 551.694L292.846 534.643C293.215 534.311 293.783 534.342 294.116 534.715C294.448 535.087 294.412 535.652 294.04 535.985L275.292 552.704L305.542 734.412C305.621 734.897 305.293 735.362 304.804 735.446L304.788 735.448Z" fill="white"/>
<path d="M234.62 385.644C234.62 385.644 255.157 383.523 265.452 397.457C275.746 411.391 299.034 501.759 299.034 501.759C299.034 501.759 273.731 513.148 240.649 517.567C207.567 521.986 193.151 521.593 193.151 521.593L180.787 461.072C180.787 461.072 172.998 400.649 180.631 395.337C188.265 390.03 220.483 384.389 234.62 385.644Z" fill="white"/>
<path d="M199.204 372.679L204.053 392.292C204.053 392.292 206.22 395.542 219.6 394.987C228.377 394.625 231.928 391.058 231.928 391.058L228.282 381.421L224.713 372.026L202.867 372.591L199.204 372.679Z" fill="#FEC29E"/>
<path d="M202.869 372.583C203.051 373.108 203.409 373.688 203.908 374.335C210.72 383.046 223.24 382.192 228.285 381.414L224.716 372.019L202.869 372.583Z" fill="#292929"/>
<path d="M217.798 327.953C217.798 327.953 233.513 350.094 232.972 364.738C232.435 379.38 220.043 380.014 212.32 379.027C204.597 378.04 200.249 374.212 200.249 374.212C200.249 374.212 194.138 378.156 188.21 372.68C182.282 367.204 183.326 359.06 186.734 356.449C190.143 353.837 195.315 355.668 195.315 355.668L190.161 349.372C190.161 349.372 196.846 309.633 217.798 327.953Z" fill="#FEC29E"/>
<path d="M197.128 366.541C196.967 366.564 196.804 366.542 196.647 366.476L186.731 362.235C186.278 362.04 186.062 361.516 186.256 361.058C186.455 360.599 186.98 360.388 187.434 360.587L197.35 364.829C197.807 365.019 198.019 365.548 197.825 366.006C197.696 366.302 197.429 366.497 197.128 366.541Z" fill="#292929"/>
<path d="M189.466 368.364C189.112 368.416 188.742 368.247 188.554 367.912C188.31 367.48 188.466 366.935 188.898 366.691L194.051 363.796C194.482 363.552 195.031 363.708 195.271 364.14C195.515 364.572 195.359 365.117 194.927 365.361L189.775 368.256C189.678 368.312 189.574 368.349 189.466 368.364Z" fill="#292929"/>
<path d="M204.669 342.353C204.513 342.376 204.35 342.357 204.198 342.295C203.736 342.106 203.521 341.581 203.706 341.121C205.426 336.945 209.045 336.729 210.717 337.196C211.196 337.333 211.474 337.827 211.342 338.305C211.213 338.779 210.72 339.065 210.237 338.925C209.896 338.84 206.876 338.144 205.369 341.808C205.244 342.109 204.97 342.309 204.669 342.353Z" fill="#292929"/>
<path d="M222.479 336.867C222.302 336.892 222.113 336.865 221.94 336.777C219.687 335.623 217.991 337.273 217.922 337.346C217.573 337.7 217.01 337.707 216.656 337.354C216.302 337.006 216.291 336.443 216.639 336.089C217.548 335.157 219.996 333.759 222.763 335.175C223.204 335.401 223.38 335.939 223.154 336.385C223.012 336.654 222.76 336.826 222.479 336.867Z" fill="#292929"/>
<path d="M224.578 356.847C223.915 356.838 223.53 356.419 223.55 355.923C223.82 348.654 218.293 347.305 218.057 347.247C217.573 347.136 217.272 346.658 217.382 346.175C217.493 345.691 217.97 345.386 218.45 345.497C218.524 345.511 225.678 347.187 225.345 355.99C225.325 356.431 224.994 356.786 224.578 356.847Z" fill="#292929"/>
<path d="M224.679 346.316C224.316 346.369 223.941 346.192 223.756 345.849L221.5 341.643C221.264 341.206 221.429 340.664 221.866 340.428C222.292 340.197 222.846 340.36 223.082 340.797L225.338 345.003C225.575 345.44 225.409 345.982 224.972 346.219C224.879 346.27 224.778 346.302 224.679 346.316Z" fill="#292929"/>
<path d="M212.968 349.536C212.605 349.589 212.23 349.412 212.045 349.068L209.793 344.862C209.557 344.425 209.726 343.882 210.159 343.647C210.585 343.416 211.139 343.579 211.375 344.017L213.627 348.223C213.863 348.66 213.694 349.202 213.261 349.438C213.168 349.49 213.071 349.521 212.968 349.536Z" fill="#292929"/>
<path d="M221.099 333.003C221.099 333.003 218.126 329.568 213.48 330.709C208.833 331.85 206.96 335.98 206.96 335.98C206.96 335.98 210.989 343.708 205.743 349.682C200.496 355.656 195.319 355.667 195.319 355.667L190.327 355.102L185.265 348.894L194.858 330.491L209.68 316.615L220.435 322.772L221.099 333.003Z" fill="#202020"/>
<path d="M220.11 365.558C218.197 365.837 215.334 365.493 213.304 362.867C213.002 362.473 213.076 361.911 213.466 361.61C213.859 361.3 214.422 361.382 214.727 361.771C217.079 364.813 220.573 363.625 220.717 363.575C221.174 363.415 221.696 363.651 221.862 364.119C222.026 364.584 221.79 365.098 221.325 365.263C220.994 365.387 220.58 365.49 220.11 365.558Z" fill="#292929"/>
<path d="M98.4797 357.784C98.4797 357.784 93.155 343.917 84.5412 338.5C75.9274 333.083 66.2471 330.197 68.6827 335.778C71.1182 341.36 77.8063 350.085 77.8063 350.085L63.368 348.411C63.368 348.411 53.6918 345.524 46.8519 344.732C40.0121 343.941 38.6446 349.084 38.6446 349.084C38.6446 349.084 31.8048 348.292 29.2216 350.644C26.6384 352.996 29.2743 356.834 29.2743 356.834C29.2743 356.834 19.8513 358.394 24.4651 365.111C29.0789 371.827 49.5472 381.266 59.2281 384.157C68.9043 387.044 89.7289 386.805 89.7289 386.805C89.7289 386.805 108.652 388.136 98.4797 357.784Z" fill="#FEC29E"/>
<path d="M48.1302 368.458C47.8128 368.504 47.483 368.38 47.2783 368.102C46.9849 367.707 47.0669 367.144 47.4655 366.845L69.6891 350.398C70.0895 350.112 70.6513 350.182 70.9465 350.589C71.24 350.984 71.158 351.548 70.7594 351.846L48.5357 368.293C48.4134 368.379 48.2745 368.437 48.1302 368.458Z" fill="#1E1C1C"/>
<path d="M89.5262 368.5C89.4149 368.516 89.3005 368.512 89.1867 368.482C75.815 365.259 77.7706 352.085 77.7938 351.955C77.8707 351.472 78.3458 351.15 78.8215 351.207C79.3132 351.287 79.6451 351.744 79.5694 352.235C79.4913 352.709 77.8744 363.905 89.6092 366.732C90.0934 366.847 90.3918 367.334 90.2724 367.814C90.184 368.189 89.8807 368.448 89.5262 368.5Z" fill="#1E1C1C"/>
<path d="M352.418 353.079C352.418 353.079 357.209 339.02 365.613 333.279C374.014 327.54 383.577 324.283 381.356 329.955C379.135 335.626 372.785 344.599 372.785 344.599L387.152 342.377C387.152 342.377 396.71 339.121 403.517 338.069C410.32 337.017 411.883 342.103 411.883 342.103C411.883 342.103 418.685 341.051 421.359 343.301C424.028 345.551 421.542 349.489 421.542 349.489C421.542 349.489 431.018 350.687 426.663 357.576C422.308 364.464 402.215 374.676 392.652 377.933C383.093 381.189 362.277 381.746 362.277 381.746C362.277 381.746 343.414 383.8 352.418 353.079Z" fill="#FEC29E"/>
<path d="M403.364 361.808C403.149 361.839 402.923 361.792 402.727 361.656L379.892 346.07C379.485 345.793 379.378 345.232 379.655 344.821C379.932 344.414 380.493 344.302 380.905 344.588L403.74 360.174C404.147 360.451 404.254 361.013 403.977 361.423C403.832 361.642 403.603 361.773 403.364 361.808Z" fill="#1E1C1C"/>
<path d="M361.999 363.446C361.561 363.51 361.131 363.24 361.007 362.799C360.874 362.321 361.151 361.822 361.628 361.689C373.248 358.415 371.203 347.29 371.109 346.819C371.014 346.336 371.327 345.861 371.819 345.764C372.333 345.685 372.779 345.999 372.872 346.465C372.896 346.596 375.354 359.691 362.116 363.416C362.08 363.426 362.04 363.44 361.999 363.446Z" fill="#1E1C1C"/>
<path d="M66.0853 392.102C66.0853 392.102 95.4419 439.917 126.98 453.167C153.181 464.178 191.535 458.544 191.535 458.544L202.739 388.486C202.739 388.486 155.758 393.914 141.456 386.224C127.15 378.531 103.449 360.641 103.449 360.641L66.0853 392.102Z" fill="white"/>
<path d="M142.94 408.453C141.736 408.629 141.036 408.1 140.663 407.623C138.012 404.255 143.452 390.235 144.567 387.458C144.719 387.086 145.094 386.859 145.496 386.897C145.893 386.936 146.215 387.238 146.285 387.632C146.389 388.228 148.82 402.202 145.471 406.838C144.805 407.76 143.954 408.305 142.94 408.453ZM145.006 391.364C142.788 397.541 140.825 404.926 142.072 406.513C142.139 406.6 142.252 406.739 142.681 406.676C143.204 406.6 143.638 406.309 144.013 405.791C145.89 403.189 145.564 396.163 145.006 391.364Z" fill="#161616"/>
<path d="M243.8 385.942C243.8 385.942 275.785 392.9 302.235 387.731C328.686 382.562 343.908 352.82 343.908 352.82L382.875 385.295C382.875 385.295 369.563 435.344 328.62 451.621C287.672 467.9 249.995 445.793 249.995 445.793L243.8 385.942Z" fill="white"/>
<path d="M316.561 400.092C315.564 400.237 314.607 400.057 313.702 399.545C309.325 397.072 307.991 387.3 307.935 386.883C307.894 386.543 308.042 386.206 308.326 386.017C308.611 385.833 308.985 385.824 309.278 385.988C311.151 387.083 320.488 392.748 320.242 396.923C320.194 397.747 319.764 398.9 317.987 399.673C317.504 399.887 317.027 400.024 316.561 400.092ZM310.05 388.57C310.709 391.754 312.176 396.618 314.586 397.984C315.403 398.446 316.281 398.457 317.266 398.027C318.407 397.532 318.433 396.993 318.446 396.819C318.566 394.843 314.038 391.138 310.05 388.57Z" fill="#161616"/>
<path d="M284.866 457.693C284.433 457.756 284.002 457.49 283.875 457.05L274.929 426.3C274.788 425.828 275.064 425.324 275.541 425.187C276.029 425.07 276.521 425.322 276.654 425.804L285.601 456.554C285.741 457.026 285.465 457.53 284.988 457.667C284.948 457.677 284.907 457.687 284.866 457.693Z" fill="#161616"/>
<path d="M221.812 395.95C212.334 397.333 204.119 393.323 203.655 393.088C203.211 392.871 203.03 392.329 203.252 391.884C203.469 391.439 204.006 391.251 204.456 391.48C204.606 391.555 219.284 398.707 231.422 390.308C231.825 390.034 232.389 390.124 232.673 390.538C232.956 390.947 232.852 391.505 232.443 391.788C228.943 394.206 225.292 395.442 221.812 395.95Z" fill="#161616"/>
<path d="M199.687 400.174C199.464 400.207 199.229 400.153 199.036 400.012C198.632 399.726 198.541 399.162 198.828 398.758L201.757 394.651C202.047 394.246 202.607 394.156 203.011 394.443C203.415 394.729 203.505 395.293 203.219 395.697L200.29 399.804C200.14 400.015 199.918 400.14 199.687 400.174Z" fill="#161616"/>
<path d="M211.838 406.282C211.767 406.292 211.692 406.295 211.619 406.284C211.124 406.239 210.765 405.798 210.811 405.303L211.329 400.053C211.379 399.561 211.825 399.185 212.31 399.249C212.805 399.294 213.165 399.739 213.119 400.23L212.6 405.476C212.561 405.903 212.233 406.224 211.838 406.282Z" fill="#161616"/>
<path d="M228.593 403.837C228.25 403.887 227.896 403.737 227.703 403.424L225.153 399.341C224.89 398.921 225.015 398.368 225.436 398.104C225.852 397.837 226.409 397.962 226.673 398.387L229.222 402.47C229.486 402.89 229.36 403.443 228.94 403.707C228.832 403.777 228.712 403.82 228.593 403.837Z" fill="#161616"/>
<path d="M238.095 397.282C237.938 397.305 237.771 397.283 237.614 397.221L232.849 395.205C232.391 395.011 232.179 394.486 232.37 394.029C232.563 393.567 233.094 393.367 233.546 393.55L238.311 395.562C238.769 395.756 238.98 396.281 238.79 396.738C238.67 397.042 238.396 397.238 238.095 397.282Z" fill="#161616"/>
<path d="M73.2679 403.469C72.9752 403.511 72.6697 403.409 72.4621 403.169C72.1375 402.792 72.1735 402.23 72.5461 401.898L112.493 367.016C112.867 366.696 113.433 366.735 113.76 367.1C114.084 367.478 114.048 368.039 113.676 368.372L73.7292 403.254C73.5911 403.375 73.4328 403.445 73.2679 403.469Z" fill="#161616"/>
<path d="M107.015 374.002C106.764 374.038 106.497 373.968 106.294 373.787L97.3521 365.95C96.9805 365.626 96.9434 365.054 97.2681 364.683C97.5982 364.319 98.1643 364.274 98.5359 364.599L107.477 372.435C107.849 372.76 107.886 373.331 107.561 373.703C107.413 373.872 107.222 373.971 107.015 374.002Z" fill="#161616"/>
<path d="M95.949 383.665C95.6686 383.706 95.3684 383.611 95.1586 383.385L87.0012 374.545C86.6654 374.178 86.6885 373.614 87.0516 373.275C87.4194 372.939 87.9822 372.958 88.3221 373.325L96.4801 382.169C96.8159 382.537 96.7928 383.1 96.4297 383.439C96.2881 383.565 96.1221 383.64 95.949 383.665Z" fill="#161616"/>
<path d="M84.2195 393.913C83.898 393.96 83.5635 393.832 83.3623 393.55L76.1507 383.545C75.8607 383.145 75.951 382.58 76.3549 382.29C76.75 381.996 77.3148 382.087 77.61 382.494L84.8216 392.499C85.1115 392.899 85.0213 393.463 84.6174 393.754C84.4951 393.839 84.3597 393.893 84.2195 393.913Z" fill="#161616"/>
<path d="M377.196 401.663C376.936 401.7 376.664 401.626 376.455 401.434L336.27 364.248C335.905 363.91 335.885 363.34 336.224 362.975C336.554 362.611 337.126 362.582 337.492 362.925L377.677 400.11C378.042 400.449 378.061 401.014 377.724 401.383C377.578 401.539 377.394 401.634 377.196 401.663Z" fill="#161616"/>
<path d="M345.706 372.525C345.512 372.554 345.309 372.516 345.13 372.416C344.698 372.167 344.55 371.616 344.799 371.188L351.568 359.404C351.816 358.964 352.36 358.83 352.795 359.07C353.227 359.318 353.375 359.869 353.126 360.297L346.357 372.081C346.213 372.334 345.97 372.487 345.706 372.525Z" fill="#161616"/>
<path d="M355.413 380.878C355.236 380.904 355.051 380.876 354.879 380.792C354.434 380.57 354.253 380.028 354.479 379.583L360.743 367.11C360.969 366.665 361.508 366.493 361.948 366.711C362.393 366.933 362.569 367.475 362.348 367.92L356.083 380.393C355.95 380.66 355.694 380.837 355.413 380.878Z" fill="#161616"/>
<path d="M366.945 392.179C366.792 392.202 366.634 392.183 366.482 392.125C366.022 391.943 365.798 391.42 365.979 390.956L371.781 376.408C371.967 375.952 372.485 375.724 372.946 375.91C373.406 376.095 373.63 376.614 373.449 377.078L367.647 391.626C367.527 391.93 367.254 392.134 366.945 392.179Z" fill="#161616"/>
<path d="M237.802 506.653C212.657 510.322 191.29 510.737 190.908 510.746C190.412 510.751 190.005 510.36 189.996 509.864C189.99 509.364 190.376 508.975 190.882 508.952C191.558 508.942 259.375 507.614 295.392 488.746C295.816 488.503 296.373 488.683 296.606 489.124C296.834 489.563 296.665 490.105 296.226 490.333C280.118 498.773 257.769 503.739 237.802 506.653Z" fill="#161616"/>
<path d="M202.898 522.218C202.473 522.28 202.053 522.026 201.915 521.604L198.123 509.812C197.97 509.337 198.229 508.832 198.703 508.679C199.148 508.525 199.679 508.789 199.832 509.259L203.624 521.051C203.778 521.526 203.519 522.031 203.044 522.184C202.992 522.2 202.947 522.211 202.898 522.218Z" fill="#161616"/>
<path d="M219.079 520.975C218.65 521.038 218.225 520.78 218.09 520.345L214.711 509.284C214.567 508.812 214.834 508.306 215.31 508.165C215.794 508.019 216.287 508.279 216.433 508.763L219.812 519.824C219.956 520.296 219.689 520.802 219.213 520.943C219.169 520.962 219.124 520.969 219.079 520.975Z" fill="#161616"/>
<path d="M233.958 518.805C233.48 518.875 233.028 518.549 232.945 518.068L230.977 506.802C230.893 506.313 231.217 505.849 231.705 505.761C232.208 505.687 232.66 506.013 232.743 506.493L234.711 517.76C234.795 518.249 234.471 518.713 233.983 518.801C233.975 518.802 233.966 518.804 233.958 518.805Z" fill="#161616"/>
<path d="M250.223 516.436C249.786 516.499 249.355 516.23 249.232 515.789L246.068 504.696C245.931 504.219 246.208 503.72 246.689 503.587C247.133 503.484 247.662 503.727 247.799 504.208L250.963 515.3C251.1 515.777 250.823 516.276 250.342 516.41C250.306 516.424 250.265 516.43 250.223 516.436Z" fill="#161616"/>
<path d="M265.349 513.1C264.859 513.171 264.4 512.83 264.329 512.339L262.838 502.123C262.766 501.632 263.108 501.174 263.599 501.102C264.089 501.031 264.547 501.372 264.619 501.863L266.11 512.079C266.181 512.57 265.84 513.028 265.349 513.1Z" fill="#161616"/>
<path d="M278.935 509.911C278.481 509.977 278.057 509.664 277.991 509.211L276.266 497.391C276.2 496.937 276.513 496.517 276.971 496.45C277.424 496.384 277.849 496.696 277.915 497.15L279.64 508.97C279.702 509.424 279.388 509.845 278.935 509.911Z" fill="#161616"/>
<path d="M292.185 505.463C291.707 505.533 291.255 505.207 291.173 504.726L289.042 492.494C288.954 492.006 289.282 491.541 289.77 491.453C290.201 491.289 290.724 491.697 290.808 492.186L292.938 504.418C293.026 504.906 292.698 505.371 292.21 505.459C292.202 505.46 292.193 505.462 292.185 505.463Z" fill="#161616"/>
<path d="M309.996 284.833L320.58 357.683C320.989 360.485 323.889 362.382 327.064 361.919L443.913 344.924C447.087 344.46 449.329 341.817 448.92 339.015L438.336 266.165C437.927 263.362 435.027 261.466 431.852 261.929L315.004 278.924C311.833 279.387 309.592 282.034 309.996 284.833Z" fill="#FFBE1D"/>
<path d="M353.981 278.318L364.581 351.279C364.991 354.086 367.326 356.069 369.812 355.706L461.193 342.416C463.671 342.055 465.355 339.489 464.946 336.682L454.345 263.721C453.936 260.914 451.592 258.933 449.114 259.294L357.734 272.584C355.247 272.947 353.571 275.511 353.981 278.318Z" fill="#D7A21D"/>
<path d="M415.232 264.433L398.246 266.911L410.343 349.813L427.329 347.334L415.232 264.433Z" fill="#B58610"/>
<path d="M336.66 275.852L324.819 277.58L336.917 360.482L348.757 358.754L336.66 275.852Z" fill="#B58610"/>
<path d="M454.563 326.243C455.157 326.156 455.569 325.604 455.483 325.014L448.782 278.921C448.696 278.328 448.143 277.916 447.553 278.002C446.96 278.088 446.548 278.641 446.634 279.231L453.334 325.323C453.421 325.917 453.974 326.329 454.563 326.243Z" fill="white"/>
<path d="M314.774 181.008C314.432 181.118 306.237 183.737 296.703 185.43C282.962 187.871 273.893 187.14 268.974 183.207C266.918 181.56 264.565 178.502 265.036 173.288C265.666 166.325 269.287 163.007 272.215 161.443C281.472 156.512 297.242 162.017 306.74 166.246C303.71 155.326 300.14 137.567 306.336 130.266C308.024 128.275 311.171 126.097 316.577 127.017C321.117 127.789 324.529 130.2 326.443 133.999C332.547 146.102 321.311 169.311 319.712 172.497L317.008 178.965C316.819 179.414 316.545 179.813 316.207 180.146C315.806 180.535 315.318 180.835 314.774 181.008ZM272.246 173.938C272.054 176.087 272.77 176.973 273.496 177.556C278.578 181.626 296.034 178.876 308.82 175.247C298.713 170.092 282.407 164.215 275.614 167.834C275.191 168.058 274.72 168.358 274.263 168.808C273.346 169.712 272.49 171.223 272.246 173.938ZM311.859 134.949C308.225 139.228 310.872 154.65 314.429 166.769C318.61 157.634 323.099 143.439 319.977 137.256C319.428 136.165 318.351 134.663 315.365 134.155C313.305 133.805 312.461 134.338 312.052 134.736C311.975 134.812 311.909 134.888 311.859 134.949Z" fill="#FFBE1D"/>
<path d="M240.74 248.831L255.516 263.839C256.985 265.329 259.38 265.349 260.866 263.884L357.379 168.849C358.868 167.38 358.888 164.985 357.42 163.496L342.644 148.487C341.178 147.001 338.786 146.984 337.293 148.449L240.781 243.484C239.295 244.949 239.275 247.345 240.74 248.831Z" fill="#E1AE2D"/>
<path d="M271.197 218.84L285.974 233.848C287.442 235.338 289.615 235.578 290.822 234.387L369.413 157.001C370.626 155.804 370.421 153.632 368.953 152.136L354.176 137.128C352.714 135.644 350.541 135.405 349.327 136.601L270.737 213.987C269.53 215.178 269.735 217.357 271.197 218.84Z" fill="#FFCE55"/>
<path d="M318.8 165.975L306.575 178.026L327.011 198.758L339.237 186.707L318.8 165.975Z" fill="#B58610"/>
<path d="M262.564 222.025L254.042 230.425L274.139 250.813L282.661 242.413L262.564 222.025Z" fill="#B58610"/>
<path d="M397.925 262.723C401.406 259.755 404.886 256.787 408.366 253.82C414.469 248.616 420.66 243.312 425.02 236.582C427.01 233.51 428.606 229.575 427.004 226.285C425.757 223.727 422.567 222.298 419.828 223.071C417.091 223.844 415.118 226.73 415.393 229.562" stroke="#94B9DE" stroke-width="1.23333" stroke-miterlimit="10"/>
<path d="M433.09 239.526L428.631 257.695L444.026 242.309L433.09 239.526Z" fill="#CC8911"/>
<path d="M378.253 165.863L404.997 124.476L407.119 128.218L378.253 165.863Z" fill="#DEB843"/>
<path d="M366.15 243.315C365.048 242.829 340.457 201.323 340.457 201.323L336.488 204.33L366.15 243.315Z" fill="#DEB843"/>
<path d="M380.756 143.036L384.552 130.689L379.873 130.08L380.756 143.036Z" fill="#94B9DE"/>
<path d="M459.406 213.683L486.138 181.966L491.229 187.034L459.406 213.683Z" fill="#94B9DE"/>
<path d="M461.065 231.488C462.796 231.37 499.431 217.745 499.431 217.745L499.941 225.237L461.065 231.488Z" fill="#C1664A"/>
<path d="M394.4 185.694C394.873 177.434 399.263 169.483 406.002 164.682C408.13 163.166 410.65 161.915 413.25 162.182C415.849 162.449 418.356 164.756 418.015 167.347C417.665 169.996 414.348 171.569 411.856 170.602C409.364 169.636 407.949 166.779 408.107 164.111C408.264 161.444 409.734 159 411.592 157.08C416.918 151.577 425.853 149.965 432.766 153.26" stroke="#DEB843" stroke-width="1.23333" stroke-miterlimit="10"/>
<path d="M464.969 192.086C470.631 185.039 477.288 178.793 484.682 173.591C487.194 171.823 489.848 170.15 492.822 169.377C495.795 168.603 499.166 168.843 501.646 170.656C504.126 172.47 505.375 176.063 503.975 178.798C502.973 180.755 500.662 181.991 498.495 181.617C496.329 181.242 494.535 179.206 494.554 177.007C494.574 174.809 496.505 172.765 498.703 172.732" stroke="#94B9DE" stroke-width="1.23333" stroke-miterlimit="10"/>
<path d="M356.795 251.631C354.023 242.243 346.486 234.399 337.215 231.255C334.949 230.486 332.531 229.982 330.165 230.338C327.8 230.695 325.488 232.031 324.427 234.176C323.451 236.149 323.688 238.659 324.996 240.43C326.305 242.201 328.62 243.163 330.802 242.864C332.781 242.593 334.675 241.185 335.107 239.233C335.538 237.282 334.11 235.003 332.115 234.891C330.119 234.778 328.437 237.364 329.597 238.991" stroke="#94B9DE" stroke-width="0.822222" stroke-miterlimit="10"/>
<path d="M307.003 265.184C300.825 263.292 294.113 265.196 288.268 267.95C286.161 268.943 284.081 270.064 282.363 271.637C280.645 273.21 279.301 275.286 278.982 277.594C278.664 279.901 279.506 282.43 281.396 283.791C283.287 285.152 286.212 285.035 287.748 283.283C289.283 281.531 288.799 278.32 286.675 277.363" stroke="#94B9DE" stroke-width="1.23333" stroke-miterlimit="10"/>
<path d="M458.41 243.26C468.644 242.184 479.293 246.515 485.874 254.427C487.884 256.845 489.573 259.697 489.813 262.833C490.052 265.968 488.516 269.389 485.613 270.597C482.709 271.804 478.727 269.899 478.485 266.764C478.255 263.786 481.317 261.364 484.302 261.235C487.286 261.106 490.078 262.626 492.574 264.267C500.824 269.689 507.845 276.971 512.964 285.412" stroke="#94B9DE" stroke-width="1.23333" stroke-miterlimit="10"/>
<path d="M411.377 137.098L412.419 139.69L415.207 139.5L413.063 141.293L414.105 143.886L411.739 142.4L409.595 144.193L410.276 141.483L407.909 139.998L410.696 139.808L411.377 137.098Z" fill="#94B9DE"/>
<path d="M440.258 199.391L441.299 201.983L444.087 201.793L441.943 203.585L442.986 206.178L440.619 204.693L438.475 206.485L439.156 203.775L436.789 202.29L439.577 202.1L440.258 199.391Z" fill="#94B9DE"/>
<path d="M466.506 253.488L467.548 256.081L470.336 255.891L468.192 257.683L469.234 260.276L466.868 258.791L464.724 260.583L465.405 257.873L463.038 256.389L465.825 256.199L466.506 253.488Z" fill="#EEC430"/>
<path d="M296.077 238.447L297.825 240.627L300.438 239.639L298.904 241.975L300.652 244.155L297.956 243.418L296.423 245.754L296.291 242.962L293.596 242.225L296.209 241.237L296.077 238.447Z" fill="#94B9DE"/>
<path d="M328.928 211.743L329.97 214.336L332.758 214.146L330.614 215.938L331.657 218.531L329.289 217.046L327.146 218.838L327.826 216.128L325.46 214.643L328.248 214.453L328.928 211.743Z" fill="#EEC430"/>
<path d="M496.188 196.045L497.231 198.638L500.018 198.448L497.874 200.239L498.917 202.832L496.55 201.347L494.406 203.14L495.087 200.429L492.72 198.945L495.508 198.755L496.188 196.045Z" fill="#EEC430"/>
<path d="M387.096 257.039L388.138 259.631L390.926 259.441L388.782 261.234L389.824 263.826L387.457 262.341L385.314 264.133L385.995 261.424L383.627 259.939L386.415 259.749L387.096 257.039Z" fill="#EEC430"/>
<path d="M426.282 110.17L428.647 116.055L434.975 115.624L430.109 119.692L432.475 125.577L427.102 122.207L422.236 126.275L423.781 120.123L418.409 116.753L424.737 116.322L426.282 110.17Z" fill="#C1664A"/>
<path d="M384.638 192.874L386.329 197.079L390.85 196.771L387.373 199.678L389.064 203.882L385.224 201.474L381.747 204.381L382.852 199.986L379.013 197.577L383.534 197.269L384.638 192.874Z" fill="#C1664A"/>
<path d="M454.017 161.107L455.479 164.744L459.389 164.477L456.382 166.992L457.844 170.629L454.524 168.545L451.516 171.06L452.472 167.258L449.151 165.175L453.061 164.908L454.017 161.107Z" fill="#9873FF"/>
<path d="M357.171 195.776L358.632 199.413L362.543 199.147L359.536 201.661L360.998 205.298L357.677 203.215L354.67 205.729L355.625 201.928L352.305 199.844L356.215 199.578L357.171 195.776Z" fill="#9873FF"/>
<path d="M308.125 273.684L307.628 274.355L289.083 299.39C289.083 299.39 295.75 300.113 295.984 299.42" fill="#EEC430"/>
<path d="M272.435 267.581L258.096 273.535L261.629 277.136L272.435 267.581Z" fill="#9873FF"/>
<path d="M398.557 231.165L403.822 185.359L410.211 188.339L398.557 231.165Z" fill="#9873FF"/>
<path d="M445.861 219.963L452.625 205.353L455.622 207.304L445.861 219.963Z" fill="#9873FF"/>
<path d="M497.667 237.805L523.5 249.409L521.653 255.439L497.667 237.805Z" fill="#9873FF"/>
<path d="M318.844 245.589C318.309 245.049 306.341 240.378 306.341 240.378L306.741 245.195L318.844 245.589Z" fill="#C1664A"/>
<path d="M276.371 296.017L262.816 308.07L268.465 309.308L276.371 296.017Z" fill="#C1664A"/>
<path d="M375.919 266.781C373.717 264.184 371.523 261.503 370.22 258.359C368.917 255.213 368.609 251.49 370.178 248.468C371.747 245.448 375.502 243.482 378.709 244.622C380.449 245.24 381.91 246.833 381.995 248.678C382.08 250.522 380.479 252.383 378.638 252.248C377.422 252.158 376.37 251.279 375.777 250.215C375.183 249.15 374.976 247.916 374.84 246.705C374.143 240.479 375.106 234.075 377.603 228.33" stroke="#C1664A" stroke-width="1.23333" stroke-miterlimit="10"/>
<path d="M345.397 271.023C344.465 268.54 343.534 266.056 342.603 263.573C341.96 261.856 341.299 260.107 340.157 258.672C339.016 257.236 337.296 256.138 335.464 256.21C333.631 256.281 331.834 257.815 331.893 259.647C331.922 260.534 332.412 261.429 333.217 261.8C334.023 262.172 335.112 261.899 335.536 261.119C336.006 260.255 335.539 259.123 334.758 258.525C333.977 257.927 332.97 257.733 332.002 257.557C326.447 256.541 320.892 255.525 315.337 254.51" stroke="#DEB843" stroke-width="1.23333" stroke-miterlimit="10"/>
<rect x="101.692" y="538.674" width="443.633" height="19.5583" fill="#373737"/>
</g>
<rect x="101.4" y="538.724" width="443.633" height="19.5583" fill="#373737"/>
</g>
</svg>
