<svg width="96" height="46" viewBox="0 0 96 46" fill="none" xmlns="http://www.w3.org/2000/svg">
<path d="M41.0112 21.7361C41.731 21.8071 42.3679 21.9728 42.9775 21.9102C44.6872 21.7346 46.3906 21.492 48.0865 21.2236C49.5893 20.9858 51.0844 20.8426 52.6049 21.0525C55.1684 21.4067 56.9015 22.7259 57.9017 24.909C58.8643 27.0096 59.1173 29.2264 59.1244 31.4772C59.1363 35.1702 59.12 38.8635 59.1327 42.5566C59.1363 43.6278 59.2427 44.6868 60.1486 45.5663C58.234 45.5663 56.3842 45.5663 54.4707 45.5663C54.4707 42.6151 54.4707 39.6779 54.4707 36.7409C54.4292 36.7348 54.3881 36.7289 54.3467 36.7228C54.3094 36.8423 54.2619 36.9601 54.2362 37.0816C53.8379 38.9552 53.315 40.7933 52.1704 42.4128C50.3265 45.0219 47.3855 46.3676 44.137 45.8594C39.7147 45.1674 37.7979 40.2021 40.6472 36.9217C41.2162 36.2665 41.9108 35.6697 42.6538 35.1853C44.5513 33.948 46.5176 32.8017 48.4392 31.5956C50.0964 30.5553 51.6968 29.4526 52.7709 27.8319C53.7015 26.4279 53.9776 24.9184 53.5561 23.3303C53.0007 21.2379 50.8662 20.5609 49.0698 21.9235C48.108 22.6531 47.2587 23.5083 46.3434 24.2918C45.6827 24.8571 44.9535 25.2813 43.9923 25.2721C43.3537 25.2662 42.824 25.0798 42.3947 24.6605C41.5728 23.8574 41.1822 22.8776 41.0112 21.7361ZM54.1481 25.6145C53.8434 27.4774 52.7971 28.8919 51.3725 30.0977C50.2831 31.0198 49.1592 31.9067 48.045 32.8035C46.8659 33.7524 45.76 34.7736 44.9996 36.0423C43.8133 38.0218 43.62 40.1064 44.6919 42.1705C46.0415 44.7685 49.1697 45.0839 51.1623 42.8666C52.495 41.3837 53.1775 39.6181 53.6614 37.7749C54.6157 34.1414 54.5237 30.4557 54.2881 26.7639C54.2638 26.3799 54.1959 25.9978 54.1481 25.6145Z" fill="#F4F4F4"/>
<path d="M37.7292 45.9651C35.4099 45.9651 33.2042 45.9651 30.9197 45.9651C31.8505 45.0435 31.9361 43.937 31.9367 42.8163C31.9408 34.4707 31.9405 26.1255 31.9339 17.78C31.9336 17.303 31.9411 16.8063 31.8082 16.3533C31.6282 15.7396 31.3152 15.1592 31.0384 14.5157C32.9 13.7871 34.8793 12.9268 36.6863 11.5312C36.6863 11.8622 36.6863 12.0846 36.6863 12.307C36.6863 22.3571 36.686 32.4069 36.6871 42.457C36.6871 42.7764 36.6943 43.0961 36.7064 43.4153C36.7418 44.3349 36.9315 45.2065 37.7292 45.9651Z" fill="#F4F4F4"/>
<path d="M62.5454 37.681C62.4125 39.0406 62.6631 40.3422 63.2724 41.5712C64.2797 43.6031 65.8543 45.0464 68.3098 45.4716C69.5486 45.6861 70.797 45.6463 72.0068 45.2717C75.2182 44.2778 76.4297 40.871 74.5407 38.1621C73.906 37.2517 73.0945 36.4987 72.0855 35.9527C70.0159 34.8327 67.9115 33.7663 65.8593 32.6202C65.0622 32.1749 64.2844 31.6473 63.6397 31.0303C61.2268 28.7206 61.0647 25.0592 63.1854 22.7305C64.6915 21.0766 66.6432 20.6621 68.8459 20.9632C69.7162 21.0822 70.5793 21.2599 71.4356 21.4509C73.0155 21.8031 74.6025 21.9509 76.3498 21.6381C75.8758 22.9553 75.4723 24.1915 74.241 24.9685C73.498 25.4374 72.6128 25.2987 72.0184 24.646C71.4629 24.0362 70.9868 23.3654 70.4449 22.7446C69.7856 21.9895 69.0622 21.3291 67.919 21.2229C65.0395 20.955 63.1862 23.0745 64.2026 25.5893C64.4581 26.2211 64.9481 26.881 65.5317 27.2689C66.96 28.218 68.4943 29.0334 70.0076 29.869C71.2914 30.5781 72.6581 31.168 73.896 31.9371C76.9881 33.8585 78.3813 36.5426 77.7551 39.991C77.1939 43.0812 74.3172 45.4849 70.876 45.8618C68.9439 46.0735 67.0426 45.9757 65.1876 45.4269C63.5455 44.9412 62.2733 43.9974 61.4657 42.5835C60.7631 41.3536 60.6816 40.0572 61.3285 38.7893C61.5596 38.336 61.9911 37.9703 62.3314 37.5646C62.4023 37.6036 62.4738 37.6422 62.5454 37.681Z" fill="#F4F4F4"/>
<path d="M94.339 21.7575C94.046 22.7667 93.6035 23.7657 92.7904 24.5749C91.9192 25.4416 90.7699 25.4013 89.9573 24.4953C89.272 23.7315 88.6583 22.9117 87.9584 22.1602C86.9953 21.1263 85.717 20.959 84.3788 21.2971C81.9745 21.9041 81.1514 24.6914 82.8517 26.5752C83.4171 27.2016 84.1661 27.7294 84.9287 28.152C86.8199 29.2003 88.7708 30.1564 90.6912 31.16C92.1405 31.9174 93.4519 32.8226 94.4446 34.0908C97.88 38.4799 95.3414 44.6135 89.6038 45.7059C87.2433 46.1554 84.8862 46.0486 82.6534 45.1725C80.6862 44.4008 79.3259 43.065 79.011 41.0325C78.8268 39.8438 79.0914 38.731 80.0841 37.8566C80.1529 37.7958 80.2352 37.7471 80.3156 37.699C80.3622 37.6712 80.4178 37.6564 80.5719 37.5943C80.5719 37.817 80.5705 37.9948 80.5722 38.1725C80.592 40.5494 81.4585 42.5898 83.4323 44.1592C85.4444 45.7591 88.7995 46.0272 91.1069 44.8101C93.503 43.5463 94.199 40.4322 92.5987 38.1339C91.9535 37.2072 91.1237 36.4483 90.0968 35.8939C88.0421 34.7846 85.9698 33.7036 83.9112 32.6007C82.8569 32.0359 81.9209 31.3418 81.1547 30.4508C78.9721 27.9118 79.3947 23.9917 82.0576 21.9557C83.5154 20.841 85.1958 20.6983 86.9517 20.9439C88.5597 21.1689 90.1463 21.5279 91.756 21.7386C92.5771 21.8464 93.4284 21.7575 94.339 21.7575Z" fill="#F4F4F4"/>
<path d="M19.806 45.9803L15.3782 45.9719C15.3431 45.9719 15.3149 45.9456 15.3149 45.9131L15.3354 36.6762C15.3354 36.6437 15.3638 36.6177 15.3989 36.6177L19.8267 36.6261C19.8618 36.6261 19.89 36.6524 19.89 36.6848L19.8696 45.9218C19.8693 45.9543 19.8408 45.9806 19.806 45.9803Z" fill="#F4F4F4"/>
<path d="M30.1283 21.7259C30.0399 20.5724 29.4856 19.3278 28.3645 18.6735C28.1855 18.5755 27.993 18.4958 27.7858 18.4363C27.5787 18.377 27.3572 18.338 27.121 18.3219C26.8688 18.291 26.6092 18.2762 26.346 18.2754C25.5563 18.2736 24.734 18.399 23.9875 18.5972C23.5638 18.6643 23.1392 18.7297 22.7144 18.793C21.4398 18.9828 20.1609 19.1521 18.8788 19.2838C18.3131 19.3421 17.724 19.2034 17.0669 19.1263C16.9893 19.1171 16.9233 19.1802 16.9351 19.2517C17.1169 20.3326 17.5083 21.2644 18.2963 22.0341C18.7255 22.4534 19.2552 22.6396 19.8938 22.6457C20.855 22.6546 21.5842 22.2307 22.2449 21.6654C22.5501 21.4041 22.8478 21.1352 23.1448 20.8653C23.442 20.5956 23.7381 20.3252 24.0402 20.0614C24.7509 19.3891 25.6392 18.718 26.6946 18.5974C26.9056 18.5734 27.1235 18.5714 27.3478 18.5959C27.506 18.6143 27.6646 18.6554 27.8179 18.7151C30.1192 20.0601 30.0399 23.2813 28.6725 25.2057C28.5382 25.4082 28.3957 25.6028 28.2457 25.79C27.197 27.101 25.7905 28.0591 24.3404 28.9692C22.4189 30.1756 20.4523 31.3216 18.5551 32.5589C17.8121 33.0433 17.1174 33.6401 16.5485 34.2953C15.9284 35.0091 15.5351 35.8028 15.3431 36.6148C15.3323 36.6605 15.3508 36.7111 15.3942 36.7351C15.4011 36.7389 15.4075 36.743 15.4133 36.7476C15.4373 36.7662 15.466 36.7793 15.4975 36.7787C16.1838 36.7711 16.8705 36.7655 17.5569 36.7621C18.2957 36.7586 19.0348 36.7568 19.7737 36.7563C19.8383 36.7563 19.89 36.7085 19.8914 36.6488C19.9187 35.554 20.2689 34.4703 20.9006 33.4159C21.6607 32.1472 22.7669 31.126 23.946 30.1771C25.0602 29.2805 26.1841 28.3934 27.2735 27.4713C27.8076 27.019 28.2888 26.5377 28.6973 26.0142C28.8335 25.8398 28.9616 25.6605 29.0812 25.4761C29.4856 24.745 29.9607 24.0129 30.0397 23.1345C30.0397 23.1345 30.1189 22.6219 30.117 22.2057C30.1264 22.0487 30.1333 21.8885 30.1283 21.7259Z" fill="#F4F4F4"/>
<path d="M20.8216 32.2802H19.1484C19.1102 32.3847 19.0566 32.4756 18.9835 32.5343C18.1996 33.1638 17.2732 33.5639 16.2175 33.5841C13.933 33.6275 12.0441 32.7672 10.4587 31.304C8.80835 29.781 7.7665 27.9102 6.98788 25.9046C6.05928 23.5121 5.65245 21.0315 5.53258 18.4993C5.31686 13.9447 5.94412 9.53227 8.14795 5.39999C9.04672 3.71434 10.199 2.1722 11.951 1.13976C13.5483 0.198242 15.5963 -0.143174 17.1052 1.60861C17.5237 2.09431 17.9626 2.56494 18.3855 3.04733C18.929 3.66735 19.4229 4.33001 20.0151 4.90662C21.0166 5.88185 22.4725 5.89386 23.35 4.90279C24.3059 3.82312 24.6788 2.49574 25.0141 1.08563C24.8105 1.08563 24.7133 1.06622 24.6294 1.08844C23.0732 1.50162 21.5497 1.25213 20.0247 0.917347C18.6636 0.618573 17.3099 0.227612 15.9278 0.0835877C11.7593 -0.350784 8.22224 0.91428 5.3406 3.7271C2.55673 6.44442 1.05666 9.73272 0.360351 13.375C-0.353362 17.1081 0.00682809 20.7547 1.31908 24.34C2.40401 27.304 4.2134 29.8244 6.98235 31.6017C10.7824 34.041 14.9777 34.5925 19.4295 33.306C19.8916 33.1725 20.3556 33.0417 20.8213 32.9169V32.2802H20.8216Z" fill="#F4F4F4"/>
<path d="M12.7714 45.4676C12.7714 45.4676 14.2461 45.3815 15.0004 44.2671C15.3838 43.7005 15.3479 42.8943 15.3153 41.644H17.5895V45.9755H12.7656L12.7714 45.4676Z" fill="#F4F4F4"/>
<path d="M22.4333 45.4676C22.4333 45.4676 20.9584 45.3815 20.2044 44.2671C19.821 43.7005 19.8569 42.8943 19.8895 41.644H17.6152V45.9755H22.4391L22.4333 45.4676Z" fill="#F4F4F4"/>
<path d="M17.6148 45.9761H10.5608C10.5608 45.9761 11.0221 45.1715 13.1762 44.5939C15.3303 44.0162 15.3336 43.6163 15.332 42.5913H17.6015L17.6148 45.9761Z" fill="#F4F4F4"/>
<path d="M17.6006 45.9761H24.6546C24.6546 45.9761 24.1933 45.1715 22.0392 44.5939C19.8851 44.0162 19.8817 43.6163 19.8834 42.5913H17.6138L17.6006 45.9761Z" fill="#F4F4F4"/>
</svg>
