<svg width="103" height="54" viewBox="0 0 103 54" fill="none" xmlns="http://www.w3.org/2000/svg">
<path d="M44.1815 25.4446C44.9483 25.5259 45.6268 25.7158 46.2762 25.6441C48.0976 25.4428 49.9122 25.1648 51.7189 24.8573C53.3199 24.5849 54.9126 24.4207 56.5325 24.6612C59.2634 25.0671 61.1098 26.5787 62.1752 29.0803C63.2007 31.4873 63.4702 34.0275 63.4779 36.6065C63.4905 40.8383 63.4732 45.0703 63.4867 49.3021C63.4905 50.5296 63.6038 51.7431 64.5689 52.7508C62.5292 52.7508 60.5587 52.7508 58.5201 52.7508C58.5201 49.3691 58.5201 46.0035 58.5201 42.6382C58.476 42.6311 58.4321 42.6244 58.388 42.6174C58.3483 42.7543 58.2977 42.8892 58.2703 43.0285C57.846 45.1754 57.289 47.2816 56.0696 49.1374C54.1052 52.127 50.9721 53.669 47.5115 53.0867C42.8003 52.2938 40.7582 46.6042 43.7937 42.8453C44.3998 42.0945 45.1399 41.4107 45.9314 40.8556C47.9528 39.4379 50.0476 38.1243 52.0946 36.7423C53.8601 35.5502 55.565 34.2867 56.7093 32.4295C57.7007 30.8207 57.9949 29.0911 57.5459 27.2713C56.9541 24.8737 54.6802 24.098 52.7664 25.6593C51.7419 26.4953 50.8371 27.4753 49.8619 28.373C49.1581 29.0209 48.3813 29.5069 47.3573 29.4964C46.677 29.4896 46.1126 29.276 45.6554 28.7956C44.7797 27.8753 44.3636 26.7525 44.1815 25.4446ZM58.1764 29.8888C57.8519 32.0234 56.7373 33.6441 55.2195 35.0259C54.059 36.0825 52.8617 37.0987 51.6748 38.1264C50.4186 39.2137 49.2404 40.3839 48.4304 41.8376C47.1666 44.1059 46.9607 46.4945 48.1026 48.8597C49.5403 51.8367 52.8729 52.1981 54.9956 49.6573C56.4154 47.9581 57.1425 45.935 57.658 43.8229C58.6746 39.6594 58.5766 35.4361 58.3256 31.2058C58.2997 30.7657 58.2273 30.328 58.1764 29.8888Z" fill="#F4F4F4"/>
<path d="M40.6928 53.2077C38.222 53.2077 35.8722 53.2077 33.4385 53.2077C34.4301 52.1517 34.5213 50.8838 34.5219 49.5995C34.5263 40.0366 34.526 30.4741 34.5189 20.9112C34.5187 20.3646 34.5266 19.7955 34.3851 19.2764C34.1932 18.5733 33.8598 17.9082 33.565 17.1708C35.5482 16.336 37.6568 15.3501 39.5817 13.751C39.5817 14.1302 39.5817 14.3851 39.5817 14.64C39.5817 26.156 39.5815 37.6718 39.5826 49.1878C39.5826 49.5539 39.5903 49.9202 39.6032 50.286C39.6409 51.3397 39.843 52.3383 40.6928 53.2077Z" fill="#F4F4F4"/>
<path d="M67.1224 43.7152C66.9809 45.273 67.2478 46.7645 67.8969 48.1728C68.97 50.5011 70.6475 52.155 73.2634 52.6422C74.5831 52.888 75.913 52.8423 77.2018 52.4131C80.623 51.2742 81.9136 47.3705 79.9013 44.2665C79.2251 43.2233 78.3606 42.3604 77.2857 41.7348C75.0809 40.4514 72.8391 39.2294 70.6528 37.9162C69.8036 37.4059 68.975 36.8013 68.2882 36.0944C65.7177 33.4477 65.545 29.2523 67.8042 26.5839C69.4087 24.6887 71.4879 24.2138 73.8345 24.5588C74.7617 24.6951 75.6812 24.8988 76.5933 25.1176C78.2764 25.5212 79.9672 25.6906 81.8286 25.3321C81.3236 26.8414 80.8938 28.258 79.582 29.1484C78.7905 29.6856 77.8474 29.5267 77.2142 28.7788C76.6225 28.0801 76.1152 27.3114 75.5379 26.6C74.8355 25.7348 74.0649 24.9781 72.847 24.8563C69.7795 24.5494 67.8051 26.9781 68.8879 29.8597C69.1601 30.5836 69.6821 31.3397 70.3038 31.7842C71.8254 32.8719 73.4599 33.8062 75.0721 34.7636C76.4398 35.5762 77.8957 36.2521 79.2145 37.1335C82.5086 39.3351 83.9928 42.4107 83.3257 46.3622C82.7278 49.903 79.6632 52.6574 75.9972 53.0893C73.9389 53.3319 71.9134 53.2198 69.9372 52.591C68.1879 52.0344 66.8326 50.9529 65.9722 49.3327C65.2237 47.9235 65.1369 46.4379 65.826 44.9851C66.0723 44.4657 66.5319 44.0467 66.8944 43.5818C66.97 43.6265 67.0462 43.6707 67.1224 43.7152Z" fill="#F4F4F4"/>
<path d="M100.997 25.4688C100.684 26.6252 100.213 27.7699 99.3468 28.6972C98.4188 29.6903 97.1944 29.6441 96.3287 28.6059C95.5987 27.7307 94.9449 26.7914 94.1993 25.9303C93.1732 24.7455 91.8115 24.5538 90.3859 24.9412C87.8244 25.6368 86.9476 28.8306 88.7589 30.9892C89.3613 31.707 90.1593 32.3118 90.9717 32.7961C92.9864 33.9973 95.0647 35.0928 97.1106 36.2428C98.6545 37.1107 100.052 38.148 101.109 39.6011C104.769 44.6305 102.065 51.6588 95.9521 52.9106C93.4375 53.4256 90.9264 53.3032 88.5477 52.2993C86.452 51.415 85.0029 49.8844 84.6674 47.5555C84.4712 46.1934 84.7531 44.9182 85.8106 43.9163C85.8839 43.8466 85.9715 43.7907 86.0572 43.7357C86.1069 43.7038 86.166 43.6868 86.3302 43.6157C86.3302 43.8709 86.3288 44.0746 86.3305 44.2782C86.3517 47.0019 87.2748 49.3398 89.3775 51.1382C91.5211 52.9714 95.0953 53.2787 97.5534 51.8841C100.106 50.4359 100.848 46.8675 99.1426 44.234C98.4553 43.1721 97.5713 42.3025 96.4773 41.6672C94.2884 40.3961 92.0807 39.1575 89.8877 37.8937C88.7646 37.2465 87.7673 36.4511 86.9511 35.4302C84.6259 32.5208 85.0762 28.0289 87.913 25.6959C89.466 24.4186 91.2562 24.2551 93.1267 24.5366C94.8398 24.7944 96.53 25.2058 98.2449 25.4472C99.1197 25.5707 100.027 25.4688 100.997 25.4688Z" fill="#F4F4F4"/>
<path d="M21.597 53.2248L16.8799 53.2151C16.8425 53.2151 16.8125 53.185 16.8125 53.1478L16.8343 42.5635C16.8343 42.5263 16.8646 42.4965 16.9019 42.4965L21.619 42.5061C21.6564 42.5061 21.6864 42.5363 21.6864 42.5734L21.6646 53.1578C21.6643 53.195 21.634 53.2251 21.597 53.2248Z" fill="#F4F4F4"/>
<path d="M32.5907 25.4325C32.4965 24.1108 31.9059 22.6846 30.7116 21.9349C30.5209 21.8226 30.3158 21.7313 30.0951 21.6631C29.8744 21.5952 29.6385 21.5504 29.3869 21.532C29.1182 21.4966 28.8416 21.4796 28.5612 21.4788C27.72 21.4767 26.844 21.6204 26.0487 21.8474C25.5973 21.9244 25.145 21.9993 24.6925 22.0719C23.3345 22.2893 21.9722 22.4833 20.6063 22.6343C20.0037 22.701 19.376 22.5421 18.676 22.4537C18.5933 22.4432 18.523 22.5155 18.5357 22.5974C18.7293 23.836 19.1462 24.9038 19.9857 25.7857C20.443 26.2662 21.0073 26.4795 21.6876 26.4865C22.7116 26.4968 23.4884 26.011 24.1923 25.3632C24.5174 25.0638 24.8346 24.7557 25.1509 24.4464C25.4675 24.1374 25.783 23.8276 26.1049 23.5253C26.862 22.7548 27.8083 21.9859 28.9326 21.8477C29.1574 21.8202 29.3895 21.8179 29.6285 21.846C29.7971 21.867 29.966 21.9142 30.1293 21.9826C32.5809 23.5238 32.4965 27.2148 31.0397 29.4199C30.8967 29.652 30.7448 29.875 30.5851 30.0894C29.4678 31.5917 27.9695 32.6896 26.4247 33.7325C24.3776 35.1148 22.2826 36.428 20.2614 37.8457C19.4699 38.4008 18.7299 39.0846 18.1237 39.8355C17.4631 40.6533 17.0441 41.5628 16.8396 42.4933C16.8281 42.5456 16.8478 42.6036 16.894 42.6311C16.9014 42.6355 16.9082 42.6402 16.9144 42.6454C16.94 42.6668 16.9706 42.6817 17.0041 42.6811C17.7353 42.6723 18.4668 42.6659 19.198 42.6621C19.9851 42.658 20.7725 42.656 21.5596 42.6554C21.6285 42.6554 21.6835 42.6007 21.685 42.5322C21.7141 41.2778 22.0872 40.0359 22.7602 38.8277C23.5699 37.374 24.7484 36.2039 26.0045 35.1165C27.1915 34.0892 28.3888 33.0726 29.5493 32.016C30.1184 31.4978 30.631 30.9462 31.0662 30.3464C31.2112 30.1465 31.3478 29.9411 31.4752 29.7298C31.9059 28.8921 32.412 28.0532 32.4962 27.0466C32.4962 27.0466 32.5806 26.4593 32.5786 25.9823C32.5886 25.8024 32.596 25.6189 32.5907 25.4325Z" fill="#F4F4F4"/>
<path d="M22.6783 37.5265H20.8957C20.8551 37.6462 20.798 37.7503 20.7201 37.8176C19.885 38.5389 18.8981 38.9975 17.7735 39.0206C15.3398 39.0703 13.3274 38.0845 11.6384 36.4078C9.88031 34.6627 8.7704 32.519 7.94092 30.2209C6.95166 27.4794 6.51826 24.6369 6.39055 21.7354C6.16075 16.5164 6.82898 11.4603 9.17677 6.7253C10.1343 4.79376 11.3618 3.02668 13.2282 1.84365C14.9299 0.764787 17.1117 0.373569 18.7192 2.38089C19.165 2.93743 19.6325 3.47671 20.083 4.02946C20.6621 4.73992 21.1882 5.49925 21.8191 6.15997C22.886 7.27745 24.437 7.2912 25.3718 6.15558C26.3902 4.91842 26.7874 3.39742 27.1446 1.78162C26.9278 1.78162 26.8242 1.75938 26.7348 1.78484C25.077 2.25828 23.4539 1.9724 21.8294 1.58879C20.3793 1.24643 18.9372 0.798442 17.4648 0.633409C13.024 0.135676 9.25591 1.58527 6.18603 4.80839C3.22032 7.92207 1.62227 11.69 0.880471 15.8636C0.120138 20.1413 0.503856 24.3198 1.90182 28.428C3.05762 31.8244 4.9852 34.7124 7.93503 36.749C11.9833 39.5441 16.4526 40.1761 21.1953 38.7019C21.6875 38.5489 22.1819 38.3991 22.678 38.256V37.5265H22.6783Z" fill="#F4F4F4"/>
<path d="M14.1009 52.6379C14.1009 52.6379 15.6719 52.5393 16.4755 51.2623C16.8839 50.613 16.8456 49.6892 16.8109 48.2566H19.2337V53.2199H14.0947L14.1009 52.6379Z" fill="#F4F4F4"/>
<path d="M24.395 52.6379C24.395 52.6379 22.8238 52.5393 22.0205 51.2623C21.6121 50.613 21.6503 49.6892 21.685 48.2566H19.2622V53.2199H24.4012L24.395 52.6379Z" fill="#F4F4F4"/>
<path d="M19.2589 53.2206H11.7441C11.7441 53.2206 12.2355 52.2985 14.5304 51.6367C16.8252 50.9748 16.8287 50.5165 16.827 49.342H19.2448L19.2589 53.2206Z" fill="#F4F4F4"/>
<path d="M19.2446 53.2205H26.7594C26.7594 53.2205 26.268 52.2985 23.9732 51.6366C21.6783 50.9747 21.6748 50.5165 21.6765 49.342H19.2587L19.2446 53.2205Z" fill="#F4F4F4"/>
</svg>
