<svg width="49" height="49" viewBox="0 0 49 49" fill="none" xmlns="http://www.w3.org/2000/svg">
<path d="M11.2992 39.2362C12.5159 36.3698 15.3565 34.3594 18.6666 34.3594H30.6666C33.9768 34.3594 36.8174 36.3698 38.034 39.2362M32.6666 19.3594C32.6666 23.7777 29.0849 27.3594 24.6666 27.3594C20.2483 27.3594 16.6666 23.7777 16.6666 19.3594C16.6666 14.9411 20.2483 11.3594 24.6666 11.3594C29.0849 11.3594 32.6666 14.9411 32.6666 19.3594ZM44.6666 24.3594C44.6666 35.4051 35.7123 44.3594 24.6666 44.3594C13.6209 44.3594 4.66663 35.4051 4.66663 24.3594C4.66663 13.3137 13.6209 4.35938 24.6666 4.35938C35.7123 4.35938 44.6666 13.3137 44.6666 24.3594Z" stroke="#FFCF35" stroke-width="2" stroke-linecap="round" stroke-linejoin="round"/>
</svg>
