<svg width="48" height="49" viewBox="0 0 48 49" fill="none" xmlns="http://www.w3.org/2000/svg">
<path d="M32.0001 42.3594V39.9594C32.0001 36.5991 32.0001 34.9189 31.3462 33.6354C30.7709 32.5065 29.853 31.5886 28.7241 31.0133C27.4406 30.3594 25.7604 30.3594 22.4001 30.3594H13.6001C10.2398 30.3594 8.55965 30.3594 7.27618 31.0133C6.14721 31.5886 5.22932 32.5065 4.65408 33.6354C4.00012 34.9189 4.00012 36.5991 4.00012 39.9594V42.3594M32.0001 12.3594L36.0001 16.3594L44.0001 8.35938M25.0001 15.3594C25.0001 19.2254 21.8661 22.3594 18.0001 22.3594C14.1341 22.3594 11.0001 19.2254 11.0001 15.3594C11.0001 11.4934 14.1341 8.35938 18.0001 8.35938C21.8661 8.35938 25.0001 11.4934 25.0001 15.3594Z" stroke="#FFCF35" stroke-width="2" stroke-linecap="round" stroke-linejoin="round"/>
</svg>
