<svg width="25" height="25" viewBox="0 0 25 25" fill="none" xmlns="http://www.w3.org/2000/svg">
<path d="M11.6768 19.2024H9.42676C8.32676 19.2024 7.42676 20.1024 7.42676 21.2024V21.4524H6.42676C6.01676 21.4524 5.67676 21.7924 5.67676 22.2024C5.67676 22.6124 6.01676 22.9524 6.42676 22.9524H18.4268C18.8368 22.9524 19.1768 22.6124 19.1768 22.2024C19.1768 21.7924 18.8368 21.4524 18.4268 21.4524H17.4268V21.2024C17.4268 20.1024 16.5268 19.2024 15.4268 19.2024H13.1768V16.9124C12.9268 16.9424 12.6768 16.9524 12.4268 16.9524C12.1768 16.9524 11.9268 16.9424 11.6768 16.9124V19.2024Z" fill="#1E1E1E"/>
<path d="M18.9068 12.5924C19.5668 12.3424 20.1468 11.9324 20.6068 11.4724C21.5368 10.4424 22.1468 9.21239 22.1468 7.77239C22.1468 6.33239 21.0168 5.20239 19.5768 5.20239H19.0168C18.3668 3.87239 17.0068 2.95239 15.4268 2.95239H9.42679C7.84679 2.95239 6.48679 3.87239 5.83679 5.20239H5.27679C3.83679 5.20239 2.70679 6.33239 2.70679 7.77239C2.70679 9.21239 3.31679 10.4424 4.24679 11.4724C4.70679 11.9324 5.28679 12.3424 5.94679 12.5924C6.98679 15.1524 9.48679 16.9524 12.4268 16.9524C15.3668 16.9524 17.8668 15.1524 18.9068 12.5924ZM15.2668 9.40239L14.6468 10.1624C14.5468 10.2724 14.4768 10.4924 14.4868 10.6424L14.5468 11.6224C14.5868 12.2224 14.1568 12.5324 13.5968 12.3124L12.6868 11.9524C12.5468 11.9024 12.3068 11.9024 12.1668 11.9524L11.2568 12.3124C10.6968 12.5324 10.2668 12.2224 10.3068 11.6224L10.3668 10.6424C10.3768 10.4924 10.3068 10.2724 10.2068 10.1624L9.58679 9.40239C9.19679 8.94239 9.36679 8.43239 9.94679 8.28239L10.8968 8.04239C11.0468 8.00239 11.2268 7.86239 11.3068 7.73239L11.8368 6.91239C12.1668 6.40239 12.6868 6.40239 13.0168 6.91239L13.5468 7.73239C13.6268 7.86239 13.8068 8.00239 13.9568 8.04239L14.9068 8.28239C15.4868 8.43239 15.6568 8.94239 15.2668 9.40239Z" fill="#1E1E1E"/>
</svg>
