<svg width="250" height="250" viewBox="0 0 250 250" fill="none" xmlns="http://www.w3.org/2000/svg">
<g filter="url(#filter0_d_603_5050)">
<mask id="mask0_603_5050" style="mask-type:luminance" maskUnits="userSpaceOnUse" x="39" y="31" width="170" height="170">
<path fill-rule="evenodd" clip-rule="evenodd" d="M39.0703 116.129C39.0703 69.2997 77.0326 31.3374 123.862 31.3374C170.69 31.3374 208.653 69.2997 208.653 116.129C208.653 162.958 170.69 200.92 123.862 200.92C77.0326 200.92 39.0703 162.958 39.0703 116.129Z" fill="white"/>
</mask>
<g mask="url(#mask0_603_5050)">
<path fill-rule="evenodd" clip-rule="evenodd" d="M39.0703 116.129C39.0703 69.2997 77.0326 31.3374 123.862 31.3374C170.69 31.3374 208.653 69.2997 208.653 116.129C208.653 162.958 170.69 200.92 123.862 200.92C77.0326 200.92 39.0703 162.958 39.0703 116.129Z" fill="white"/>
<path d="M48.8103 42.7544C35.4114 56.6719 38.1537 71.4561 38.1537 116.37C38.1537 153.668 31.6461 191.058 65.7045 199.86C76.3397 202.596 170.572 202.596 181.193 199.846C195.373 196.187 206.911 184.685 208.488 164.63C208.708 161.831 208.708 70.9588 208.481 68.1028C206.804 46.74 193.654 34.4281 176.327 31.9345C172.355 31.359 171.56 31.1885 151.184 31.153C78.9115 31.1885 63.0687 27.9703 48.8103 42.7544Z" fill="url(#paint0_linear_603_5050)"/>
<path fill-rule="evenodd" clip-rule="evenodd" d="M123.863 66.825C110.473 66.825 108.793 66.8835 103.534 67.1228C98.2846 67.3632 94.7018 68.1942 91.5669 69.4134C88.324 70.6728 85.5733 72.3573 82.8327 75.0989C80.0902 77.8394 78.4056 80.5902 77.1422 83.832C75.9198 86.968 75.0878 90.5518 74.8515 95.7986C74.6163 101.058 74.5547 102.739 74.5547 116.13C74.5547 129.52 74.6143 131.195 74.8526 136.454C75.094 141.703 75.9249 145.286 77.1432 148.421C78.4035 151.664 80.0881 154.415 82.8297 157.155C85.5691 159.898 88.3199 161.586 91.5607 162.846C94.6977 164.065 98.2815 164.896 103.529 165.136C108.789 165.376 110.468 165.434 123.857 165.434C137.249 165.434 138.924 165.376 144.183 165.136C149.432 164.896 153.019 164.065 156.156 162.846C159.398 161.586 162.144 159.898 164.884 157.155C167.627 154.415 169.311 151.664 170.575 148.422C171.787 145.286 172.619 141.702 172.865 136.455C173.101 131.196 173.163 129.52 173.163 116.13C173.163 102.739 173.101 101.059 172.865 95.7997C172.619 90.5508 171.787 86.968 170.575 83.833C169.311 80.5902 167.627 77.8394 164.884 75.0989C162.141 72.3563 159.399 70.6717 156.153 69.4134C153.01 68.1942 149.425 67.3632 144.176 67.1228C138.917 66.8835 137.243 66.825 123.848 66.825H123.863ZM119.442 75.7113C120.755 75.7092 122.219 75.7113 123.865 75.7113C137.029 75.7113 138.59 75.7586 143.788 75.9948C148.595 76.2146 151.204 77.0179 152.942 77.6927C155.243 78.5864 156.884 79.6546 158.608 81.3803C160.334 83.106 161.402 84.7495 162.298 87.0503C162.973 88.7863 163.777 91.3953 163.996 96.2025C164.232 101.4 164.283 102.961 164.283 116.12C164.283 129.278 164.232 130.839 163.996 136.037C163.776 140.844 162.973 143.453 162.298 145.189C161.404 147.49 160.334 149.128 158.608 150.853C156.883 152.578 155.244 153.647 152.942 154.54C151.206 155.218 148.595 156.019 143.788 156.239C138.591 156.475 137.029 156.527 123.865 156.527C110.7 156.527 109.139 156.475 103.942 156.239C99.1345 156.017 96.5254 155.214 94.7864 154.539C92.4855 153.646 90.842 152.577 89.1164 150.852C87.3907 149.126 86.3224 147.487 85.4267 145.185C84.7519 143.449 83.9476 140.84 83.7288 136.032C83.4926 130.835 83.4453 129.274 83.4453 116.107C83.4453 102.941 83.4926 101.388 83.7288 96.1902C83.9486 91.383 84.7519 88.774 85.4267 87.036C86.3204 84.7351 87.3907 83.0916 89.1164 81.3659C90.842 79.6403 92.4855 78.572 94.7864 77.6763C96.5244 76.9984 99.1345 76.1972 103.942 75.9763C108.49 75.7709 110.253 75.7092 119.442 75.699V75.7113ZM150.182 83.8973C146.916 83.8973 144.266 86.5444 144.266 89.8118C144.266 93.0783 146.916 95.7284 150.182 95.7284C153.449 95.7284 156.099 93.0783 156.099 89.8118C156.099 86.5454 153.449 83.8953 150.182 83.8953V83.8973ZM123.867 90.811C109.884 90.811 98.5469 102.148 98.5469 116.131C98.5469 130.114 109.884 141.446 123.867 141.446C137.85 141.446 149.183 130.114 149.183 116.131C149.183 102.148 137.849 90.811 123.866 90.811H123.867ZM123.865 99.6948C132.941 99.6948 140.299 107.053 140.299 116.13C140.299 125.206 132.941 132.565 123.865 132.565C114.787 132.565 107.43 125.206 107.43 116.13C107.43 107.053 114.787 99.6948 123.865 99.6948Z" fill="white"/>
</g>
</g>
<defs>
<filter id="filter0_d_603_5050" x="0.977216" y="0.569901" width="248.698" height="248.699" filterUnits="userSpaceOnUse" color-interpolation-filters="sRGB">
<feFlood flood-opacity="0" result="BackgroundImageFix"/>
<feColorMatrix in="SourceAlpha" type="matrix" values="0 0 0 0 0 0 0 0 0 0 0 0 0 0 0 0 0 0 127 0" result="hardAlpha"/>
<feOffset dx="1.46512" dy="8.79072"/>
<feGaussianBlur stdDeviation="19.7791"/>
<feComposite in2="hardAlpha" operator="out"/>
<feColorMatrix type="matrix" values="0 0 0 0 1 0 0 0 0 0.54902 0 0 0 0 0.282353 0 0 0 0.47 0"/>
<feBlend mode="normal" in2="BackgroundImageFix" result="effect1_dropShadow_603_5050"/>
<feBlend mode="normal" in="SourceGraphic" in2="effect1_dropShadow_603_5050" result="shape"/>
</filter>
<linearGradient id="paint0_linear_603_5050" x1="49.1372" y1="190.767" x2="207.603" y2="53.6168" gradientUnits="userSpaceOnUse">
<stop stop-color="#FFDD55"/>
<stop offset="0.5" stop-color="#FF543E"/>
<stop offset="1" stop-color="#C837AB"/>
</linearGradient>
</defs>
</svg>
