<svg width="18" height="19" viewBox="0 0 18 19" fill="none" xmlns="http://www.w3.org/2000/svg">
<path d="M15.4454 6.84894C14.6846 3.49183 11.7645 1.98041 9.19947 1.98041C9.19947 1.98041 9.19947 1.98041 9.19222 1.98041C6.63442 1.98041 3.70709 3.48457 2.94627 6.84167C2.0985 10.5912 4.3882 13.7666 6.46052 15.7649C7.22859 16.5061 8.21403 16.8767 9.19947 16.8767C10.1849 16.8767 11.1704 16.5061 11.9312 15.7649C14.0035 13.7666 16.2932 10.5984 15.4454 6.84894ZM9.19947 10.4894C7.93868 10.4894 6.91702 9.46487 6.91702 8.2005C6.91702 6.93614 7.93868 5.91157 9.19947 5.91157C10.4603 5.91157 11.4819 6.93614 11.4819 8.2005C11.4819 9.46487 10.4603 10.4894 9.19947 10.4894Z" fill="white"/>
</svg>
