<svg width="22" height="16" viewBox="0 0 22 16" fill="none" xmlns="http://www.w3.org/2000/svg">
<path d="M1.68506 6.70679C1.13277 6.70679 0.685059 7.1545 0.685059 7.70679C0.685059 8.25907 1.13277 8.70679 1.68506 8.70679L1.68506 6.70679ZM21.3365 8.4139C21.727 8.02337 21.727 7.39021 21.3365 6.99968L14.9725 0.63572C14.582 0.245196 13.9489 0.245196 13.5583 0.63572C13.1678 1.02624 13.1678 1.65941 13.5583 2.04993L19.2152 7.70679L13.5583 13.3636C13.1678 13.7542 13.1678 14.3873 13.5583 14.7779C13.9488 15.1684 14.582 15.1684 14.9725 14.7779L21.3365 8.4139ZM1.68506 8.70679L20.6294 8.70679L20.6294 6.70679L1.68506 6.70679L1.68506 8.70679Z" fill="black"/>
</svg>
