<svg width="21" height="16" viewBox="0 0 21 16" fill="none" xmlns="http://www.w3.org/2000/svg">
<path d="M1.48511 7.35059C0.932823 7.35059 0.485107 7.7983 0.485107 8.35059C0.485107 8.90287 0.932823 9.35059 1.48511 9.35059V7.35059ZM20.4189 9.05769C20.8094 8.66717 20.8094 8.034 20.4189 7.64348L14.0549 1.27952C13.6644 0.888994 13.0312 0.888994 12.6407 1.27952C12.2502 1.67004 12.2502 2.30321 12.6407 2.69373L18.2976 8.35059L12.6407 14.0074C12.2502 14.398 12.2502 15.0311 12.6407 15.4217C13.0312 15.8122 13.6644 15.8122 14.0549 15.4217L20.4189 9.05769ZM1.48511 9.35059H19.7118V7.35059H1.48511V9.35059Z" fill="#000000"/>
</svg>
