<svg width="17" height="17" viewBox="0 0 17 17" fill="none" xmlns="http://www.w3.org/2000/svg">
<path fill-rule="evenodd" clip-rule="evenodd" d="M2.15944 7.6215H4.17685C4.26911 6.01876 4.5739 4.54251 5.04456 3.35238C4.28675 3.81674 3.63716 4.438 3.13951 5.17438C2.64185 5.91076 2.30767 6.74517 2.15944 7.6215ZM8.29357 0.364624C6.09398 0.364624 3.98448 1.23841 2.42913 2.79375C0.873784 4.3491 0 6.4586 0 8.65819C0 10.8578 0.873784 12.9673 2.42913 14.5226C3.98448 16.078 6.09398 16.9518 8.29357 16.9518C10.4932 16.9518 12.6027 16.078 14.158 14.5226C15.7134 12.9673 16.5871 10.8578 16.5871 8.65819C16.5871 6.4586 15.7134 4.3491 14.158 2.79375C12.6027 1.23841 10.4932 0.364624 8.29357 0.364624ZM8.29357 2.43802C8.21478 2.43802 8.05305 2.47119 7.8115 2.70963C7.56477 2.95222 7.29627 3.35549 7.04746 3.93501C6.64419 4.87529 6.34976 6.15561 6.25335 7.6215H10.3338C10.2374 6.15561 9.94295 4.87529 9.53968 3.93501C9.29087 3.35446 9.02133 2.95222 8.77563 2.70963C8.53408 2.47119 8.37236 2.43802 8.29357 2.43802ZM12.4103 7.6215C12.318 6.01876 12.0132 4.54251 11.5426 3.35238C12.3004 3.81674 12.95 4.438 13.4476 5.17438C13.9453 5.91076 14.2795 6.74517 14.4277 7.6215H12.4103ZM10.3338 9.69489H6.25335C6.34976 11.1608 6.64419 12.4411 7.04746 13.3814C7.29627 13.9619 7.56581 14.3642 7.8115 14.6068C8.05305 14.8452 8.21478 14.8784 8.29357 14.8784C8.37236 14.8784 8.53408 14.8452 8.77563 14.6068C9.02237 14.3642 9.29191 13.9609 9.53968 13.3814C9.94295 12.4411 10.2374 11.1608 10.3338 9.69489ZM11.5426 13.964C12.0132 12.7749 12.318 11.2976 12.4103 9.69489H14.4277C14.2795 10.5712 13.9453 11.4056 13.4476 12.142C12.95 12.8784 12.3004 13.4996 11.5426 13.964ZM5.04456 13.964C4.5739 12.7739 4.26911 11.2976 4.17789 9.69489H2.15944C2.30767 10.5712 2.64185 11.4056 3.13951 12.142C3.63716 12.8784 4.28675 13.4996 5.04456 13.964Z" fill="white"/>
</svg>
