<svg width="24" height="25" viewBox="0 0 24 25" fill="none" xmlns="http://www.w3.org/2000/svg">
<g clip-path="url(#clip0_68_227)">
<path d="M12 3.14141C15.2063 3.14141 15.5859 3.15547 16.8469 3.21172C18.0188 3.26328 18.6516 3.46016 19.0734 3.62422C19.6313 3.83984 20.0344 4.10234 20.4516 4.51953C20.8734 4.94141 21.1313 5.33984 21.3469 5.89766C21.5109 6.31953 21.7078 6.95703 21.7594 8.12422C21.8156 9.38984 21.8297 9.76953 21.8297 12.9711C21.8297 16.1773 21.8156 16.557 21.7594 17.818C21.7078 18.9898 21.5109 19.6227 21.3469 20.0445C21.1313 20.6023 20.8687 21.0055 20.4516 21.4227C20.0297 21.8445 19.6313 22.1023 19.0734 22.318C18.6516 22.482 18.0141 22.6789 16.8469 22.7305C15.5813 22.7867 15.2016 22.8008 12 22.8008C8.79375 22.8008 8.41406 22.7867 7.15313 22.7305C5.98125 22.6789 5.34844 22.482 4.92656 22.318C4.36875 22.1023 3.96563 21.8398 3.54844 21.4227C3.12656 21.0008 2.86875 20.6023 2.65313 20.0445C2.48906 19.6227 2.29219 18.9852 2.24063 17.818C2.18438 16.5523 2.17031 16.1727 2.17031 12.9711C2.17031 9.76484 2.18438 9.38516 2.24063 8.12422C2.29219 6.95234 2.48906 6.31953 2.65313 5.89766C2.86875 5.33984 3.13125 4.93672 3.54844 4.51953C3.97031 4.09766 4.36875 3.83984 4.92656 3.62422C5.34844 3.46016 5.98594 3.26328 7.15313 3.21172C8.41406 3.15547 8.79375 3.14141 12 3.14141ZM12 0.980469C8.74219 0.980469 8.33438 0.994531 7.05469 1.05078C5.77969 1.10703 4.90313 1.31328 4.14375 1.60859C3.35156 1.91797 2.68125 2.32578 2.01563 2.99609C1.34531 3.66172 0.9375 4.33203 0.628125 5.11953C0.332812 5.88359 0.126563 6.75547 0.0703125 8.03047C0.0140625 9.31484 0 9.72266 0 12.9805C0 16.2383 0.0140625 16.6461 0.0703125 17.9258C0.126563 19.2008 0.332812 20.0773 0.628125 20.8367C0.9375 21.6289 1.34531 22.2992 2.01563 22.9648C2.68125 23.6305 3.35156 24.043 4.13906 24.3477C4.90313 24.643 5.775 24.8492 7.05 24.9055C8.32969 24.9617 8.7375 24.9758 11.9953 24.9758C15.2531 24.9758 15.6609 24.9617 16.9406 24.9055C18.2156 24.8492 19.0922 24.643 19.8516 24.3477C20.6391 24.043 21.3094 23.6305 21.975 22.9648C22.6406 22.2992 23.0531 21.6289 23.3578 20.8414C23.6531 20.0773 23.8594 19.2055 23.9156 17.9305C23.9719 16.6508 23.9859 16.243 23.9859 12.9852C23.9859 9.72734 23.9719 9.31953 23.9156 8.03984C23.8594 6.76484 23.6531 5.88828 23.3578 5.12891C23.0625 4.33203 22.6547 3.66172 21.9844 2.99609C21.3188 2.33047 20.6484 1.91797 19.8609 1.61328C19.0969 1.31797 18.225 1.11172 16.95 1.05547C15.6656 0.994531 15.2578 0.980469 12 0.980469Z" fill="#F4F4F4"/>
<path d="M12 6.81641C8.59688 6.81641 5.83594 9.57734 5.83594 12.9805C5.83594 16.3836 8.59688 19.1445 12 19.1445C15.4031 19.1445 18.1641 16.3836 18.1641 12.9805C18.1641 9.57734 15.4031 6.81641 12 6.81641ZM12 16.9789C9.79219 16.9789 8.00156 15.1883 8.00156 12.9805C8.00156 10.7727 9.79219 8.98203 12 8.98203C14.2078 8.98203 15.9984 10.7727 15.9984 12.9805C15.9984 15.1883 14.2078 16.9789 12 16.9789Z" fill="#F4F4F4"/>
<path d="M19.8469 6.57188C19.8469 7.36875 19.2 8.01094 18.4078 8.01094C17.6109 8.01094 16.9688 7.36407 16.9688 6.57188C16.9688 5.775 17.6156 5.13281 18.4078 5.13281C19.2 5.13281 19.8469 5.77969 19.8469 6.57188Z" fill="#F4F4F4"/>
</g>
<defs>
<clipPath id="clip0_68_227">
<rect width="24" height="24" fill="white" transform="translate(0 0.980469)"/>
</clipPath>
</defs>
</svg>
