<svg width="46" height="46" viewBox="0 0 46 46" fill="none" xmlns="http://www.w3.org/2000/svg">
<mask id="mask0_1372_16043" style="mask-type:luminance" maskUnits="userSpaceOnUse" x="0" y="0" width="46" height="46">
<path fill-rule="evenodd" clip-rule="evenodd" d="M0.321655 22.6213C0.321655 10.1949 10.3952 0.121277 22.8217 0.121277C35.2481 0.121277 45.3217 10.1949 45.3217 22.6213C45.3217 35.0477 35.2481 45.1213 22.8217 45.1213C10.3952 45.1213 0.321655 35.0477 0.321655 22.6213Z" fill="white"/>
</mask>
<g mask="url(#mask0_1372_16043)">
<path fill-rule="evenodd" clip-rule="evenodd" d="M0.321655 22.6213C0.321655 10.1949 10.3952 0.121277 22.8217 0.121277C35.2481 0.121277 45.3217 10.1949 45.3217 22.6213C45.3217 35.0477 35.2481 45.1213 22.8217 45.1213C10.3952 45.1213 0.321655 35.0477 0.321655 22.6213Z" fill="white"/>
<path d="M2.90621 3.15081C-0.649267 6.84391 0.0784192 10.767 0.0784192 22.6852C0.0784192 32.5825 -1.64842 42.5043 7.38921 44.84C10.2114 45.5658 35.2166 45.5658 38.035 44.8363C41.7978 43.8654 44.8594 40.8133 45.2779 35.4914C45.3363 34.7486 45.3363 10.635 45.276 9.87719C44.8311 4.20841 41.3416 0.941362 36.7436 0.279658C35.6898 0.126957 35.4786 0.0817121 30.0719 0.0722862C10.8938 0.0817121 6.6898 -0.772282 2.90621 3.15081Z" fill="url(#paint0_linear_1372_16043)"/>
<path fill-rule="evenodd" clip-rule="evenodd" d="M22.8227 9.5379C19.2695 9.5379 18.8236 9.55344 17.428 9.61695C16.0352 9.68073 15.0845 9.90124 14.2526 10.2248C13.3921 10.559 12.6621 11.006 11.9349 11.7335C11.2072 12.4607 10.7601 13.1906 10.4249 14.0508C10.1005 14.883 9.87975 15.834 9.81705 17.2263C9.75464 18.6219 9.73828 19.068 9.73828 22.6213C9.73828 26.1745 9.75409 26.6191 9.81733 28.0146C9.88138 29.4075 10.1019 30.3582 10.4252 31.1901C10.7596 32.0506 11.2066 32.7805 11.9341 33.5077C12.6611 34.2355 13.391 34.6836 14.251 35.0178C15.0834 35.3413 16.0344 35.5618 17.4269 35.6256C18.8225 35.6891 19.2682 35.7046 22.8211 35.7046C26.3746 35.7046 26.8192 35.6891 28.2147 35.6256C29.6076 35.5618 30.5594 35.3413 31.3918 35.0178C32.252 34.6836 32.9809 34.2355 33.7078 33.5077C34.4356 32.7805 34.8826 32.0506 35.2179 31.1903C35.5395 30.3582 35.7603 29.4072 35.8257 28.0149C35.8884 26.6193 35.9048 26.1745 35.9048 22.6213C35.9048 19.068 35.8884 18.6221 35.8257 17.2266C35.7603 15.8337 35.5395 14.883 35.2179 14.0511C34.8826 13.1906 34.4356 12.4607 33.7078 11.7335C32.9801 11.0057 32.2523 10.5587 31.391 10.2248C30.5569 9.90124 29.6057 9.68073 28.2128 9.61695C26.8173 9.55344 26.373 9.5379 22.8187 9.5379H22.8227ZM21.6489 11.8966C21.9972 11.8961 22.3859 11.8966 22.8225 11.8966C26.3158 11.8966 26.7298 11.9092 28.1093 11.9719C29.3849 12.0302 30.0773 12.2434 30.5385 12.4224C31.149 12.6596 31.5843 12.943 32.042 13.401C32.4999 13.8589 32.7833 14.295 33.021 14.9055C33.2001 15.3662 33.4135 16.0585 33.4716 17.3341C33.5343 18.7134 33.5479 19.1277 33.5479 22.6193C33.5479 26.1109 33.5343 26.5252 33.4716 27.9044C33.4133 29.18 33.2001 29.8724 33.021 30.333C32.7839 30.9436 32.4999 31.3783 32.042 31.836C31.584 32.2939 31.1493 32.5774 30.5385 32.8145C30.0778 32.9944 29.3849 33.207 28.1093 33.2653C26.7301 33.328 26.3158 33.3416 22.8225 33.3416C19.329 33.3416 18.915 33.328 17.5358 33.2653C16.2601 33.2065 15.5678 32.9933 15.1064 32.8142C14.4958 32.5771 14.0597 32.2936 13.6018 31.8357C13.1438 31.3778 12.8604 30.9428 12.6227 30.3319C12.4436 29.8713 12.2302 29.179 12.1721 27.9033C12.1094 26.5241 12.0969 26.1098 12.0969 22.616C12.0969 19.1222 12.1094 18.7101 12.1721 17.3309C12.2305 16.0552 12.4436 15.3629 12.6227 14.9017C12.8598 14.2912 13.1438 13.8551 13.6018 13.3971C14.0597 12.9392 14.4958 12.6558 15.1064 12.4181C15.5675 12.2382 16.2601 12.0256 17.5358 11.967C18.7427 11.9125 19.2104 11.8961 21.6489 11.8934V11.8966ZM29.8068 14.0687C28.94 14.0687 28.2368 14.7711 28.2368 15.6382C28.2368 16.505 28.94 17.2082 29.8068 17.2082C30.6736 17.2082 31.3768 16.505 31.3768 15.6382C31.3768 14.7714 30.6736 14.0682 29.8068 14.0682V14.0687ZM22.8231 15.903C19.1126 15.903 16.1042 18.9114 16.1042 22.6219C16.1042 26.3324 19.1126 29.3394 22.8231 29.3394C26.5336 29.3394 29.5408 26.3324 29.5408 22.6219C29.5408 18.9114 26.5333 15.903 22.8228 15.903H22.8231ZM22.823 18.2603C25.2314 18.2603 27.1841 20.2127 27.1841 22.6214C27.1841 25.0299 25.2314 26.9826 22.823 26.9826C20.4143 26.9826 18.4619 25.0299 18.4619 22.6214C18.4619 20.2127 20.4143 18.2603 22.823 18.2603Z" fill="white"/>
</g>
<defs>
<linearGradient id="paint0_linear_1372_16043" x1="2.99297" y1="42.4272" x2="45.0431" y2="6.03322" gradientUnits="userSpaceOnUse">
<stop stop-color="#FFDD55"/>
<stop offset="0.5" stop-color="#FF543E"/>
<stop offset="1" stop-color="#C837AB"/>
</linearGradient>
</defs>
</svg>
