<svg width="42" height="42" viewBox="0 0 42 42" fill="none" xmlns="http://www.w3.org/2000/svg">
<path fill-rule="evenodd" clip-rule="evenodd" d="M21.1958 0.4375C9.8629 0.4375 0.675781 9.62462 0.675781 20.9575C0.675781 32.2904 9.8629 41.4775 21.1958 41.4775C32.5287 41.4775 41.7158 32.2904 41.7158 20.9575C41.7158 9.62462 32.5287 0.4375 21.1958 0.4375ZM10.5269 17.4336H15.1771V31.4058H10.5269V17.4336ZM15.4833 13.1109C15.4531 11.7409 14.4735 10.6975 12.8826 10.6975C11.2918 10.6975 10.2518 11.7409 10.2518 13.1109C10.2518 14.4525 11.2611 15.526 12.8223 15.526H12.852C14.4735 15.526 15.4833 14.4525 15.4833 13.1109ZM26.5935 17.1047C29.6536 17.1047 31.9477 19.1021 31.9477 23.3937L31.9475 31.4049H27.2975V23.9298C27.2975 22.0522 26.6245 20.771 24.9411 20.771C23.6564 20.771 22.8911 21.6347 22.555 22.469C22.4321 22.7679 22.4019 23.1845 22.4019 23.6021V31.4053H17.7511C17.7511 31.4053 17.8124 18.7442 17.7511 17.4331H22.4019V19.4122C23.0191 18.4608 24.1245 17.1047 26.5935 17.1047Z" fill="white"/>
</svg>
