<svg width="54" height="55" viewBox="0 0 54 55" fill="none" xmlns="http://www.w3.org/2000/svg">
<circle cx="27.0052" cy="27.5098" r="26.7939" fill="#FFCF35" fill-opacity="0.13"/>
<path d="M35.6253 23.9598C34.5753 19.3398 30.5453 17.2598 27.0053 17.2598C27.0053 17.2598 27.0053 17.2598 26.9953 17.2598C23.4653 17.2598 19.4253 19.3298 18.3753 23.9498C17.2053 29.1098 20.3653 33.4798 23.2253 36.2298C24.2853 37.2498 25.6453 37.7598 27.0053 37.7598C28.3653 37.7598 29.7253 37.2498 30.7753 36.2298C33.6353 33.4798 36.7953 29.1198 35.6253 23.9598ZM27.0053 28.9698C25.2653 28.9698 23.8553 27.5598 23.8553 25.8198C23.8553 24.0798 25.2653 22.6698 27.0053 22.6698C28.7453 22.6698 30.1553 24.0798 30.1553 25.8198C30.1553 27.5598 28.7453 28.9698 27.0053 28.9698Z" fill="#FFCF35"/>
</svg>
