<svg width="217" height="179" viewBox="0 0 217 179" fill="none" xmlns="http://www.w3.org/2000/svg">
<path d="M28.3997 59.0476C23.162 59.1692 18.891 63.4379 18.7662 68.6756C18.7126 70.9188 19.4104 72.9956 20.6217 74.6773L20.6189 74.6782L20.715 74.809C20.7196 74.815 20.7243 74.8215 20.7284 74.8275L27.7176 84.3339C28.3327 85.1708 29.592 85.1445 30.1715 84.2826L36.4888 74.8908C37.6843 73.0677 38.5042 71.1619 38.5042 68.9155C38.5051 63.3866 33.9587 58.9187 28.3997 59.0476ZM28.6345 76.0942C24.5359 76.0942 21.2136 72.7719 21.2136 68.6733C21.2136 64.5747 24.5359 61.2525 28.6345 61.2525C32.7331 61.2525 36.0553 64.5747 36.0553 68.6733C36.0553 72.7715 32.7331 76.0942 28.6345 76.0942Z" fill="#FFCF35"/>
<g opacity="0.3">
<path d="M28.3997 59.0476C23.162 59.1692 18.891 63.4379 18.7662 68.6756C18.7126 70.9188 19.4104 72.9956 20.6217 74.6773L20.6189 74.6782L20.715 74.809C20.7196 74.815 20.7243 74.8215 20.7284 74.8275L27.7176 84.3339C28.3327 85.1708 29.592 85.1445 30.1715 84.2826L36.4888 74.8908C37.6843 73.0677 38.5042 71.1619 38.5042 68.9155C38.5051 63.3866 33.9587 58.9187 28.3997 59.0476ZM28.6345 76.0942C24.5359 76.0942 21.2136 72.7719 21.2136 68.6733C21.2136 64.5747 24.5359 61.2525 28.6345 61.2525C32.7331 61.2525 36.0553 64.5747 36.0553 68.6733C36.0553 72.7715 32.7331 76.0942 28.6345 76.0942Z" fill="black"/>
</g>
<path d="M27.8156 59.0476C22.5778 59.1692 18.3068 63.4379 18.182 68.6756C18.1284 70.9188 18.8263 72.9956 20.0375 74.6773L20.0347 74.6782L20.1308 74.809C20.1355 74.815 20.1401 74.8215 20.1442 74.8275L27.1335 84.3339C27.7486 85.1708 29.0079 85.1445 29.5874 84.2826L35.9047 74.8908C37.1002 73.0677 37.92 71.1619 37.92 68.9155C37.9205 63.3866 33.374 58.9187 27.8156 59.0476ZM28.0499 74.7563C24.9458 74.7563 22.4295 72.24 22.4295 69.1359C22.4295 66.0318 24.9458 63.5155 28.0499 63.5155C31.154 63.5155 33.6703 66.0318 33.6703 69.1359C33.6703 72.24 31.154 74.7563 28.0499 74.7563Z" fill="#FFCF35"/>
<path d="M183.227 49.6915C179.235 49.784 175.98 53.0373 175.885 57.0292C175.845 58.7386 176.376 60.3214 177.3 61.6029L177.298 61.6033L177.371 61.7032C177.375 61.7078 177.378 61.7124 177.381 61.7175L182.708 68.9623C183.177 69.6 184.136 69.5801 184.578 68.923L189.393 61.7656C190.303 60.3759 190.929 58.9239 190.929 57.2117C190.928 52.9976 187.463 49.5931 183.227 49.6915ZM183.406 62.6824C180.282 62.6824 177.75 60.1504 177.75 57.0269C177.75 53.9034 180.282 51.3714 183.406 51.3714C186.529 51.3714 189.061 53.9034 189.061 57.0269C189.061 60.1504 186.529 62.6824 183.406 62.6824Z" fill="#FFCF35"/>
<g opacity="0.3">
<path d="M183.227 49.6915C179.235 49.784 175.98 53.0373 175.885 57.0292C175.845 58.7386 176.376 60.3214 177.3 61.6029L177.298 61.6033L177.371 61.7032C177.375 61.7078 177.378 61.7124 177.381 61.7175L182.708 68.9623C183.177 69.6 184.136 69.5801 184.578 68.923L189.393 61.7656C190.303 60.3759 190.929 58.9239 190.929 57.2117C190.928 52.9976 187.463 49.5931 183.227 49.6915ZM183.406 62.6824C180.282 62.6824 177.75 60.1504 177.75 57.0269C177.75 53.9034 180.282 51.3714 183.406 51.3714C186.529 51.3714 189.061 53.9034 189.061 57.0269C189.061 60.1504 186.529 62.6824 183.406 62.6824Z" fill="black"/>
</g>
<path d="M182.781 49.6915C178.789 49.784 175.535 53.0373 175.439 57.0292C175.399 58.7386 175.93 60.3214 176.853 61.6029L176.852 61.6033L176.925 61.7032C176.928 61.7078 176.932 61.7124 176.935 61.7175L182.262 68.9623C182.731 69.6 183.69 69.5801 184.132 68.923L188.946 61.7656C189.857 60.3759 190.483 58.9239 190.483 57.2117C190.483 52.9976 187.018 49.5931 182.781 49.6915ZM182.96 61.6625C180.594 61.6625 178.677 59.7447 178.677 57.3795C178.677 55.0143 180.595 53.0965 182.96 53.0965C185.326 53.0965 187.244 55.0143 187.244 57.3795C187.244 59.7447 185.326 61.6625 182.96 61.6625Z" fill="#FFCF35"/>
<path d="M33.7984 94.5294L0.792786 176.493L62.6782 166.316L108.061 176.493L154.543 166.316L216.704 178.174L183.423 94.5294L146.292 85.1777L108.748 92.3287L70.3796 85.1777L33.7984 94.5294Z" fill="white"/>
<path d="M33.7994 94.5291C33.7994 94.5291 34.0013 94.4722 34.4057 94.3664C34.8123 94.2605 35.4159 94.1039 36.2121 93.8969C37.8125 93.4842 40.1869 92.8719 43.2915 92.0715C49.5122 90.4739 58.6582 88.1253 70.3657 85.1187L70.3786 85.1155L70.392 85.1178C80.9669 87.0823 93.9467 89.4937 108.765 92.2466H108.734C119.972 90.1014 132.645 87.6826 146.275 85.0813L146.297 85.0771L146.318 85.0822C157.849 87.983 170.342 91.1259 183.451 94.4241L183.505 94.4376L183.525 94.4888C193.696 120.041 204.941 148.293 216.816 178.129L216.897 178.331L216.683 178.291C206.461 176.341 195.66 174.281 184.707 172.192C174.502 170.245 164.429 168.323 154.523 166.433L154.571 166.433C138.599 169.928 123.059 173.329 108.087 176.605L108.062 176.611L108.037 176.605C92.222 173.056 77.0518 169.651 62.6569 166.421L62.6976 166.422C39.9591 170.154 19.143 173.571 0.809441 176.58L0.65509 176.605L0.713781 176.46C10.9226 151.156 19.1892 130.666 24.9043 116.5C27.764 109.425 29.9854 103.93 31.4924 100.201C32.2466 98.3407 32.8224 96.9219 33.2102 95.9663C33.5965 95.0124 33.7994 94.5291 33.7994 94.5291C33.7994 94.5291 33.6076 95.0254 33.2254 95.9848C32.8418 96.9446 32.272 98.3693 31.5252 100.237C30.027 103.972 27.8185 109.477 24.9755 116.564C19.2816 130.731 11.046 151.221 0.875525 176.525L0.779403 176.406C19.1111 173.385 39.9253 169.956 62.6616 166.21L62.6819 166.207L62.7022 166.212C77.0984 169.437 92.2701 172.837 108.086 176.38H108.037C123.008 173.101 138.547 169.697 154.518 166.2L154.542 166.194L154.566 166.199C164.473 168.089 174.546 170.01 184.751 171.956C195.704 174.046 206.505 176.107 216.727 178.057L216.593 178.219C204.725 148.38 193.487 120.124 183.324 94.5697L183.398 94.6344C170.291 91.3297 157.799 88.1803 146.269 85.2731L146.311 85.2745C132.679 87.8656 120.004 90.2747 108.764 92.4111L108.749 92.4139L108.733 92.4111C93.9185 89.6411 80.9415 87.2145 70.3689 85.238L70.3948 85.237C58.6896 88.2155 49.5459 90.5423 43.3266 92.1251C40.2155 92.9135 37.8361 93.5165 36.232 93.9232C35.4311 94.1247 34.8244 94.2772 34.4154 94.3798C34.0087 94.4805 33.7994 94.5291 33.7994 94.5291Z" fill="#263238"/>
<path d="M35.7239 96.7294L6.56915 172.367L62.4034 163.291L108.748 174.017L154.543 163.015L211.478 174.017L181.498 96.7294L146.843 88.2031L108.748 95.3541L69.8294 88.2031L35.7239 96.7294Z" fill="white"/>
<path d="M9.80829 163.963L54.1878 153.685L52.5487 144.124L56.2364 141.802L50.5 119.474L32.7534 104.436L9.80829 163.963Z" fill="#8F8F8F"/>
<path d="M6.56915 172.367L8.73284 166.754L83.1428 149.466L87.185 160.589L85.8745 162.835L71.8983 165.488L62.4034 163.291L6.56915 172.367Z" fill="#EBEBEB"/>
<path d="M87.1844 148.389L90.1365 159.395L98.7048 163.12L110.899 157.702L136.475 150.252L128.494 138.23L87.1844 148.389Z" fill="#EBEBEB"/>
<path d="M57.461 152.465L71.2875 149.466L68.529 140.482L58.4565 142.917L55.7752 144.809L57.461 152.465Z" fill="#E0E0E0"/>
<path d="M54.6394 122.692L59.66 139.166L67.5042 137.44L66.0924 131.111L83.3501 127.242L54.6394 122.692Z" fill="#8F8F8F"/>
<path d="M34.0584 101.048L55.7747 118.482L84.6041 123.947L115.355 116.303L101.318 93.989L69.8285 88.2031L35.723 96.7294L34.0584 101.048Z" fill="#EBEBEB"/>
<path d="M105.518 94.7598L150.602 163.962L154.544 163.015L110.91 94.9478L108.749 95.3536L105.518 94.7598Z" fill="#EBEBEB"/>
<path d="M68.994 132.853L74.7063 149.466L125.417 136.51L116.033 120.533L68.994 132.853Z" fill="#E0E0E0"/>
<path d="M97.206 171.346L97.6996 170.612L101.031 165.66L109.023 163.12L114.52 158.978L138.354 152.465L145.756 165.127L108.748 174.017" fill="#E0E0E0"/>
<path d="M139.425 89.5955L151.37 102.882L181.499 96.7294L146.843 88.2031L139.425 89.5955Z" fill="#E0E0E0"/>
<path d="M187.84 113.077L165.711 119.225L154.544 104.435L182.254 98.6777L187.84 113.077Z" fill="#E0E0E0"/>
<path d="M113.276 94.5045L136.476 127.829L163.252 120.146L136.476 90.1494L113.276 94.5045Z" fill="#EBEBEB"/>
<path d="M178.14 167.575L204.912 157.088L211.478 174.017L178.14 167.575Z" fill="#E0E0E0"/>
<path d="M150.141 125.837L164.687 122.045L180.052 140.482L165.096 145.449L150.141 125.837Z" fill="#8F8F8F"/>
<path d="M167.965 120.533L184.15 139.091L196.343 135L188.326 114.332L167.965 120.533Z" fill="#E0E0E0"/>
<path d="M180.052 163.241L167.965 146.473L197.181 137.159L203.118 152.465L199.31 156.3L180.052 163.241Z" fill="#8F8F8F"/>
<path d="M137.898 130.281L160.108 163.964L173.784 166.735L176.364 165.553L148.222 127.17L137.898 130.281Z" fill="#E0E0E0"/>
<path d="M46.8765 155.377L41.3434 129.361L21.8315 132.77L9.80829 163.962L46.8765 155.377Z" fill="#E0E0E0"/>
<path d="M64.8167 89.4561V101.367L68.9939 101.895L80.6575 115.483L90.6839 114.331L95.4567 121.25L84.6041 123.947L55.7747 118.482L34.0584 101.048L35.723 96.7295L64.8167 89.4561Z" fill="#8F8F8F"/>
<path d="M125.799 92.2553L142.181 116.162L156.292 112.35L136.476 90.1494L125.799 92.2553Z" fill="#E0E0E0"/>
<path d="M173.891 116.952L167.965 107.685L183.991 103.155L187.839 113.077L173.891 116.952Z" fill="#EBEBEB"/>
<path d="M150.141 148.846L157.898 146.165L172.944 166.563L160.109 163.963L150.141 148.846Z" fill="#EBEBEB"/>
<path d="M78.5769 167.034L85.7921 166.156L88.1956 162.637L97.2062 165.47L94.8498 170.8L78.5769 167.034Z" fill="#8F8F8F"/>
<path d="M35.7249 96.7294C35.7249 96.7294 36.4847 96.5298 37.9732 96.1522C39.4654 95.7756 41.6785 95.2174 44.5724 94.4867C50.3725 93.0296 58.8993 90.8872 69.8156 88.1445L69.8281 88.1413L69.8411 88.1436C80.4658 90.0891 93.6351 92.5005 108.764 95.271H108.734C120.124 93.1281 132.979 90.7098 146.825 88.1047L146.846 88.1006L146.867 88.1057C157.699 90.7675 169.341 93.6286 181.524 96.6227L181.579 96.6361L181.6 96.6888C190.778 120.34 200.913 146.458 211.59 173.973L211.668 174.174L211.456 174.133C202.332 172.371 192.675 170.504 182.89 168.614C173.299 166.76 163.832 164.931 154.521 163.131L154.571 163.13C138.809 166.915 123.494 170.593 108.775 174.128L108.749 174.134L108.723 174.128C92.4853 170.367 76.9879 166.776 62.3795 163.392L62.4202 163.394C41.9091 166.721 23.155 169.763 6.58314 172.451L6.43341 172.476L6.48794 172.334C15.5124 148.971 22.8163 130.062 27.8646 116.992C30.391 110.465 32.3528 105.397 33.6842 101.957C34.3506 100.243 34.8589 98.9343 35.2013 98.0525C35.5452 97.1749 35.7249 96.7294 35.7249 96.7294C35.7249 96.7294 35.5562 97.1874 35.2194 98.0724C34.8806 98.9578 34.3783 100.272 33.7193 101.995C32.3967 105.44 30.4479 110.518 27.9381 117.057C22.9106 130.127 15.6376 149.035 6.65154 172.398L6.55634 172.281C23.1264 169.582 41.8786 166.527 62.3874 163.186L62.4082 163.183L62.4285 163.188C77.0382 166.566 92.5371 170.15 108.776 173.905H108.723C123.441 170.368 138.755 166.687 154.517 162.899L154.543 162.893L154.568 162.898C163.879 164.697 173.347 166.526 182.938 168.38C192.722 170.271 202.379 172.137 211.503 173.9L211.369 174.061C200.699 146.544 190.571 120.423 181.399 96.7692L181.474 96.8353C169.292 93.8347 157.651 90.9672 146.82 88.2998L146.863 88.3011C133.015 90.8951 120.158 93.3032 108.766 95.4373L108.751 95.4401L108.736 95.4373C93.6101 92.6484 80.4432 90.2208 69.8212 88.2623L69.8466 88.2614C58.933 90.9764 50.4081 93.0967 44.6098 94.5394C41.709 95.2576 39.4908 95.807 37.9954 96.1772C36.499 96.546 35.7249 96.7294 35.7249 96.7294Z" fill="#263238"/>
<g opacity="0.2">
<path d="M108.061 176.493L108.749 92.3287L70.3801 85.1777L62.6787 166.316L108.061 176.493Z" fill="black"/>
</g>
<g opacity="0.2">
<path d="M146.293 85.1777L154.544 166.316L216.704 178.174L183.424 94.5294L146.293 85.1777Z" fill="black"/>
</g>
<g clip-path="url(#clip0_1853_19859)">
<path d="M142.878 19.0653C133.373 6.10968 119.552 0.0698872 105.132 0.0703125C105.132 0.0703125 69.8169 0.0698875 59.3588 31.4001C55.5047 42.9468 56.3583 55.4852 61.035 66.7296C62.652 70.6179 64.8011 74.8349 67.633 78.8882C76.7513 91.9408 105.133 127.585 105.133 127.585H111.302C119.224 116.681 139.167 80.4605 145.14 68.8479C152.64 54.2655 153.793 33.9441 142.878 19.0653ZM111.022 77.0209C94.3619 77.0209 80.856 63.6365 80.856 47.126C80.856 30.6159 94.3619 17.2315 111.022 17.2315C127.682 17.2315 141.188 30.6159 141.188 47.126C141.188 63.6365 127.682 77.0209 111.022 77.0209Z" fill="#FFCF35"/>
<path opacity="0.4" d="M142.878 19.0653C133.373 6.10968 119.552 0.0698872 105.132 0.0703125C105.132 0.0703125 69.8169 0.0698875 59.3588 31.4001C55.5047 42.9468 56.3583 55.4852 61.035 66.7296C62.652 70.6179 64.8011 74.8349 67.633 78.8882C76.7513 91.9408 105.133 127.585 105.133 127.585H111.302C119.224 116.681 139.167 80.4605 145.14 68.8479C152.64 54.2655 153.793 33.9441 142.878 19.0653ZM111.022 77.0209C94.3619 77.0209 80.856 63.6365 80.856 47.126C80.856 30.6159 94.3619 17.2315 111.022 17.2315C127.682 17.2315 141.188 30.6159 141.188 47.126C141.188 63.6365 127.682 77.0209 111.022 77.0209Z" fill="black"/>
<path d="M149.088 19.3104C139.583 6.35479 125.763 0.315004 111.343 0.31543C111.343 0.31543 76.0272 0.315008 65.5691 31.6452C61.715 43.1919 62.5686 55.7303 67.2453 66.9747C68.8623 70.863 71.0114 75.08 73.8433 79.1334C82.9616 92.186 111.343 127.83 111.343 127.83C111.343 127.83 144.133 83.125 151.35 69.093C158.85 54.5111 160.003 34.1892 149.088 19.3104ZM111.063 77.266C94.3291 77.3025 80.8348 64.0586 80.8975 47.3707C80.9593 30.8606 94.4033 17.4762 111.063 17.4762C127.723 17.4762 141.242 30.8606 141.229 47.3707C141.217 63.9339 127.683 77.2298 111.063 77.266Z" fill="#FFCF35"/>
<path d="M111.022 17.2314C97.8969 17.2314 86.7355 25.5405 82.587 37.1383C86.6475 28.2636 95.6586 22.0873 106.131 22.0873C120.405 22.0873 131.977 33.5544 131.977 47.7C131.977 61.8456 120.405 73.3128 106.131 73.3128C97.8433 73.3128 90.472 69.4423 85.7425 63.4306C91.1251 71.61 100.433 77.0212 111.022 77.0212C127.682 77.0212 141.188 63.6369 141.188 47.1263C141.188 30.6158 127.682 17.2314 111.022 17.2314Z" fill="#FFCF35"/>
<path opacity="0.4" d="M111.022 17.2314C97.8969 17.2314 86.7355 25.5405 82.587 37.1383C86.6475 28.2636 95.6586 22.0873 106.131 22.0873C120.405 22.0873 131.977 33.5544 131.977 47.7C131.977 61.8456 120.405 73.3128 106.131 73.3128C97.8433 73.3128 90.472 69.4423 85.7425 63.4306C91.1251 71.61 100.433 77.0212 111.022 77.0212C127.682 77.0212 141.188 63.6369 141.188 47.1263C141.188 30.6158 127.682 17.2314 111.022 17.2314Z" fill="black"/>
</g>
<defs>
<clipPath id="clip0_1853_19859">
<rect width="100.203" height="127.759" fill="white" transform="translate(56.9276 0.0703125)"/>
</clipPath>
</defs>
</svg>
