<svg width="795" height="1027" viewBox="0 0 795 1027" fill="none" xmlns="http://www.w3.org/2000/svg">
<mask id="mask0_2207_7415" style="mask-type:alpha" maskUnits="userSpaceOnUse" x="4" y="0" width="791" height="1027">
<rect x="4.67285" y="0.427246" width="789.738" height="1026.03" fill="#030303"/>
</mask>
<g mask="url(#mask0_2207_7415)">
<rect x="617.065" y="147.231" width="122.972" height="163.365" rx="61.4862" transform="rotate(17.6719 617.065 147.231)" fill="#121212" stroke="#030303" stroke-width="7.7165"/>
<rect x="749.689" y="37.1743" width="122.972" height="166.009" rx="61.4862" transform="rotate(114.683 749.689 37.1743)" fill="#121212" stroke="#030303" stroke-width="7.7165"/>
<rect x="829.392" y="123.625" width="136.191" height="136.192" rx="68.0955" transform="rotate(114.683 829.392 123.625)" fill="#121212" stroke="#030303" stroke-width="7.7165"/>
<rect x="901.73" y="204.239" width="122.413" height="122.414" rx="14.2677" transform="rotate(118.746 901.73 204.239)" fill="#121212" stroke="#030303" stroke-width="7.7165"/>
<path d="M655.886 224.941C664.001 227.115 670.822 227.973 671.121 226.858C671.419 225.743 665.083 223.076 656.968 220.901C648.854 218.727 642.033 217.869 641.734 218.984C641.435 220.099 647.771 222.766 655.886 224.941Z" stroke="#464646" stroke-width="2.31495" stroke-miterlimit="10" stroke-linecap="round" stroke-linejoin="round"/>
<path d="M663.846 244.225C650.822 235.964 633.131 233.497 630.153 237.307" stroke="#464646" stroke-width="2.31495" stroke-miterlimit="10" stroke-linecap="round" stroke-linejoin="round"/>
<path d="M671.121 226.858C671.121 226.858 681.921 277.245 644.74 266.539C607.188 257.22 641.734 218.984 641.734 218.984" stroke="#464646" stroke-width="2.31495" stroke-miterlimit="10" stroke-linecap="round" stroke-linejoin="round"/>
<path d="M629.796 237.63C629.361 245.181 672.124 247.646 672.559 240.094" stroke="#464646" stroke-width="2.31495" stroke-miterlimit="10" stroke-linecap="round" stroke-linejoin="round"/>
<path d="M739.083 137.901C749.648 137.901 758.213 136.281 758.213 134.284C758.213 132.286 749.648 130.667 739.083 130.667C728.517 130.667 719.952 132.286 719.952 134.284C719.952 136.281 728.517 137.901 739.083 137.901Z" stroke="#464646" stroke-width="2.31495" stroke-miterlimit="10" stroke-linecap="round" stroke-linejoin="round"/>
<path d="M758.212 134.284C758.409 135.376 758.511 136.501 758.511 137.649C758.511 148.235 749.812 156.817 739.082 156.817C728.352 156.817 719.654 148.235 719.654 137.649C719.654 136.501 719.756 135.376 719.952 134.284" stroke="#464646" stroke-width="2.31495" stroke-miterlimit="10" stroke-linecap="round" stroke-linejoin="round"/>
<path d="M739.083 156.887V180.601" stroke="#464646" stroke-width="2.31495" stroke-miterlimit="10" stroke-linecap="round" stroke-linejoin="round"/>
<path d="M739.082 183.457C746.268 183.457 752.093 182.178 752.093 180.601C752.093 179.024 746.268 177.745 739.082 177.745C731.897 177.745 726.072 179.024 726.072 180.601C726.072 182.178 731.897 183.457 739.082 183.457Z" stroke="#464646" stroke-width="2.31495" stroke-miterlimit="10" stroke-linecap="round" stroke-linejoin="round"/>
<path d="M758.084 141.639C758.084 141.639 754.883 141.049 743.144 144.891C726.423 150.365 719.952 141.049 719.952 141.049C719.952 141.049 729.522 137.672 746.026 143.983" stroke="#464646" stroke-width="2.31495" stroke-miterlimit="10" stroke-linecap="round" stroke-linejoin="round"/>
<path d="M637.812 26.2386C637.812 26.2386 645.842 30.2985 645.734 38.6517C645.711 40.481 646.382 42.2557 647.628 43.5948C649.93 46.0679 652.598 50.9475 648.378 58.2562C644.158 65.565 638.598 65.6947 635.306 64.9379C633.523 64.528 631.65 64.834 630.078 65.7692C622.898 70.0395 615.367 65.1151 615.367 65.1151" stroke="#464646" stroke-width="2.31495" stroke-miterlimit="10" stroke-linecap="round" stroke-linejoin="round"/>
<path d="M629.616 47.424C635.815 36.6868 639.498 27.2074 637.842 26.2513C636.186 25.2951 629.818 33.2242 623.619 43.9614C617.42 54.6986 613.737 64.178 615.393 65.1341C617.049 66.0903 623.417 58.1612 629.616 47.424Z" stroke="#464646" stroke-width="2.31495" stroke-miterlimit="10" stroke-linecap="round" stroke-linejoin="round"/>
<path d="M648.377 58.2561L670.968 71.2988" stroke="#464646" stroke-width="2.31495" stroke-miterlimit="10" stroke-linecap="round" stroke-linejoin="round"/>
<path d="M673.566 72.7991C677.341 66.2615 679.237 60.29 677.802 59.4615C676.367 58.633 672.144 63.2611 668.37 69.7988C664.595 76.3364 662.698 82.3079 664.133 83.1364C665.569 83.9649 669.792 79.3367 673.566 72.7991Z" stroke="#464646" stroke-width="2.31495" stroke-miterlimit="10" stroke-linecap="round" stroke-linejoin="round"/>
<path d="M644.04 32.2729C632.501 44.11 636.454 59.3816 623.695 67.5102C621.89 65.3103 627.82 52.5054 636.904 43.7322" stroke="#464646" stroke-width="2.31495" stroke-miterlimit="10" stroke-linecap="round" stroke-linejoin="round"/>
</g>
<g filter="url(#filter0_d_2207_7415)">
<mask id="mask1_2207_7415" style="mask-type:alpha" maskUnits="userSpaceOnUse" x="4" y="0" width="791" height="658">
<rect x="4.11304" y="0.427246" width="790.065" height="656.574" fill="#FFCC4C"/>
</mask>
<g mask="url(#mask1_2207_7415)">
<rect x="3.41974" y="110.666" width="121.394" height="161.299" rx="60.6972" transform="rotate(17.6719 3.41974 110.666)" fill="#121212" stroke="#030303" stroke-width="7.7165"/>
<rect x="134.351" y="1.9026" width="121.394" height="163.911" rx="60.6972" transform="rotate(114.683 134.351 1.9026)" fill="#121212" stroke="#030303" stroke-width="7.7165"/>
<rect x="213.092" y="87.3091" width="134.453" height="134.454" rx="67.2267" transform="rotate(114.683 213.092 87.3091)" fill="#121212" stroke="#030303" stroke-width="7.7165"/>
<rect x="284.554" y="166.946" width="120.842" height="120.843" rx="14.2677" transform="rotate(118.746 284.554 166.946)" fill="#121212" stroke="#030303" stroke-width="7.7165"/>
<path d="M19.7661 -0.638536C19.7661 -0.638536 60.3242 -3.13958 42.0988 27.4283C23.3448 57.6746 6.90382 20.5142 6.90382 20.5142" fill="#121212"/>
<path d="M19.7661 -0.638537C19.7661 -0.638537 60.3242 -3.13958 42.0988 27.4283C23.3448 57.6746 6.90382 20.5142 6.90382 20.5142" stroke="#464646" stroke-width="2.31495" stroke-miterlimit="10" stroke-linecap="round" stroke-linejoin="round"/>
<path d="M15.2984 11.1316C18.8502 5.29044 20.8506 0.020755 19.7663 -0.638572C18.682 -1.2979 14.9237 2.90281 11.3718 8.74396C7.82 14.5851 5.81966 19.8548 6.90395 20.5141C7.98825 21.1735 11.7466 16.9728 15.2984 11.1316Z" fill="#121212" stroke="#464646" stroke-width="2.31495" stroke-miterlimit="10" stroke-linecap="round" stroke-linejoin="round"/>
<path d="M42.0999 27.4282L54.8796 35.1992" stroke="#464646" stroke-width="2.31495" stroke-miterlimit="10" stroke-linecap="round" stroke-linejoin="round"/>
<path d="M57.7023 36.9159C62.0213 29.8131 64.2586 23.2867 62.6995 22.3386C61.1404 21.3906 56.3753 26.38 52.0563 33.4828C47.7373 40.5856 45.5 47.112 47.0591 48.0601C48.6182 49.0081 53.3833 44.0187 57.7023 36.9159Z" fill="#121212" stroke="#464646" stroke-width="2.31495" stroke-miterlimit="10" stroke-linecap="round" stroke-linejoin="round"/>
<path d="M33.5958 0.605224C33.5958 0.605224 29.8786 3.33144 27.7586 9.2653C27.0403 11.2753 26.5056 13.6535 26.3606 16.4184C25.6442 30.0771 14.9147 32.828 14.9147 32.828C12.2922 26.2783 20.5941 14.4904 27.7586 9.2653" fill="#121212"/>
<path d="M33.5958 0.605223C33.5958 0.605223 29.8786 3.33144 27.7586 9.2653M27.7586 9.2653C27.0403 11.2753 26.5056 13.6535 26.3606 16.4184C25.6442 30.0771 14.9147 32.828 14.9147 32.828C12.2922 26.2783 20.5941 14.4904 27.7586 9.2653Z" stroke="#464646" stroke-width="2.31495" stroke-miterlimit="10" stroke-linecap="round" stroke-linejoin="round"/>
<path d="M213.804 169.144C224.403 174.65 233.609 177.932 234.366 176.475C235.123 175.018 227.144 169.374 216.545 163.868C205.945 158.362 196.739 155.08 195.983 156.537C195.226 157.994 203.205 163.638 213.804 169.144Z" fill="#121212" stroke="#464646" stroke-width="2.31495" stroke-miterlimit="10" stroke-linecap="round" stroke-linejoin="round"/>
<path d="M234.245 176.704L213.793 187.482C211.792 188.536 209.499 188.902 207.27 188.521C205.159 188.161 203.213 187.15 201.704 185.63C200.111 184.025 199.091 181.939 198.804 179.696L195.862 156.765" fill="#121212"/>
<path d="M234.245 176.704L213.793 187.482C211.792 188.536 209.499 188.902 207.27 188.521C205.159 188.161 203.213 187.15 201.704 185.63C200.111 184.025 199.091 181.939 198.804 179.696L195.862 156.765" stroke="#464646" stroke-width="2.31495" stroke-miterlimit="10" stroke-linecap="round" stroke-linejoin="round"/>
<path d="M204.261 187.51L189.406 216.107" stroke="#464646" stroke-width="2.31495" stroke-miterlimit="10" stroke-linecap="round" stroke-linejoin="round"/>
<path d="M202.131 222.717C201.629 223.683 195.527 221.507 188.5 217.857C181.474 214.207 176.185 210.466 176.687 209.5C177.189 208.534 183.291 210.71 190.317 214.36C197.343 218.009 202.633 221.751 202.131 222.717Z" fill="#121212" stroke="#464646" stroke-width="2.31495" stroke-miterlimit="10" stroke-linecap="round" stroke-linejoin="round"/>
<path d="M197.054 166.073C199.722 165.68 205.332 167.916 210.717 175.099C216.552 182.881 223.903 182.135 225.944 181.081L225.943 181.083C223.917 177.77 214.723 171.318 207.409 171.29" fill="#121212"/>
<path d="M197.054 166.073C199.722 165.68 205.332 167.916 210.717 175.099C216.552 182.881 223.903 182.135 225.944 181.081L225.943 181.083C223.917 177.77 214.723 171.318 207.409 171.29" stroke="#464646" stroke-width="2.31495" stroke-miterlimit="10" stroke-linecap="round" stroke-linejoin="round"/>
<path d="M123.934 101.39C134.372 101.39 142.833 99.79 142.833 97.8166C142.833 95.8432 134.372 94.2434 123.934 94.2434C113.496 94.2434 105.035 95.8432 105.035 97.8166C105.035 99.79 113.496 101.39 123.934 101.39Z" fill="#121212" stroke="#464646" stroke-width="2.31495" stroke-miterlimit="10" stroke-linecap="round" stroke-linejoin="round"/>
<path d="M142.833 97.8167C143.027 98.896 143.128 100.007 143.128 101.141C143.128 111.6 134.534 120.078 123.934 120.078C113.333 120.078 104.74 111.6 104.74 101.141C104.74 100.007 104.841 98.8962 105.034 97.8167" fill="#121212"/>
<path d="M142.833 97.8167C143.027 98.896 143.128 100.007 143.128 101.141C143.128 111.6 134.534 120.078 123.934 120.078C113.333 120.078 104.74 111.6 104.74 101.141C104.74 100.007 104.841 98.8962 105.034 97.8167" stroke="#464646" stroke-width="2.31495" stroke-miterlimit="10" stroke-linecap="round" stroke-linejoin="round"/>
<path d="M123.934 120.147V143.575" stroke="#464646" stroke-width="2.31495" stroke-miterlimit="10" stroke-linecap="round" stroke-linejoin="round"/>
<path d="M123.934 146.396C131.032 146.396 136.787 145.133 136.787 143.575C136.787 142.017 131.032 140.753 123.934 140.753C116.835 140.753 111.081 142.017 111.081 143.575C111.081 145.133 116.835 146.396 123.934 146.396Z" fill="#121212" stroke="#464646" stroke-width="2.31495" stroke-miterlimit="10" stroke-linecap="round" stroke-linejoin="round"/>
<path d="M142.706 105.083C142.706 105.083 139.544 104.5 127.946 108.296C111.427 113.703 105.035 104.5 105.035 104.5C105.035 104.5 114.488 101.164 130.794 107.399" fill="#121212"/>
<path d="M142.706 105.083C142.706 105.083 139.544 104.5 127.946 108.296C111.427 113.703 105.035 104.5 105.035 104.5C105.035 104.5 114.488 101.164 130.794 107.399" stroke="#464646" stroke-width="2.31495" stroke-miterlimit="10" stroke-linecap="round" stroke-linejoin="round"/>
<path d="M44.2153 178.15C50.6837 179.883 56.1839 180.331 56.5003 179.15C56.8167 177.969 51.8296 175.607 45.3612 173.874C38.8928 172.14 33.3926 171.693 33.0762 172.874C32.7598 174.055 37.7469 176.417 44.2153 178.15Z" fill="#121212" stroke="#464646" stroke-width="2.31495" stroke-miterlimit="10" stroke-linecap="round" stroke-linejoin="round"/>
<path d="M33.0759 172.874L26.9956 195.566C25.2624 202.034 29.101 208.683 35.5694 210.416C42.0378 212.149 48.6865 208.311 50.4197 201.842L56.5 179.15" fill="#121212"/>
<path d="M33.0759 172.874L26.9956 195.566C25.2624 202.034 29.101 208.683 35.5694 210.416C42.0378 212.149 48.6865 208.311 50.4197 201.842L56.5 179.15" stroke="#464646" stroke-width="2.31495" stroke-miterlimit="10" stroke-linecap="round" stroke-linejoin="round"/>
<path d="M48.5024 194.611C35.8697 186.041 28.5014 189.949 28.5014 189.949C28.5014 189.949 28.1148 193.194 38.961 195.242C48.1751 196.981 53.0879 191.886 53.0879 191.886" fill="#121212"/>
<path d="M48.5024 194.611C35.8697 186.041 28.5014 189.949 28.5014 189.949C28.5014 189.949 28.1148 193.194 38.961 195.242C48.1751 196.981 53.0879 191.886 53.0879 191.886" stroke="#464646" stroke-width="2.31495" stroke-miterlimit="10" stroke-linecap="round" stroke-linejoin="round"/>
<path d="M35.5693 210.416L28.7522 235.858" stroke="#464646" stroke-width="2.31495" stroke-miterlimit="10" stroke-linecap="round" stroke-linejoin="round"/>
<path d="M28.1794 237.997C34.6478 239.73 40.148 240.178 40.4644 238.997C40.7809 237.816 35.7937 235.453 29.3253 233.72C22.8569 231.987 17.3568 231.539 17.0403 232.72C16.7239 233.901 21.711 236.263 28.1794 237.997Z" fill="#121212" stroke="#464646" stroke-width="2.31495" stroke-miterlimit="10" stroke-linecap="round" stroke-linejoin="round"/>
</g>
</g>
<rect x="316.42" y="367.83" width="146.043" height="295.483" fill="url(#paint0_linear_2207_7415)" fill-opacity="0.1"/>
<mask id="mask2_2207_7415" style="mask-type:alpha" maskUnits="userSpaceOnUse" x="126" y="-10" width="546" height="667">
<rect x="126.147" y="-9.59375" width="545.013" height="666.08" fill="#D9D9D9"/>
</mask>
<g mask="url(#mask2_2207_7415)">
<rect x="126.147" y="655.234" width="539.554" height="23.7872" fill="#373737"/>
<g filter="url(#filter1_d_2207_7415)">
<path d="M325.568 305.072C325.568 297.856 319.718 292.005 312.501 292.005C319.717 292.005 325.568 286.156 325.568 278.938C325.568 286.155 331.419 292.005 338.635 292.005C331.418 292.006 325.568 297.856 325.568 305.072Z" fill="#FFBE1D"/>
<path d="M456.252 431.548C456.252 425.954 451.718 421.419 446.123 421.419C451.717 421.419 456.252 416.884 456.252 411.29C456.252 416.884 460.788 421.419 466.382 421.419C460.787 421.42 456.252 425.954 456.252 431.548Z" fill="#FFBE1D"/>
<g filter="url(#filter2_d_2207_7415)">
<mask id="mask3_2207_7415" style="mask-type:alpha" maskUnits="userSpaceOnUse" x="313" y="279" width="153" height="153">
<circle cx="389.483" cy="355.329" r="76.1904" fill="#FFBE1D" fill-opacity="0.36"/>
</mask>
<g mask="url(#mask3_2207_7415)">
</g>
<mask id="mask4_2207_7415" style="mask-type:alpha" maskUnits="userSpaceOnUse" x="313" y="279" width="153" height="153">
<circle cx="389.483" cy="355.329" r="76.1904" fill="#F5DDA3"/>
</mask>
<g mask="url(#mask4_2207_7415)">
<path d="M303.815 331.124L425.825 276.787L433.229 290.656L319.985 361.418L303.815 331.124Z" fill="url(#paint1_linear_2207_7415)"/>
<path d="M303.815 331.124L425.825 276.787L433.229 290.656L319.985 361.418L303.815 331.124Z" fill="white"/>
<path d="M342.356 388.569L459.085 323.658L467.685 336.819L361.141 417.315L342.356 388.569Z" fill="url(#paint2_linear_2207_7415)"/>
<path d="M342.356 388.569L459.085 323.658L467.685 336.819L361.141 417.315L342.356 388.569Z" fill="white"/>
<path d="M465.674 319.318L321.133 389.548L311.675 373.166L445.016 283.536L465.674 319.318Z" fill="url(#paint3_linear_2207_7415)"/>
<path d="M465.674 319.318L321.133 389.548L311.675 373.166L445.016 283.536L465.674 319.318Z" fill="white"/>
<path d="M509.482 373.63L364.941 443.86L355.483 427.478L488.823 337.848L509.482 373.63Z" fill="url(#paint4_linear_2207_7415)"/>
<path d="M509.482 373.63L364.941 443.86L355.483 427.478L488.823 337.848L509.482 373.63Z" fill="white"/>
</g>
<circle cx="389.483" cy="355.331" r="76.1904" fill="#FFE5A7"/>
<circle cx="389.483" cy="355.334" r="67.329" stroke="#EAAE18" stroke-width="6.57265"/>
<circle cx="389.483" cy="355.335" r="60.0311" fill="#FFBE1D"/>
<path d="M396.745 393.196L389.965 393.182C389.911 393.182 389.868 393.139 389.868 393.086L389.899 377.872C389.899 377.819 389.943 377.776 389.997 377.776L396.777 377.79C396.831 377.79 396.874 377.833 396.874 377.886L396.842 393.1C396.842 393.153 396.798 393.197 396.745 393.196Z" fill="black"/>
<path d="M412.548 353.248C412.412 351.349 411.563 349.299 409.847 348.221C409.573 348.06 409.278 347.928 408.961 347.83C408.643 347.733 408.304 347.668 407.943 347.642C407.556 347.591 407.159 347.567 406.756 347.565C405.547 347.562 404.288 347.769 403.144 348.095C402.496 348.206 401.846 348.314 401.195 348.418C399.243 348.73 397.285 349.009 395.322 349.226C394.456 349.322 393.553 349.094 392.547 348.967C392.428 348.952 392.327 349.055 392.346 349.173C392.624 350.954 393.223 352.488 394.43 353.756C395.087 354.447 395.898 354.753 396.876 354.763C398.348 354.778 399.464 354.08 400.476 353.149C400.943 352.718 401.399 352.276 401.854 351.831C402.309 351.387 402.762 350.941 403.225 350.507C404.313 349.4 405.674 348.294 407.29 348.096C407.613 348.056 407.946 348.053 408.29 348.093C408.532 348.123 408.775 348.191 409.01 348.29C412.534 350.505 412.412 355.81 410.318 358.98C410.113 359.313 409.894 359.634 409.665 359.942C408.059 362.101 405.905 363.679 403.685 365.178C400.743 367.165 397.731 369.053 394.826 371.091C393.688 371.888 392.625 372.871 391.753 373.951C390.804 375.126 390.202 376.433 389.908 377.771C389.891 377.846 389.919 377.929 389.986 377.969C389.996 377.975 390.006 377.982 390.015 377.99C390.052 378.02 390.096 378.042 390.144 378.041C391.195 378.028 392.247 378.019 393.298 378.013C394.429 378.008 395.561 378.005 396.692 378.004C396.791 378.004 396.87 377.925 396.872 377.827C396.914 376.024 397.45 374.239 398.418 372.502C399.582 370.413 401.275 368.731 403.081 367.168C404.787 365.691 406.508 364.23 408.176 362.711C408.994 361.966 409.731 361.174 410.356 360.311C410.565 360.024 410.761 359.729 410.944 359.425C411.563 358.221 412.291 357.015 412.412 355.568C412.412 355.568 412.533 354.724 412.53 354.039C412.545 353.78 412.555 353.516 412.548 353.248Z" fill="black"/>
<path d="M398.301 370.631H395.738C395.68 370.804 395.598 370.953 395.486 371.05C394.286 372.087 392.867 372.746 391.251 372.779C387.752 372.851 384.86 371.434 382.432 369.024C379.905 366.515 378.31 363.434 377.118 360.131C375.696 356.19 375.073 352.105 374.889 347.934C374.559 340.432 375.519 333.165 378.894 326.359C380.27 323.583 382.035 321.043 384.717 319.342C387.163 317.792 390.299 317.229 392.61 320.115C393.251 320.914 393.923 321.69 394.57 322.484C395.403 323.505 396.159 324.597 397.066 325.546C398.599 327.153 400.828 327.172 402.172 325.54C403.636 323.762 404.207 321.576 404.72 319.253C404.409 319.253 404.26 319.221 404.131 319.258C401.748 319.938 399.415 319.527 397.08 318.976C394.996 318.484 392.923 317.84 390.807 317.603C384.424 316.887 379.008 318.971 374.595 323.604C370.332 328.079 368.035 333.495 366.969 339.494C365.876 345.643 366.428 351.649 368.437 357.554C370.099 362.435 372.869 366.587 377.109 369.514C382.928 373.531 389.352 374.44 396.169 372.321C396.877 372.101 397.587 371.886 398.3 371.68V370.631H398.301Z" fill="black"/>
<path d="M385.971 392.354C385.971 392.354 388.229 392.212 389.384 390.376C389.971 389.443 389.916 388.115 389.867 386.056H393.349V393.19H385.962L385.971 392.354Z" fill="black"/>
<path d="M400.768 392.354C400.768 392.354 398.51 392.212 397.355 390.377C396.768 389.443 396.823 388.116 396.873 386.056H393.39V393.19H400.777L400.768 392.354Z" fill="black"/>
</g>
</g>
<path d="M581.739 526.036C581.739 526.036 607.916 527.449 616.859 504.316C624.759 483.882 614.06 463.984 599.092 457.829C599.092 457.829 549.759 507.748 581.739 526.036Z" fill="#202020"/>
<path d="M594.926 459.339C596.608 460.64 598.126 462.225 599.423 464.117C611.014 481.027 596.271 506.146 580.792 515.654C572.224 520.917 561.092 521.882 552.65 516.553C540.302 508.76 539.247 492.726 544.758 479.786C548.865 470.142 556.403 461.795 565.867 457.585C575.318 453.379 586.968 453.182 594.926 459.339Z" fill="#FEC29E"/>
<path d="M587.272 508.502C589.285 511.538 593.487 513.468 597.126 512.979C600.762 512.49 604.21 509.868 605.85 506.34C607.321 503.176 607.253 499.218 605.224 496.679C603.196 494.14 598.773 493.358 596.137 495.573L587.272 508.502Z" fill="#FEC29E"/>
<path d="M592.802 500.436L580.272 547.63C578.093 556.381 569.477 561.921 560.612 560.272C550.372 558.369 544.218 547.807 547.61 537.961L562.157 494.737L592.802 500.436Z" fill="#FEC29E"/>
<path d="M552.333 523.927L554.352 517.525C554.352 517.525 566.658 524.28 580.792 515.653C580.792 515.653 571.407 526.691 552.333 523.927Z" fill="#1E1C1C"/>
<path d="M599.509 494.294C582.589 489.882 569.352 475.169 563.786 458.594C563.786 458.594 582.613 446.909 603.814 460.397C621.385 471.577 599.509 494.294 599.509 494.294Z" fill="#202020"/>
<path d="M595.359 504.895C597.284 505.502 599.226 504.792 599.695 503.307C600.046 502.193 599.47 500.961 598.348 500.156" stroke="#1E1C1C" stroke-width="1.44824" stroke-miterlimit="10" stroke-linecap="round"/>
<path d="M566.895 494.415C566.592 496.057 568.372 497.76 570.869 498.219C573.366 498.679 575.635 497.721 575.937 496.08C576.239 494.438 574.46 492.736 571.963 492.276C569.467 491.817 567.197 492.775 566.895 494.415Z" fill="#F58F8D"/>
<path d="M554.579 492.901C553.628 492.045 553.02 491.014 552.497 489.937L551.988 488.887L553.103 488.853C553.475 488.842 554.069 488.556 554.584 488.258C555.125 487.961 555.645 487.593 556.181 487.238C557.241 486.504 558.291 485.723 559.399 484.974C558.686 486.11 557.831 487.133 556.875 488.076C556.4 488.554 555.88 488.987 555.319 489.4C554.732 489.789 554.159 490.194 553.218 490.339L553.823 489.255C554.396 490.305 554.883 491.4 555.029 492.671C555.046 492.819 554.939 492.953 554.791 492.97C554.711 492.978 554.634 492.951 554.579 492.901Z" fill="#1E1C1C"/>
<path d="M550.325 496.051C551.166 496.932 552.043 497.69 553.005 498.184C553.965 498.674 554.977 498.891 556.004 498.796C557.045 498.767 558.054 498.284 559.096 497.874L560.622 497.06C561.125 496.757 561.63 496.446 562.192 496.176C561.859 496.686 561.47 497.157 561.079 497.635C560.654 498.075 560.178 498.474 559.698 498.873C558.658 499.556 557.491 500.198 556.126 500.285C554.786 500.391 553.384 499.982 552.366 499.156C551.335 498.353 550.63 497.238 550.325 496.051Z" fill="#1E1C1C"/>
<path d="M549.122 486.111C548.62 487.702 546.25 488.372 543.828 487.609C543.328 487.451 542.876 487.236 542.46 486.993C542.863 485.151 543.409 483.332 544.07 481.555C544.58 481.59 545.11 481.677 545.646 481.847C548.068 482.61 549.623 484.519 549.122 486.111Z" fill="#F58F8D"/>
<path d="M568.347 482.092C567.809 483.521 567.346 485.047 567.256 486.494C567.229 487.209 567.267 487.928 567.561 488.429C567.822 488.931 568.354 489.21 568.96 489.309C570.165 489.602 571.427 488.721 572.441 487.678C573.457 486.602 574.336 485.294 575.083 483.967L575.095 483.946C575.225 483.717 575.513 483.636 575.743 483.765C575.95 483.882 576.036 484.131 575.954 484.347C575.37 485.897 574.559 487.315 573.469 488.613C572.923 489.26 572.252 489.832 571.463 490.281C570.687 490.743 569.653 490.963 568.696 490.779C567.761 490.615 566.764 490.039 566.305 489.088C565.846 488.167 565.84 487.222 565.949 486.376C566.186 484.665 566.806 483.15 567.631 481.726C567.742 481.533 567.988 481.468 568.181 481.579C568.354 481.679 568.425 481.888 568.357 482.07L568.347 482.092Z" fill="#1E1C1C"/>
<path d="M549.884 475.148C549.472 476.36 549.107 477.634 548.992 478.845C548.944 479.447 548.974 480.042 549.157 480.464C549.325 480.88 549.638 481.094 550.088 481.171C550.95 481.377 551.958 480.582 552.764 479.676C553.57 478.743 554.277 477.634 554.904 476.526L554.915 476.506C555.044 476.277 555.334 476.198 555.563 476.326C555.766 476.44 555.852 476.682 555.779 476.895C555.325 478.21 554.691 479.419 553.835 480.558C553.401 481.123 552.884 481.648 552.243 482.09C551.606 482.52 550.704 482.809 549.826 482.641C549.606 482.614 549.393 482.555 549.188 482.446C548.981 482.348 548.772 482.269 548.599 482.095C548.223 481.807 547.952 481.39 547.811 480.987C547.529 480.161 547.559 479.382 547.687 478.677C547.947 477.256 548.464 475.992 549.158 474.796C549.27 474.603 549.517 474.538 549.71 474.649C549.879 474.747 549.95 474.949 549.889 475.127L549.884 475.148Z" fill="#1E1C1C"/>
<path d="M638.662 477.009C642.699 464.21 635.888 450.653 623.448 446.729C611.008 442.804 597.65 449.998 593.612 462.797C589.575 475.595 596.386 489.152 608.826 493.077C621.266 497.001 634.624 489.807 638.662 477.009Z" fill="#202020"/>
<path d="M534.761 521.424C534.761 521.424 587.914 531.419 581.941 563.47C582.145 562.376 567.06 656.126 567.838 659.205L497.004 679.336C497.004 679.336 496.925 679.043 496.78 678.49C485.636 635.82 499.913 597.212 515.676 552.686L534.761 521.424Z" fill="white"/>
<path d="M598.204 586.253C594.235 590.219 590.243 594.161 586.187 598.042C582.622 601.455 579.005 604.862 575.341 608.243L603.306 645.686C607.728 651.232 615.631 652.529 621.595 648.687C627.97 644.581 629.845 636.104 625.797 629.691L598.204 586.253Z" fill="#FEC29E"/>
<path d="M643.285 718.457C643.837 719.703 644.39 720.947 644.94 722.185L644.942 722.182C645.45 723.325 645.853 724.236 646.136 724.876C650.248 722.776 654.534 721.026 658.903 719.724C659.401 719.432 659.896 719.136 660.394 718.844L658.821 712.402C656.948 705.98 655.001 700.079 653.012 694.628L650.875 687.789C636.722 641.637 621.582 618.104 610.543 606.414C609.404 608.904 608.202 611.372 606.942 613.819C606.304 616.438 605.665 619.06 605.026 621.679C603.54 627.774 602.178 633.934 600.483 639.942C617.378 663.847 627.9 684.578 636.726 703.853C639.24 709.405 641.539 714.54 643.285 718.457Z" fill="#FEC29E"/>
<path d="M532.674 560.192L575.99 541.961L602.349 578.037C602.349 578.037 602.803 606.787 582.06 635.129L530.85 590.674L532.674 560.192Z" fill="white"/>
<path d="M512.444 566.311C519.528 571.4 529.354 570.07 534.829 563.279C540.95 555.691 539.158 544.474 530.979 539.169L474.163 505.315L487.827 419.299L472.159 415.982C472.159 415.982 440.676 513.797 441.009 516.968C441.918 525.595 512.444 566.311 512.444 566.311Z" fill="#FEC29E"/>
<path d="M481.776 435.148C484.767 431.678 497.076 411.73 502.126 411.077C502.161 410.067 501.374 408.419 500.042 408.137C494.809 407.025 490.205 410.528 490.205 410.528C490.205 410.528 492.691 384.654 490.347 384.957C488.005 385.259 487.283 397.656 487.283 397.656C487.283 397.656 487.683 380.215 485.508 381.253C484.669 381.651 486.038 383.928 483.119 394.325C483.119 394.325 482.301 378.774 480.419 381.016C478.05 383.834 477.969 393.213 477.969 393.213C477.969 393.213 475.816 383.02 474.383 384.925C473.339 386.314 468.643 423.662 466.706 432.723C469.179 433.942 481.625 436.014 481.776 435.148Z" fill="#FEC29E"/>
<path d="M559.564 558.397L521.236 585.593L487.678 556.096C487.678 556.096 480.997 528.129 495.096 495.962L554.731 528.248L559.564 558.397Z" fill="white"/>
<path d="M508.514 574.641L534.803 595.112" stroke="#161616" stroke-width="1.5" stroke-miterlimit="10" stroke-linecap="round"/>
<path d="M273.396 657.625C276.34 658.829 327.692 827.41 327.692 827.41L266.929 827.766L234.666 714.969L240.135 827.039L174.494 827.789C174.494 827.789 164.794 676.624 182.994 639.536L273.396 657.625Z" fill="#C58038"/>
<path d="M311.121 459.652L277.217 380.731L291.342 373.788L340.539 453.993C343.592 459.053 341.561 468.28 337.476 474.885C337.438 474.957 337.405 475.029 337.366 475.102C329.497 489.571 265.446 535.098 265.446 535.098L257.709 496.502L311.121 459.652Z" fill="#FEC29E"/>
<path d="M283.843 390.078C279.995 387.741 262.445 372.826 257.525 373.747C257.187 372.814 257.424 371.034 258.584 370.367C263.137 367.741 268.502 369.62 268.502 369.62C268.502 369.62 258.337 346.188 260.619 345.762C262.9 345.334 267.333 356.703 267.333 356.703C267.333 356.703 261.672 340.522 264.021 340.833C264.926 340.952 264.336 343.494 270.216 352.328C270.216 352.328 266.266 337.544 268.706 339.07C271.773 340.985 274.692 349.728 274.692 349.728C274.692 349.728 273.615 339.546 275.532 340.892C276.928 341.875 292.639 375.361 297.195 383.243C295.252 385.132 284.245 390.842 283.843 390.078Z" fill="#FEC29E"/>
<path d="M268.989 369.493C268.989 369.493 275.335 367.54 281.069 373.786" stroke="#AA533B" stroke-width="1.20566" stroke-miterlimit="10"/>
<path d="M225.884 504.435L278.556 476.426C297.963 507.301 293.383 532.11 293.383 532.11L262.254 556.679L225.884 504.435Z" fill="white"/>
<path d="M196.22 495.196C196.22 495.196 160.275 478.332 169.925 439.804C176.553 413.343 221.902 410.43 228.32 434.201" fill="#202020"/>
<path d="M190.626 428.194C188.755 429.389 187.028 430.895 185.502 432.741C171.866 449.235 184.838 476.733 200.041 488.071C208.455 494.347 219.939 496.394 229.216 491.645C242.786 484.7 245.385 468.128 240.868 454.157C237.503 443.746 230.446 434.36 221.002 429.096C211.571 423.836 199.477 422.539 190.626 428.194Z" fill="#FEC29E"/>
<path d="M193.974 480.028C191.596 482.996 187.046 484.606 183.31 483.757C179.573 482.908 176.236 479.858 174.862 476.037C173.629 472.609 174.071 468.5 176.418 466.051C178.765 463.601 183.437 463.203 185.97 465.754L193.974 480.028Z" fill="#FEC29E"/>
<path d="M188.98 471.123L197.583 521.366C199.028 530.668 207.467 537.236 216.839 536.354C227.664 535.333 235.052 524.932 232.45 514.375L221.378 468.07L188.98 471.123Z" fill="#FEC29E"/>
<path d="M228.854 499.339L227.353 492.495C227.353 492.495 213.925 498.364 200.041 488.07C200.041 488.07 208.763 500.425 228.854 499.339Z" fill="#111010"/>
<path d="M185.905 475.518C183.845 475.969 181.893 475.048 181.546 473.459C181.286 472.268 182 471.04 183.244 470.311" stroke="#994332" stroke-width="1.20566" stroke-miterlimit="10"/>
<path d="M229.255 466.807C229.668 465.465 230.347 464.291 231.094 463.159L231.508 464.086C230.365 463.834 229.497 463.195 228.778 462.486C228.412 462.134 228.094 461.744 227.799 461.343C227.523 460.925 227.239 460.518 227.035 460.06C227.804 460.685 228.571 461.272 229.343 461.799C230.116 462.312 230.933 462.764 231.709 462.883L232.606 463.021L232.123 463.811C231.416 464.968 230.642 466.082 229.603 467.028L229.255 466.807Z" fill="#994332"/>
<path d="M237.233 453.16C237.571 454.451 236.799 455.772 235.507 456.109C234.217 456.447 232.896 455.675 232.559 454.383C232.221 453.093 232.993 451.772 234.284 451.435C235.575 451.097 236.894 451.87 237.233 453.16Z" fill="#1D0301"/>
<path d="M217.456 460.237C217.794 461.527 217.022 462.848 215.73 463.185C214.44 463.523 213.119 462.751 212.782 461.459C212.444 460.169 213.216 458.849 214.508 458.511C215.799 458.175 217.119 458.946 217.456 460.237Z" fill="#1D0301"/>
<path d="M233.117 470.432L221.504 474.254C221.504 474.254 223.095 478.885 229.074 477.172C234.061 475.742 233.117 470.432 233.117 470.432Z" fill="#1D0301"/>
<mask id="mask5_2207_7415" style="mask-type:luminance" maskUnits="userSpaceOnUse" x="221" y="470" width="13" height="8">
<path d="M233.117 470.432L221.504 474.254C221.504 474.254 223.095 478.885 229.074 477.172C234.061 475.742 233.117 470.432 233.117 470.432Z" fill="white"/>
</mask>
<g mask="url(#mask5_2207_7415)">
<path d="M223.565 482.868C225.332 484.795 228.328 484.923 230.254 483.156C232.18 481.388 232.309 478.394 230.542 476.467C228.775 474.541 225.779 474.412 223.853 476.179C221.927 477.947 221.798 480.942 223.565 482.868Z" fill="#FA7EC6"/>
</g>
<path d="M223.431 456.454C225.293 462.46 222.037 468.807 216.159 470.629C210.281 472.451 204.007 469.059 202.145 463.051C200.283 457.044 203.539 450.698 209.417 448.876C215.295 447.054 221.569 450.448 223.431 456.454Z" stroke="black" stroke-width="1.20566" stroke-miterlimit="10" stroke-linecap="round" stroke-linejoin="round"/>
<path d="M247.199 448.999C248.987 454.767 246.353 460.709 241.315 462.271C236.279 463.832 230.745 460.422 228.957 454.654C227.169 448.886 229.803 442.944 234.841 441.382C239.878 439.821 245.411 443.231 247.199 448.999Z" stroke="black" stroke-width="1.20566" stroke-miterlimit="10" stroke-linecap="round" stroke-linejoin="round"/>
<path d="M223.431 456.454C223.431 456.454 224.942 453.007 228.957 454.653" stroke="black" stroke-width="1.20566" stroke-miterlimit="10" stroke-linecap="round" stroke-linejoin="round"/>
<path d="M202.145 463.052L184.251 464.726" stroke="black" stroke-width="1.20566" stroke-miterlimit="10" stroke-linecap="round" stroke-linejoin="round"/>
<path d="M189.212 439.321C185.08 436.634 181.103 437.805 184.33 443.73C187.732 449.973 196.281 461.249 182.26 464.239C182.26 464.239 161.77 434.849 187.073 422.049C194.989 418.045 208.116 417.876 216.333 421.217C216.448 421.263 216.562 421.311 216.677 421.359C227.924 426.052 225.91 442.74 213.87 444.63C206.656 445.765 197.982 445.022 189.212 439.321Z" fill="#202020"/>
<path d="M192.609 518.512C184.312 521.625 172.788 527.97 162.585 537.353C160.77 539.023 160.605 543.099 161.265 545.476L174.826 676.975C174.826 676.975 233.356 686.453 280.917 660.702L266.291 513.563C266.059 512.283 264.638 512.662 262.34 511.519C257.586 509.155 251.447 506.97 238.644 505.629C238.644 505.629 203.798 514.313 192.609 518.512Z" fill="white"/>
<path d="M266.693 517.356C266.642 516.945 266.267 516.654 265.856 516.705C265.445 516.756 265.153 517.13 265.204 517.541L266.693 517.356ZM271.096 552.841L266.693 517.356L265.204 517.541L269.607 553.026L271.096 552.841Z" fill="#161616"/>
<path d="M230.098 503.961L196.867 516.888C196.867 516.888 200.588 529.43 218.138 523.995C235.689 518.561 230.098 503.961 230.098 503.961Z" fill="#FEC29E"/>
<path d="M182.776 642.101L187.738 584.342L149.101 594.335C149.101 594.335 148.353 663.884 155.762 672.953C160.117 678.283 253.644 679.593 253.644 679.593L256.807 662.573L182.776 642.101Z" fill="#FEC29E"/>
<path d="M251.835 664.401C256.013 662.726 278.477 657.64 280.692 653.153C281.642 653.443 282.923 654.701 282.761 656.029C282.128 661.247 277.405 664.411 277.405 664.411C277.405 664.411 302.248 670.344 301.219 672.426C300.192 674.508 288.439 671.228 288.439 671.228C288.439 671.228 304.778 676.413 303.121 678.105C302.482 678.757 301.714 679.603 290.208 676.16C290.208 676.16 304.404 681.875 301.719 682.911C298.346 684.215 289.601 681.302 289.601 681.302C289.601 681.302 298.392 686.552 296.164 687.276C294.539 687.804 258.327 680.27 249.288 679.184C248.943 676.495 250.982 664.265 251.835 664.401Z" fill="#FEC29E"/>
<path d="M174.959 530.543C174.959 530.543 139.893 536.105 141.204 608.319L194.669 611.477L189.208 561.23L174.959 530.543Z" fill="white"/>
<path d="M186.561 610.728C186.148 610.695 185.786 611.004 185.753 611.416C185.721 611.829 186.029 612.191 186.442 612.224L186.561 610.728ZM192.181 611.928L192.121 612.675L192.874 612.735L192.929 611.982L192.181 611.928ZM186.442 612.224L192.121 612.675L192.24 611.18L186.561 610.728L186.442 612.224ZM192.929 611.982L195.108 582.172L193.612 582.063L191.433 611.873L192.929 611.982Z" fill="#161616"/>
</g>
<path d="M213.282 352.508L85.6611 335.862C72.5356 334.15 60.5094 343.381 58.8007 356.481C57.0923 369.58 66.3472 381.586 79.4741 383.298L184.649 397.016L197.403 412.061L199.119 398.903L207.096 399.943C220.221 401.655 232.248 392.425 233.956 379.326C235.662 366.226 226.407 354.22 213.282 352.508Z" fill="#292929"/>
<path d="M87.2983 357.602C88.6658 356.74 89.6526 355.301 89.8778 353.575C90.2794 350.495 88.1033 347.673 85.0185 347.271C81.9326 346.868 79.1064 349.039 78.7049 352.117C78.4799 353.843 79.0644 355.488 80.1651 356.671C76.0136 357.607 72.6871 361.025 72.1055 365.483C71.3607 371.194 92.0822 373.897 92.827 368.186C93.4096 363.728 91.071 359.571 87.2983 357.602Z" fill="#3D3D3D"/>
<path d="M213.139 365.457L112.01 352.266C111.566 352.209 111.248 351.837 111.301 351.436C111.353 351.036 111.755 350.758 112.199 350.816L213.329 364.006C213.773 364.064 214.091 364.436 214.039 364.836C213.985 365.237 213.584 365.515 213.139 365.457Z" fill="#535353"/>
<path d="M194.657 384.824L109.217 373.68C108.773 373.622 108.456 373.25 108.508 372.85C108.56 372.449 108.963 372.171 109.406 372.229L194.847 383.373C195.29 383.431 195.608 383.803 195.556 384.203C195.503 384.605 195.101 384.882 194.657 384.824Z" fill="#535353"/>
<path d="M172.698 371.76L110.525 363.651C110.082 363.593 109.764 363.221 109.816 362.821C109.868 362.42 110.271 362.142 110.714 362.2L172.887 370.309C173.331 370.367 173.648 370.739 173.596 371.139C173.544 371.541 173.141 371.818 172.698 371.76Z" fill="#535353"/>
<path d="M211.654 376.841L180.45 372.771C180.007 372.713 179.689 372.341 179.741 371.941C179.793 371.541 180.196 371.263 180.639 371.32L211.843 375.39C212.287 375.448 212.604 375.82 212.552 376.22C212.5 376.622 212.099 376.899 211.654 376.841Z" fill="#535353"/>
<path d="M533.712 317.838L661.436 302.001C674.572 300.372 686.539 309.678 688.165 322.789C689.791 335.898 680.46 347.845 667.322 349.474L562.063 362.526L549.214 377.49L547.581 364.322L539.597 365.312C526.461 366.94 514.494 357.634 512.868 344.525C511.246 331.414 520.576 319.467 533.712 317.838Z" fill="#292929"/>
<path d="M659.661 323.729C658.299 322.859 657.321 321.414 657.107 319.686C656.725 316.604 658.919 313.796 662.006 313.413C665.094 313.03 667.907 315.218 668.289 318.299C668.503 320.026 667.908 321.667 666.8 322.844C670.945 323.806 674.25 327.245 674.804 331.707C675.512 337.422 654.774 339.993 654.065 334.278C653.511 329.816 655.876 325.674 659.661 323.729Z" fill="#3D3D3D"/>
<path d="M533.773 330.787L634.984 318.238C635.428 318.183 635.748 317.813 635.698 317.412C635.648 317.011 635.248 316.731 634.804 316.786L533.592 329.336C533.148 329.391 532.828 329.761 532.877 330.161C532.929 330.562 533.328 330.843 533.773 330.787Z" fill="#535353"/>
<path d="M552.132 350.271L637.641 339.668C638.085 339.613 638.405 339.243 638.355 338.843C638.306 338.442 637.905 338.162 637.461 338.217L551.952 348.819C551.508 348.874 551.188 349.244 551.238 349.645C551.287 350.047 551.688 350.326 552.132 350.271Z" fill="#535353"/>
<path d="M574.174 337.346L636.396 329.631C636.84 329.576 637.16 329.206 637.111 328.805C637.061 328.405 636.66 328.124 636.216 328.179L573.994 335.895C573.55 335.95 573.23 336.319 573.279 336.72C573.329 337.122 573.73 337.401 574.174 337.346Z" fill="#535353"/>
<path d="M535.186 342.181L566.415 338.308C566.859 338.253 567.179 337.884 567.129 337.483C567.08 337.082 566.679 336.802 566.235 336.857L535.006 340.729C534.562 340.784 534.242 341.154 534.292 341.555C534.342 341.957 534.741 342.236 535.186 342.181Z" fill="#535353"/>
<defs>
<filter id="filter0_d_2207_7415" x="0.113037" y="0.427246" width="287.199" height="297.092" filterUnits="userSpaceOnUse" color-interpolation-filters="sRGB">
<feFlood flood-opacity="0" result="BackgroundImageFix"/>
<feColorMatrix in="SourceAlpha" type="matrix" values="0 0 0 0 0 0 0 0 0 0 0 0 0 0 0 0 0 0 127 0" result="hardAlpha"/>
<feOffset dy="4"/>
<feGaussianBlur stdDeviation="2"/>
<feComposite in2="hardAlpha" operator="out"/>
<feColorMatrix type="matrix" values="0 0 0 0 0 0 0 0 0 0 0 0 0 0 0 0 0 0 0.25 0"/>
<feBlend mode="normal" in2="BackgroundImageFix" result="effect1_dropShadow_2207_7415"/>
<feBlend mode="normal" in="SourceGraphic" in2="effect1_dropShadow_2207_7415" result="shape"/>
</filter>
<filter id="filter1_d_2207_7415" x="204.501" y="174.938" width="369.881" height="368.61" filterUnits="userSpaceOnUse" color-interpolation-filters="sRGB">
<feFlood flood-opacity="0" result="BackgroundImageFix"/>
<feColorMatrix in="SourceAlpha" type="matrix" values="0 0 0 0 0 0 0 0 0 0 0 0 0 0 0 0 0 0 127 0" result="hardAlpha"/>
<feOffset dy="4"/>
<feGaussianBlur stdDeviation="54"/>
<feComposite in2="hardAlpha" operator="out"/>
<feColorMatrix type="matrix" values="0 0 0 0 0.917647 0 0 0 0 0.682353 0 0 0 0 0.0941176 0 0 0 0.25 0"/>
<feBlend mode="normal" in2="BackgroundImageFix" result="effect1_dropShadow_2207_7415"/>
<feBlend mode="normal" in="SourceGraphic" in2="effect1_dropShadow_2207_7415" result="shape"/>
</filter>
<filter id="filter2_d_2207_7415" x="313.292" y="279.138" width="152.381" height="163.337" filterUnits="userSpaceOnUse" color-interpolation-filters="sRGB">
<feFlood flood-opacity="0" result="BackgroundImageFix"/>
<feColorMatrix in="SourceAlpha" type="matrix" values="0 0 0 0 0 0 0 0 0 0 0 0 0 0 0 0 0 0 127 0" result="hardAlpha"/>
<feOffset dy="10.9544"/>
<feComposite in2="hardAlpha" operator="out"/>
<feColorMatrix type="matrix" values="0 0 0 0 0 0 0 0 0 0 0 0 0 0 0 0 0 0 1 0"/>
<feBlend mode="normal" in2="BackgroundImageFix" result="effect1_dropShadow_2207_7415"/>
<feBlend mode="normal" in="SourceGraphic" in2="effect1_dropShadow_2207_7415" result="shape"/>
</filter>
<linearGradient id="paint0_linear_2207_7415" x1="389.441" y1="367.83" x2="389.441" y2="639.384" gradientUnits="userSpaceOnUse">
<stop stop-color="#FFBE1D"/>
<stop offset="1" stop-color="#FFBE1D" stop-opacity="0"/>
</linearGradient>
<linearGradient id="paint1_linear_2207_7415" x1="430.193" y1="290.801" x2="302.411" y2="351.336" gradientUnits="userSpaceOnUse">
<stop stop-color="#FFBE1D"/>
<stop offset="1" stop-color="#FFBE1D" stop-opacity="0"/>
<stop offset="1" stop-color="#FFBE1D"/>
</linearGradient>
<linearGradient id="paint2_linear_2207_7415" x1="464.674" y1="337.231" x2="342.743" y2="408.826" gradientUnits="userSpaceOnUse">
<stop stop-color="#FFBE1D"/>
<stop offset="1" stop-color="#FFBE1D" stop-opacity="0"/>
<stop offset="1" stop-color="#FFBE1D"/>
</linearGradient>
<linearGradient id="paint3_linear_2207_7415" x1="315.32" y1="372.871" x2="466.554" y2="294.956" gradientUnits="userSpaceOnUse">
<stop stop-color="#FFBE1D"/>
<stop offset="1" stop-color="#FFBE1D" stop-opacity="0"/>
<stop offset="1" stop-color="#FFBE1D"/>
</linearGradient>
<linearGradient id="paint4_linear_2207_7415" x1="359.128" y1="427.183" x2="510.361" y2="349.268" gradientUnits="userSpaceOnUse">
<stop stop-color="#FFBE1D"/>
<stop offset="1" stop-color="#FFBE1D" stop-opacity="0"/>
<stop offset="1" stop-color="#FFBE1D"/>
</linearGradient>
</defs>
</svg>
