<svg width="428" height="927" viewBox="0 0 428 927" fill="none" xmlns="http://www.w3.org/2000/svg">
<g clip-path="url(#clip0_2207_7660)">
<rect x="159.593" y="384.656" width="92.9404" height="188.043" fill="url(#paint0_linear_2207_7660)" fill-opacity="0.1"/>
<mask id="mask0_2207_7660" style="mask-type:alpha" maskUnits="userSpaceOnUse" x="38" y="144" width="348" height="425">
<rect x="38.5052" y="144.467" width="346.841" height="423.887" fill="#D9D9D9"/>
</mask>
<g mask="url(#mask0_2207_7660)">
<rect x="38.5051" y="567.557" width="343.367" height="15.1379" fill="#373737"/>
<g filter="url(#filter0_d_2207_7660)">
<path d="M165.415 344.717C165.415 340.125 161.692 336.402 157.099 336.402C161.692 336.402 165.415 332.679 165.415 328.086C165.415 332.678 169.138 336.402 173.731 336.402C169.138 336.402 165.415 340.125 165.415 344.717Z" fill="#FFBE1D"/>
<path d="M248.581 425.205C248.581 421.645 245.695 418.759 242.135 418.759C245.695 418.759 248.581 415.873 248.581 412.313C248.581 415.873 251.467 418.759 255.027 418.759C251.467 418.76 248.581 421.645 248.581 425.205Z" fill="#FFBE1D"/>
<g filter="url(#filter1_d_2207_7660)">
<mask id="mask1_2207_7660" style="mask-type:alpha" maskUnits="userSpaceOnUse" x="157" y="328" width="98" height="98">
<circle cx="206.09" cy="376.7" r="48.4869" fill="#FFBE1D" fill-opacity="0.36"/>
</mask>
<g mask="url(#mask1_2207_7660)">
</g>
<mask id="mask2_2207_7660" style="mask-type:alpha" maskUnits="userSpaceOnUse" x="157" y="328" width="98" height="98">
<circle cx="206.09" cy="376.7" r="48.4869" fill="#F5DDA3"/>
</mask>
<g mask="url(#mask2_2207_7660)">
<path d="M151.572 361.296L229.218 326.717L233.929 335.543L161.862 380.575L151.572 361.296Z" fill="url(#paint1_linear_2207_7660)"/>
<path d="M151.572 361.296L229.218 326.717L233.929 335.543L161.862 380.575L151.572 361.296Z" fill="white"/>
<path d="M176.099 397.854L250.384 356.545L255.857 364.921L188.053 416.148L176.099 397.854Z" fill="url(#paint2_linear_2207_7660)"/>
<path d="M176.099 397.854L250.384 356.545L255.857 364.921L188.053 416.148L176.099 397.854Z" fill="white"/>
<path d="M254.578 353.783L162.593 398.477L156.574 388.051L241.431 331.012L254.578 353.783Z" fill="url(#paint3_linear_2207_7660)"/>
<path d="M254.578 353.783L162.593 398.477L156.574 388.051L241.431 331.012L254.578 353.783Z" fill="white"/>
<path d="M282.456 388.347L190.472 433.04L184.453 422.615L269.309 365.576L282.456 388.347Z" fill="url(#paint4_linear_2207_7660)"/>
<path d="M282.456 388.347L190.472 433.04L184.453 422.615L269.309 365.576L282.456 388.347Z" fill="white"/>
</g>
<circle cx="206.09" cy="376.702" r="48.4869" fill="#FFE5A7"/>
<circle cx="206.09" cy="376.703" r="42.8476" stroke="#EAAE18" stroke-width="4.18277"/>
<circle cx="206.09" cy="376.704" r="38.2033" fill="#FFBE1D"/>
<path d="M210.711 400.799L206.396 400.79C206.362 400.79 206.335 400.762 206.335 400.728L206.355 391.046C206.355 391.012 206.382 390.985 206.417 390.985L210.731 390.994C210.766 390.994 210.793 391.022 210.793 391.056L210.773 400.737C210.773 400.771 210.745 400.799 210.711 400.799Z" fill="black"/>
<path d="M220.768 375.376C220.682 374.167 220.142 372.862 219.049 372.177C218.875 372.074 218.687 371.99 218.485 371.928C218.283 371.866 218.067 371.825 217.837 371.808C217.592 371.776 217.339 371.76 217.082 371.759C216.312 371.758 215.511 371.889 214.784 372.097C214.371 372.167 213.957 372.236 213.543 372.302C212.301 372.501 211.055 372.678 209.805 372.816C209.254 372.877 208.68 372.732 208.04 372.651C207.964 372.642 207.9 372.708 207.911 372.783C208.089 373.916 208.47 374.892 209.238 375.699C209.656 376.139 210.172 376.334 210.795 376.34C211.731 376.35 212.442 375.905 213.086 375.313C213.383 375.039 213.673 374.757 213.963 374.474C214.252 374.191 214.541 373.908 214.835 373.631C215.528 372.927 216.393 372.223 217.422 372.097C217.627 372.072 217.84 372.07 218.058 372.095C218.212 372.115 218.367 372.158 218.516 372.22C220.759 373.63 220.682 377.006 219.349 379.023C219.218 379.236 219.079 379.44 218.933 379.636C217.911 381.01 216.541 382.014 215.128 382.968C213.255 384.233 211.339 385.434 209.49 386.731C208.766 387.238 208.089 387.864 207.535 388.551C206.93 389.299 206.547 390.131 206.36 390.982C206.349 391.03 206.368 391.083 206.41 391.108C206.416 391.112 206.423 391.116 206.428 391.121C206.452 391.141 206.48 391.154 206.51 391.154C207.179 391.146 207.848 391.14 208.517 391.136C209.237 391.133 209.958 391.131 210.677 391.13C210.74 391.13 210.791 391.08 210.792 391.017C210.819 389.87 211.16 388.734 211.776 387.629C212.516 386.299 213.594 385.229 214.743 384.234C215.829 383.294 216.924 382.365 217.986 381.398C218.506 380.924 218.975 380.42 219.373 379.871C219.506 379.688 219.631 379.5 219.747 379.307C220.142 378.541 220.604 377.773 220.681 376.852C220.681 376.852 220.759 376.315 220.757 375.879C220.766 375.714 220.773 375.547 220.768 375.376Z" fill="black"/>
<path d="M211.702 386.439H210.071C210.034 386.548 209.982 386.643 209.91 386.705C209.146 387.365 208.244 387.784 207.215 387.805C204.989 387.851 203.148 386.949 201.603 385.415C199.995 383.819 198.98 381.858 198.221 379.756C197.316 377.248 196.92 374.648 196.803 371.994C196.593 367.22 197.204 362.595 199.351 358.264C200.227 356.497 201.35 354.881 203.057 353.799C204.614 352.812 206.61 352.454 208.08 354.29C208.488 354.799 208.915 355.292 209.328 355.798C209.857 356.448 210.338 357.143 210.916 357.747C211.892 358.769 213.31 358.782 214.165 357.743C215.097 356.611 215.46 355.22 215.787 353.742C215.589 353.742 215.494 353.722 215.412 353.745C213.896 354.178 212.411 353.916 210.925 353.566C209.599 353.252 208.279 352.843 206.933 352.692C202.871 352.236 199.424 353.562 196.616 356.511C193.903 359.359 192.441 362.805 191.763 366.623C191.067 370.536 191.418 374.358 192.697 378.116C193.754 381.223 195.517 383.865 198.215 385.727C201.919 388.284 206.007 388.862 210.345 387.514C210.795 387.374 211.247 387.237 211.701 387.106V386.439H211.702Z" fill="black"/>
<path d="M203.855 400.262C203.855 400.262 205.292 400.172 206.027 399.004C206.401 398.41 206.366 397.565 206.334 396.255H208.55V400.795H203.849L203.855 400.262Z" fill="black"/>
<path d="M213.272 400.263C213.272 400.263 211.834 400.172 211.099 399.004C210.726 398.41 210.761 397.565 210.793 396.255H208.576V400.795H213.277L213.272 400.263Z" fill="black"/>
</g>
</g>
<path d="M328.44 485.336C328.44 485.336 345.098 486.236 350.79 471.514C355.817 458.51 349.008 445.847 339.483 441.93C339.483 441.93 308.088 473.699 328.44 485.336Z" fill="#202020"/>
<path d="M336.831 442.891C337.902 443.719 338.868 444.728 339.693 445.932C347.07 456.693 337.687 472.679 327.837 478.73C322.384 482.079 315.3 482.693 309.927 479.302C302.069 474.342 301.398 464.138 304.905 455.903C307.519 449.766 312.316 444.454 318.339 441.775C324.353 439.099 331.767 438.973 336.831 442.891Z" fill="#FEC29E"/>
<path d="M331.96 474.178C333.242 476.11 335.916 477.338 338.231 477.027C340.546 476.716 342.74 475.047 343.783 472.802C344.72 470.789 344.676 468.27 343.385 466.654C342.094 465.038 339.28 464.541 337.602 465.95L331.96 474.178Z" fill="#FEC29E"/>
<path d="M335.48 469.045L327.506 499.079C326.12 504.648 320.636 508.173 314.994 507.124C308.478 505.913 304.561 499.192 306.72 492.925L315.978 465.418L335.48 469.045Z" fill="#FEC29E"/>
<path d="M309.726 483.994L311.011 479.921C311.011 479.921 318.842 484.219 327.836 478.729C327.836 478.729 321.864 485.753 309.726 483.994Z" fill="#1E1C1C"/>
<path d="M339.748 465.136C328.981 462.329 320.557 452.965 317.014 442.417C317.014 442.417 328.996 434.981 342.488 443.565C353.67 450.679 339.748 465.136 339.748 465.136Z" fill="#202020"/>
<path d="M337.107 471.882C338.333 472.269 339.568 471.817 339.867 470.872C340.09 470.163 339.724 469.379 339.009 468.867" stroke="#1E1C1C" stroke-width="0.921648" stroke-miterlimit="10" stroke-linecap="round"/>
<path d="M318.993 465.213C318.8 466.258 319.933 467.342 321.522 467.634C323.111 467.927 324.555 467.317 324.747 466.273C324.939 465.228 323.807 464.144 322.218 463.852C320.63 463.56 319.186 464.169 318.993 465.213Z" fill="#F58F8D"/>
<path d="M311.155 464.25C310.55 463.705 310.163 463.049 309.83 462.364L309.506 461.695L310.216 461.674C310.453 461.667 310.831 461.485 311.159 461.295C311.502 461.106 311.833 460.872 312.175 460.646C312.849 460.179 313.517 459.682 314.222 459.205C313.769 459.928 313.224 460.579 312.616 461.179C312.314 461.483 311.983 461.759 311.626 462.022C311.253 462.27 310.888 462.527 310.289 462.62L310.674 461.93C311.039 462.597 311.348 463.295 311.441 464.103C311.452 464.198 311.384 464.283 311.29 464.293C311.239 464.299 311.19 464.281 311.155 464.25Z" fill="#1E1C1C"/>
<path d="M308.448 466.254C308.983 466.815 309.541 467.298 310.153 467.612C310.765 467.923 311.409 468.062 312.062 468.001C312.724 467.983 313.367 467.676 314.03 467.414L315.001 466.896C315.321 466.704 315.642 466.506 316 466.334C315.788 466.659 315.54 466.958 315.292 467.262C315.021 467.543 314.718 467.796 314.413 468.05C313.751 468.485 313.009 468.894 312.14 468.949C311.287 469.016 310.395 468.756 309.747 468.231C309.091 467.72 308.642 467.01 308.448 466.254Z" fill="#1E1C1C"/>
<path d="M307.682 459.929C307.363 460.941 305.855 461.368 304.313 460.882C303.995 460.781 303.708 460.644 303.443 460.49C303.7 459.318 304.047 458.16 304.467 457.029C304.792 457.052 305.13 457.107 305.47 457.215C307.012 457.7 308.002 458.916 307.682 459.929Z" fill="#F58F8D"/>
<path d="M319.917 457.371C319.575 458.28 319.28 459.251 319.223 460.173C319.205 460.627 319.23 461.085 319.417 461.403C319.583 461.723 319.921 461.901 320.307 461.964C321.074 462.151 321.877 461.59 322.523 460.926C323.169 460.241 323.728 459.408 324.204 458.564L324.212 458.551C324.294 458.405 324.478 458.353 324.623 458.436C324.756 458.51 324.81 458.669 324.758 458.806C324.387 459.793 323.87 460.695 323.177 461.521C322.829 461.933 322.402 462.296 321.9 462.582C321.407 462.876 320.748 463.016 320.139 462.899C319.544 462.795 318.91 462.428 318.618 461.823C318.325 461.237 318.321 460.636 318.391 460.097C318.542 459.008 318.936 458.044 319.461 457.138C319.532 457.015 319.689 456.974 319.812 457.045C319.922 457.108 319.967 457.241 319.923 457.357L319.917 457.371Z" fill="#1E1C1C"/>
<path d="M308.167 452.952C307.905 453.723 307.673 454.534 307.6 455.304C307.569 455.688 307.588 456.066 307.705 456.335C307.811 456.6 308.011 456.736 308.297 456.785C308.846 456.916 309.488 456.41 310 455.834C310.513 455.24 310.963 454.534 311.362 453.829L311.369 453.816C311.451 453.671 311.636 453.62 311.782 453.702C311.911 453.774 311.965 453.928 311.919 454.064C311.63 454.901 311.226 455.67 310.682 456.395C310.406 456.754 310.077 457.088 309.669 457.37C309.263 457.644 308.689 457.827 308.131 457.72C307.99 457.703 307.855 457.666 307.724 457.596C307.593 457.534 307.46 457.483 307.35 457.373C307.11 457.19 306.938 456.924 306.848 456.668C306.669 456.142 306.688 455.647 306.769 455.197C306.935 454.294 307.264 453.489 307.706 452.728C307.777 452.605 307.934 452.564 308.056 452.634C308.164 452.697 308.209 452.825 308.171 452.938L308.167 452.952Z" fill="#1E1C1C"/>
<path d="M364.665 454.136C367.234 445.991 362.9 437.364 354.983 434.866C347.066 432.369 338.565 436.947 335.996 445.092C333.426 453.237 337.761 461.864 345.678 464.362C353.595 466.859 362.095 462.281 364.665 454.136Z" fill="#202020"/>
<path d="M298.543 482.401C298.543 482.401 332.369 488.762 328.568 509.159C328.698 508.463 319.098 568.125 319.593 570.084L274.515 582.895C274.515 582.895 274.465 582.709 274.373 582.357C267.281 555.202 276.367 530.632 286.398 502.296L298.543 482.401Z" fill="white"/>
<path d="M338.918 523.658C336.392 526.182 333.851 528.691 331.27 531.16C329.002 533.332 326.7 535.501 324.368 537.652L342.165 561.481C344.979 565.01 350.008 565.836 353.804 563.391C357.861 560.778 359.054 555.383 356.478 551.302L338.918 523.658Z" fill="#FEC29E"/>
<path d="M367.607 607.791C367.959 608.584 368.31 609.376 368.66 610.164L368.662 610.162C368.985 610.889 369.242 611.469 369.422 611.876C372.039 610.54 374.766 609.427 377.546 608.598C377.863 608.412 378.178 608.224 378.495 608.038L377.494 603.938C376.302 599.851 375.063 596.096 373.797 592.627L372.438 588.274C363.43 558.904 353.795 543.928 346.771 536.488C346.046 538.073 345.281 539.644 344.479 541.201C344.073 542.868 343.666 544.536 343.26 546.203C342.314 550.082 341.447 554.002 340.369 557.825C351.12 573.038 357.817 586.232 363.433 598.497C365.033 602.031 366.496 605.299 367.607 607.791Z" fill="#FEC29E"/>
<path d="M297.215 507.073L324.781 495.471L341.556 518.429C341.556 518.429 341.845 536.726 328.644 554.763L296.055 526.472L297.215 507.073Z" fill="white"/>
<path d="M284.341 510.967C288.849 514.206 295.102 513.359 298.587 509.038C302.482 504.209 301.342 497.07 296.136 493.694L259.979 472.15L268.675 417.41L258.704 415.299C258.704 415.299 238.669 477.548 238.881 479.566C239.459 485.056 284.341 510.967 284.341 510.967Z" fill="#FEC29E"/>
<path d="M264.824 427.496C266.728 425.288 274.561 412.594 277.775 412.178C277.797 411.535 277.296 410.486 276.448 410.307C273.118 409.599 270.188 411.828 270.188 411.828C270.188 411.828 271.77 395.362 270.279 395.555C268.788 395.748 268.329 403.637 268.329 403.637C268.329 403.637 268.583 392.537 267.199 393.198C266.665 393.451 267.537 394.9 265.679 401.517C265.679 401.517 265.158 391.621 263.96 393.047C262.453 394.84 262.401 400.81 262.401 400.81C262.401 400.81 261.031 394.322 260.119 395.535C259.455 396.419 256.466 420.187 255.233 425.953C256.807 426.729 264.728 428.047 264.824 427.496Z" fill="#FEC29E"/>
<path d="M314.328 505.931L289.936 523.238L268.58 504.467C268.58 504.467 264.328 486.669 273.301 466.198L311.252 486.745L314.328 505.931Z" fill="white"/>
<path d="M281.84 516.269L298.57 529.296" stroke="#161616" stroke-width="0.954586" stroke-miterlimit="10" stroke-linecap="round"/>
<path d="M132.213 569.079C134.087 569.845 166.767 677.128 166.767 677.128L128.098 677.354L107.566 605.571L111.046 676.892L69.2729 677.369C69.2729 677.369 63.0998 581.17 74.6821 557.567L132.213 569.079Z" fill="#C58038"/>
<path d="M156.221 443.09L134.645 392.866L143.634 388.448L174.943 439.489C176.885 442.709 175.593 448.581 172.993 452.785C172.969 452.831 172.948 452.877 172.923 452.922C167.915 462.131 127.154 491.104 127.154 491.104L122.23 466.542L156.221 443.09Z" fill="#FEC29E"/>
<path d="M138.862 398.814C136.413 397.327 125.244 387.835 122.113 388.421C121.898 387.827 122.049 386.695 122.787 386.27C125.685 384.599 129.099 385.795 129.099 385.795C129.099 385.795 122.63 370.883 124.082 370.612C125.534 370.339 128.355 377.575 128.355 377.575C128.355 377.575 124.752 367.277 126.247 367.475C126.823 367.551 126.448 369.169 130.189 374.79C130.189 374.79 127.676 365.382 129.229 366.353C131.181 367.572 133.038 373.136 133.038 373.136C133.038 373.136 132.353 366.656 133.573 367.513C134.461 368.138 144.459 389.449 147.359 394.464C146.122 395.667 139.118 399.3 138.862 398.814Z" fill="#FEC29E"/>
<path d="M129.408 385.714C129.408 385.714 133.447 384.471 137.096 388.446" stroke="#AA533B" stroke-width="0.767273" stroke-miterlimit="10"/>
<path d="M101.977 471.59L135.497 453.765C147.848 473.413 144.933 489.202 144.933 489.202L125.122 504.837L101.977 471.59Z" fill="white"/>
<path d="M83.0989 465.71C83.0989 465.71 60.2237 454.978 66.3647 430.459C70.5828 413.62 99.4426 411.766 103.527 426.894" fill="#202020"/>
<path d="M79.539 423.071C78.3481 423.831 77.249 424.79 76.2784 425.964C67.6001 436.461 75.8555 453.961 85.5305 461.176C90.8852 465.17 98.1936 466.472 104.097 463.45C112.733 459.031 114.387 448.484 111.513 439.593C109.371 432.968 104.88 426.995 98.8704 423.645C92.8681 420.297 85.172 419.472 79.539 423.071Z" fill="#FEC29E"/>
<path d="M81.6696 456.057C80.1564 457.946 77.2609 458.971 74.8831 458.431C72.5054 457.89 70.3814 455.949 69.5068 453.518C68.7223 451.336 69.0035 448.721 70.4972 447.163C71.9909 445.604 74.9641 445.35 76.576 446.974L81.6696 456.057Z" fill="#FEC29E"/>
<path d="M78.4913 450.39L83.9664 482.365C84.886 488.285 90.2563 492.465 96.2207 491.903C103.11 491.253 107.811 484.634 106.155 477.915L99.1094 448.447L78.4913 450.39Z" fill="#FEC29E"/>
<path d="M103.867 468.347L102.912 463.991C102.912 463.991 94.3665 467.726 85.5305 461.175C85.5305 461.175 91.0811 469.038 103.867 468.347Z" fill="#111010"/>
<path d="M76.5348 453.187C75.224 453.475 73.9818 452.888 73.7609 451.877C73.5951 451.119 74.0497 450.338 74.8413 449.874" stroke="#994332" stroke-width="0.767273" stroke-miterlimit="10"/>
<path d="M104.122 447.644C104.385 446.789 104.817 446.042 105.293 445.322L105.556 445.912C104.829 445.752 104.276 445.345 103.819 444.894C103.586 444.67 103.384 444.422 103.196 444.166C103.02 443.9 102.84 443.642 102.71 443.35C103.199 443.748 103.687 444.121 104.178 444.457C104.67 444.783 105.19 445.071 105.684 445.146L106.255 445.234L105.947 445.737C105.498 446.473 105.005 447.183 104.344 447.784L104.122 447.644Z" fill="#994332"/>
<path d="M109.2 438.959C109.414 439.78 108.923 440.621 108.101 440.836C107.28 441.05 106.44 440.559 106.225 439.737C106.01 438.916 106.501 438.076 107.323 437.861C108.144 437.646 108.984 438.138 109.2 438.959Z" fill="#1D0301"/>
<path d="M96.6136 443.463C96.8284 444.284 96.3372 445.124 95.5153 445.339C94.6942 445.554 93.8536 445.063 93.6388 444.241C93.424 443.419 93.9152 442.58 94.7372 442.364C95.5591 442.15 96.3989 442.641 96.6136 443.463Z" fill="#1D0301"/>
<path d="M106.58 449.951L99.1892 452.383C99.1892 452.383 100.202 455.33 104.007 454.24C107.18 453.33 106.58 449.951 106.58 449.951Z" fill="#1D0301"/>
<mask id="mask3_2207_7660" style="mask-type:luminance" maskUnits="userSpaceOnUse" x="99" y="449" width="8" height="6">
<path d="M106.58 449.951L99.1892 452.383C99.1892 452.383 100.202 455.33 104.007 454.24C107.18 453.33 106.58 449.951 106.58 449.951Z" fill="white"/>
</mask>
<g mask="url(#mask3_2207_7660)">
<path d="M100.501 457.865C101.626 459.091 103.532 459.173 104.758 458.048C105.984 456.923 106.066 455.017 104.941 453.791C103.816 452.566 101.91 452.484 100.684 453.608C99.4585 454.733 99.3766 456.639 100.501 457.865Z" fill="#FA7EC6"/>
</g>
<path d="M100.416 441.055C101.601 444.878 99.5292 448.916 95.7884 450.076C92.0477 451.235 88.055 449.077 86.8698 445.253C85.6847 441.431 87.7569 437.392 91.4976 436.233C95.2383 435.073 99.231 437.233 100.416 441.055Z" stroke="black" stroke-width="0.767273" stroke-miterlimit="10" stroke-linecap="round" stroke-linejoin="round"/>
<path d="M115.541 436.311C116.679 439.981 115.003 443.763 111.797 444.757C108.592 445.751 105.07 443.581 103.932 439.91C102.795 436.239 104.471 432.457 107.677 431.464C110.883 430.47 114.404 432.64 115.541 436.311Z" stroke="black" stroke-width="0.767273" stroke-miterlimit="10" stroke-linecap="round" stroke-linejoin="round"/>
<path d="M100.416 441.055C100.416 441.055 101.378 438.861 103.933 439.909" stroke="black" stroke-width="0.767273" stroke-miterlimit="10" stroke-linecap="round" stroke-linejoin="round"/>
<path d="M86.8696 445.254L75.4817 446.319" stroke="black" stroke-width="0.767273" stroke-miterlimit="10" stroke-linecap="round" stroke-linejoin="round"/>
<path d="M78.6395 430.152C76.0097 428.442 73.4785 429.187 75.5323 432.958C77.6973 436.931 83.1382 444.107 74.2153 446.009C74.2153 446.009 61.1755 427.306 77.2782 419.16C82.3157 416.612 90.6695 416.505 95.899 418.631C95.9722 418.66 96.0446 418.691 96.1177 418.721C103.275 421.708 101.993 432.328 94.3313 433.531C89.7406 434.253 84.2207 433.78 78.6395 430.152Z" fill="#202020"/>
<path d="M80.801 480.548C75.5207 482.53 68.187 486.567 61.6937 492.539C60.5386 493.601 60.4342 496.195 60.8536 497.708L69.4839 581.393C69.4839 581.393 106.732 587.424 136.999 571.037L127.692 477.399C127.544 476.584 126.639 476.825 125.177 476.098C122.152 474.594 118.245 473.203 110.097 472.35C110.097 472.35 87.9213 477.876 80.801 480.548Z" fill="white"/>
<path d="M127.947 479.813C127.915 479.551 127.676 479.366 127.415 479.398C127.153 479.431 126.967 479.669 127 479.931L127.947 479.813ZM130.749 502.395L127.947 479.813L127 479.931L129.802 502.513L130.749 502.395Z" fill="#161616"/>
<path d="M104.659 471.288L83.5108 479.515C83.5108 479.515 85.8788 487.497 97.0473 484.038C108.217 480.579 104.659 471.288 104.659 471.288Z" fill="#FEC29E"/>
<path d="M74.5436 559.199L77.7013 522.442L53.1134 528.802C53.1134 528.802 52.6374 573.062 57.3522 578.833C60.1236 582.225 119.643 583.059 119.643 583.059L121.656 572.227L74.5436 559.199Z" fill="#FEC29E"/>
<path d="M118.492 573.391C121.151 572.325 135.446 569.088 136.856 566.233C137.461 566.417 138.276 567.218 138.173 568.063C137.77 571.384 134.764 573.397 134.764 573.397C134.764 573.397 150.574 577.173 149.92 578.498C149.266 579.823 141.786 577.735 141.786 577.735C141.786 577.735 152.184 581.035 151.13 582.112C150.723 582.527 150.235 583.065 142.912 580.874C142.912 580.874 151.946 584.511 150.238 585.17C148.091 586 142.526 584.146 142.526 584.146C142.526 584.146 148.12 587.487 146.702 587.948C145.669 588.284 122.623 583.49 116.871 582.798C116.651 581.088 117.949 573.304 118.492 573.391Z" fill="#FEC29E"/>
<path d="M69.5689 488.205C69.5689 488.205 47.2532 491.744 48.087 537.701L82.1116 539.71L78.6368 507.734L69.5689 488.205Z" fill="white"/>
<path d="M76.9517 539.234C76.6889 539.213 76.459 539.409 76.4381 539.672C76.4172 539.935 76.6133 540.165 76.876 540.186L76.9517 539.234ZM80.5284 539.997L80.4906 540.473L80.9694 540.511L81.0044 540.032L80.5284 539.997ZM76.876 540.186L80.4906 540.473L80.5663 539.521L76.9517 539.234L76.876 540.186ZM81.0044 540.032L82.3911 521.061L81.439 520.991L80.0524 539.962L81.0044 540.032Z" fill="#161616"/>
</g>
<path d="M105.947 375.967L34.2961 366.622C26.927 365.66 20.175 370.843 19.2157 378.198C18.2565 385.552 23.4526 392.292 30.8225 393.254L89.8718 400.955L97.0322 409.403L97.9958 402.015L102.474 402.599C109.843 403.56 116.595 398.378 117.555 391.024C118.512 383.669 113.316 376.928 105.947 375.967Z" fill="#292929"/>
<path d="M35.2151 378.827C35.9829 378.343 36.5369 377.535 36.6633 376.566C36.8888 374.837 35.667 373.253 33.9351 373.027C32.2026 372.801 30.6159 374.019 30.3904 375.748C30.2641 376.716 30.5923 377.64 31.2103 378.305C28.8794 378.83 27.0118 380.749 26.6853 383.252C26.2671 386.458 37.9009 387.975 38.3191 384.769C38.6462 382.266 37.3332 379.932 35.2151 378.827Z" fill="#3D3D3D"/>
<path d="M105.867 383.237L49.0889 375.832C48.8398 375.799 48.6615 375.59 48.6908 375.366C48.7201 375.141 48.9461 374.985 49.1951 375.017L105.974 382.423C106.223 382.455 106.401 382.664 106.372 382.889C106.342 383.114 106.117 383.27 105.867 383.237Z" fill="#535353"/>
<path d="M95.4905 394.11L47.521 387.854C47.272 387.821 47.0936 387.612 47.1229 387.388C47.1522 387.163 47.3782 387.007 47.6273 387.039L95.5967 393.296C95.8458 393.328 96.0241 393.537 95.9948 393.762C95.9654 393.988 95.7396 394.143 95.4905 394.11Z" fill="#535353"/>
<path d="M83.1614 386.776L48.2553 382.223C48.0062 382.191 47.8278 381.982 47.8572 381.757C47.8865 381.532 48.1124 381.376 48.3615 381.409L83.2676 385.961C83.5167 385.994 83.695 386.203 83.6657 386.427C83.6363 386.653 83.4104 386.808 83.1614 386.776Z" fill="#535353"/>
<path d="M105.033 389.629L87.514 387.344C87.2649 387.311 87.0865 387.102 87.1158 386.878C87.1452 386.653 87.3711 386.497 87.6202 386.529L105.139 388.814C105.388 388.847 105.567 389.055 105.537 389.28C105.508 389.506 105.283 389.661 105.033 389.629Z" fill="#535353"/>
<path d="M301.314 351.901L393.006 340.532C402.436 339.362 411.027 346.043 412.195 355.455C413.361 364.866 406.663 373.443 397.232 374.613L321.666 383.983L312.442 394.725L311.27 385.272L305.539 385.982C296.108 387.152 287.517 380.471 286.35 371.06C285.185 361.647 291.883 353.07 301.314 351.901Z" fill="#292929"/>
<path d="M391.732 356.131C390.754 355.506 390.052 354.468 389.898 353.228C389.624 351.015 391.199 348.999 393.415 348.725C395.632 348.45 397.651 350.021 397.926 352.232C398.079 353.472 397.652 354.65 396.857 355.495C399.833 356.186 402.205 358.654 402.602 361.858C403.111 365.961 388.223 367.807 387.715 363.704C387.317 360.5 389.014 357.527 391.732 356.131Z" fill="#3D3D3D"/>
<path d="M301.357 361.197L374.015 352.188C374.334 352.149 374.564 351.883 374.528 351.595C374.492 351.308 374.205 351.106 373.886 351.146L301.226 360.155C300.908 360.195 300.678 360.46 300.714 360.748C300.75 361.036 301.037 361.237 301.357 361.197Z" fill="#535353"/>
<path d="M314.537 375.185L375.923 367.573C376.242 367.534 376.472 367.268 376.436 366.98C376.401 366.693 376.113 366.491 375.794 366.531L314.408 374.143C314.089 374.182 313.859 374.448 313.895 374.735C313.931 375.024 314.218 375.224 314.537 375.185Z" fill="#535353"/>
<path d="M330.36 365.906L375.03 360.367C375.348 360.328 375.578 360.062 375.543 359.775C375.507 359.487 375.219 359.286 374.901 359.325L330.231 364.864C329.912 364.904 329.683 365.169 329.718 365.457C329.754 365.745 330.042 365.946 330.36 365.906Z" fill="#535353"/>
<path d="M302.371 369.377L324.79 366.597C325.109 366.557 325.339 366.292 325.303 366.004C325.268 365.717 324.98 365.515 324.661 365.555L302.242 368.335C301.923 368.374 301.694 368.64 301.729 368.927C301.765 369.216 302.052 369.416 302.371 369.377Z" fill="#535353"/>
<rect x="-22.185" y="46.6652" width="94.0423" height="124.723" rx="47.0211" transform="rotate(17.6719 -22.185 46.6652)" fill="#121212" stroke="#030303" stroke-width="5.22557"/>
<rect x="79.1813" y="-36.6877" width="94.0423" height="126.732" rx="47.0211" transform="rotate(114.683 79.1813 -36.6877)" fill="#121212" stroke="#030303" stroke-width="5.22557"/>
<rect x="139.722" y="28.9778" width="104.083" height="104.084" rx="52.0414" transform="rotate(114.683 139.722 28.9778)" fill="#121212" stroke="#030303" stroke-width="5.22557"/>
<rect x="194.677" y="90.2405" width="93.6173" height="93.618" rx="9.66199" transform="rotate(118.746 194.677 90.2405)" fill="#121212" stroke="#030303" stroke-width="5.22557"/>
<path d="M-9.38727 -38.4681C-9.38727 -38.4681 21.7961 -40.3911 7.78339 -16.8888C-6.63577 6.36638 -19.2766 -22.2047 -19.2766 -22.2047" fill="#121212"/>
<path d="M-9.38727 -38.4681C-9.38727 -38.4681 21.7961 -40.3911 7.78339 -16.8888C-6.63577 6.36638 -19.2766 -22.2047 -19.2766 -22.2047" stroke="#464646" stroke-width="1.56767" stroke-miterlimit="10" stroke-linecap="round" stroke-linejoin="round"/>
<path d="M19.7801 -9.59393C23.1008 -15.055 24.821 -20.0729 23.6223 -20.8018C22.4235 -21.5307 18.7598 -17.6946 15.4392 -12.2335C12.1185 -6.7725 10.3983 -1.75457 11.597 -1.02566C12.7957 -0.296752 16.4594 -4.1329 19.7801 -9.59393Z" fill="#121212" stroke="#464646" stroke-width="1.56767" stroke-miterlimit="10" stroke-linecap="round" stroke-linejoin="round"/>
<path d="M139.8 92.0708C147.949 96.304 155.027 98.8276 155.609 97.7073C156.191 96.5871 150.057 92.2473 141.907 88.014C133.758 83.7808 126.68 81.2573 126.098 82.3775C125.516 83.4977 131.651 87.8376 139.8 92.0708Z" fill="#121212" stroke="#464646" stroke-width="1.56767" stroke-miterlimit="10" stroke-linecap="round" stroke-linejoin="round"/>
<path d="M155.516 97.8831L139.791 106.17C138.253 106.981 136.491 107.262 134.777 106.969C133.153 106.692 131.657 105.915 130.497 104.746C129.272 103.512 128.488 101.908 128.267 100.184L126.005 82.5532" fill="#121212"/>
<path d="M155.516 97.8831L139.791 106.17C138.253 106.981 136.491 107.262 134.777 106.969C133.153 106.692 131.657 105.915 130.497 104.746C129.272 103.512 128.488 101.908 128.267 100.184L126.005 82.5532" stroke="#464646" stroke-width="1.56767" stroke-miterlimit="10" stroke-linecap="round" stroke-linejoin="round"/>
<path d="M132.463 106.192L121.042 128.179" stroke="#464646" stroke-width="1.56767" stroke-miterlimit="10" stroke-linecap="round" stroke-linejoin="round"/>
<path d="M130.825 133.261C130.439 134.003 125.748 132.33 120.345 129.524C114.943 126.718 110.877 123.841 111.262 123.099C111.648 122.356 116.34 124.029 121.742 126.835C127.144 129.641 131.211 132.518 130.825 133.261Z" fill="#121212" stroke="#464646" stroke-width="1.56767" stroke-miterlimit="10" stroke-linecap="round" stroke-linejoin="round"/>
<path d="M126.922 89.7099C128.973 89.4071 133.287 91.1269 137.427 96.6493C141.913 102.632 147.565 102.059 149.134 101.248L149.134 101.25C147.576 98.7026 140.507 93.7422 134.883 93.7206" fill="#121212"/>
<path d="M126.922 89.7099C128.973 89.4071 133.287 91.1269 137.427 96.6493C141.913 102.632 147.565 102.059 149.134 101.248L149.134 101.25C147.576 98.7026 140.507 93.7422 134.883 93.7206" stroke="#464646" stroke-width="1.56767" stroke-miterlimit="10" stroke-linecap="round" stroke-linejoin="round"/>
<path d="M70.7029 39.9774C78.728 39.9774 85.2336 38.7474 85.2336 37.2302C85.2336 35.7129 78.728 34.4829 70.7029 34.4829C62.6778 34.4829 56.1721 35.7129 56.1721 37.2302C56.1721 38.7474 62.6778 39.9774 70.7029 39.9774Z" fill="#121212" stroke="#464646" stroke-width="1.56767" stroke-miterlimit="10" stroke-linecap="round" stroke-linejoin="round"/>
<path d="M85.2334 37.2302C85.3824 38.0601 85.4602 38.9143 85.4602 39.7863C85.4602 47.8276 78.853 54.3463 70.7027 54.3463C62.5524 54.3463 55.9452 47.8274 55.9452 39.7863C55.9452 38.9144 56.023 38.0603 56.172 37.2302" fill="#121212"/>
<path d="M85.2335 37.2302C85.3824 38.0601 85.4602 38.9143 85.4602 39.7863C85.4602 47.8276 78.853 54.3463 70.7027 54.3463C62.5524 54.3463 55.9452 47.8274 55.9452 39.7863C55.9452 38.9144 56.023 38.0603 56.172 37.2302" stroke="#464646" stroke-width="1.56767" stroke-miterlimit="10" stroke-linecap="round" stroke-linejoin="round"/>
<path d="M70.7029 54.3994V72.4116" stroke="#464646" stroke-width="1.56767" stroke-miterlimit="10" stroke-linecap="round" stroke-linejoin="round"/>
<path d="M70.7027 74.5808C76.1605 74.5808 80.5849 73.6096 80.5849 72.4116C80.5849 71.2136 76.1605 70.2424 70.7027 70.2424C65.245 70.2424 60.8206 71.2136 60.8206 72.4116C60.8206 73.6096 65.245 74.5808 70.7027 74.5808Z" fill="#121212" stroke="#464646" stroke-width="1.56767" stroke-miterlimit="10" stroke-linecap="round" stroke-linejoin="round"/>
<path d="M85.1361 42.817C85.1361 42.817 82.7047 42.3686 73.7879 45.2873C61.0867 49.4447 56.1721 42.3686 56.1721 42.3686C56.1721 42.3686 63.4407 39.8041 75.9772 44.5975" fill="#121212"/>
<path d="M85.1361 42.817C85.1361 42.817 82.7047 42.3686 73.7879 45.2873C61.0867 49.4447 56.1721 42.3686 56.1721 42.3686C56.1721 42.3686 63.4407 39.8041 75.9772 44.5975" stroke="#464646" stroke-width="1.56767" stroke-miterlimit="10" stroke-linecap="round" stroke-linejoin="round"/>
<path d="M9.41083 98.9954C14.3841 100.328 18.613 100.672 18.8562 99.7642C19.0995 98.8562 15.2651 97.0399 10.2919 95.7073C5.31862 94.3747 1.08976 94.0305 0.84646 94.9385C0.603164 95.8465 4.43756 97.6628 9.41083 98.9954Z" fill="#121212" stroke="#464646" stroke-width="1.56767" stroke-miterlimit="10" stroke-linecap="round" stroke-linejoin="round"/>
<path d="M0.845947 94.9385L-3.82895 112.385C-5.16155 117.359 -2.21021 122.471 2.76309 123.803C7.73638 125.136 12.8482 122.184 14.1808 117.211L18.8557 99.7642" fill="#121212"/>
<path d="M0.845947 94.9385L-3.82895 112.385C-5.16155 117.359 -2.21021 122.471 2.76309 123.803C7.73638 125.136 12.8482 122.184 14.1808 117.211L18.8557 99.7642" stroke="#464646" stroke-width="1.56767" stroke-miterlimit="10" stroke-linecap="round" stroke-linejoin="round"/>
<path d="M12.7069 111.651C2.99416 105.062 -2.67099 108.067 -2.67099 108.067C-2.67099 108.067 -2.96826 110.562 5.37092 112.136C12.4552 113.474 16.2325 109.556 16.2325 109.556" fill="#121212"/>
<path d="M12.7069 111.651C2.99416 105.062 -2.67099 108.067 -2.67099 108.067C-2.67099 108.067 -2.96826 110.562 5.37092 112.136C12.4552 113.474 16.2325 109.556 16.2325 109.556" stroke="#464646" stroke-width="1.56767" stroke-miterlimit="10" stroke-linecap="round" stroke-linejoin="round"/>
<path d="M2.76331 123.803L-2.47814 143.365" stroke="#464646" stroke-width="1.56767" stroke-miterlimit="10" stroke-linecap="round" stroke-linejoin="round"/>
<path d="M-2.91876 145.009C2.05451 146.341 6.28337 146.685 6.52666 145.777C6.76996 144.869 2.93556 143.053 -2.03771 141.72C-7.01097 140.388 -11.2398 140.044 -11.4831 140.952C-11.7264 141.86 -7.89202 143.676 -2.91876 145.009Z" fill="#121212" stroke="#464646" stroke-width="1.56767" stroke-miterlimit="10" stroke-linecap="round" stroke-linejoin="round"/>
<rect x="324.9" y="64.8282" width="92.5892" height="122.776" rx="46.2946" transform="rotate(17.6719 324.9 64.8282)" fill="#121212" stroke="#030303" stroke-width="5.07929"/>
<rect x="424.693" y="-17.1577" width="92.5892" height="124.752" rx="46.2946" transform="rotate(114.683 424.693 -17.1577)" fill="#121212" stroke="#030303" stroke-width="5.07929"/>
<rect x="484.258" y="47.4495" width="102.468" height="102.469" rx="51.2339" transform="rotate(114.683 484.258 47.4495)" fill="#121212" stroke="#030303" stroke-width="5.07929"/>
<rect x="538.33" y="107.728" width="92.1711" height="92.1718" rx="9.39153" transform="rotate(118.746 538.33 107.728)" fill="#121212" stroke="#030303" stroke-width="5.07929"/>
<path d="M354.135 123.335C360.2 124.96 365.297 125.602 365.521 124.768C365.744 123.935 361.009 121.942 354.944 120.317C348.88 118.692 343.782 118.05 343.559 118.884C343.336 119.717 348.071 121.71 354.135 123.335Z" stroke="#464646" stroke-width="1.52379" stroke-miterlimit="10" stroke-linecap="round" stroke-linejoin="round"/>
<path d="M360.084 137.747C350.351 131.573 337.13 129.73 334.904 132.577" stroke="#464646" stroke-width="1.52379" stroke-miterlimit="10" stroke-linecap="round" stroke-linejoin="round"/>
<path d="M365.521 124.768C365.521 124.768 373.592 162.424 345.806 154.423C317.741 147.459 343.559 118.884 343.559 118.884" stroke="#464646" stroke-width="1.52379" stroke-miterlimit="10" stroke-linecap="round" stroke-linejoin="round"/>
<path d="M334.637 132.818C334.312 138.462 366.271 140.303 366.596 134.66" stroke="#464646" stroke-width="1.52379" stroke-miterlimit="10" stroke-linecap="round" stroke-linejoin="round"/>
<path d="M416.311 58.2876C424.207 58.2876 430.608 57.0774 430.608 55.5846C430.608 54.0918 424.207 52.8816 416.311 52.8816C408.415 52.8816 402.014 54.0918 402.014 55.5846C402.014 57.0774 408.415 58.2876 416.311 58.2876Z" stroke="#464646" stroke-width="1.52379" stroke-miterlimit="10" stroke-linecap="round" stroke-linejoin="round"/>
<path d="M430.607 55.5845C430.754 56.401 430.831 57.2414 430.831 58.0994C430.831 66.0111 424.33 72.4247 416.311 72.4247C408.292 72.4247 401.791 66.0109 401.791 58.0994C401.791 57.2416 401.868 56.4012 402.014 55.5845" stroke="#464646" stroke-width="1.52379" stroke-miterlimit="10" stroke-linecap="round" stroke-linejoin="round"/>
<path d="M416.311 72.4771V90.199" stroke="#464646" stroke-width="1.52379" stroke-miterlimit="10" stroke-linecap="round" stroke-linejoin="round"/>
<path d="M416.311 92.3334C421.681 92.3334 426.034 91.3779 426.034 90.1992C426.034 89.0205 421.681 88.0649 416.311 88.0649C410.941 88.0649 406.588 89.0205 406.588 90.1992C406.588 91.3779 410.941 92.3334 416.311 92.3334Z" stroke="#464646" stroke-width="1.52379" stroke-miterlimit="10" stroke-linecap="round" stroke-linejoin="round"/>
<path d="M430.512 61.0812C430.512 61.0812 428.12 60.64 419.346 63.5117C406.85 67.6021 402.014 60.64 402.014 60.64C402.014 60.64 409.166 58.1168 421.5 62.833" stroke="#464646" stroke-width="1.52379" stroke-miterlimit="10" stroke-linecap="round" stroke-linejoin="round"/>
<path d="M340.628 -25.1617C340.628 -25.1617 346.629 -22.1276 346.549 -15.885C346.531 -14.5179 347.033 -13.1916 347.964 -12.1908C349.684 -10.3426 351.678 -6.69589 348.524 -1.2338C345.371 4.2283 341.216 4.3252 338.755 3.75963C337.423 3.45331 336.023 3.682 334.848 4.3809C329.482 7.57224 323.854 3.89204 323.854 3.89204" stroke="#464646" stroke-width="1.52379" stroke-miterlimit="10" stroke-linecap="round" stroke-linejoin="round"/>
<path d="M334.503 -9.32902C339.136 -17.3533 341.888 -24.4376 340.65 -25.1521C339.413 -25.8667 334.654 -19.941 330.021 -11.9167C325.388 -3.89242 322.636 3.19182 323.874 3.90639C325.111 4.62096 329.87 -1.30474 334.503 -9.32902Z" stroke="#464646" stroke-width="1.52379" stroke-miterlimit="10" stroke-linecap="round" stroke-linejoin="round"/>
<path d="M348.524 -1.23364L365.407 8.51363" stroke="#464646" stroke-width="1.52379" stroke-miterlimit="10" stroke-linecap="round" stroke-linejoin="round"/>
<path d="M367.349 9.63471C370.169 4.74891 371.587 0.286238 370.514 -0.332939C369.442 -0.952116 366.286 2.50667 363.465 7.39248C360.644 12.2783 359.227 16.741 360.299 17.3601C361.372 17.9793 364.528 14.5205 367.349 9.63471Z" stroke="#464646" stroke-width="1.52379" stroke-miterlimit="10" stroke-linecap="round" stroke-linejoin="round"/>
<path d="M345.282 -20.6518C336.659 -11.8055 339.613 -0.392541 330.078 5.68229C328.729 4.0382 333.161 -5.53137 339.949 -12.0879" stroke="#464646" stroke-width="1.52379" stroke-miterlimit="10" stroke-linecap="round" stroke-linejoin="round"/>
<path d="M200.747 234.526C201.809 234.639 202.749 234.902 203.648 234.802C206.17 234.523 208.683 234.138 211.185 233.713C213.403 233.335 215.608 233.108 217.852 233.441C221.634 234.003 224.191 236.097 225.666 239.561C227.086 242.894 227.46 246.412 227.47 249.984C227.488 255.845 227.464 261.706 227.483 267.566C227.488 269.266 227.645 270.947 228.981 272.342C226.157 272.342 223.428 272.342 220.604 272.342C220.604 267.659 220.604 262.998 220.604 258.337C220.543 258.327 220.483 258.318 220.421 258.308C220.366 258.498 220.296 258.685 220.258 258.878C219.671 261.851 218.899 264.768 217.211 267.338C214.49 271.478 210.151 273.614 205.359 272.807C198.834 271.709 196.006 263.83 200.21 258.624C201.049 257.584 202.074 256.637 203.17 255.869C205.97 253.905 208.871 252.086 211.706 250.172C214.151 248.521 216.512 246.771 218.097 244.199C219.47 241.971 219.877 239.576 219.255 237.056C218.436 233.735 215.287 232.661 212.636 234.823C211.217 235.981 209.964 237.338 208.614 238.582C207.639 239.479 206.563 240.152 205.145 240.137C204.203 240.128 203.421 239.832 202.788 239.167C201.575 237.892 200.999 236.337 200.747 234.526ZM220.128 240.681C219.679 243.637 218.135 245.881 216.033 247.795C214.426 249.258 212.768 250.666 211.124 252.089C209.385 253.595 207.753 255.215 206.631 257.228C204.881 260.37 204.596 263.678 206.177 266.953C208.168 271.076 212.784 271.577 215.723 268.058C217.69 265.705 218.696 262.903 219.41 259.978C220.818 254.212 220.683 248.363 220.335 242.505C220.299 241.895 220.199 241.289 220.128 240.681Z" fill="#F4F4F4"/>
<path d="M195.915 272.977C192.494 272.977 189.239 272.977 185.869 272.977C187.242 271.514 187.369 269.758 187.369 267.98C187.375 254.736 187.375 241.493 187.365 228.25C187.365 227.493 187.376 226.704 187.18 225.986C186.914 225.012 186.452 224.091 186.044 223.07C188.791 221.913 191.711 220.548 194.377 218.333C194.377 218.859 194.377 219.212 194.377 219.565C194.377 235.513 194.376 251.461 194.378 267.41C194.378 267.917 194.388 268.424 194.406 268.931C194.459 270.39 194.739 271.773 195.915 272.977Z" fill="#F4F4F4"/>
<path d="M232.518 259.829C232.322 261.987 232.692 264.052 233.591 266.003C235.077 269.227 237.4 271.517 241.023 272.192C242.851 272.533 244.692 272.469 246.477 271.875C251.215 270.298 253.003 264.891 250.216 260.593C249.279 259.148 248.082 257.953 246.593 257.087C243.54 255.309 240.435 253.617 237.408 251.798C236.231 251.091 235.084 250.254 234.133 249.275C230.573 245.61 230.334 239.8 233.463 236.104C235.685 233.479 238.564 232.822 241.814 233.3C243.098 233.488 244.371 233.77 245.635 234.074C247.965 234.632 250.307 234.867 252.885 234.371C252.186 236.461 251.59 238.423 249.774 239.656C248.677 240.4 247.371 240.18 246.494 239.144C245.675 238.176 244.972 237.112 244.173 236.126C243.2 234.928 242.133 233.88 240.446 233.712C236.198 233.287 233.464 236.65 234.963 240.641C235.34 241.643 236.063 242.691 236.924 243.306C239.031 244.812 241.295 246.106 243.528 247.432C245.422 248.558 247.438 249.494 249.265 250.714C253.827 253.763 255.882 258.023 254.958 263.495C254.13 268.399 249.886 272.213 244.809 272.811C241.958 273.147 239.153 272.992 236.416 272.121C233.994 271.35 232.117 269.853 230.925 267.609C229.889 265.657 229.769 263.6 230.723 261.588C231.064 260.869 231.701 260.288 232.203 259.644C232.307 259.706 232.413 259.768 232.518 259.829Z" fill="#F4F4F4"/>
<path d="M279.429 234.56C278.997 236.162 278.344 237.747 277.144 239.031C275.859 240.407 274.163 240.343 272.965 238.905C271.954 237.693 271.048 236.392 270.016 235.199C268.595 233.559 266.709 233.293 264.734 233.83C261.187 234.793 259.973 239.216 262.481 242.206C263.315 243.2 264.421 244.037 265.546 244.708C268.336 246.371 271.214 247.889 274.047 249.481C276.185 250.683 278.12 252.12 279.585 254.132C284.653 261.097 280.908 270.831 272.443 272.564C268.96 273.278 265.483 273.108 262.189 271.718C259.286 270.493 257.279 268.373 256.815 265.148C256.543 263.262 256.933 261.496 258.398 260.108C258.5 260.012 258.621 259.934 258.74 259.858C258.808 259.814 258.89 259.79 259.118 259.692C259.118 260.045 259.116 260.327 259.118 260.609C259.147 264.381 260.426 267.619 263.338 270.11C266.306 272.649 271.256 273.074 274.661 271.143C278.196 269.137 279.223 264.195 276.862 260.548C275.91 259.078 274.685 257.873 273.17 256.993C270.139 255.233 267.082 253.518 264.044 251.768C262.489 250.871 261.108 249.77 259.978 248.356C256.757 244.327 257.381 238.106 261.31 234.875C263.46 233.106 265.94 232.879 268.53 233.269C270.903 233.626 273.243 234.196 275.618 234.53C276.83 234.701 278.086 234.56 279.429 234.56Z" fill="#F4F4F4"/>
<path d="M169.469 272.998L162.937 272.985C162.885 272.985 162.844 272.943 162.844 272.892L162.874 258.234C162.874 258.182 162.916 258.141 162.967 258.141L169.5 258.154C169.552 258.154 169.593 258.196 169.593 258.247L169.563 272.906C169.563 272.957 169.521 272.999 169.469 272.998Z" fill="#F4F4F4"/>
<path d="M184.695 234.51C184.565 232.679 183.747 230.704 182.093 229.666C181.829 229.51 181.544 229.384 181.239 229.289C180.933 229.195 180.606 229.133 180.258 229.108C179.886 229.059 179.503 229.035 179.115 229.034C177.95 229.031 176.736 229.23 175.635 229.545C175.01 229.651 174.383 229.755 173.757 229.855C171.876 230.156 169.989 230.425 168.098 230.634C167.263 230.727 166.394 230.507 165.425 230.384C165.31 230.37 165.213 230.47 165.23 230.583C165.498 232.299 166.076 233.777 167.238 234.999C167.872 235.664 168.653 235.959 169.595 235.969C171.013 235.983 172.089 235.311 173.064 234.413C173.514 233.999 173.954 233.572 174.392 233.144C174.83 232.716 175.267 232.287 175.713 231.868C176.761 230.801 178.072 229.736 179.629 229.545C179.94 229.507 180.262 229.504 180.593 229.543C180.826 229.572 181.06 229.637 181.286 229.732C184.681 231.866 184.565 236.978 182.547 240.032C182.349 240.353 182.139 240.662 181.917 240.959C180.37 243.039 178.295 244.56 176.156 246.004C173.321 247.918 170.419 249.737 167.62 251.7C166.524 252.469 165.499 253.416 164.66 254.456C163.745 255.589 163.165 256.848 162.881 258.137C162.865 258.209 162.893 258.29 162.957 258.328C162.967 258.334 162.976 258.34 162.985 258.348C163.02 258.377 163.063 258.398 163.109 258.397C164.122 258.385 165.135 258.376 166.148 258.371C167.238 258.365 168.328 258.362 169.418 258.361C169.513 258.361 169.59 258.286 169.592 258.191C169.632 256.454 170.149 254.734 171.081 253.06C172.202 251.047 173.834 249.427 175.574 247.921C177.218 246.498 178.876 245.09 180.483 243.627C181.271 242.909 181.981 242.145 182.584 241.315C182.785 241.038 182.974 240.753 183.15 240.461C183.747 239.301 184.448 238.139 184.564 236.745C184.564 236.745 184.681 235.932 184.678 235.271C184.692 235.022 184.702 234.768 184.695 234.51Z" fill="#F4F4F4"/>
<path d="M170.967 251.258H168.498C168.442 251.424 168.363 251.568 168.255 251.661C167.098 252.66 165.732 253.295 164.174 253.327C160.804 253.396 158.017 252.031 155.678 249.709C153.243 247.292 151.706 244.323 150.557 241.141C149.187 237.344 148.587 233.408 148.41 229.389C148.092 222.161 149.017 215.159 152.269 208.602C153.595 205.927 155.295 203.48 157.88 201.841C160.236 200.347 163.258 199.805 165.484 202.585C166.101 203.356 166.749 204.103 167.373 204.868C168.175 205.852 168.903 206.904 169.777 207.819C171.255 209.366 173.402 209.385 174.697 207.813C176.107 206.099 176.658 203.993 177.152 201.755C176.852 201.755 176.709 201.724 176.585 201.76C174.289 202.415 172.041 202.019 169.791 201.488C167.783 201.014 165.786 200.394 163.747 200.165C157.597 199.476 152.378 201.483 148.127 205.947C144.02 210.259 141.807 215.477 140.779 221.257C139.726 227.181 140.258 232.968 142.194 238.658C143.794 243.361 146.464 247.361 150.549 250.181C156.155 254.052 162.345 254.928 168.913 252.886C169.595 252.674 170.279 252.467 170.966 252.268V251.258H170.967Z" fill="#F4F4F4"/>
<path d="M159.088 272.185C159.088 272.185 161.264 272.048 162.377 270.28C162.942 269.381 162.889 268.101 162.841 266.117H166.196V272.991H159.079L159.088 272.185Z" fill="#F4F4F4"/>
<path d="M173.345 272.185C173.345 272.185 171.169 272.048 170.056 270.28C169.49 269.381 169.543 268.101 169.592 266.117H166.236V272.991H173.353L173.345 272.185Z" fill="#F4F4F4"/>
<path d="M166.232 272.994H155.825C155.825 272.994 156.505 271.718 159.683 270.801C162.861 269.884 162.866 269.25 162.864 267.623H166.212L166.232 272.994Z" fill="#F4F4F4"/>
<path d="M166.213 272.995H176.62C176.62 272.995 175.939 271.718 172.761 270.801C169.583 269.885 169.578 269.25 169.581 267.623H166.232L166.213 272.995Z" fill="#F4F4F4"/>
</g>
<defs>
<filter id="filter0_d_2207_7660" x="88.3689" y="261.901" width="235.389" height="234.58" filterUnits="userSpaceOnUse" color-interpolation-filters="sRGB">
<feFlood flood-opacity="0" result="BackgroundImageFix"/>
<feColorMatrix in="SourceAlpha" type="matrix" values="0 0 0 0 0 0 0 0 0 0 0 0 0 0 0 0 0 0 127 0" result="hardAlpha"/>
<feOffset dy="2.54556"/>
<feGaussianBlur stdDeviation="34.3651"/>
<feComposite in2="hardAlpha" operator="out"/>
<feColorMatrix type="matrix" values="0 0 0 0 0.917647 0 0 0 0 0.682353 0 0 0 0 0.0941176 0 0 0 0.25 0"/>
<feBlend mode="normal" in2="BackgroundImageFix" result="effect1_dropShadow_2207_7660"/>
<feBlend mode="normal" in="SourceGraphic" in2="effect1_dropShadow_2207_7660" result="shape"/>
</filter>
<filter id="filter1_d_2207_7660" x="157.603" y="328.213" width="96.9738" height="103.947" filterUnits="userSpaceOnUse" color-interpolation-filters="sRGB">
<feFlood flood-opacity="0" result="BackgroundImageFix"/>
<feColorMatrix in="SourceAlpha" type="matrix" values="0 0 0 0 0 0 0 0 0 0 0 0 0 0 0 0 0 0 127 0" result="hardAlpha"/>
<feOffset dy="6.97129"/>
<feComposite in2="hardAlpha" operator="out"/>
<feColorMatrix type="matrix" values="0 0 0 0 0 0 0 0 0 0 0 0 0 0 0 0 0 0 1 0"/>
<feBlend mode="normal" in2="BackgroundImageFix" result="effect1_dropShadow_2207_7660"/>
<feBlend mode="normal" in="SourceGraphic" in2="effect1_dropShadow_2207_7660" result="shape"/>
</filter>
<linearGradient id="paint0_linear_2207_7660" x1="206.064" y1="384.656" x2="206.064" y2="557.47" gradientUnits="userSpaceOnUse">
<stop stop-color="#FFBE1D"/>
<stop offset="1" stop-color="#FFBE1D" stop-opacity="0"/>
</linearGradient>
<linearGradient id="paint1_linear_2207_7660" x1="231.997" y1="335.635" x2="150.678" y2="374.159" gradientUnits="userSpaceOnUse">
<stop stop-color="#FFBE1D"/>
<stop offset="1" stop-color="#FFBE1D" stop-opacity="0"/>
<stop offset="1" stop-color="#FFBE1D"/>
</linearGradient>
<linearGradient id="paint2_linear_2207_7660" x1="253.941" y1="365.183" x2="176.345" y2="410.745" gradientUnits="userSpaceOnUse">
<stop stop-color="#FFBE1D"/>
<stop offset="1" stop-color="#FFBE1D" stop-opacity="0"/>
<stop offset="1" stop-color="#FFBE1D"/>
</linearGradient>
<linearGradient id="paint3_linear_2207_7660" x1="158.893" y1="387.864" x2="255.137" y2="338.279" gradientUnits="userSpaceOnUse">
<stop stop-color="#FFBE1D"/>
<stop offset="1" stop-color="#FFBE1D" stop-opacity="0"/>
<stop offset="1" stop-color="#FFBE1D"/>
</linearGradient>
<linearGradient id="paint4_linear_2207_7660" x1="186.772" y1="422.427" x2="283.016" y2="372.843" gradientUnits="userSpaceOnUse">
<stop stop-color="#FFBE1D"/>
<stop offset="1" stop-color="#FFBE1D" stop-opacity="0"/>
<stop offset="1" stop-color="#FFBE1D"/>
</linearGradient>
<clipPath id="clip0_2207_7660">
<rect width="428" height="926" fill="white" transform="translate(0 0.427246)"/>
</clipPath>
</defs>
</svg>
