<svg width="326" height="327" viewBox="0 0 326 327" fill="none" xmlns="http://www.w3.org/2000/svg">
<g clip-path="url(#clip0_2506_2774)">
<path d="M301.778 0.198761H24.2954C11.1706 0.198761 0.530884 10.8385 0.530884 23.9633V302.434C0.530884 315.559 11.1706 326.199 24.2954 326.199H301.778C314.903 326.199 325.543 315.559 325.543 302.434V23.9633C325.543 10.8385 314.903 0.198761 301.778 0.198761Z" fill="#1E1E1E"/>
<path d="M130.24 34.8944C132.052 34.8944 133.52 33.4215 133.52 31.6046C133.52 29.7876 132.052 28.3147 130.24 28.3147C128.429 28.3147 126.96 29.7876 126.96 31.6046C126.96 33.4215 128.429 34.8944 130.24 34.8944Z" fill="white"/>
<path d="M184.901 34.8944C186.713 34.8944 188.181 33.4215 188.181 31.6046C188.181 29.7876 186.713 28.3147 184.901 28.3147C183.09 28.3147 181.622 29.7876 181.622 31.6046C181.622 33.4215 183.09 34.8944 184.901 34.8944Z" fill="white"/>
<path d="M206.769 34.8944C208.58 34.8944 210.049 33.4215 210.049 31.6046C210.049 29.7876 208.58 28.3147 206.769 28.3147C204.957 28.3147 203.489 29.7876 203.489 31.6046C203.489 33.4215 204.957 34.8944 206.769 34.8944Z" fill="white"/>
<path d="M119.306 45.8605C121.117 45.8605 122.586 44.3876 122.586 42.5707C122.586 40.7537 121.117 39.2808 119.306 39.2808C117.494 39.2808 116.026 40.7537 116.026 42.5707C116.026 44.3876 117.494 45.8605 119.306 45.8605Z" fill="white"/>
<path d="M130.24 45.8607C132.052 45.8607 133.52 44.3878 133.52 42.5709C133.52 40.754 132.052 39.281 130.24 39.281C128.429 39.281 126.96 40.754 126.96 42.5709C126.96 44.3878 128.429 45.8607 130.24 45.8607Z" fill="white"/>
<path d="M141.172 45.8606C142.984 45.8606 144.452 44.3877 144.452 42.5707C144.452 40.7538 142.984 39.2809 141.172 39.2809C139.361 39.2809 137.892 40.7538 137.892 42.5707C137.892 44.3877 139.361 45.8606 141.172 45.8606Z" fill="white"/>
<path d="M152.102 45.8606C153.913 45.8606 155.382 44.3877 155.382 42.5707C155.382 40.7538 153.913 39.2809 152.102 39.2809C150.29 39.2809 148.822 40.7538 148.822 42.5707C148.822 44.3877 150.29 45.8606 152.102 45.8606Z" fill="white"/>
<path d="M173.97 45.8604C175.782 45.8604 177.25 44.3875 177.25 42.5706C177.25 40.7536 175.782 39.2807 173.97 39.2807C172.159 39.2807 170.69 40.7536 170.69 42.5706C170.69 44.3875 172.159 45.8604 173.97 45.8604Z" fill="white"/>
<path d="M184.901 45.8607C186.713 45.8607 188.181 44.3878 188.181 42.5709C188.181 40.754 186.713 39.281 184.901 39.281C183.09 39.281 181.622 40.754 181.622 42.5709C181.622 44.3878 183.09 45.8607 184.901 45.8607Z" fill="white"/>
<path d="M206.769 45.8603C208.58 45.8603 210.049 44.3874 210.049 42.5704C210.049 40.7535 208.58 39.2806 206.769 39.2806C204.957 39.2806 203.489 40.7535 203.489 42.5704C203.489 44.3874 204.957 45.8603 206.769 45.8603Z" fill="white"/>
<path d="M119.306 56.8274C121.117 56.8274 122.586 55.3545 122.586 53.5375C122.586 51.7206 121.117 50.2477 119.306 50.2477C117.494 50.2477 116.026 51.7206 116.026 53.5375C116.026 55.3545 117.494 56.8274 119.306 56.8274Z" fill="white"/>
<path d="M141.172 56.827C142.984 56.827 144.452 55.3541 144.452 53.5372C144.452 51.7202 142.984 50.2473 141.172 50.2473C139.361 50.2473 137.892 51.7202 137.892 53.5372C137.892 55.3541 139.361 56.827 141.172 56.827Z" fill="white"/>
<path d="M152.102 56.827C153.913 56.827 155.382 55.3541 155.382 53.5372C155.382 51.7202 153.913 50.2473 152.102 50.2473C150.29 50.2473 148.822 51.7202 148.822 53.5372C148.822 55.3541 150.29 56.827 152.102 56.827Z" fill="white"/>
<path d="M119.306 67.7934C121.117 67.7934 122.586 66.3205 122.586 64.5036C122.586 62.6867 121.117 61.2137 119.306 61.2137C117.494 61.2137 116.026 62.6867 116.026 64.5036C116.026 66.3205 117.494 67.7934 119.306 67.7934Z" fill="white"/>
<path d="M141.172 67.7934C142.984 67.7934 144.452 66.3204 144.452 64.5035C144.452 62.6866 142.984 61.2137 141.172 61.2137C139.361 61.2137 137.892 62.6866 137.892 64.5035C137.892 66.3204 139.361 67.7934 141.172 67.7934Z" fill="white"/>
<path d="M152.102 67.7931C153.913 67.7931 155.382 66.3202 155.382 64.5033C155.382 62.6863 153.913 61.2134 152.102 61.2134C150.29 61.2134 148.822 62.6863 148.822 64.5033C148.822 66.3202 150.29 67.7931 152.102 67.7931Z" fill="white"/>
<path d="M173.97 67.7931C175.782 67.7931 177.25 66.3202 177.25 64.5033C177.25 62.6863 175.782 61.2134 173.97 61.2134C172.159 61.2134 170.69 62.6863 170.69 64.5033C170.69 66.3202 172.159 67.7931 173.97 67.7931Z" fill="white"/>
<path d="M152.102 78.7589C153.913 78.7589 155.382 77.286 155.382 75.4691C155.382 73.6522 153.913 72.1792 152.102 72.1792C150.29 72.1792 148.822 73.6522 148.822 75.4691C148.822 77.286 150.29 78.7589 152.102 78.7589Z" fill="white"/>
<path d="M206.769 78.7589C208.58 78.7589 210.049 77.286 210.049 75.4691C210.049 73.6522 208.58 72.1792 206.769 72.1792C204.957 72.1792 203.489 73.6522 203.489 75.4691C203.489 77.286 204.957 78.7589 206.769 78.7589Z" fill="white"/>
<path d="M163.036 89.7244C164.847 89.7244 166.316 88.2514 166.316 86.4345C166.316 84.6176 164.847 83.1447 163.036 83.1447C161.224 83.1447 159.756 84.6176 159.756 86.4345C159.756 88.2514 161.224 89.7244 163.036 89.7244Z" fill="white"/>
<path d="M173.97 89.7252C175.782 89.7252 177.25 88.2523 177.25 86.4354C177.25 84.6184 175.782 83.1455 173.97 83.1455C172.159 83.1455 170.69 84.6184 170.69 86.4354C170.69 88.2523 172.159 89.7252 173.97 89.7252Z" fill="white"/>
<path d="M184.901 89.7245C186.713 89.7245 188.181 88.2516 188.181 86.4346C188.181 84.6177 186.713 83.1448 184.901 83.1448C183.09 83.1448 181.622 84.6177 181.622 86.4346C181.622 88.2516 183.09 89.7245 184.901 89.7245Z" fill="white"/>
<path d="M206.769 89.7249C208.58 89.7249 210.049 88.252 210.049 86.4351C210.049 84.6181 208.58 83.1452 206.769 83.1452C204.957 83.1452 203.489 84.6181 203.489 86.4351C203.489 88.252 204.957 89.7249 206.769 89.7249Z" fill="white"/>
<path d="M119.306 100.691C121.117 100.691 122.586 99.2176 122.586 97.4007C122.586 95.5838 121.117 94.1108 119.306 94.1108C117.494 94.1108 116.026 95.5838 116.026 97.4007C116.026 99.2176 117.494 100.691 119.306 100.691Z" fill="white"/>
<path d="M141.172 100.691C142.984 100.691 144.452 99.2177 144.452 97.4008C144.452 95.5838 142.984 94.1109 141.172 94.1109C139.361 94.1109 137.892 95.5838 137.892 97.4008C137.892 99.2177 139.361 100.691 141.172 100.691Z" fill="white"/>
<path d="M163.036 100.691C164.847 100.691 166.316 99.2182 166.316 97.4013C166.316 95.5844 164.847 94.1115 163.036 94.1115C161.224 94.1115 159.756 95.5844 159.756 97.4013C159.756 99.2182 161.224 100.691 163.036 100.691Z" fill="white"/>
<path d="M184.901 100.691C186.713 100.691 188.181 99.2181 188.181 97.4011C188.181 95.5842 186.713 94.1113 184.901 94.1113C183.09 94.1113 181.622 95.5842 181.622 97.4011C181.622 99.2181 183.09 100.691 184.901 100.691Z" fill="white"/>
<path d="M206.769 100.691C208.58 100.691 210.049 99.2178 210.049 97.4009C210.049 95.584 208.58 94.1111 206.769 94.1111C204.957 94.1111 203.489 95.584 203.489 97.4009C203.489 99.2178 204.957 100.691 206.769 100.691Z" fill="white"/>
<path d="M119.306 111.657C121.117 111.657 122.586 110.184 122.586 108.367C122.586 106.55 121.117 105.077 119.306 105.077C117.494 105.077 116.026 106.55 116.026 108.367C116.026 110.184 117.494 111.657 119.306 111.657Z" fill="white"/>
<path d="M130.24 111.657C132.052 111.657 133.52 110.184 133.52 108.367C133.52 106.55 132.052 105.077 130.24 105.077C128.429 105.077 126.96 106.55 126.96 108.367C126.96 110.184 128.429 111.657 130.24 111.657Z" fill="white"/>
<path d="M152.102 111.657C153.913 111.657 155.382 110.184 155.382 108.367C155.382 106.55 153.913 105.077 152.102 105.077C150.29 105.077 148.822 106.55 148.822 108.367C148.822 110.184 150.29 111.657 152.102 111.657Z" fill="white"/>
<path d="M195.835 111.657C197.646 111.657 199.115 110.184 199.115 108.367C199.115 106.55 197.646 105.077 195.835 105.077C194.024 105.077 192.555 106.55 192.555 108.367C192.555 110.184 194.024 111.657 195.835 111.657Z" fill="white"/>
<path d="M31.8419 122.624C33.6533 122.624 35.1218 121.151 35.1218 119.334C35.1218 117.517 33.6533 116.044 31.8419 116.044C30.0305 116.044 28.562 117.517 28.562 119.334C28.562 121.151 30.0305 122.624 31.8419 122.624Z" fill="white"/>
<path d="M97.4365 122.624C99.2479 122.624 100.716 121.151 100.716 119.334C100.716 117.517 99.2479 116.044 97.4365 116.044C95.6251 116.044 94.1566 117.517 94.1566 119.334C94.1566 121.151 95.6251 122.624 97.4365 122.624Z" fill="white"/>
<path d="M119.306 122.624C121.117 122.624 122.586 121.151 122.586 119.335C122.586 117.518 121.117 116.045 119.306 116.045C117.494 116.045 116.026 117.518 116.026 119.335C116.026 121.151 117.494 122.624 119.306 122.624Z" fill="white"/>
<path d="M130.24 122.624C132.052 122.624 133.52 121.151 133.52 119.334C133.52 117.517 132.052 116.044 130.24 116.044C128.429 116.044 126.96 117.517 126.96 119.334C126.96 121.151 128.429 122.624 130.24 122.624Z" fill="white"/>
<path d="M173.97 122.624C175.782 122.624 177.25 121.151 177.25 119.334C177.25 117.517 175.782 116.044 173.97 116.044C172.159 116.044 170.69 117.517 170.69 119.334C170.69 121.151 172.159 122.624 173.97 122.624Z" fill="white"/>
<path d="M184.901 122.624C186.713 122.624 188.181 121.151 188.181 119.334C188.181 117.517 186.713 116.044 184.901 116.044C183.09 116.044 181.622 117.517 181.622 119.334C181.622 121.151 183.09 122.624 184.901 122.624Z" fill="white"/>
<path d="M195.835 122.624C197.646 122.624 199.115 121.151 199.115 119.334C199.115 117.517 197.646 116.044 195.835 116.044C194.024 116.044 192.555 117.517 192.555 119.334C192.555 121.151 194.024 122.624 195.835 122.624Z" fill="white"/>
<path d="M206.769 122.624C208.58 122.624 210.049 121.151 210.049 119.334C210.049 117.517 208.58 116.044 206.769 116.044C204.957 116.044 203.489 117.517 203.489 119.334C203.489 121.151 204.957 122.624 206.769 122.624Z" fill="white"/>
<path d="M217.703 122.624C219.515 122.624 220.983 121.151 220.983 119.334C220.983 117.517 219.515 116.044 217.703 116.044C215.892 116.044 214.423 117.517 214.423 119.334C214.423 121.151 215.892 122.624 217.703 122.624Z" fill="white"/>
<path d="M228.637 122.624C230.449 122.624 231.917 121.151 231.917 119.334C231.917 117.517 230.449 116.044 228.637 116.044C226.826 116.044 225.357 117.517 225.357 119.334C225.357 121.151 226.826 122.624 228.637 122.624Z" fill="white"/>
<path d="M261.432 122.624C263.243 122.624 264.712 121.151 264.712 119.334C264.712 117.517 263.243 116.045 261.432 116.045C259.62 116.045 258.152 117.517 258.152 119.334C258.152 121.151 259.62 122.624 261.432 122.624Z" fill="white"/>
<path d="M272.369 122.624C274.18 122.624 275.649 121.151 275.649 119.334C275.649 117.517 274.18 116.044 272.369 116.044C270.558 116.044 269.089 117.517 269.089 119.334C269.089 121.151 270.558 122.624 272.369 122.624Z" fill="white"/>
<path d="M283.302 122.624C285.113 122.624 286.582 121.151 286.582 119.334C286.582 117.517 285.113 116.044 283.302 116.044C281.49 116.044 280.022 117.517 280.022 119.334C280.022 121.151 281.49 122.624 283.302 122.624Z" fill="white"/>
<path d="M31.8419 133.59C33.6533 133.59 35.1218 132.117 35.1218 130.3C35.1218 128.483 33.6533 127.01 31.8419 127.01C30.0305 127.01 28.562 128.483 28.562 130.3C28.562 132.117 30.0305 133.59 31.8419 133.59Z" fill="white"/>
<path d="M53.7073 133.59C55.5187 133.59 56.9871 132.117 56.9871 130.3C56.9871 128.483 55.5187 127.01 53.7073 127.01C51.8958 127.01 50.4274 128.483 50.4274 130.3C50.4274 132.117 51.8958 133.59 53.7073 133.59Z" fill="white"/>
<path d="M130.24 133.59C132.052 133.59 133.52 132.117 133.52 130.3C133.52 128.483 132.052 127.011 130.24 127.011C128.429 127.011 126.96 128.483 126.96 130.3C126.96 132.117 128.429 133.59 130.24 133.59Z" fill="white"/>
<path d="M141.172 133.59C142.984 133.59 144.452 132.117 144.452 130.3C144.452 128.483 142.984 127.01 141.172 127.01C139.361 127.01 137.892 128.483 137.892 130.3C137.892 132.117 139.361 133.59 141.172 133.59Z" fill="white"/>
<path d="M195.835 133.59C197.646 133.59 199.115 132.117 199.115 130.3C199.115 128.483 197.646 127.01 195.835 127.01C194.024 127.01 192.555 128.483 192.555 130.3C192.555 132.117 194.024 133.59 195.835 133.59Z" fill="white"/>
<path d="M217.703 133.59C219.515 133.59 220.983 132.117 220.983 130.3C220.983 128.483 219.515 127.01 217.703 127.01C215.892 127.01 214.423 128.483 214.423 130.3C214.423 132.117 215.892 133.59 217.703 133.59Z" fill="white"/>
<path d="M239.567 133.59C241.379 133.59 242.847 132.117 242.847 130.3C242.847 128.483 241.379 127.01 239.567 127.01C237.756 127.01 236.288 128.483 236.288 130.3C236.288 132.117 237.756 133.59 239.567 133.59Z" fill="white"/>
<path d="M250.502 133.59C252.313 133.59 253.782 132.117 253.782 130.3C253.782 128.483 252.313 127.01 250.502 127.01C248.691 127.01 247.222 128.483 247.222 130.3C247.222 132.117 248.691 133.59 250.502 133.59Z" fill="white"/>
<path d="M261.432 133.59C263.243 133.59 264.712 132.117 264.712 130.3C264.712 128.483 263.243 127.01 261.432 127.01C259.62 127.01 258.152 128.483 258.152 130.3C258.152 132.117 259.62 133.59 261.432 133.59Z" fill="white"/>
<path d="M272.369 133.59C274.18 133.59 275.649 132.117 275.649 130.3C275.649 128.483 274.18 127.011 272.369 127.011C270.558 127.011 269.089 128.483 269.089 130.3C269.089 132.117 270.558 133.59 272.369 133.59Z" fill="white"/>
<path d="M283.302 133.59C285.113 133.59 286.582 132.117 286.582 130.3C286.582 128.483 285.113 127.01 283.302 127.01C281.49 127.01 280.022 128.483 280.022 130.3C280.022 132.117 281.49 133.59 283.302 133.59Z" fill="white"/>
<path d="M31.8419 144.556C33.6533 144.556 35.1218 143.083 35.1218 141.266C35.1218 139.45 33.6533 137.977 31.8419 137.977C30.0305 137.977 28.562 139.45 28.562 141.266C28.562 143.083 30.0305 144.556 31.8419 144.556Z" fill="white"/>
<path d="M42.7754 144.557C44.5868 144.557 46.0552 143.084 46.0552 141.267C46.0552 139.45 44.5868 137.977 42.7754 137.977C40.9639 137.977 39.4955 139.45 39.4955 141.267C39.4955 143.084 40.9639 144.557 42.7754 144.557Z" fill="white"/>
<path d="M53.7073 144.556C55.5187 144.556 56.9871 143.083 56.9871 141.266C56.9871 139.45 55.5187 137.977 53.7073 137.977C51.8958 137.977 50.4274 139.45 50.4274 141.266C50.4274 143.083 51.8958 144.556 53.7073 144.556Z" fill="white"/>
<path d="M64.6437 144.556C66.4551 144.556 67.9235 143.083 67.9235 141.266C67.9235 139.45 66.4551 137.977 64.6437 137.977C62.8322 137.977 61.3638 139.45 61.3638 141.266C61.3638 143.083 62.8322 144.556 64.6437 144.556Z" fill="white"/>
<path d="M97.4365 144.557C99.2479 144.557 100.716 143.084 100.716 141.267C100.716 139.45 99.2479 137.977 97.4365 137.977C95.6251 137.977 94.1566 139.45 94.1566 141.267C94.1566 143.084 95.6251 144.557 97.4365 144.557Z" fill="white"/>
<path d="M119.306 144.557C121.117 144.557 122.586 143.084 122.586 141.267C122.586 139.45 121.117 137.977 119.306 137.977C117.494 137.977 116.026 139.45 116.026 141.267C116.026 143.084 117.494 144.557 119.306 144.557Z" fill="white"/>
<path d="M141.172 144.556C142.984 144.556 144.452 143.083 144.452 141.266C144.452 139.45 142.984 137.977 141.172 137.977C139.361 137.977 137.892 139.45 137.892 141.266C137.892 143.083 139.361 144.556 141.172 144.556Z" fill="white"/>
<path d="M152.102 144.556C153.913 144.556 155.382 143.083 155.382 141.266C155.382 139.449 153.913 137.976 152.102 137.976C150.29 137.976 148.822 139.449 148.822 141.266C148.822 143.083 150.29 144.556 152.102 144.556Z" fill="white"/>
<path d="M184.901 144.557C186.713 144.557 188.181 143.084 188.181 141.267C188.181 139.45 186.713 137.977 184.901 137.977C183.09 137.977 181.622 139.45 181.622 141.267C181.622 143.084 183.09 144.557 184.901 144.557Z" fill="white"/>
<path d="M195.835 144.556C197.646 144.556 199.115 143.083 199.115 141.266C199.115 139.45 197.646 137.977 195.835 137.977C194.024 137.977 192.555 139.45 192.555 141.266C192.555 143.083 194.024 144.556 195.835 144.556Z" fill="white"/>
<path d="M206.769 144.557C208.58 144.557 210.049 143.084 210.049 141.267C210.049 139.45 208.58 137.977 206.769 137.977C204.957 137.977 203.489 139.45 203.489 141.267C203.489 143.084 204.957 144.557 206.769 144.557Z" fill="white"/>
<path d="M217.703 144.556C219.515 144.556 220.983 143.083 220.983 141.266C220.983 139.449 219.515 137.976 217.703 137.976C215.892 137.976 214.423 139.449 214.423 141.266C214.423 143.083 215.892 144.556 217.703 144.556Z" fill="white"/>
<path d="M228.637 144.556C230.449 144.556 231.917 143.083 231.917 141.266C231.917 139.45 230.449 137.977 228.637 137.977C226.826 137.977 225.357 139.45 225.357 141.266C225.357 143.083 226.826 144.556 228.637 144.556Z" fill="white"/>
<path d="M239.567 144.556C241.379 144.556 242.847 143.083 242.847 141.266C242.847 139.45 241.379 137.977 239.567 137.977C237.756 137.977 236.288 139.45 236.288 141.266C236.288 143.083 237.756 144.556 239.567 144.556Z" fill="white"/>
<path d="M250.502 144.556C252.313 144.556 253.782 143.083 253.782 141.266C253.782 139.45 252.313 137.977 250.502 137.977C248.691 137.977 247.222 139.45 247.222 141.266C247.222 143.083 248.691 144.556 250.502 144.556Z" fill="white"/>
<path d="M261.432 144.556C263.243 144.556 264.712 143.083 264.712 141.266C264.712 139.45 263.243 137.977 261.432 137.977C259.62 137.977 258.152 139.45 258.152 141.266C258.152 143.083 259.62 144.556 261.432 144.556Z" fill="white"/>
<path d="M283.302 144.557C285.113 144.557 286.582 143.084 286.582 141.267C286.582 139.45 285.113 137.977 283.302 137.977C281.49 137.977 280.022 139.45 280.022 141.267C280.022 143.084 281.49 144.557 283.302 144.557Z" fill="white"/>
<path d="M294.234 144.556C296.045 144.556 297.514 143.083 297.514 141.266C297.514 139.449 296.045 137.976 294.234 137.976C292.422 137.976 290.954 139.449 290.954 141.266C290.954 143.083 292.422 144.556 294.234 144.556Z" fill="white"/>
<path d="M31.8419 155.522C33.6533 155.522 35.1218 154.049 35.1218 152.232C35.1218 150.415 33.6533 148.942 31.8419 148.942C30.0305 148.942 28.562 150.415 28.562 152.232C28.562 154.049 30.0305 155.522 31.8419 155.522Z" fill="white"/>
<path d="M64.6437 155.522C66.4551 155.522 67.9235 154.049 67.9235 152.232C67.9235 150.415 66.4551 148.942 64.6437 148.942C62.8322 148.942 61.3638 150.415 61.3638 152.232C61.3638 154.049 62.8322 155.522 64.6437 155.522Z" fill="white"/>
<path d="M75.5755 155.522C77.387 155.522 78.8554 154.049 78.8554 152.232C78.8554 150.416 77.387 148.943 75.5755 148.943C73.7641 148.943 72.2957 150.416 72.2957 152.232C72.2957 154.049 73.7641 155.522 75.5755 155.522Z" fill="white"/>
<path d="M86.5086 155.523C88.3201 155.523 89.7885 154.05 89.7885 152.233C89.7885 150.416 88.3201 148.943 86.5086 148.943C84.6972 148.943 83.2288 150.416 83.2288 152.233C83.2288 154.05 84.6972 155.523 86.5086 155.523Z" fill="white"/>
<path d="M119.306 155.522C121.117 155.522 122.586 154.049 122.586 152.232C122.586 150.415 121.117 148.942 119.306 148.942C117.494 148.942 116.026 150.415 116.026 152.232C116.026 154.049 117.494 155.522 119.306 155.522Z" fill="white"/>
<path d="M163.036 155.523C164.847 155.523 166.316 154.05 166.316 152.233C166.316 150.416 164.847 148.943 163.036 148.943C161.224 148.943 159.756 150.416 159.756 152.233C159.756 154.05 161.224 155.523 163.036 155.523Z" fill="white"/>
<path d="M184.901 155.522C186.713 155.522 188.181 154.05 188.181 152.233C188.181 150.416 186.713 148.943 184.901 148.943C183.09 148.943 181.622 150.416 181.622 152.233C181.622 154.05 183.09 155.522 184.901 155.522Z" fill="white"/>
<path d="M217.703 155.522C219.515 155.522 220.983 154.049 220.983 152.232C220.983 150.416 219.515 148.943 217.703 148.943C215.892 148.943 214.423 150.416 214.423 152.232C214.423 154.049 215.892 155.522 217.703 155.522Z" fill="white"/>
<path d="M239.567 155.523C241.379 155.523 242.847 154.05 242.847 152.233C242.847 150.416 241.379 148.943 239.567 148.943C237.756 148.943 236.288 150.416 236.288 152.233C236.288 154.05 237.756 155.523 239.567 155.523Z" fill="white"/>
<path d="M261.432 155.522C263.243 155.522 264.712 154.049 264.712 152.232C264.712 150.415 263.243 148.942 261.432 148.942C259.62 148.942 258.152 150.415 258.152 152.232C258.152 154.049 259.62 155.522 261.432 155.522Z" fill="white"/>
<path d="M294.234 155.522C296.045 155.522 297.514 154.049 297.514 152.232C297.514 150.415 296.045 148.943 294.234 148.943C292.422 148.943 290.954 150.415 290.954 152.232C290.954 154.049 292.422 155.522 294.234 155.522Z" fill="white"/>
<path d="M53.7073 166.488C55.5187 166.488 56.9871 165.015 56.9871 163.198C56.9871 161.382 55.5187 159.909 53.7073 159.909C51.8958 159.909 50.4274 161.382 50.4274 163.198C50.4274 165.015 51.8958 166.488 53.7073 166.488Z" fill="white"/>
<path d="M64.6437 166.489C66.4551 166.489 67.9235 165.016 67.9235 163.199C67.9235 161.382 66.4551 159.909 64.6437 159.909C62.8322 159.909 61.3638 161.382 61.3638 163.199C61.3638 165.016 62.8322 166.489 64.6437 166.489Z" fill="white"/>
<path d="M97.4365 166.489C99.2479 166.489 100.716 165.016 100.716 163.199C100.716 161.382 99.2479 159.909 97.4365 159.909C95.6251 159.909 94.1566 161.382 94.1566 163.199C94.1566 165.016 95.6251 166.489 97.4365 166.489Z" fill="white"/>
<path d="M108.373 166.488C110.184 166.488 111.653 165.016 111.653 163.199C111.653 161.382 110.184 159.909 108.373 159.909C106.562 159.909 105.093 161.382 105.093 163.199C105.093 165.016 106.562 166.488 108.373 166.488Z" fill="white"/>
<path d="M130.24 166.488C132.052 166.488 133.52 165.015 133.52 163.198C133.52 161.381 132.052 159.908 130.24 159.908C128.429 159.908 126.96 161.381 126.96 163.198C126.96 165.015 128.429 166.488 130.24 166.488Z" fill="white"/>
<path d="M195.835 166.488C197.646 166.488 199.115 165.015 199.115 163.198C199.115 161.382 197.646 159.909 195.835 159.909C194.024 159.909 192.555 161.382 192.555 163.198C192.555 165.015 194.024 166.488 195.835 166.488Z" fill="white"/>
<path d="M206.769 166.489C208.58 166.489 210.049 165.016 210.049 163.199C210.049 161.382 208.58 159.909 206.769 159.909C204.957 159.909 203.489 161.382 203.489 163.199C203.489 165.016 204.957 166.489 206.769 166.489Z" fill="white"/>
<path d="M228.637 166.489C230.449 166.489 231.917 165.016 231.917 163.199C231.917 161.382 230.449 159.909 228.637 159.909C226.826 159.909 225.357 161.382 225.357 163.199C225.357 165.016 226.826 166.489 228.637 166.489Z" fill="white"/>
<path d="M294.234 166.488C296.045 166.488 297.514 165.015 297.514 163.198C297.514 161.381 296.045 159.909 294.234 159.909C292.422 159.909 290.954 161.381 290.954 163.198C290.954 165.015 292.422 166.488 294.234 166.488Z" fill="white"/>
<path d="M31.8419 177.455C33.6533 177.455 35.1218 175.982 35.1218 174.165C35.1218 172.348 33.6533 170.875 31.8419 170.875C30.0305 170.875 28.562 172.348 28.562 174.165C28.562 175.982 30.0305 177.455 31.8419 177.455Z" fill="white"/>
<path d="M75.5755 177.455C77.387 177.455 78.8554 175.982 78.8554 174.165C78.8554 172.348 77.387 170.875 75.5755 170.875C73.7641 170.875 72.2957 172.348 72.2957 174.165C72.2957 175.982 73.7641 177.455 75.5755 177.455Z" fill="white"/>
<path d="M141.172 177.454C142.984 177.454 144.452 175.981 144.452 174.164C144.452 172.347 142.984 170.874 141.172 170.874C139.361 170.874 137.892 172.347 137.892 174.164C137.892 175.981 139.361 177.454 141.172 177.454Z" fill="white"/>
<path d="M163.036 177.454C164.847 177.454 166.316 175.981 166.316 174.164C166.316 172.347 164.847 170.874 163.036 170.874C161.224 170.874 159.756 172.347 159.756 174.164C159.756 175.981 161.224 177.454 163.036 177.454Z" fill="white"/>
<path d="M173.97 177.455C175.782 177.455 177.25 175.982 177.25 174.165C177.25 172.348 175.782 170.875 173.97 170.875C172.159 170.875 170.69 172.348 170.69 174.165C170.69 175.982 172.159 177.455 173.97 177.455Z" fill="white"/>
<path d="M195.835 177.454C197.646 177.454 199.115 175.981 199.115 174.165C199.115 172.348 197.646 170.875 195.835 170.875C194.024 170.875 192.555 172.348 192.555 174.165C192.555 175.981 194.024 177.454 195.835 177.454Z" fill="white"/>
<path d="M206.769 177.455C208.58 177.455 210.049 175.982 210.049 174.165C210.049 172.348 208.58 170.875 206.769 170.875C204.957 170.875 203.489 172.348 203.489 174.165C203.489 175.982 204.957 177.455 206.769 177.455Z" fill="white"/>
<path d="M217.703 177.455C219.515 177.455 220.983 175.982 220.983 174.165C220.983 172.348 219.515 170.875 217.703 170.875C215.892 170.875 214.423 172.348 214.423 174.165C214.423 175.982 215.892 177.455 217.703 177.455Z" fill="white"/>
<path d="M239.567 177.455C241.379 177.455 242.847 175.982 242.847 174.165C242.847 172.348 241.379 170.875 239.567 170.875C237.756 170.875 236.288 172.348 236.288 174.165C236.288 175.982 237.756 177.455 239.567 177.455Z" fill="white"/>
<path d="M283.302 177.454C285.113 177.454 286.582 175.981 286.582 174.165C286.582 172.348 285.113 170.875 283.302 170.875C281.49 170.875 280.022 172.348 280.022 174.165C280.022 175.981 281.49 177.454 283.302 177.454Z" fill="white"/>
<path d="M31.8419 188.421C33.6533 188.421 35.1218 186.948 35.1218 185.131C35.1218 183.314 33.6533 181.841 31.8419 181.841C30.0305 181.841 28.562 183.314 28.562 185.131C28.562 186.948 30.0305 188.421 31.8419 188.421Z" fill="white"/>
<path d="M53.7073 188.421C55.5187 188.421 56.9871 186.948 56.9871 185.131C56.9871 183.314 55.5187 181.841 53.7073 181.841C51.8958 181.841 50.4274 183.314 50.4274 185.131C50.4274 186.948 51.8958 188.421 53.7073 188.421Z" fill="white"/>
<path d="M64.6437 188.421C66.4551 188.421 67.9235 186.948 67.9235 185.131C67.9235 183.314 66.4551 181.841 64.6437 181.841C62.8322 181.841 61.3638 183.314 61.3638 185.131C61.3638 186.948 62.8322 188.421 64.6437 188.421Z" fill="white"/>
<path d="M86.5086 188.42C88.3201 188.42 89.7885 186.947 89.7885 185.13C89.7885 183.313 88.3201 181.841 86.5086 181.841C84.6972 181.841 83.2288 183.313 83.2288 185.13C83.2288 186.947 84.6972 188.42 86.5086 188.42Z" fill="white"/>
<path d="M97.4365 188.42C99.2479 188.42 100.716 186.947 100.716 185.131C100.716 183.314 99.2479 181.841 97.4365 181.841C95.6251 181.841 94.1566 183.314 94.1566 185.131C94.1566 186.947 95.6251 188.42 97.4365 188.42Z" fill="white"/>
<path d="M108.373 188.421C110.184 188.421 111.653 186.948 111.653 185.131C111.653 183.314 110.184 181.841 108.373 181.841C106.562 181.841 105.093 183.314 105.093 185.131C105.093 186.948 106.562 188.421 108.373 188.421Z" fill="white"/>
<path d="M119.306 188.42C121.117 188.42 122.586 186.948 122.586 185.131C122.586 183.314 121.117 181.841 119.306 181.841C117.494 181.841 116.026 183.314 116.026 185.131C116.026 186.948 117.494 188.42 119.306 188.42Z" fill="white"/>
<path d="M130.24 188.42C132.052 188.42 133.52 186.948 133.52 185.131C133.52 183.314 132.052 181.841 130.24 181.841C128.429 181.841 126.96 183.314 126.96 185.131C126.96 186.948 128.429 188.42 130.24 188.42Z" fill="white"/>
<path d="M141.172 188.421C142.984 188.421 144.452 186.948 144.452 185.131C144.452 183.314 142.984 181.841 141.172 181.841C139.361 181.841 137.892 183.314 137.892 185.131C137.892 186.948 139.361 188.421 141.172 188.421Z" fill="white"/>
<path d="M173.97 188.421C175.782 188.421 177.25 186.948 177.25 185.131C177.25 183.314 175.782 181.841 173.97 181.841C172.159 181.841 170.69 183.314 170.69 185.131C170.69 186.948 172.159 188.421 173.97 188.421Z" fill="white"/>
<path d="M184.901 188.42C186.713 188.42 188.181 186.947 188.181 185.13C188.181 183.313 186.713 181.841 184.901 181.841C183.09 181.841 181.622 183.313 181.622 185.13C181.622 186.947 183.09 188.42 184.901 188.42Z" fill="white"/>
<path d="M195.835 188.421C197.646 188.421 199.115 186.948 199.115 185.131C199.115 183.314 197.646 181.841 195.835 181.841C194.024 181.841 192.555 183.314 192.555 185.131C192.555 186.948 194.024 188.421 195.835 188.421Z" fill="white"/>
<path d="M217.703 188.421C219.515 188.421 220.983 186.948 220.983 185.131C220.983 183.314 219.515 181.841 217.703 181.841C215.892 181.841 214.423 183.314 214.423 185.131C214.423 186.948 215.892 188.421 217.703 188.421Z" fill="white"/>
<path d="M228.637 188.421C230.449 188.421 231.917 186.948 231.917 185.131C231.917 183.314 230.449 181.841 228.637 181.841C226.826 181.841 225.357 183.314 225.357 185.131C225.357 186.948 226.826 188.421 228.637 188.421Z" fill="white"/>
<path d="M239.567 188.421C241.379 188.421 242.847 186.948 242.847 185.131C242.847 183.314 241.379 181.841 239.567 181.841C237.756 181.841 236.288 183.314 236.288 185.131C236.288 186.948 237.756 188.421 239.567 188.421Z" fill="white"/>
<path d="M250.502 188.421C252.313 188.421 253.782 186.948 253.782 185.131C253.782 183.314 252.313 181.841 250.502 181.841C248.691 181.841 247.222 183.314 247.222 185.131C247.222 186.948 248.691 188.421 250.502 188.421Z" fill="white"/>
<path d="M261.432 188.421C263.243 188.421 264.712 186.948 264.712 185.131C264.712 183.314 263.243 181.841 261.432 181.841C259.62 181.841 258.152 183.314 258.152 185.131C258.152 186.948 259.62 188.421 261.432 188.421Z" fill="white"/>
<path d="M283.302 188.42C285.113 188.42 286.582 186.947 286.582 185.13C286.582 183.313 285.113 181.841 283.302 181.841C281.49 181.841 280.022 183.313 280.022 185.13C280.022 186.947 281.49 188.42 283.302 188.42Z" fill="white"/>
<path d="M294.234 188.42C296.045 188.42 297.514 186.947 297.514 185.13C297.514 183.313 296.045 181.84 294.234 181.84C292.422 181.84 290.954 183.313 290.954 185.13C290.954 186.947 292.422 188.42 294.234 188.42Z" fill="white"/>
<path d="M31.8419 199.387C33.6533 199.387 35.1218 197.914 35.1218 196.097C35.1218 194.28 33.6533 192.808 31.8419 192.808C30.0305 192.808 28.562 194.28 28.562 196.097C28.562 197.914 30.0305 199.387 31.8419 199.387Z" fill="white"/>
<path d="M75.5755 199.387C77.387 199.387 78.8554 197.914 78.8554 196.097C78.8554 194.28 77.387 192.807 75.5755 192.807C73.7641 192.807 72.2957 194.28 72.2957 196.097C72.2957 197.914 73.7641 199.387 75.5755 199.387Z" fill="white"/>
<path d="M86.5086 199.387C88.3201 199.387 89.7885 197.914 89.7885 196.097C89.7885 194.28 88.3201 192.807 86.5086 192.807C84.6972 192.807 83.2288 194.28 83.2288 196.097C83.2288 197.914 84.6972 199.387 86.5086 199.387Z" fill="white"/>
<path d="M119.306 199.387C121.117 199.387 122.586 197.914 122.586 196.097C122.586 194.281 121.117 192.808 119.306 192.808C117.494 192.808 116.026 194.281 116.026 196.097C116.026 197.914 117.494 199.387 119.306 199.387Z" fill="white"/>
<path d="M141.172 199.387C142.984 199.387 144.452 197.914 144.452 196.097C144.452 194.28 142.984 192.807 141.172 192.807C139.361 192.807 137.892 194.28 137.892 196.097C137.892 197.914 139.361 199.387 141.172 199.387Z" fill="white"/>
<path d="M163.036 199.387C164.847 199.387 166.316 197.914 166.316 196.097C166.316 194.28 164.847 192.807 163.036 192.807C161.224 192.807 159.756 194.28 159.756 196.097C159.756 197.914 161.224 199.387 163.036 199.387Z" fill="white"/>
<path d="M184.901 199.387C186.713 199.387 188.181 197.914 188.181 196.097C188.181 194.28 186.713 192.807 184.901 192.807C183.09 192.807 181.622 194.28 181.622 196.097C181.622 197.914 183.09 199.387 184.901 199.387Z" fill="white"/>
<path d="M217.703 199.387C219.515 199.387 220.983 197.914 220.983 196.097C220.983 194.28 219.515 192.807 217.703 192.807C215.892 192.807 214.423 194.28 214.423 196.097C214.423 197.914 215.892 199.387 217.703 199.387Z" fill="white"/>
<path d="M239.567 199.387C241.379 199.387 242.847 197.914 242.847 196.097C242.847 194.28 241.379 192.807 239.567 192.807C237.756 192.807 236.288 194.28 236.288 196.097C236.288 197.914 237.756 199.387 239.567 199.387Z" fill="white"/>
<path d="M261.432 199.387C263.243 199.387 264.712 197.914 264.712 196.097C264.712 194.28 263.243 192.808 261.432 192.808C259.62 192.808 258.152 194.28 258.152 196.097C258.152 197.914 259.62 199.387 261.432 199.387Z" fill="white"/>
<path d="M272.369 199.387C274.18 199.387 275.649 197.914 275.649 196.097C275.649 194.28 274.18 192.807 272.369 192.807C270.558 192.807 269.089 194.28 269.089 196.097C269.089 197.914 270.558 199.387 272.369 199.387Z" fill="white"/>
<path d="M294.234 199.387C296.045 199.387 297.514 197.914 297.514 196.097C297.514 194.281 296.045 192.808 294.234 192.808C292.422 192.808 290.954 194.281 290.954 196.097C290.954 197.914 292.422 199.387 294.234 199.387Z" fill="white"/>
<path d="M31.8419 210.352C33.6533 210.352 35.1218 208.88 35.1218 207.063C35.1218 205.246 33.6533 203.773 31.8419 203.773C30.0305 203.773 28.562 205.246 28.562 207.063C28.562 208.88 30.0305 210.352 31.8419 210.352Z" fill="white"/>
<path d="M53.7073 210.353C55.5187 210.353 56.9871 208.88 56.9871 207.063C56.9871 205.247 55.5187 203.774 53.7073 203.774C51.8958 203.774 50.4274 205.247 50.4274 207.063C50.4274 208.88 51.8958 210.353 53.7073 210.353Z" fill="white"/>
<path d="M86.5086 210.353C88.3201 210.353 89.7885 208.88 89.7885 207.063C89.7885 205.246 88.3201 203.773 86.5086 203.773C84.6972 203.773 83.2288 205.246 83.2288 207.063C83.2288 208.88 84.6972 210.353 86.5086 210.353Z" fill="white"/>
<path d="M97.4365 210.353C99.2479 210.353 100.716 208.88 100.716 207.063C100.716 205.246 99.2479 203.773 97.4365 203.773C95.6251 203.773 94.1566 205.246 94.1566 207.063C94.1566 208.88 95.6251 210.353 97.4365 210.353Z" fill="white"/>
<path d="M163.036 210.353C164.847 210.353 166.316 208.88 166.316 207.063C166.316 205.246 164.847 203.773 163.036 203.773C161.224 203.773 159.756 205.246 159.756 207.063C159.756 208.88 161.224 210.353 163.036 210.353Z" fill="white"/>
<path d="M173.97 210.352C175.782 210.352 177.25 208.88 177.25 207.063C177.25 205.246 175.782 203.773 173.97 203.773C172.159 203.773 170.69 205.246 170.69 207.063C170.69 208.88 172.159 210.352 173.97 210.352Z" fill="white"/>
<path d="M206.769 210.353C208.58 210.353 210.049 208.88 210.049 207.063C210.049 205.246 208.58 203.773 206.769 203.773C204.957 203.773 203.489 205.246 203.489 207.063C203.489 208.88 204.957 210.353 206.769 210.353Z" fill="white"/>
<path d="M217.703 210.353C219.515 210.353 220.983 208.88 220.983 207.064C220.983 205.247 219.515 203.774 217.703 203.774C215.892 203.774 214.423 205.247 214.423 207.064C214.423 208.88 215.892 210.353 217.703 210.353Z" fill="white"/>
<path d="M228.637 210.352C230.449 210.352 231.917 208.879 231.917 207.062C231.917 205.245 230.449 203.773 228.637 203.773C226.826 203.773 225.357 205.245 225.357 207.062C225.357 208.879 226.826 210.352 228.637 210.352Z" fill="white"/>
<path d="M239.567 210.353C241.379 210.353 242.847 208.88 242.847 207.064C242.847 205.247 241.379 203.774 239.567 203.774C237.756 203.774 236.288 205.247 236.288 207.064C236.288 208.88 237.756 210.353 239.567 210.353Z" fill="white"/>
<path d="M250.502 210.353C252.313 210.353 253.782 208.88 253.782 207.063C253.782 205.246 252.313 203.774 250.502 203.774C248.691 203.774 247.222 205.246 247.222 207.063C247.222 208.88 248.691 210.353 250.502 210.353Z" fill="white"/>
<path d="M272.369 210.353C274.18 210.353 275.649 208.88 275.649 207.064C275.649 205.247 274.18 203.774 272.369 203.774C270.558 203.774 269.089 205.247 269.089 207.064C269.089 208.88 270.558 210.353 272.369 210.353Z" fill="white"/>
<path d="M119.306 221.32C121.117 221.32 122.586 219.847 122.586 218.03C122.586 216.213 121.117 214.74 119.306 214.74C117.494 214.74 116.026 216.213 116.026 218.03C116.026 219.847 117.494 221.32 119.306 221.32Z" fill="white"/>
<path d="M173.97 221.32C175.782 221.32 177.25 219.847 177.25 218.03C177.25 216.213 175.782 214.74 173.97 214.74C172.159 214.74 170.69 216.213 170.69 218.03C170.69 219.847 172.159 221.32 173.97 221.32Z" fill="white"/>
<path d="M206.769 221.32C208.58 221.32 210.049 219.847 210.049 218.03C210.049 216.213 208.58 214.74 206.769 214.74C204.957 214.74 203.489 216.213 203.489 218.03C203.489 219.847 204.957 221.32 206.769 221.32Z" fill="white"/>
<path d="M250.502 221.32C252.313 221.32 253.782 219.847 253.782 218.03C253.782 216.213 252.313 214.74 250.502 214.74C248.691 214.74 247.222 216.213 247.222 218.03C247.222 219.847 248.691 221.32 250.502 221.32Z" fill="white"/>
<path d="M163.036 232.286C164.847 232.286 166.316 230.813 166.316 228.996C166.316 227.179 164.847 225.706 163.036 225.706C161.224 225.706 159.756 227.179 159.756 228.996C159.756 230.813 161.224 232.286 163.036 232.286Z" fill="white"/>
<path d="M206.769 232.286C208.58 232.286 210.049 230.813 210.049 228.996C210.049 227.179 208.58 225.706 206.769 225.706C204.957 225.706 203.489 227.179 203.489 228.996C203.489 230.813 204.957 232.286 206.769 232.286Z" fill="white"/>
<path d="M228.637 232.286C230.449 232.286 231.917 230.813 231.917 228.996C231.917 227.179 230.449 225.706 228.637 225.706C226.826 225.706 225.357 227.179 225.357 228.996C225.357 230.813 226.826 232.286 228.637 232.286Z" fill="white"/>
<path d="M250.502 232.286C252.313 232.286 253.782 230.813 253.782 228.996C253.782 227.179 252.313 225.706 250.502 225.706C248.691 225.706 247.222 227.179 247.222 228.996C247.222 230.813 248.691 232.286 250.502 232.286Z" fill="white"/>
<path d="M294.234 232.286C296.045 232.286 297.514 230.813 297.514 228.996C297.514 227.179 296.045 225.706 294.234 225.706C292.422 225.706 290.954 227.179 290.954 228.996C290.954 230.813 292.422 232.286 294.234 232.286Z" fill="white"/>
<path d="M130.24 243.252C132.052 243.252 133.52 241.779 133.52 239.962C133.52 238.145 132.052 236.672 130.24 236.672C128.429 236.672 126.96 238.145 126.96 239.962C126.96 241.779 128.429 243.252 130.24 243.252Z" fill="white"/>
<path d="M152.102 243.252C153.913 243.252 155.382 241.779 155.382 239.962C155.382 238.145 153.913 236.672 152.102 236.672C150.29 236.672 148.822 238.145 148.822 239.962C148.822 241.779 150.29 243.252 152.102 243.252Z" fill="white"/>
<path d="M184.901 243.252C186.713 243.252 188.181 241.779 188.181 239.962C188.181 238.145 186.713 236.672 184.901 236.672C183.09 236.672 181.622 238.145 181.622 239.962C181.622 241.779 183.09 243.252 184.901 243.252Z" fill="white"/>
<path d="M195.835 243.252C197.646 243.252 199.115 241.779 199.115 239.962C199.115 238.145 197.646 236.672 195.835 236.672C194.024 236.672 192.555 238.145 192.555 239.962C192.555 241.779 194.024 243.252 195.835 243.252Z" fill="white"/>
<path d="M206.769 243.252C208.58 243.252 210.049 241.779 210.049 239.962C210.049 238.145 208.58 236.672 206.769 236.672C204.957 236.672 203.489 238.145 203.489 239.962C203.489 241.779 204.957 243.252 206.769 243.252Z" fill="white"/>
<path d="M250.502 243.252C252.313 243.252 253.782 241.779 253.782 239.962C253.782 238.145 252.313 236.672 250.502 236.672C248.691 236.672 247.222 238.145 247.222 239.962C247.222 241.779 248.691 243.252 250.502 243.252Z" fill="white"/>
<path d="M152.102 254.218C153.913 254.218 155.382 252.745 155.382 250.928C155.382 249.111 153.913 247.638 152.102 247.638C150.29 247.638 148.822 249.111 148.822 250.928C148.822 252.745 150.29 254.218 152.102 254.218Z" fill="white"/>
<path d="M195.835 254.218C197.646 254.218 199.115 252.745 199.115 250.928C199.115 249.111 197.646 247.638 195.835 247.638C194.024 247.638 192.555 249.111 192.555 250.928C192.555 252.745 194.024 254.218 195.835 254.218Z" fill="white"/>
<path d="M206.769 254.218C208.58 254.218 210.049 252.745 210.049 250.928C210.049 249.111 208.58 247.638 206.769 247.638C204.957 247.638 203.489 249.111 203.489 250.928C203.489 252.745 204.957 254.218 206.769 254.218Z" fill="white"/>
<path d="M217.703 254.218C219.515 254.218 220.983 252.745 220.983 250.928C220.983 249.111 219.515 247.638 217.703 247.638C215.892 247.638 214.423 249.111 214.423 250.928C214.423 252.745 215.892 254.218 217.703 254.218Z" fill="white"/>
<path d="M228.637 254.218C230.449 254.218 231.917 252.745 231.917 250.928C231.917 249.112 230.449 247.639 228.637 247.639C226.826 247.639 225.357 249.112 225.357 250.928C225.357 252.745 226.826 254.218 228.637 254.218Z" fill="white"/>
<path d="M239.567 254.218C241.379 254.218 242.847 252.745 242.847 250.928C242.847 249.111 241.379 247.638 239.567 247.638C237.756 247.638 236.288 249.111 236.288 250.928C236.288 252.745 237.756 254.218 239.567 254.218Z" fill="white"/>
<path d="M250.502 254.218C252.313 254.218 253.782 252.745 253.782 250.928C253.782 249.111 252.313 247.638 250.502 247.638C248.691 247.638 247.222 249.111 247.222 250.928C247.222 252.745 248.691 254.218 250.502 254.218Z" fill="white"/>
<path d="M272.369 254.218C274.18 254.218 275.649 252.745 275.649 250.928C275.649 249.111 274.18 247.638 272.369 247.638C270.558 247.638 269.089 249.111 269.089 250.928C269.089 252.745 270.558 254.218 272.369 254.218Z" fill="white"/>
<path d="M283.302 254.218C285.113 254.218 286.582 252.745 286.582 250.928C286.582 249.111 285.113 247.638 283.302 247.638C281.49 247.638 280.022 249.111 280.022 250.928C280.022 252.745 281.49 254.218 283.302 254.218Z" fill="white"/>
<path d="M294.234 254.218C296.045 254.218 297.514 252.745 297.514 250.928C297.514 249.111 296.045 247.638 294.234 247.638C292.422 247.638 290.954 249.111 290.954 250.928C290.954 252.745 292.422 254.218 294.234 254.218Z" fill="white"/>
<path d="M141.172 265.184C142.984 265.184 144.452 263.711 144.452 261.894C144.452 260.077 142.984 258.604 141.172 258.604C139.361 258.604 137.892 260.077 137.892 261.894C137.892 263.711 139.361 265.184 141.172 265.184Z" fill="white"/>
<path d="M163.036 265.184C164.847 265.184 166.316 263.711 166.316 261.894C166.316 260.077 164.847 258.604 163.036 258.604C161.224 258.604 159.756 260.077 159.756 261.894C159.756 263.711 161.224 265.184 163.036 265.184Z" fill="white"/>
<path d="M173.97 265.184C175.782 265.184 177.25 263.711 177.25 261.894C177.25 260.077 175.782 258.604 173.97 258.604C172.159 258.604 170.69 260.077 170.69 261.894C170.69 263.711 172.159 265.184 173.97 265.184Z" fill="white"/>
<path d="M184.901 265.184C186.713 265.184 188.181 263.711 188.181 261.894C188.181 260.077 186.713 258.604 184.901 258.604C183.09 258.604 181.622 260.077 181.622 261.894C181.622 263.711 183.09 265.184 184.901 265.184Z" fill="white"/>
<path d="M195.835 265.184C197.646 265.184 199.115 263.711 199.115 261.894C199.115 260.077 197.646 258.604 195.835 258.604C194.024 258.604 192.555 260.077 192.555 261.894C192.555 263.711 194.024 265.184 195.835 265.184Z" fill="white"/>
<path d="M228.637 265.184C230.449 265.184 231.917 263.711 231.917 261.894C231.917 260.077 230.449 258.604 228.637 258.604C226.826 258.604 225.357 260.077 225.357 261.894C225.357 263.711 226.826 265.184 228.637 265.184Z" fill="white"/>
<path d="M283.302 265.184C285.113 265.184 286.582 263.711 286.582 261.894C286.582 260.077 285.113 258.604 283.302 258.604C281.49 258.604 280.022 260.077 280.022 261.894C280.022 263.711 281.49 265.184 283.302 265.184Z" fill="white"/>
<path d="M294.234 265.184C296.045 265.184 297.514 263.711 297.514 261.894C297.514 260.077 296.045 258.604 294.234 258.604C292.422 258.604 290.954 260.077 290.954 261.894C290.954 263.711 292.422 265.184 294.234 265.184Z" fill="white"/>
<path d="M130.24 276.15C132.052 276.15 133.52 274.677 133.52 272.86C133.52 271.043 132.052 269.57 130.24 269.57C128.429 269.57 126.96 271.043 126.96 272.86C126.96 274.677 128.429 276.15 130.24 276.15Z" fill="white"/>
<path d="M141.172 276.149C142.984 276.149 144.452 274.677 144.452 272.86C144.452 271.043 142.984 269.57 141.172 269.57C139.361 269.57 137.892 271.043 137.892 272.86C137.892 274.677 139.361 276.149 141.172 276.149Z" fill="white"/>
<path d="M173.97 276.15C175.782 276.15 177.25 274.677 177.25 272.86C177.25 271.043 175.782 269.57 173.97 269.57C172.159 269.57 170.69 271.043 170.69 272.86C170.69 274.677 172.159 276.15 173.97 276.15Z" fill="white"/>
<path d="M184.901 276.15C186.713 276.15 188.181 274.677 188.181 272.86C188.181 271.043 186.713 269.57 184.901 269.57C183.09 269.57 181.622 271.043 181.622 272.86C181.622 274.677 183.09 276.15 184.901 276.15Z" fill="white"/>
<path d="M261.432 276.15C263.243 276.15 264.712 274.677 264.712 272.86C264.712 271.043 263.243 269.57 261.432 269.57C259.62 269.57 258.152 271.043 258.152 272.86C258.152 274.677 259.62 276.15 261.432 276.15Z" fill="white"/>
<path d="M272.369 276.15C274.18 276.15 275.649 274.677 275.649 272.86C275.649 271.043 274.18 269.57 272.369 269.57C270.558 269.57 269.089 271.043 269.089 272.86C269.089 274.677 270.558 276.15 272.369 276.15Z" fill="white"/>
<path d="M294.234 276.15C296.045 276.15 297.514 274.677 297.514 272.86C297.514 271.043 296.045 269.57 294.234 269.57C292.422 269.57 290.954 271.043 290.954 272.86C290.954 274.677 292.422 276.15 294.234 276.15Z" fill="white"/>
<path d="M130.24 287.116C132.052 287.116 133.52 285.643 133.52 283.826C133.52 282.009 132.052 280.536 130.24 280.536C128.429 280.536 126.96 282.009 126.96 283.826C126.96 285.643 128.429 287.116 130.24 287.116Z" fill="white"/>
<path d="M141.172 287.116C142.984 287.116 144.452 285.643 144.452 283.826C144.452 282.009 142.984 280.536 141.172 280.536C139.361 280.536 137.892 282.009 137.892 283.826C137.892 285.643 139.361 287.116 141.172 287.116Z" fill="white"/>
<path d="M163.036 287.116C164.847 287.116 166.316 285.643 166.316 283.826C166.316 282.009 164.847 280.536 163.036 280.536C161.224 280.536 159.756 282.009 159.756 283.826C159.756 285.643 161.224 287.116 163.036 287.116Z" fill="white"/>
<path d="M173.97 287.117C175.782 287.117 177.25 285.644 177.25 283.827C177.25 282.01 175.782 280.537 173.97 280.537C172.159 280.537 170.69 282.01 170.69 283.827C170.69 285.644 172.159 287.117 173.97 287.117Z" fill="white"/>
<path d="M206.769 287.117C208.58 287.117 210.049 285.644 210.049 283.827C210.049 282.01 208.58 280.537 206.769 280.537C204.957 280.537 203.489 282.01 203.489 283.827C203.489 285.644 204.957 287.117 206.769 287.117Z" fill="white"/>
<path d="M217.703 287.116C219.515 287.116 220.983 285.643 220.983 283.826C220.983 282.009 219.515 280.536 217.703 280.536C215.892 280.536 214.423 282.009 214.423 283.826C214.423 285.643 215.892 287.116 217.703 287.116Z" fill="white"/>
<path d="M239.567 287.116C241.379 287.116 242.847 285.643 242.847 283.826C242.847 282.009 241.379 280.536 239.567 280.536C237.756 280.536 236.288 282.009 236.288 283.826C236.288 285.643 237.756 287.116 239.567 287.116Z" fill="white"/>
<path d="M250.502 287.116C252.313 287.116 253.782 285.643 253.782 283.826C253.782 282.009 252.313 280.536 250.502 280.536C248.691 280.536 247.222 282.009 247.222 283.826C247.222 285.643 248.691 287.116 250.502 287.116Z" fill="white"/>
<path d="M294.234 287.116C296.045 287.116 297.514 285.643 297.514 283.826C297.514 282.009 296.045 280.536 294.234 280.536C292.422 280.536 290.954 282.009 290.954 283.826C290.954 285.643 292.422 287.116 294.234 287.116Z" fill="white"/>
<path d="M119.306 298.082C121.117 298.082 122.586 296.61 122.586 294.793C122.586 292.976 121.117 291.503 119.306 291.503C117.494 291.503 116.026 292.976 116.026 294.793C116.026 296.61 117.494 298.082 119.306 298.082Z" fill="white"/>
<path d="M130.24 298.083C132.052 298.083 133.52 296.61 133.52 294.793C133.52 292.976 132.052 291.503 130.24 291.503C128.429 291.503 126.96 292.976 126.96 294.793C126.96 296.61 128.429 298.083 130.24 298.083Z" fill="white"/>
<path d="M141.172 298.083C142.984 298.083 144.452 296.61 144.452 294.793C144.452 292.976 142.984 291.503 141.172 291.503C139.361 291.503 137.892 292.976 137.892 294.793C137.892 296.61 139.361 298.083 141.172 298.083Z" fill="white"/>
<path d="M152.102 298.083C153.913 298.083 155.382 296.61 155.382 294.793C155.382 292.976 153.913 291.503 152.102 291.503C150.29 291.503 148.822 292.976 148.822 294.793C148.822 296.61 150.29 298.083 152.102 298.083Z" fill="white"/>
<path d="M163.036 298.083C164.847 298.083 166.316 296.61 166.316 294.793C166.316 292.976 164.847 291.503 163.036 291.503C161.224 291.503 159.756 292.976 159.756 294.793C159.756 296.61 161.224 298.083 163.036 298.083Z" fill="white"/>
<path d="M173.97 298.082C175.782 298.082 177.25 296.609 177.25 294.793C177.25 292.976 175.782 291.503 173.97 291.503C172.159 291.503 170.69 292.976 170.69 294.793C170.69 296.609 172.159 298.082 173.97 298.082Z" fill="white"/>
<path d="M206.769 298.082C208.58 298.082 210.049 296.609 210.049 294.792C210.049 292.975 208.58 291.503 206.769 291.503C204.957 291.503 203.489 292.975 203.489 294.792C203.489 296.609 204.957 298.082 206.769 298.082Z" fill="white"/>
<path d="M217.703 298.083C219.515 298.083 220.983 296.61 220.983 294.793C220.983 292.976 219.515 291.503 217.703 291.503C215.892 291.503 214.423 292.976 214.423 294.793C214.423 296.61 215.892 298.083 217.703 298.083Z" fill="white"/>
<path d="M261.432 298.082C263.243 298.082 264.712 296.609 264.712 294.792C264.712 292.975 263.243 291.503 261.432 291.503C259.62 291.503 258.152 292.975 258.152 294.792C258.152 296.609 259.62 298.082 261.432 298.082Z" fill="white"/>
<path d="M294.234 298.083C296.045 298.083 297.514 296.61 297.514 294.793C297.514 292.976 296.045 291.503 294.234 291.503C292.422 291.503 290.954 292.976 290.954 294.793C290.954 296.61 292.422 298.083 294.234 298.083Z" fill="white"/>
<path d="M76.7763 26.1268H52.5023C40.6722 26.1268 30.6498 33.9666 27.4455 44.682C27.1141 45.7905 26.8554 46.9296 26.6756 48.0941C26.4773 49.3792 26.374 50.6949 26.374 52.0344V76.9602C26.374 91.2527 38.0985 102.875 52.5023 102.875L64.6393 102.878L76.7763 102.875C91.1794 102.875 102.905 91.2519 102.905 76.9594V52.0344C102.905 37.7488 91.1801 26.1268 76.7763 26.1268ZM91.425 76.9602C91.425 84.9006 84.8541 91.3609 76.7732 91.3609L64.6393 91.3633L52.5054 91.3602C44.4245 91.3602 37.8536 84.8998 37.8536 76.9602V52.0344C37.8536 49.5542 38.4949 47.219 39.6238 45.1787C40.7105 43.2158 42.248 41.5278 44.0993 40.2497C46.4794 38.6062 49.3776 37.6413 52.5016 37.6413H76.7763C84.8541 37.6413 91.425 44.0978 91.425 52.0344V76.9602Z" fill="white"/>
<path d="M273.57 26.1273H249.296C237.466 26.1273 227.443 33.9671 224.239 44.6825C223.907 45.791 223.649 46.9301 223.469 48.0946C223.271 49.3796 223.167 50.6954 223.167 52.0349V76.9607C223.167 91.2532 234.892 102.876 249.296 102.876L261.433 102.878L273.57 102.875C287.973 102.875 299.698 91.2524 299.698 76.9599V52.0349C299.698 37.7493 287.973 26.1273 273.57 26.1273ZM288.218 76.9607C288.218 84.901 281.647 91.3614 273.567 91.3614L261.433 91.3637L249.299 91.3607C241.218 91.3607 234.647 84.9003 234.647 76.9607V52.0349C234.647 49.5547 235.288 47.2195 236.417 45.1792C237.504 43.2163 239.041 41.5283 240.893 40.2502C243.273 38.6067 246.171 37.6418 249.295 37.6418H273.57C281.647 37.6418 288.218 44.0983 288.218 52.0349V76.9607Z" fill="white"/>
<path d="M76.7763 223.519H52.5023C40.6722 223.519 30.6498 231.359 27.4455 242.074C27.1141 243.182 26.8554 244.322 26.6756 245.486C26.4773 246.771 26.374 248.087 26.374 249.426V274.352C26.374 288.645 38.0985 300.267 52.5023 300.267L64.6393 300.27L76.7763 300.267C91.1794 300.267 102.905 288.644 102.905 274.351V249.426C102.905 235.141 91.1801 223.519 76.7763 223.519ZM91.425 274.352C91.425 282.293 84.8541 288.753 76.7732 288.753L64.6393 288.755L52.5054 288.752C44.4245 288.752 37.8536 282.292 37.8536 274.352V249.426C37.8536 246.946 38.4949 244.611 39.6238 242.571C40.7105 240.608 42.248 238.92 44.0993 237.642C46.4794 235.998 49.3776 235.033 52.5016 235.033H76.7763C84.8541 235.033 91.425 241.49 91.425 249.426V274.352Z" fill="white"/>
<path d="M81.0416 48.0541H48.2428V80.9526H81.0416V48.0541Z" fill="white"/>
<path d="M277.833 48.054H245.035V80.9525H277.833V48.054Z" fill="white"/>
<path d="M81.0416 245.445H48.2428V278.343H81.0416V245.445Z" fill="white"/>
</g>
<defs>
<clipPath id="clip0_2506_2774">
<rect width="325.012" height="326" fill="white" transform="translate(0.53125 0.198761)"/>
</clipPath>
</defs>
</svg>
