<svg width="371" height="347" viewBox="0 0 371 347" fill="none" xmlns="http://www.w3.org/2000/svg">
<mask id="mask0_2696_3779" style="mask-type:alpha" maskUnits="userSpaceOnUse" x="16" y="14" width="333" height="333">
<circle cx="182.727" cy="180.612" r="166.125" fill="#D9D9D9"/>
</mask>
<g mask="url(#mask0_2696_3779)">
<circle cx="184.954" cy="163.32" r="130.133" fill="#1D1D1D"/>
</g>
<path d="M357.186 70.3738C336.666 72.3305 335.104 74.5048 333.899 107.232C333.894 107.375 333.682 107.375 333.676 107.232C332.471 74.5055 330.909 72.3305 310.389 70.3738C310.255 70.3611 310.255 70.1656 310.389 70.1529C330.909 68.1962 332.471 66.0219 333.676 33.2944C333.682 33.1519 333.893 33.1519 333.899 33.2944C335.104 66.0212 336.666 68.1962 357.186 70.1529C357.32 70.1656 357.32 70.3611 357.186 70.3738Z" fill="#313131"/>
<path d="M370.599 41.7954C358.924 42.9086 358.035 44.146 357.349 62.7669C357.346 62.8484 357.226 62.8484 357.223 62.7669C356.537 44.146 355.648 42.9086 343.973 41.7954C343.897 41.7877 343.897 41.677 343.973 41.6693C355.648 40.5561 356.537 39.3187 357.223 20.6978C357.226 20.6164 357.347 20.6164 357.349 20.6978C358.035 39.3187 358.924 40.5561 370.599 41.6693C370.675 41.677 370.675 41.7877 370.599 41.7954Z" fill="#313131"/>
<path d="M48.43 273.777C36.7549 274.89 35.8663 276.128 35.1801 294.749C35.1769 294.83 35.0566 294.83 35.0541 294.749C34.3679 276.128 33.4793 274.89 21.8042 273.777C21.7279 273.769 21.7279 273.659 21.8042 273.651C33.4793 272.538 34.3679 271.3 35.0541 252.68C35.0573 252.598 35.1776 252.598 35.1801 252.68C35.8663 271.3 36.7549 272.538 48.43 273.651C48.5064 273.659 48.5064 273.769 48.43 273.777Z" fill="#313131"/>
<path d="M319.366 42.4107C312.243 43.0899 311.701 43.8448 311.283 55.2048C311.281 55.2544 311.208 55.2544 311.206 55.2048C310.788 43.8448 310.245 43.0899 303.123 42.4107C303.076 42.4062 303.076 42.3381 303.123 42.3337C310.245 41.6545 310.788 40.8996 311.206 29.5396C311.208 29.4899 311.281 29.4899 311.283 29.5396C311.702 40.8996 312.243 41.6545 319.366 42.3337C319.413 42.3388 319.413 42.4062 319.366 42.4107Z" fill="#313131"/>
<path d="M329.587 151.018L295.337 62.0023C283.871 66.4135 270.999 60.696 266.588 49.2295L48.5866 133.111C48.656 133.28 48.7299 133.445 48.7962 133.616C53.1861 145.025 47.5441 157.822 36.1924 162.296L70.447 251.32C81.6978 247.095 94.2451 252.58 98.8143 263.649L316.815 179.768C312.402 168.301 318.121 155.43 329.587 151.018Z" fill="#292929"/>
<path d="M328.301 145.809L294.05 56.7935C282.585 61.2048 269.713 55.4872 265.302 44.0208L47.3002 127.902C47.3696 128.071 47.4435 128.236 47.5098 128.407C51.8997 139.817 46.2577 152.614 34.906 157.087L69.1606 246.112C80.4114 241.886 92.9587 247.371 97.5279 258.44L315.528 174.559C311.116 163.093 316.835 150.221 328.301 145.809Z" fill="#FFCF35"/>
<path opacity="0.9" d="M101.431 246.97C95.0235 239.06 85.1673 234.755 75.0155 235.422L46.4036 161.063C54.6009 154.507 59.0608 144.163 58.1758 133.686L261.265 55.5424C267.695 63.7038 277.839 68.2112 288.205 67.5109L316.779 141.773C308.618 148.203 304.111 158.348 304.811 168.714L101.431 246.97Z" stroke="black" stroke-width="1.64097" stroke-miterlimit="10"/>
<path opacity="0.9" d="M257.216 68.2103L292.252 159.268" stroke="black" stroke-width="1.64097" stroke-miterlimit="10"/>
<path opacity="0.9" d="M69.3159 140.553L104.353 231.611" stroke="black" stroke-width="1.64097" stroke-miterlimit="10"/>
<path d="M117.482 200.317L109.807 203.316C109.63 203.384 109.499 203.309 109.413 203.088L91.3595 156.489C91.2906 156.313 91.3443 156.19 91.5208 156.121L105.217 150.77C107.665 149.813 110.147 149.53 112.664 149.92C115.18 150.309 117.437 151.271 119.434 152.804C121.453 154.328 122.959 156.359 123.949 158.895C124.596 160.549 124.928 162.148 124.946 163.692C124.965 165.235 124.813 166.604 124.491 167.797C124.191 168.982 123.852 169.903 123.473 170.559C126.981 172.315 129.45 175.024 130.881 178.685L136.375 192.554C136.461 192.775 136.394 192.928 136.174 193.014L128.498 196.013C128.322 196.082 128.208 196.05 128.156 195.918L122.676 181.891C122.038 180.259 120.913 179.071 119.301 178.328C117.689 177.585 116.045 177.541 114.369 178.196L109.903 179.941L117.617 199.883C117.703 200.103 117.658 200.248 117.482 200.317ZM108.384 158.875L102.561 161.15L106.723 171.803L112.546 169.528C113.935 168.985 114.968 167.984 115.643 166.525C116.341 165.058 116.397 163.574 115.811 162.075C115.251 160.641 114.239 159.613 112.776 158.99C111.303 158.345 109.839 158.307 108.384 158.875ZM138.469 191.736L128.686 141.906C128.661 141.712 128.737 141.581 128.914 141.512L138.739 137.673C138.916 137.604 139.06 137.649 139.173 137.809L165.431 181.202C165.539 181.414 165.494 181.559 165.296 181.637L157.786 184.571C157.565 184.657 157.401 184.594 157.293 184.382L154.626 179.704L145.396 183.31L146.607 188.557C146.671 188.786 146.604 188.939 146.406 189.017L138.863 191.964C138.686 192.033 138.555 191.957 138.469 191.736ZM139.534 155.323L143.922 175.535L150.439 172.989L140.228 155.052L138.849 152.693L139.534 155.323ZM176.388 177.303L168.779 180.276C168.558 180.362 168.405 180.295 168.319 180.074L150.265 133.475C150.197 133.299 150.25 133.176 150.427 133.107L172.129 124.628C172.35 124.542 172.494 124.587 172.563 124.764L175.549 132.406C175.618 132.582 175.564 132.705 175.388 132.774L161.493 138.202L165.603 148.723L179.498 143.294C179.674 143.225 179.806 143.301 179.892 143.522L182.957 151.171C183.025 151.347 182.95 151.479 182.729 151.565L168.834 156.993L176.589 176.843C176.676 177.064 176.608 177.217 176.388 177.303ZM203.558 166.688L195.949 169.661C195.728 169.747 195.575 169.68 195.489 169.459L177.436 122.86C177.367 122.684 177.421 122.561 177.597 122.492L199.299 114.013C199.52 113.927 199.665 113.972 199.734 114.148L202.719 121.791C202.788 121.967 202.734 122.09 202.558 122.159L188.663 127.587L192.773 138.108L206.668 132.679C206.845 132.61 206.976 132.686 207.062 132.906L210.127 140.556C210.196 140.732 210.12 140.864 209.899 140.95L196.005 146.378L203.76 166.228C203.846 166.448 203.779 166.602 203.558 166.688ZM244.954 150.515L223.053 159.071C222.877 159.14 222.745 159.065 222.659 158.844L204.566 112.337C204.48 112.116 204.547 111.963 204.767 111.877L212.31 108.93C212.531 108.844 212.684 108.911 212.77 109.131L227.736 147.633L241.697 142.178C241.917 142.092 242.071 142.159 242.157 142.38L245.156 150.055C245.242 150.276 245.174 150.429 244.954 150.515ZM270.536 140.52L248.635 149.077C248.459 149.146 248.328 149.07 248.242 148.849L230.122 102.276C230.053 102.1 230.107 101.977 230.283 101.908L252.052 93.4032C252.228 93.3343 252.36 93.4101 252.446 93.6307L255.406 101.207C255.475 101.383 255.421 101.506 255.244 101.575L241.35 107.003L245.486 117.59L259.38 112.161C259.557 112.092 259.679 112.146 259.748 112.322L262.813 119.972C262.882 120.148 262.828 120.271 262.652 120.34L248.691 125.794L253.318 137.638L267.279 132.183C267.456 132.115 267.587 132.19 267.673 132.411L270.697 140.152C270.766 140.329 270.713 140.451 270.536 140.52Z" fill="#1A1505"/>
<path d="M221.701 277.213C246.612 277.213 266.806 256.86 266.806 231.754C266.806 206.647 246.612 186.294 221.701 186.294C196.79 186.294 176.596 206.647 176.596 231.754C176.596 256.86 196.79 277.213 221.701 277.213Z" fill="#1D1D1D"/>
<path d="M221.701 271.58C243.525 271.58 261.217 253.749 261.217 231.754C261.217 209.758 243.525 191.927 221.701 191.927C199.877 191.927 182.185 209.758 182.185 231.754C182.185 253.749 199.877 271.58 221.701 271.58Z" fill="#36D34F"/>
<path d="M206.305 231.754L216.557 242.006L237.097 221.502" stroke="#161616" stroke-width="8.54806" stroke-linecap="round" stroke-linejoin="round"/>
</svg>
