<svg width="31" height="31" viewBox="0 0 31 31" fill="none" xmlns="http://www.w3.org/2000/svg">
<mask id="mask0_3197_3502" style="mask-type:luminance" maskUnits="userSpaceOnUse" x="0" y="0" width="31" height="31">
<path fill-rule="evenodd" clip-rule="evenodd" d="M0.779785 15.5479C0.779785 7.26358 7.49551 0.547852 15.7798 0.547852C24.0641 0.547852 30.7798 7.26358 30.7798 15.5479C30.7798 23.8321 24.0641 30.5479 15.7798 30.5479C7.49551 30.5479 0.779785 23.8321 0.779785 15.5479Z" fill="white"/>
</mask>
<g mask="url(#mask0_3197_3502)">
<path fill-rule="evenodd" clip-rule="evenodd" d="M0.779785 15.5479C0.779785 7.26358 7.49551 0.547852 15.7798 0.547852C24.0641 0.547852 30.7798 7.26358 30.7798 15.5479C30.7798 23.8321 24.0641 30.5479 15.7798 30.5479C7.49551 30.5479 0.779785 23.8321 0.779785 15.5479Z" fill="white"/>
<path d="M2.50299 2.56738C0.132667 5.02945 0.617791 7.64484 0.617791 15.5903C0.617791 22.1885 -0.533436 28.803 5.49165 30.3602C7.37308 30.8441 24.0432 30.8441 25.9222 30.3577C28.4307 29.7104 30.4718 27.6757 30.7508 24.1277C30.7897 23.6326 30.7897 7.55687 30.7495 7.05163C30.4529 3.27244 28.1266 1.09441 25.0613 0.653276C24.3587 0.551475 24.2179 0.521312 20.6134 0.515028C7.82804 0.521312 5.02538 -0.0480172 2.50299 2.56738V2.56738Z" fill="#343434"/>
<path d="M21.6951 18.4982V10.9846C21.6951 10.2376 21.0851 9.68356 20.3443 9.74581H20.3069C18.9997 9.85786 17.0139 10.5239 15.9059 11.2211L15.8 11.2896C15.6195 11.4017 15.3207 11.4017 15.1402 11.2896L14.9846 11.1962C13.8765 10.5053 11.897 9.84541 10.5897 9.73959C9.84894 9.67734 9.24512 10.2376 9.24512 10.9784V18.4982C9.24512 19.0958 9.73067 19.656 10.3283 19.7307L10.5088 19.7556C11.8596 19.9361 13.945 20.6209 15.1402 21.2745L15.1651 21.287C15.3332 21.3803 15.6008 21.3803 15.7627 21.287C16.9579 20.6271 19.0495 19.9361 20.4065 19.7556L20.612 19.7307C21.2096 19.656 21.6951 19.0958 21.6951 18.4982Z" stroke="white" stroke-linecap="round" stroke-linejoin="round"/>
<path d="M15.47 11.4951V20.8326" stroke="white" stroke-linecap="round" stroke-linejoin="round"/>
<path d="M12.8245 13.3628H11.4238" stroke="white" stroke-linecap="round" stroke-linejoin="round"/>
<path d="M13.2913 15.23H11.4238" stroke="white" stroke-linecap="round" stroke-linejoin="round"/>
</g>
</svg>
