<svg width="46" height="46" viewBox="0 0 46 46" fill="none" xmlns="http://www.w3.org/2000/svg">
<mask id="mask0_1372_16034" style="mask-type:luminance" maskUnits="userSpaceOnUse" x="0" y="0" width="46" height="46">
<path fill-rule="evenodd" clip-rule="evenodd" d="M0.0788574 22.6213C0.0788574 10.1949 10.1525 0.121277 22.5789 0.121277C35.0053 0.121277 45.0789 10.1949 45.0789 22.6213C45.0789 35.0477 35.0053 45.1213 22.5789 45.1213C10.1525 45.1213 0.0788574 35.0477 0.0788574 22.6213Z" fill="white"/>
</mask>
<g mask="url(#mask0_1372_16034)">
<path fill-rule="evenodd" clip-rule="evenodd" d="M0.0788574 22.6213C0.0788574 10.1949 10.1525 0.121277 22.5789 0.121277C35.0053 0.121277 45.0789 10.1949 45.0789 22.6213C45.0789 35.0477 35.0053 45.1213 22.5789 45.1213C10.1525 45.1213 0.0788574 35.0477 0.0788574 22.6213Z" fill="white"/>
<path d="M2.66366 3.15081C-0.89182 6.84391 -0.164135 10.767 -0.164135 22.6852C-0.164135 32.5825 -1.89097 42.5043 7.14666 44.84C9.9688 45.5658 34.974 45.5658 37.7924 44.8363C41.5553 43.8654 44.6168 40.8133 45.0353 35.4914C45.0938 34.7486 45.0938 10.635 45.0335 9.87719C44.5886 4.20841 41.099 0.941362 36.5011 0.279658C35.4472 0.126957 35.2361 0.0817121 29.8293 0.0722862C10.6512 0.0817121 6.44725 -0.772282 2.66366 3.15081Z" fill="#343434"/>
</g>
<path d="M19.7396 21.6368C19.6462 21.6275 19.5342 21.6275 19.4314 21.6368C17.2091 21.5621 15.4443 19.7413 15.4443 17.5003C15.4443 15.2126 17.2932 13.3544 19.5902 13.3544C21.8779 13.3544 23.736 15.2126 23.736 17.5003C23.7267 19.7413 21.9619 21.5621 19.7396 21.6368Z" stroke="white" stroke-width="1.5" stroke-linecap="round" stroke-linejoin="round"/>
<path d="M26.5092 15.2219C28.3207 15.2219 29.7773 16.6879 29.7773 18.49C29.7773 20.2548 28.3767 21.6928 26.6306 21.7582C26.5559 21.7488 26.4719 21.7488 26.3878 21.7582" stroke="white" stroke-width="1.5" stroke-linecap="round" stroke-linejoin="round"/>
<path d="M14.9167 24.6166C12.657 26.1293 12.657 28.5944 14.9167 30.0977C17.4845 31.8158 21.6957 31.8158 24.2635 30.0977C26.5232 28.5851 26.5232 26.12 24.2635 24.6166C21.705 22.9079 17.4938 22.9079 14.9167 24.6166Z" stroke="white" stroke-width="1.5" stroke-linecap="round" stroke-linejoin="round"/>
<path d="M28.3114 30.1619C28.9837 30.0219 29.6187 29.7511 30.1416 29.3496C31.5982 28.2571 31.5982 26.455 30.1416 25.3625C29.628 24.9703 29.0024 24.7088 28.3394 24.5594" stroke="white" stroke-width="1.5" stroke-linecap="round" stroke-linejoin="round"/>
</svg>
