<svg width="46" height="46" viewBox="0 0 46 46" fill="none" xmlns="http://www.w3.org/2000/svg">
<mask id="mask0_1372_16044" style="mask-type:luminance" maskUnits="userSpaceOnUse" x="0" y="0" width="46" height="46">
<path fill-rule="evenodd" clip-rule="evenodd" d="M0.321655 22.6213C0.321655 10.1949 10.3952 0.121277 22.8217 0.121277C35.2481 0.121277 45.3217 10.1949 45.3217 22.6213C45.3217 35.0477 35.2481 45.1213 22.8217 45.1213C10.3952 45.1213 0.321655 35.0477 0.321655 22.6213Z" fill="white"/>
</mask>
<g mask="url(#mask0_1372_16044)">
<path fill-rule="evenodd" clip-rule="evenodd" d="M0.321655 22.6213C0.321655 10.1949 10.3952 0.121277 22.8217 0.121277C35.2481 0.121277 45.3217 10.1949 45.3217 22.6213C45.3217 35.0477 35.2481 45.1213 22.8217 45.1213C10.3952 45.1213 0.321655 35.0477 0.321655 22.6213Z" fill="white"/>
<path d="M2.90646 3.15081C-0.649023 6.84391 0.0786633 10.767 0.0786633 22.6852C0.0786633 32.5825 -1.64818 42.5043 7.38946 44.84C10.2116 45.5658 35.2168 45.5658 38.0352 44.8363C41.7981 43.8654 44.8596 40.8133 45.2781 35.4914C45.3366 34.7486 45.3366 10.635 45.2763 9.87719C44.8313 4.20841 41.3418 0.941362 36.7439 0.279658C35.69 0.126957 35.4789 0.0817121 30.0721 0.0722862C10.894 0.0817121 6.69005 -0.772282 2.90646 3.15081Z" fill="#343434"/>
<path d="M19.4332 22.6318H25.9708" stroke="white" stroke-width="1.5" stroke-miterlimit="10" stroke-linecap="round" stroke-linejoin="round"/>
<path d="M19.4332 26.3676H23.5239" stroke="white" stroke-width="1.5" stroke-miterlimit="10" stroke-linecap="round" stroke-linejoin="round"/>
<path d="M21.3011 16.8414H25.0369C26.9047 16.8414 26.9047 15.9074 26.9047 14.9735C26.9047 13.1056 25.9708 13.1056 25.0369 13.1056H21.3011C20.3672 13.1056 19.4332 13.1056 19.4332 14.9735C19.4332 16.8414 20.3672 16.8414 21.3011 16.8414Z" stroke="white" stroke-width="1.5" stroke-miterlimit="10" stroke-linecap="round" stroke-linejoin="round"/>
<path d="M26.9048 14.9922C30.0148 15.1603 31.5745 16.309 31.5745 20.5771V26.1808C31.5745 29.9165 30.6405 31.7844 25.9708 31.7844H20.3672C15.6975 31.7844 14.7635 29.9165 14.7635 26.1808V20.5771C14.7635 16.3184 16.3232 15.1603 19.4332 14.9922" stroke="white" stroke-width="1.5" stroke-miterlimit="10" stroke-linecap="round" stroke-linejoin="round"/>
</g>
</svg>
