<svg width="428" height="927" viewBox="0 0 428 927" fill="none" xmlns="http://www.w3.org/2000/svg">
<g clip-path="url(#clip0_2207_8355)">
<rect x="-22.1849" y="46.6652" width="94.0423" height="124.723" rx="47.0211" transform="rotate(17.6719 -22.1849 46.6652)" fill="#121212" stroke="#030303" stroke-width="5.22557"/>
<rect x="79.1814" y="-36.6877" width="94.0423" height="126.732" rx="47.0211" transform="rotate(114.683 79.1814 -36.6877)" fill="#121212" stroke="#030303" stroke-width="5.22557"/>
<rect x="139.722" y="28.9778" width="104.083" height="104.084" rx="52.0414" transform="rotate(114.683 139.722 28.9778)" fill="#121212" stroke="#030303" stroke-width="5.22557"/>
<rect x="194.677" y="90.2405" width="93.6173" height="93.618" rx="9.66199" transform="rotate(118.746 194.677 90.2405)" fill="#121212" stroke="#030303" stroke-width="5.22557"/>
<path d="M-9.38715 -38.4681C-9.38715 -38.4681 21.7962 -40.3911 7.78351 -16.8888C-6.63564 6.36638 -19.2764 -22.2047 -19.2764 -22.2047" fill="#121212"/>
<path d="M-9.38715 -38.4681C-9.38715 -38.4681 21.7962 -40.3911 7.78351 -16.8888C-6.63564 6.36638 -19.2764 -22.2047 -19.2764 -22.2047" stroke="#464646" stroke-width="1.56767" stroke-miterlimit="10" stroke-linecap="round" stroke-linejoin="round"/>
<path d="M19.7802 -9.59393C23.1009 -15.055 24.8211 -20.0729 23.6224 -20.8018C22.4237 -21.5307 18.76 -17.6946 15.4393 -12.2335C12.1186 -6.7725 10.3984 -1.75457 11.5971 -1.02566C12.7958 -0.296752 16.4595 -4.1329 19.7802 -9.59393Z" fill="#121212" stroke="#464646" stroke-width="1.56767" stroke-miterlimit="10" stroke-linecap="round" stroke-linejoin="round"/>
<path d="M139.8 92.0708C147.95 96.304 155.028 98.8276 155.609 97.7073C156.191 96.5871 150.057 92.2473 141.907 88.014C133.758 83.7808 126.68 81.2573 126.098 82.3775C125.516 83.4977 131.651 87.8376 139.8 92.0708Z" fill="#121212" stroke="#464646" stroke-width="1.56767" stroke-miterlimit="10" stroke-linecap="round" stroke-linejoin="round"/>
<path d="M155.516 97.8831L139.791 106.17C138.253 106.981 136.491 107.262 134.777 106.969C133.153 106.692 131.657 105.915 130.497 104.746C129.272 103.512 128.488 101.908 128.267 100.184L126.005 82.5532" fill="#121212"/>
<path d="M155.516 97.8831L139.791 106.17C138.253 106.981 136.491 107.262 134.777 106.969C133.153 106.692 131.657 105.915 130.497 104.746C129.272 103.512 128.488 101.908 128.267 100.184L126.005 82.5532" stroke="#464646" stroke-width="1.56767" stroke-miterlimit="10" stroke-linecap="round" stroke-linejoin="round"/>
<path d="M132.463 106.192L121.042 128.179" stroke="#464646" stroke-width="1.56767" stroke-miterlimit="10" stroke-linecap="round" stroke-linejoin="round"/>
<path d="M130.825 133.261C130.439 134.003 125.748 132.33 120.345 129.524C114.943 126.718 110.877 123.841 111.262 123.099C111.648 122.356 116.34 124.029 121.742 126.835C127.144 129.641 131.211 132.518 130.825 133.261Z" fill="#121212" stroke="#464646" stroke-width="1.56767" stroke-miterlimit="10" stroke-linecap="round" stroke-linejoin="round"/>
<path d="M126.922 89.7099C128.973 89.4071 133.287 91.1269 137.427 96.6493C141.913 102.632 147.565 102.059 149.134 101.248L149.134 101.25C147.576 98.7026 140.507 93.7422 134.883 93.7206" fill="#121212"/>
<path d="M126.922 89.7099C128.973 89.4071 133.287 91.1269 137.427 96.6493C141.913 102.632 147.565 102.059 149.134 101.248L149.134 101.25C147.576 98.7026 140.507 93.7422 134.883 93.7206" stroke="#464646" stroke-width="1.56767" stroke-miterlimit="10" stroke-linecap="round" stroke-linejoin="round"/>
<path d="M70.703 39.9774C78.7281 39.9774 85.2338 38.7474 85.2338 37.2302C85.2338 35.7129 78.7281 34.4829 70.703 34.4829C62.6779 34.4829 56.1723 35.7129 56.1723 37.2302C56.1723 38.7474 62.6779 39.9774 70.703 39.9774Z" fill="#121212" stroke="#464646" stroke-width="1.56767" stroke-miterlimit="10" stroke-linecap="round" stroke-linejoin="round"/>
<path d="M85.2335 37.2302C85.3825 38.0601 85.4603 38.9143 85.4603 39.7863C85.4603 47.8276 78.8531 54.3463 70.7028 54.3463C62.5525 54.3463 55.9453 47.8274 55.9453 39.7863C55.9453 38.9144 56.023 38.0603 56.172 37.2302" fill="#121212"/>
<path d="M85.2335 37.2302C85.3825 38.0601 85.4603 38.9143 85.4603 39.7863C85.4603 47.8276 78.8531 54.3463 70.7028 54.3463C62.5525 54.3463 55.9453 47.8274 55.9453 39.7863C55.9453 38.9144 56.023 38.0603 56.172 37.2302" stroke="#464646" stroke-width="1.56767" stroke-miterlimit="10" stroke-linecap="round" stroke-linejoin="round"/>
<path d="M70.703 54.3994V72.4116" stroke="#464646" stroke-width="1.56767" stroke-miterlimit="10" stroke-linecap="round" stroke-linejoin="round"/>
<path d="M70.7029 74.5808C76.1606 74.5808 80.585 73.6096 80.585 72.4116C80.585 71.2136 76.1606 70.2424 70.7029 70.2424C65.2451 70.2424 60.8207 71.2136 60.8207 72.4116C60.8207 73.6096 65.2451 74.5808 70.7029 74.5808Z" fill="#121212" stroke="#464646" stroke-width="1.56767" stroke-miterlimit="10" stroke-linecap="round" stroke-linejoin="round"/>
<path d="M85.1363 42.817C85.1363 42.817 82.7049 42.3686 73.7881 45.2873C61.0869 49.4447 56.1723 42.3686 56.1723 42.3686C56.1723 42.3686 63.4408 39.8041 75.9773 44.5975" fill="#121212"/>
<path d="M85.1363 42.817C85.1363 42.817 82.7049 42.3686 73.7881 45.2873C61.0869 49.4447 56.1723 42.3686 56.1723 42.3686C56.1723 42.3686 63.4408 39.8041 75.9773 44.5975" stroke="#464646" stroke-width="1.56767" stroke-miterlimit="10" stroke-linecap="round" stroke-linejoin="round"/>
<path d="M9.41095 98.9954C14.3842 100.328 18.6131 100.672 18.8564 99.7642C19.0997 98.8562 15.2653 97.0399 10.292 95.7073C5.31874 94.3747 1.08988 94.0305 0.846582 94.9385C0.603286 95.8465 4.43769 97.6628 9.41095 98.9954Z" fill="#121212" stroke="#464646" stroke-width="1.56767" stroke-miterlimit="10" stroke-linecap="round" stroke-linejoin="round"/>
<path d="M0.846069 94.9385L-3.82883 112.385C-5.16142 117.359 -2.21009 122.471 2.76321 123.803C7.7365 125.136 12.8484 122.184 14.181 117.211L18.8559 99.7642" fill="#121212"/>
<path d="M0.846069 94.9385L-3.82883 112.385C-5.16142 117.359 -2.21009 122.471 2.76321 123.803C7.7365 125.136 12.8484 122.184 14.181 117.211L18.8559 99.7642" stroke="#464646" stroke-width="1.56767" stroke-miterlimit="10" stroke-linecap="round" stroke-linejoin="round"/>
<path d="M12.7071 111.651C2.99431 105.062 -2.67084 108.067 -2.67084 108.067C-2.67084 108.067 -2.96811 110.562 5.37107 112.136C12.4554 113.474 16.2326 109.556 16.2326 109.556" fill="#121212"/>
<path d="M12.7071 111.651C2.99431 105.062 -2.67084 108.067 -2.67084 108.067C-2.67084 108.067 -2.96811 110.562 5.37107 112.136C12.4554 113.474 16.2326 109.556 16.2326 109.556" stroke="#464646" stroke-width="1.56767" stroke-miterlimit="10" stroke-linecap="round" stroke-linejoin="round"/>
<path d="M2.76337 123.803L-2.47808 143.365" stroke="#464646" stroke-width="1.56767" stroke-miterlimit="10" stroke-linecap="round" stroke-linejoin="round"/>
<path d="M-2.91862 145.009C2.05464 146.341 6.2835 146.685 6.5268 145.777C6.7701 144.869 2.9357 143.053 -2.03757 141.72C-7.01084 140.388 -11.2397 140.044 -11.483 140.952C-11.7263 141.86 -7.89189 143.676 -2.91862 145.009Z" fill="#121212" stroke="#464646" stroke-width="1.56767" stroke-miterlimit="10" stroke-linecap="round" stroke-linejoin="round"/>
<rect x="324.9" y="64.8282" width="92.5892" height="122.776" rx="46.2946" transform="rotate(17.6719 324.9 64.8282)" fill="#121212" stroke="#030303" stroke-width="5.07929"/>
<rect x="424.693" y="-17.1577" width="92.5892" height="124.752" rx="46.2946" transform="rotate(114.683 424.693 -17.1577)" fill="#121212" stroke="#030303" stroke-width="5.07929"/>
<rect x="484.258" y="47.4495" width="102.468" height="102.469" rx="51.2339" transform="rotate(114.683 484.258 47.4495)" fill="#121212" stroke="#030303" stroke-width="5.07929"/>
<rect x="538.33" y="107.728" width="92.1711" height="92.1718" rx="9.39153" transform="rotate(118.746 538.33 107.728)" fill="#121212" stroke="#030303" stroke-width="5.07929"/>
<path d="M354.135 123.335C360.2 124.96 365.297 125.602 365.521 124.768C365.744 123.935 361.009 121.942 354.944 120.317C348.88 118.692 343.782 118.05 343.559 118.884C343.336 119.717 348.071 121.71 354.135 123.335Z" stroke="#464646" stroke-width="1.52379" stroke-miterlimit="10" stroke-linecap="round" stroke-linejoin="round"/>
<path d="M360.084 137.747C350.351 131.573 337.13 129.73 334.904 132.577" stroke="#464646" stroke-width="1.52379" stroke-miterlimit="10" stroke-linecap="round" stroke-linejoin="round"/>
<path d="M365.521 124.768C365.521 124.768 373.592 162.424 345.806 154.423C317.741 147.459 343.559 118.884 343.559 118.884" stroke="#464646" stroke-width="1.52379" stroke-miterlimit="10" stroke-linecap="round" stroke-linejoin="round"/>
<path d="M334.637 132.818C334.312 138.462 366.271 140.303 366.596 134.66" stroke="#464646" stroke-width="1.52379" stroke-miterlimit="10" stroke-linecap="round" stroke-linejoin="round"/>
<path d="M416.311 58.2876C424.207 58.2876 430.608 57.0774 430.608 55.5846C430.608 54.0918 424.207 52.8816 416.311 52.8816C408.415 52.8816 402.014 54.0918 402.014 55.5846C402.014 57.0774 408.415 58.2876 416.311 58.2876Z" stroke="#464646" stroke-width="1.52379" stroke-miterlimit="10" stroke-linecap="round" stroke-linejoin="round"/>
<path d="M430.607 55.5845C430.754 56.401 430.831 57.2414 430.831 58.0994C430.831 66.0111 424.33 72.4247 416.311 72.4247C408.292 72.4247 401.791 66.0109 401.791 58.0994C401.791 57.2416 401.868 56.4012 402.014 55.5845" stroke="#464646" stroke-width="1.52379" stroke-miterlimit="10" stroke-linecap="round" stroke-linejoin="round"/>
<path d="M416.311 72.4771V90.199" stroke="#464646" stroke-width="1.52379" stroke-miterlimit="10" stroke-linecap="round" stroke-linejoin="round"/>
<path d="M416.311 92.3334C421.681 92.3334 426.034 91.3779 426.034 90.1992C426.034 89.0205 421.681 88.0649 416.311 88.0649C410.941 88.0649 406.588 89.0205 406.588 90.1992C406.588 91.3779 410.941 92.3334 416.311 92.3334Z" stroke="#464646" stroke-width="1.52379" stroke-miterlimit="10" stroke-linecap="round" stroke-linejoin="round"/>
<path d="M430.512 61.0812C430.512 61.0812 428.12 60.64 419.346 63.5117C406.85 67.6021 402.014 60.64 402.014 60.64C402.014 60.64 409.166 58.1168 421.5 62.833" stroke="#464646" stroke-width="1.52379" stroke-miterlimit="10" stroke-linecap="round" stroke-linejoin="round"/>
<path d="M340.628 -25.1617C340.628 -25.1617 346.629 -22.1276 346.549 -15.885C346.531 -14.5179 347.033 -13.1916 347.964 -12.1908C349.684 -10.3426 351.678 -6.69589 348.524 -1.2338C345.371 4.2283 341.216 4.3252 338.755 3.75963C337.423 3.45331 336.023 3.682 334.848 4.3809C329.482 7.57224 323.854 3.89204 323.854 3.89204" stroke="#464646" stroke-width="1.52379" stroke-miterlimit="10" stroke-linecap="round" stroke-linejoin="round"/>
<path d="M334.503 -9.32902C339.136 -17.3533 341.888 -24.4376 340.65 -25.1521C339.413 -25.8667 334.654 -19.941 330.021 -11.9167C325.388 -3.89242 322.636 3.19182 323.874 3.90639C325.111 4.62096 329.87 -1.30474 334.503 -9.32902Z" stroke="#464646" stroke-width="1.52379" stroke-miterlimit="10" stroke-linecap="round" stroke-linejoin="round"/>
<path d="M348.524 -1.23364L365.407 8.51363" stroke="#464646" stroke-width="1.52379" stroke-miterlimit="10" stroke-linecap="round" stroke-linejoin="round"/>
<path d="M367.349 9.63471C370.169 4.74891 371.587 0.286238 370.514 -0.332939C369.442 -0.952116 366.286 2.50667 363.465 7.39248C360.644 12.2783 359.227 16.741 360.299 17.3601C361.372 17.9793 364.528 14.5205 367.349 9.63471Z" stroke="#464646" stroke-width="1.52379" stroke-miterlimit="10" stroke-linecap="round" stroke-linejoin="round"/>
<path d="M345.282 -20.6518C336.659 -11.8055 339.613 -0.392541 330.078 5.68229C328.729 4.0382 333.161 -5.53137 339.949 -12.0879" stroke="#464646" stroke-width="1.52379" stroke-miterlimit="10" stroke-linecap="round" stroke-linejoin="round"/>
<g filter="url(#filter0_d_2207_8355)">
<mask id="mask0_2207_8355" style="mask-type:alpha" maskUnits="userSpaceOnUse" x="-58" y="109" width="545" height="462">
<rect x="-57.6287" y="109.926" width="543.91" height="460.385" fill="#FFCC4C"/>
</mask>
<g mask="url(#mask0_2207_8355)">
<path d="M335.639 750.68L274.623 781.776C267.633 773.169 253.044 751.051 242.13 733.99C238.278 727.969 234.909 722.585 232.455 718.625C229.583 713.982 220.454 633.231 214.937 582.323C212.354 558.56 210.584 541.333 210.584 541.333L210.523 540.917L230.192 532.596C230.192 532.596 234.951 542.167 242.447 557.39C266.632 606.211 319.364 713.376 335.639 750.68Z" fill="#171717"/>
<path d="M242.448 557.392L216.375 581.018L214.938 582.325L212.843 584.223L197.226 543.178L210.585 541.335L210.524 540.919L230.193 532.598C230.193 532.598 234.952 542.168 242.448 557.392Z" fill="#171717"/>
<path d="M171.568 396.21C171.568 396.21 175.666 377.337 167.177 376.31C158.688 375.284 152.485 386.917 152.485 386.917C152.485 386.917 136.327 393.852 132.88 405.306C129.433 416.761 150.005 428.229 150.005 428.229L171.568 396.21Z" fill="#202020"/>
<path d="M242.13 733.99C242.186 734.371 242.247 734.787 242.267 735.174C243.792 749.747 244.758 774.56 245.398 784.519L181.281 793.875C174.661 750.207 153.032 622.116 151.848 600.909C150.378 574.825 151.328 549.555 151.328 549.555L197.225 543.176L210.584 541.333L216.375 581.016L228.087 651.337C228.087 651.337 237.864 692.386 242.13 733.99Z" fill="#1C1C1C"/>
<path d="M161.065 577.449C159.969 577.609 158.814 577.65 157.602 577.544C157.187 577.509 156.878 577.14 156.913 576.724C156.949 576.315 157.319 576.01 157.73 576.038C170.757 577.164 176.415 559.667 176.471 559.489C176.597 559.092 177.026 558.877 177.418 558.993C177.815 559.119 178.036 559.543 177.914 559.94C177.857 560.111 172.817 575.734 161.065 577.449Z" fill="white"/>
<path d="M241.92 734.518C241.514 734.577 241.134 734.3 241.067 733.892L215.568 580.735C215.524 580.483 215.617 580.222 215.811 580.048L231.881 565.715C232.191 565.436 232.669 565.462 232.948 565.775C233.228 566.088 233.198 566.563 232.885 566.843L217.124 580.897L242.553 733.646C242.62 734.054 242.344 734.445 241.933 734.516L241.92 734.518Z" fill="white"/>
<path d="M182.934 440.462C182.934 440.462 200.198 438.679 208.852 450.392C217.506 462.106 237.083 538.072 237.083 538.072C237.083 538.072 215.812 547.646 188.003 551.361C160.193 555.075 148.074 554.745 148.074 554.745L137.681 503.869C137.681 503.869 131.133 453.076 137.55 448.61C143.967 444.148 171.05 439.407 182.934 440.462Z" fill="white"/>
<path d="M153.162 429.563L157.239 446.05C157.239 446.05 159.06 448.782 170.308 448.316C177.686 448.011 180.672 445.013 180.672 445.013L177.606 436.912L174.606 429.014L156.241 429.489L153.162 429.563Z" fill="#FEC29E"/>
<path d="M156.243 429.482C156.396 429.924 156.697 430.411 157.117 430.955C162.843 438.278 173.368 437.56 177.608 436.906L174.608 429.008L156.243 429.482Z" fill="#292929"/>
<path d="M168.793 391.965C168.793 391.965 182.004 410.577 181.549 422.887C181.098 435.196 170.68 435.729 164.188 434.899C157.696 434.07 154.041 430.851 154.041 430.851C154.041 430.851 148.904 434.167 143.921 429.564C138.938 424.96 139.815 418.114 142.68 415.919C145.545 413.724 149.893 415.263 149.893 415.263L145.56 409.97C145.56 409.97 151.181 376.565 168.793 391.965Z" fill="#FEC29E"/>
<path d="M151.418 424.403C151.282 424.423 151.145 424.404 151.013 424.349L142.678 420.783C142.296 420.619 142.115 420.179 142.278 419.794C142.445 419.408 142.886 419.231 143.268 419.398L151.604 422.963C151.988 423.123 152.167 423.568 152.003 423.953C151.895 424.202 151.671 424.366 151.418 424.403Z" fill="#292929"/>
<path d="M144.977 425.936C144.679 425.979 144.368 425.837 144.21 425.556C144.005 425.193 144.136 424.735 144.499 424.529L148.83 422.096C149.193 421.891 149.655 422.021 149.856 422.385C150.062 422.748 149.93 423.206 149.567 423.411L145.236 425.845C145.154 425.892 145.067 425.923 144.977 425.936Z" fill="#292929"/>
<path d="M157.757 404.07C157.625 404.089 157.488 404.073 157.36 404.021C156.973 403.862 156.791 403.421 156.947 403.034C158.393 399.524 161.435 399.342 162.841 399.735C163.243 399.85 163.477 400.265 163.366 400.667C163.258 401.065 162.843 401.306 162.437 401.189C162.15 401.117 159.612 400.532 158.345 403.612C158.24 403.865 158.01 404.033 157.757 404.07Z" fill="#292929"/>
<path d="M172.728 399.458C172.579 399.48 172.42 399.457 172.275 399.383C170.381 398.413 168.955 399.8 168.897 399.861C168.604 400.159 168.131 400.164 167.833 399.868C167.535 399.575 167.526 399.102 167.819 398.805C168.583 398.021 170.641 396.846 172.967 398.036C173.338 398.226 173.485 398.679 173.296 399.053C173.177 399.279 172.964 399.424 172.728 399.458Z" fill="#292929"/>
<path d="M174.492 416.254C173.936 416.247 173.612 415.894 173.629 415.478C173.856 409.367 169.209 408.233 169.011 408.184C168.604 408.091 168.351 407.689 168.444 407.283C168.537 406.876 168.938 406.619 169.341 406.713C169.403 406.725 175.417 408.134 175.138 415.533C175.121 415.904 174.842 416.203 174.492 416.254Z" fill="#292929"/>
<path d="M174.578 407.401C174.273 407.446 173.957 407.297 173.802 407.008L171.906 403.473C171.707 403.106 171.846 402.65 172.213 402.451C172.571 402.258 173.037 402.395 173.236 402.762L175.132 406.298C175.331 406.665 175.192 407.121 174.824 407.319C174.746 407.363 174.661 407.389 174.578 407.401Z" fill="#292929"/>
<path d="M164.733 410.108C164.428 410.152 164.113 410.004 163.957 409.715L162.064 406.179C161.866 405.812 162.008 405.356 162.372 405.157C162.729 404.964 163.195 405.101 163.394 405.468L165.287 409.004C165.486 409.372 165.344 409.828 164.98 410.026C164.901 410.069 164.82 410.095 164.733 410.108Z" fill="#292929"/>
<path d="M171.568 396.21C171.568 396.21 169.069 393.322 165.163 394.281C161.257 395.241 159.683 398.713 159.683 398.713C159.683 398.713 163.069 405.209 158.659 410.231C154.249 415.253 149.897 415.262 149.897 415.262L145.7 414.787L141.445 409.568L149.509 394.098L161.969 382.433L171.01 387.609L171.568 396.21Z" fill="#202020"/>
<path d="M170.736 423.577C169.128 423.811 166.721 423.522 165.015 421.315C164.762 420.983 164.824 420.511 165.151 420.258C165.481 419.997 165.955 420.066 166.212 420.393C168.188 422.95 171.126 421.952 171.247 421.91C171.631 421.776 172.07 421.973 172.209 422.367C172.348 422.758 172.149 423.19 171.758 423.329C171.48 423.433 171.131 423.519 170.736 423.577Z" fill="#292929"/>
<path d="M68.4907 417.042C68.4907 417.042 64.0146 405.385 56.7736 400.831C49.5326 396.277 41.395 393.851 43.4424 398.543C45.4898 403.235 51.112 410.57 51.112 410.57L38.9748 409.162C38.9748 409.162 30.8406 406.735 25.0909 406.07C19.3411 405.405 18.1915 409.728 18.1915 409.728C18.1915 409.728 12.4417 409.063 10.2702 411.04C8.0987 413.016 10.3146 416.243 10.3146 416.243C10.3146 416.243 2.39327 417.555 6.2718 423.201C10.1503 428.847 27.3566 436.781 35.4947 439.211C43.6288 441.638 61.1346 441.438 61.1346 441.438C61.1346 441.438 77.0419 442.557 68.4907 417.042Z" fill="#FEC29E"/>
<path d="M26.1651 426.014C25.8983 426.053 25.6211 425.949 25.449 425.715C25.2023 425.383 25.2712 424.909 25.6063 424.659L44.2882 410.833C44.6248 410.592 45.097 410.651 45.3452 410.993C45.5919 411.326 45.523 411.799 45.1879 412.05L26.506 425.876C26.4032 425.948 26.2864 425.997 26.1651 426.014Z" fill="#1E1C1C"/>
<path d="M60.9639 426.05C60.8703 426.063 60.7742 426.06 60.6785 426.035C49.4379 423.325 51.0818 412.25 51.1013 412.141C51.1659 411.736 51.5654 411.465 51.9652 411.513C52.3785 411.58 52.6576 411.964 52.5939 412.377C52.5282 412.776 51.1691 422.187 61.0337 424.564C61.4407 424.66 61.6916 425.069 61.5912 425.473C61.5169 425.789 61.262 426.006 60.9639 426.05Z" fill="#1E1C1C"/>
<path d="M281.959 413.086C281.959 413.086 285.986 401.268 293.051 396.442C300.113 391.617 308.152 388.88 306.285 393.647C304.418 398.415 299.08 405.958 299.08 405.958L311.157 404.09C311.157 404.09 319.193 401.353 324.914 400.468C330.633 399.584 331.947 403.859 331.947 403.859C331.947 403.859 337.665 402.975 339.913 404.867C342.157 406.759 340.067 410.069 340.067 410.069C340.067 410.069 348.033 411.076 344.372 416.866C340.711 422.657 323.82 431.242 315.781 433.979C307.745 436.716 290.247 437.185 290.247 437.185C290.247 437.185 274.39 438.911 281.959 413.086Z" fill="#FEC29E"/>
<path d="M324.786 420.424C324.605 420.45 324.416 420.411 324.25 420.297L305.055 407.195C304.713 406.962 304.623 406.49 304.855 406.144C305.089 405.802 305.56 405.709 305.906 405.948L325.102 419.051C325.444 419.284 325.534 419.756 325.301 420.101C325.18 420.285 324.987 420.395 324.786 420.424Z" fill="#1E1C1C"/>
<path d="M290.013 421.801C289.646 421.855 289.283 421.628 289.18 421.257C289.068 420.856 289.3 420.436 289.702 420.325C299.469 417.572 297.751 408.22 297.672 407.824C297.591 407.418 297.855 407.019 298.268 406.937C298.701 406.871 299.075 407.135 299.154 407.527C299.174 407.637 301.24 418.645 290.112 421.776C290.081 421.784 290.048 421.796 290.013 421.801Z" fill="#1E1C1C"/>
<path d="M41.259 445.891C41.259 445.891 65.937 486.085 92.4492 497.224C114.475 506.48 146.716 501.743 146.716 501.743L156.135 442.851C156.135 442.851 116.641 447.414 104.618 440.949C92.5922 434.482 72.6681 419.444 72.6681 419.444L41.259 445.891Z" fill="white"/>
<path d="M105.865 459.636C104.853 459.783 104.265 459.338 103.951 458.938C101.722 456.106 106.296 444.321 107.233 441.986C107.361 441.674 107.676 441.483 108.014 441.515C108.348 441.547 108.618 441.802 108.677 442.133C108.764 442.633 110.808 454.38 107.993 458.278C107.433 459.053 106.718 459.511 105.865 459.636ZM107.602 445.27C105.737 450.462 104.088 456.671 105.135 458.004C105.192 458.078 105.287 458.195 105.647 458.142C106.088 458.078 106.452 457.834 106.767 457.398C108.345 455.211 108.071 449.304 107.602 445.27Z" fill="#161616"/>
<path d="M190.652 440.712C190.652 440.712 217.539 446.562 239.774 442.216C262.009 437.871 274.805 412.869 274.805 412.869L307.562 440.168C307.562 440.168 296.372 482.241 261.953 495.924C227.532 509.609 195.859 491.025 195.859 491.025L190.652 440.712Z" fill="white"/>
<path d="M251.817 452.607C250.978 452.729 250.174 452.577 249.414 452.147C245.734 450.068 244.613 441.854 244.565 441.503C244.531 441.218 244.656 440.934 244.894 440.775C245.134 440.62 245.448 440.613 245.694 440.751C247.269 441.671 255.118 446.433 254.911 449.943C254.871 450.636 254.509 451.605 253.015 452.255C252.609 452.435 252.209 452.55 251.817 452.607ZM246.344 442.921C246.897 445.598 248.131 449.686 250.157 450.835C250.843 451.223 251.581 451.232 252.41 450.871C253.368 450.455 253.391 450.002 253.401 449.855C253.502 448.195 249.696 445.08 246.344 442.921Z" fill="#161616"/>
<path d="M225.172 501.028C224.809 501.081 224.447 500.858 224.34 500.488L216.819 474.638C216.701 474.242 216.933 473.818 217.334 473.703C217.744 473.604 218.158 473.817 218.27 474.221L225.79 500.071C225.908 500.468 225.676 500.891 225.275 501.006C225.241 501.015 225.207 501.023 225.172 501.028Z" fill="#161616"/>
<path d="M172.167 449.125C164.2 450.288 157.294 446.917 156.904 446.719C156.531 446.537 156.379 446.081 156.565 445.707C156.748 445.333 157.199 445.175 157.578 445.368C157.704 445.431 170.042 451.442 180.246 444.382C180.584 444.152 181.059 444.228 181.297 444.576C181.535 444.92 181.448 445.389 181.104 445.627C178.162 447.659 175.093 448.698 172.167 449.125Z" fill="#161616"/>
<path d="M153.569 452.676C153.382 452.704 153.184 452.658 153.022 452.54C152.682 452.299 152.606 451.826 152.846 451.486L155.309 448.033C155.553 447.693 156.023 447.617 156.363 447.858C156.702 448.099 156.779 448.573 156.538 448.912L154.076 452.365C153.949 452.543 153.763 452.648 153.569 452.676Z" fill="#161616"/>
<path d="M163.783 457.81C163.724 457.819 163.66 457.821 163.599 457.812C163.183 457.774 162.881 457.404 162.919 456.988L163.355 452.574C163.397 452.161 163.772 451.844 164.18 451.898C164.596 451.936 164.898 452.31 164.86 452.723L164.424 457.133C164.391 457.492 164.115 457.762 163.783 457.81Z" fill="#161616"/>
<path d="M177.868 455.756C177.58 455.798 177.282 455.671 177.12 455.408L174.976 451.976C174.755 451.622 174.86 451.158 175.214 450.936C175.564 450.712 176.032 450.817 176.254 451.174L178.397 454.606C178.619 454.959 178.513 455.424 178.159 455.646C178.069 455.705 177.968 455.741 177.868 455.756Z" fill="#161616"/>
<path d="M185.856 450.245C185.724 450.264 185.583 450.246 185.452 450.194L181.445 448.499C181.06 448.336 180.883 447.895 181.043 447.51C181.205 447.122 181.652 446.954 182.032 447.108L186.037 448.799C186.422 448.962 186.6 449.403 186.44 449.788C186.339 450.043 186.109 450.208 185.856 450.245Z" fill="#161616"/>
<path d="M47.2971 455.446C47.0511 455.482 46.7942 455.395 46.6198 455.194C46.3469 454.876 46.3771 454.405 46.6903 454.125L80.2707 424.802C80.5854 424.533 81.0611 424.567 81.3359 424.873C81.6088 425.191 81.5785 425.663 81.2653 425.942L47.6849 455.265C47.5688 455.367 47.4358 455.425 47.2971 455.446Z" fill="#161616"/>
<path d="M75.6661 430.675C75.4547 430.705 75.2302 430.646 75.0593 430.494L67.5428 423.907C67.2304 423.634 67.1992 423.153 67.4722 422.841C67.7497 422.535 68.2256 422.497 68.5379 422.77L76.0545 429.358C76.3669 429.631 76.398 430.111 76.1251 430.423C76.0007 430.566 75.8394 430.649 75.6661 430.675Z" fill="#161616"/>
<path d="M66.3634 438.798C66.1277 438.833 65.8753 438.753 65.6989 438.562L58.8416 431.132C58.5593 430.823 58.5787 430.349 58.8839 430.064C59.1932 429.782 59.6662 429.797 59.952 430.106L66.8098 437.54C67.0921 437.849 67.0727 438.323 66.7675 438.608C66.6484 438.714 66.5089 438.777 66.3634 438.798Z" fill="#161616"/>
<path d="M56.5032 447.413C56.2329 447.452 55.9517 447.345 55.7826 447.107L49.7202 438.697C49.4765 438.361 49.5524 437.886 49.8919 437.642C50.2241 437.395 50.6988 437.471 50.947 437.814L57.0093 446.224C57.253 446.56 57.1772 447.035 56.8376 447.279C56.7348 447.351 56.621 447.396 56.5032 447.413Z" fill="#161616"/>
<path d="M302.788 453.927C302.57 453.959 302.341 453.897 302.166 453.735L268.385 422.476C268.078 422.191 268.061 421.712 268.346 421.405C268.623 421.099 269.104 421.075 269.412 421.363L303.193 452.622C303.5 452.907 303.516 453.382 303.232 453.693C303.109 453.824 302.955 453.903 302.788 453.927Z" fill="#161616"/>
<path d="M276.317 429.434C276.154 429.457 275.983 429.426 275.832 429.341C275.469 429.133 275.345 428.669 275.554 428.31L281.245 418.404C281.453 418.034 281.911 417.921 282.276 418.122C282.639 418.331 282.764 418.794 282.554 419.154L276.864 429.06C276.743 429.272 276.539 429.401 276.317 429.434Z" fill="#161616"/>
<path d="M284.477 436.455C284.328 436.477 284.172 436.454 284.027 436.383C283.653 436.196 283.502 435.741 283.692 435.366L288.958 424.882C289.147 424.507 289.6 424.363 289.971 424.546C290.345 424.732 290.493 425.189 290.306 425.563L285.04 436.047C284.928 436.272 284.713 436.421 284.477 436.455Z" fill="#161616"/>
<path d="M294.171 445.956C294.043 445.974 293.909 445.958 293.782 445.91C293.395 445.757 293.207 445.318 293.359 444.927L298.236 432.698C298.392 432.314 298.828 432.123 299.215 432.279C299.603 432.435 299.79 432.871 299.638 433.261L294.761 445.491C294.661 445.746 294.431 445.918 294.171 445.956Z" fill="#161616"/>
<path d="M185.61 542.185C164.472 545.27 146.51 545.618 146.189 545.626C145.772 545.631 145.43 545.302 145.422 544.885C145.418 544.465 145.742 544.138 146.167 544.118C146.736 544.109 203.744 542.994 234.022 527.132C234.378 526.928 234.846 527.079 235.042 527.451C235.233 527.819 235.091 528.275 234.723 528.467C221.182 535.561 202.394 539.736 185.61 542.185Z" fill="#161616"/>
<path d="M156.268 555.27C155.911 555.322 155.558 555.108 155.442 554.754L152.254 544.841C152.125 544.442 152.343 544.017 152.742 543.888C153.116 543.759 153.562 543.981 153.691 544.376L156.879 554.289C157.008 554.688 156.79 555.113 156.391 555.242C156.347 555.255 156.309 555.264 156.268 555.27Z" fill="#161616"/>
<path d="M169.87 554.225C169.509 554.278 169.152 554.061 169.039 553.695L166.199 544.397C166.077 544.001 166.302 543.575 166.702 543.457C167.109 543.333 167.523 543.553 167.646 543.959L170.486 553.258C170.608 553.654 170.383 554.08 169.983 554.198C169.946 554.214 169.908 554.22 169.87 554.225Z" fill="#161616"/>
<path d="M182.378 552.401C181.976 552.459 181.596 552.186 181.527 551.782L179.872 542.31C179.802 541.9 180.074 541.509 180.484 541.435C180.907 541.374 181.287 541.647 181.356 542.051L183.011 551.523C183.082 551.934 182.809 552.324 182.399 552.398C182.392 552.399 182.385 552.4 182.378 552.401Z" fill="#161616"/>
<path d="M196.051 550.409C195.684 550.463 195.322 550.236 195.218 549.865L192.558 540.541C192.443 540.14 192.676 539.72 193.081 539.608C193.454 539.522 193.898 539.726 194.013 540.13L196.673 549.455C196.788 549.856 196.556 550.275 196.151 550.387C196.121 550.399 196.086 550.404 196.051 550.409Z" fill="#161616"/>
<path d="M208.766 547.605C208.354 547.665 207.969 547.378 207.908 546.965L206.655 538.377C206.595 537.965 206.882 537.58 207.294 537.519C207.707 537.459 208.092 537.746 208.152 538.159L209.406 546.747C209.466 547.159 209.179 547.545 208.766 547.605Z" fill="#161616"/>
<path d="M220.187 544.924C219.806 544.98 219.449 544.717 219.393 544.336L217.943 534.399C217.888 534.018 218.151 533.665 218.536 533.608C218.917 533.553 219.274 533.816 219.33 534.197L220.78 544.133C220.832 544.515 220.568 544.869 220.187 544.924Z" fill="#161616"/>
<path d="M231.326 541.185C230.924 541.244 230.544 540.97 230.474 540.566L228.684 530.283C228.61 529.872 228.885 529.482 229.296 529.408C229.658 529.27 230.097 529.613 230.168 530.024L231.959 540.307C232.033 540.717 231.757 541.108 231.346 541.182C231.34 541.183 231.333 541.184 231.326 541.185Z" fill="#161616"/>
<path d="M246.298 355.717L255.195 416.957C255.539 419.313 257.976 420.907 260.645 420.518L358.872 406.231C361.541 405.842 363.425 403.62 363.081 401.264L354.184 340.024C353.84 337.668 351.402 336.074 348.734 336.463L250.507 350.75C247.842 351.139 245.958 353.364 246.298 355.717Z" fill="#FFBE1D"/>
<path d="M283.273 350.24L292.184 411.574C292.528 413.933 294.491 415.6 296.581 415.295L373.399 404.123C375.481 403.819 376.898 401.663 376.553 399.303L367.642 337.969C367.298 335.61 365.328 333.944 363.245 334.248L286.427 345.42C284.338 345.725 282.928 347.881 283.273 350.24Z" fill="#D7A21D"/>
<path d="M334.762 338.568L320.483 340.651L330.652 410.341L344.931 408.258L334.762 338.568Z" fill="#B58610"/>
<path d="M268.712 348.167L258.759 349.62L268.928 419.31L278.882 417.857L268.712 348.167Z" fill="#B58610"/>
<path d="M367.826 390.527C368.325 390.455 368.671 389.99 368.599 389.494L362.966 350.747C362.893 350.248 362.428 349.902 361.933 349.974C361.434 350.047 361.087 350.512 361.16 351.007L366.793 389.754C366.865 390.253 367.33 390.6 367.826 390.527Z" fill="white"/>
<path d="M250.315 268.438C250.027 268.53 243.138 270.732 235.123 272.156C223.572 274.208 215.948 273.593 211.814 270.287C210.085 268.902 208.107 266.332 208.503 261.949C209.033 256.095 212.077 253.306 214.538 251.991C222.32 247.847 235.577 252.474 243.561 256.029C241.014 246.849 238.013 231.92 243.221 225.783C244.64 224.109 247.286 222.278 251.83 223.052C255.647 223.701 258.515 225.727 260.124 228.921C265.255 239.095 255.809 258.606 254.465 261.283L252.192 266.721C252.033 267.098 251.803 267.434 251.519 267.714C251.182 268.041 250.772 268.293 250.315 268.438ZM214.564 262.495C214.403 264.302 215.004 265.047 215.615 265.536C219.887 268.958 234.561 266.646 245.31 263.595C236.813 259.262 223.106 254.321 217.395 257.364C217.039 257.552 216.644 257.804 216.26 258.183C215.489 258.943 214.769 260.213 214.564 262.495ZM247.864 229.72C244.809 233.316 247.034 246.281 250.024 256.469C253.54 248.789 257.313 236.856 254.688 231.659C254.227 230.742 253.322 229.479 250.811 229.053C249.079 228.758 248.37 229.206 248.026 229.54C247.961 229.604 247.906 229.668 247.864 229.72Z" fill="#FFBE1D"/>
<path d="M188.079 325.453L200.501 338.069C201.735 339.321 203.749 339.338 204.998 338.106L286.129 258.217C287.382 256.982 287.399 254.969 286.164 253.717L273.743 241.1C272.511 239.851 270.5 239.836 269.245 241.068L188.114 320.958C186.864 322.189 186.847 324.203 188.079 325.453Z" fill="#E1AE2D"/>
<path d="M213.683 300.241L226.104 312.858C227.339 314.11 229.165 314.311 230.18 313.31L296.245 248.257C297.266 247.251 297.093 245.425 295.859 244.168L283.437 231.551C282.208 230.304 280.381 230.103 279.361 231.108L213.296 296.162C212.281 297.163 212.453 298.994 213.683 300.241Z" fill="#FFCE55"/>
<path d="M253.699 255.801L243.423 265.931L260.602 283.359L270.879 273.229L253.699 255.801Z" fill="#B58610"/>
<path d="M206.426 302.918L199.262 309.98L216.156 327.119L223.32 320.057L206.426 302.918Z" fill="#B58610"/>
<path d="M320.214 337.13C323.14 334.635 326.065 332.141 328.991 329.646C334.121 325.272 339.326 320.813 342.991 315.155C344.664 312.573 346.006 309.265 344.658 306.499C343.611 304.349 340.929 303.147 338.627 303.797C336.325 304.447 334.667 306.874 334.898 309.254" stroke="#94B9DE" stroke-width="1.5" stroke-miterlimit="10"/>
<path d="M349.775 317.63L346.027 332.904L358.968 319.969L349.775 317.63Z" fill="#CC8911"/>
<path d="M303.677 255.707L326.159 220.915L327.943 224.061L303.677 255.707Z" fill="#DEB843"/>
<path d="M293.502 320.815C292.576 320.407 271.904 285.515 271.904 285.515L268.568 288.043L293.502 320.815Z" fill="#DEB843"/>
<path d="M305.781 236.518L308.972 226.138L305.039 225.626L305.781 236.518Z" fill="#94B9DE"/>
<path d="M371.897 295.906L394.368 269.243L398.649 273.504L371.897 295.906Z" fill="#94B9DE"/>
<path d="M373.292 310.873C374.747 310.774 405.543 299.32 405.543 299.32L405.972 305.618L373.292 310.873Z" fill="#C1664A"/>
<path d="M317.25 272.377C317.648 265.433 321.339 258.75 327.003 254.714C328.792 253.439 330.911 252.388 333.096 252.612C335.281 252.837 337.389 254.776 337.102 256.954C336.808 259.181 334.019 260.503 331.925 259.691C329.83 258.878 328.64 256.477 328.773 254.234C328.905 251.992 330.141 249.937 331.703 248.323C336.18 243.697 343.691 242.342 349.502 245.112" stroke="#DEB843" stroke-width="1.5" stroke-miterlimit="10"/>
<path d="M376.573 277.751C381.333 271.827 386.929 266.576 393.144 262.203C395.257 260.717 397.487 259.31 399.987 258.66C402.487 258.01 405.32 258.212 407.405 259.736C409.49 261.261 410.54 264.281 409.363 266.58C408.521 268.226 406.578 269.265 404.756 268.95C402.935 268.635 401.427 266.923 401.444 265.075C401.46 263.227 403.083 261.508 404.931 261.481" stroke="#94B9DE" stroke-width="1.5" stroke-miterlimit="10"/>
<path d="M285.638 327.806C283.308 319.915 276.972 313.32 269.179 310.677C267.275 310.031 265.242 309.607 263.253 309.907C261.264 310.207 259.321 311.33 258.429 313.133C257.608 314.792 257.808 316.902 258.908 318.391C260.007 319.879 261.954 320.687 263.788 320.437C265.452 320.209 267.044 319.025 267.407 317.384C267.769 315.744 266.569 313.829 264.892 313.734C263.214 313.639 261.8 315.813 262.775 317.181" stroke="#94B9DE" stroke-miterlimit="10"/>
<path d="M243.782 339.199C238.588 337.609 232.947 339.209 228.033 341.524C226.262 342.359 224.513 343.301 223.069 344.623C221.624 345.946 220.495 347.691 220.227 349.631C219.959 351.571 220.667 353.697 222.256 354.841C223.846 355.985 226.304 355.887 227.595 354.414C228.886 352.941 228.479 350.242 226.694 349.437" stroke="#94B9DE" stroke-width="1.5" stroke-miterlimit="10"/>
<path d="M371.059 320.769C379.663 319.865 388.615 323.505 394.146 330.156C395.836 332.189 397.256 334.586 397.457 337.222C397.659 339.858 396.368 342.734 393.927 343.749C391.486 344.764 388.139 343.163 387.935 340.527C387.742 338.024 390.316 335.988 392.825 335.879C395.333 335.771 397.68 337.049 399.778 338.428C406.714 342.986 412.616 349.107 416.919 356.204" stroke="#94B9DE" stroke-width="1.5" stroke-miterlimit="10"/>
<path d="M331.522 231.526L332.398 233.705L334.741 233.546L332.94 235.052L333.815 237.232L331.826 235.983L330.024 237.49L330.596 235.212L328.607 233.963L330.95 233.804L331.522 231.526Z" fill="#94B9DE"/>
<path d="M355.8 283.891L356.676 286.07L359.019 285.911L357.217 287.417L358.093 289.597L356.104 288.349L354.302 289.855L354.874 287.577L352.884 286.329L355.228 286.169L355.8 283.891Z" fill="#94B9DE"/>
<path d="M377.866 329.367L378.741 331.547L381.085 331.387L379.282 332.894L380.159 335.073L378.169 333.825L376.367 335.331L376.94 333.053L374.95 331.805L377.293 331.646L377.866 329.367Z" fill="#EEC430"/>
<path d="M234.597 316.723L236.066 318.556L238.263 317.725L236.974 319.689L238.443 321.522L236.177 320.902L234.888 322.866L234.777 320.519L232.511 319.899L234.708 319.069L234.597 316.723Z" fill="#94B9DE"/>
<path d="M262.213 294.275L263.089 296.454L265.432 296.295L263.63 297.801L264.507 299.981L262.517 298.733L260.715 300.239L261.287 297.961L259.298 296.713L261.641 296.553L262.213 294.275Z" fill="#EEC430"/>
<path d="M402.817 281.079L403.693 283.258L406.036 283.099L404.235 284.605L405.111 286.784L403.121 285.536L401.319 287.043L401.891 284.764L399.902 283.517L402.245 283.357L402.817 281.079Z" fill="#EEC430"/>
<path d="M311.11 332.352L311.987 334.531L314.33 334.372L312.528 335.878L313.404 338.057L311.414 336.809L309.612 338.316L310.185 336.038L308.195 334.79L310.539 334.63L311.11 332.352Z" fill="#EEC430"/>
<path d="M344.051 208.89L346.04 213.837L351.359 213.474L347.269 216.894L349.257 221.841L344.741 219.008L340.65 222.428L341.949 217.257L337.433 214.423L342.752 214.061L344.051 208.89Z" fill="#C1664A"/>
<path d="M309.045 278.413L310.466 281.948L314.266 281.689L311.344 284.132L312.765 287.667L309.537 285.643L306.615 288.086L307.543 284.391L304.316 282.367L308.117 282.108L309.045 278.413Z" fill="#C1664A"/>
<path d="M367.366 251.709L368.595 254.766L371.883 254.542L369.355 256.656L370.584 259.713L367.792 257.962L365.264 260.076L366.067 256.88L363.276 255.129L366.563 254.905L367.366 251.709Z" fill="#9873FF"/>
<path d="M285.954 280.853L287.183 283.91L290.471 283.686L287.943 285.8L289.172 288.857L286.38 287.106L283.852 289.22L284.655 286.024L281.864 284.272L285.151 284.049L285.954 280.853Z" fill="#9873FF"/>
<path d="M244.725 346.344L244.307 346.909L228.718 367.954C228.718 367.954 234.323 368.561 234.519 367.979" fill="#EEC430"/>
<path d="M214.723 341.214L202.669 346.219L205.639 349.246L214.723 341.214Z" fill="#9873FF"/>
<path d="M320.745 310.602L325.171 272.095L330.542 274.601L320.745 310.602Z" fill="#9873FF"/>
<path d="M360.51 301.185L366.197 288.903L368.716 290.543L360.51 301.185Z" fill="#9873FF"/>
<path d="M404.061 316.183L425.776 325.938L424.223 331.007L404.061 316.183Z" fill="#9873FF"/>
<path d="M253.736 322.727C253.286 322.273 243.226 318.347 243.226 318.347L243.562 322.395L253.736 322.727Z" fill="#C1664A"/>
<path d="M218.032 365.118L206.637 375.25L211.386 376.291L218.032 365.118Z" fill="#C1664A"/>
<path d="M301.714 340.542C299.864 338.359 298.02 336.105 296.924 333.462C295.829 330.818 295.57 327.687 296.888 325.148C298.208 322.608 301.364 320.955 304.061 321.914C305.523 322.434 306.751 323.773 306.822 325.323C306.894 326.874 305.548 328.438 304 328.325C302.978 328.249 302.094 327.51 301.595 326.616C301.096 325.721 300.922 324.683 300.808 323.665C300.222 318.432 301.031 313.048 303.13 308.218" stroke="#C1664A" stroke-width="1.5" stroke-miterlimit="10"/>
<path d="M276.057 344.108C275.274 342.02 274.491 339.932 273.709 337.845C273.168 336.401 272.612 334.932 271.653 333.725C270.693 332.518 269.247 331.595 267.707 331.655C266.167 331.715 264.656 333.004 264.705 334.545C264.729 335.291 265.141 336.042 265.818 336.355C266.496 336.667 267.412 336.437 267.768 335.782C268.163 335.056 267.771 334.104 267.114 333.601C266.458 333.099 265.61 332.936 264.797 332.787C260.127 331.933 255.458 331.08 250.788 330.226" stroke="#DEB843" stroke-width="1.5" stroke-miterlimit="10"/>
<rect x="27.8605" y="569.104" width="372.932" height="16.4413" fill="#373737"/>
</g>
</g>
</g>
<defs>
<filter id="filter0_d_2207_8355" x="1.20264" y="208.89" width="428.573" height="369.421" filterUnits="userSpaceOnUse" color-interpolation-filters="sRGB">
<feFlood flood-opacity="0" result="BackgroundImageFix"/>
<feColorMatrix in="SourceAlpha" type="matrix" values="0 0 0 0 0 0 0 0 0 0 0 0 0 0 0 0 0 0 127 0" result="hardAlpha"/>
<feOffset dy="4"/>
<feGaussianBlur stdDeviation="2"/>
<feComposite in2="hardAlpha" operator="out"/>
<feColorMatrix type="matrix" values="0 0 0 0 0 0 0 0 0 0 0 0 0 0 0 0 0 0 0.25 0"/>
<feBlend mode="normal" in2="BackgroundImageFix" result="effect1_dropShadow_2207_8355"/>
<feBlend mode="normal" in="SourceGraphic" in2="effect1_dropShadow_2207_8355" result="shape"/>
</filter>
<clipPath id="clip0_2207_8355">
<rect width="428" height="926" fill="white" transform="translate(0 0.427246)"/>
</clipPath>
</defs>
</svg>
