<svg width="791" height="1027" viewBox="0 0 791 1027" fill="none" xmlns="http://www.w3.org/2000/svg">
<mask id="mask0_2207_6049" style="mask-type:alpha" maskUnits="userSpaceOnUse" x="0" y="0" width="791" height="1027">
<rect x="0.75708" y="0.427246" width="789.738" height="1026.03" fill="#030303"/>
</mask>
<g mask="url(#mask0_2207_6049)">
<rect x="613.149" y="147.231" width="122.972" height="163.365" rx="61.4862" transform="rotate(17.6719 613.149 147.231)" fill="#121212" stroke="#030303" stroke-width="7.7165"/>
<rect x="745.773" y="37.1743" width="122.972" height="166.009" rx="61.4862" transform="rotate(114.683 745.773 37.1743)" fill="#121212" stroke="#030303" stroke-width="7.7165"/>
<rect x="825.476" y="123.625" width="136.191" height="136.192" rx="68.0955" transform="rotate(114.683 825.476 123.625)" fill="#121212" stroke="#030303" stroke-width="7.7165"/>
<rect x="897.814" y="204.239" width="122.413" height="122.414" rx="14.2677" transform="rotate(118.746 897.814 204.239)" fill="#121212" stroke="#030303" stroke-width="7.7165"/>
<path d="M651.971 224.941C660.085 227.115 666.906 227.973 667.205 226.858C667.504 225.743 661.168 223.076 653.053 220.901C644.938 218.727 638.117 217.869 637.818 218.984C637.519 220.099 643.856 222.766 651.971 224.941Z" stroke="#464646" stroke-width="2.31495" stroke-miterlimit="10" stroke-linecap="round" stroke-linejoin="round"/>
<path d="M659.931 244.225C646.907 235.964 629.216 233.497 626.237 237.307" stroke="#464646" stroke-width="2.31495" stroke-miterlimit="10" stroke-linecap="round" stroke-linejoin="round"/>
<path d="M667.205 226.858C667.205 226.858 678.005 277.245 640.825 266.539C603.272 257.22 637.819 218.984 637.819 218.984" stroke="#464646" stroke-width="2.31495" stroke-miterlimit="10" stroke-linecap="round" stroke-linejoin="round"/>
<path d="M625.881 237.63C625.445 245.181 668.209 247.646 668.644 240.094" stroke="#464646" stroke-width="2.31495" stroke-miterlimit="10" stroke-linecap="round" stroke-linejoin="round"/>
<path d="M735.167 137.901C745.732 137.901 754.297 136.281 754.297 134.284C754.297 132.286 745.732 130.667 735.167 130.667C724.602 130.667 716.037 132.286 716.037 134.284C716.037 136.281 724.602 137.901 735.167 137.901Z" stroke="#464646" stroke-width="2.31495" stroke-miterlimit="10" stroke-linecap="round" stroke-linejoin="round"/>
<path d="M754.297 134.284C754.493 135.376 754.595 136.501 754.595 137.649C754.595 148.235 745.897 156.817 735.167 156.817C724.437 156.817 715.738 148.235 715.738 137.649C715.738 136.501 715.84 135.376 716.037 134.284" stroke="#464646" stroke-width="2.31495" stroke-miterlimit="10" stroke-linecap="round" stroke-linejoin="round"/>
<path d="M735.167 156.887V180.601" stroke="#464646" stroke-width="2.31495" stroke-miterlimit="10" stroke-linecap="round" stroke-linejoin="round"/>
<path d="M735.167 183.457C742.352 183.457 748.177 182.178 748.177 180.601C748.177 179.024 742.352 177.745 735.167 177.745C727.981 177.745 722.157 179.024 722.157 180.601C722.157 182.178 727.981 183.457 735.167 183.457Z" stroke="#464646" stroke-width="2.31495" stroke-miterlimit="10" stroke-linecap="round" stroke-linejoin="round"/>
<path d="M754.169 141.639C754.169 141.639 750.968 141.049 739.228 144.891C722.507 150.365 716.037 141.049 716.037 141.049C716.037 141.049 725.606 137.672 742.111 143.983" stroke="#464646" stroke-width="2.31495" stroke-miterlimit="10" stroke-linecap="round" stroke-linejoin="round"/>
<path d="M633.896 26.2386C633.896 26.2386 641.926 30.2985 641.818 38.6517C641.795 40.481 642.466 42.2557 643.712 43.5948C646.014 46.0679 648.682 50.9475 644.462 58.2562C640.242 65.565 634.683 65.6947 631.39 64.9379C629.607 64.528 627.734 64.834 626.162 65.7692C618.982 70.0395 611.451 65.1151 611.451 65.1151" stroke="#464646" stroke-width="2.31495" stroke-miterlimit="10" stroke-linecap="round" stroke-linejoin="round"/>
<path d="M625.7 47.424C631.899 36.6868 635.582 27.2074 633.926 26.2513C632.27 25.2951 625.902 33.2242 619.703 43.9614C613.504 54.6986 609.821 64.178 611.477 65.1341C613.133 66.0903 619.501 58.1612 625.7 47.424Z" stroke="#464646" stroke-width="2.31495" stroke-miterlimit="10" stroke-linecap="round" stroke-linejoin="round"/>
<path d="M644.461 58.2561L667.052 71.2988" stroke="#464646" stroke-width="2.31495" stroke-miterlimit="10" stroke-linecap="round" stroke-linejoin="round"/>
<path d="M669.651 72.7991C673.425 66.2615 675.322 60.29 673.887 59.4615C672.452 58.633 668.228 63.2611 664.454 69.7988C660.679 76.3364 658.783 82.3079 660.218 83.1364C661.653 83.9649 665.876 79.3367 669.651 72.7991Z" stroke="#464646" stroke-width="2.31495" stroke-miterlimit="10" stroke-linecap="round" stroke-linejoin="round"/>
<path d="M640.124 32.2729C628.585 44.11 632.538 59.3816 619.78 67.5102C617.975 65.3103 623.904 52.5054 632.988 43.7322" stroke="#464646" stroke-width="2.31495" stroke-miterlimit="10" stroke-linecap="round" stroke-linejoin="round"/>
</g>
<mask id="mask1_2207_6049" style="mask-type:alpha" maskUnits="userSpaceOnUse" x="0" y="0" width="791" height="658">
<rect x="0.197266" y="0.427246" width="790.065" height="656.574" fill="#FFCC4C"/>
</mask>
<g mask="url(#mask1_2207_6049)">
<mask id="mask2_2207_6049" style="mask-type:alpha" maskUnits="userSpaceOnUse" x="-3" y="-10" width="788" height="668">
<rect x="-2.54492" y="-9.0061" width="786.924" height="666.08" fill="#FFCC4C"/>
</mask>
<g mask="url(#mask2_2207_6049)">
<path d="M505.025 918.03L416.749 963.02C406.636 950.567 385.528 918.568 369.738 893.884C364.165 885.172 359.29 877.383 355.74 871.653C351.585 864.937 338.377 748.107 330.395 674.454C326.659 640.074 324.097 615.15 324.097 615.15L324.009 614.548L352.467 602.509C352.467 602.509 359.352 616.356 370.196 638.381C405.187 709.015 481.479 864.059 505.025 918.03Z" fill="#171717"/>
<path d="M370.198 638.383L332.476 672.565L330.396 674.456L327.366 677.203L304.772 617.819L324.098 615.152L324.011 614.55L352.468 602.512C352.468 602.512 359.353 616.358 370.198 638.383Z" fill="#171717"/>
<path d="M267.649 405.187C267.649 405.187 273.579 377.882 261.297 376.397C249.015 374.911 240.041 391.743 240.041 391.743C240.041 391.743 216.663 401.776 211.676 418.348C206.69 434.92 236.452 451.511 236.452 451.511L267.649 405.187Z" fill="#202020"/>
<path d="M369.738 893.884C369.819 894.436 369.907 895.037 369.937 895.596C372.143 916.68 373.541 952.579 374.465 966.988L281.702 980.524C272.124 917.346 240.831 732.025 239.12 701.344C236.993 663.605 238.366 627.045 238.366 627.045L304.771 617.816L324.097 615.15L332.475 672.563L349.421 774.303C349.421 774.303 363.566 833.691 369.738 893.884Z" fill="#1C1C1C"/>
<path d="M252.453 667.402C250.869 667.633 249.198 667.693 247.444 667.539C246.843 667.488 246.396 666.954 246.447 666.353C246.499 665.761 247.034 665.32 247.628 665.361C266.476 666.989 274.663 641.675 274.743 641.417C274.925 640.843 275.546 640.532 276.113 640.7C276.688 640.882 277.008 641.496 276.83 642.07C276.749 642.318 269.457 664.921 252.453 667.402Z" fill="white"/>
<path d="M369.433 894.647C368.847 894.733 368.297 894.332 368.2 893.741L331.308 672.156C331.245 671.792 331.379 671.413 331.66 671.163L354.91 650.425C355.358 650.022 356.05 650.059 356.454 650.512C356.858 650.965 356.815 651.653 356.362 652.057L333.56 672.391L370.351 893.387C370.447 893.977 370.048 894.542 369.453 894.644L369.433 894.647Z" fill="white"/>
<path d="M284.094 469.211C284.094 469.211 309.072 466.631 321.592 483.578C334.113 500.524 362.436 610.431 362.436 610.431C362.436 610.431 331.662 624.283 291.427 629.657C251.192 635.032 233.659 634.554 233.659 634.554L218.622 560.946C218.622 560.946 209.148 487.46 218.432 480.999C227.717 474.544 266.9 467.684 284.094 469.211Z" fill="white"/>
<path d="M241.02 453.442L246.918 477.295C246.918 477.295 249.554 481.248 265.827 480.573C276.501 480.132 280.82 475.794 280.82 475.794L276.386 464.074L272.045 452.648L245.475 453.334L241.02 453.442Z" fill="#FEC29E"/>
<path d="M245.478 453.325C245.699 453.964 246.135 454.668 246.742 455.456C255.027 466.051 270.254 465.012 276.389 464.065L272.048 452.638L245.478 453.325Z" fill="#292929"/>
<path d="M263.635 399.045C263.635 399.045 282.748 425.974 282.09 443.783C281.437 461.592 266.366 462.363 256.973 461.163C247.58 459.962 242.291 455.306 242.291 455.306C242.291 455.306 234.859 460.103 227.65 453.443C220.44 446.783 221.709 436.878 225.855 433.702C230 430.526 236.291 432.753 236.291 432.753L230.022 425.095C230.022 425.095 238.153 376.764 263.635 399.045Z" fill="#FEC29E"/>
<path d="M238.496 445.976C238.301 446.005 238.102 445.977 237.911 445.898L225.851 440.739C225.299 440.502 225.037 439.864 225.274 439.308C225.515 438.75 226.153 438.493 226.706 438.735L238.766 443.894C239.322 444.125 239.58 444.768 239.343 445.325C239.186 445.686 238.862 445.923 238.496 445.976Z" fill="#292929"/>
<path d="M229.178 448.194C228.746 448.257 228.296 448.051 228.068 447.644C227.771 447.119 227.961 446.456 228.486 446.159L234.753 442.638C235.278 442.342 235.946 442.531 236.238 443.057C236.534 443.582 236.344 444.245 235.819 444.541L229.553 448.062C229.435 448.131 229.308 448.175 229.178 448.194Z" fill="#292929"/>
<path d="M247.668 416.558C247.477 416.586 247.279 416.564 247.094 416.488C246.533 416.258 246.271 415.62 246.496 415.06C248.587 409.982 252.989 409.719 255.023 410.287C255.605 410.453 255.944 411.054 255.783 411.636C255.626 412.212 255.027 412.56 254.439 412.39C254.024 412.287 250.352 411.44 248.519 415.896C248.367 416.262 248.034 416.505 247.668 416.558Z" fill="#292929"/>
<path d="M269.329 409.886C269.113 409.918 268.883 409.885 268.672 409.777C265.933 408.374 263.87 410.381 263.786 410.47C263.362 410.9 262.677 410.908 262.246 410.479C261.815 410.056 261.802 409.371 262.226 408.941C263.33 407.807 266.309 406.107 269.673 407.828C270.21 408.103 270.424 408.759 270.149 409.3C269.977 409.628 269.669 409.836 269.329 409.886Z" fill="#292929"/>
<path d="M271.881 434.187C271.075 434.176 270.606 433.666 270.631 433.063C270.959 424.222 264.237 422.581 263.95 422.511C263.362 422.376 262.995 421.795 263.13 421.207C263.264 420.619 263.845 420.247 264.428 420.382C264.517 420.4 273.218 422.438 272.814 433.144C272.79 433.68 272.387 434.113 271.881 434.187Z" fill="#292929"/>
<path d="M272.004 421.379C271.563 421.443 271.107 421.228 270.882 420.81L268.138 415.695C267.851 415.164 268.052 414.505 268.583 414.217C269.1 413.937 269.775 414.135 270.062 414.667L272.806 419.782C273.093 420.313 272.893 420.973 272.361 421.26C272.247 421.323 272.125 421.361 272.004 421.379Z" fill="#292929"/>
<path d="M257.761 425.295C257.32 425.359 256.863 425.144 256.638 424.726L253.9 419.61C253.612 419.079 253.818 418.419 254.345 418.132C254.862 417.852 255.536 418.05 255.824 418.582L258.562 423.698C258.85 424.229 258.644 424.889 258.117 425.176C258.004 425.239 257.886 425.276 257.761 425.295Z" fill="#292929"/>
<path d="M267.65 405.187C267.65 405.187 264.034 401.009 258.383 402.397C252.732 403.785 250.454 408.808 250.454 408.808C250.454 408.808 255.354 418.207 248.973 425.473C242.593 432.738 236.296 432.751 236.296 432.751L230.225 432.065L224.068 424.513L235.735 402.132L253.762 385.255L266.843 392.743L267.65 405.187Z" fill="#202020"/>
<path d="M266.446 444.781C264.12 445.121 260.638 444.702 258.169 441.508C257.802 441.029 257.892 440.345 258.366 439.979C258.844 439.602 259.529 439.702 259.9 440.175C262.76 443.875 267.01 442.43 267.185 442.369C267.741 442.175 268.376 442.461 268.577 443.031C268.778 443.596 268.49 444.222 267.925 444.422C267.522 444.573 267.018 444.698 266.446 444.781Z" fill="#292929"/>
<path d="M118.518 435.327C118.518 435.327 112.042 418.461 101.566 411.873C91.0901 405.284 79.3167 401.774 82.2788 408.562C85.241 415.351 93.3751 425.963 93.3751 425.963L75.8151 423.926C75.8151 423.926 64.0467 420.415 55.728 419.452C47.4092 418.49 45.7461 424.745 45.7461 424.745C45.7461 424.745 37.4274 423.782 34.2856 426.642C31.1439 429.503 34.3498 434.171 34.3498 434.171C34.3498 434.171 22.8893 436.069 28.5007 444.237C34.1121 452.406 59.006 463.885 70.7801 467.401C82.5485 470.912 107.876 470.622 107.876 470.622C107.876 470.622 130.89 472.241 118.518 435.327Z" fill="#FEC29E"/>
<path d="M57.2822 448.308C56.8961 448.364 56.4951 448.213 56.2461 447.875C55.8892 447.395 55.9889 446.709 56.4737 446.347L83.5024 426.343C83.9894 425.995 84.6726 426.08 85.0317 426.576C85.3886 427.056 85.2889 427.741 84.8041 428.104L57.7754 448.108C57.6266 448.211 57.4577 448.282 57.2822 448.308Z" fill="#1E1C1C"/>
<path d="M107.629 448.359C107.493 448.379 107.354 448.374 107.216 448.337C90.9529 444.417 93.3314 428.394 93.3596 428.237C93.4531 427.649 94.031 427.258 94.6095 427.327C95.2075 427.424 95.6112 427.98 95.5191 428.577C95.4241 429.154 93.4577 442.771 107.73 446.209C108.319 446.348 108.681 446.941 108.536 447.525C108.429 447.981 108.06 448.296 107.629 448.359Z" fill="#1E1C1C"/>
<path d="M427.362 429.604C427.362 429.604 433.188 412.504 443.41 405.523C453.627 398.542 465.258 394.582 462.557 401.48C459.856 408.377 452.133 419.291 452.133 419.291L469.606 416.587C469.606 416.587 481.231 412.627 489.51 411.348C497.783 410.069 499.684 416.254 499.684 416.254C499.684 416.254 507.957 414.975 511.209 417.711C514.456 420.449 511.432 425.238 511.432 425.238C511.432 425.238 522.957 426.695 517.66 435.073C512.364 443.45 487.926 455.871 476.295 459.831C464.669 463.791 439.353 464.469 439.353 464.469C439.353 464.469 416.411 466.967 427.362 429.604Z" fill="#FEC29E"/>
<path d="M489.323 440.22C489.063 440.258 488.788 440.201 488.549 440.036L460.777 421.08C460.282 420.742 460.152 420.06 460.488 419.56C460.826 419.065 461.508 418.93 462.009 419.277L489.781 438.233C490.276 438.57 490.406 439.253 490.069 439.753C489.893 440.019 489.614 440.178 489.323 440.22Z" fill="#1E1C1C"/>
<path d="M439.014 442.212C438.483 442.29 437.959 441.962 437.809 441.426C437.647 440.845 437.984 440.237 438.564 440.076C452.696 436.093 450.209 422.563 450.095 421.991C449.979 421.403 450.36 420.825 450.958 420.707C451.584 420.611 452.126 420.993 452.24 421.56C452.268 421.72 455.258 437.645 439.158 442.176C439.113 442.188 439.065 442.205 439.014 442.212Z" fill="#1E1C1C"/>
<path d="M79.12 477.065C79.12 477.065 114.824 535.217 153.181 551.333C185.047 564.725 231.693 557.872 231.693 557.872L245.321 472.667C245.321 472.667 188.181 479.269 170.788 469.916C153.388 460.558 124.562 438.801 124.562 438.801L79.12 477.065Z" fill="white"/>
<path d="M172.592 496.951C171.128 497.165 170.276 496.521 169.822 495.942C166.598 491.844 173.215 474.794 174.57 471.416C174.755 470.964 175.212 470.687 175.7 470.734C176.183 470.781 176.575 471.149 176.66 471.628C176.786 472.352 179.742 489.348 175.67 494.986C174.86 496.108 173.825 496.771 172.592 496.951ZM175.105 476.167C172.406 483.679 170.02 492.661 171.535 494.591C171.618 494.696 171.755 494.866 172.276 494.79C172.913 494.697 173.44 494.343 173.896 493.714C176.179 490.548 175.782 482.003 175.105 476.167Z" fill="#161616"/>
<path d="M295.26 469.573C295.26 469.573 334.16 478.035 366.329 471.748C398.499 465.462 417.013 429.289 417.013 429.289L464.405 468.785C464.405 468.785 448.214 529.655 398.418 549.453C348.617 569.251 302.794 542.364 302.794 542.364L295.26 469.573Z" fill="white"/>
<path d="M383.753 486.781C382.539 486.958 381.376 486.739 380.276 486.116C374.952 483.109 373.33 471.224 373.261 470.717C373.211 470.304 373.392 469.893 373.737 469.664C374.084 469.439 374.538 469.429 374.895 469.628C377.173 470.96 388.528 477.85 388.23 482.927C388.171 483.93 387.648 485.332 385.486 486.272C384.899 486.532 384.319 486.699 383.753 486.781ZM375.834 472.768C376.635 476.641 378.42 482.556 381.351 484.218C382.344 484.78 383.411 484.793 384.61 484.27C385.997 483.668 386.03 483.013 386.045 482.801C386.191 480.398 380.684 475.891 375.834 472.768Z" fill="#161616"/>
<path d="M345.204 556.837C344.677 556.914 344.154 556.591 343.999 556.055L333.119 518.657C332.948 518.082 333.283 517.47 333.863 517.303C334.457 517.16 335.055 517.468 335.217 518.053L346.098 555.452C346.269 556.026 345.933 556.638 345.353 556.805C345.303 556.817 345.254 556.83 345.204 556.837Z" fill="#161616"/>
<path d="M268.517 481.744C256.989 483.427 246.998 478.55 246.434 478.263C245.894 477.999 245.674 477.34 245.944 476.799C246.208 476.258 246.861 476.03 247.408 476.308C247.591 476.4 265.442 485.097 280.205 474.882C280.694 474.549 281.381 474.659 281.726 475.162C282.07 475.66 281.944 476.339 281.446 476.683C277.19 479.624 272.749 481.127 268.517 481.744Z" fill="#161616"/>
<path d="M241.608 486.882C241.338 486.921 241.051 486.856 240.817 486.685C240.325 486.337 240.215 485.651 240.563 485.16L244.126 480.164C244.479 479.672 245.159 479.563 245.651 479.911C246.142 480.259 246.252 480.945 245.904 481.436L242.342 486.432C242.159 486.689 241.889 486.841 241.608 486.882Z" fill="#161616"/>
<path d="M256.386 494.31C256.301 494.323 256.209 494.326 256.12 494.313C255.518 494.257 255.081 493.722 255.137 493.12L255.767 486.734C255.828 486.136 256.371 485.678 256.961 485.756C257.563 485.812 258 486.352 257.944 486.949L257.313 493.33C257.266 493.849 256.867 494.24 256.386 494.31Z" fill="#161616"/>
<path d="M276.764 491.337C276.347 491.398 275.916 491.215 275.681 490.834L272.581 485.869C272.26 485.357 272.413 484.685 272.924 484.364C273.43 484.039 274.108 484.192 274.429 484.708L277.53 489.674C277.85 490.185 277.697 490.858 277.186 491.178C277.055 491.264 276.909 491.316 276.764 491.337Z" fill="#161616"/>
<path d="M288.321 483.364C288.13 483.392 287.927 483.365 287.736 483.291L281.94 480.839C281.383 480.602 281.126 479.964 281.358 479.408C281.593 478.846 282.239 478.603 282.788 478.825L288.584 481.272C289.141 481.508 289.398 482.147 289.167 482.703C289.021 483.072 288.687 483.311 288.321 483.364Z" fill="#161616"/>
<path d="M87.8556 490.889C87.4996 490.941 87.128 490.816 86.8756 490.525C86.4808 490.065 86.5246 489.383 86.9777 488.979L135.561 446.554C136.017 446.165 136.705 446.213 137.103 446.657C137.497 447.117 137.454 447.799 137 448.203L88.4167 490.628C88.2487 490.775 88.0562 490.859 87.8556 490.889Z" fill="#161616"/>
<path d="M128.9 455.05C128.594 455.095 128.269 455.009 128.022 454.789L117.147 445.258C116.695 444.863 116.65 444.168 117.045 443.716C117.446 443.274 118.135 443.219 118.587 443.614L129.461 453.145C129.913 453.54 129.959 454.235 129.564 454.687C129.384 454.892 129.15 455.013 128.9 455.05Z" fill="#161616"/>
<path d="M115.441 466.803C115.1 466.853 114.734 466.737 114.479 466.462L104.558 455.712C104.15 455.264 104.178 454.579 104.619 454.166C105.067 453.758 105.751 453.781 106.165 454.228L116.087 464.983C116.495 465.431 116.467 466.116 116.025 466.529C115.853 466.682 115.651 466.773 115.441 466.803Z" fill="#161616"/>
<path d="M101.175 479.267C100.784 479.324 100.377 479.168 100.132 478.825L91.3615 466.657C91.0089 466.171 91.1186 465.484 91.6099 465.131C92.0904 464.774 92.7773 464.883 93.1364 465.379L101.907 477.547C102.26 478.033 102.15 478.72 101.659 479.073C101.51 479.177 101.345 479.242 101.175 479.267Z" fill="#161616"/>
<path d="M457.498 488.692C457.182 488.738 456.851 488.648 456.597 488.414L407.723 443.188C407.279 442.777 407.255 442.084 407.667 441.64C408.068 441.197 408.764 441.162 409.209 441.578L458.083 486.804C458.527 487.215 458.55 487.903 458.14 488.352C457.962 488.542 457.738 488.657 457.498 488.692Z" fill="#161616"/>
<path d="M419.199 453.255C418.963 453.289 418.716 453.243 418.498 453.121C417.973 452.819 417.793 452.149 418.096 451.628L426.329 437.297C426.63 436.761 427.292 436.598 427.821 436.89C428.347 437.192 428.526 437.862 428.223 438.383L419.991 452.714C419.815 453.021 419.52 453.208 419.199 453.255Z" fill="#161616"/>
<path d="M431.005 463.413C430.789 463.445 430.564 463.411 430.355 463.309C429.814 463.039 429.594 462.38 429.869 461.838L437.488 446.669C437.762 446.127 438.418 445.919 438.953 446.184C439.494 446.453 439.708 447.113 439.439 447.654L431.82 462.823C431.658 463.149 431.346 463.364 431.005 463.413Z" fill="#161616"/>
<path d="M445.03 477.158C444.845 477.186 444.652 477.162 444.467 477.092C443.908 476.871 443.636 476.235 443.855 475.671L450.911 457.977C451.137 457.422 451.768 457.146 452.328 457.371C452.889 457.597 453.16 458.228 452.94 458.792L445.884 476.486C445.739 476.855 445.406 477.104 445.03 477.158Z" fill="#161616"/>
<path d="M287.965 616.383C257.383 620.845 231.396 621.35 230.931 621.361C230.328 621.367 229.833 620.891 229.822 620.289C229.815 619.68 230.284 619.207 230.9 619.179C231.722 619.167 314.201 617.552 358.007 594.604C358.522 594.308 359.199 594.527 359.483 595.065C359.76 595.598 359.554 596.257 359.021 596.535C339.431 606.799 312.249 612.839 287.965 616.383Z" fill="#161616"/>
<path d="M245.514 635.314C244.997 635.389 244.486 635.08 244.319 634.566L239.706 620.225C239.52 619.648 239.835 619.033 240.412 618.847C240.953 618.66 241.599 618.981 241.785 619.553L246.397 633.894C246.584 634.471 246.269 635.086 245.692 635.272C245.628 635.292 245.574 635.305 245.514 635.314Z" fill="#161616"/>
<path d="M265.193 633.802C264.671 633.878 264.154 633.565 263.99 633.035L259.881 619.583C259.705 619.009 260.03 618.393 260.61 618.222C261.198 618.044 261.797 618.361 261.975 618.949L266.084 632.402C266.26 632.976 265.935 633.591 265.356 633.763C265.303 633.786 265.248 633.794 265.193 633.802Z" fill="#161616"/>
<path d="M283.29 631.162C282.708 631.247 282.159 630.851 282.058 630.267L279.664 616.564C279.562 615.969 279.956 615.405 280.55 615.298C281.161 615.208 281.711 615.604 281.811 616.189L284.205 629.892C284.307 630.486 283.913 631.051 283.32 631.158C283.31 631.159 283.3 631.161 283.29 631.162Z" fill="#161616"/>
<path d="M303.072 628.281C302.54 628.358 302.016 628.03 301.866 627.494L298.018 614.003C297.852 613.423 298.188 612.816 298.774 612.654C299.314 612.529 299.956 612.824 300.123 613.409L303.971 626.9C304.138 627.48 303.801 628.087 303.216 628.25C303.172 628.266 303.122 628.273 303.072 628.281Z" fill="#161616"/>
<path d="M321.468 624.224C320.871 624.311 320.313 623.895 320.226 623.299L318.413 610.873C318.326 610.277 318.742 609.719 319.338 609.632C319.935 609.545 320.492 609.96 320.579 610.557L322.393 622.982C322.48 623.579 322.064 624.137 321.468 624.224Z" fill="#161616"/>
<path d="M337.991 620.345C337.439 620.426 336.923 620.045 336.843 619.494L334.745 605.118C334.664 604.566 335.045 604.055 335.602 603.974C336.154 603.893 336.67 604.274 336.751 604.825L338.848 619.201C338.924 619.753 338.543 620.265 337.991 620.345Z" fill="#161616"/>
<path d="M354.106 614.935C353.525 615.02 352.975 614.624 352.875 614.04L350.284 599.162C350.177 598.568 350.576 598.003 351.169 597.896C351.693 597.697 352.329 598.193 352.431 598.787L355.022 613.665C355.129 614.259 354.73 614.824 354.136 614.931C354.126 614.932 354.116 614.934 354.106 614.935Z" fill="#161616"/>
<path d="M375.768 346.602L388.64 435.203C389.138 438.612 392.664 440.918 396.525 440.355L538.639 419.685C542.5 419.122 545.226 415.907 544.729 412.499L531.856 323.898C531.359 320.489 527.832 318.183 523.971 318.746L381.858 339.416C378.002 339.978 375.276 343.197 375.768 346.602Z" fill="#FFBE1D"/>
<path d="M429.263 338.678L442.155 427.415C442.653 430.829 445.494 433.24 448.517 432.799L559.656 416.636C562.669 416.196 564.718 413.076 564.22 409.662L551.328 320.925C550.83 317.511 547.979 315.102 544.966 315.542L433.827 331.705C430.803 332.146 428.764 335.265 429.263 338.678Z" fill="#D7A21D"/>
<path d="M503.757 321.791L483.098 324.806L497.811 425.632L518.47 422.618L503.757 321.791Z" fill="#B58610"/>
<path d="M408.197 335.679L393.796 337.781L408.509 438.607L422.91 436.506L408.197 335.679Z" fill="#B58610"/>
<path d="M551.593 396.966C552.315 396.86 552.816 396.188 552.712 395.471L544.562 339.412C544.457 338.69 543.784 338.189 543.067 338.294C542.345 338.399 541.844 339.072 541.949 339.789L550.098 395.847C550.204 396.569 550.876 397.07 551.593 396.966Z" fill="white"/>
<path d="M381.58 220.328C381.163 220.461 371.197 223.647 359.601 225.706C342.889 228.675 331.859 227.786 325.877 223.002C323.376 220.999 320.514 217.281 321.087 210.939C321.853 202.47 326.258 198.435 329.819 196.532C341.077 190.536 360.257 197.231 371.808 202.374C368.123 189.093 363.782 167.494 371.317 158.615C373.369 156.194 377.197 153.544 383.772 154.663C389.294 155.602 393.444 158.534 395.772 163.156C403.194 177.875 389.529 206.103 387.584 209.976L384.296 217.843C384.066 218.39 383.733 218.875 383.321 219.28C382.834 219.753 382.24 220.118 381.58 220.328ZM329.856 211.729C329.622 214.343 330.493 215.421 331.376 216.13C337.558 221.08 358.787 217.735 374.338 213.321C362.046 207.052 342.214 199.904 333.952 204.306C333.437 204.578 332.865 204.943 332.309 205.491C331.194 206.59 330.152 208.428 329.856 211.729ZM378.034 164.311C373.614 169.514 376.833 188.271 381.159 203.011C386.245 191.9 391.705 174.636 387.907 167.116C387.239 165.789 385.93 163.963 382.297 163.345C379.792 162.919 378.766 163.567 378.268 164.051C378.175 164.143 378.095 164.236 378.034 164.311Z" fill="#FFBE1D"/>
<path d="M291.538 302.816L309.509 321.069C311.295 322.881 314.208 322.905 316.016 321.123L433.396 205.54C435.208 203.754 435.232 200.841 433.446 199.029L415.475 180.776C413.693 178.968 410.783 178.947 408.968 180.729L291.588 296.313C289.78 298.095 289.756 301.008 291.538 302.816Z" fill="#E1AE2D"/>
<path d="M328.581 266.34L346.552 284.594C348.338 286.405 350.98 286.697 352.449 285.249L448.032 191.13C449.508 189.675 449.258 187.033 447.472 185.214L429.501 166.961C427.722 165.156 425.08 164.865 423.604 166.32L328.021 260.438C326.552 261.886 326.802 264.536 328.581 266.34Z" fill="#FFCE55"/>
<path d="M386.476 202.045L371.608 216.701L396.463 241.916L411.331 227.26L386.476 202.045Z" fill="#B58610"/>
<path d="M318.081 270.214L307.717 280.43L332.159 305.226L342.523 295.01L318.081 270.214Z" fill="#B58610"/>
<path d="M482.709 319.711C486.942 316.101 491.175 312.492 495.408 308.883C502.83 302.554 510.36 296.104 515.662 287.917C518.083 284.181 520.024 279.396 518.075 275.395C516.559 272.284 512.679 270.545 509.348 271.485C506.018 272.425 503.619 275.936 503.954 279.38" stroke="#94B9DE" stroke-width="1.5" stroke-miterlimit="10"/>
<path d="M525.478 291.498L520.055 313.597L538.777 294.883L525.478 291.498Z" fill="#CC8911"/>
<path d="M458.784 201.909L491.31 151.572L493.891 156.124L458.784 201.909Z" fill="#DEB843"/>
<path d="M444.063 296.107C442.723 295.515 412.815 245.035 412.815 245.035L407.988 248.692L444.063 296.107Z" fill="#DEB843"/>
<path d="M461.827 174.146L466.445 159.129L460.754 158.388L461.827 174.146Z" fill="#94B9DE"/>
<path d="M557.483 260.068L589.995 221.493L596.187 227.657L557.483 260.068Z" fill="#94B9DE"/>
<path d="M559.501 281.722C561.606 281.579 606.162 265.008 606.162 265.008L606.783 274.12L559.501 281.722Z" fill="#C1664A"/>
<path d="M478.421 226.027C478.997 215.981 484.336 206.311 492.532 200.472C495.12 198.628 498.185 197.107 501.347 197.432C504.509 197.756 507.558 200.562 507.142 203.713C506.717 206.935 502.682 208.848 499.652 207.672C496.621 206.497 494.9 203.023 495.092 199.778C495.283 196.533 497.071 193.561 499.331 191.226C505.808 184.533 516.675 182.573 525.083 186.581" stroke="#DEB843" stroke-width="1.5" stroke-miterlimit="10"/>
<path d="M564.249 233.802C571.135 225.231 579.232 217.634 588.224 211.307C591.28 209.157 594.507 207.122 598.124 206.182C601.74 205.241 605.84 205.533 608.856 207.738C611.873 209.944 613.391 214.314 611.689 217.64C610.47 220.021 607.659 221.524 605.024 221.068C602.389 220.612 600.207 218.137 600.231 215.462C600.255 212.788 602.603 210.302 605.277 210.263" stroke="#94B9DE" stroke-width="1.5" stroke-miterlimit="10"/>
<path d="M432.685 306.221C429.314 294.804 420.147 285.263 408.873 281.439C406.117 280.505 403.176 279.891 400.299 280.324C397.421 280.758 394.61 282.384 393.319 284.992C392.132 287.392 392.42 290.445 394.011 292.599C395.603 294.752 398.419 295.922 401.072 295.559C403.48 295.229 405.783 293.516 406.308 291.143C406.832 288.77 405.096 285.998 402.67 285.861C400.242 285.724 398.196 288.869 399.607 290.848" stroke="#94B9DE" stroke-miterlimit="10"/>
<path d="M372.128 322.705C364.614 320.403 356.452 322.719 349.343 326.069C346.78 327.276 344.25 328.64 342.16 330.552C340.071 332.466 338.436 334.99 338.048 337.797C337.661 340.604 338.686 343.679 340.985 345.334C343.284 346.99 346.842 346.848 348.71 344.717C350.577 342.586 349.988 338.681 347.405 337.516" stroke="#94B9DE" stroke-width="1.5" stroke-miterlimit="10"/>
<path d="M556.271 296.04C568.719 294.731 581.67 299.998 589.674 309.621C592.119 312.562 594.173 316.03 594.464 319.844C594.755 323.658 592.887 327.818 589.356 329.287C585.824 330.756 580.982 328.439 580.687 324.626C580.408 321.004 584.132 318.058 587.762 317.901C591.391 317.744 594.787 319.594 597.822 321.589C607.856 328.183 616.395 337.039 622.621 347.306" stroke="#94B9DE" stroke-width="1.5" stroke-miterlimit="10"/>
<path d="M499.07 166.924L500.337 170.077L503.727 169.846L501.12 172.025L502.387 175.179L499.509 173.373L496.901 175.553L497.73 172.256L494.852 170.45L498.241 170.219L499.07 166.924Z" fill="#94B9DE"/>
<path d="M534.195 242.686L535.462 245.838L538.852 245.607L536.245 247.787L537.513 250.941L534.634 249.134L532.027 251.314L532.855 248.018L529.976 246.212L533.367 245.981L534.195 242.686Z" fill="#94B9DE"/>
<path d="M566.119 308.48L567.386 311.634L570.776 311.403L568.169 313.582L569.436 316.735L566.558 314.929L563.951 317.109L564.779 313.813L561.9 312.007L565.291 311.776L566.119 308.48Z" fill="#EEC430"/>
<path d="M358.84 290.186L360.965 292.838L364.144 291.636L362.278 294.477L364.403 297.129L361.125 296.233L359.26 299.073L359.1 295.678L355.822 294.782L359 293.58L358.84 290.186Z" fill="#94B9DE"/>
<path d="M398.794 257.709L400.062 260.862L403.451 260.631L400.845 262.811L402.112 265.964L399.233 264.158L396.627 266.338L397.454 263.042L394.576 261.235L397.966 261.004L398.794 257.709Z" fill="#EEC430"/>
<path d="M602.218 238.616L603.486 241.77L606.876 241.539L604.269 243.718L605.537 246.871L602.658 245.065L600.051 247.245L600.879 243.949L598 242.143L601.391 241.912L602.218 238.616Z" fill="#EEC430"/>
<path d="M469.538 312.798L470.806 315.951L474.196 315.72L471.589 317.9L472.857 321.053L469.978 319.246L467.371 321.426L468.199 318.131L465.32 316.325L468.711 316.094L469.538 312.798Z" fill="#EEC430"/>
<path d="M517.197 134.174L520.073 141.331L527.77 140.807L521.852 145.755L524.728 152.912L518.194 148.813L512.276 153.761L514.155 146.279L507.621 142.18L515.317 141.655L517.197 134.174Z" fill="#C1664A"/>
<path d="M466.549 234.76L468.605 239.874L474.104 239.499L469.876 243.034L471.931 248.148L467.262 245.219L463.034 248.755L464.377 243.409L459.707 240.48L465.207 240.105L466.549 234.76Z" fill="#C1664A"/>
<path d="M550.929 196.124L552.707 200.547L557.463 200.223L553.805 203.281L555.584 207.705L551.545 205.171L547.887 208.229L549.049 203.605L545.011 201.072L549.767 200.748L550.929 196.124Z" fill="#9873FF"/>
<path d="M433.143 238.289L434.92 242.713L439.677 242.389L436.019 245.447L437.798 249.87L433.759 247.337L430.101 250.394L431.262 245.771L427.225 243.237L431.981 242.913L433.143 238.289Z" fill="#9873FF"/>
<path d="M373.493 333.042L372.888 333.858L350.334 364.306C350.334 364.306 358.442 365.185 358.727 364.342" fill="#EEC430"/>
<path d="M330.086 325.62L312.646 332.861L316.943 337.24L330.086 325.62Z" fill="#9873FF"/>
<path d="M483.477 281.33L489.882 225.619L497.652 229.245L483.477 281.33Z" fill="#9873FF"/>
<path d="M541.009 267.706L549.236 249.937L552.881 252.31L541.009 267.706Z" fill="#9873FF"/>
<path d="M604.018 289.405L635.435 303.518L633.189 310.853L604.018 289.405Z" fill="#9873FF"/>
<path d="M386.53 298.872C385.879 298.216 371.323 292.535 371.323 292.535L371.81 298.393L386.53 298.872Z" fill="#C1664A"/>
<path d="M334.873 360.204L318.388 374.863L325.258 376.369L334.873 360.204Z" fill="#C1664A"/>
<path d="M455.944 324.647C453.267 321.489 450.599 318.228 449.013 314.403C447.429 310.578 447.054 306.049 448.962 302.375C450.87 298.701 455.438 296.31 459.338 297.697C461.454 298.449 463.231 300.386 463.334 302.629C463.437 304.872 461.49 307.136 459.251 306.971C457.773 306.862 456.494 305.793 455.772 304.499C455.05 303.204 454.798 301.703 454.633 300.23C453.785 292.658 454.956 284.869 457.993 277.881" stroke="#C1664A" stroke-width="1.5" stroke-miterlimit="10"/>
<path d="M418.823 329.806C417.691 326.786 416.558 323.765 415.426 320.745C414.643 318.657 413.839 316.53 412.451 314.784C411.063 313.038 408.971 311.703 406.742 311.79C404.514 311.876 402.328 313.742 402.4 315.971C402.435 317.05 403.03 318.137 404.01 318.589C404.99 319.041 406.315 318.709 406.83 317.761C407.402 316.71 406.835 315.332 405.885 314.605C404.935 313.879 403.709 313.643 402.532 313.428C395.776 312.192 389.021 310.957 382.265 309.722" stroke="#DEB843" stroke-width="1.5" stroke-miterlimit="10"/>
<rect x="122.425" y="655.328" width="539.554" height="23.7872" fill="#373737"/>
</g>
<rect x="-0.49603" y="110.666" width="121.394" height="161.299" rx="60.6972" transform="rotate(17.6719 -0.49603 110.666)" fill="#121212" stroke="#030303" stroke-width="7.7165"/>
<rect x="130.436" y="1.9026" width="121.394" height="163.911" rx="60.6972" transform="rotate(114.683 130.436 1.9026)" fill="#121212" stroke="#030303" stroke-width="7.7165"/>
<rect x="209.176" y="87.3091" width="134.453" height="134.454" rx="67.2267" transform="rotate(114.683 209.176 87.3091)" fill="#121212" stroke="#030303" stroke-width="7.7165"/>
<rect x="280.638" y="166.946" width="120.842" height="120.843" rx="14.2677" transform="rotate(118.746 280.638 166.946)" fill="#121212" stroke="#030303" stroke-width="7.7165"/>
<path d="M15.8504 -0.638536C15.8504 -0.638536 56.4084 -3.13958 38.1831 27.4283C19.4291 57.6746 2.98805 20.5142 2.98805 20.5142" fill="#121212"/>
<path d="M15.8504 -0.638537C15.8504 -0.638537 56.4084 -3.13958 38.1831 27.4283C19.4291 57.6746 2.98805 20.5142 2.98805 20.5142" stroke="#464646" stroke-width="2.31495" stroke-miterlimit="10" stroke-linecap="round" stroke-linejoin="round"/>
<path d="M11.3826 11.1316C14.9345 5.29044 16.9348 0.020755 15.8505 -0.638572C14.7662 -1.2979 11.0079 2.90281 7.45607 8.74396C3.90423 14.5851 1.90389 19.8548 2.98818 20.5141C4.07248 21.1735 7.83081 16.9728 11.3826 11.1316Z" fill="#121212" stroke="#464646" stroke-width="2.31495" stroke-miterlimit="10" stroke-linecap="round" stroke-linejoin="round"/>
<path d="M38.1841 27.4282L50.9638 35.1992" stroke="#464646" stroke-width="2.31495" stroke-miterlimit="10" stroke-linecap="round" stroke-linejoin="round"/>
<path d="M53.7865 36.9159C58.1055 29.8131 60.3429 23.2867 58.7838 22.3386C57.2247 21.3906 52.4595 26.38 48.1405 33.4828C43.8215 40.5856 41.5842 47.112 43.1433 48.0601C44.7024 49.0081 49.4675 44.0187 53.7865 36.9159Z" fill="#121212" stroke="#464646" stroke-width="2.31495" stroke-miterlimit="10" stroke-linecap="round" stroke-linejoin="round"/>
<path d="M29.68 0.605224C29.68 0.605224 25.9628 3.33144 23.8428 9.2653C23.1246 11.2753 22.5898 13.6535 22.4448 16.4184C21.7285 30.0771 10.9989 32.828 10.9989 32.828C8.37646 26.2783 16.6783 14.4904 23.8428 9.2653" fill="#121212"/>
<path d="M29.68 0.605223C29.68 0.605223 25.9628 3.33144 23.8428 9.2653M23.8428 9.2653C23.1246 11.2753 22.5898 13.6535 22.4448 16.4184C21.7285 30.0771 10.9989 32.828 10.9989 32.828C8.37646 26.2783 16.6783 14.4904 23.8428 9.2653Z" stroke="#464646" stroke-width="2.31495" stroke-miterlimit="10" stroke-linecap="round" stroke-linejoin="round"/>
<path d="M209.888 169.144C220.487 174.65 229.693 177.932 230.45 176.475C231.207 175.018 223.228 169.374 212.629 163.868C202.03 158.362 192.824 155.08 192.067 156.537C191.31 157.994 199.289 163.638 209.888 169.144Z" fill="#121212" stroke="#464646" stroke-width="2.31495" stroke-miterlimit="10" stroke-linecap="round" stroke-linejoin="round"/>
<path d="M230.329 176.704L209.877 187.482C207.876 188.536 205.584 188.902 203.354 188.521C201.243 188.161 199.297 187.15 197.788 185.63C196.195 184.025 195.176 181.939 194.888 179.696L191.946 156.765" fill="#121212"/>
<path d="M230.329 176.704L209.877 187.482C207.876 188.536 205.584 188.902 203.354 188.521C201.243 188.161 199.297 187.15 197.788 185.63C196.195 184.025 195.176 181.939 194.888 179.696L191.946 156.765" stroke="#464646" stroke-width="2.31495" stroke-miterlimit="10" stroke-linecap="round" stroke-linejoin="round"/>
<path d="M200.345 187.51L185.49 216.107" stroke="#464646" stroke-width="2.31495" stroke-miterlimit="10" stroke-linecap="round" stroke-linejoin="round"/>
<path d="M198.215 222.717C197.713 223.683 191.611 221.507 184.585 217.857C177.558 214.207 172.269 210.466 172.771 209.5C173.273 208.534 179.375 210.71 186.401 214.36C193.427 218.009 198.717 221.751 198.215 222.717Z" fill="#121212" stroke="#464646" stroke-width="2.31495" stroke-miterlimit="10" stroke-linecap="round" stroke-linejoin="round"/>
<path d="M193.138 166.073C195.806 165.68 201.416 167.916 206.801 175.099C212.636 182.881 219.987 182.135 222.028 181.081L222.027 181.083C220.001 177.77 210.807 171.318 203.493 171.29" fill="#121212"/>
<path d="M193.138 166.073C195.806 165.68 201.416 167.916 206.801 175.099C212.636 182.881 219.987 182.135 222.028 181.081L222.027 181.083C220.001 177.77 210.807 171.318 203.493 171.29" stroke="#464646" stroke-width="2.31495" stroke-miterlimit="10" stroke-linecap="round" stroke-linejoin="round"/>
<path d="M120.018 101.39C130.456 101.39 138.917 99.79 138.917 97.8166C138.917 95.8432 130.456 94.2434 120.018 94.2434C109.58 94.2434 101.119 95.8432 101.119 97.8166C101.119 99.79 109.58 101.39 120.018 101.39Z" fill="#121212" stroke="#464646" stroke-width="2.31495" stroke-miterlimit="10" stroke-linecap="round" stroke-linejoin="round"/>
<path d="M138.917 97.8167C139.111 98.896 139.212 100.007 139.212 101.141C139.212 111.6 130.618 120.078 120.018 120.078C109.417 120.078 100.824 111.6 100.824 101.141C100.824 100.007 100.925 98.8962 101.119 97.8167" fill="#121212"/>
<path d="M138.917 97.8167C139.111 98.896 139.212 100.007 139.212 101.141C139.212 111.6 130.618 120.078 120.018 120.078C109.417 120.078 100.824 111.6 100.824 101.141C100.824 100.007 100.925 98.8962 101.119 97.8167" stroke="#464646" stroke-width="2.31495" stroke-miterlimit="10" stroke-linecap="round" stroke-linejoin="round"/>
<path d="M120.018 120.147V143.575" stroke="#464646" stroke-width="2.31495" stroke-miterlimit="10" stroke-linecap="round" stroke-linejoin="round"/>
<path d="M120.018 146.396C127.116 146.396 132.871 145.133 132.871 143.575C132.871 142.017 127.116 140.753 120.018 140.753C112.919 140.753 107.165 142.017 107.165 143.575C107.165 145.133 112.919 146.396 120.018 146.396Z" fill="#121212" stroke="#464646" stroke-width="2.31495" stroke-miterlimit="10" stroke-linecap="round" stroke-linejoin="round"/>
<path d="M138.79 105.083C138.79 105.083 135.628 104.5 124.031 108.296C107.511 113.703 101.119 104.5 101.119 104.5C101.119 104.5 110.573 101.164 126.878 107.399" fill="#121212"/>
<path d="M138.79 105.083C138.79 105.083 135.628 104.5 124.031 108.296C107.511 113.703 101.119 104.5 101.119 104.5C101.119 104.5 110.573 101.164 126.878 107.399" stroke="#464646" stroke-width="2.31495" stroke-miterlimit="10" stroke-linecap="round" stroke-linejoin="round"/>
<path d="M40.2995 178.15C46.7679 179.883 52.2681 180.331 52.5845 179.15C52.901 177.969 47.9138 175.607 41.4455 173.874C34.9771 172.14 29.4769 171.693 29.1604 172.874C28.844 174.055 33.8311 176.417 40.2995 178.15Z" fill="#121212" stroke="#464646" stroke-width="2.31495" stroke-miterlimit="10" stroke-linecap="round" stroke-linejoin="round"/>
<path d="M29.1602 172.874L23.0798 195.566C21.3466 202.034 25.1852 208.683 31.6537 210.416C38.1221 212.149 44.7707 208.311 46.5039 201.842L52.5843 179.15" fill="#121212"/>
<path d="M29.1602 172.874L23.0798 195.566C21.3466 202.034 25.1852 208.683 31.6536 210.416C38.1221 212.149 44.7707 208.311 46.5039 201.842L52.5843 179.15" stroke="#464646" stroke-width="2.31495" stroke-miterlimit="10" stroke-linecap="round" stroke-linejoin="round"/>
<path d="M44.5867 194.611C31.9539 186.041 24.5857 189.949 24.5857 189.949C24.5857 189.949 24.199 193.194 35.0452 195.242C44.2593 196.981 49.1721 191.886 49.1721 191.886" fill="#121212"/>
<path d="M44.5867 194.611C31.9539 186.041 24.5857 189.949 24.5857 189.949C24.5857 189.949 24.199 193.194 35.0452 195.242C44.2593 196.981 49.1721 191.886 49.1721 191.886" stroke="#464646" stroke-width="2.31495" stroke-miterlimit="10" stroke-linecap="round" stroke-linejoin="round"/>
<path d="M31.6536 210.416L24.8364 235.858" stroke="#464646" stroke-width="2.31495" stroke-miterlimit="10" stroke-linecap="round" stroke-linejoin="round"/>
<path d="M24.2636 237.997C30.732 239.73 36.2322 240.178 36.5487 238.997C36.8651 237.816 31.8779 235.453 25.4096 233.72C18.9412 231.987 13.441 231.539 13.1246 232.72C12.8081 233.901 17.7953 236.263 24.2636 237.997Z" fill="#121212" stroke="#464646" stroke-width="2.31495" stroke-miterlimit="10" stroke-linecap="round" stroke-linejoin="round"/>
<rect x="123.12" y="655.255" width="539.554" height="23.7872" fill="#373737"/>
</g>
</svg>
