<svg width="24" height="25" viewBox="0 0 24 25" fill="none" xmlns="http://www.w3.org/2000/svg">
<g clip-path="url(#clip0_68_225)">
<path d="M17.0725 0.980469H13.0278V17.3283C13.0278 19.2761 11.4722 20.8761 9.53626 20.8761C7.60034 20.8761 6.04469 19.2761 6.04469 17.3283C6.04469 15.4153 7.56577 13.85 9.43257 13.7805V9.67614C5.31872 9.74567 2 13.1196 2 17.3283C2 21.5718 5.38786 24.9805 9.57085 24.9805C13.7538 24.9805 17.1416 21.537 17.1416 17.3283V8.94567C18.6627 10.0587 20.5295 10.7196 22.5 10.7544V6.65004C19.4579 6.54569 17.0725 4.04134 17.0725 0.980469Z" fill="#F4F4F4"/>
</g>
<defs>
<clipPath id="clip0_68_225">
<rect width="24" height="24" fill="white" transform="translate(0 0.980469)"/>
</clipPath>
</defs>
</svg>
