<svg width="42" height="42" viewBox="0 0 42 42" fill="none" xmlns="http://www.w3.org/2000/svg">
<path fill-rule="evenodd" clip-rule="evenodd" d="M20.7734 0.438477C9.44115 0.438477 0.254517 9.62511 0.254517 20.9574C0.254517 32.2897 9.44115 41.4763 20.7734 41.4763C32.1057 41.4763 41.2923 32.2897 41.2923 20.9574C41.2923 9.62511 32.1057 0.438477 20.7734 0.438477ZM20.202 17.8265L20.1589 17.1165C20.0297 15.2763 21.1636 13.5955 22.9576 12.9434C23.6179 12.7116 24.7374 12.6826 25.4693 12.8855C25.7564 12.9724 26.3018 13.2622 26.6893 13.523L27.3926 14.0012L28.1676 13.7549C28.5982 13.6245 29.1723 13.4071 29.4306 13.2622C29.6746 13.1318 29.8899 13.0594 29.8899 13.1028C29.8899 13.3492 29.3589 14.1896 28.914 14.6532C28.3111 15.3053 28.4834 15.3632 29.7033 14.9285C30.4353 14.6822 30.4497 14.6822 30.3062 14.9575C30.22 15.1024 29.7751 15.6096 29.3015 16.0732C28.4977 16.8702 28.4547 16.9571 28.4547 17.6237C28.4547 18.6524 27.9667 20.7969 27.4787 21.9706C26.5745 24.173 24.6369 26.4479 22.6993 27.5926C19.9723 29.201 16.3411 29.6067 13.284 28.6649C12.265 28.3461 10.514 27.5347 10.514 27.3898C10.514 27.3463 11.045 27.2884 11.6909 27.2739C13.04 27.2449 14.3892 26.8682 15.5374 26.2016L16.3124 25.7379L15.4225 25.4337C14.1595 24.999 13.0257 23.9992 12.7386 23.0573C12.6525 22.753 12.6812 22.7386 13.485 22.7386L14.3174 22.7241L13.6141 22.3908C12.7817 21.9706 12.021 21.2606 11.6478 20.5361C11.3751 20.0145 11.0307 18.6959 11.1311 18.5945C11.1598 18.551 11.4612 18.6379 11.8057 18.7539C12.796 19.1161 12.9252 19.0292 12.3511 18.4206C11.2747 17.3194 10.9446 15.682 11.4612 14.1316L11.7052 13.4361L12.6525 14.3779C14.5901 16.2761 16.8722 17.4063 19.4843 17.7396L20.202 17.8265Z" fill="white"/>
</svg>
