<svg width="24" height="25" viewBox="0 0 24 25" fill="none" xmlns="http://www.w3.org/2000/svg">
<path d="M7.55016 22.7312C16.6045 22.7312 21.5583 15.2279 21.5583 8.72306C21.5583 8.51212 21.5536 8.2965 21.5442 8.08556C22.5079 7.38866 23.3395 6.52546 24 5.5365C23.1025 5.9358 22.1496 6.19658 21.1739 6.30994C22.2013 5.69411 22.9705 4.72667 23.3391 3.58697C22.3726 4.15976 21.3156 4.56381 20.2134 4.78181C19.4708 3.99276 18.489 3.47032 17.4197 3.29525C16.3504 3.12019 15.2532 3.30225 14.2977 3.8133C13.3423 4.32434 12.5818 5.13591 12.1338 6.12251C11.6859 7.10912 11.5754 8.21582 11.8195 9.2715C9.86249 9.17329 7.94794 8.66491 6.19998 7.7793C4.45203 6.89369 2.90969 5.65064 1.67297 4.13072C1.0444 5.21444 0.852057 6.49685 1.13503 7.71729C1.418 8.93774 2.15506 10.0046 3.19641 10.7012C2.41463 10.6764 1.64998 10.4659 0.965625 10.0871V10.1481C0.964925 11.2854 1.3581 12.3878 2.07831 13.268C2.79852 14.1482 3.80132 14.7518 4.91625 14.9762C4.19206 15.1743 3.43198 15.2032 2.69484 15.0606C3.00945 16.0386 3.62157 16.8941 4.44577 17.5075C5.26997 18.121 6.26512 18.4618 7.29234 18.4824C5.54842 19.8523 3.39417 20.5953 1.17656 20.5918C0.783287 20.5912 0.390399 20.5671 0 20.5196C2.25286 21.965 4.87353 22.7326 7.55016 22.7312Z" fill="#F4F4F4"/>
</svg>
