<svg width="46" height="46" viewBox="0 0 46 46" fill="none" xmlns="http://www.w3.org/2000/svg">
<path fill-rule="evenodd" clip-rule="evenodd" d="M0.321655 22.6213C0.321655 10.1949 10.3952 0.121277 22.8217 0.121277C35.2481 0.121277 45.3217 10.1949 45.3217 22.6213C45.3217 35.0477 35.2481 45.1213 22.8217 45.1213C10.3952 45.1213 0.321655 35.0477 0.321655 22.6213Z" fill="#1CB7EB"/>
<path fill-rule="evenodd" clip-rule="evenodd" d="M22.1481 18.4095L22.1954 19.188L21.4084 19.0927C18.5441 18.7272 16.0417 17.4879 13.917 15.4065L12.8783 14.3737L12.6107 15.1364C12.0442 16.8365 12.4062 18.6319 13.5865 19.8395C14.2161 20.5068 14.0744 20.6021 12.9885 20.2049C12.6107 20.0778 12.2802 19.9825 12.2488 20.0301C12.1386 20.1413 12.5163 21.5872 12.8153 22.1592C13.2245 22.9537 14.0587 23.7322 14.9715 24.193L15.7427 24.5584L14.8298 24.5743C13.9485 24.5743 13.917 24.5902 14.0115 24.9239C14.3262 25.9566 15.5695 27.053 16.9545 27.5296L17.9303 27.8633L17.0804 28.3717C15.8214 29.1026 14.342 29.5157 12.8626 29.5475C12.1543 29.5634 11.572 29.627 11.572 29.6746C11.572 29.8335 13.4921 30.7233 14.6095 31.0728C17.9618 32.1056 21.9436 31.6607 24.9338 29.8971C27.0585 28.6418 29.1832 26.1473 30.1747 23.7322C30.7098 22.4452 31.2449 20.0937 31.2449 18.9656C31.2449 18.2347 31.2921 18.1394 32.1734 17.2655C32.6928 16.757 33.1807 16.2009 33.2751 16.042C33.4325 15.7402 33.4168 15.7402 32.6141 16.0103C31.2764 16.4869 31.0875 16.4234 31.7485 15.7084C32.2364 15.1999 32.8187 14.2784 32.8187 14.0083C32.8187 13.9606 32.5826 14.04 32.3151 14.183C32.0318 14.3419 31.4023 14.5803 30.9301 14.7233L30.0802 14.9934L29.3091 14.469C28.8841 14.183 28.2861 13.8653 27.9713 13.7699C27.1687 13.5475 25.9411 13.5793 25.2171 13.8335C23.2498 14.5485 22.0065 16.3916 22.1481 18.4095Z" fill="white"/>
</svg>
