<svg width="791" height="1027" viewBox="0 0 791 1027" fill="none" xmlns="http://www.w3.org/2000/svg">
<mask id="mask0_2207_5043" style="mask-type:alpha" maskUnits="userSpaceOnUse" x="0" y="0" width="791" height="1027">
<rect x="0.715088" y="0.427246" width="789.738" height="1026.03" fill="#030303"/>
</mask>
<g mask="url(#mask0_2207_5043)">
<rect x="613.107" y="147.231" width="122.972" height="163.365" rx="61.4862" transform="rotate(17.6719 613.107 147.231)" fill="#121212" stroke="#030303" stroke-width="7.7165"/>
<rect x="745.731" y="37.1743" width="122.972" height="166.009" rx="61.4862" transform="rotate(114.683 745.731 37.1743)" fill="#121212" stroke="#030303" stroke-width="7.7165"/>
<rect x="825.434" y="123.625" width="136.191" height="136.192" rx="68.0955" transform="rotate(114.683 825.434 123.625)" fill="#121212" stroke="#030303" stroke-width="7.7165"/>
<rect x="897.772" y="204.239" width="122.413" height="122.414" rx="14.2677" transform="rotate(118.746 897.772 204.239)" fill="#121212" stroke="#030303" stroke-width="7.7165"/>
<path d="M651.928 224.941C660.043 227.115 666.864 227.973 667.163 226.858C667.462 225.743 661.126 223.076 653.011 220.901C644.896 218.727 638.075 217.869 637.776 218.984C637.477 220.099 643.813 222.766 651.928 224.941Z" stroke="#464646" stroke-width="2.31495" stroke-miterlimit="10" stroke-linecap="round" stroke-linejoin="round"/>
<path d="M659.889 244.225C646.865 235.964 629.174 233.497 626.195 237.307" stroke="#464646" stroke-width="2.31495" stroke-miterlimit="10" stroke-linecap="round" stroke-linejoin="round"/>
<path d="M667.163 226.858C667.163 226.858 677.963 277.245 640.783 266.539C603.23 257.22 637.777 218.984 637.777 218.984" stroke="#464646" stroke-width="2.31495" stroke-miterlimit="10" stroke-linecap="round" stroke-linejoin="round"/>
<path d="M625.838 237.63C625.403 245.181 668.167 247.646 668.602 240.094" stroke="#464646" stroke-width="2.31495" stroke-miterlimit="10" stroke-linecap="round" stroke-linejoin="round"/>
<path d="M735.125 137.901C745.69 137.901 754.255 136.281 754.255 134.284C754.255 132.286 745.69 130.667 735.125 130.667C724.559 130.667 715.995 132.286 715.995 134.284C715.995 136.281 724.559 137.901 735.125 137.901Z" stroke="#464646" stroke-width="2.31495" stroke-miterlimit="10" stroke-linecap="round" stroke-linejoin="round"/>
<path d="M754.255 134.284C754.451 135.376 754.553 136.501 754.553 137.649C754.553 148.235 745.855 156.817 735.124 156.817C724.394 156.817 715.696 148.235 715.696 137.649C715.696 136.501 715.798 135.376 715.994 134.284" stroke="#464646" stroke-width="2.31495" stroke-miterlimit="10" stroke-linecap="round" stroke-linejoin="round"/>
<path d="M735.125 156.887V180.601" stroke="#464646" stroke-width="2.31495" stroke-miterlimit="10" stroke-linecap="round" stroke-linejoin="round"/>
<path d="M735.125 183.457C742.31 183.457 748.135 182.178 748.135 180.601C748.135 179.024 742.31 177.745 735.125 177.745C727.939 177.745 722.115 179.024 722.115 180.601C722.115 182.178 727.939 183.457 735.125 183.457Z" stroke="#464646" stroke-width="2.31495" stroke-miterlimit="10" stroke-linecap="round" stroke-linejoin="round"/>
<path d="M754.127 141.639C754.127 141.639 750.926 141.049 739.186 144.891C722.465 150.365 715.995 141.049 715.995 141.049C715.995 141.049 725.564 137.672 742.069 143.983" stroke="#464646" stroke-width="2.31495" stroke-miterlimit="10" stroke-linecap="round" stroke-linejoin="round"/>
<path d="M633.854 26.2386C633.854 26.2386 641.884 30.2985 641.777 38.6517C641.753 40.481 642.424 42.2557 643.671 43.5948C645.972 46.0679 648.64 50.9475 644.42 58.2562C640.2 65.565 634.641 65.6947 631.348 64.9379C629.565 64.528 627.692 64.834 626.12 65.7692C618.94 70.0395 611.409 65.1151 611.409 65.1151" stroke="#464646" stroke-width="2.31495" stroke-miterlimit="10" stroke-linecap="round" stroke-linejoin="round"/>
<path d="M625.658 47.424C631.857 36.6868 635.54 27.2074 633.884 26.2513C632.228 25.2951 625.86 33.2242 619.661 43.9614C613.462 54.6986 609.779 64.178 611.435 65.1341C613.091 66.0903 619.459 58.1612 625.658 47.424Z" stroke="#464646" stroke-width="2.31495" stroke-miterlimit="10" stroke-linecap="round" stroke-linejoin="round"/>
<path d="M644.419 58.2561L667.01 71.2988" stroke="#464646" stroke-width="2.31495" stroke-miterlimit="10" stroke-linecap="round" stroke-linejoin="round"/>
<path d="M669.608 72.7991C673.383 66.2615 675.279 60.29 673.844 59.4615C672.409 58.633 668.186 63.2611 664.412 69.7988C660.637 76.3364 658.741 82.3079 660.176 83.1364C661.611 83.9649 665.834 79.3367 669.608 72.7991Z" stroke="#464646" stroke-width="2.31495" stroke-miterlimit="10" stroke-linecap="round" stroke-linejoin="round"/>
<path d="M640.082 32.2729C628.543 44.11 632.496 59.3816 619.738 67.5102C617.933 65.3103 623.862 52.5054 632.946 43.7322" stroke="#464646" stroke-width="2.31495" stroke-miterlimit="10" stroke-linecap="round" stroke-linejoin="round"/>
</g>
<mask id="mask1_2207_5043" style="mask-type:alpha" maskUnits="userSpaceOnUse" x="0" y="0" width="791" height="658">
<rect x="0.155273" y="0.427246" width="790.065" height="656.574" fill="#FFCC4C"/>
</mask>
<g mask="url(#mask1_2207_5043)">
<rect x="-0.538022" y="110.666" width="121.394" height="161.299" rx="60.6972" transform="rotate(17.6719 -0.538022 110.666)" fill="#121212" stroke="#030303" stroke-width="7.7165"/>
<rect x="130.394" y="1.9026" width="121.394" height="163.911" rx="60.6972" transform="rotate(114.683 130.394 1.9026)" fill="#121212" stroke="#030303" stroke-width="7.7165"/>
<rect x="209.134" y="87.3091" width="134.453" height="134.454" rx="67.2267" transform="rotate(114.683 209.134 87.3091)" fill="#121212" stroke="#030303" stroke-width="7.7165"/>
<rect x="280.596" y="166.946" width="120.842" height="120.843" rx="14.2677" transform="rotate(118.746 280.596 166.946)" fill="#121212" stroke="#030303" stroke-width="7.7165"/>
<path d="M15.8084 -0.638536C15.8084 -0.638536 56.3664 -3.13958 38.1411 27.4283C19.3871 57.6746 2.94605 20.5142 2.94605 20.5142" fill="#121212"/>
<path d="M15.8084 -0.638537C15.8084 -0.638537 56.3664 -3.13958 38.1411 27.4283C19.3871 57.6746 2.94605 20.5142 2.94605 20.5142" stroke="#464646" stroke-width="2.31495" stroke-miterlimit="10" stroke-linecap="round" stroke-linejoin="round"/>
<path d="M11.3406 11.1316C14.8925 5.29044 16.8928 0.020755 15.8085 -0.638572C14.7242 -1.2979 10.9659 2.90281 7.41407 8.74396C3.86224 14.5851 1.8619 19.8548 2.94619 20.5141C4.03048 21.1735 7.78881 16.9728 11.3406 11.1316Z" fill="#121212" stroke="#464646" stroke-width="2.31495" stroke-miterlimit="10" stroke-linecap="round" stroke-linejoin="round"/>
<path d="M38.1421 27.4282L50.9218 35.1992" stroke="#464646" stroke-width="2.31495" stroke-miterlimit="10" stroke-linecap="round" stroke-linejoin="round"/>
<path d="M53.7445 36.9159C58.0635 29.8131 60.3009 23.2867 58.7418 22.3386C57.1827 21.3906 52.4175 26.38 48.0986 33.4828C43.7796 40.5856 41.5422 47.112 43.1013 48.0601C44.6604 49.0081 49.4255 44.0187 53.7445 36.9159Z" fill="#121212" stroke="#464646" stroke-width="2.31495" stroke-miterlimit="10" stroke-linecap="round" stroke-linejoin="round"/>
<path d="M29.6381 0.605224C29.6381 0.605224 25.9208 3.33144 23.8008 9.2653C23.0826 11.2753 22.5479 13.6535 22.4028 16.4184C21.6865 30.0771 10.9569 32.828 10.9569 32.828C8.33447 26.2783 16.6363 14.4904 23.8008 9.2653" fill="#121212"/>
<path d="M29.6381 0.605223C29.6381 0.605223 25.9208 3.33144 23.8008 9.2653M23.8008 9.2653C23.0826 11.2753 22.5479 13.6535 22.4028 16.4184C21.6865 30.0771 10.9569 32.828 10.9569 32.828C8.33447 26.2783 16.6363 14.4904 23.8008 9.2653Z" stroke="#464646" stroke-width="2.31495" stroke-miterlimit="10" stroke-linecap="round" stroke-linejoin="round"/>
<path d="M209.846 169.144C220.445 174.65 229.651 177.932 230.408 176.475C231.165 175.018 223.186 169.374 212.587 163.868C201.988 158.362 192.782 155.08 192.025 156.537C191.268 157.994 199.247 163.638 209.846 169.144Z" fill="#121212" stroke="#464646" stroke-width="2.31495" stroke-miterlimit="10" stroke-linecap="round" stroke-linejoin="round"/>
<path d="M230.287 176.704L209.835 187.482C207.834 188.536 205.542 188.902 203.312 188.521C201.201 188.161 199.255 187.15 197.746 185.63C196.153 184.025 195.134 181.939 194.846 179.696L191.904 156.765" fill="#121212"/>
<path d="M230.287 176.704L209.835 187.482C207.834 188.536 205.542 188.902 203.312 188.521C201.201 188.161 199.255 187.15 197.746 185.63C196.153 184.025 195.134 181.939 194.846 179.696L191.904 156.765" stroke="#464646" stroke-width="2.31495" stroke-miterlimit="10" stroke-linecap="round" stroke-linejoin="round"/>
<path d="M200.303 187.51L185.448 216.107" stroke="#464646" stroke-width="2.31495" stroke-miterlimit="10" stroke-linecap="round" stroke-linejoin="round"/>
<path d="M198.173 222.717C197.671 223.683 191.569 221.507 184.543 217.857C177.516 214.207 172.227 210.466 172.729 209.5C173.231 208.534 179.333 210.71 186.359 214.36C193.385 218.009 198.675 221.751 198.173 222.717Z" fill="#121212" stroke="#464646" stroke-width="2.31495" stroke-miterlimit="10" stroke-linecap="round" stroke-linejoin="round"/>
<path d="M193.096 166.073C195.764 165.68 201.374 167.916 206.759 175.099C212.594 182.881 219.945 182.135 221.986 181.081L221.985 181.083C219.959 177.77 210.765 171.318 203.451 171.29" fill="#121212"/>
<path d="M193.096 166.073C195.764 165.68 201.374 167.916 206.759 175.099C212.594 182.881 219.945 182.135 221.986 181.081L221.985 181.083C219.959 177.77 210.765 171.318 203.451 171.29" stroke="#464646" stroke-width="2.31495" stroke-miterlimit="10" stroke-linecap="round" stroke-linejoin="round"/>
<path d="M119.976 101.39C130.414 101.39 138.875 99.79 138.875 97.8166C138.875 95.8432 130.414 94.2434 119.976 94.2434C109.538 94.2434 101.077 95.8432 101.077 97.8166C101.077 99.79 109.538 101.39 119.976 101.39Z" fill="#121212" stroke="#464646" stroke-width="2.31495" stroke-miterlimit="10" stroke-linecap="round" stroke-linejoin="round"/>
<path d="M138.875 97.8167C139.069 98.896 139.17 100.007 139.17 101.141C139.17 111.6 130.576 120.078 119.976 120.078C109.375 120.078 100.782 111.6 100.782 101.141C100.782 100.007 100.883 98.8962 101.077 97.8167" fill="#121212"/>
<path d="M138.875 97.8167C139.069 98.896 139.17 100.007 139.17 101.141C139.17 111.6 130.576 120.078 119.976 120.078C109.375 120.078 100.782 111.6 100.782 101.141C100.782 100.007 100.883 98.8962 101.077 97.8167" stroke="#464646" stroke-width="2.31495" stroke-miterlimit="10" stroke-linecap="round" stroke-linejoin="round"/>
<path d="M119.976 120.147V143.575" stroke="#464646" stroke-width="2.31495" stroke-miterlimit="10" stroke-linecap="round" stroke-linejoin="round"/>
<path d="M119.976 146.396C127.074 146.396 132.829 145.133 132.829 143.575C132.829 142.017 127.074 140.753 119.976 140.753C112.877 140.753 107.123 142.017 107.123 143.575C107.123 145.133 112.877 146.396 119.976 146.396Z" fill="#121212" stroke="#464646" stroke-width="2.31495" stroke-miterlimit="10" stroke-linecap="round" stroke-linejoin="round"/>
<path d="M138.748 105.083C138.748 105.083 135.586 104.5 123.989 108.296C107.469 113.703 101.077 104.5 101.077 104.5C101.077 104.5 110.531 101.164 126.836 107.399" fill="#121212"/>
<path d="M138.748 105.083C138.748 105.083 135.586 104.5 123.989 108.296C107.469 113.703 101.077 104.5 101.077 104.5C101.077 104.5 110.531 101.164 126.836 107.399" stroke="#464646" stroke-width="2.31495" stroke-miterlimit="10" stroke-linecap="round" stroke-linejoin="round"/>
<path d="M40.2575 178.15C46.7259 179.883 52.2261 180.331 52.5425 179.15C52.859 177.969 47.8718 175.607 41.4035 173.874C34.9351 172.14 29.4349 171.693 29.1184 172.874C28.802 174.055 33.7891 176.417 40.2575 178.15Z" fill="#121212" stroke="#464646" stroke-width="2.31495" stroke-miterlimit="10" stroke-linecap="round" stroke-linejoin="round"/>
<path d="M29.1182 172.874L23.0378 195.566C21.3046 202.034 25.1432 208.683 31.6117 210.416C38.0801 212.149 44.7287 208.311 46.4619 201.842L52.5423 179.15" fill="#121212"/>
<path d="M29.1182 172.874L23.0378 195.566C21.3046 202.034 25.1432 208.683 31.6117 210.416C38.0801 212.149 44.7287 208.311 46.4619 201.842L52.5423 179.15" stroke="#464646" stroke-width="2.31495" stroke-miterlimit="10" stroke-linecap="round" stroke-linejoin="round"/>
<path d="M44.5447 194.611C31.912 186.041 24.5437 189.949 24.5437 189.949C24.5437 189.949 24.157 193.194 35.0032 195.242C44.2173 196.981 49.1301 191.886 49.1301 191.886" fill="#121212"/>
<path d="M44.5447 194.611C31.912 186.041 24.5437 189.949 24.5437 189.949C24.5437 189.949 24.157 193.194 35.0032 195.242C44.2173 196.981 49.1301 191.886 49.1301 191.886" stroke="#464646" stroke-width="2.31495" stroke-miterlimit="10" stroke-linecap="round" stroke-linejoin="round"/>
<path d="M31.6116 210.416L24.7944 235.858" stroke="#464646" stroke-width="2.31495" stroke-miterlimit="10" stroke-linecap="round" stroke-linejoin="round"/>
<path d="M24.2216 237.997C30.69 239.73 36.1902 240.178 36.5067 238.997C36.8231 237.816 31.836 235.453 25.3676 233.72C18.8992 231.987 13.399 231.539 13.0826 232.72C12.7661 233.901 17.7533 236.263 24.2216 237.997Z" fill="#121212" stroke="#464646" stroke-width="2.31495" stroke-miterlimit="10" stroke-linecap="round" stroke-linejoin="round"/>
<rect x="273.557" y="231.645" width="233.501" height="100.566" rx="10" transform="rotate(-9.19238 273.557 231.645)" fill="#121212"/>
<rect x="441.26" y="188.563" width="39.5051" height="39.5051" rx="6" transform="rotate(-9.19238 441.26 188.563)" fill="#222222"/>
<mask id="mask2_2207_5043" style="mask-type:luminance" maskUnits="userSpaceOnUse" x="445" y="186" width="38" height="38">
<path fill-rule="evenodd" clip-rule="evenodd" d="M445.507 207.886C443.861 197.719 450.769 188.144 460.936 186.499C471.103 184.853 480.678 191.761 482.323 201.928C483.969 212.095 477.061 221.67 466.894 223.315C456.727 224.961 447.152 218.053 445.507 207.886Z" fill="white"/>
</mask>
<g mask="url(#mask2_2207_5043)">
<path fill-rule="evenodd" clip-rule="evenodd" d="M462.184 194.204C459.277 194.675 458.914 194.747 457.781 194.983C456.65 195.22 455.901 195.526 455.263 195.901C454.604 196.288 454.066 196.751 453.567 197.442C453.068 198.134 452.799 198.79 452.638 199.538C452.483 200.262 452.428 201.069 452.561 202.217C452.695 203.367 452.741 203.734 453.211 206.641C453.682 209.548 453.753 209.91 453.99 211.043C454.227 212.174 454.533 212.923 454.908 213.561C455.295 214.22 455.758 214.758 456.449 215.257C457.14 215.756 457.797 216.026 458.545 216.186C459.268 216.34 460.076 216.395 461.223 216.262C462.374 216.13 462.74 216.083 465.647 215.613C468.555 215.142 468.916 215.071 470.05 214.834C471.181 214.598 471.93 214.291 472.568 213.916C473.228 213.529 473.765 213.066 474.263 212.374C474.762 211.683 475.032 211.026 475.192 210.278C475.345 209.555 475.4 208.748 475.269 207.6C475.135 206.45 475.09 206.084 474.619 203.177C474.149 200.269 474.076 199.907 473.84 198.773C473.603 197.642 473.296 196.894 472.923 196.256C472.534 195.596 472.072 195.058 471.38 194.559C470.689 194.06 470.034 193.791 469.285 193.632C468.56 193.478 467.752 193.423 466.604 193.555C465.454 193.688 465.089 193.734 462.181 194.205L462.184 194.204ZM461.536 196.29C461.821 196.244 462.139 196.193 462.497 196.135C465.355 195.673 465.695 195.628 466.832 195.497C467.883 195.375 468.478 195.458 468.879 195.544C469.41 195.657 469.804 195.831 470.239 196.145C470.674 196.459 470.964 196.778 471.239 197.246C471.446 197.6 471.713 198.138 471.929 199.174C472.163 200.294 472.229 200.631 472.691 203.488C473.153 206.344 473.197 206.685 473.329 207.822C473.45 208.873 473.367 209.468 473.281 209.868C473.168 210.399 472.993 210.793 472.679 211.228C472.365 211.663 472.047 211.953 471.579 212.227C471.226 212.436 470.687 212.701 469.651 212.918C468.531 213.152 468.194 213.218 465.336 213.68C462.478 214.143 462.137 214.186 461 214.318C459.949 214.439 459.354 214.356 458.953 214.27C458.422 214.157 458.028 213.983 457.592 213.669C457.157 213.355 456.868 213.037 456.592 212.568C456.385 212.215 456.119 211.677 455.902 210.641C455.668 209.521 455.603 209.184 455.141 206.325C454.678 203.467 454.634 203.128 454.502 201.991C454.381 200.94 454.464 200.345 454.549 199.944C454.663 199.413 454.837 199.019 455.151 198.583C455.465 198.148 455.785 197.859 456.253 197.583C456.606 197.375 457.145 197.109 458.18 196.893C459.161 196.688 459.541 196.613 461.536 196.288L461.536 196.29ZM468.498 196.987C467.789 197.102 467.306 197.77 467.421 198.479C467.536 199.188 468.204 199.671 468.914 199.556C469.623 199.441 470.105 198.773 469.99 198.063C469.876 197.354 469.207 196.872 468.498 196.987L468.498 196.987ZM463.027 199.411C459.991 199.902 457.928 202.762 458.419 205.797C458.911 208.833 461.77 210.895 464.806 210.404C467.842 209.912 469.904 207.054 469.413 204.018C468.921 200.983 466.062 198.92 463.027 199.411L463.027 199.411ZM463.339 201.341C465.31 201.022 467.166 202.361 467.485 204.332C467.803 206.302 466.464 208.158 464.494 208.477C462.523 208.796 460.667 207.457 460.348 205.486C460.03 203.516 461.368 201.66 463.339 201.341Z" fill="white"/>
</g>
<rect x="290.545" y="274.768" width="207" height="7" rx="3.5" transform="rotate(-9.19238 290.545 274.768)" fill="#1E1E1E"/>
<rect x="292.734" y="288.293" width="207" height="7" rx="3.5" transform="rotate(-9.19238 292.734 288.293)" fill="#1E1E1E"/>
<rect x="294.858" y="301.421" width="106" height="7" rx="3.5" transform="rotate(-9.19238 294.858 301.421)" fill="#1E1E1E"/>
<rect x="286.711" y="251.076" width="119" height="11" rx="5.5" transform="rotate(-9.19238 286.711 251.076)" fill="#FFCF35"/>
<path d="M266.444 365.502C266.444 365.502 222.483 361.749 216.101 399.387C209.724 437.025 242.582 459.38 252.966 442.893C263.355 426.405 266.444 365.502 266.444 365.502Z" fill="#202020"/>
<path d="M408.488 381.618C408.488 381.618 418.943 343.755 417.234 319.142C415.525 294.529 409.384 286.561 405.701 286.305C402.019 286.048 399.648 301.69 399.648 301.69C399.648 301.69 397.403 278.605 389.318 278.191C381.229 277.77 380.948 298.257 380.948 298.257C380.948 298.257 375.946 282.107 369.852 285.814C363.759 289.52 365.038 335.659 365.038 335.659C365.038 335.659 355.079 322.705 350.327 325.512C345.576 328.314 350.446 346.408 355.332 355.998C360.222 365.594 370.094 372.693 370.094 372.693L408.488 381.618Z" fill="#FEC29E"/>
<path d="M404.964 327.055C404.984 326.949 404.991 326.846 404.986 326.736C404.94 326.027 404.326 325.487 403.611 325.532L367.446 327.884C366.73 327.935 366.212 328.565 366.243 329.259C366.289 329.969 366.903 330.508 367.618 330.463L403.783 328.111C404.383 328.063 404.86 327.621 404.964 327.055Z" fill="#1E1C1C"/>
<path d="M384.739 362.39C385.03 360.804 387.295 345.076 365.599 334.498C364.962 334.186 364.187 334.452 363.875 335.089C363.536 335.74 363.829 336.501 364.466 336.813C385.262 346.951 382.359 361.343 382.201 361.941C382.067 362.666 382.494 363.33 383.172 363.485C383.862 363.642 384.552 363.208 384.715 362.519C384.715 362.519 384.725 362.466 384.739 362.39Z" fill="#1E1C1C"/>
<path d="M424.981 365.675C424.981 365.675 458.856 445.916 432.221 497.391C405.586 548.872 306.921 545.99 306.921 545.99L293.173 467.286C293.173 467.286 337.986 466.954 354.639 440.873C367.121 421.322 358.478 371.656 358.478 371.656L424.981 365.675Z" fill="white"/>
<path d="M365.876 454.152C365.259 454.186 364.648 454.033 364.052 453.699C359.483 451.142 356.456 436.628 355.888 433.741C355.778 433.175 356.041 432.607 356.538 432.333C357.039 432.047 357.645 432.128 358.082 432.507C359.412 433.715 371.048 444.505 369.89 450.561C369.68 451.656 368.979 453.126 366.821 453.937C366.515 454.063 366.194 454.135 365.876 454.152ZM359.455 437.557C360.916 443.409 363.197 450.19 365.351 451.395C365.624 451.549 365.779 451.516 365.891 451.474C366.975 451.059 367.216 450.516 367.294 450.073C367.817 447.336 363.541 441.82 359.455 437.557Z" fill="#161616"/>
<path d="M222.347 481.176C222.347 481.176 204.763 484.493 194.154 491.113C183.539 497.734 171.483 535.823 171.483 535.823L226.037 596.656L274.879 568.497L222.347 481.176Z" fill="white"/>
<path d="M295.858 845.684C302.431 845.64 309.209 845.477 316.305 845.194C326.884 844.664 336.893 843.42 346.181 841.637C371.22 836.916 391.699 828.361 406.745 820.371C399.455 737.345 369.162 661.161 351.493 622.618C344.983 608.447 340.184 599.32 338.826 596.85C338.59 596.387 338.47 596.177 338.47 596.177L309.172 604.425L303.952 605.88L303.696 612.789L303.151 629.847L295.858 845.684Z" fill="#171717"/>
<path d="M208.649 732.51C220.304 804.14 228.893 828.719 228.893 828.719C228.893 828.719 227.678 832.872 225.646 839.993C242.409 842.937 266.265 845.766 295.874 845.672C302.413 845.654 309.228 845.501 316.309 845.17C326.878 844.683 336.867 843.41 346.197 841.631C349.248 828.545 351.11 819.543 351.604 817.157C360.332 775.359 317.001 624.402 317.001 624.402L309.153 604.42L227.203 617.902C227.203 617.902 196.993 660.85 208.649 732.51Z" fill="#1C1C1C"/>
<path d="M247.81 442.244L250.455 470.774C250.455 470.774 256.363 478.498 273.175 478.304C285.7 478.161 289.806 474.944 289.806 474.944L286.732 460.655L283.718 446.724L252.966 442.892L247.81 442.244Z" fill="#FEC29E"/>
<path d="M247.735 440.881C247.88 441.655 248.26 442.543 248.821 443.559C256.524 457.219 279.495 460.686 286.738 460.659L283.725 446.729L247.735 440.881Z" fill="#1E1C1C"/>
<path d="M284.049 381.108C284.049 381.108 302.336 415.489 298.276 435.905C294.217 456.327 275.764 454.584 264.568 451.562C253.373 448.54 247.803 442.247 247.803 442.247C247.803 442.247 237.893 446.482 230.354 437.542C222.815 428.602 226.168 417.406 231.788 414.473C237.408 411.533 244.643 415.195 244.643 415.195L238.428 405.274C238.428 405.274 257.17 350.973 284.049 381.108Z" fill="#FEC29E"/>
<path d="M290.123 395.314C289.949 395.312 282.915 394.665 282.915 394.665C282.256 394.605 281.761 394.019 281.826 393.359C281.886 392.7 282.476 392.156 283.138 392.27L290.171 392.917C290.83 392.977 291.32 393.563 291.26 394.229C291.203 394.827 290.711 395.282 290.123 395.314Z" fill="#1E1C1C"/>
<path d="M264.273 399.759C263.757 399.788 263.248 399.509 263.01 399.011C262.691 398.355 262.967 397.563 263.623 397.244L271.534 393.402C272.172 393.084 272.981 393.352 273.3 394.015C273.619 394.671 273.344 395.462 272.688 395.781L264.777 399.623C264.62 399.71 264.447 399.75 264.273 399.759Z" fill="#1E1C1C"/>
<path d="M286.831 421.046C286.651 421.056 286.457 421.025 286.278 420.95C285.596 420.687 285.258 419.918 285.528 419.241C288.574 411.431 281.07 407.267 280.748 407.092C280.103 406.743 279.866 405.943 280.216 405.298C280.559 404.654 281.364 404.411 282.003 404.755C285.443 406.592 291.119 412.181 287.993 420.194C287.799 420.71 287.335 421.018 286.831 421.046Z" fill="#1E1C1C"/>
<path d="M245.509 429.877C245.329 429.887 245.134 429.856 244.956 429.787L230.224 424.054C229.541 423.791 229.204 423.021 229.473 422.345C229.731 421.663 230.512 421.325 231.183 421.595L245.915 427.328C246.598 427.591 246.935 428.36 246.666 429.037C246.477 429.541 246.012 429.849 245.509 429.877Z" fill="#1E1C1C"/>
<path d="M232.89 433.905C232.548 433.924 232.205 433.805 231.927 433.561C231.388 433.068 231.348 432.228 231.835 431.683L237.824 425.077C238.318 424.545 239.146 424.505 239.702 424.986C240.241 425.479 240.281 426.32 239.794 426.864L233.805 433.47C233.555 433.742 233.226 433.887 232.89 433.905Z" fill="#1E1C1C"/>
<path d="M295.91 410.9C295.91 410.9 292.408 400.215 280.447 388.986C268.486 377.763 268.486 377.763 268.486 377.763C268.486 377.763 270.989 400.122 261.488 410.357C251.987 420.592 244.645 415.21 244.645 415.21L224.484 399.427L266.444 365.512C266.444 365.512 295.084 362.463 295.91 410.9Z" fill="#202020"/>
<path d="M286.812 468.018L312.827 470.168C312.827 470.168 345.852 497.19 342.142 524.915C339.662 543.439 338.565 547.861 338.565 547.861L347.787 606.274C347.787 606.274 326.153 626.373 287.751 632.53C249.349 638.68 215.982 629.006 215.982 629.006C215.982 629.006 214.119 490.922 213.472 479.201C213.047 471.295 286.812 468.018 286.812 468.018Z" fill="white"/>
<path d="M287.936 466.241L299.186 469.044C299.186 469.044 304.055 490.014 278.772 492.715C252.238 495.552 229.831 473.185 229.831 473.185L252.863 468.177L287.936 466.241Z" fill="#FEC29E"/>
<path d="M276.569 494.226C248.571 495.717 229.634 474.957 228.845 474.074C228.358 473.53 228.402 472.697 228.946 472.203C229.486 471.728 230.323 471.748 230.817 472.305C231.003 472.511 249.727 493 276.332 491.579C285 491.101 291.145 488.518 294.704 483.887C299.56 477.56 297.906 469.402 297.89 469.319C297.742 468.605 298.196 467.9 298.91 467.747C299.658 467.567 300.322 468.054 300.482 468.767C300.563 469.147 302.414 478.155 296.826 485.473C292.779 490.762 285.968 493.707 276.569 494.226Z" fill="#161616"/>
<path d="M339.741 544.761C339.543 544.772 339.343 544.735 339.146 544.656C338.48 544.368 338.161 543.591 338.448 542.919C349.02 518.058 323.875 485.771 323.616 485.448C323.169 484.871 323.262 484.041 323.838 483.588C324.421 483.135 325.251 483.234 325.697 483.805C326.784 485.171 352.077 517.637 340.883 543.958C340.68 544.433 340.227 544.734 339.741 544.761Z" fill="#161616"/>
<path d="M257.646 586.14C257.646 586.14 305.962 573.54 318.506 577.77C331.044 581.999 323.465 623.025 320.188 630.588C316.917 638.151 265.896 629.878 265.896 629.878L250.134 609.846L257.646 586.14Z" fill="#FEC29E"/>
<path d="M318.508 577.776C318.508 577.776 349.289 596.287 351.12 608.767C352.952 621.247 315.022 597.036 315.022 597.036L318.508 577.776Z" fill="#FEC29E"/>
<path d="M301.955 629.782C301.955 629.782 277.184 636.865 285.546 643.269C293.907 649.672 318.154 637.113 320.189 630.599C322.224 624.085 303.542 617.114 303.542 617.114L301.955 629.782Z" fill="#FEC29E"/>
<path d="M226.304 473.824C226.304 473.824 124.246 498.091 125.718 575.559C126.827 634.035 265.547 644.248 265.547 644.248L268.702 579.094L181.829 525.183L226.304 473.824Z" fill="white"/>
<path d="M263.285 573.836C263.105 573.846 262.922 573.814 262.738 573.746C262.222 573.552 211.01 554.086 190.627 555.211C189.878 555.253 189.251 554.692 189.211 553.96C189.17 553.222 189.779 552.599 190.481 552.56C211.422 551.404 261.558 570.46 263.684 571.269C264.367 571.532 264.71 572.295 264.446 572.978C264.258 573.488 263.788 573.809 263.285 573.836Z" fill="#161616"/>
<path d="M225.033 561.224C224.775 561.238 224.513 561.174 224.282 561.036C217.856 557.203 202.993 547.807 203.784 543.383C203.926 542.581 204.501 541.551 206.431 541.192C215.383 539.542 225.061 557.257 226.129 559.286C226.405 559.812 226.302 560.456 225.867 560.865C225.639 561.082 225.339 561.207 225.033 561.224ZM207.443 543.735C207.269 543.745 207.09 543.767 206.917 543.8C206.453 543.886 206.314 543.996 206.314 543.996C206.37 545.437 212.756 550.602 221.089 555.948C217.524 550.435 211.948 543.486 207.443 543.735Z" fill="#161616"/>
<path d="M299.737 634.058L291.903 634.49C291.423 634.517 290.965 634.277 290.708 633.864C290.451 633.457 290.44 632.94 290.681 632.512L294.255 626.19C294.611 625.556 295.423 625.331 296.063 625.693C296.702 626.049 296.921 626.861 296.56 627.5L294.175 631.717L299.586 631.419C300.317 631.378 300.944 631.939 300.985 632.671C301.024 633.391 300.469 634.018 299.737 634.058Z" fill="#1E1C1C"/>
<path d="M325.88 602.796C325.52 602.816 325.152 602.686 324.872 602.412C321.556 599.112 315.562 593.655 313.612 593.082C312.914 592.874 312.513 592.138 312.715 591.435C312.923 590.738 313.652 590.33 314.362 590.538C317.53 591.47 325.234 599.035 326.742 600.534C327.258 601.053 327.262 601.883 326.743 602.411C326.51 602.647 326.198 602.778 325.88 602.796Z" fill="#1E1C1C"/>
<path d="M323.825 617.32C323.507 617.338 323.183 617.235 322.918 617.021L307.723 604.653C307.156 604.191 307.068 603.354 307.53 602.787C307.998 602.219 308.836 602.137 309.396 602.593L324.591 614.961C325.158 615.424 325.247 616.261 324.785 616.828C324.531 617.137 324.179 617.301 323.825 617.32Z" fill="#1E1C1C"/>
<path d="M273.456 412.647C272.886 412.679 272.338 412.336 272.138 411.775L270.39 406.926C270.306 406.702 270.287 406.462 270.334 406.231L271.214 401.568C271.343 400.851 272.049 400.354 272.762 400.513C273.48 400.648 273.951 401.338 273.816 402.062L273.007 406.366L274.634 410.879C274.883 411.57 274.527 412.323 273.843 412.578C273.707 412.615 273.576 412.64 273.456 412.647Z" fill="#1E1C1C"/>
<path d="M290.891 409.237C290.321 409.268 289.773 408.932 289.573 408.365L287.826 403.522C287.741 403.298 287.722 403.058 287.769 402.827L288.649 398.157C288.778 397.44 289.484 396.944 290.197 397.103C290.914 397.238 291.386 397.928 291.251 398.652L290.442 402.962L292.063 407.469C292.312 408.16 291.956 408.913 291.272 409.162C291.142 409.205 291.017 409.23 290.891 409.237Z" fill="#1E1C1C"/>
<path d="M278.868 437.446C278.592 437.462 278.308 437.441 278.015 437.373C275.071 436.681 272.892 430.237 272.297 428.279C272.144 427.794 272.289 427.274 272.655 426.923C273.021 426.572 273.558 426.482 274.024 426.649L283.406 430.168C283.744 430.294 284.016 430.55 284.155 430.885C284.3 431.22 284.302 431.587 284.158 431.92C283.772 432.874 281.771 437.286 278.868 437.446ZM275.762 430.121C276.779 432.64 277.961 434.638 278.631 434.794C279.154 435.006 280.256 433.706 281.132 432.135L275.762 430.121Z" fill="#1E1C1C"/>
<path d="M219.432 428.364C218.88 428.394 218.345 428.069 218.128 427.533C210 407.043 218.569 387.329 218.938 386.496C219.238 385.83 220.022 385.528 220.688 385.822C221.354 386.122 221.656 386.9 221.362 387.572C221.27 387.764 212.881 407.125 220.595 426.549C220.868 427.232 220.537 427.996 219.854 428.268C219.712 428.324 219.57 428.356 219.432 428.364Z" fill="#272726"/>
<path d="M214.058 403.924C209.422 404.18 190.117 404.668 187.563 395.236C186.981 393.084 187.744 391.881 188.492 391.256C191.736 388.55 202.2 392.045 209.809 395.169C201.518 386.77 187.78 370.838 194.115 363.07C195.704 361.129 197.462 360.936 198.642 361.153C207.149 362.561 217.596 389.974 218.755 393.093C219.01 393.777 218.667 394.536 217.977 394.791C217.287 395.045 216.528 394.702 216.279 394.012C212.091 382.781 203.484 364.629 198.208 363.758C197.709 363.666 197.007 363.704 196.168 364.744C190.443 371.762 209.266 391.433 216.991 398.413C217.479 398.855 217.573 399.584 217.206 400.128C216.84 400.684 216.128 400.867 215.541 400.599C205.059 395.66 192.353 391.446 190.193 393.298C189.963 393.485 189.938 393.913 190.118 394.553C192.006 401.513 208.57 401.832 214.812 401.229C215.651 401.056 216.181 401.719 216.245 402.443C216.303 403.174 215.755 403.812 215.031 403.876C214.922 403.87 214.586 403.895 214.058 403.924Z" fill="#272726"/>
<path d="M385.786 715.016C385.158 714.972 374.53 713.952 366.875 702.468C360.374 692.712 366.666 676.667 369.107 671.286C365.071 670.865 356.156 669.149 352.859 662.075C347.614 650.872 358.362 640.767 358.819 640.338C359.357 639.839 360.189 639.872 360.688 640.41C361.181 640.948 361.155 641.78 360.617 642.279C360.514 642.369 350.838 651.501 355.252 660.95C358.786 668.504 371.032 668.761 371.152 668.767C371.61 668.771 372.039 669.018 372.271 669.409C372.509 669.799 372.523 670.285 372.317 670.694C372.22 670.892 362.206 690.68 369.074 700.986C376 711.362 385.73 712.353 385.833 712.366C386.558 712.434 387.099 713.072 387.037 713.798C386.972 714.469 386.44 714.98 385.786 715.016Z" fill="#353535"/>
<path d="M352.175 822.601C351.25 822.525 350.715 821.875 350.783 821.149C356.031 766.342 321.673 648.776 321.325 647.598C321.177 647.089 321.345 646.538 321.754 646.196L339.395 631.595C339.948 631.143 340.781 631.199 341.264 631.774C341.729 632.338 341.648 633.167 341.085 633.644L324.11 647.685C327.212 658.428 358.482 768.553 353.415 821.407C353.355 822.066 352.817 822.565 352.175 822.601Z" fill="#353535"/>
<path d="M244.397 451.809C249.107 451.549 252.716 447.519 252.456 442.808C252.196 438.097 248.166 434.489 243.455 434.749C238.744 435.009 235.136 439.039 235.396 443.75C235.656 448.46 239.686 452.069 244.397 451.809Z" fill="#FFBE1D"/>
<rect x="123.078" y="655.255" width="539.554" height="23.7872" fill="#373737"/>
</g>
<rect x="497.636" y="434.95" width="175.85" height="80.2529" rx="10" transform="rotate(-12.0279 497.636 434.95)" fill="#121212" fill-opacity="0.63"/>
<rect x="514.602" y="468.227" width="156.56" height="5.29429" rx="2.64715" transform="rotate(-12.0279 514.602 468.227)" fill="#1E1E1E" fill-opacity="0.69"/>
<rect x="516.761" y="478.362" width="156.56" height="5.29429" rx="2.64715" transform="rotate(-12.0279 516.761 478.362)" fill="#1E1E1E" fill-opacity="0.69"/>
<rect x="518.857" y="488.199" width="80.1707" height="5.29429" rx="2.64715" transform="rotate(-12.0279 518.857 488.199)" fill="#1E1E1E" fill-opacity="0.69"/>
<rect x="511.068" y="451.776" width="81.3126" height="6.39615" rx="3.19808" transform="rotate(-12.0279 511.068 451.776)" fill="#FFCF35"/>
<rect x="622.773" y="394.466" width="30.4883" height="30.4883" rx="5.12872" transform="rotate(-12.0279 622.773 394.466)" fill="#222222"/>
<path d="M638.415 406.851L642.739 405.93" stroke="white" stroke-width="0.94728" stroke-miterlimit="10" stroke-linecap="round" stroke-linejoin="round"/>
<path d="M638.942 409.322L641.647 408.746" stroke="white" stroke-width="0.94728" stroke-miterlimit="10" stroke-linecap="round" stroke-linejoin="round"/>
<path d="M638.834 402.759L641.305 402.232C642.54 401.969 642.409 401.351 642.277 400.734C642.014 399.498 641.396 399.63 640.779 399.762L638.308 400.288C637.69 400.42 637.073 400.551 637.336 401.787C637.599 403.022 638.217 402.89 638.834 402.759Z" stroke="white" stroke-width="0.94728" stroke-miterlimit="10" stroke-linecap="round" stroke-linejoin="round"/>
<path d="M642.28 400.746C644.36 400.419 645.554 400.959 646.155 403.782L646.945 407.488C647.471 409.958 647.117 411.325 644.029 411.983L640.323 412.773C637.234 413.431 636.353 412.327 635.827 409.856L635.037 406.15C634.437 403.334 635.306 402.348 637.339 401.799" stroke="white" stroke-width="0.94728" stroke-miterlimit="10" stroke-linecap="round" stroke-linejoin="round"/>
<rect x="437.004" y="314.196" width="175.85" height="78.3076" rx="10" transform="rotate(4.22474 437.004 314.196)" fill="#121212"/>
<rect x="565.879" y="309.034" width="31.2058" height="31.2058" rx="5.24942" transform="rotate(4.22474 565.879 309.034)" fill="#222222"/>
<path fill-rule="evenodd" clip-rule="evenodd" d="M580.134 322.718L580.127 323.275L579.571 323.166C577.55 322.755 575.833 321.74 574.429 320.146L573.743 319.355L573.513 319.885C573.02 321.066 573.183 322.364 573.96 323.286C574.374 323.794 574.268 323.855 573.515 323.515C573.253 323.404 573.022 323.319 572.997 323.351C572.913 323.425 573.106 324.475 573.289 324.898C573.539 325.485 574.092 326.084 574.718 326.46L575.248 326.761L574.597 326.724C573.969 326.678 573.946 326.687 573.995 326.93C574.165 327.682 574.993 328.528 575.955 328.941L576.632 329.23L576 329.547C575.065 330.002 573.989 330.218 572.934 330.163C572.428 330.137 572.01 330.152 572.008 330.186C571.999 330.299 573.32 331.034 574.098 331.341C576.431 332.253 579.291 332.146 581.514 331.047C583.093 330.265 584.738 328.6 585.571 326.932C586.02 326.043 586.525 324.396 586.584 323.593C586.623 323.072 586.661 323.007 587.335 322.431C587.732 322.096 588.109 321.725 588.184 321.617C588.312 321.41 588.301 321.409 587.715 321.56C586.737 321.829 586.606 321.774 587.114 321.299C587.489 320.963 587.952 320.337 587.966 320.144C587.969 320.11 587.796 320.155 587.598 320.242C587.388 320.341 586.927 320.477 586.583 320.554L585.964 320.702L585.442 320.288C585.154 320.062 584.745 319.804 584.526 319.72C583.966 319.519 583.09 319.477 582.561 319.62C581.122 320.026 580.139 321.273 580.134 322.718Z" fill="white"/>
<rect x="443.651" y="349.892" width="156.56" height="5.29429" rx="2.64715" transform="rotate(4.22474 443.651 349.892)" fill="#1E1E1E"/>
<rect x="442.887" y="360.226" width="156.56" height="5.29429" rx="2.64715" transform="rotate(4.22474 442.887 360.226)" fill="#1E1E1E"/>
<rect x="442.146" y="370.257" width="80.1707" height="5.29429" rx="2.64715" transform="rotate(4.22474 442.146 370.257)" fill="#1E1E1E"/>
<rect x="444.921" y="332.311" width="84" height="8" rx="4" transform="rotate(4.22474 444.921 332.311)" fill="#FFCF35"/>
</svg>
