<svg width="428" height="927" viewBox="0 0 428 927" fill="none" xmlns="http://www.w3.org/2000/svg">
<g clip-path="url(#clip0_2207_7920)">
<rect x="-22.185" y="46.6652" width="94.0423" height="124.723" rx="47.0211" transform="rotate(17.6719 -22.185 46.6652)" fill="#121212" stroke="#030303" stroke-width="5.22557"/>
<rect x="79.1815" y="-36.6877" width="94.0423" height="126.732" rx="47.0211" transform="rotate(114.683 79.1815 -36.6877)" fill="#121212" stroke="#030303" stroke-width="5.22557"/>
<rect x="139.722" y="28.9778" width="104.083" height="104.084" rx="52.0414" transform="rotate(114.683 139.722 28.9778)" fill="#121212" stroke="#030303" stroke-width="5.22557"/>
<rect x="194.677" y="90.2405" width="93.6173" height="93.618" rx="9.66199" transform="rotate(118.746 194.677 90.2405)" fill="#121212" stroke="#030303" stroke-width="5.22557"/>
<path d="M-9.38715 -38.4681C-9.38715 -38.4681 21.7962 -40.3911 7.78351 -16.8888C-6.63564 6.36638 -19.2764 -22.2047 -19.2764 -22.2047" fill="#121212"/>
<path d="M-9.38715 -38.4681C-9.38715 -38.4681 21.7962 -40.3911 7.78351 -16.8888C-6.63564 6.36638 -19.2764 -22.2047 -19.2764 -22.2047" stroke="#464646" stroke-width="1.56767" stroke-miterlimit="10" stroke-linecap="round" stroke-linejoin="round"/>
<path d="M19.7802 -9.59393C23.1009 -15.055 24.8211 -20.0729 23.6224 -20.8018C22.4237 -21.5307 18.76 -17.6946 15.4393 -12.2335C12.1186 -6.7725 10.3984 -1.75457 11.5971 -1.02566C12.7958 -0.296752 16.4595 -4.1329 19.7802 -9.59393Z" fill="#121212" stroke="#464646" stroke-width="1.56767" stroke-miterlimit="10" stroke-linecap="round" stroke-linejoin="round"/>
<path d="M139.8 92.0708C147.95 96.304 155.028 98.8276 155.61 97.7073C156.191 96.5871 150.057 92.2473 141.908 88.014C133.758 83.7808 126.68 81.2573 126.098 82.3775C125.516 83.4977 131.651 87.8376 139.8 92.0708Z" fill="#121212" stroke="#464646" stroke-width="1.56767" stroke-miterlimit="10" stroke-linecap="round" stroke-linejoin="round"/>
<path d="M155.516 97.8831L139.792 106.17C138.253 106.981 136.491 107.262 134.777 106.969C133.153 106.692 131.657 105.915 130.497 104.746C129.272 103.512 128.488 101.908 128.267 100.184L126.005 82.5532" fill="#121212"/>
<path d="M155.516 97.8831L139.792 106.17C138.253 106.981 136.491 107.262 134.777 106.969C133.153 106.692 131.657 105.915 130.497 104.746C129.272 103.512 128.488 101.908 128.267 100.184L126.005 82.5532" stroke="#464646" stroke-width="1.56767" stroke-miterlimit="10" stroke-linecap="round" stroke-linejoin="round"/>
<path d="M132.463 106.192L121.042 128.179" stroke="#464646" stroke-width="1.56767" stroke-miterlimit="10" stroke-linecap="round" stroke-linejoin="round"/>
<path d="M130.825 133.261C130.439 134.003 125.748 132.33 120.345 129.524C114.943 126.718 110.877 123.841 111.262 123.099C111.648 122.356 116.34 124.029 121.742 126.835C127.144 129.641 131.211 132.518 130.825 133.261Z" fill="#121212" stroke="#464646" stroke-width="1.56767" stroke-miterlimit="10" stroke-linecap="round" stroke-linejoin="round"/>
<path d="M126.922 89.7099C128.973 89.4071 133.287 91.1269 137.427 96.6493C141.913 102.632 147.565 102.059 149.134 101.248L149.134 101.25C147.576 98.7026 140.507 93.7422 134.883 93.7206" fill="#121212"/>
<path d="M126.922 89.7099C128.973 89.4071 133.287 91.1269 137.427 96.6493C141.913 102.632 147.565 102.059 149.134 101.248L149.134 101.25C147.576 98.7026 140.507 93.7422 134.883 93.7206" stroke="#464646" stroke-width="1.56767" stroke-miterlimit="10" stroke-linecap="round" stroke-linejoin="round"/>
<path d="M70.703 39.9774C78.7281 39.9774 85.2337 38.7474 85.2337 37.2302C85.2337 35.7129 78.7281 34.4829 70.703 34.4829C62.6779 34.4829 56.1722 35.7129 56.1722 37.2302C56.1722 38.7474 62.6779 39.9774 70.703 39.9774Z" fill="#121212" stroke="#464646" stroke-width="1.56767" stroke-miterlimit="10" stroke-linecap="round" stroke-linejoin="round"/>
<path d="M85.2335 37.2302C85.3825 38.0601 85.4603 38.9143 85.4603 39.7863C85.4603 47.8276 78.8531 54.3463 70.7028 54.3463C62.5525 54.3463 55.9453 47.8274 55.9453 39.7863C55.9453 38.9144 56.023 38.0603 56.172 37.2302" fill="#121212"/>
<path d="M85.2335 37.2302C85.3825 38.0601 85.4603 38.9143 85.4603 39.7863C85.4603 47.8276 78.8531 54.3463 70.7028 54.3463C62.5525 54.3463 55.9453 47.8274 55.9453 39.7863C55.9453 38.9144 56.023 38.0603 56.172 37.2302" stroke="#464646" stroke-width="1.56767" stroke-miterlimit="10" stroke-linecap="round" stroke-linejoin="round"/>
<path d="M70.7029 54.3994V72.4116" stroke="#464646" stroke-width="1.56767" stroke-miterlimit="10" stroke-linecap="round" stroke-linejoin="round"/>
<path d="M70.7028 74.5808C76.1606 74.5808 80.585 73.6096 80.585 72.4116C80.585 71.2136 76.1606 70.2424 70.7028 70.2424C65.2451 70.2424 60.8207 71.2136 60.8207 72.4116C60.8207 73.6096 65.2451 74.5808 70.7028 74.5808Z" fill="#121212" stroke="#464646" stroke-width="1.56767" stroke-miterlimit="10" stroke-linecap="round" stroke-linejoin="round"/>
<path d="M85.1362 42.817C85.1362 42.817 82.7048 42.3686 73.788 45.2873C61.0868 49.4447 56.1722 42.3686 56.1722 42.3686C56.1722 42.3686 63.4408 39.8041 75.9773 44.5975" fill="#121212"/>
<path d="M85.1362 42.817C85.1362 42.817 82.7048 42.3686 73.788 45.2873C61.0868 49.4447 56.1722 42.3686 56.1722 42.3686C56.1722 42.3686 63.4408 39.8041 75.9773 44.5975" stroke="#464646" stroke-width="1.56767" stroke-miterlimit="10" stroke-linecap="round" stroke-linejoin="round"/>
<path d="M9.41095 98.9954C14.3842 100.328 18.6131 100.672 18.8564 99.7642C19.0997 98.8562 15.2653 97.0399 10.292 95.7073C5.31874 94.3747 1.08988 94.0305 0.846582 94.9385C0.603286 95.8465 4.43769 97.6628 9.41095 98.9954Z" fill="#121212" stroke="#464646" stroke-width="1.56767" stroke-miterlimit="10" stroke-linecap="round" stroke-linejoin="round"/>
<path d="M0.846069 94.9385L-3.82883 112.385C-5.16142 117.359 -2.21009 122.471 2.76321 123.803C7.7365 125.136 12.8484 122.184 14.181 117.211L18.8559 99.7642" fill="#121212"/>
<path d="M0.846069 94.9385L-3.82883 112.385C-5.16142 117.359 -2.21009 122.471 2.76321 123.803C7.7365 125.136 12.8484 122.184 14.181 117.211L18.8559 99.7642" stroke="#464646" stroke-width="1.56767" stroke-miterlimit="10" stroke-linecap="round" stroke-linejoin="round"/>
<path d="M12.707 111.651C2.99428 105.062 -2.67087 108.067 -2.67087 108.067C-2.67087 108.067 -2.96814 110.562 5.37104 112.136C12.4553 113.474 16.2326 109.556 16.2326 109.556" fill="#121212"/>
<path d="M12.707 111.651C2.99428 105.062 -2.67087 108.067 -2.67087 108.067C-2.67087 108.067 -2.96814 110.562 5.37104 112.136C12.4553 113.474 16.2326 109.556 16.2326 109.556" stroke="#464646" stroke-width="1.56767" stroke-miterlimit="10" stroke-linecap="round" stroke-linejoin="round"/>
<path d="M2.76337 123.803L-2.47808 143.365" stroke="#464646" stroke-width="1.56767" stroke-miterlimit="10" stroke-linecap="round" stroke-linejoin="round"/>
<path d="M-2.91864 145.009C2.05463 146.341 6.28349 146.685 6.52678 145.777C6.77008 144.869 2.93568 143.053 -2.03759 141.72C-7.01085 140.388 -11.2397 140.044 -11.483 140.952C-11.7263 141.86 -7.8919 143.676 -2.91864 145.009Z" fill="#121212" stroke="#464646" stroke-width="1.56767" stroke-miterlimit="10" stroke-linecap="round" stroke-linejoin="round"/>
<rect x="324.9" y="64.8282" width="92.5892" height="122.776" rx="46.2946" transform="rotate(17.6719 324.9 64.8282)" fill="#121212" stroke="#030303" stroke-width="5.07929"/>
<rect x="424.693" y="-17.1577" width="92.5892" height="124.752" rx="46.2946" transform="rotate(114.683 424.693 -17.1577)" fill="#121212" stroke="#030303" stroke-width="5.07929"/>
<rect x="484.258" y="47.4495" width="102.468" height="102.469" rx="51.2339" transform="rotate(114.683 484.258 47.4495)" fill="#121212" stroke="#030303" stroke-width="5.07929"/>
<rect x="538.33" y="107.728" width="92.1711" height="92.1718" rx="9.39153" transform="rotate(118.746 538.33 107.728)" fill="#121212" stroke="#030303" stroke-width="5.07929"/>
<path d="M354.135 123.335C360.2 124.96 365.297 125.602 365.521 124.768C365.744 123.935 361.009 121.942 354.944 120.317C348.88 118.692 343.782 118.05 343.559 118.884C343.336 119.717 348.071 121.71 354.135 123.335Z" stroke="#464646" stroke-width="1.52379" stroke-miterlimit="10" stroke-linecap="round" stroke-linejoin="round"/>
<path d="M360.084 137.747C350.351 131.573 337.13 129.73 334.904 132.577" stroke="#464646" stroke-width="1.52379" stroke-miterlimit="10" stroke-linecap="round" stroke-linejoin="round"/>
<path d="M365.521 124.768C365.521 124.768 373.592 162.424 345.806 154.423C317.741 147.459 343.559 118.884 343.559 118.884" stroke="#464646" stroke-width="1.52379" stroke-miterlimit="10" stroke-linecap="round" stroke-linejoin="round"/>
<path d="M334.637 132.818C334.312 138.462 366.271 140.303 366.596 134.66" stroke="#464646" stroke-width="1.52379" stroke-miterlimit="10" stroke-linecap="round" stroke-linejoin="round"/>
<path d="M416.311 58.2876C424.207 58.2876 430.608 57.0774 430.608 55.5846C430.608 54.0918 424.207 52.8816 416.311 52.8816C408.415 52.8816 402.014 54.0918 402.014 55.5846C402.014 57.0774 408.415 58.2876 416.311 58.2876Z" stroke="#464646" stroke-width="1.52379" stroke-miterlimit="10" stroke-linecap="round" stroke-linejoin="round"/>
<path d="M430.607 55.5845C430.754 56.401 430.831 57.2414 430.831 58.0994C430.831 66.0111 424.33 72.4247 416.311 72.4247C408.292 72.4247 401.791 66.0109 401.791 58.0994C401.791 57.2416 401.868 56.4012 402.014 55.5845" stroke="#464646" stroke-width="1.52379" stroke-miterlimit="10" stroke-linecap="round" stroke-linejoin="round"/>
<path d="M416.311 72.4771V90.199" stroke="#464646" stroke-width="1.52379" stroke-miterlimit="10" stroke-linecap="round" stroke-linejoin="round"/>
<path d="M416.311 92.3334C421.681 92.3334 426.034 91.3779 426.034 90.1992C426.034 89.0205 421.681 88.0649 416.311 88.0649C410.941 88.0649 406.588 89.0205 406.588 90.1992C406.588 91.3779 410.941 92.3334 416.311 92.3334Z" stroke="#464646" stroke-width="1.52379" stroke-miterlimit="10" stroke-linecap="round" stroke-linejoin="round"/>
<path d="M430.512 61.0812C430.512 61.0812 428.12 60.64 419.346 63.5117C406.85 67.6021 402.014 60.64 402.014 60.64C402.014 60.64 409.166 58.1168 421.5 62.833" stroke="#464646" stroke-width="1.52379" stroke-miterlimit="10" stroke-linecap="round" stroke-linejoin="round"/>
<path d="M340.628 -25.1617C340.628 -25.1617 346.629 -22.1276 346.549 -15.885C346.531 -14.5179 347.033 -13.1916 347.964 -12.1908C349.684 -10.3426 351.678 -6.69589 348.524 -1.2338C345.371 4.2283 341.216 4.3252 338.755 3.75963C337.423 3.45331 336.023 3.682 334.848 4.3809C329.482 7.57224 323.854 3.89204 323.854 3.89204" stroke="#464646" stroke-width="1.52379" stroke-miterlimit="10" stroke-linecap="round" stroke-linejoin="round"/>
<path d="M334.503 -9.32902C339.136 -17.3533 341.888 -24.4376 340.65 -25.1521C339.413 -25.8667 334.654 -19.941 330.021 -11.9167C325.388 -3.89242 322.636 3.19182 323.874 3.90639C325.111 4.62096 329.87 -1.30474 334.503 -9.32902Z" stroke="#464646" stroke-width="1.52379" stroke-miterlimit="10" stroke-linecap="round" stroke-linejoin="round"/>
<path d="M348.524 -1.23364L365.407 8.51363" stroke="#464646" stroke-width="1.52379" stroke-miterlimit="10" stroke-linecap="round" stroke-linejoin="round"/>
<path d="M367.349 9.63471C370.169 4.74891 371.587 0.286238 370.514 -0.332939C369.442 -0.952116 366.286 2.50667 363.465 7.39248C360.644 12.2783 359.227 16.741 360.299 17.3601C361.372 17.9793 364.528 14.5205 367.349 9.63471Z" stroke="#464646" stroke-width="1.52379" stroke-miterlimit="10" stroke-linecap="round" stroke-linejoin="round"/>
<path d="M345.282 -20.6518C336.659 -11.8055 339.613 -0.392541 330.078 5.68229C328.729 4.0382 333.161 -5.53137 339.949 -12.0879" stroke="#464646" stroke-width="1.52379" stroke-miterlimit="10" stroke-linecap="round" stroke-linejoin="round"/>
<g filter="url(#filter0_d_2207_7920)">
<mask id="mask0_2207_7920" style="mask-type:alpha" maskUnits="userSpaceOnUse" x="-51" y="240" width="530" height="331">
<rect x="-50.8972" y="240.431" width="529.794" height="329.88" fill="#FFCC4C"/>
</mask>
<g mask="url(#mask0_2207_7920)">
<rect x="134.548" y="283.941" width="157.204" height="67.7061" rx="6.73247" transform="rotate(-9.19238 134.548 283.941)" fill="#121212"/>
<rect x="247.454" y="254.936" width="26.5967" height="26.5967" rx="4.03948" transform="rotate(-9.19238 247.454 254.936)" fill="#222222"/>
<mask id="mask1_2207_7920" style="mask-type:luminance" maskUnits="userSpaceOnUse" x="250" y="253" width="26" height="26">
<path fill-rule="evenodd" clip-rule="evenodd" d="M250.313 267.945C249.205 261.1 253.856 254.654 260.7 253.546C267.545 252.438 273.992 257.089 275.099 263.934C276.207 270.779 271.556 277.225 264.712 278.333C257.867 279.441 251.42 274.79 250.313 267.945Z" fill="white"/>
</mask>
<g mask="url(#mask1_2207_7920)">
<path fill-rule="evenodd" clip-rule="evenodd" d="M261.541 258.734C259.584 259.051 259.339 259.099 258.576 259.258C257.815 259.418 257.311 259.624 256.881 259.876C256.437 260.137 256.075 260.448 255.739 260.914C255.403 261.379 255.222 261.821 255.114 262.325C255.01 262.812 254.973 263.356 255.062 264.128C255.152 264.903 255.183 265.15 255.5 267.107C255.817 269.064 255.865 269.308 256.024 270.071C256.184 270.832 256.39 271.336 256.642 271.766C256.903 272.21 257.214 272.572 257.68 272.908C258.145 273.244 258.587 273.425 259.091 273.533C259.578 273.637 260.121 273.674 260.894 273.585C261.668 273.495 261.915 273.464 263.872 273.147C265.83 272.831 266.073 272.782 266.836 272.623C267.598 272.464 268.102 272.257 268.532 272.005C268.976 271.744 269.338 271.432 269.673 270.967C270.009 270.501 270.19 270.059 270.298 269.556C270.401 269.069 270.438 268.525 270.35 267.752C270.26 266.978 270.23 266.732 269.913 264.775C269.596 262.817 269.547 262.573 269.388 261.81C269.228 261.049 269.022 260.545 268.771 260.115C268.509 259.671 268.198 259.309 267.732 258.973C267.266 258.637 266.826 258.456 266.322 258.349C265.833 258.245 265.29 258.208 264.517 258.297C263.742 258.387 263.496 258.418 261.539 258.734L261.541 258.734ZM261.105 260.138C261.296 260.107 261.511 260.073 261.751 260.034C263.675 259.722 263.904 259.692 264.67 259.604C265.378 259.522 265.778 259.578 266.048 259.636C266.406 259.712 266.671 259.829 266.963 260.041C267.257 260.252 267.452 260.467 267.637 260.782C267.777 261.02 267.956 261.382 268.102 262.08C268.259 262.834 268.303 263.061 268.615 264.984C268.926 266.907 268.955 267.137 269.044 267.902C269.125 268.61 269.07 269.01 269.012 269.28C268.936 269.637 268.818 269.902 268.607 270.195C268.395 270.488 268.181 270.683 267.866 270.868C267.628 271.008 267.265 271.187 266.568 271.333C265.814 271.49 265.587 271.535 263.663 271.846C261.738 272.158 261.509 272.187 260.744 272.275C260.036 272.357 259.636 272.301 259.365 272.243C259.008 272.167 258.743 272.05 258.45 271.839C258.156 271.627 257.962 271.413 257.776 271.098C257.636 270.86 257.457 270.497 257.312 269.8C257.154 269.046 257.11 268.819 256.799 266.894C256.487 264.97 256.458 264.742 256.369 263.976C256.288 263.269 256.343 262.868 256.401 262.598C256.477 262.241 256.595 261.975 256.806 261.682C257.017 261.389 257.232 261.194 257.547 261.009C257.785 260.869 258.148 260.69 258.845 260.544C259.505 260.406 259.761 260.356 261.104 260.137L261.105 260.138ZM265.792 260.608C265.314 260.685 264.989 261.134 265.067 261.612C265.144 262.089 265.594 262.414 266.071 262.337C266.549 262.26 266.874 261.81 266.796 261.332C266.719 260.855 266.269 260.53 265.792 260.607L265.792 260.608ZM262.108 262.239C260.064 262.57 258.675 264.495 259.006 266.539C259.337 268.583 261.262 269.971 263.306 269.64C265.35 269.309 266.738 267.385 266.407 265.341C266.077 263.297 264.152 261.908 262.108 262.239L262.108 262.239ZM262.318 263.539C263.645 263.324 264.895 264.225 265.109 265.552C265.324 266.879 264.422 268.128 263.096 268.343C261.769 268.558 260.52 267.656 260.305 266.33C260.09 265.003 260.992 263.753 262.318 263.539Z" fill="white"/>
</g>
<rect x="145.985" y="312.973" width="139.362" height="4.71273" rx="2.35637" transform="rotate(-9.19238 145.985 312.973)" fill="#1E1E1E"/>
<rect x="147.459" y="322.079" width="139.362" height="4.71273" rx="2.35637" transform="rotate(-9.19238 147.459 322.079)" fill="#1E1E1E"/>
<rect x="148.889" y="330.917" width="71.3642" height="4.71273" rx="2.35637" transform="rotate(-9.19238 148.889 330.917)" fill="#1E1E1E"/>
<rect x="143.404" y="297.023" width="80.1164" height="7.40572" rx="3.70286" transform="rotate(-9.19238 143.404 297.023)" fill="#FFCF35"/>
<path d="M129.759 374.06C129.759 374.06 100.163 371.533 95.866 396.873C91.5731 422.212 113.695 437.263 120.685 426.163C127.68 415.063 129.759 374.06 129.759 374.06Z" fill="#202020"/>
<path d="M225.39 384.91C225.39 384.91 232.429 359.419 231.278 342.848C230.128 326.277 225.994 320.913 223.514 320.74C221.035 320.568 219.439 331.098 219.439 331.098C219.439 331.098 217.927 315.557 212.484 315.278C207.038 314.994 206.849 328.787 206.849 328.787C206.849 328.787 203.481 317.914 199.379 320.41C195.276 322.905 196.138 353.968 196.138 353.968C196.138 353.968 189.432 345.247 186.233 347.137C183.035 349.023 186.313 361.205 189.603 367.661C192.895 374.122 199.542 378.901 199.542 378.901L225.39 384.91Z" fill="#FEC29E"/>
<path d="M223.018 348.175C223.031 348.104 223.036 348.035 223.033 347.961C223.002 347.483 222.588 347.12 222.107 347.15L197.759 348.733C197.277 348.768 196.928 349.192 196.949 349.66C196.98 350.137 197.393 350.5 197.875 350.47L222.222 348.887C222.626 348.854 222.948 348.556 223.018 348.175Z" fill="#1E1C1C"/>
<path d="M209.401 371.964C209.597 370.897 211.122 360.308 196.515 353.186C196.086 352.976 195.565 353.155 195.355 353.584C195.127 354.023 195.324 354.535 195.753 354.745C209.753 361.57 207.799 371.259 207.692 371.662C207.603 372.151 207.89 372.597 208.346 372.702C208.811 372.808 209.275 372.515 209.385 372.052C209.385 372.052 209.392 372.016 209.401 371.964Z" fill="#1E1C1C"/>
<path d="M236.494 374.176C236.494 374.176 259.3 428.198 241.368 462.853C223.436 497.513 157.011 495.573 157.011 495.573L147.755 442.585C147.755 442.585 177.925 442.362 189.136 424.803C197.54 411.64 191.721 378.203 191.721 378.203L236.494 374.176Z" fill="white"/>
<path d="M196.702 433.743C196.286 433.766 195.875 433.663 195.474 433.438C192.398 431.716 190.36 421.945 189.977 420.002C189.903 419.621 190.081 419.238 190.415 419.054C190.753 418.861 191.161 418.915 191.454 419.171C192.35 419.984 200.184 427.248 199.404 431.326C199.263 432.063 198.791 433.053 197.338 433.599C197.132 433.683 196.916 433.731 196.702 433.743ZM192.379 422.571C193.362 426.511 194.898 431.076 196.348 431.887C196.532 431.99 196.637 431.969 196.712 431.94C197.442 431.661 197.604 431.295 197.656 430.997C198.008 429.154 195.13 425.441 192.379 422.571Z" fill="#161616"/>
<path d="M100.071 451.937C100.071 451.937 88.2328 454.17 81.0902 458.627C73.9436 463.085 65.8275 488.728 65.8275 488.728L102.556 529.684L135.439 510.726L100.071 451.937Z" fill="white"/>
<path d="M149.562 697.341C153.988 697.312 158.551 697.202 163.329 697.011C170.45 696.654 177.189 695.817 183.442 694.617C200.3 691.438 214.087 685.679 224.216 680.299C219.309 624.402 198.914 573.111 187.019 547.162C182.636 537.622 179.404 531.477 178.49 529.814C178.331 529.503 178.251 529.361 178.251 529.361L158.526 534.914L155.012 535.894L154.839 540.545L154.472 552.029L149.562 697.341Z" fill="#171717"/>
<path d="M90.8493 621.147C98.6958 669.371 104.478 685.92 104.478 685.92C104.478 685.92 103.66 688.715 102.292 693.51C113.578 695.492 129.639 697.396 149.573 697.333C153.975 697.321 158.563 697.218 163.331 696.995C170.446 696.667 177.172 695.81 183.453 694.612C185.507 685.802 186.76 679.742 187.093 678.136C192.969 649.995 163.797 548.363 163.797 548.363L158.513 534.911L103.341 543.987C103.341 543.987 83.0017 572.902 90.8493 621.147Z" fill="#1C1C1C"/>
<path d="M117.214 425.726L118.995 444.934C118.995 444.934 122.973 450.134 134.291 450.004C142.724 449.907 145.488 447.741 145.488 447.741L143.418 438.121L141.389 428.742L120.685 426.162L117.214 425.726Z" fill="#FEC29E"/>
<path d="M117.164 424.809C117.261 425.33 117.517 425.927 117.895 426.611C123.081 435.808 138.546 438.142 143.422 438.124L141.394 428.745L117.164 424.809Z" fill="#1E1C1C"/>
<path d="M141.612 384.566C141.612 384.566 153.924 407.713 151.19 421.459C148.457 435.208 136.034 434.034 128.497 431.999C120.959 429.965 117.209 425.728 117.209 425.728C117.209 425.728 110.537 428.579 105.462 422.561C100.386 416.542 102.643 409.004 106.427 407.029C110.211 405.05 115.082 407.516 115.082 407.516L110.898 400.836C110.898 400.836 123.515 364.278 141.612 384.566Z" fill="#FEC29E"/>
<path d="M145.701 394.131C145.584 394.129 140.849 393.694 140.849 393.694C140.405 393.653 140.071 393.259 140.116 392.815C140.156 392.371 140.553 392.005 140.999 392.081L145.734 392.517C146.177 392.557 146.507 392.952 146.467 393.4C146.429 393.803 146.097 394.109 145.701 394.131Z" fill="#1E1C1C"/>
<path d="M128.298 397.123C127.951 397.143 127.608 396.955 127.448 396.62C127.233 396.178 127.418 395.645 127.86 395.43L133.186 392.844C133.616 392.629 134.16 392.81 134.375 393.256C134.59 393.698 134.405 394.23 133.963 394.445L128.637 397.032C128.531 397.09 128.415 397.117 128.298 397.123Z" fill="#1E1C1C"/>
<path d="M143.485 411.455C143.364 411.461 143.233 411.44 143.113 411.39C142.653 411.213 142.426 410.695 142.607 410.239C144.659 404.982 139.607 402.178 139.389 402.06C138.955 401.825 138.796 401.287 139.031 400.853C139.262 400.418 139.804 400.255 140.234 400.486C142.551 401.724 146.372 405.487 144.267 410.881C144.137 411.228 143.824 411.436 143.485 411.455Z" fill="#1E1C1C"/>
<path d="M115.665 417.4C115.544 417.407 115.413 417.386 115.293 417.34L105.374 413.48C104.915 413.303 104.688 412.785 104.869 412.329C105.042 411.87 105.569 411.642 106.02 411.824L115.939 415.684C116.398 415.861 116.625 416.379 116.444 416.835C116.317 417.174 116.004 417.381 115.665 417.4Z" fill="#1E1C1C"/>
<path d="M107.17 420.112C106.939 420.125 106.708 420.045 106.521 419.881C106.158 419.548 106.131 418.983 106.459 418.616L110.491 414.169C110.824 413.81 111.381 413.783 111.756 414.107C112.118 414.44 112.146 415.005 111.817 415.372L107.785 419.819C107.617 420.003 107.396 420.1 107.17 420.112Z" fill="#1E1C1C"/>
<path d="M149.597 404.624C149.597 404.624 147.24 397.43 139.187 389.87C131.134 382.315 131.134 382.315 131.134 382.315C131.134 382.315 132.82 397.367 126.423 404.258C120.026 411.149 115.083 407.525 115.083 407.525L101.51 396.9L129.759 374.066C129.759 374.066 149.041 372.014 149.597 404.624Z" fill="#202020"/>
<path d="M143.472 443.078L160.987 444.526C160.987 444.526 183.221 462.718 180.723 481.384C179.053 493.855 178.314 496.833 178.314 496.833L184.523 536.159C184.523 536.159 169.958 549.69 144.104 553.835C118.25 557.976 95.7857 551.463 95.7857 551.463C95.7857 551.463 94.5315 458.499 94.096 450.608C93.8103 445.284 143.472 443.078 143.472 443.078Z" fill="white"/>
<path d="M144.229 441.882L151.803 443.769C151.803 443.769 155.081 457.887 138.059 459.706C120.195 461.615 105.11 446.557 105.11 446.557L120.616 443.185L144.229 441.882Z" fill="#FEC29E"/>
<path d="M136.576 460.723C117.726 461.727 104.977 447.75 104.446 447.156C104.118 446.789 104.148 446.228 104.514 445.896C104.877 445.576 105.441 445.59 105.774 445.964C105.899 446.103 118.504 459.897 136.417 458.941C142.252 458.619 146.389 456.88 148.786 453.762C152.054 449.503 150.941 444.01 150.93 443.954C150.831 443.474 151.136 442.999 151.617 442.896C152.12 442.775 152.568 443.102 152.676 443.582C152.73 443.839 153.976 449.903 150.214 454.83C147.49 458.391 142.904 460.373 136.576 460.723Z" fill="#161616"/>
<path d="M179.107 494.746C178.973 494.753 178.838 494.728 178.706 494.675C178.258 494.481 178.042 493.958 178.236 493.505C185.353 476.768 168.425 455.03 168.25 454.813C167.95 454.425 168.012 453.866 168.4 453.561C168.792 453.256 169.351 453.322 169.652 453.707C170.383 454.626 187.412 476.484 179.875 494.205C179.739 494.524 179.434 494.727 179.107 494.746Z" fill="#161616"/>
<path d="M123.836 522.604C123.836 522.604 156.365 514.121 164.81 516.968C173.251 519.816 168.149 547.436 165.942 552.528C163.74 557.62 129.39 552.05 129.39 552.05L118.778 538.564L123.836 522.604Z" fill="#FEC29E"/>
<path d="M164.811 516.973C164.811 516.973 185.534 529.435 186.768 537.837C188.001 546.239 162.465 529.939 162.465 529.939L164.811 516.973Z" fill="#FEC29E"/>
<path d="M153.667 551.986C153.667 551.986 136.99 556.754 142.62 561.065C148.249 565.377 164.573 556.921 165.943 552.536C167.313 548.15 154.736 543.457 154.736 543.457L153.667 551.986Z" fill="#FEC29E"/>
<path d="M102.735 446.987C102.735 446.987 34.025 463.325 35.0159 515.48C35.7628 554.849 129.156 561.725 129.156 561.725L131.279 517.86L72.7927 481.565L102.735 446.987Z" fill="white"/>
<path d="M127.632 514.32C127.511 514.327 127.388 514.305 127.264 514.26C126.917 514.129 92.4388 501.024 78.7161 501.781C78.2113 501.809 77.7895 501.431 77.7623 500.939C77.7349 500.442 78.1451 500.022 78.6176 499.996C92.7158 499.218 126.47 512.047 127.901 512.592C128.361 512.769 128.592 513.283 128.415 513.742C128.288 514.086 127.972 514.302 127.632 514.32Z" fill="#161616"/>
<path d="M101.879 505.829C101.706 505.838 101.529 505.795 101.374 505.703C97.0474 503.122 87.0412 496.796 87.5736 493.818C87.6693 493.278 88.0565 492.584 89.3555 492.342C95.3825 491.232 101.898 503.158 102.618 504.524C102.803 504.879 102.734 505.312 102.441 505.587C102.287 505.733 102.085 505.817 101.879 505.829ZM90.0374 494.055C89.9202 494.061 89.7995 494.076 89.6833 494.098C89.3705 494.156 89.2774 494.23 89.2774 494.23C89.3147 495.2 93.6141 498.678 99.2246 502.277C96.8242 498.565 93.0702 493.887 90.0374 494.055Z" fill="#161616"/>
<path d="M152.174 554.864L146.9 555.155C146.577 555.173 146.268 555.012 146.095 554.734C145.922 554.46 145.915 554.112 146.077 553.823L148.483 549.567C148.723 549.141 149.269 548.989 149.7 549.232C150.131 549.472 150.278 550.019 150.035 550.449L148.429 553.289L152.072 553.088C152.565 553.06 152.987 553.438 153.014 553.931C153.04 554.415 152.667 554.837 152.174 554.864Z" fill="#1E1C1C"/>
<path d="M169.775 533.817C169.532 533.831 169.285 533.743 169.096 533.559C166.863 531.337 162.828 527.663 161.515 527.278C161.045 527.137 160.775 526.642 160.911 526.169C161.051 525.699 161.542 525.425 162.02 525.565C164.153 526.192 169.339 531.285 170.355 532.295C170.702 532.644 170.705 533.203 170.356 533.558C170.198 533.717 169.989 533.805 169.775 533.817Z" fill="#1E1C1C"/>
<path d="M168.391 543.596C168.177 543.608 167.959 543.539 167.78 543.394L157.551 535.068C157.169 534.757 157.109 534.193 157.42 533.811C157.735 533.429 158.3 533.374 158.677 533.681L168.907 542.008C169.289 542.319 169.348 542.883 169.037 543.264C168.866 543.472 168.629 543.583 168.391 543.596Z" fill="#1E1C1C"/>
<path d="M134.48 405.8C134.097 405.821 133.727 405.59 133.593 405.213L132.416 401.948C132.359 401.797 132.347 401.636 132.378 401.48L132.971 398.341C133.058 397.858 133.533 397.524 134.013 397.631C134.496 397.722 134.813 398.186 134.723 398.673L134.178 401.572L135.273 404.61C135.441 405.075 135.201 405.582 134.741 405.753C134.649 405.779 134.561 405.796 134.48 405.8Z" fill="#1E1C1C"/>
<path d="M146.218 403.504C145.835 403.525 145.466 403.299 145.331 402.917L144.155 399.656C144.098 399.506 144.085 399.344 144.117 399.189L144.709 396.045C144.796 395.562 145.271 395.228 145.751 395.335C146.234 395.426 146.551 395.891 146.461 396.378L145.916 399.28L147.007 402.314C147.175 402.779 146.935 403.286 146.475 403.454C146.387 403.483 146.303 403.499 146.218 403.504Z" fill="#1E1C1C"/>
<path d="M138.124 422.496C137.938 422.506 137.747 422.493 137.55 422.447C135.568 421.981 134.101 417.643 133.7 416.324C133.597 415.997 133.695 415.648 133.941 415.411C134.187 415.175 134.549 415.114 134.863 415.227L141.179 417.596C141.406 417.681 141.59 417.853 141.683 418.079C141.781 418.304 141.783 418.551 141.686 418.775C141.425 419.418 140.078 422.388 138.124 422.496ZM136.033 417.564C136.718 419.26 137.513 420.606 137.964 420.71C138.317 420.853 139.058 419.978 139.648 418.92L136.033 417.564Z" fill="#1E1C1C"/>
<path d="M98.1085 416.381C97.737 416.402 97.3766 416.183 97.2311 415.822C91.7588 402.027 97.5276 388.755 97.7762 388.194C97.9783 387.746 98.5058 387.542 98.9542 387.74C99.4028 387.942 99.6059 388.466 99.4081 388.918C99.3464 389.047 93.6981 402.082 98.8918 415.159C99.0752 415.619 98.8524 416.134 98.3926 416.317C98.2975 416.355 98.2014 416.376 98.1085 416.381Z" fill="#272726"/>
<path d="M94.4909 399.927C91.3692 400.099 78.3724 400.428 76.6528 394.078C76.2609 392.629 76.7751 391.819 77.2785 391.398C79.4626 389.577 86.5072 391.93 91.63 394.033C86.0479 388.379 76.7994 377.652 81.0638 372.422C82.134 371.116 83.3177 370.985 84.1117 371.132C89.8391 372.08 96.873 390.536 97.6532 392.635C97.8244 393.096 97.5934 393.607 97.1289 393.778C96.6645 393.95 96.1535 393.719 95.9861 393.254C93.1667 385.693 87.372 373.472 83.8195 372.886C83.4839 372.823 83.0115 372.85 82.4465 373.549C78.5918 378.274 91.2643 391.518 96.4656 396.217C96.7939 396.515 96.8574 397.006 96.6103 397.372C96.3636 397.746 95.8843 397.869 95.4895 397.689C88.4318 394.364 79.8781 391.526 78.4238 392.773C78.2687 392.899 78.2523 393.188 78.3733 393.619C79.6446 398.304 90.796 398.519 94.9985 398.113C95.5632 397.997 95.92 398.443 95.9631 398.93C96.0024 399.422 95.6332 399.852 95.1454 399.895C95.0723 399.891 94.8463 399.908 94.4909 399.927Z" fill="#272726"/>
<path d="M210.106 609.369C209.683 609.34 202.528 608.653 197.374 600.921C192.998 594.353 197.234 583.551 198.877 579.928C196.16 579.645 190.158 578.489 187.938 573.727C184.407 566.185 191.643 559.381 191.951 559.093C192.313 558.757 192.873 558.778 193.209 559.141C193.541 559.503 193.524 560.063 193.161 560.399C193.092 560.459 186.577 566.607 189.549 572.969C191.928 578.055 200.173 578.228 200.254 578.232C200.562 578.235 200.851 578.401 201.007 578.664C201.167 578.927 201.177 579.254 201.038 579.529C200.973 579.662 194.231 592.985 198.855 599.924C203.518 606.909 210.068 607.577 210.137 607.585C210.626 607.631 210.99 608.06 210.948 608.549C210.904 609.001 210.547 609.345 210.106 609.369Z" fill="#353535"/>
<path d="M187.478 681.8C186.855 681.749 186.495 681.312 186.541 680.823C190.074 643.924 166.942 564.773 166.708 563.98C166.608 563.637 166.722 563.266 166.997 563.036L178.874 553.206C179.246 552.902 179.807 552.94 180.132 553.327C180.445 553.707 180.39 554.265 180.011 554.585L168.583 564.038C170.671 571.271 191.724 645.413 188.312 680.997C188.272 681.44 187.91 681.776 187.478 681.8Z" fill="#353535"/>
<path d="M114.916 432.166C118.088 431.99 120.517 429.277 120.342 426.106C120.167 422.934 117.454 420.505 114.282 420.68C111.111 420.855 108.681 423.568 108.856 426.74C109.031 429.911 111.744 432.341 114.916 432.166Z" fill="#FFBE1D"/>
<rect x="33.2385" y="569.135" width="363.253" height="16.0147" fill="#373737"/>
</g>
</g>
<rect x="285.409" y="420.815" width="118.39" height="54.0301" rx="6.73247" transform="rotate(-12.0279 285.409 420.815)" fill="#121212" fill-opacity="0.63"/>
<rect x="296.831" y="443.219" width="105.403" height="3.56437" rx="1.78218" transform="rotate(-12.0279 296.831 443.219)" fill="#1E1E1E" fill-opacity="0.69"/>
<rect x="298.285" y="450.042" width="105.403" height="3.56437" rx="1.78218" transform="rotate(-12.0279 298.285 450.042)" fill="#1E1E1E" fill-opacity="0.69"/>
<rect x="299.696" y="456.665" width="53.9747" height="3.56437" rx="1.78218" transform="rotate(-12.0279 299.696 456.665)" fill="#1E1E1E" fill-opacity="0.69"/>
<rect x="294.452" y="432.143" width="54.7435" height="4.30619" rx="2.1531" transform="rotate(-12.0279 294.452 432.143)" fill="#FFCF35"/>
<rect x="369.657" y="393.56" width="20.5262" height="20.5262" rx="3.4529" transform="rotate(-12.0279 369.657 393.56)" fill="#222222"/>
<path d="M380.188 401.898L383.099 401.278" stroke="white" stroke-width="0.637754" stroke-miterlimit="10" stroke-linecap="round" stroke-linejoin="round"/>
<path d="M380.543 403.561L382.364 403.173" stroke="white" stroke-width="0.637754" stroke-miterlimit="10" stroke-linecap="round" stroke-linejoin="round"/>
<path d="M380.471 399.142L382.134 398.788C382.966 398.611 382.877 398.195 382.788 397.779C382.611 396.947 382.195 397.036 381.78 397.125L380.116 397.479C379.7 397.568 379.285 397.656 379.462 398.488C379.639 399.319 380.055 399.231 380.471 399.142Z" stroke="white" stroke-width="0.637754" stroke-miterlimit="10" stroke-linecap="round" stroke-linejoin="round"/>
<path d="M382.79 397.787C384.191 397.567 384.994 397.931 385.399 399.831L385.931 402.326C386.285 403.989 386.047 404.91 383.967 405.353L381.472 405.884C379.393 406.327 378.8 405.584 378.446 403.921L377.914 401.426C377.51 399.53 378.095 398.866 379.464 398.496" stroke="white" stroke-width="0.637754" stroke-miterlimit="10" stroke-linecap="round" stroke-linejoin="round"/>
<rect x="244.588" y="339.518" width="118.39" height="52.7204" rx="6.73247" transform="rotate(4.22474 244.588 339.518)" fill="#121212"/>
<rect x="331.353" y="336.042" width="21.0092" height="21.0092" rx="3.53416" transform="rotate(4.22474 331.353 336.042)" fill="#222222"/>
<path fill-rule="evenodd" clip-rule="evenodd" d="M340.95 345.255L340.945 345.63L340.571 345.557C339.211 345.28 338.055 344.597 337.109 343.523L336.648 342.991L336.493 343.348C336.161 344.143 336.271 345.017 336.794 345.638C337.072 345.98 337.001 346.021 336.494 345.792C336.318 345.717 336.162 345.66 336.146 345.682C336.089 345.731 336.219 346.438 336.342 346.723C336.51 347.118 336.882 347.521 337.304 347.774L337.661 347.977L337.222 347.952C336.8 347.921 336.784 347.928 336.818 348.091C336.932 348.597 337.489 349.167 338.137 349.445L338.593 349.639L338.167 349.853C337.537 350.159 336.813 350.305 336.103 350.267C335.763 350.25 335.481 350.26 335.479 350.283C335.474 350.359 336.363 350.854 336.887 351.061C338.458 351.675 340.383 351.603 341.879 350.863C342.943 350.336 344.05 349.215 344.611 348.092C344.913 347.494 345.253 346.385 345.293 345.844C345.319 345.494 345.345 345.449 345.798 345.062C346.066 344.836 346.319 344.587 346.37 344.514C346.456 344.375 346.449 344.374 346.054 344.475C345.396 344.657 345.308 344.619 345.65 344.3C345.902 344.073 346.214 343.652 346.223 343.523C346.225 343.5 346.109 343.529 345.976 343.588C345.834 343.655 345.524 343.747 345.292 343.798L344.875 343.898L344.524 343.619C344.33 343.467 344.055 343.293 343.907 343.236C343.53 343.101 342.94 343.073 342.584 343.169C341.615 343.443 340.954 344.282 340.95 345.255Z" fill="white"/>
<rect x="249.063" y="363.55" width="105.403" height="3.56437" rx="1.78218" transform="rotate(4.22474 249.063 363.55)" fill="#1E1E1E"/>
<rect x="248.549" y="370.508" width="105.403" height="3.56437" rx="1.78218" transform="rotate(4.22474 248.549 370.508)" fill="#1E1E1E"/>
<rect x="248.05" y="377.261" width="53.9747" height="3.56437" rx="1.78218" transform="rotate(4.22474 248.05 377.261)" fill="#1E1E1E"/>
<rect x="249.919" y="351.714" width="56.5528" height="5.38598" rx="2.69299" transform="rotate(4.22474 249.919 351.714)" fill="#FFCF35"/>
</g>
<defs>
<filter id="filter0_d_2207_7920" x="30.5455" y="251.28" width="368.639" height="324.417" filterUnits="userSpaceOnUse" color-interpolation-filters="sRGB">
<feFlood flood-opacity="0" result="BackgroundImageFix"/>
<feColorMatrix in="SourceAlpha" type="matrix" values="0 0 0 0 0 0 0 0 0 0 0 0 0 0 0 0 0 0 127 0" result="hardAlpha"/>
<feOffset dy="2.69299"/>
<feGaussianBlur stdDeviation="1.34649"/>
<feComposite in2="hardAlpha" operator="out"/>
<feColorMatrix type="matrix" values="0 0 0 0 0 0 0 0 0 0 0 0 0 0 0 0 0 0 0.25 0"/>
<feBlend mode="normal" in2="BackgroundImageFix" result="effect1_dropShadow_2207_7920"/>
<feBlend mode="normal" in="SourceGraphic" in2="effect1_dropShadow_2207_7920" result="shape"/>
</filter>
<clipPath id="clip0_2207_7920">
<rect width="428" height="926" fill="white" transform="translate(0 0.427246)"/>
</clipPath>
</defs>
</svg>
