<svg width="226" height="146" viewBox="0 0 226 146" fill="none" xmlns="http://www.w3.org/2000/svg">
<circle cx="113.001" cy="72.7823" r="72.7823" fill="#FFCF35"/>
<path d="M105.724 105.851L78.3638 80.6365L87.5561 72.3712L103.538 87.0978L136.739 39.708L147.635 46.0337L105.724 105.851Z" fill="#1E1E1E"/>
<path d="M22.0159 71.1318H0.515137V74.4268H22.0159V71.1318Z" fill="#FFCF35"/>
<path d="M14.5648 25.2971L12.2476 27.627L27.4508 42.9133L29.768 40.5834L14.5648 25.2971Z" fill="#FFCF35"/>
<path d="M27.4508 101.927L12.2476 117.213L14.5648 119.543L29.768 104.256L27.4508 101.927Z" fill="#FFCF35"/>
<path d="M225.485 71.1309H203.984V74.4258H225.485V71.1309Z" fill="#FFCF35"/>
<path d="M211.438 25.2986L196.234 40.585L198.552 42.9148L213.755 27.6285L211.438 25.2986Z" fill="#FFCF35"/>
<path d="M198.544 101.914L196.227 104.244L211.428 119.528L213.745 117.198L198.544 101.914Z" fill="#FFCF35"/>
</svg>
